<svg xmlns="http://www.w3.org/2000/svg" width="1701" height="564" fill="none"><g fill="#fff" clip-path="url(#a)"><path d="M1321.52 269.318s-1.69 3.752-2.05 5.084c-.73 2.784-1.58 5.568-2.18 8.352l1.69 1.089-.6 4.479 2.17-2.421 3.27.605-.61 5.689-3.38 1.694-2.78-1.936c-.37 4.236-.97 8.231-2.42 12.225 1.21 0 6.29 2.905 4.84 4.357l-4.84-1.21c1.09 4.115.24 7.142-.61 11.015l3.63-1.211c.24 3.148-2.42 6.537-5.44 7.505-1.21 2.542 1.69 2.421 1.81 3.873 0 1.937-1.81 2.3-2.54 3.269-2.41 3.389 1.7 2.42 3.27 3.752l.36 1.573c-2.42 1.574-3.26 2.905-4.23 5.689l-1.81-.363.24 3.753c4.59.726 3.51 3.026 3.99 6.657-2.78.242 0-4.479-3.63-4.237.24 7.021-5.68 12.589-3.02 19.609l4.23-1.816v2.421h-3.87l-.97.969c0 5.689-1.45 11.378-2.78 16.824-.6 2.421-2.18 4.479-2.66 7.142-.6 3.873.73 7.02.48 10.894-.48 6.536-3.99 16.34-4.83 23.361-.49 3.873.72 7.141.48 11.014-.24 3.632-1.81 6.174-2.42 9.321-.84 4.962.24 11.378-.72 15.856-1.94 8.715-2.66 13.194-3.63 22.151-.85 8.11-4.35 15.13-6.53 22.998-3.63 4.72-9.55 1.936-14.03 1.815-12.21 0-23.58 2.663-35.55 3.147-6.41.243-12.22-1.694-18.38-1.331-5.45.363-12.34 2.542-17.42 2.784-4.35.242-10.16-1.21-14.39-.968-3.02.121-6.04 1.936-9.19 1.936-4.35 0-6.77-.363-11.61 0-2.05.121-7.74-.242-9.79-.605-1.45-.242-3.63-2.784-3.87-4.115-.37-1.695.6-3.026.48-4.721 0-2.058-1.33-4.6-1.33-6.778 0-4.116 1.81-9.32 1.94-13.436.12-5.084-1.21-10.652-.61-15.977.36-3.511 2.66-4.842 1.57-8.958-.36-1.452-2.05-3.147-2.05-4.599 0-1.695 2.66-4.721 2.9-6.9.72-8.836-1.57-17.793-1.09-26.871.24-4.72 2.18-10.288 1.94-14.767-.13-2.542-1.33-4.115-1.7-6.294-.6-3.873.85-7.384 1.09-11.257 2.18.968 0 2.663 1.09 4.721.48.968 1.57 1.573 2.66 1.936 1.33-2.057-.73-3.147-.6-4.599 0-.363 1.08-.242 1.2-.847.25-.969.97-5.326.61-5.689l-4.23 1.815c.6-3.51.6-7.141 1.33-10.651.24-.969 1.21-1.816 1.21-2.542 0-.848-1.09-1.574-1.21-2.542-.25-1.816.96-3.147 1.09-4.358 0-1.089-.97-1.936-1.09-3.026-.12-2.3 0-4.72 0-7.02.96 0 .72 1.21 1.57 1.815 6.65 4.358 5.2-3.994-1.57-3.631v-6.415c0-2.179 1.93-4.237-1.82-3.752l3.03-9.563s3.26 2.905 4.35 1.574c.12-3.268-2.54-3.631-3.39-6.415-.48-1.332-1.45-9.321-.96-9.805l4.23.606c.72-2.179-1.09-1.816-1.57-2.421-.49-.606 1.69-11.257.96-14.283l-4.35-.969.61-13.435 1.81.605-.61-14.767h2.42v-4.479l-1.69-.968-.6 3.026-.49-3.994c4.72-1.816 6.17-6.294.49-7.384v-5.084h1.81c.6-1.815-1.33-3.026-1.21-4.599.12-1.695 2.66-2.421 1.21-4.842-.24-.484-1.21-.363-1.21-.726.24-2.905 6.41-4.237.6-6.294-.48-3.632.37-8.11 0-11.62-.24-2.663-3.14-7.626-1.2-10.047 0 0 1.08.605 2.29-.363 2.06-1.452 1.94-4.599 4.96-2.784-.48-2.421.61-4.963.61-7.02 0-1.453-.25-.727-.73-.727-.97-.121-2.9-.121-3.63.727l-.48 6.052-1.82.968s1.21-4.478 1.21-5.81-1.08-2.663-1.21-4.357c-.36-3.632.73-6.779.73-9.805 0-2.3-1.33-3.994-1.33-6.173 0-2.663 2.3-5.81 2.78-8.836.24-1.816-.48-3.51-.24-5.205.36-3.389 1.81-14.767 3.39-16.946.96-1.452 4.23-3.026 4.59-4.115.36-1.21-.97-2.179-1.09-3.026s3.27-3.389.85-3.873c-1.57-.363-1.81 3.994-3.27 4.72l-1.33 3.632c-1.21.847-3.02-.969-4.59-.969-4.11-.121-4.23 3.995-5.2 6.9-.12.484-1.09.242-1.21 1.331-.61 5.326-.12 10.652-.61 15.978-.72 10.046-1.93 20.092-2.41 30.018-.25 3.752.6 6.536 1.21 10.167l-1.82-2.42c-1.33 3.752 0 8.109-.36 11.741-.97 12.83-2.9 25.903-4.6 38.854-.84 6.536-1.09 11.378-2.54 17.793-1.33 5.931-.72 9.199 0 15.13l-1.21-.605c-.84 7.384 1.58 15.009-1.81 22.151l-1.81-.605c-.73 1.694 1.08 1.815 1.21 2.299 1.08 5.689-1.94 11.499-2.42 17.067-.37 4.963-.73 13.557-.73 18.399 0 2.42 1.45 4.841 1.82 7.262l-5.45 3.147 3.63 1.211c-1.21 2.663-.36 5.689-.6 8.473s-2.42 5.567-.61 9.199l-2.3 3.147c1.09 4.357.85 11.136.37 15.856-.24 2.421-1.82 4.963-1.21 7.747l-1.82-.605-.6 2.178c1.21 1.453 2.18-.726 1.93 1.937-.12 1.09-1.08.726-1.2 1.332 0 .363-.61 3.873-.61 4.115.12.726 1.45.726 1.57 1.089.97 1.453-1.57 12.468-1.69 15.494-.12 2.905 0 5.689 0 8.594-.24 10.046-3.14 22.513-3.63 33.165-.12 3.389.85 6.657.61 9.805-.12 3.631-2.18 7.746-2.3 10.651-.24 3.147 2.42 8.11-.49 11.257-.24.242-4.95 1.453-5.68 1.695-3.75.968-10.28 2.663-14.51 2.542-10.52 0-21.28-.969-31.93-.606-5.07.121-11.24 2.058-15.96 1.937-3.51 0-7.25-1.21-10.88-.605l-.73-1.211-.72 1.211c-3.39-.605-6.05 1.452-9.07 1.815-4.96.485-10.16-.363-15-.605 2.06 2.784 1.69 7.263-2.42 6.779-.36 1.573 1.82 1.936 1.7 3.268 0 .242-1.82 4.599-2.06 4.72-.6.605-3.27.969-4.35 1.09-11.371 1.815-23.585 1.694-34.952 1.331-11.368-.363-24.428-.242-36.037 1.211-6.893.847-13.786 1.936-20.921 2.42-9.675.727-18.623 0-18.14-11.983 0-1.573 2.54-12.951 3.265-13.677.968-.969 5.2-.121 5.926-1.695 1.209-2.3-3.144-.363-3.386-.363-1.088 0-2.177-1.09-3.386-1.211 1.209-4.236-2.419-9.078.846-12.83.847 1.573 1.693 1.937 3.386 2.421 0-1.453.242-2.905-.362-4.237-.605-1.21-3.024-1.936-3.145-2.784-.12-1.089.726-4.599.726-6.173 0-6.536-.605-13.314-.967-19.972 5.442.969.121-2.663 0-4.599 0-.969 0-2.663.362-3.51l2.177-.848c.726-2.421-1.572-.968-1.814-1.815-.604-7.747 4.354-14.888 1.33-22.393l3.386.605s1.935 2.663 1.573.363c-.605-3.51-3.024-7.383-5.2-2.784l-2.177-2.421-.605 3.027h-13.544l.605-3.027c-2.419.243-3.144-2.905-4.233-3.389-.484-.242-5.804.242-7.014.121-1.088 0-3.265-2.299-4.474 1.332-1.572 4.72.967 4.478 4.232 6.778 2.54-1.331.968-3.268.968-5.447.846-.847 8.223 2.542 8.586 4.237-3.265 0-8.707 1.815-8.586 5.568-2.661-1.574-3.628-.727-5.926-.727-2.056 0-5.079-1.573-4.232 2.542 2.176-.847 3.144 1.332 4.353 1.695 1.089.363 6.409-.242 6.289.484-.847 1.937-.726 6.415-1.814 7.868-.484.726-2.298 0-2.903.968-.483.605 0 1.937-.363 2.663-.362.968-1.572.847-1.693 1.453-.483 1.815-.362 7.141 2.419 5.446.242-1.815-.967-5.204 1.814-5.204l-3.144 20.819-3.991-1.09-1.33.969.846 5.81 5.2 1.815-.604 3.026c-1.693.606-1.21-1.089-1.814-1.573-2.419-1.574-3.628 3.631-3.023 5.447.362.968 1.693.605 1.813 1.936.242 3.147-1.33 4.6-3.144 6.779l2.903 3.752c-.968 3.873-.242 8.836-1.21 12.709-.362 1.574-2.055 3.147-2.176 3.874-.242 1.21 1.33 2.057 1.572 3.147.725 2.663-1.935 4.236-2.177 6.778 0 1.332.605 2.542.484 3.873l-2.419-1.21c-.484 2.905 2.902 2.784 1.693 5.689-1.451 3.873-9.916 2.3-12.456 2.3-1.935 0-4.353 1.089-6.772 1.21-3.628.121-7.135-1.452-9.795-1.21-3.023.242-4.837 3.51-8.102 3.752-2.54 0-4.354-1.573-6.772-1.937-4.717-.605-14.028-.363-18.261 1.453-1.572.605-2.66 2.3-4.474 2.3s-3.265-2.179-5.442-2.179-4.595 1.331-6.772 1.574c-5.926.605-19.107.605-25.033 0-1.451-.121-2.902-.727-4.232-1.09-.847-.605-1.693-8.11-1.693-9.562 0-2.179 1.572-4.358 1.814-6.778.242-1.937.362-9.442-.121-10.894-.242-.726-2.298-2.663-3.024-3.147-4.716-3.026-10.641.121-15.599.242-2.419 0-4.596-1.09-6.652-1.09-3.99 0-9.916.969-14.753 1.09-1.088 0-3.023 1.089-3.87.484-.363-.242-.725-2.905-2.418-.968-.605.605-.484 1.815-.847 2.178-.605.606-14.753-.242-16.205-2.299-1.572 3.026-4.716 3.268-7.86 3.147l-.967-2.179-3.507.363.362 2.421c-1.814-.484-4.716-1.211-6.409-1.211-1.451 0-2.781.727-4.232.727-5.2 0-3.991-3.632-5.321-7.021-.847-2.178-2.419-2.784-2.661-5.326-.242-2.42 1.935-4.841 1.935-6.415 0-1.452-1.693-4.478-2.056-6.294-1.33-7.02 1.089-14.162.484-21.303-.726-8.957-1.814-17.793-1.935-26.993 0-1.452.726-2.784.605-4.236-.121-1.937-1.693-4.115-1.814-6.173-.363-7.989 1.088-18.277.604-26.387-.362-8.594-3.144-13.678-1.693-23.119 1.089-7.263-.725-7.142-.846-13.073 0-2.421 1.088-4.599 1.088-6.657 0-2.3-1.693-4.842-2.055-7.02-.363-2.542.241-4.963-.605-7.384-1.451-3.873-7.256-7.263-8.102-1.695s-.726 13.073-1.331 19.004c-.846 9.078-1.088 17.914-1.814 26.992-.362 5.205-2.781 11.862-3.023 16.583-.242 2.784.847 5.81.605 9.199-.121 2.905-1.814 6.657-1.814 9.199 0 4.116.604 7.505 0 12.226-1.693 11.377-4.233 24.208-4.233 35.707 0 6.052.121 6.173-.846 12.225-.363 1.937.967 8.715.363 9.562l-2.419-.363-.605 3.026c-3.99 2.784-.483-2.3-3.023-3.51-3.628-1.816-4.112 3.268-1.209 4.963v.847c-1.814-.121-1.451 3.994-1.089 5.205.605 1.937 6.289 3.873 6.652 1.937-1.693-2.3-2.177-7.989 1.209-8.837-.847 4.721.121 13.799-5.079 16.099-4.112 1.816-2.298-.363-2.419-.968-.121-.606-2.297-.969-2.297-3.753 0-1.573 1.934-2.541.12-3.994-3.506-2.663-10.279.968-8.706 5.447 4.111.847 4.474-.605 6.409-3.631 1.935 1.331-.847 1.694-.847 3.268 0 .968 1.089 2.3.363 3.389-1.088 1.574-5.684.968-7.377 1.21-2.297.363-4.837 2.058-7.86 1.211-.605-.121-.968-1.937-1.935-2.542-1.935-1.332-3.386 0-2.177 1.937-3.99-.242-7.497 2.057-11.367 2.42-10.763 1.09-21.163 0-31.926 0-8.465 0-21.767 2.784-29.265 1.09-.846-.242-6.167-3.026-6.651-3.874-.725-1.21-.725-2.057-.604-3.389 2.66 0 4.716 2.663 7.255 1.09-.846-3.511 3.991-9.078-2.055-7.263l-.726-1.331-2.781 1.21-.605-4.236c1.814 1.573 2.781 1.694 4.232-.363-1.209-1.695-2.418-1.937-4.232-.969-.847-1.936.967-4.72.967-5.81s-1.935-4.357-.967-6.415c.363-.363 5.321 1.331 5.925 1.695 1.331.726 1.21 2.662 2.903 1.936 2.177-.847.846-3.631 1.209-4.236.484-.726 1.814-.484 2.177-2.179.121-.605 0-4.357 0-4.479-2.298-.726-4.354-1.452-6.651-.363.725 1.09 1.814.242 2.902.727 2.902 1.331 1.814 2.663.726 4.962l-7.256-.484c1.572-4.72-.121-7.625-1.935-11.862 2.66-1.21 3.386-5.931 6.772-3.994-.363-4.6-2.056-2.058-4.958-2.179-.121-2.421 2.177-5.447 2.298-7.505.241-3.389.241-6.536.725-10.288.484-4.358-.242-13.799 1.088-16.704.605-1.21 2.419-2.3 2.54-3.026.242-1.331-3.386-3.631-1.209-7.141.363-.606 1.693-.485 1.935-1.937.362-2.3-2.419-4.116-2.54-6.778 0-2.3 1.572-4.237 1.935-6.779.363-3.51 1.088-12.588.967-15.977 0-2.058-1.209-3.995-.967-6.173.121-1.937 1.572-3.511 1.814-5.568.605-4.116-.242-10.652.484-14.283 1.088-5.326 2.902-7.989 3.144-14.525 0-2.784-1.089-6.779-.484-9.805.363-1.815 5.079-2.905 2.781-7.02h-2.176c-.968-3.147 1.572-5.81 1.814-8.231.362-3.026-.242-7.383 0-10.41 0-1.331 1.209-2.783 1.209-4.357 0-1.695-.967-3.389-.605-5.205 5.563 1.09-.604-2.542.605-3.631h1.814c0-3.631-1.33-6.294 2.539-8.231-4.595-2.3-1.209-5.447-1.813-9.562 3.023.484 6.53-.848 4.837-4.237-1.21-.242-2.782-.242-3.628.727-.605.726 0 2.299-1.209 2.178-.363-2.057.604-3.873.604-5.81 0-4.236.242-5.81.605-9.804.242-2.784-.726-9.078 0-11.015.484-1.331 1.935-1.452 1.935-1.815 0-.122-1.089-.727-1.089-1.695 0-.847.968-2.3 1.089-3.752.362-5.447-.484-12.952 0-17.793.242-2.663 2.176-5.568 1.209-8.958 1.935 1.211 2.419-.847 4.233-1.331l-2.419-3.873 2.66-1.09c3.024-1.452-1.088-5.81-3.265-4.72l.605-6.174c3.991 1.332 3.991-1.452.242-2.42l-.242-.848c1.209-3.51.242-7.383.605-11.014.362-3.148 2.055-7.142 2.418-10.531.484-5.568-.121-11.136 0-16.583 0-1.694.847-3.389.605-5.205l3.023.606c.242-2.663-2.902-2.179-1.814-5.568 1.33.726 3.023.121 3.144-1.574.121-1.694-2.297-1.331-2.781-2.058-.605-.968.121-3.994 0-5.567-.484-9.321.846-17.43 1.572-26.751.242-2.905-1.088-9.078.363-10.772.604-.727 1.693-.969 2.418-1.937 1.935-2.542-.362-6.173-.362-9.562.121-6.779 3.628-15.252 3.628-21.425 0-4.72-.242-6.052.12-11.015.726-10.772-4.111-23.118 6.652-30.744 11.246-1.937 22.734-.848 34.102-1.453 6.409-.363 13.302-2.3 19.711-2.42 1.693 0 2.903 1.089 4.233 1.089 1.572 0 3.507-1.453 5.079-1.574 12.093-.968 24.912.363 37.246 0 4.717-.12 7.861-2.3 13.424-1.815 2.055.12 4.232 1.21 6.167 1.21 2.781 0 6.772-1.573 9.795-1.815 16.326-1.09 26.726 2.662 42.205 6.173 8.102 1.815 5.805 2.057 12.335 6.052 6.167 3.752 12.093 4.962 18.381 9.804 8.102 6.294 12.093 14.162 16.688 23.12.726 1.452.605 3.267 1.452 4.72.725 1.21 2.176 1.936 2.902 3.268 1.935 3.752 6.046 29.897 5.684 34.255-.121 2.057-.968 3.752-1.21 5.568-.242 2.057.847 4.357.484 6.657s-2.177 3.994-2.419 6.778c-.362 4.479.847 10.652.605 15.372-.363 6.658-2.177 18.641-3.144 25.782-.726 5.326-1.572 6.779-1.693 12.952-.242 8.715-.968 16.583-1.935 25.055-.484 4.237-.242 8.715-.605 12.226-.242 1.694-1.814 3.389-1.814 5.568 0 3.026 2.177 6.294 1.814 9.078-.242 2.057-2.539 3.631-2.902 5.689-.363 2.057 0 4.236-.242 6.415-1.693 9.199-5.079 21.182-9.553 29.171-4.838 8.715-12.214 15.251-15.963 24.571-.484 1.09-2.54 7.021-2.661 7.868-.241 2.421 1.089 3.268 1.21 4.963.363 2.905-.242 6.173 0 9.078.363 3.268 2.297 7.141 2.418 10.531.242 4.599-1.814 9.199-1.209 14.646.242 2.542 1.451 4.599 1.814 7.383.726 7.626.242 15.615 1.33 23.24.363 2.3 1.572 4.6 1.814 6.779.484 4.962-1.814 10.893-1.209 15.977.242 2.784 2.056 5.447 2.419 7.989.846 6.899.362 13.556.725 20.214 0 2.3.484 6.052 2.177 7.625.484 0 2.902-6.899 3.023-7.988 1.572-6.9 2.298-13.073 4.354-20.093 1.814-6.052 1.934-6.052 2.66-12.589.484-3.631 2.419-6.778 2.66-10.772.121-2.905-.725-6.537-.241-9.563.362-2.299 2.418-5.083 2.902-8.23.363-2.179 0-4.237.363-6.416.362-2.663 2.297-5.083 2.539-7.141.242-1.695-.604-3.752-.242-5.931.363-2.663 2.298-6.052 2.903-9.441.967-6.052 1.451-11.62 2.056-17.551.241-2.3 1.692-4.358 1.813-6.295 1.452-20.698 7.74-41.88 11.61-62.578 1.693-9.078 2.781-18.277 4.837-27.114 2.781-11.741 3.628-23.603 5.805-35.223.967-5.083 1.209-6.657 1.693-11.741.241-2.421 3.265-4.841 3.628-7.504.362-2.058-.121-4.479 0-6.658.967-8.109 2.418-15.009 4.837-22.755 1.814-5.568.121-7.747.604-12.226.484-3.873 2.782-6.778 3.507-10.046 1.331-6.294 1.089-13.436 2.177-19.367.363-2.3 2.66-4.963 2.781-7.02.121-1.695-1.088-3.39-.967-4.72.121-1.453 2.902-5.327 3.386-8.232.967-6.536.847-11.74 2.419-19.003.483-2.179.604-6.052 1.451-7.747.363-.605 7.256-5.205 7.981-5.447 2.54-.726 3.144.242 5.079.242 10.521.121 21.405-.12 31.805-.605 2.177 0 4.837-1.816 6.772-1.816 3.749 0 9.795 2.058 14.753 1.937 3.024-.121 6.168-1.573 9.191-1.815 23.339-2.058 46.921-1.453 70.502-2.421 2.661 0 5.805-1.21 8.586-1.21 6.411-.243 13.911 1.089 13.911 8.956 0 4.72-1.21 10.894-1.21 15.252 0 5.204 2.9 9.683 2.42 15.372-.37 3.873-3.15 6.657-3.15 9.804 0 4.358 3.15 10.773 3.15 15.373 0 2.905-1.82 6.778-1.82 9.804 0 5.568 2.42 13.557 2.42 19.609 0 2.057-1.69 4.72-2.18 7.02-2.17 11.257 1.45 19.609 1.58 29.776 0 3.753-1.33 9.2-1.33 12.831 0 2.905 2.29 6.415 2.29 9.199 0 3.147-1.93 6.778-2.05 9.199-.12 2.784 2.05 5.205 2.05 7.384 0 1.573-1.09 3.147-1.21 4.841-.6 7.505.85 16.583.73 23.967 0 5.083-2.06 12.709-.97 17.551 1.94 9.441 1.94 10.651.73 20.093s1.93 18.277 1.45 27.96c-.49 9.199.24 18.399 0 27.598 0 3.268-2.54 7.262-2.54 10.409s2.05 6.416 2.42 9.321c1.33 10.288.12 24.934 0 35.586 0 4.478-1.21 8.957-1.21 12.225 0 2.784 2.17 8.473 2.42 11.62.72 7.02-.61 19.367-.73 26.992 0 1.816 1.09 3.874.73 5.81l1.21-10.772c-1.7-6.658 2.41-13.194 2.54-19.004 0-3.268-2.06-7.262-1.58-10.409.37-2.542 2.42-4.721 2.78-7.384.25-2.421-.72-4.115-.6-6.052 0-1.695 1.57-3.752 1.81-5.689.37-2.905-.36-6.294 0-9.078.37-2.179 1.7-4.479 1.82-7.384 0-3.51-1.21-6.899-.61-10.409.25-1.816 1.7-3.026 1.82-4.963s-.97-3.873-1.09-5.931c-.36-8.231 1.81-20.577 2.3-29.655.48-9.563 2.42-18.036 3.14-27.598.48-6.052-.36-13.678 0-19.609.36-5.083 3.27-11.983 3.63-17.188.24-3.873-1.09-7.867-.61-12.225.61-4.841 3.27-11.136 3.63-15.977.24-2.905-.84-5.689-.84-8.594 0-4.116 2.05-7.868 2.17-11.62.24-6.294-1.57-12.831-.6-20.214.6-4.842 3.5-11.741 3.63-15.978 0-1.452-.73-3.026-.61-4.841.61-10.894 2.3-21.788 3.15-32.561.96-13.798 2.66-27.355 3.62-41.154.49-6.052 1.45-10.894 2.78-16.825 1.82-8.23-1.33-10.41-1.2-16.098 0-3.026 1.69-7.02 2.05-10.168.85-6.415-.12-14.283 4.11-19.85l1.82 1.936c5.8-1.21.36-3.994.36-4.6 1.69-2.178 4.47-2.3 7.01-2.178 2.91 0 8.59 1.815 10.4 1.815 1.58 0 5.69-2.3 8.23-1.21l-.97 1.816c1.57 1.089 4.23 5.326 6.17 4.962 2.17-2.663-2.06-3.026-.85-6.173 2.3-.12 4.72.242 7.01 0 2.3-.242 4.24-1.936 6.53-2.178 1.94-.122 4.72.847 6.78.605 2.05-.242 3.74-1.332 5.68-1.453 3.02-.363 6.77.484 9.8 0 1.45-.242 3.14-1.573 4.47-1.694s2.78 1.452 4.84 1.694c5.32.605 13.42-1.573 18.98-1.21 3.03.12 6.53 1.936 9.19 1.815 2.42 0 4.11-1.815 5.69-2.178 1.45-.242 4.23.363 6.41.242 3.26-.242 6.41-2.3 8.7-2.421 3.03-.242 5.81 2.058 9.19 2.179 4.6.12 13.19-1.21 18.39-1.574 8.46-.605 21.52-2.905 29.5-2.42 1.09 0 4.11.726 4.6 1.573-.24 2.784 2.9 7.02 3.02 9.078 0 1.574-1.09 3.147-1.21 4.842-.36 5.447 1.57 12.467 1.21 17.188-.36 5.204-3.14 13.556-3.02 18.398 0 3.147 2.78 5.205 2.54 8.594-.12 1.937-1.45 2.905-1.82 4.478-1.21 5.69-1.81 15.373-1.93 21.304-.24 9.441-.12 18.64-.61 28.202-.36 7.384-1.45 15.01-1.93 22.03-.12 2.421 1.21 4.721 1.21 6.778 0 1.695-1.57 4.237-1.7 6.174-.96 14.646-.6 29.897-.6 44.664 0 2.179-1.81 4.478-1.81 6.778 0 3.753.48 4.721 0 9.321-1.33 17.187-2.91 34.254-3.63 51.442-.24 6.9-1.45 14.283-1.45 20.819 0 3.874 1.21 8.11.72 12.347-.24 2.421-2.05 4.357-2.42 6.778-.96 7.263 1.58 17.551-.6 25.782-.6 2.3-2.66 5.326-2.78 6.899-.24 1.937 1.09 5.568.97 8.352-.37 6.657-2.18 14.888-2.54 21.425 0 2.42.72 8.715 3.14 9.804 1.21.605 4.84.605 5.56-.726.37-.606 2.78-11.499 2.91-12.831 1.69-16.582.96-34.133 3.14-50.837.36-2.905 2.3-6.052 2.3-9.32.12-7.626-3.51-15.978-.61-24.451 2.06-5.931 2.18-5.568 3.27-12.104.36-1.937 2.17-4.237 2.3-5.689.12-2.3-2.42-4.115-2.3-6.536 0-2.3 1.93-4.963 2.3-6.9.48-2.784-.37-5.931.24-8.957.48-2.3 3.14-4.72 3.38-7.02.37-2.905-1.69-5.81-1.57-8.473 0-2.3 1.82-4.479 2.3-6.778 2.05-8.594.6-15.373 1.81-22.756.73-4.237 1.33-3.147 1.21-8.594 0-7.142 1.45-9.684 2.42-15.978.48-3.268.12-7.504.85-10.773.36-2.057 1.93-3.268 2.29-5.083.73-4.358-1.08-10.652-.48-15.857.48-3.631 2.66-5.931 3.27-9.32.72-3.51.24-11.983.84-17.188 1.82-13.436 4.36-27.113 6.65-40.549 1.7-9.441-.48-19.73 2.18-29.655.48-1.574 1.94-3.026 2.18-4.72.24-1.816-.73-3.51-.61-5.448 0-2.42 1.94-4.72 1.94-7.383 0-2.421-.97-4.479-.73-7.384 0-.968 1.94-9.078 2.18-9.44 1.81-3.148 11.25-4.116 14.75-4.358 4.48-.242 17.42 1.452 19.59.968 2.91-.726 5.08-2.42 8.59-2.784 5.44-.484 11.37.605 16.45.605 11.85-.242 26.24-3.631 37.48-3.631 2.3 0 5.08 1.21 7.38 1.21 20.44.242 40.75-3.147 61.31-3.147 2.06 0 3.87.727 6.17.727 5.2-.122 11.37-5.81 14.03 1.936 5.2 14.888 0 26.508-.73 40.791 0 2.179.97 3.995.49 6.657-.25 1.574-1.58 3.027-1.7 4.48-.24 2.057.73 5.083.49 7.867-.37 3.026-2.06 6.052-1.21 9.562l-2.42-1.21c-.73 3.389 1.21 5.568 1.81 8.594h-2.42l-.72 1.573 2.42.242v1.816c-5.57-.242-4.84 6.052.6 5.81l-4.35 18.64-3.63 1.09c1.09 2.42-.6 8.836 3.14 7.262 0-1.21-1.21-4.963 1.21-4.599 1.21 6.294-.24 11.983-.72 18.277l-3.03 1.089v4.479l1.94.363v11.983l-2.54-1.816v5.568l1.81.242c-1.08 2.663-3.14 3.995-2.41 7.021l1.2-.605v2.178l-1.93.606-1.09 11.862h1.82c-.49.968-.61 1.694-.61 2.784-.12 4.841.24 9.925 0 14.646-.12 2.542-1.33 5.689-1.21 8.352l-3.02-1.211c-1.57 3.995-.12 7.747-1.82 11.378l1.46.847 1.57-1.21c1.57 6.052-.61 11.62-1.21 17.551-.36 3.268.36 7.989 0 10.289-.24 1.815-1.57 3.268-1.82 5.568-.6 5.567.37 12.104 0 17.793-.24 4.478-1.81 10.288-2.41 14.767-.25 2.421 0 4.841 0 7.141l-4.36 1.695c2.06 2.663 3.27 5.205 1.82 8.594l-5.2-7.384-2.79 3.389c0 1.211 6.17 7.142 7.99 5.205 0 1.937.72 3.752-1.58 4.237l-.24.968 1.94.605.6 9.441-5.2-3.631-2.18 3.389c-.24 1.574 1.82.606 3.15 1.211.72.363 1.09 1.694 1.93 2.421.49.363 1.58.242 1.82.363.24.242-.61 3.147-.61 3.873-.36 9.926-.96 15.009-2.29 24.693-.25 1.694.24 3.994 0 5.325 0 .364-5.33 4.116-5.57 5.689-.24 1.211.85 1.211 1.57.969.49-.242 2.3-4.237 3.63-1.211 1.09 2.421-1.93 8.836-2.17 11.983-.37 4.116 1.45 9.684.96 13.557-.36 2.542-2.42 4.6-2.78 6.778-.6 4.116.49 9.321 0 13.436-.24 1.937-1.45 3.268-1.57 4.237-.48 3.51.6 9.441.36 13.556-.24 3.268-1.57 6.536-1.69 9.805 0 1.573.85 3.268.48 5.446-.36 2.663-4.11 4.842-3.02 8.352l1.81-1.21c-.6 2.3 1.09 4.842.97 6.778-.36 2.905-3.51 7.263-3.87 10.652-.72 5.568 1.45 10.046 1.21 14.646s-3.51 10.289-3.99 15.009c-2.54 3.389-6.05 2.179-9.07 2.542-12.7 1.695-28.3 2.784-41.12 3.026-3.62 0-6.89-.968-10.4-.605-2.54.242-4.59 1.694-7.37 1.815-3.87.243-7.02-1.452-11.13-1.331-5.68.242-12.7 2.179-18.38 2.542-3.39.242-6.17 0-8.59-2.542-3.62-3.631-3.86-6.778-3.14-11.862.48-3.389 3.27-7.263 3.51-9.441.24-1.937-2.3-11.499-1.21-12.468h2.42c.24-2.784 1.93-3.268 3.14-5.204.24-4.358-3.99.484-4.23-1.816 0-.242.6-1.937.6-3.147 0-1.453-.84-3.873-.72-4.842 0-.484 1.21-.363 1.33-.847.24-1.332-.97-3.026-.61-4.479h4.96v-1.815l-3.75-.969c0-2.299 1.33-4.357 1.33-6.657 0-3.268-1.33-8.473-1.21-11.62 0-1.694 1.58-3.994 1.82-6.173.6-4.479-.24-9.562 0-14.162 0-2.058 1.09-11.378 1.57-12.588.36-.969 2.66-3.026 2.66-4.842-2.42 0-4.11-2.3-2.42-4.357.61-.727.97 2.541 2.42 1.815-.73-6.294-1.09-12.225.6-18.398l-1.81 1.21c-.97-3.268 2.9-2.421 2.42-5.568l-2.42-.363c3.63-5.568 3.99-11.62 3.63-18.156l-1.21.968c.24-2.299 1.69-4.357 1.81-6.778.49-4.721 0-6.173.97-11.378.97-5.81 1.69-11.741 2.06-17.551.72-10.652 1.57-21.545 2.17-32.197.24-3.873 1.94-8.11 2.18-11.983.24-3.147-.73-6.173-.73-8.594 0-2.058 1.82-3.389 1.94-5.568.24-2.905-1.33-7.384-1.33-10.41 0-2.057 1.09-3.752 1.21-5.568.12-1.331-1.21-7.867.48-8.23h4.96l.73-2.058c-.37-1.453-3.63-.847-4.84-.968-1.21-4.358 1.57-8.352 1.81-11.984.37-4.841-1.33-13.314 0-18.277.12-.726 1.57-.605 1.82-1.331.24-.848-1.21-3.39-1.09-4.842.12-1.695 1.93-2.905 2.3-4.479.6-2.663 0-5.689-.73-8.109-1.69 1.815-.36 5.204-2.06 7.141-1.08 1.21-3.99 1.21-5.56 1.453 0-1.574 1.69-2.179 2.18-3.632.48-1.452.6-4.841 0-6.173-.73-1.694-4.72-3.389 0-5.447l5.32 5.447c.6-2.905.24-6.052.72-8.836.37-2.542.97-9.683 1.58-11.499.36-1.452 1.93-1.815 2.17-3.873.49-4.963-6.04-11.983-10.15-7.021-2.42 2.784.12 4.116.24 5.81.24 3.874-2.06 8.594-2.42 12.347-.36 3.752.48 8.352 0 12.225-.49 3.873-2.18 7.747-2.42 12.346-.24 4.358.6 2.542 1.57 3.994 1.09 1.695-.48 2.421-.72 3.632-.73 3.389-1.21 7.262-2.3 10.53-1.45 4.358-4.35 6.537-2.18 12.226l3.63-.606.6 2.058c-1.33 1.453-2.9 2.784-4.83 1.574l-.97 8.109c0 1.695 3.75 1.574 3.39 3.269-.12.847-2.42 1.331-3.03.847-.48-.363-.12-2.542-1.33-2.421 1.33 6.173-2.78 10.894-1.81 17.188 2.66-1.816 5.32-1.695 7.38.968l-5.57 1.211c-.36 1.452 2.42 4.115 3.63 4.841-1.21 2.179-4.23-.363-5.44.364-2.18 3.147-.85 6.536-1.33 9.683.24-.605 3.99-2.3 4.96-1.574 1.08.848.84 4.6.6 5.931-1.57-2.299-2.3-1.694-4.96-2.178-.6-.364-.84-1.574-.6-2.179zm-253.1-222.717c.48-2.057-3.99-10.167-5.81-9.804-2.9.605 1.33 4.236 1.69 5.084 1.09 2.42 0 5.204 4.12 4.72m.6 1.937c2.66.968 2.9-2.058 4.11-2.421.61-.121 1.33.363 1.69.242 1.82-.363 5.57-8.473-1.81-8.352-3.14 0-5.92 4.116-3.63 4.963 2.3.847 1.09-3.026 3.63-3.026 2.3 0 2.54 3.268 1.45 4.841-2.78-.12-5.44.485-5.44 3.753m16.57 1.816c2.66-4.358-.73-7.384-4.96-4.6-.24 1.21 1.45 1.21 1.69 1.695.73 1.33-1.09 4.72 1.94 4.841v1.21c-2.18-1.21-6.53 4.358-4.84 5.569 1.81 1.33 2.54-2.421 2.78-2.542h4.23l1.58-5.084-2.54-.968zm-27.09-4.358-1.81.968 1.69 3.632c-3.63 2.3.36 5.568 1.69 2.784 1.21-2.542-1.33-4.842-1.57-7.384m3.63 15.856c.6-.605 3.02-5.567 1.09-5.93-1.46-.364-1.21 2.057-1.94 2.541-.72.484-2.78.242-3.26 1.574l.96 2.663c.85.242 2.54-.121 3.15-.727zm390 60.279c.48-1.936 1.93-5.931-1.21-6.173 0 2.421-1.82 4.842 1.21 6.173M660.156 236.879c-1.693 8.957-2.539 17.793 9.554 16.583 4.595-.485 3.628-1.816 6.046-3.753.726-.605 1.935-.726 2.782-1.452 2.902-2.421 1.33-3.874 1.814-6.779.483-3.026 1.814-6.415 1.814-9.804 0-2.905-1.331-5.205-1.331-7.384 0-2.299 1.814-5.567 1.814-8.594 0-2.178-.725-4.236-.604-6.173 0-2.42 1.814-4.72 1.935-7.383.12-2.663-1.452-4.6-1.331-7.384.121-3.631 2.661-7.746 3.024-11.741.483-4.599-.847-10.046-.605-14.041 0-1.694 1.572-3.752 1.814-5.689.484-3.752-.484-7.746-.242-11.256.242-5.932 3.87-10.168-2.419-14.768-2.781-2.057-8.102-3.873-11.367-2.784-4.958 1.574-2.056 8.231-4.233 11.984l-4.232-1.816 1.209.968-1.209.969c.725 1.936 2.418 2.057 4.232 1.815-3.023 6.658-3.023 13.194-3.627 20.214-1.935-.605-.121-2.905-.605-4.236-1.935-.242-3.749.605-4.837 2.179.967 2.178 2.539 4.72 3.386 6.899.604 1.694-.363 4.478 2.176 4.357l.605-.968c-.484 3.873-1.088 7.747-1.209 11.62 0 1.937.604 4.115.484 6.052-.363 7.142-3.628 13.92-1.694 21.182-1.451-.242-2.66-1.331-3.627.364-.605 2.057 2.418 2.542 2.418 3.147 0 1.089-1.572 6.415-1.935 7.867.968 2.905 1.331 4.479.726 7.626-3.265-1.695-5.079 2.542-.605 1.816zm250.688 104.217c.121-2.3 1.33-4.237 1.209-7.021 0-3.51-.604-6.415-.604-10.409 0-2.784-1.451-4.479 0-7.263.725-1.452 6.409-5.81.483-4.115 3.024-9.32-1.088-18.399 1.814-27.598l2.419 2.421c2.419 1.453-.605-8.11-1.209-8.957-.847-1.089-1.452-.726-2.419-.242 1.814-2.663 1.209-21.788 2.419-22.756 7.135 1.816 4.232-2.421 3.869-5.931 0-.363.968-7.989-1.451-4.236-1.088 1.694-.483 3.873-.604 5.81-1.21.121-.968 0-1.331-.727-1.33-3.026 1.814-10.651 2.056-14.283 0-1.452-.604-3.752-.484-4.236.242-.968 2.177-.968 2.419-2.542.242-2.3-2.056-2.784-3.749-2.179 1.693-5.81 0-11.378 0-16.824 0-6.174 3.386-11.742 3.749-16.583.242-2.784-.846-5.205-.846-7.989 0-3.389 2.297-14.525.12-16.704-1.088-1.089-5.804-1.089-6.651.242-.967 1.574-1.451 8.11-1.935 10.289-.725 1.937-4.958.968-1.693 6.173.484.726 1.572.847 1.814 1.453.484 1.936-2.176 6.899-2.418 9.078-.605 4.357.483 9.683 0 14.041-.242 2.057-1.451 2.905-1.693 4.357-.484 2.179.725 5.205-1.33 6.294 0-.968-.726-3.51-1.573-3.631-2.176-.484-1.088 5.689-.604 6.778.483.969 2.297 1.09 2.66 2.179.484 1.331 0 3.631 0 5.084l-3.386-3.026-2.056 2.784 3.265 3.268c.847.121 2.54-2.3 2.056-.242-1.088 4.841-1.209 8.352-1.935 12.709-.362 2.058-2.055 3.389-2.297 5.084-.242 2.058.725 3.631.604 5.447-.121 4.357-1.451 9.32-1.33 13.799l-2.177-1.211-1.451 2.179 3.507 2.421c-3.628 4.841-.363 12.346-2.297 17.188-.484 1.331-3.024 2.299-3.145 4.236 1.693 2.421 2.298 1.332 2.54 4.963.242 4.478-3.023 13.072-3.628 17.793-.242 2.179.242 4.6 0 6.657-.726 5.689-3.628 12.104 0 17.067 3.991 5.447 7.739 2.3 12.819.726 1.934-.605 1.814 1.09 4.232-2.178-.242 2.905.605 3.51 3.628 3.026l.363-6.052-1.814-.606c-.968 1.574-1.088 2.3-2.177 3.632zm-247.06-159.412h-4.232l-.726 3.631h-3.507v3.752c2.419.727 2.419-2.178 3.628-2.784 2.177-1.089 4.837-.242 4.958-4.599zm502.706 6.778-2.66-.605-.97 1.452 3.03 2.784zm-512.501 18.277c1.33-.726 7.135.727 6.772-1.452-1.572-2.179-4.837-1.695-7.377-2.179zm-3.023 4.358-.363 2.542c1.572 1.573 4.112 1.573 3.144-1.211l-2.781-1.21zm509.114 20.819c-1.81.363-.36 4.6 1.21 4.237 1.81-.364.73-4.721-1.21-4.237m-505.486 18.398c4.716 1.09 1.088-7.141-.968-6.778-2.418.484 2.056 5.084.968 6.778m243.311 11.741c-1.452 0-3.145.243-4.475-.121-1.088-.363-1.451-1.936-2.902-1.694-.363 2.3 2.418 2.905 3.386 4.842 1.209-1.09 4.111-.848 3.991-3.027m-6.652 14.647c-1.33 1.089 4.233 2.905 4.717 2.905 3.023.484 2.297-3.995 1.088-4.237-.726 0-4.112 2.179-5.805 1.211zm.605 19.124c-3.023.484-3.144-2.784-6.046-3.147-1.573 4.115.604 2.542 1.572 4.358 1.693 3.147-1.452 7.867 3.99 7.383l.605-8.594zm.363 28.566c.846-.605 1.088-2.3-.121-2.905l-3.386 2.179c-.484 1.815 2.539 1.452 3.507.726m-6.53 5.689c-1.814 2.058 8.465 5.205 5.562-2.421l-.604 1.816-4.837.726zm537.049 7.383c3.14-2.178 10.52-9.562 1.94-8.472zm-872.388-6.173-4.233-.605c-.241 3.389 3.749 4.358 4.233.605m337.153 3.753h-4.838c.363.968 1.572.968 2.419 2.057.605.727 1.088 2.663 1.451 2.784l1.572-.363-.725-4.478zm536.445 6.052c-.48 1.573-1.33 4.357.6 5.205 1.21.605 2.18-.485 3.27-.243.85.243 2.06 2.3 3.26-.121 1.82-3.631-3.26-1.694-3.99-2.057-1.08-.606-1.33-3.147-3.02-2.784zm8.59 1.936c.72 6.416 6.53 7.989 2.78 0zm-6.78 34.981c0 1.09-.36 4.721 1.58 4.237 2.9-2.421 2.41-4.479-1.58-4.237m4.72 19.488.6-1.936c-1.33-2.905-3.74-.606-4.11 1.694.97 1.453 2.3.968 3.51.121zm-278.74 3.147c-1.33 1.211 5.44 5.447 4.23-1.21-1.33.847-2.66 1.452-4.23 1.21m-604.411 3.147c-1.814-.605-4.233 2.179-2.419 3.39l2.419.242zm876.141 1.574s-.73-2.542-3.15-1.695v6.416l1.21.726 4.84-.969c.36 1.937-2.42 1.695-2.54 3.39 0 1.573 2.54 2.299 3.38 3.389 1.58-2.3.49-5.084 2.67-7.626 0-.363-3.15-2.905-3.63-3.147-.97-.484-2.18 0-2.91-.484zm-881.099 6.899c-1.089 0-2.298 0-3.145.848-2.902 3.631 4.475 5.931 3.145-.848m345.375 13.436c-.846-.968-.604-3.389-3.869-2.905-1.452 3.268 7.739 9.925 7.135 5.205-.121-1.211-2.782-1.695-3.387-2.3zm8.949 6.294c-.846-3.268.242-8.231-4.232-8.594 1.33 1.574-.242 3.752.242 4.842.12.363 3.023 3.873 3.99 3.631zm-353.841 12.346c-.846-.847-3.869-1.331-4.716.121l5.442 2.784s-.363-2.421-.726-2.905m324.455 2.3c-.242 1.211.968 1.816 1.089 2.905.362 1.695-1.21 3.51.967 5.084 2.661-1.695.968-4.237-.242-6.415-.484-.848-.484-1.816-1.814-1.453zm-.604 38.733c-1.452 0-2.782.727-2.903 2.3-.363 4.116 4.596.605 2.903-2.3m41.116 13.436c-.847 4.358 4.595 1.332 4.232-.363-1.209-1.937-2.66.242-4.232.363m-46.316 3.147c-2.298 0 0 8.473 3.99 3.389zm48.613 3.752s-1.934-.605-2.66-1.331c-1.33.968-1.209 2.784-.363 3.994 2.54 2.784 4.837-.847 3.023-2.663m-198.083.727s-2.056-1.332-2.66-1.453l-2.419 1.937-4.595-1.332c-.968 4.116 5.805 4.116 8.586 3.026.605 1.574-1.088.969-1.209 1.574-1.331 5.931 4.111 5.326 4.232 2.421-.846-1.09-1.572-5.81-1.935-6.294zm-19.469 10.167v-6.415c.12-1.331 3.627-3.51 1.451-3.994-.968-.242-4.354 1.573-4.596 2.299-.483 1.453-1.209 7.505.363 8.11zm423.614-9.199c-8.1-1.695-2.17 4.115-.6 3.026zm-201.466 2.058c-1.451 1.452.363 3.389 1.935 2.905 2.055-.605.725-5.568-1.935-2.905m117.426 5.205c2.05-7.384-2.3-7.021-2.42 0zm-350.579-1.695c.967-2.421-3.87-4.115-4.233-2.179-.362 1.695 3.024 2.542 4.233 2.179m-78.967-.605s-.484 7.989-3.749 8.836l1.572 1.452c3.87-1.21 2.781-3.994 3.507-6.778.484-1.574 3.507-4.236 1.572-5.447.363 2.058-2.66 1.453-3.023 1.937zm262.297-.605c-4.959-.485-3.507 4.478-1.572 7.383 2.176.484 1.209-6.294 1.572-7.383m248.269 4.841c.73-8.836-6.77-2.905-2.3-.484.73.363 1.45.484 2.3.484m-89.49.605c1.57-1.573-7.01-4.72-5.2 0zm-161.924 3.148-1.813.242-.484 3.994c4.474.242-.363 1.574 0 2.784.846 1.331 2.056 1.695 3.628 1.574l-2.419 2.178c1.209 2.784 6.047 1.211 5.442-1.21-.242-.847-1.935-.968-2.298-2.058-.725-2.058.242-5.205-2.056-7.504M498.11 78.193c.847.726 1.21 2.3 2.661 3.147 2.902 1.573 9.19 1.331 11.246 4.72.484.848.605 2.3 1.089 2.906.967.968 6.893 2.42 9.19 4.478 4.475 3.752 4.716 6.536 6.893 11.136 1.089 2.179 3.265 3.389 4.596 5.326 5.079 7.504 2.176 13.072 5.441 19.609.605 1.331 2.177 2.178 2.54 3.752.363 1.694-.605 2.905-.363 4.599s4.233 8.958 1.33 9.563l-3.869-.484-.726 2.662 5.563 1.937c.604 3.026-.605 6.294-.726 9.078 0 3.389 1.814 6.416-.604 10.168l-5.563-1.211.484 3.995 3.748 1.21c1.935 8.231-.604 16.462-1.209 24.814-1.088-.484-1.693-1.816-3.023-.969-2.903 4.358-1.693 11.136 2.781 3.995 1.572 0-1.572 6.778-1.572 7.625-.242 3.39-.121 5.568-.484 9.2-.362 3.631 0 13.556-2.176 16.219-1.331 1.695-.484-.968-1.572-.605-1.21 3.389.483 6.536.483 9.562s-1.693 7.021-1.693 10.168l-1.209-.605c.363 2.42-1.935 2.662-3.023 4.115-2.419 3.147-1.331 6.536-2.903 9.32-2.902 5.205-18.018 22.514-22.976 26.145-2.419 1.816-12.093 5.205-10.158 9.441 1.209 2.663 7.014 3.995 9.553 5.81 3.507 2.663 13.06 13.315 15.358 17.188 9.433 15.736 8.828 32.197 9.191 49.749 0 4.841 2.539 10.53-2.419 14.04 5.563 3.026.605 10.652-.363 15.252-.483 2.663-.725 6.415-.362 8.957h-2.419c-.484 1.573 1.693 1.452 1.814 2.3s.605 5.446.605 6.657c0 2.058-.726 15.372-1.21 16.219 0 .121-2.176-1.089-2.418 1.574-.242 2.058 1.451 1.695 1.693 2.3.242.484-.242 9.32-.484 10.651-.363 2.421-2.419 5.931-2.419 7.384 0 1.331 1.089 1.937 1.089 2.905 0 1.331-1.935 4.963-2.177 7.02-.484 3.632.605 7.142-1.451 10.531h-4.716c.483 3.873 1.33 5.447-.242 9.441-3.023 7.747-7.74 12.468-11.972 19.246-1.331 2.058-2.782 6.657-4.112 8.11-1.088 1.089-7.498 5.447-9.553 7.02-7.377 5.81-13.061 9.078-20.921 14.041-2.782 1.695-5.321 4.842-8.223 5.81-1.814.605-4.233.363-5.805.968-16.326 5.568-31.684 11.015-49.339 11.499-4.233 0-8.103-2.421-13.424-1.815-2.66.363-4.353 2.299-6.772 2.542-5.925.363-10.4-.969-15.963-1.574-3.506-.363-13.181 1.089-17.051 1.574-2.176.242-4.595 1.694-6.772 1.815-2.176.121-4.716-1.331-6.651-1.21-5.2.242-10.037.363-15.358.484-1.935 0-3.144 1.573-3.628-.605-1.572 2.057-4.474.968-6.772 1.21-1.088-1.21 2.177.121 1.572-1.573-.484-1.211-5.321-4.6-5.563-1.211l1.331 2.784c-3.024 1.816-5.079-.726-7.619-.605s-4.233 2.784-6.772 3.026H270.52c-.484-.847-.604-1.816-.725-2.663-.363-4.236 0-8.231 0-12.225 0-9.684 1.572-17.067 1.209-26.993-.242-6.415 2.418-10.409 3.023-15.977s-.967-12.225-.605-17.188c.242-3.631 2.661-8.594 3.145-12.346.483-4.6-.968-10.289-.605-14.767.242-2.542 1.451-4.6 1.572-7.021 0-1.936-.725-4.357-.363-6.415 0-.605 3.386-.242 3.749-1.937.242-1.452-2.177-1.815-2.418-2.178 0 0 .604-1.332.604-2.058 0-5.447-.846-8.473-.121-13.678 1.693-13.193 1.693-26.508 3.265-39.701.363-2.905 2.782-6.174 2.782-8.11 0-1.453-1.33-3.389-1.572-4.963-.726-4.842 1.693-8.836 2.176-13.436.242-2.663-.241-5.446 0-7.867.605-5.205 3.145-14.767 3.145-19.004 0-3.026-2.298-4.842-1.814-8.473.241-1.936 1.572-3.147 1.934-4.72 1.452-4.842 2.661-9.079 1.089-14.041l2.66.484c4.958-4.116-1.814-3.389-2.055-3.631s-.605-4.963-.605-5.689c0-4.721 3.023-8.957 2.418-14.162 0-.484-1.088-.363-1.209-.847-.484-2.058 1.089-5.084 1.209-7.263.847-9.925.605-24.45 3.145-33.65.242-1.089 1.935-1.815 2.176-3.268.242-1.815-2.297-9.441-1.693-10.046h3.628v-3.026l-3.023-1.09v-4.115l2.54-1.331c.362-1.211-1.693-1.211-1.814-1.937-.484-1.816 1.088-8.715 3.748-8.473v-2.179l-2.418.605c-.605-2.42 2.539-2.178 2.418-4.599 0-1.574-2.055-1.574-2.297-2.421 0-.484.483-2.421.483-3.752 0-1.695-.846-4.6-.604-6.052.363-3.026 3.144-5.326 3.507-8.231.363-2.421-1.209-5.326-.484-7.626.121-.484 1.33-.605 1.935-1.937.363-.847 2.298-9.925 2.177-10.53-.121-.969-1.451-1.09-2.298-.847l-1.572 3.026c-2.298-2.3 1.814-4.842 1.935-5.81 1.451-10.531-2.419-22.756 2.66-33.166l-1.209-1.21c1.814-3.632.484-7.021.605-10.773l2.418.605c.484-3.752-4.111-5.084 1.814-6.536v-3.268l-2.418.605v-4.963l1.572 1.211c2.418-1.09 1.33-7.505 1.572-9.805l-2.419 1.816c-.725-2.058-1.088-3.51.968-4.842l2.176 2.421v-7.383c-4.595.363-2.055-6.052 1.21-7.626 4.232-2.058 15.116-3.026 19.953-2.784 2.781.121 5.805 1.331 8.586 1.331 3.628-.12 8.223-2.904 11.126-3.147 4.474-.242 11.851 1.332 16.567 1.332s11.247-2.421 15.963-1.937c2.902.363 6.53 2.421 9.795 2.421 2.661 0 6.409-2.663 9.795-2.905 6.893-.726 14.391 1.453 20.679.847 2.298-.242 3.507-1.936 5.684-2.178 4.595-.364 11.73 1.694 16.568 1.331 2.66-.242 4.837-1.816 7.376-1.937 7.619-.12 16.084 3.026 23.098 5.084 5.442 1.695 16.325 1.332 20.558 4.963zm-63.004 70.325-2.54.363-1.572-3.994-2.66 1.573c.725 4.963 3.869 2.905 7.255 4.479l-.604-2.421zm-8.103 9.32q-1.088-.544-2.176 0l-.726 4.842c4.354-1.937 4.475 1.331 7.982 1.816.362-.364-1.452-3.39-1.814-3.874-.242-.242-3.024-2.663-3.266-2.784m-18.986 4.358-4.111-2.663c-1.089 3.51.484 7.262 4.232 7.989.363-1.332.847-4.358-.121-5.326m26.968 2.905c-2.419.847-.605 3.994 3.023 3.631 4.716-.484.968-4.963-3.023-3.631m-23.098 8.594c-.121-1.937-1.693-5.326-3.99-4.963-.847 3.147-2.056 3.631-4.596 5.205.968 3.51 1.814-1.695 4.596.242.483.242 3.023 3.752 3.144 4.115 1.209 3.995-1.572 7.263-1.693 10.289 0 1.816.846 3.752.604 6.052-.362 3.268-3.023 6.657-1.814 10.773-1.209-2.179-6.046.847-6.167 2.178 0 1.09.967 2.663 1.935 3.027 1.572.605 2.66-1.695 3.386-.364l.242 6.174c-2.177.605-1.451-3.995-3.386-3.753-1.572.242-3.265 2.663-3.87 4.116l2.177 2.663 3.265-2.421c-1.33 2.3.242 3.631.363 4.962 0 1.937-.968 5.326-.968 7.626 0 1.937 1.451 10.289.605 11.378-3.265-1.816-4.596 4.115-.605 2.421.847 5.205-1.572 18.035 5.805 18.519 6.651.363 12.818-3.873 14.149-10.409.725-3.268-.121-6.173 0-9.2.241-3.873 1.572-9.441 2.055-13.919.242-1.574 1.814-3.268 1.089-5.205h-1.814c-.121-2.179 1.693-3.873 1.814-5.931 0-1.816-1.21-4.116-1.089-6.052 0-2.179 1.693-4.358 1.814-6.537 1.21.606 1.331 2.421 2.177 3.632.484.605 1.693.847 2.056 1.694.363.969 0 2.421.121 3.511.363 2.057 1.814 4.478.604 6.294-1.088 1.573-4.111 1.452-4.353 3.631.363 1.573 5.926-.121 5.563 3.631-.121 1.574-3.386 3.874 1.209 3.995.242-4.479 2.54-11.984 1.209-16.22-.483-1.331-1.33-1.816-1.693-2.663-1.088-3.026-2.055-9.804-6.288-8.715l.605-16.098 1.572-.485c1.209 1.695 5.321 9.2 7.618 6.537 1.451-1.695 0-4.721-1.572-5.81-1.693-1.332-3.87-.727-5.563-1.816-.362-.484-.483-3.873-.241-4.6.241-.726 5.2-.726 1.934-4.357-.604-.605-1.813-.968-2.176-1.574-.484-.726.967-3.994-3.024-1.815l-.241 3.147c-2.177-1.574-4.112-3.147-4.354-6.052-3.386-1.937-3.991.242-6.288 1.089-1.693.605-4.596 0-4.716 1.816h-1.21zm-11.004 27.476s-1.089-4.115-3.145-3.631v7.384c1.814-1.937 5.2-.727 7.135-2.421.726-.605 1.33-2.663.847-3.147-1.33-1.453-2.54 3.147-4.837 1.694zm-4.959 36.313 1.814.363c.968-.726.968-2.784 1.573-3.389.967-1.09 3.265 0 3.386-2.179.362-4.115-5.926-9.078-6.773-4.842-.725 3.268.121 4.237.363 6.779 0 .847-.846 2.784-.363 3.268m39.182 6.778.604-7.383c-1.693 2.057-7.739 1.694-4.837 5.204.363.364 3.991 2.542 4.233 2.179m-14.875 22.514c1.21-1.937 2.298-3.389-.725-3.51-4.716-.242-2.298 4.115-3.023 5.568-.726 1.573-4.112-2.179-3.386.242.604 2.057 2.66 2.784 4.474 2.057 1.451-.484.725-2.42 1.33-3.631.242-.363 1.089-.484 1.33-.847zm-13.544 90.66c-3.99 0-8.586.484-11.004 3.995-2.903 4.115-.968 6.415-1.21 10.288-.846 14.283-4.958 28.808-2.902 42.728.484 3.631-1.572 6.415-1.814 9.804-.121 2.3.726 4.358.605 6.052-.121 1.937-2.056 3.389-2.419 4.963-.484 2.784-.363 14.162 0 17.188.363 3.268 6.651 4.115 9.433 3.752s10.158-2.058 11.367-4.478c1.209-2.3 1.935-9.078 2.54-12.105.846-4.115 2.297-8.23 2.66-12.588.121-2.058-1.209-3.994-1.451-5.931-.726-5.326 1.33-8.231 1.814-12.83.484-4.116-.484-10.894.604-14.767.605-2.058 2.056-4.237 2.298-5.81.242-2.421-1.088-6.416-.967-8.836.242-5.084 4.474-9.442 1.693-14.768-2.661-4.962-5.805-6.778-11.247-6.778zm-114.52 183.378c-4.717-1.815-2.661 6.416.483 3.511 1.21-1.211.847-3.026-.483-3.511m-11.489.363c-4.474 0-2.66 6.416.968 7.263l1.451-1.937c-1.572-1.694-2.902-2.663-2.419-5.326m18.382 9.805c-1.814 4.357 7.134 3.51 7.376 2.179l-1.209-2.784c-2.056 2.057-3.628.968-6.167.605m-10.4 6.173c-.242 5.205 3.99 3.994 5.562.363l-2.176-4.599c-2.54 2.178.846 2.178.362 4.236zm-7.498-1.089c-.605-.969-7.256-.969-7.256.121 2.782 1.936 4.233 4.72 7.619 5.81 1.572-1.816.363-4.116-.484-6.052zm-20.8-210.734s-1.693.242-2.177.847c-1.935 1.937 1.089 8.11 1.572 10.773.726 3.873 1.331 11.62.968 15.372-.242 2.421-2.177 4.842-2.056 6.537.121 2.178 3.023 4.962 3.023 7.988 0 2.421-1.572 5.205-1.814 7.989-.362 4.237 1.089 7.142 1.089 10.41.121 6.052-1.572 14.767-1.089 20.94.121 2.421 1.331 4.115 1.331 6.778 0 2.905-1.331 5.689-1.331 8.594 0 6.294 1.814 12.104 2.419 17.914.242 2.3 0 8.352-1.451 10.047-.605.726-2.056.363-2.177.968-.846 2.905 2.056 2.421 2.54 3.147 2.055 2.905 0 11.741 0 15.251 0 3.632-.242 10.289 0 13.557.121 2.784 1.934 4.6 1.934 7.384s-1.934 6.657-1.934 9.804c0 5.084.725 11.378.725 16.583 0 2.542.484 12.346-.846 13.678-.726.726-8.224 3.026-9.433 3.147-2.177.242-4.232-.848-6.651-.606-3.628.242-5.684 3.026-9.916 1.332-1.089-.484-2.056-1.937-3.024-1.937-.967 0-1.693 1.332-2.539 1.695-5.805 2.421-11.488-1.453-16.688 1.331v-3.389c-3.265-1.21-2.54 2.421-1.814 4.6h-4.958c.967-5.205-3.507-6.052-1.814-.606l-17.172.606.604-1.816c-2.418-.726-4.353-1.452-4.353 1.816-2.298-.848-4.475.484-7.014.605-6.289.242-12.577-.484-18.986 0-2.903.242-3.87 1.937-7.74.847-6.53-1.694-3.507-7.625-4.232-12.588l2.176 2.421 2.661-3.268c0-1.574-2.056-1.937-2.298-2.663-.242-.848.726-2.058.484-2.905 0-.364-3.265-1.816-1.814-3.39.847-.968 4.354 2.421 4.837 1.816.121-4.478.726-8.594-4.958-7.626 1.693-2.178 11.005.727 11.005-3.026 0-1.936-2.782-1.452-3.628-2.299-.484-.485-4.354-10.531-4.475-11.257 0-1.453 1.573-2.3 1.21-3.51-.363-1.453-3.265-1.332-3.507-1.695-1.451-1.816 1.693-10.289 1.693-13.073.121-3.389-1.21-6.173 0-9.441 2.418-.363 2.902 2.905 5.563 1.574 2.055-1.09.362-2.905.846-3.995.484-.968 2.661-1.694 2.177-3.389-.484-1.452-4.475-1.331-5.2.242l.242 3.147c-1.935-1.21-4.475.848-4.958-1.573-.726-4.721 2.539-8.715 3.023-13.194 2.902 1.816 6.772 2.3 6.772-2.179 0-.968-.726-2.541-.605-3.026.242-.847 2.419-.363 1.814-3.026-.242-1.21-5.684-5.083-6.167-4.599l3.023 3.631h-3.628l-1.935 3.026 1.089-4.478c-3.024-2.3-3.991-5.689-8.224-5.932-2.176 0-4.232.969-6.409.606l.605-6.173c-3.265 1.089-4.958-.606-7.982-1.211l3.024 2.905c.604 5.447-7.377 4.721-6.652-.363-2.055.968-4.232 2.3-3.627 4.842 6.772 1.573-.121 6.052-.605 7.867 0 .364-.121 6.416-.121 7.263 0 2.058 1.572 3.631 1.209 6.052-.242 1.695-1.814 2.905-2.418 5.084-.726 2.905.604 6.778.483 9.804 0 .969-1.33 2.3-1.572 3.752-1.33 8.231-1.572 16.583-3.265 24.693l-3.87-1.21c-1.088.363-1.451 2.541-.604 3.147 3.628.363 5.442 2.057 5.079 5.689-.121 1.694-1.451 11.135-1.935 12.225-.726 1.694-6.772 4.841-1.088 6.294l-3.628 15.372-2.419-1.331c-.846-1.09 1.693-3.389 1.209-3.874-1.814-1.573-3.023 2.542-2.418 4.479.242.847 2.297.605 1.814 2.3-7.256 0-14.512 1.452-21.768 1.815-6.65.364-13.544-.121-20.195.122-1.693 0-3.507.968-4.958.968-1.814 0-3.628-1.574-5.442-1.574-3.87-.121-10.037 2.784-14.149 3.026-2.297 0-4.595-.847-7.376-.605-2.298.121-4.717 1.332-6.772 1.332-1.814 0-3.266-1.574-4.959-1.574-1.814 0-3.87 1.332-5.562 1.453-3.507.484-13.424-.969-15.6-3.874-3.145-4.357 1.209-7.262 1.814-10.53.604-3.269-1.089-6.053-.605-9.2.242-1.573 1.451-3.026 1.935-4.841 3.265-13.92 5.684-27.598 8.949-41.397 1.814-7.625 3.023-12.709 3.265-20.698 0-1.331-.847-2.663-.605-4.236.242-1.574 2.419-2.421 2.782-3.995.241-1.089-.847-2.178-.726-3.389.12-1.936 2.418-6.657 2.781-9.441 2.66-19.609 4.958-39.581 11.005-58.221 2.54-7.747.967-13.194 2.056-20.698.967-7.142 4.353-13.194 5.442-20.94 2.055-15.131 4.837-31.108 7.376-46.601.726-4.116 1.693-7.505 2.298-11.136a1952 1952 0 0 0 6.41-38.371c3.023-19.245 9.674-37.522 12.092-56.647.242-1.816-.362-3.389 0-5.447.363-2.784 2.177-4.963 2.419-7.505.242-2.178-.242-4.357 0-7.141 1.21-9.441 3.749-18.156 4.958-28.203.363-3.268 3.265-7.988 3.386-10.046 0-1.816-1.693-3.389-1.572-5.326.242-2.421 3.265-4.479 3.87-7.141.725-3.148-.484-4.963-.363-7.626.363-5.205 5.2-8.11 3.628-13.92 3.265 3.026 3.386-3.147 0-1.21l1.21-9.2 4.836 1.816c.847-.847-3.628-4.115-3.99-4.963-1.452-3.147 3.023-10.41 3.023-14.04 1.572-4.237 5.925-5.81 10.158-6.174l-.605 3.026 9.433 2.542 3.991-3.389-1.089-1.936.968-1.332c2.902-.121 4.837 1.332 7.86 1.21 3.023-.12 6.651-1.694 9.191-1.936 4.595-.363 9.432.726 13.544.605 4.111-.121 11.367-3.026 14.753-3.026 4.596 0 12.335 1.816 16.447 1.695 17.414-.606 35.19-2.542 52.846-2.784 8.223-.121 16.326-.727 24.549-1.332 4.232.605 7.014 8.231 7.014 11.983 0 4.116-2.298 8.473-1.935 12.83.242 2.906 2.66 5.932 2.781 8.595 0 2.178-1.451 4.357-1.451 6.173 0 4.599 1.089 9.32.484 14.646s-.726 4.478-.484 9.925-1.451 11.015-1.33 14.767c0 2.179 1.935 3.995 1.935 6.779.121 10.409-1.451 22.513-1.209 32.439.12 6.052 2.902 16.825 2.297 22.151-.725 6.536-1.33 13.072-1.209 19.729 0 2.3 1.935 4.6 1.935 6.779 0 1.573-1.089 3.147-1.21 4.962-.846 10.773.484 21.183.605 31.955 0 6.053-1.088 9.563-1.33 14.768 0 3.147 1.451 5.81 1.33 8.593-.242 3.874-2.298 6.9-1.935 11.742.242 3.026 2.419 5.204 2.54 7.988 0 2.058-1.21 3.632-1.33 5.568 0 2.058 1.088 4.6 1.209 6.779.242 3.51-.968 8.23-.605 11.014.242 2.058 2.298 7.142 1.21 8.836zM106.781 84.245s-.363.726-.484 1.09l.605 1.21c1.451-1.21 4.474.242 5.2-.242 1.693-.969 1.693-6.415 0-7.505-3.265-.726-2.419 2.42-3.386 3.995-.484.847-1.451.847-1.935 1.452m-4.474 4.72c.483-1.573-1.693-6.415-3.386-6.172-1.21.241-.484 1.573-.363 2.178.363 2.542.725 4.358 3.749 3.874zm-4.112 6.9c-2.54 2.542 1.693 5.447 3.265 2.905 1.33-2.179-1.33-4.842-3.265-2.905m58.772 248.257c-1.572-3.632.847-6.658 3.507-8.715-6.047-3.753-2.54-5.205-2.54-9.805 0-1.694-1.209-3.51-1.088-5.447.242-6.899 1.814-14.767 1.814-22.15 0-16.341 2.056-33.166 1.814-49.748-.121-10.773-.605-20.093 1.33-31.229.484-2.784 2.903-4.6 3.023-7.989.121-2.3-.604-4.115-.725-6.173 0-5.084.967-10.652.484-15.857-1.331-4.115-5.442-4.72-8.465-1.815 1.088 5.205-1.089 9.562-1.814 14.041-1.693 11.499-1.935 22.998-3.145 34.254-.362 3.148-2.297 7.747-2.418 11.136 0 2.663 1.088 4.963.604 7.868-.362 2.179-2.297 4.236-2.781 6.415-2.177 11.378-1.088 23.724-2.419 35.102-.604 4.479-3.507 11.015-3.386 15.009 0 2.058 2.54 3.632 2.298 5.447 0 1.211-1.935 3.268-2.298 5.084-.846 5.205-.362 10.773-1.693 16.099-.846 3.51-3.507 7.504-3.869 10.288s1.693 7.021-.605 9.199c2.177 0 1.572 1.453 2.781 2.663 6.41 6.416 20.8 1.816 18.019-9.199 1.33 1.332 4.595 1.332 5.563-.363.604-1.21-1.451-.847-2.177-1.453-.484-.484-.484-1.452-.967-2.057-.242-.363-.968-.484-1.089-.605zm-20.437-9.805c.725-.605 1.209-4.236-1.33-3.51-3.265.847-.968 5.205 1.33 3.51m-1.209 8.594s1.451-3.873 1.572-4.236c.242-1.09.242-1.09-.726-1.816l-4.474 3.51c-.363 1.695 2.418 3.632 3.507 2.663zm119.599 97.681c6.651 0 2.782-7.505 0-2.663-.604 1.089-.242 1.573 0 2.663m-3.87 12.346c-3.144 2.784 1.331 5.689 4.233 3.631 1.088-3.026-1.451-4.357-4.233-3.631m-138.585 5.084c-.968.847-3.023 2.058-1.209 3.389 4.111-.847 5.562-7.262 1.209-3.389m2.297 17.914c-.846-.726-.967-2.542-2.66-2.3-2.056 4.963 6.651 8.473 4.837 3.389-.363-.968-1.693-.726-2.177-1.21zm-.846 6.294c-2.177-.484-2.177 1.332-3.386 2.421-1.451.363-2.661-4.115-3.991-.242 4.717 4.6 9.433 7.626 7.377-2.179m-9.191 31.35h2.056c1.935-.726 1.088-5.084-.605-6.173-2.176-.484-1.451 5.084-1.572 6.173zm145.963-4.963c-.968.848 4.837 5.205 5.562 2.784.726-2.663-3.99-3.026-5.562-2.784m-142.214 14.162c-1.693-1.21-4.595 3.026-2.177 3.631 2.298.606 3.024-3.026 2.177-3.631m.605 18.399-5.2 2.541-.968 2.058c3.87 2.905 6.41-.726 6.168-4.599m128.065.605c-2.54-1.211-5.08.121-6.047 2.663 2.902 4.115 4.595.484 6.047-2.663m2.539 3.631c2.419.968 6.409 2.542 6.651-1.453-1.814-2.057-4.474-.121-6.772-.363v1.816zm-43.656 1.937c-2.418-.969-4.232-1.816-6.772-.363-1.209.847.484 1.089.484 2.299 0 .606-.605 1.453-.484 2.3l3.024-.968zm-42.446 5.689c-.967-.848-2.298-.848-3.507-.848-1.33 1.211 3.386 5.447 4.837 2.784-.725-.363-.967-1.573-1.451-1.936zm22.009-.727c-3.749 2.784.363 5.326 2.782 2.058z"/><path d="M1604.38 3.51c1.21.605 8.58 1.332 10.52 1.453 3.99.12 4.23-.606 7.5.484.72.242 6.16 1.21 6.53 1.21.96-.242.96-2.42 2.41-2.3 2.06.606 3.15 2.663.37 3.027-.73.968 5.92 3.268 7.01 3.026l.61-1.816c1.81.484 1.33 2.3 2.54 3.026 2.29 1.453 7.25 1.937 9.91 3.026.49.242 4.84 2.663 5.08 2.905.61.605.61 1.453.61 2.179l.96-1.21c3.27 2.178 6.65 4.357 9.8 6.778 2.05 1.573 12.94 10.288 13.78 11.378 1.09 1.815 1.94 4.962 3.27 7.141 1.93 3.147 5.08 6.294 6.53 9.441 2.54 5.205 7.74 18.52 8.46 23.967.49 3.026-.48 4.841-.48 7.262 0 3.995 1.81 17.914 0 20.093-.72.968-3.51.726-3.14 4.721l2.78.605c1.21 5.326 2.17 10.773.84 16.341-.36 1.452-2.41 2.783-2.29 3.752 0 .605 1.57 1.331 1.93 2.179 1.69 3.147-1.57 8.594-2.05 11.983-.25 2.299.72 11.983-1.09 12.467l-4.11-.484c-1.58.242-.97 3.389 0 3.631l5.07-.605c0 1.089.61 2.058.49 3.268-.12 1.695-5.08 10.894-6.65 9.683 3.14-3.268-1.21-3.994-2.18-5.568-.48-.726.97-2.784-1.81-2.42-1.7 0-1.82 2.057-1.58 3.389.37 1.815 2.79 1.694 2.42 3.026-1.21.605-2.9 3.268-3.99 3.389-2.05.363-4.71-.847-7.01 0 1.09-2.784-2.06-4.115-2.42-5.326-.24-.968.97-2.058.24-2.663-3.75 0-2.54 3.389-5.2 5.205l2.42 2.784c-1.93.242-3.99 1.695-5.93 1.816-2.53.242-3.86-1.09-6.04-1.211-1.57 0-12.22-.605-12.82-.605-9.67 1.816-25.64 3.51-35.67 3.026-3.27-.121-6.9-2.058-9.44-2.179-1.21 0-2.17 1.211-3.26.848-.97-.243-1.7-2.421-3.51-1.816 0 .847-.12 1.816 0 2.663.36 1.21 2.78.605 1.21 1.936-1.45 1.211-7.13-.847-6.77-2.42.24-.969 3.26-1.332 3.63-2.542.72-2.179-1.94-2.905-1.7-4.116.24-1.573 3.99-4.72 4.6-7.141.36-1.332.6-3.873.24-5.084-.12-.484-3.99-2.058-2.42-5.326l-3.63 1.332v2.421l3.03.605c-1.58 1.21-1.33 7.989-1.94 8.594-.24.242-1.45-.121-1.93 0-.49.121-2.06 2.663-4.11 2.421-.61-7.142-.85-14.041 1.2-21.062l4.36-1.331c.6-2.663-3.02-3.389-3.02-3.752-.25-.969.12-4.237.36-5.447.24-1.09.84-4.358 2.17-3.389-2.41 4.841-1.33 6.657 3.39 8.594.85 0 1.94-4.842 1.81-5.81-.24-2.905-6.53-4.358-7.01-7.505-1.09-7.02 5.81-18.277-5.32-21.061h-.85c-1.21 4.72-5.2 1.21-6.65 1.694-6.04 2.3-6.41 10.289-5.2 15.736.24.726 4.84.242-.6 2.663 1.45 8.473-2.42 16.461-2.78 24.813 0 2.179.84 6.9.48 8.715-.12.605-1.33.726-1.81 1.453-3.39 5.689 1.21 4.962 3.5 8.594.73 1.21.85 2.663 1.58 3.873 1.45 2.542 3.26 4.963 4.47 7.626-.12 1.573-8.34 2.541-6.05 6.173 2.3 1.452 4.72-.848 5.2-.727.85 0 2.66 3.753 4.6 2.905l-.36-4.962 2.78 3.389-1.58 3.389 3.15 3.631c3.99-1.089 8.95 1.453 7.62 6.173l2.78-5.567c2.54 2.784 6.89 3.873 9.67 5.567 3.15 2.058 6.17 5.205 8.95 7.505 1.09.847 3.39.726 2.06 2.179-2.18-1.332-3.87 0-4.6 2.179l.61 1.815 5.8-.484.97-2.421c2.18-.363 3.02 1.937 4.72 3.026 3.62 2.3 7.73 3.753 11.24 6.536 2.06 1.695 3.75 4.721 5.2 5.81 3.51 2.542 9.43 1.937 8.23 8.231-.25 1.332-2.06 2.058-.37 3.389 3.03 2.3 3.63-2.662 3.15-4.962.6.605 1.33 1.21 1.81 1.815 4.96 7.142 10.52 11.378 15.72 19.125.61.968 2.78 2.663 2.9 3.268.25 1.453-2.05 2.784-2.29 3.752-.25 1.09.84 4.6 0 6.295 2.41-1.211 2.54-4.358 2.41-6.779h1.82c1.33 6.294 4.47 12.71 5.8 19.004.37 1.573-.24 3.994.37 5.689.36.968 4.59 5.326 5.08 6.536 2.53 6.536-.37 10.652-.61 16.341s1.69 15.372.85 21.182c-.49 3.51-3.39 5.931-3.51 9.441-.24 4.842 1.93 12.104 1.93 17.188 0 2.058-1.69 3.389-2.17 5.205-2.18 7.505.12 19.73-1.57 28.445-.49 2.784-2.18 6.173-2.91 9.441-1.21 5.568-1.45 15.251-3.75 19.609-.84 1.694-2.41 3.026-3.26 4.72-2.06 4.358-1.33 10.289-3.14 14.041-.85 1.695-2.79 2.3-4.12 3.874-3.14 3.752-4.95 10.288-7.74 13.677-1.93 2.3-4.59 3.147-6.89 6.537-3.87 5.567-2.18 5.083-7.74 10.046-10.04 8.715-20.92 14.404-32.65 20.093-1.69.847-2.78 2.663-4.84 3.752-6.04 3.147-20.31 6.294-27.69 8.473-5.08 1.574-6.77.363-10.76.847-3.99.485-5.2 2.058-11.13 1.816-8.95-.484-11.12.363-19.83 1.695-6.41.968-7.98-3.147-12.21-3.995-3.99-.847-8.95.605-13.06-.726l-.61-4.963c-2.3 0-2.42 3.268-2.42 4.963-5.68-1.331-11.24-3.268-16.44-5.931-2.18-1.089-3.99-3.026-6.41-3.994-2.18-.969-4.96-1.09-6.9-2.3-.48-.363-8.1-7.384-8.95-8.231-1.81-1.937-2.66-4.237-4.83-6.173-1.45-1.211-5.2-2.663-5.44-2.905 0 0 .36-.847.12-1.09-3.27-3.631-2.54-4.478-4.6-8.23-1.09-1.937-3.14-3.995-4.84-5.689.25-1.332 3.63-1.211 3.03-2.421-.73-1.816-3.99.484-5.44-.363-.97-2.663-.61-5.326-1.33-8.11-.73-2.542-2.54-4.358-3.27-6.536-2.54-7.989-2.78-17.793-3.51-26.024-.24-2.179-1.33-3.632-1.21-6.052 0-3.753 1.82-7.626 2.42-11.136.37-1.695-.24-3.753 0-5.326 0-.484 1.57-.605 1.7-2.058.12-1.452-1.09-1.936-1.09-2.905-.61-5.568 1.69-13.799 1.93-19.609.12-5.325-.6-3.994.85-9.562 1.69-6.536-.36-14.767 1.21-19.972.48-1.573 1.57-2.057 1.81-2.663.36-.968-.72-3.994.97-5.325l6.53 1.573c1.45-.968.85-1.816.36-3.026 2.18 0 4.11.726 6.41.605 17.17-.242 30.84-3.873 48.37-2.179 5.08.485 10.16-2.057 14.76-1.573 1.81.242 3.26 1.452 5.2 1.21-.61 1.09-2.06.848-3.39 1.816-4.84 3.752 4.48 8.957 6.17 3.752.6-1.815.48-4.357-.36-6.173l11.36-2.542c4.48 1.332 11.73-.484 12.58 5.326.24 1.937.85 9.199.73 11.015-.37 4.478-3.03 10.409-3.15 16.583-.24 9.683-.36 19.608-1.21 29.413-.24 2.178-1.33 3.631-1.33 6.173.12 13.314 12.82 16.219 20.2 6.052-.25-3.268.48-6.536.72-9.683.37-4.963.61-10.41.61-15.373 0-1.936-.37-4.962 0-6.778.48-2.542 2.9 0 3.14-2.421 0-1.452-1.21-2.663-1.33-4.357 0-2.179 0-6.9.12-9.2 0-1.694 1.82-2.905 1.82-5.446 0-3.147-2.18-5.205-2.54-7.384-.25-2.058.84-3.873.6-6.052-.36-2.421-2.18-3.026-3.26-4.721-4.84-7.262-5.57-7.02-11.73-12.467-1.82-1.574-7.99-8.231-9.2-8.957-2.66-1.695-8.58-3.147-11.36-4.963-1.94-1.21-3.51-3.631-5.32-5.084-5.32-3.994-14.03-6.657-17.78-12.951-.85-1.331-.6-3.268-1.81-4.357-.85-.848-2.42-.969-2.91-1.453-.84-1.089.61-2.542-.24-3.389l-3.75-.605-.84 3.994c-3.99-5.084-10.4-7.02-15-11.378-5.08-4.842-8.71-12.346-14.15-17.188 5.08-2.3-.48-5.689-.6-6.294-.73-3.147 5.2-4.236 2.78-7.505-1.09-1.452-.85.364-1.94 1.211-.48.363-1.69.363-1.93.847-.36.605.12 2.663-1.09 2.905-2.54.484-5.68-4.842-4.96-6.052 1.58-2.542 4.36 1.089 5.93.363 1.57-1.694 2.9-3.631 1.81-5.81h-1.81c.12.968 0 3.389-1.57 3.026l-4.36-3.631-2.17 2.421-3.63-13.436c5.08 1.937 5.44-6.657 2.78-6.173l-2.78 1.816c.72-2.058-1.45-3.026-1.69-4.116-.49-1.573.24-6.052-.13-8.352-.36-1.694-1.33-3.147-1.57-4.478-1.09-5.931-1.21-13.194 2.06-18.52.72-1.21 2.66-1.21 2.78-2.784.24-2.662-2.18-3.147-2.42-3.51-.12-.363.61-5.326.61-7.02 0-1.574-.73-3.026-.61-4.6 1.33.605 2.66 1.211 3.63-.242-.97-2.179-.24-3.994-3.02-4.357-.49-4.116 1.69-8.594 5.56-4.6l1.21-5.81c-2.3-1.816-2.9 1.937-3.99 1.574-2.06-1.211-1.94-4.721-1.09-6.658.48-1.21 1.93-.605 2.05-2.905.13-2.542-1.33-3.026-1.81-4.478-.97-3.51 2.78-7.868 2.9-11.62 0-2.3-2.05-5.81-1.81-8.473.12-1.695 1.93-3.51 2.3-5.084.48-2.421-.61-3.994-.37-5.81.25-2.058 2.66-4.72 3.27-7.141.6-2.421.36-6.294.97-8.231.24-.848 1.81-.848 2.17-2.179.37-1.574-1.09-1.937-.48-3.51.97-3.026 4.35-3.39 5.32-5.084.73-1.21.85-3.51 1.69-5.084 1.21-2.42 3.03-4.357 4.36-6.657.96-1.573 1.81-5.326 2.9-6.294 1.69-1.453 2.05 4.236 4.35 1.21.24-1.573-.97-2.542-2.42-2.784l6.78-8.836 4.95 3.39c.73-3.148-2.17-3.632-3.62-5.568 2.41-.243 3.02-3.269 4.47-4.721 1.21-1.09 3.39-1.937 4.72-3.026 2.54-2.179 3.99-4.842 5.8-7.626l.97 2.421c2.42.242 3.38-2.3 5.32-3.631 1.33-.848 2.9-1.09 4.23-1.937 2.54-1.694 3.99-5.447 7.62-5.81l.61-.605-1.09-1.331c-.37-2.058 4.23-2.18 3.63.968l18.98-9.2c.24-1.815-2.18-1.33-2.3-3.51 0-.847.85-1.694 1.58-1.936 3.02-.848 3.38 1.936 2.9 4.236 5.92-1.936 12.7 0 18.74-2.179.97-.726.36-.605 0-1.21-1.09-1.695-2.17-3.39-3.02-5.205l4.96.242.6 4.6c5.69.121 11.13-1.453 16.81-1.816 1.81-.12 5.44.848 6.41-.363 1.09-1.21.73-3.268 3.51-3.389 1.09 0 3.38 1.574 4.47 2.3.36.242.61 1.09.85 1.21zm-134.24 87.271c-2.9 1.574-3.02 8.352.61 7.99 2.78-.243 1.09-8.353-.61-7.99m124.68 11.257c-1.93-2.663-4.83 3.631-.72 4.721 1.81.363.97-4.358.72-4.721m-124.43 3.631c-7.14-.726-4.36 7.263 1.08 3.632zm122.14 15.252c-1.7-.727-1.82 3.873-1.7 4.478.37 3.631 4.6 5.568 2.66 0 0-.242-.84-.242-.96-.605-.25-1.21 0-2.663 0-3.873m-129.04 7.383c-2.17.484.49 5.568 2.42 4.842 2.66-1.211-1.33-5.084-2.42-4.842m234.49 5.447-2.18.605c.12 3.389-6.41 10.168.6 6.173zm-29.51 27.113s-2.06.969-2.66-.605c-.85 3.026-3.27 2.905-4.6 5.205 1.21 1.937 1.7-.605 2.91-.847 2.41-.484 3.38 4.72 4.83 4.115 2.78-1.089.61-7.262-.36-7.868zm13.42.606c-2.54-2.058-7.01-.242-6.04 3.51 2.17-.363 3.38.242 5.2 1.21.96-.242 1.69-3.994.84-4.72m-23.22.484c-2.78.605-3.99.968-3.62 4.236 1.69.969 4.35-3.631 3.62-4.236m-17.77 4.357-6.17 2.784c.97 1.332 1.09.848 2.3.484.84-.242 5.32-1.573 3.87-3.147zm44.02 1.937-3.63-.726c-.24 1.573 1.21 3.389 2.78 3.631 1.57.363.85-2.058.85-3.026zm-80.79 1.089c-1.57 0-4.23-.363-4.83 1.695-1.21 4.357 6.29 3.026 4.83-1.695m-34.94 12.952c0-1.695 2.66-7.263-.25-7.384-4.83.969-3.99 6.294.25 7.384m-106.66 11.62s-5.08 1.331-3.99 3.026c1.08 1.089 2.41 2.058 3.99 1.816v-4.963zm129.39 7.989c-2.42-.969-4.59-1.211-4.35 2.057.12 1.574 1.81 1.937 2.17 2.784.61 1.332-1.45 2.179 1.82 3.632.97-1.09-.73-2.179-.73-3.269 0-.968 1.21-5.083 1.09-5.325zm15.24 17.793c1.69-2.784 3.51-8.715-1.69-6.537-.85 3.148-2.67 5.447 1.69 6.537m-126.86 34.376s2.06-.121 2.42-.969c-1.57-1.573-2.18-9.32-4.23-3.994l2.42.968c-.85.605-1.21 3.51-.61 3.995m166.77 1.21.6 4.6c1.45.363 5.8.726 6.53-.364.48-.726-.48-1.936-.36-2.784.12-1.21 2.42-2.541 0-3.752-3.27-1.573-1.94 3.752-3.39 3.995-1.81-.243-.97-2.542-3.38-1.816zm9.55 6.536c-.73.969-3.27 1.453-.73 3.874l4.48-3.511c-.37-1.21-1.33-6.052-2.06-6.294-1.09-.242-2.3.605-2.66 1.695-.85 2.3 3.27 1.21.97 4.357zm-164.1 5.084c-.85-1.816-3.39-6.052-5.57-3.389.37 2.542 3.15 3.631 5.57 3.389m170.99 5.689c-.97-1.574-5.92-1.21-7.5-.605-1.21.484-1.08 2.3-2.54 2.421l-5.8-1.816c1.93 1.816 0 4.479 2.18 6.052 3.02.605 6.04-3.873 7.98-4.115 1.09-.242 1.81 2.42 4.11 1.694.97-.363 2.06-2.663 1.57-3.51zm4.23 7.626c.97-.969 1.94-4.237 1.09-5.326-3.14-2.3-3.02 2.905-3.38 5.205l1.21.726s.72-.242 1.08-.484zm8.11 29.655c-.37 2.542 1.81 3.994 3.02 5.931l3.75-2.542-.97-1.453c-3.51 1.574-2.66-.484-3.99-2.178-2.54-3.147-7.13-5.084-8.95-.363l.61 1.089 6.41-.484zm6.77 13.435c.72-3.873-1.33-7.625-3.02-2.178zm-108.48 9.321c-.84.605-.12 4.357 2.18 3.631s.24-5.205-2.18-3.631m-115.24 20.214v-7.989l-.97 1.937h-5.8c-.61 2.057 1.08 1.694 1.45 2.42 1.21 2.058-.12 4.237 4.35 2.421zm-8.59 6.778c-1.09-.242-5.92.363-5.56 2.179l3.26 1.452c1.33-.726 2.54-1.936 2.18-3.51zm7.86 21.424c-5.68.848-3.38-6.173-8.58-5.568l-.37 5.568c4.12 1.211 8.71 8.715 8.95 0m-15.84 31.955c-.36-1.694-.6-8.23-3.39-7.383-1.2.363-1.08 2.542-.48 3.51zm130.97-6.052c-2.3.605-2.18 4.479.48 4.842 1.09-.968 2.18-3.147 1.21-4.358-.48-.726-.97-.726-1.81-.484zm-107.15 19.488c-2.9.363-3.26 3.389-.84 4.963 2.54-.484 1.33-3.268.84-4.963m-17.05 15.372c5.32-.484 5.93-7.504-.36-4.357zm-7.49-1.21c-2.67 4.721 5.44 6.657 6.65 2.663-1.09-3.631-3.51-2.663-5.32-3.752-.73-.485-.85-2.421-2.18-2.179l-.85 2.179zm23.94 9.804c-4.35 1.09-1.94-5.447-6.05-3.389s3.63 6.536 6.17 5.81v-2.421zm0 4.237h-2.06c-2.29.847-.96 8.352 1.94 4.478v-4.478zm24.79 29.897c-.85-.726-.97-2.663-2.66-2.3-1.69 4.479.36 5.084 4.23 3.631.49-1.936-1.09-.847-1.69-1.331zm13.91 10.047c-1.7.968-2.54-1.574-4.11-1.695-5.2 3.268.6 2.663 3.26 2.905 1.21.121.85 0 .85-1.089zm9.19 8.593c.72-3.268-3.27-4.962-5.57-2.783zm-172.33-330.08c-6.29-.727-5.68-6.658-2.66-10.773l-2.3-3.026 1.58-2.179c.72-.121 3.26 4.721 3.38 5.205.73 3.389-1.33 7.141 0 10.773m-6.65 61.247-.6 3.026c-1.7-.484-5.32-.363-3.99-3.026zm-180.3 74.925 3.02 2.178-2.18 3.269c-1.57-1.332-.72-3.632-.97-5.568zm294.22-86.545c-2.9-1.453-2.54-4.721.6-5.568z"/></g><defs><clipPath id="a"><path fill="#fff" d="M0 0h1701v563.933H0z"/></clipPath></defs></svg>