<svg xmlns="http://www.w3.org/2000/svg" width="1159" height="652" fill="none"><g fill="#fff" clip-path="url(#a)"><path d="M228.286 472.638c0 95.164-23.583 179.362-103.177 179.362h-75.82V455.185H0l24.29-56.603h24.881V0h75.82c79.594 0 103.177 22.406 103.177 104.48v198.348c0 55.306-9.315 88.325-36.672 109.433h36.672v60.377zM167.913 96.344c0-31.132-7.429-37.972-40.445-37.972h-16.745v340.092h14.268c31.13 0 42.922-31.132 42.922-96.344zm0 358.841h-57.19v139.032h16.745c33.016 0 40.445-7.429 40.445-37.971zm184.067 43.514c0 37.972 11.792 57.783 101.998 37.972v59.079c-148.575 29.835-163.55-23.584-163.55-103.183v-37.264h-49.171L264.84 398.7h25.47V202.829c0-79.599 14.975-132.429 163.55-103.184v59.08c-90.206-19.929-101.998 0-101.998 37.972v202.121h90.206v56.603h-90.206v43.514zm335.944-26.061c0 95.164-23.583 124.41-103.177 124.41h-75.82V455.303h-49.171l24.291-56.603h24.88V98.23h75.82c79.594 0 103.177 22.406 103.177 104.481v100.117c0 55.306-9.315 88.325-36.672 109.433h36.672zm-60.373-278.064c0-31.132-7.429-37.971-40.445-37.971h-16.745v241.979h14.268c31.13 0 42.922-31.132 42.922-96.344zm0 260.611h-57.19v83.962h16.745c33.016 0 40.445-7.429 40.445-37.971zm194.916 149.292c-46.695 0-88.909-19.929-88.909-95.754V186.555c0-75.825 42.332-95.754 88.909-95.754 42.332 0 90.206 17.453 90.206 95.754v322.168c0 78.419-47.874 95.754-90.206 95.754m-27.357-90.801c0 26.179 9.315 34.197 27.946 34.197s27.946-7.429 27.946-34.197V181.485c0-27.359-9.905-34.198-27.946-34.198s-27.946 8.136-27.946 34.198zm246.33-58.491V596.93h-61.555V455.185h-49.171l24.291-56.603h24.88V98.23h75.825c79.59 0 103.17 29.835 103.17 124.41v108.254c0 95.164-23.58 124.409-103.17 124.409h-14.27zm0-57.193h16.74c33.02 0 40.45-6.839 40.45-37.971V194.574c0-31.132-7.43-37.971-40.45-37.971h-16.74z"/></g><defs><clipPath id="a"><path fill="#fff" d="M0 0h1159v652H0z"/></clipPath></defs></svg>