<svg xmlns="http://www.w3.org/2000/svg" width="1253" height="520" fill="none"><g fill="#fff" clip-path="url(#a)"><path d="M275.817.356c1.708 1.139 4.364.949 5.883 2.372 1.802 1.614 2.751 6.17 4.08 8.257.949 1.424 2.656 2.373 3.321 3.796.664 1.424.569 3.322 1.518 4.84-3.131-.474-1.234 2.847.569.57-.19 2.182 2.088 4.175 2.562 6.073s-.38 2.753-.19 3.986c.285 1.709 2.467 5.79 2.657 7.403.095 1.139-.569 1.993-.569 2.657 0 .285 2.182 3.322 2.182 4.46v10.724l-1.423-1.138-.854 2.182 1.897-.474.76.759c0 2.088-1.139 5.22-.949 7.023.189 1.898 2.182 3.606 2.846 5.504 1.329 3.891.949 8.352 1.613 12.148.57 3.227 2.752 6.358 3.131 9.016.475 3.037-.759 5.694-.759 8.54 0 6.929 3.321 14.901 3.037 22.303 0 2.088-1.234.664-1.139 2.183 1.803.759 1.234 4.555 2.182 6.643 0 .854-3.415-.664-2.751 1.424h3.795l1.708 6.643c-1.139.949-3.036-4.461-3.89-1.424.569 1.519 3.605 2.373 3.795 2.563.285.569 0 1.993.19 2.847 1.993 6.168 1.233 4.65 1.518 10.534.19 2.847 2.182 5.599 1.613 8.541l-1.423-3.321c-1.329-.38-.949 1.898-.759 2.467.284 1.234.949 2.088 2.182 1.424-.949 4.46 2.847 9.585 2.847 13.476 0 3.606-4.27 2.088-1.139 3.891-1.708 3.416.759 4.935 1.708 7.592.569 1.519 1.993 8.257 1.898 9.49 0 .57-1.044 1.044-.854 1.329 0 0 .949-.19 1.138.38.19.854-.189 2.087.095 3.131 1.708 6.549 1.234 7.593 1.803 13.666.285 2.658 2.467 5.695 3.036 8.542.949 5.219.095 8.731 1.424 14.52.284 1.329 1.518 5.599-.285 5.03v.569c3.606-.285 1.992 7.213 2.277 10.155.285 2.752 1.518 6.168 1.993 9.016.284 1.992.664 13.001 3.7 12.242 1.613-1.993 3.226-4.65 3.89-7.118 1.234-4.84 0-11.957.854-16.798.285-1.423 2.657-4.08 2.657-5.599 0-.474-1.992-.474-1.613-1.613l1.613.285c-1.898-9.016-.759-18.222-.569-27.238 0-1.423-.569-3.131-.569-5.029 0-3.132 1.707-6.074 1.707-8.826s-1.518-4.366-1.707-7.118c-.19-3.322 1.138-5.979 1.138-8.826 0-4.271-1.233-9.206-1.138-14.33.189-13.761.759-28.187 0-41.853-.38-7.592-2.752-15.184-1.614-22.492.57-3.511 3.321-6.263 0-9.68 1.993 0 1.519-1.898 2.183-2.942.379-.664 1.803-.57 1.708-1.708-.38-1.803-3.321.57-3.891 1.139-.664.76-.189 1.993-1.138 1.898-.475-2.088.759-4.366.569-6.264-.19-1.518-1.613-2.657-1.708-4.46 0-5.03.759-12.337 1.139-17.557.095-1.329 1.044-2.468 1.044-3.891 0-1.614-.665-2.942-.57-4.84.38-4.556 3.416-7.118 7.971-7.023 2.941 0 6.926 1.518 9.393 1.613 1.708 0 3.701-.949 5.503-1.044 5.978-.38 15.561 1.993 21.444 2.088 1.139 0 2.657-1.044 4.46-1.139 6.167 0 14.043 1.234 20.4 1.709 12.335.854 23.436 1.518 35.771 1.613 4.934 0 10.248 1.139 14.328 1.139 2.182 0 3.89-1.234 5.503-1.139 2.372.095 6.073 2.562 8.825 2.657 1.992 0 4.649-1.233 6.641-1.518 6.263-.76 12.335-2.942 14.707 4.46.76 2.468 1.708 7.498 1.993 10.155.38 3.227-1.328 8.351 1.993 9.585 7.401 2.847 20.305-2.752 22.677-1.518.19.094-.095 1.328 1.518.949.285 0 .285-1.044.949-1.329 8.255-3.322 16.605-3.701 25.239-5.125 8.065-1.234 16.32-1.139 24.385-2.562 2.278-.38 4.745-1.803 6.832-1.993 1.518-.19 3.321.76 4.839.474 5.883-.949 5.598-.759 11.481-.664 3.985 0 6.832-1.993 10.248-2.278 4.649-.38 10.247.285 15.181-.38 3.416-.474 5.788-3.416 8.919-3.795 3.321-.38 8.919 1.423 11.956 1.044 1.518-.19 3.321-1.709 5.029-2.183 8.729-2.752 17.648-1.234 26.378-2.183 1.802-.19 4.459-2.372 6.452-2.942 3.036-.854 12.24-2.183 14.991-1.423l.38 1.613c1.423.474.949-.76 1.518-1.044 1.234-.57 9.014-1.424 10.058-.854 2.467 2.562 3.036 6.169 2.751 9.68-.569-.57-1.897 0-2.087-.19-.095 0 0-1.993-1.139-.664l2.657 2.278c.19 2.087.475 4.08-1.044 5.694 2.752-.285 2.752 2.847 2.752 4.935l-1.898-1.044c-1.423.949-.569 2.088-.189 3.226l2.182-.474c-2.182 4.46 1.233 5.504 2.182 8.636.57 1.708 1.423 10.63 1.329 12.432 0 1.993-.854 6.454-2.467 7.403l.569.569c1.328-1.044 1.898 2.657 2.087 3.986.475 3.417 0 7.213.38 10.345.379 2.847 1.993 4.84 1.233 8.161-.094.57-1.138 1.234-.948 1.519 0 0 1.043-.285 1.423 1.044.379 1.328-.285 2.277 0 3.321 1.044 6.359.664 5.789.284 11.863-.379 7.308.19 14.71-.569 21.923l-1.138.664c3.51 1.423.948 5.22.569 7.782-.38 2.562.854 5.409-1.139 7.118 1.708.569.949 3.606 1.139 5.409 1.044 8.162-.949 9.016-1.708 16.039-.474 4.46.19 9.775.474 14.235l-2.182.57c.949.949 2.562 2.562 2.752 3.891.284 1.803 0 4.935.284 6.833.19 1.138.854 2.372.949 3.606s-1.613.285-1.138 1.898l2.751.949c-1.138 2.562.57 3.986.57 5.979 0 1.423-1.044 2.467-.854 3.037.189.854 1.613 1.518 1.708 1.803 3.32 6.358 3.985 13.286 6.736 19.55.759 1.708 2.562 7.687 4.744 7.308.095-1.329 2.373-2.658 2.468-2.848.189-.474-.475-1.044-.38-1.518 0-.095.854 0 .854-.285.19-2.277-.19-5.409 0-7.782 1.708-12.527 5.219-24.769 7.211-37.392 1.044-6.358 3.606-16.323 3.796-22.112 0-3.416-1.329-6.074-1.139-9.395.19-2.658 2.182-5.979 1.992-8.257-.189-1.993-1.802-9.395-1.423-10.914 1.329-5.219-.19-6.358-.569-11.673-.664-9.585-.38-19.74 0-29.135.474-13.002.569-26.098 1.613-39.1.19-2.562 1.613-4.176 1.613-4.365-.095-1.519-.19-5.695.569-7.118.095-.285 2.657-.95 2.752-2.847l-2.752 1.423c.57-4.935-.949-9.775 0-14.9l.854 2.753 2.942-.665c1.897-4.84-.57-2.467-.949-2.752l-.38-1.044-1.328.57c-.569-1.234.949-2.847.854-3.607 0-.38-.854-1.044-.854-1.708-.475-5.789-1.139-10.534 2.467-15.659 1.518 1.519-.759 5.979 1.898 6.074-.949-1.613.379-3.606.379-4.176 0-.285-1.613-2.278-1.898-3.416-.759-2.753-.379-5.03-.189-7.593 0-.284-.854-.19-.949-.474-.57-3.417 1.328-11.958 5.977-10.25l-.569-1.139h1.613l-.569 1.614c1.328.19 1.708-.665 1.139-1.614l15.181.57c15.466-1.139 29.984 1.518 45.734.474 1.613-.095 3.511-1.138 4.934-1.044 1.518.095 6.263 3.227 8.825 3.037.379 0 1.328-.854 2.751-.949 3.321-.19 7.022 1.519 11.576 1.14 8.635-.76 13.663-.95 22.203.379 13.663 2.183 28.94-.95 42.888-.475 8.539.38 17.174 3.132 26.378 2.183 2.277-.285 2.087-1.803 5.503-.474 2.657 1.043 3.89 3.511 4.175 6.263.759 6.548-.38 10.914-1.044 17.083-.095 1.139.19 3.037 0 3.796-.19.57-2.752 0-2.846 3.321 0 1.993 2.941-1.233 2.751 2.183-.19 4.555-5.124 9.965-5.788 13.571-.379 2.183.664 4.366.285 6.833-.38 2.183-2.372 3.607-2.657 5.6-.759 4.65.949 10.059.569 14.33-.284 2.752-2.277 4.935-2.277 7.687 0 5.315 1.898 13.002 1.613 18.127-.19 3.511-2.372 7.402-2.562 11.673-.284 5.789-.379 5.694-1.613 11.198-1.138 5.03-1.708 21.258-1.233 26.288.19 2.278 1.423 4.271 1.138 6.643-.189 1.804-2.467 4.366-3.036 7.118-.284 1.139-.19 5.505-.284 7.118-.475 9.585-.19 20.119-2.278 29.705-.854 3.891-2.467 8.446-2.087 12.717.19 1.708 1.518 3.701 1.518 5.599.19 5.409-2.847 11.768-2.087 17.367l-1.614-.569c.095 1.708-.569 2.372-2.182 2.182l.285 1.139 1.328-.474.285 1.044 1.898-1.614c.379 4.84-1.234 9.87-1.614 14.615-.569 7.023.285 15.185-.569 22.018-.284 2.562-1.423 4.935-1.613 7.118-.285 2.752.854 5.124.569 7.687-.189 1.803-1.897 4.745-2.087 6.168-.19 1.804.569 5.03.285 7.593-.095 1.044-.57 1.993-.475 3.036h-3.321l2.088 2.943-.475 4.27h-1.613l1.139.57v1.613c-1.898-.949-3.226 1.993-1.139 2.752l1.139-2.183c-.569 2.278.759 5.884-.19 8.067-.474 1.044-2.752 1.139-1.992 3.511l1.613-.854c-1.424 6.738-1.708 17.273-11.576 14.046l.569 1.139c-3.321 1.234-5.503-.285-8.54-.57-5.313-.474-12.43 1.139-17.363.855-2.942-.19-7.686-2.563-10.248-2.468-5.124.19-11.196 1.234-16.51 1.044-2.087 0-3.985-.854-5.503-.854-1.803 0-3.511 1.423-4.934 1.329-1.044 0-2.372-1.139-3.606-1.424-4.744-1.044-11.955-.569-17.364-.854-2.656-.095-1.707 1.803-3.226-1.614l-.284 1.614-12.145-.759-.76-1.898c-1.138-.19-1.043 1.518-1.802 1.613-3.796.854-12.146 2.183-15.846 1.613-1.613-.284-3.036-1.518-5.029-1.613s-3.511.854-5.408.569c-1.518-.189-3.131-1.518-5.029-1.518-3.511 0-8.16.379-12.145.379-8.35 0-16.985-2.372-15.751 9.111.284 2.752 2.941 8.162-.569 9.68v.854c1.328.57 1.897 4.366 2.087 6.074.949 6.833 2.847 13.666 3.89 20.404.854 5.694-.569 11.294-6.167 13.571-2.277.949-12.43 3.417-15.087 3.702-3.511.379-7.496-.38-10.912.095-2.561.379-5.218 2.182-7.875 2.562-1.993.285-3.985-.095-5.788.285-1.328.284-2.372 1.613-4.08 1.993-3.036.569-6.642-.19-9.773.189-3.89.38-15.846 3.702-18.692 3.132-5.029-.949-7.022-1.993-12.81-1.518-12.714.854-28.465 2.467-40.61 5.694-1.708.474-2.467 2.847-4.839 1.518l.569 1.614c-3.226.569-6.737 1.993-9.963 1.139l.57 1.613c-3.511.095-6.642 3.227-9.774 3.701-4.459.759-12.24.19-16.699 1.519-1.803.569-3.036 1.803-4.839 2.182-5.504 1.329-12.051 0-17.933.854-1.993.285-5.029 1.993-7.401 2.563-3.986.949-13.379 2.752-15.277-2.088-.854-2.278-2.941-11.293-3.226-13.856-.379-3.986.19-9.11-.379-13.381-.38-2.468-2.562-5.505-2.752-8.352-.19-3.036.854-6.833.569-10.439-.379-5.694-2.941-11.768-3.321-16.513-.189-2.657.664-4.745.57-7.118 0-2.657-1.519-5.599-1.708-8.256-.095-2.278.569-3.891.569-5.505 0-.19-.474-1.139-.664-2.657-1.044-8.826-2.183-19.93-3.89-28.566-.854-4.46-1.519-5.314-1.519-10.629 0-6.453-.569-14.235-1.138-20.879-.095-1.423-1.139-2.657-1.139-4.46 0-1.613.759-3.037.57-4.935-.19-3.132-2.847-5.789-3.321-8.921s.189-6.738 0-9.87c-.76-8.731-3.701-18.411-4.365-27.047-.285-3.037.474-6.359.285-9.016-.19-2.657-1.993-5.789-1.993-7.972 0-1.898 1.139-4.555.949-6.548-.19-3.227-2.088-5.884-2.372-8.826-.285-3.511.664-8.162.284-11.578-.379-3.037-2.846-4.745-.474-8.257l-1.139-.854 1.139-.759c-2.277-5.22-1.423-11.293-2.372-16.418-.475-2.847-3.037-5.41-3.226-8.447-.19-2.752 1.613-4.84 1.708-7.117s-1.234-7.213-1.613-9.965c-.475-3.132-1.139-5.694-1.519-8.352-.379-2.277-2.087-13.001-1.802-14.14.095-.475 1.897-.285 1.043-1.424 0 0-.948.19-1.043-.379-.19-.854.095-1.993-.095-3.132a117 117 0 0 0-1.993-7.782l-1.708-.38c-.664 2.847.854 6.454.57 9.016-.285 2.183-2.372 4.176-2.657 7.213-.19 2.182 1.423 4.365 1.328 5.979s-1.708 3.321-1.992 5.029c-.19 1.424 1.423 5.6 1.518 7.688.474 9.205-1.993 18.411-2.752 27.521-.19 2.183.475 3.891.569 5.979l-2.277 1.139 1.708 1.139c-.569 2.373.285 5.599-2.277 6.643l1.139 2.183-2.183-.285-.474 1.898 2.657 1.329-4.46.285-1.044 4.175 4.65-.474.854-1.708c1.233 6.548-3.986 10.534-2.847 17.082h-1.613l.285 1.139 1.423-.569c1.139 3.796-1.518 7.687-1.613 10.818-.38 9.301-2.182 17.652-2.847 26.953-.189 1.993.854 5.125 0 7.687l-1.708.285c2.942 1.803.949 2.752 1.044 5.219.285 10.819 1.139 21.354 0 31.983-.664 6.548.949 11.673.475 17.557-.665 8.161.094 15.089 0 23.251-.095 8.162-2.373 15.564-3.416 23.631-.285 2.467-2.088 4.84-.475 7.687l-1.138.285c-.19 1.044 1.043.284 1.518.664 1.518 1.234-1.139 9.3-1.234 11.388 0 1.804 1.044 3.891 1.044 5.884.095 4.366-1.613 14.236-2.277 18.886-.569 3.606.949 5.315-4.365 6.548-1.138.285-7.116.854-8.16.76-1.898-.095-3.89-1.804-6.357-1.234l-.285-1.614h-1.897v1.709c-.665-.285-1.139-.57-1.898-.57-5.124-.284-10.343-.949-15.466-1.139-9.014-.284-18.123 1.614-26.947.475-1.898-.19-4.08-1.613-5.599-1.613-1.423 0-3.036.949-4.459 1.044-5.124.569-7.781-2.848-12.999-1.993-2.183.379-3.985 1.708-6.263 1.518-1.803-.095-2.846-1.424-4.459-1.613-1.898-.285-4.08.189-5.978 0-4.08-.475-9.394-2.847-12.715 1.044-2.846 3.321-.379 5.978.19 9.3.854 4.84 2.847 9.87 3.416 13.666.475 3.227-.759 6.264-.759 9.301 0 6.643 4.175 7.592 1.328 16.513-.664 2.088-1.897 5.314-4.459 4.65l.569 1.139c-1.708.759-3.321-.19-5.124.095-2.846.474-5.882 1.139-8.824 1.708-1.423.285-2.752 1.329-3.985 1.518-1.613.19.474-1.518-1.613-1.708-.38 0-.095.949-.664 1.139-9.204 3.037-18.123 1.424-27.137 4.176-1.329.379-2.277 1.803-4.175 1.898-2.088.19-4.175-1.234-6.547-1.139-3.226.19-8.065 2.942-11.196 3.227-1.803.189-4.84-1.329-6.927-.854-1.423.284-2.372 1.803-3.985 2.087-2.277.285-4.934-.854-7.686-.569-1.992.19-3.321 1.329-5.029 1.613-2.087.285-4.459-.19-6.547 0-6.831.76-13.948 2.468-20.874 1.614-2.467-.285-1.518-.76-1.993-1.709-.949-1.803-1.897.76-2.182.949-1.613 1.044-12.999-.189-16.225.285-2.372.38-3.986 2.752-6.642 2.752-1.234 0-8.635-.759-9.299-1.044-.759-.474-.854-2.372-3.131-1.708l1.613 1.613c-2.562-.569-4.744 1.139-7.022 1.519-3.7.569-8.16 0-11.86.854-2.372.569-4.839 2.278-7.306 2.562-4.46.57-9.299 0-14.138.76-8.16 1.328-14.138 6.548-23.057 4.84l1.139 1.044-1.993.474-.474-1.044c-9.584 3.512-18.598 6.264-28.75 8.162a608 608 0 0 1-12.81 2.467c-.948.19-1.897-.474-2.941-.189-1.423.379-1.139 3.036-3.7 2.087v-4.935h-1.614l-.569 5.505c-1.898-.664-4.08.285-5.503 1.613h-1.613c-1.329-1.044-2.847-.949-3.796-2.562-.19-.38-3.13-7.877-3.225-8.352-2.088-11.103-3.511-23.251-5.124-34.544-.854-6.074-2.847-13.951-3.226-19.93-.285-3.796.854-7.497.569-11.009-.664-8.066-2.277-12.527-2.182-21.448.19-10.059-.285-19.929-1.139-29.799-.57-7.403 1.613-15.564 1.139-22.587-.095-1.993-1.139-4.176-1.139-5.41 0-1.138 1.044-2.182 1.044-3.321 0-1.898-1.518-5.884-1.424-8.352 0-1.898.854-3.891.854-5.789 0-3.511-2.467-7.118-2.656-10.06-.095-2.277 1.138-4.08 1.138-6.073 0-4.461-1.518-15.944-3.036-20.12-1.328-3.796-1.233-2.657-1.993-7.402-1.328-9.206-3.13-19.36-5.218-28.376-.854-3.796-3.131-8.541-3.606-12.432-.285-2.847.854-5.03.38-8.067-.57-3.606-4.65-8.067-5.219-12.432-.38-2.468.285-4.366.19-6.359s-1.518-4.365-1.898-6.264c-.474-3.036-.095-8.066-1.518-10.534-.854-1.518-2.941-2.277-3.416-4.27-.664-2.753.664-5.03.38-7.498-.854-8.066-5.314-15.469-6.453-23.346-.474-3.511.475-5.504-1.328-9.111-.759-1.518-2.372-2.752-2.846-4.365-.76-2.657 0-5.22-.854-7.972-.665-1.898-2.847-3.322-3.226-5.03-1.708-7.307-1.139-15.849-3.132-23.346-.474-1.898-1.992-3.701-2.182-5.599-.19-1.424 0-1.993-.285-4.081-.38-2.657 0-5.315-1.707-7.687l1.613-1.329-1.708-.284c0-2.373.19-4.651-.095-7.023-.38-3.132-3.037-7.403-3.131-9.585 0-1.899 1.328-4.176 1.328-6.359 0-1.613-.76-3.416-.76-5.125l-1.707-.664c.759-6.359-1.328-11.958-2.182-18.126l2.182-1.424-2.182.57c-.19-3.892-2.657-10.155.569-12.907-.76-.57-1.423.094-1.139-1.33l1.613-1.138-1.708.285-1.613-3.606v-2.183c1.424-1.329 3.986-5.125 5.788-5.505 1.518-.284 3.321.19 4.934 0 5.788-.949 7.117-.759 12.715-1.044 2.182-.095 5.029-1.328 7.116-1.138 1.234.095 2.941 1.233 3.036 1.138 0 0-.19-.854.665-1.233.854-.38 10.627-4.176 11.196-4.271 1.992-.19 4.934.854 7.686.57 3.226-.285 4.934-2.278 7.78-2.658 3.7-.474 7.211.76 10.437.475 4.46-.285 10.817-3.037 16.036-3.322 1.708 0 4.744.76 6.357.38 1.518-.285 3.7-1.993 5.788-2.563 3.795-.949 7.686.38 11.386-.19 1.518-.284 3.321-1.518 5.124-1.993 7.78-1.898 17.743-2.467 25.714-3.51 4.459-.57 10.342-3.133 14.612-3.038 5.693.19 10.817-.38 16.605-1.613 4.839-.95 10.816-3.417 16.225-4.081 3.89-.475 12.619.38 15.276-.285 1.803-.474 3.131-2.182 5.598-2.467s5.598.19 8.255 0c9.584-.854 20.59-3.796 29.794-3.606.474 0 1.044.854 1.613.759.949-.19 1.139-1.898 1.898-2.183 1.233-.38 5.123-1.424 6.547-1.613 3.415-.57 7.875.19 11.291-2.278h5.503zm-258.37 39.67c-1.518.094-3.321-.57-4.365.853 1.423 1.14 2.277 3.512 4.365 2.468l-1.139-2.468zm917.721 2.182-4.554 1.139-.38 1.613c.664.664 5.219-.854 4.934-2.752m-881.95.57c-1.613-.57-1.423.854-2.087 1.043-1.519.475-4.555.285-5.693 2.278 3.13-1.044 4.649 1.519 7.59-.664v-2.658zm-40.136 3.89c-1.898-.284-3.51.57-3.32 2.753l3.035.569.665-1.139-.285-2.183zm238.919 5.6c-.38-.57-1.613-.665-2.183-1.993-.569-1.234 2.278-2.752-2.087-2.563l.854 3.322c-1.613-.57-1.993-1.898-3.89-2.183-2.372-.38-4.08.57-5.978.57-1.423 0-2.562-.95-3.89-1.044-4.65-.57-11.197 1.803-15.941 1.898-6.357.19-13.758 1.613-20.59 2.088-14.707 1.138-29.224 4.08-43.741 4.84-2.088.095-4.555 1.898-6.263 2.087-2.182.19-3.89-1.423-5.977-1.708s-3.606.57-5.504.665c-2.277.095-3.036-1.33-5.788.284-1.233.76-2.182 2.563-3.416 3.227-3.51 1.803-8.539.285-12.334.285-6.927 0-16.51 1.803-23.722 2.467-5.882.57-10.057 1.803-12.24 7.877-1.233 3.322-.095 6.264-.095 9.775 0 5.125 0 9.965-.569 14.9-1.328 13.191.285 28.376 1.044 41.852.284 6.169-.38 10.534-1.044 16.513-.38 3.132.19 6.643 0 9.87-.095 1.613-1.139 2.942-1.044 4.366 0 1.803 1.803 4.08 2.088 6.168 1.233 8.447.284 20.879 0 29.705-.38 13.097-2.088 28.471-1.044 41.283s1.423 25.434 1.518 37.961c.095 7.877-.569 15.849-.569 23.726 0 2.847 1.518 6.073 1.423 8.826 0 2.372-1.992 4.46-1.897 6.548.094 2.183 2.182 4.46 2.182 7.213 0 3.321-1.423 9.205-1.613 12.717-.475 5.884-.475 6.738.949 12.242.759 2.942.854 15.849.759 19.645-.19 4.365-2.467 9.585-1.613 14.235.284 1.424 1.328 2.658 1.518 4.556.38 3.321-.854 8.636-.57 12.622.096 1.803 1.044 3.227 1.14 4.46 0 1.614-1.424 2.942-1.614 4.935s1.044 4.366 1.044 6.074c0 2.657-1.139 5.125-.949 8.257.095 2.847 1.898 6.548 1.898 8.826 0 1.993-1.234 4.84-1.329 7.117-.19 4.935 1.424 10.819 1.139 15.849 1.044 4.745 7.97 3.037 11.67 2.562 2.657-.379 5.789-1.613 8.351-1.613 3.036 0 4.554 1.898 7.116 1.708s4.554-2.752 7.306-3.226c10.722-1.804 21.918-2.278 32.83-3.607 8.729-1.044 17.933-.759 26.568-2.088 1.802-.284 3.226-1.803 5.028-2.087 2.657-.475 4.84.569 7.117.569 2.751 0 5.313-1.708 7.78-2.183 7.496-1.423 18.218-.854 25.809-1.708 7.021-.759 17.838-1.803 24.385-3.701 5.788-1.708 3.606-2.563 6.737-5.41.854-.854 2.277-1.044 2.846-1.613.57-.57-.189-1.424.475-2.278s1.518-.284 1.613-.379c.285-.285.569-1.993 1.139-2.942 1.328-1.993 5.218-4.271 6.831-6.928 1.044-1.614 1.044-3.607 2.183-4.935.948-1.139 2.467-1.329 3.32-2.183 3.986-3.891 8.161-8.162 10.248-13.381 1.044-2.563 0-5.22 3.7-5.979l-.474-1.614-1.613 1.139c1.708-4.46-1.044-9.015-1.139-13.001 0-3.512 2.752-6.928 2.847-10.44 0-2.562-1.234-4.081-1.613-6.168-.759-4.935-2.182-12.717-1.708-17.463.949-10.534 2.087-22.017 1.613-32.551 0-2.278-1.613-5.315-1.518-7.782 0-5.22.949-12.433 1.518-17.652.285-2.278-.949-4.556-1.139-6.549-.284-4.84-1.233-12.717-1.138-17.082 0-1.708 1.613-2.468 1.708-4.366 0-1.138-.57-2.277-.57-3.321 0-2.183.285-5.03 0-7.118-.474-2.942-3.795-3.511-5.788-5.315-3.89-3.511-7.78-7.687-11.86-11.293-2.752-2.467-8.35-5.409-8.255-9.87 0-1.234 3.036-7.687 3.89-8.826 6.832-9.585 15.656-11.578 21.065-24.675 1.897-4.555-.475-6.643-.095-11.103.189-3.227 1.897-7.592 1.613-10.914-.19-2.657-2.467-6.548-2.657-10.06-.38-6.738 1.613-11.768 2.087-17.557.285-2.752-.948-4.65-1.138-7.118-.285-3.891.474-7.402.569-11.008 0-2.658-1.328-5.884.475-8.921l-1.044-.759s.854.189 1.044-.285c.284-.759-.949-6.359-1.044-7.687-.285-3.227-1.139-8.921-1.139-11.578 0-3.037 1.898-6.074 2.088-8.352.189-1.708-.854-4.08-.949-5.979 0-.949.664-2.088.569-3.226-.474-5.41-6.737-6.739-9.678-9.68-2.657-2.658-5.788-6.739-7.97-9.111-2.847-3.227-9.014-5.125-11.007-9.016-.379-.76-.19-1.993-.759-2.752zm552.606 4.175c-4.649-1.898-9.678.76-10.342 5.884-.854 6.074 0 12.243-2.088 18.222-1.043 2.847-3.89 5.22-2.372 9.016l-1.138-.57c.189 1.993.474 4.84.284 6.833-.284 3.037-1.233 5.315-1.708 8.067-.759 4.745 0 9.49-.854 14.046-.474 2.562-2.372 4.27-2.656 6.168s.474 3.037.379 4.366c-.474 15.089-5.218 33.595-8.065 48.495-.664 3.227.285 7.118-.19 9.68-.569 3.322-3.605 6.074-2.656 9.206l-1.139-.57c-.095 3.986.285 7.877 0 11.863-.285 3.322-1.898 7.687-2.088 10.629 0 1.329.57 2.563.38 4.176-.285 3.132-3.321 5.505-3.795 8.921-.38 3.037.759 5.599.474 8.162-.285 2.562-2.562 5.694-2.752 8.921-.189 2.942 1.044 6.073.57 9.3-.285 1.708-1.708 3.227-1.993 5.125-.474 3.037 0 6.453-.759 9.68-.854 4.365-3.795 11.009-4.365 14.995-.474 3.416.854 9.49.57 12.622-.19 1.518-1.898 3.511-2.183 5.599-.379 2.562.38 5.599-.189 8.067-.57 2.467-3.132 4.65-3.606 7.402-.474 3.037.095 8.352 2.277 10.629 3.796 3.891 10.058 1.424 14.328 1.614 1.992.095 3.985 1.518 6.072 1.708 4.934.474 12.145-1.424 17.08-1.139 2.277.095 3.795 1.424 6.072 1.708 10.627 1.139 21.729-.474 32.545 0 5.029.19 11.387.665 16.415 1.139 8.92.854 18.408.949 27.517 1.044 2.087 0 8.35 0 9.583-1.424.664-.759 3.037-6.168 3.226-7.212.664-3.796.664-8.921 1.329-12.527.474-2.563 1.043-4.745 2.182-7.118l-1.139-1.329 1.044-.284c-1.233-3.512 1.613-7.023 2.088-10.06.284-1.519-.665-2.468-.665-3.132 0-3.891.285-7.497 3.037-10.534-2.847-1.044 0-1.329 0-1.708.759-3.227-1.708-7.593-4.555-9.111-4.744-2.468-9.868-.854-14.991-.949-7.686-.19-16.131-1.519-23.627-1.708-4.364 0-10.152 1.613-13.663.949-3.226-.57-7.211-4.461-7.591-7.877-.095-1.234.854-8.447 1.234-9.775.379-1.614 1.803-2.942 1.992-4.556.475-2.847-.474-6.073-.284-8.541.189-1.993 1.423-3.416 1.897-5.314.759-2.942-.284-5.789.095-8.731 2.088-16.039 6.832-31.793 8.73-48.021.189-1.519-.57-3.227-.285-4.366.379-2.183 2.657-4.081 3.036-6.074.285-1.518.57-4.65-1.044-4.935 2.942-9.87 2.752-20.973 4.46-31.318.474-3.131 1.803-6.358 2.277-9.3 1.803-10.629 1.898-20.689 4.365-31.413 1.233-5.125.664-4.65.949-9.49.095-2.658 1.328-8.352 1.708-11.578.664-4.65 3.89-6.644-1.139-11.104-1.139-.95-2.657-.285-1.992-1.898l-.57-.57s0 .76-.664 1.044c-3.036 1.234-10.532 0-14.233 0-2.277 0-4.554 1.14-7.021.475-1.044-.285-1.708-1.993-3.416-2.088-1.613-.095-2.941 1.139-4.365 1.329-5.977 1.044-6.641-.285-11.196-.665-3.321-.284-7.306 1.234-10.912-1.233l-.284.949zM46.671 59.291s.38 1.992.664 2.372c2.088 3.322 4.745-2.847-.664-2.372m-26.757 9.68c-1.234-2.088-2.467-3.132-5.124-3.037l-.854 2.183c-.76.474-1.423-2.183-2.467-1.14-1.233 1.33 1.518 2.088 1.613 2.183.38.57-1.139 1.614-1.044 2.373s2.752 3.511 2.657 5.125c.664.474 4.365 0 5.219-.285.38-.19.569-2.278 1.992-2.467.475-1.044-.948-.665-1.138-1.14-.19-.948.19-2.087 0-3.131 0-.38-.665-.38-.854-.664m335.795 2.467c-1.518-2.373-4.08-2.373-6.641-2.183-.095 1.424-.095.95.854 1.044 1.992.38 3.795.854 5.787 1.14m264.253-2.088c-2.087-1.233-2.751 3.322-2.562 4.745l1.803.665 2.562-3.037-1.708-2.373zM44.963 74.19c-5.313-4.08-6.642 1.993-.284 1.14zm428.024 53.431c1.233-2.563-.19-4.84 0-7.403.094-1.518.948-2.847 1.138-4.46.949-8.636-3.321-16.703-7.78-23.631-.854-1.234-9.773-9.206-11.292-10.155-3.985-2.657-6.736-2.562-10.911-3.986-3.226-1.044-5.314-3.226-8.73-2.752-1.233.19-2.277.95-3.416 1.044-1.897 0-5.028-1.139-7.021-.949-1.708.19-3.985 1.898-5.883 2.373-1.803.474-3.416.19-5.313.759-6.358 1.993-18.977 12.527-22.867 17.937-.38.474-4.08 10.154-4.365 11.103-.569 2.563-1.234 7.972-1.423 10.724-.38 5.884 3.89 19.74 7.306 24.675 2.182 3.132 11.955 7.877 15.75 9.585 12.43 5.505 19.167 5.22 32.546 3.701 2.467-.284 6.831-1.328 9.014-2.562 1.613-.949 9.583-7.023 10.912-8.351 4.269-4.271 7.116-11.673 11.291-16.229l-1.139-.569.57-1.424zm147.639-51.817h-1.613c0 1.898-.474 3.796 1.424 4.935l1.328-.855c.475-1.138-1.328-.759-1.613-1.708-.19-.664.759-2.183.569-2.372zm3.701 6.738c-1.044-1.234-7.78-.38-9.394 0-1.992.474-3.7 1.708-5.693 1.993-4.175.57-9.298-.285-13.663.095s-7.875 2.088-11.386 2.942c-3.226.854-6.452 2.182-9.773 2.942-4.555.949-11.576 1.138-15.656 2.467-4.554 1.424-6.452 6.264-6.927 10.724-.379 3.891 1.519 8.067 1.519 11.388 0 2.848-.949 6.833-.76 9.965.095 2.278 1.234 4.176 1.329 6.074.19 2.752-.949 5.694-.569 8.826.664 5.979 2.087 13.856 2.277 19.835 0 3.132-1.613 5.884-1.613 8.256 0 6.928 3.226 16.798 2.562 24.201-.19 1.613-1.139 3.226-1.044 5.029 0 2.658 2.277 5.789 2.277 8.826 0 1.804-.949 2.753-1.139 4.366-.474 3.891 0 14.235 0 18.791 0 3.416 1.519 7.307 1.708 10.439s-1.233 5.22-1.138 7.687c.19 3.986 3.226 6.169 2.087 11.483-.284 1.519-1.613 2.278-1.613 4.556 0 2.372 1.708 3.511 1.708 5.504 0 1.234-.569 2.468-.569 3.796 0 12.812 1.898 25.814 1.708 38.626 0 2.183-1.234 4.27-1.234 6.643 0 5.504 2.277 11.958 2.277 17.652 0 4.46-1.138 10.249-.948 14.9.095 3.321 1.613 6.548 1.708 9.68s-1.139 6.263-.854 9.68c.284 3.416 2.656 7.877 2.751 10.534.095 2.373-2.277 6.738-2.182 9.87.095 4.366 2.467 13.002 2.182 17.083-.189 2.657-2.846 5.314-1.044 8.636-2.277-.38-2.372 1.044-.284 1.708l.854-1.139c0 1.424.474 2.752.569 4.081.095 1.993.664 14.425.38 15.564-.38 1.613-1.803 2.468-2.183 3.606-.379.949.285 2.088-.379 3.132l3.321-.569-.57-4.935c3.891 3.416 7.401.664 11.292 0 2.182-.285 4.459.284 6.547-.285l3.036 2.468c-2.372-4.461 5.029-3.417 8.35-3.986 6.072-1.044 11.765-2.563 17.933-3.417.664 0 2.087.38 2.277.19.569-.57-1.328-1.234 2.467-2.278 1.803-.474 9.583-2.088 11.102-2.183 7.211-.189 6.642-.474 13.378-1.993 5.124-1.233 10.532-1.613 15.656-2.467 3.701-.664 6.168-3.227 10.627-.474l.475-1.044c2.562 1.898 2.751-1.329 4.175-1.424.664 0 1.233.759 2.182.664 3.226 0 6.262-2.372 9.204-2.562 1.423-.095 2.467.474 3.605.38 2.847-.19 8.16-3.891 12.43-4.176 3.321-.285 6.263 1.613 8.824-2.657 2.657-4.461 2.088-11.389 1.708-16.324-.095-1.518-1.043-3.037-1.043-4.555 0-3.511 1.423-7.877 1.138-11.578-.379-4.935-3.226-11.104-3.226-16.039 0-1.898 1.423-4.365 1.613-6.548.38-4.461-1.518-8.162-1.423-12.148 0-3.132 3.036-6.263-.285-8.826-2.372-1.803-11.101-1.803-13.948-1.328-1.708.284-3.226 1.708-5.123 1.993-2.373.379-3.986-.285-5.883-.19-4.175.19-9.963 2.183-14.043 2.942-5.978 1.139-25.809 5.884-30.363 4.27-4.555-1.613-2.088-2.942-2.182-6.073 0-1.519-1.139-2.847-1.139-4.366 0-2.088 1.423-3.891 1.139-6.643-.19-1.803-1.803-3.417-2.088-5.03-.474-2.657.38-4.176.474-6.453 0-5.315-.474-9.111.76-14.046 1.138-4.46-1.708-11.199-1.993-16.798-.19-3.891-1.044-7.402-1.044-10.439 0-1.803.949-3.322 1.044-4.935 0-3.037-1.708-7.972-1.803-11.578 0-2.847.759-6.074.854-8.826 0-2.563-.759-5.22-.569-8.257.19-2.467 1.708-3.321 0-6.074l1.138.285c.38-5.789-.474-11.483-1.233-17.177-.285-2.088-1.328-4.461-1.518-6.738-.57-6.359 1.423-13.477.949-19.835-.285-5.03-2.657-10.914-2.657-16.039 0-2.657 1.803-5.124.569-7.687l1.139-.569c-1.518-3.037-1.424-6.359 0-9.396l-1.613-1.898s1.803 1.519 1.708-.284c-.19-2.373-2.467-5.884-2.752-8.826-.759-6.833.38-11.863.569-18.222 0-2.752-1.233-5.789-1.138-8.256 0-1.614 1.138-3.417 1.138-5.03 0-1.898-1.423-3.986-1.613-6.074-.379-3.416.759-6.264.854-9.395 0-2.088-1.328-15.85-2.087-16.703zm-587.619 4.27c1.044-1.044-3.51-3.89-4.08-1.138l-1.423-.475.854 2.752c1.803-.284 2.847-1.898 4.65-1.139m305.243 2.753-.284-4.366-3.037.57c-.095 1.043 1.993.854 2.183 1.138.095.19-2.942 2.847 1.138 2.752zm590.94-1.519-2.657-.38-1.044 3.037 3.321-1.138-.284 1.613c1.043-.95 1.518-1.993.759-3.227zm-882.899 5.41.285-2.183c-.475.57-1.803.474-2.278 1.044-1.423 1.993.95 1.613 1.613 2.183.475.38.095 1.233.665 1.708.284.285 2.751 1.234 2.941 1.044-.474-2.183-.474-2.942.57-4.935l-3.89 1.139zm879.293 2.942s3.511-2.563 1.139-2.373c-.285 0-4.839 3.227-4.175 3.796 2.182.57 2.087-.76 2.941-1.423zm-891.06-1.804c-2.562 1.33.665 5.03 2.373 4.081 2.656-1.613-.38-4.745-2.373-4.08m-13.094 11.009s.19 2.373 1.424 2.752c2.087-1.708-.475-3.321-1.898-4.175l-1.708 1.138c.57 1.424 1.898 0 2.182.285m25.05 7.497s-.285-.949-.19-1.423c-1.898.569-2.087 1.518-2.182 3.322h3.32c.475-1.614-.663-1.424-.948-1.804zm467.969-.854c-1.138-1.613-4.744.854-2.182 2.468 1.803 1.139 2.847-1.519 2.182-2.468M30.636 170.042l-4.934-.569c0 2.657 4.839 3.321 4.934.569m354.393 223.497c3.036 1.423 12.24-1.898 14.991-2.088 3.132-.19 10.438 1.044 14.328 1.139 6.452.095 12.809-.949 19.261-.57 6.073-.949 5.409-14.33 5.883-18.98.38-4.176.285-7.023.57-11.009.474-6.074 3.415-12.812 4.269-18.886.76-5.314 0-12.147.665-16.987.379-2.468 1.992-4.556 2.372-7.972 1.233-10.914.759-22.302 2.657-33.311 1.897-11.009 4.459-23.536 5.408-34.83.285-3.226-.285-6.643 0-9.869.474-4.366 3.036-9.396 3.226-13.856.19-4.081-.474-8.826 0-13.097.38-2.847 2.182-5.03 2.562-7.402.664-4.271 1.138-9.301 1.708-13.666.284-1.804.569-8.637 0-10.25-2.657-6.548-10.722-3.132-15.561-3.132-4.46 0-9.678-2.372-14.328-1.708-1.044.19-.759 1.139-1.138 1.139-3.037 0-4.84.949-7.117.949-1.708 0-3.605-.949-5.503-1.044-8.54-.285-17.079.475-25.334.569-5.788 0-10.722-1.708-11.576 5.505-.474 3.796-.38 7.972-1.044 12.147-1.518 9.965-5.124 21.543-5.313 31.603 0 3.037.854 5.884.569 8.826-.474 3.417-3.416 7.592-3.606 10.629-.284 5.125 0 11.958-.474 16.988-.474 4.365-3.226 11.009-3.606 15.943-.284 3.227.949 5.979.949 9.016 0 3.417-2.467 7.213-2.941 11.009-.19 1.708.284 4.176.095 6.169-1.613 16.797-4.175 31.697-4.744 48.78-.285 8.731-5.029 19.929-5.124 28.66 0 1.519.759 7.593 1.992 8.162 1.044.475 5.504 1.329 6.832 1.424 7.591.664 11.196-3.702 19.072-.095zM43.539 185.132c.57-.57 2.278-.949 1.993-2.088-.19-1.044-2.087-.569-2.561-.095-.665.569-1.518 3.891-2.942 4.84 2.088.38 2.467-1.423 3.51-2.562zm875.689 1.993-1.613.854 2.182 2.752 2.751-.854-.284-1.139-2.467.57zm-7.686 28.091c-1.044-.664-.949.19-1.139.759-.759 1.803-.569 3.417 1.708 3.607-.095-1.044 0-1.709 1.044-1.709v-1.044c-2.562.855-1.423-1.518-1.613-1.613m-203.337 12.717c-2.372-.285-.57 2.657 1.044 2.278v1.518c1.897 0 3.795-.759 3.415-2.752h-4.08l-.284-1.139zM43.35 235.62h-2.467l-.285 2.183-.569-1.613c-1.708.569-1.898.854-1.613 2.752l4.46-.19.57-3.037zm874.739 24.77c-2.657-.475-2.752 1.234-3.795 3.037l2.751.284-1.138-1.043c1.613.284 2.182-.665 2.182-2.183zm-592.743 14.9c-1.423-.19-.854 0-1.138.854-.569 1.898-.949 3.891 1.708 4.175.664-1.898-.38-3.131-.57-4.934zm-.474 19.834-3.321-.569.569 2.183s-3.321-.095-2.751 1.613c2.277.38 5.123-.759 5.503-3.322zm150.012 15.28c-.569-.38-.474-1.709-1.518-1.519s-.854 1.614-.285 2.373c1.234 1.803 5.219 1.708 3.321-.38-.379-.474-1.138-.19-1.518-.474m-156.085 14.425 4.365-3.037c-2.087-1.993-4.554.759-4.365 3.037m11.007 10.534-6.642.854.854 1.329c1.044-.759 2.372 0 3.131-.19.475 0 3.037-.949 2.562-1.993zm389.975 2.183-3.321-.569v2.752c1.423.664 4.459-.76 3.321-2.183m99.723 2.752c-.095.949-.285 4.176 1.329 3.891 1.613-1.328 1.138-4.365-1.329-3.891m11.007 14.331c-3.606-.57-2.942 2.562-3.891 4.934l1.614-.379c0-.57 0-1.234.379-1.803.759-1.424 1.898-1.424 1.898-2.752m2.182 13.76c1.328 1.139 4.27-3.416 2.467-3.891l-2.752 1.139zm-511.142 0c1.803-.189 3.226 1.044 4.365-.854-2.088-2.088-4.175-2.847-4.365.854m20.305-.474-4.364-1.139c-.475 2.562 2.562 2.752 4.364 2.752zm128.379 2.657-1.613.38c.19 1.328 0 1.613-1.139 2.088l.854 1.328 2.942-1.328-1.613-.285zm-.759 9.206c4.554-5.694-2.372-3.037-2.562-2.183a3.41 3.41 0 0 0 1.423 3.511c.19-.664.759-.854 1.139-1.328m267.384.19c-1.708-1.804-2.183 5.124 1.423 4.935 1.518-.95-.379-1.804-.949-2.942-.379-.57-.379-1.329-.379-2.088zm-386.654 3.321c.19-1.708-1.423-1.803-2.751-1.613-.665 2.752 1.043 2.752 2.182 4.65-3.226 1.234 1.044 5.315 1.518 1.519.19-1.709 0-3.892-1.993-3.986l1.139-.57zm373.465 15.374c.095 1.804-2.847 3.037-.854 4.366 2.467.664 3.89-4.366.854-4.366m-372.421 3.891c-1.423.475-2.657-1.043-3.606-1.138-2.182-.285-2.656 1.993-.474 2.277.569 0 3.795-.284 4.08-1.139m120.693-.569c-1.518-1.234-3.701 3.701-3.89 4.935 6.167 1.044 2.561-1.993 2.751-3.606 0-.19 2.183-.475 1.139-1.424zm268.807 7.213c-.474-2.563.38-4.745-1.898-6.644l-.569 2.183 2.467 4.366zm-385.61 9.87c.569-2.088-1.138-2.658-1.898-3.891-1.233-2.183-1.518-5.6-4.744-4.366l1.139 1.898-1.044.285v1.044l2.657 1.423 3.89 3.512zm112.913-6.549c-2.752.095-4.46.76-3.891 3.891.664.76 3.416-3.321 3.891-3.891m-4.934 3.227-4.365-1.613-.475 3.037c1.329 1.898 1.708 0 2.657-.57.854-.38 2.277.095 2.183-.854m174.017 12.717-7.116 2.467c2.467 2.088 6.547.665 7.116-2.467m-570.065 8.826c2.372-3.606-4.65-2.847-4.934-1.898s1.423 1.423 1.898 1.423c.285 0 .285-1.803 1.708-1.138zm480.874 5.504c-2.846.57-4.744-1.898-7.116-2.752l.569 6.074c3.321 0-.569-2.657 1.423-3.322 1.044-.379.665.949 1.519 1.234 1.423.569 3.795.854 3.7-1.234zm-200.49 1.614c1.423-1.329-4.84-5.789-3.796-.57zm194.987 2.752c-.569.664 1.803 4.935 2.467 4.935 2.467.095-1.423-6.074-2.467-4.935m-194.513 12.147c2.846 1.424 5.219-.949 4.175-3.891-2.183-1.708-1.613 1.424-2.088 2.088-.474.759-2.562 0-2.087 1.803m2.752 3.322h-1.613l-1.139 6.643h1.613c.474-2.657 1.993-3.701 1.139-6.643m-108.548 4.271c1.803-3.132-3.036-4.556-4.744-1.709l.474 3.512s4.08-1.424 4.27-1.803m75.528 5.124c1.898-1.138 2.182-4.175 2.372-6.168 0-.475.664-2.088-.474-2.088-1.519 0-2.657 6.738-1.898 8.256m7.306-3.226c-.569.664-.569 2.277-2.372 2.847l.949 1.328c3.416.095 5.503-1.423 2.941-4.65-.285-.284-1.328.285-1.518.475m3.7 10.819v-3.796c-1.707.569-1.138 1.803-1.518 3.036l-2.277.285.854 1.613zm-80.367 6.168-3.321-4.175c-4.459-.095-.948.949-.189 1.613.948.854 1.233 3.037 3.51 2.562M91.836 505.05c-1.518-1.804-2.846 6.643-2.752 7.117 1.329 1.519 3.227-6.358 2.752-7.117m1014.694-35.874c.09.854-.19.475-.85.57-4.84.379-7.31-1.234-11.58-1.614-9.2-.854-19.45-.474-28.66-.569-2.37 0-2.94-1.424-3.32-1.518-.57-.19-3.6.284-4.08-.19v-1.614c-5.59 4.081-11.19.949-17.08.285-7.11-.759-14.89-.38-21.82-.854-9.87-.664-19.545.19-29.603-1.329-1.329-.189-3.226-1.233-3.985-1.233-1.519 0-3.796 1.993-4.839 1.898-.76-.095-2.278-1.709-3.321-2.183-4.555-1.993-7.876-.285-12.24-.38-6.737-.19-15.372-1.898-22.014-2.277-2.277-.095-5.693 1.803-7.401-.285-3.321-4.271-1.518-8.257-.569-12.907l1.613.57-.569-1.614-1.613.57c-.759-4.176 1.138-7.593 1.518-11.484.664-6.453.379-12.717 0-19.075-.285-5.979 1.613-10.25 1.708-14.9 0-1.613-.759-3.322-.854-4.935-.285-7.497 2.846-13.286 2.752-20.879 0-2.752-1.424-7.022-1.329-8.826 0-1.613 2.657-5.124 2.752-7.687 0-1.898-1.139-2.847-1.139-4.365 0-1.424 1.044-2.657 1.139-3.891 0-1.519-.949-3.037-1.044-4.461-.379-10.819 1.328-21.922 2.657-32.456.379-3.417-.19-12.053.759-14.71.379-1.044 1.423-1.519 1.992-2.278-.569-1.708-2.656-.664-2.751-.854-.095-.095-.475-3.037-.57-3.607-.474-7.212 2.183-17.177 3.227-24.295.379-2.372-1.044-8.351 2.277-7.972.284-.949-1.044-.189-1.139-.854 0-.379.475-1.044.475-1.613-.19-4.081.284-1.518.948-3.511.759-2.278 1.613-12.148 1.993-12.622.19-.19 1.328-.19 1.423-.855.285-1.233-1.233-5.694-.854-8.731.38-2.562 2.088-4.65 2.467-6.928.38-2.087 0-4.08.38-6.263.759-3.417 3.795-7.023 4.08-11.389.095-2.087-.854-3.511-.949-5.314-.285-4.271 2.467-7.877 3.606-11.768 2.467-8.541 3.415-17.937 4.839-26.668.284-1.613 1.328-3.132 1.423-5.03.19-2.182-.664-4.27-.474-5.884.284-2.562 2.941-7.782 3.605-11.293 1.139-6.074 2.562-10.534 3.796-16.134.474-2.277.189-5.409.948-7.877.57-2.087 2.657-4.46 2.942-6.453.379-2.847-1.613-7.782-.854-11.863.379-1.803 2.562-3.132 3.036-5.22.475-1.803 0-3.606.285-5.22.759-3.795 2.372-7.402 2.657-11.388l1.613.57c.664-1.424-1.044-1.803-1.044-1.898.19-4.176 3.416-8.636 3.226-13.002l3.89 1.139v-1.613l-3.89-.285c1.328-2.562 2.752-5.125 5.313-6.738 5.694 0 11.296.474 16.986.664 5.31.19 7.87.095 13.28.854 9.87 1.234 17.84.665 27.52 1.14 2.75.189 4.55 1.802 6.64 2.182 2.94.474 5.6-.76 8.26-.57 2.08.19 5.4 2.183 8.44 2.658 2.66.38 5.88.285 8.64.664l.28 1.708c.95 0 .47-1.044 1.52-1.518 3.13-1.614 6.45.664 9.58 1.044l-.57 2.183c1.05.284 1.61-.855 2.56-.95s3.8 1.044 5.98 1.044 4.27-1.138 6.07-1.138c1.05 0 .67 1.803 2.47 1.138l-1.14-1.043c4.94-.475 9.11 1.898 14.05 2.182 3.98.285 9.48.57 13.28.57 3.13 0 6.45-1.614 9.87-1.14 2.18.38 4.74 2.753 6.73 3.133 2.85.57 6.08-.475 8.92.664l-1.14 1.329c2.66 3.226 4.18-.19 5.22-.285 3.7-.475 11.1-.57 14.9-.57 3.23 0 7.88 1.33 11.01 1.14 3.6-.19 9.39-2.373 13.19-2.753 10.81-1.044 21.25.665 31.4.475 4.75 0 9.3-2.942 13.76.664 4.74 3.891 2.56 6.548 1.04 11.009-.38 1.139.38 3.037-1.32 2.752l1.7 1.423c-.28 3.702-1.89 7.023-2.65 10.535-.38 1.518 0 3.132-.29 4.745-.66 3.321-2.75 5.599-3.7 8.446-1.33 3.986-.66 8.541-1.61 12.527l-1.71.38c3.04 4.176-1.52 8.162-1.14 12.622h-2.18c4.65 4.84.28 8.636-.85 13.761-1.43 6.548-1.52 13.951-3.8 20.309l-3.13 17.652h-2.09c1.61 2.373.1 2.657 0 4.271-.28 5.884-1.04 7.118-2.09 12.242a252 252 0 0 0-2.94 18.506c-.57 4.651-2.94 11.673-3.98 16.988-.48 2.562-1.71 5.03-1.52 7.308l-1.14-.285c2.28 4.935-1.42 8.067-2.09 11.958-.57 3.416-.19 7.782-.85 11.293-.66 3.701-2.85 7.687-3.61 11.294-1.32 6.263-1.8 13.571-3.22 19.929-.95 4.176-4.18 11.483-4.46 14.805-.29 2.373 1.9 6.833-1.71 7.877l1.04.759c-1.32 2.468-1.89 5.22-1.61 7.972-.66.285-.57-2.373-1.61-1.139-.76.854.28 2.183 1.61 1.708.19 3.891-2.47 7.593-2.66 11.389-.38 7.023-1.32 8.636-2.84 15.279-1.99 8.636-2.94 17.652-5.13 26.193-.85 3.417-3.7 9.491-4.08 12.528-.19 1.708.67 3.036.29 5.219-.38 2.563-3.13 5.789-4.18 8.541-1.42 3.986-1.61 9.206-2.84 13.097-1.24 3.891-4.65 9.111-5.98 13.381-1.9 6.359-3.23 21.259-5.69 25.719-.57 1.139-1.9 2.183-2.38 3.132-1.42 3.416.19 3.986-4.27 6.169-4.45 2.182-9.86 1.803-14.32.284l.85-1.613-2.75 2.183-.57-1.614c-1.14-.189-.95 1.424-1.8 1.709-4.56 1.233-13.95-.38-18.22-2.468-.47-.19-1.42-2.657-2.37-.285l1.14.57c-3.61-.664-6.65.664-10.25.569-1.52 0-3.61-.379-5.22-.569l-.57-3.606-3.32-.285c-1.23 4.081.95 3.416 3.79 3.796zm105.13-401.629c-3.13-.57-2.09 3.322-1.61 5.504l6.07-1.138-.57-1.898-3.89-.285zm34.16 3.891c-1.42-.76-1.99.38-3.04.475-1.33.19-3.51-.57-4.08 1.138 2.28.855 3.89-.284 6.08 1.14l1.13-2.753zm-159.12 8.257c-.29 3.321 5.79.664 5.5-.854l-2.47-.855-1.13 2.088-1.9-.474zm-65-1.14s-4.55 2.278-3.89 3.322c1.81-.854 1.33 1.993 3.89 1.14l-1.52-1.899c-.19-1.139 2.47-1.613 1.52-2.467zm137.11 2.278c-.47-3.226-5.41-2.562-4.93.57zm-104.66-1.138c-2.56-.285-4.84-.19-7.4 0-.85 0-2.18-.57-1.9.759 1.62 1.518 5.41.76 7.41.285.75-.19 1.7 0 1.89-1.14zm7.21 1.613c-3.13-.285-3.79 2.088-1.89 4.365zm46.78 5.03h-1.61l.57 2.467-2.18.285 2.46 3.322 2.47-2.183-1.71-3.796zm31.41 19.835c-1.99-.38-3.89.379-5.79.569-1.14.095-2.85-1.518-2.47.569l3.51.475zm-82.65 4.935c-2.84-.665-6.07-.285-9.01-.57-11.77-1.423-23.44-3.132-35.3-3.796-2.46-.095-16.222-.38-17.265.664-.57 1.424-1.044 3.702-1.139 5.22 0 6.358 1.044 12.812 1.708 18.886.759 6.548 2.087 13.096 3.036 19.645.57 4.365-.854 9.11-.474 12.052.379 2.468 2.374 6.549 2.754 9.965.85 8.257 1.9 16.513 2.56 24.58.76 10.06 3.42 15.564 2.09 26.193-.48 3.701 1.99 5.22 2.46 8.257 1.52 9.015-.19 17.747.76 26.288.29 2.562 1.81 5.409 2.09 7.782.76 5.979 1.14 11.958 2.09 17.747s1.8 11.008 2.84 16.418c.29 1.613 0 7.972-.47 9.68 0 .19-1.71 1.708-2.28 3.891-1.42 5.789-2.46 11.863-3.89 17.557-.85 3.322-1.8 9.206-2.84 11.958-.67 1.613-2.66 2.562-2.95 3.701-.66 2.278-.56 5.694-1.32 8.541-2.19 7.593-6.741 14.995-8.449 22.397-.569 2.468-.379 5.6-.948 7.877-1.898 8.257-7.591 16.134-9.679 24.485-1.233 4.84-1.233 10.25-2.372 15.28 2.278 8.161 6.832 4.27 11.861 4.46 1.803 0 4.175 1.613 6.072 1.898 3.225.475 7.025-.19 10.435 0 3.42.19 7.4 1.519 10.44 1.708 2.66.095 4.93-.664 7.69-.569 2.37.095 5.12 1.234 7.49 1.424 3.13.189 10.34 0 13.48-.285.85 0 1.61-.19 2.27-.759.86-.76 3.89-11.768 4.56-13.951 2.37-7.687 3.98-14.71 7.21-22.018 3.22-7.307 3.32-13.666 5.22-20.688.38-1.519 4.46-7.118 5.12-9.206 1.14-4.081 1.33-10.629 3.04-14.71 1.04-2.467 3.13-3.322 3.22-5.884h2.75l-2.18-.569v-3.512c.29-2.372 6.64-22.776 7.69-24.2.38-.475 1.04-.38 1.04-.38.76-1.233-1.04-.759-1.14-1.898-.47-4.365 4.56-5.219 6.93-8.636 1.8-2.657 2.56-6.548 4.46-9.3 5.69-7.972 11.86-13.951 17.65-22.587 4.93-7.308 10.81-13.856 16.03-20.879 2.37-3.227 3.42-5.125 5.51-8.256 1.32-1.993 4.27-3.797 5.78-5.79 2.19-3.036 3.32-5.789 6.08-9.395 5.69-7.592 11.48-14.615 16.89-22.302.66-.949 1.99-1.708 2.46-2.562.48-.665 0-1.329 0-1.329.38-.285 1.62.285 2.47-.57.28-.284 1.99-5.314 2.75-6.643 2.66-5.03 7.12-7.972 10.53-12.337 1.14-1.519 1.33-1.139 1.9-1.803.76-.854 1.42-4.176 2.47-5.694 1.99-2.848 6.36-6.359 8.54-9.111 3.41-4.461 4.36-10.06 10.44-12.717l-1.62-.57c.67-1.044 2.18-.474 2.85-1.138.28-.38.57-1.804 1.14-2.563 3.79-5.219 6.17-9.68 10.06-14.71.47-.664 5.02-8.636 5.12-9.205 1.33-6.074-4.18-3.227-6.74-3.512-1.42-.095-3.22-1.708-5.03-2.183-5.5-1.328-11.76-.664-16.98-1.138-.38 0 0-1.044-1.14-1.139-1.99-.285-3.89.569-5.5.569-2.94-.095-6.46-1.423-9.49-1.613-3.23-.285-7.69.759-10.44.569-3.13-.189-8.06-2.182-11.57-2.277-4.75-.095-4.37 1.993-7.12 3.891-1.14.759-2.56.949-3.8 1.708-2.84 1.898-4.55 8.541-6.54 11.673-5.32 8.446-12.05 15.849-16.89 24.39-1.81 3.227-2.85 8.162-6.55 10.06-1.23.664-2.94-.475-3.51.854-.57 1.423 1.14 1.423 1.14 1.613 0 1.519-3.04 5.599-4.94 4.081.57 3.322-2.37 4.84-3.98 7.308-4.08 6.548-5.6 13.096-11.2 19.644-1.61 1.899-3.79 2.373-4.93 3.892-3.04 3.701-4.84 9.869-9.11 14.52-1.42 1.518-5.12 5.884-6.36 1.993-.47-1.519-1.14-6.644-1.33-8.542-.75-6.263.67-12.812.1-18.316-.57-5.03.47-10.155-.19-14.71-.57-3.986-2.56-5.979-2.09-11.009.76-7.877-.66-12.432-1.14-19.929-.47-7.498.76-15.849.57-23.726-.09-4.081-1.52-8.257-.57-12.527l1.14-.854c-4.27-1.519-8.54-3.796-13.19-3.322l.57-2.183-1.61.38v1.803zm170.61.664s-1.62-.854-2-.664l-1.13 3.226c1.51 1.044 4.93-.949 3.13-2.562M1101.5 128.19c0 1.708 1.52 5.41 3.61 4.935.94-.19.66-.664.28-1.329-.47-.759-2.66-4.745-3.89-3.606m-12.62 25.909c-3.13.759-6.64.569-8.25 3.891 2.75-.57 6.26-1.709 8.25-3.891m134.93 4.935-1.14.284c.09 1.234 1.42 5.03 3.03 4.65 2.66-.569-2.27-3.796-1.89-4.934m-145.37 37.486c.57.759 3.61 0 3.32-1.328-.56-2.278-4.93-1.044-3.32 1.328m-.57 2.183h-2.75c-.19 2.847 3.04 3.227 2.18 6.643 2.66.19.19-3.416.1-4.27-.1-.855.38-1.519.47-2.373m138.82 6.074c1.14.379 1.9-.854 2.56-.949.67-.095 1.05.759 1.9.759s4.08-1.139 3.79-2.183l-2.18-1.898.57 2.183c-2.56.949-4.93-.759-6.64 2.183zm-48.11 184.871s-1.04.569-1.42 1.044l.85 1.328 2.76-1.044-1.14-2.182c-1.14-.285-.67.569-1.05.854m-71.44 5.219c0-2.372-2.28-1.328-3.52-1.708-1.13-.285-1.8-1.234-3.03-1.044.19 3.037 4.36 1.519 6.64 2.752zm-13.29 15.47c-2.56-.665-3.89.664-3.79 3.226 2.65-.569 2.84.665 4.36 2.183zm20.4 8.731c-1.71.569-3.22-2.468-4.36-.855.38 2.753 3.79 3.891 4.36.855m-33.02 2.752c2.94.19 6.07 1.613 6.64-2.468l-3.32-.854.57 2.183s-4.27-1.424-3.89 1.139m-1.61-2.183c-2.28.475-5.41-.759-6.64 1.613 2.18-.095 5.31.665 6.64-1.613m-3.7 9.585c.95-.569 3.51-1.044 1.71-2.467-.76.854-5.03 3.796-5.79 3.321l-.29-1.613-.66 1.898c1.14 1.993 3.89-.474 5.03-1.139m68.13-.759c-.48-1.613-2.47-.475-3.89-1.139.19 1.993 1.32 3.417 3.32 2.468 1.7-.76-1.05-.76-.57-1.424h1.14zm23.72 6.643 2.75-1.898-4.94-2.467c.29 2.087 2.95 1.708 2.19 4.365m-171.364 12.053-2.752-2.183c.19.569.474.949.285 1.708-.285 1.329-1.613.665-1.424 1.898l2.752.854-1.139 2.183c2.562-.284 2.752-4.84 5.504-2.183 1.138-2.087-3.891-3.226-2.183-1.138l-2.182.569c-.095-1.139-.19-1.708 1.139-1.613zm64.994 1.708c-2.56 1.139-3.41-1.708-6.07-1.613 0 2.847 1.99 3.606 4.36 2.752v1.613h1.62v-2.752zm24.77-1.708c-.95-1.044-.86-.19-.95.664-.38 2.373-.1 3.796-2.85 4.556.38 1.328 1.61 1.518 2.18 2.182.48.57.38 1.614.67 1.803.38.285 3.6 1.234 2.65-.664-.47-1.044-1.7-2.657-1.61-3.891 0-.854 1.04-1.329.95-2.088 0-.569-1.33-1.518-1.04-2.562m75.9 1.803c.38.664 0 3.796 2.09 3.701s0-4.555-1.71-4.935c-2.65.949-.47 1.044-.38 1.139zm-114.52 5.884-1.43-2.088-2.27 1.139 1.04 3.227c2.18-.285 1.33-2.088 2.66-2.278m12.71 2.847 1.14-4.935-2.75.57c-.47.474.38 4.175 1.61 4.365m-73.912-2.657c-.759-.759-1.993-.949-2.562.095 1.233.949 1.898 1.993 1.613 3.606 2.562.759 2.277-2.467.949-3.701m92.132-.095-1.61 2.752-1.05-1.139-1.13 2.183 3.79-.664v-3.227zm39 5.409c.47-.759-.29-4.555-1.52-4.84l.57 2.752h-1.8l-.38 1.614 2.18-.57-.57 1.614 1.52-.665zm-64.33-2.657 1.51 2.088 3.42-1.329c-1.33-1.993-3.04-1.139-4.93-.854zm54.65 3.796s.28-3.037-1.71-2.657c.38 1.803 1.14 3.511 0 5.314 0 .19 2.18.285.76 1.329l-2.09-1.518-.95.379v-1.518l-2.75-1.234-2.18 5.504c1.52-.664 1.42-2.752 3.51-2.562 1.61 1.424 4.65 1.803 5.31 3.701l.86-1.139 2.47 1.139c-.1-2.942-4.37-.949-3.23-4.081.19-.569 4.08-2.277 0-2.562z"/><path d="m205.413 320.368.948.38c-1.992 3.701-.094 8.921 0 13.192.095 5.504.285 10.629.475 16.038 0 1.424-.475 10.25-.759 10.724-.19.38-.949.475-1.329.57l1.044 2.467c-.949 1.613-2.182-.19-3.321.57 0 1.992 2.752 1.043 3.226 1.423.19.19 1.139 4.176 1.139 4.745.095 1.424-.285 6.643-.569 8.162-.285 1.993-2.467 3.986-4.365 4.46-.949.285-1.803-.284-2.088-.189-3.51 1.613-5.123.949-9.014 1.613s-8.349 2.752-11.765 3.132c-3.226.284-6.832-.854-10.438-.475-2.277.19-4.459 1.329-6.547 1.139-1.613-.095-2.941-1.424-4.649-1.139.664-1.803-1.044-3.227-1.138-5.22 0-3.226 1.613-6.358 1.138-10.534-.285-1.993-1.518-2.657-1.708-4.365-.569-4.556-.569-14.52-.569-19.266 0-3.796 1.518-8.826 1.518-12.622 0-3.511-1.993-7.497-1.898-10.534 0-2.372 1.329-3.986 1.519-7.118 0-.379 1.043-.095 1.138-1.138.664-5.6-1.044-15.28-1.613-21.069-.474-4.271.095-13.476 3.036-16.703 2.657-2.942 4.65-1.139 7.496-1.234 2.657-.094 5.693-1.898 8.445-2.087 2.941-.19 4.839 1.044 7.116 1.044 3.796 0 10.153-2.942 14.897-3.227 11.671-.759 7.591 1.518 7.97 9.111.19 3.036 1.424 6.643 1.708 9.869.38 5.884-.949 11.579-.854 17.368 0 3.891 1.519 6.928-.095 10.913zm-13.853 6.169c-.095-1.518.569-3.321-.854-4.365l-1.424.949v3.511h2.183zm9.298 34.165h-2.182v1.614l-1.613-.57v1.614l3.89 1.138v-3.891zm3.321-239.725-1.139 2.183h1.519c1.423 1.234.189 10.534.379 12.622s1.423 4.176 1.423 6.359c0 2.562-1.423 5.314-1.138 8.256.19 2.373 1.423 4.366 1.423 6.644 0 3.036-1.708 5.978-1.992 8.826-.57 5.409.664 13.855.569 19.834 0 2.942-.664 6.074-.569 9.396 0 2.562 1.233 2.847-.19 5.789-2.657 5.504-7.022 2.942-11.576 3.321-4.934.285-10.817 2.658-15.466 3.227-3.321.38-6.073-.569-8.73-.474-1.802 0-3.51 1.423-5.029 1.518-2.087.095-4.08-1.424-6.167-.949-2.087-4.555-2.562-9.016-2.277-13.951.284-4.176.474-3.891 0-8.351-.38-3.607.949-5.125 1.044-7.687 0-1.804-1.044-3.512-1.044-4.935 0-1.234 1.044-2.278.949-3.702-.095-1.328-1.424-2.657-1.424-3.985 0-1.139.759-2.753.854-4.081.57-10.06-2.277-20.404-1.423-30.085.095-1.233 1.328-2.372.569-4.08 6.832-1.898 13.569-2.468 20.59-2.563 1.993 0 5.314.949 7.117.665 2.751-.38 4.364-2.753 6.736-3.037 3.606-.57 8.16.474 11.576.284.759 0 2.183-1.423 3.606-.854z"/></g><defs><clipPath id="a"><path fill="#fff" d="M.937.356h1251.43V519.38H.937z"/></clipPath></defs></svg>