<svg xmlns="http://www.w3.org/2000/svg" width="1051" height="528" fill="none"><g fill="#fff" clip-path="url(#a)"><path d="M374.706 475.771h-68.068l-15.371-87.781h-70.813l-15.37 87.781h-41.171v-24.689h14.273l70.813-400.498h40.073l71.362 400.498h14.272zM286.327 363.85l-30.741-176.658-30.191 176.658zm263.491 111.921H387.881v-24.689h15.37V76.918h-15.37V52.229h89.477v24.689H460.89v374.164h53.247l10.979-66.932h24.702zm110.337 0h-88.379v-24.689h15.37V76.918h-15.37V52.229h88.379v24.689h-14.821v374.164h14.821zM1051 264c0 183.79-48.31 216.16-94.967 216.16-46.66 0-94.417-32.37-94.417-216.16s47.757-216.16 94.417-216.16C1002.69 47.84 1051 80.21 1051 264m-63.128 0c0-166.234-31.839-191.471-31.839-191.471S924.744 97.766 924.744 264s31.289 191.471 31.289 191.471S987.872 430.234 987.872 264M844.598 53.875s-15.919-4.389-31.838-4.389c-43.915 0-116.375 16.46-116.375 213.417s72.46 215.611 118.022 215.611c16.468 0 30.191-3.841 30.191-3.841v-24.139c-4.94 1.097-11.527 2.743-18.663 2.743-28.545 0-66.422-23.043-66.422-190.374 0-59.142 5.709-101.716 12.406-131.452 9.222-48.937 21.628-58.922 21.628-58.922s8.564 6.803 16.907 36.758h34.254V53.875z"/><path d="M81.682 358.364s-3.952-61.007-3.952-95.79c0-178.195 37.108-231.522 60.054-231.522 1.976 0 5.379 0 6.807.659l7.465 41.915h30.412V5.376S162.925 0 143.273 0C89.148 0 0 20.3 0 262.683 0 505.067 89.148 528 145.249 528c20.311 0 37.109-4.718 37.109-4.718C83 499.581 82.231 369.776 81.572 358.474z"/></g><defs><clipPath id="a"><path fill="#fff" d="M0 0h1051v528H0z"/></clipPath></defs></svg>