<svg xmlns="http://www.w3.org/2000/svg" width="1502" height="386" fill="none"><g fill="#fff" clip-path="url(#a)"><path d="M157.515 98.935c0-7.945 0-13.387-.217-16.435-.218-2.612-1.198-3.81-2.722-3.81-1.742 0-2.612 1.198-2.83 3.81-.218 3.048-.218 8.49-.218 16.435z"/><path d="M97.209 0C43.543 0 0 43.536 0 97.193c0 53.658 43.543 97.194 97.209 97.194s97.209-43.536 97.209-97.194C194.418 43.536 150.875 0 97.208 0M76.526 89.792h-1.742c-2.83-8.924-7.837-19.917-11.43-24.706-1.088-1.415-1.741-1.85-3.81-1.85v60.841H33.747V63.236c-2.069 0-2.83.435-3.81 1.85-3.593 4.789-8.709 15.782-11.43 24.706h-1.742V61.385h59.98v28.407zm49.965 34.285h-19.376V85.33c0-1.742-1.307-3.047-3.157-3.047s-3.157 1.305-3.157 3.047v38.747H81.425V61.385H100.8v20.353c2.177-2.285 5.878-4.571 11.865-4.571 5.117 0 9.362 2.286 11.757 6.095 1.524 2.394 2.068 5.333 2.068 8.49zm28.085 1.415c-12.954 0-23.622-10.884-23.622-24.163s10.668-24.162 23.622-24.162 23.513 10.013 23.513 23.4h-26.452c0 6.64.218 10.34 2.177 13.497s5.552 5.659 9.471 5.659c7.837 0 11.865-6.857 13.28-12.625h1.633c-2.177 10.34-9.906 18.394-23.513 18.394zM367.39 68.133c-4.136-14.475-10.015-25.794-17.417-33.849-9.035-9.904-20.356-14.91-33.745-14.91h-71.845l-2.831 2.067-1.524 5.116 2.831 3.81h13.062l-78.594 340.557h-13.934l-2.83 2.068-1.524 5.116 2.83 3.809h82.078c52.795 0 84.69-53.549 102.107-98.391 20.139-51.698 29.283-112.757 29.283-147.586 0-26.883-2.613-49.74-7.838-67.807zm-32.221-10.666c0 5.986-.98 13.496-2.939 21.768l-59.109 255.772c-3.919 16.544-15.567 35.917-35.27 35.917h-.326L316.01 30.366h1.197c11.43 0 17.962 9.904 17.962 27.101m372.397 8.816c-6.096-33.849-17.526-51.046-33.854-51.046-24.602 0-50.727 33.197-68.253 60.95-23.731 37.768-44.413 86.419-52.904 123.751-5.661 25.142-8.709 53.331-8.709 79.67 0 29.387 3.81 54.637 10.886 73.14 8.273 21.441 20.792 32.761 36.358 32.761 11.648 0 24.057-5.878 37.011-17.306 11.539-10.231 23.404-25.142 34.29-43.1 21.662-35.482 38.426-79.888 44.74-118.853 3.701-21.114 5.66-43.644 5.66-65.194 0-30.04-1.741-55.182-5.334-74.773zM603.609 360.04c-2.069 9.905-6.205 14.911-12.41 14.911-2.286 0-6.423-1.088-8.926-4.136-1.851-2.394-2.395-5.551-1.524-9.469l75.873-319.987c3.048-13.06 11.647-15.02 16.437-15.02 2.395 0 4.136.653 5.225 2.068 2.068 2.612 2.068 7.728 1.089 11.537l-75.982 319.987zM539.492 66.283c-6.096-33.849-17.526-51.046-33.854-51.046-24.602 0-50.727 33.197-68.253 60.95-23.731 37.768-44.413 86.419-52.904 123.751-5.661 25.142-8.709 53.331-8.709 79.67 0 29.387 3.81 54.637 10.886 73.14 8.273 21.441 20.791 32.761 36.358 32.761 11.648 0 24.057-5.878 37.011-17.306 11.539-10.231 23.404-25.142 34.29-43.1 21.662-35.482 38.426-79.888 44.74-118.853 3.701-21.114 5.66-43.644 5.66-65.194 0-30.04-1.741-55.182-5.334-74.773zM435.534 360.04c-2.068 9.905-6.204 14.911-12.409 14.911-2.286 0-6.423-1.088-8.926-4.136-1.851-2.394-2.395-5.551-1.524-9.469l75.872-319.987c3.048-13.06 11.648-15.02 16.438-15.02 2.395 0 4.136.653 5.225 2.068 2.068 2.612 2.068 7.728 1.088 11.537l-75.981 319.987z"/><path d="m867.259 359.17-2.831 2.176c-1.306 4.898-16.219 7.946-21.118 7.946-1.85 0-2.503-.545-2.83-1.089-2.068-2.612-.544-9.687 0-12.408v-.217a1452 1452 0 0 1 10.341-36.679c8.273-28.081 14.261-48.433 14.261-74.011 0-15.999-5.334-31.781-15.458-45.712-7.293-10.122-16.655-18.612-27.105-24.598 46.264-6.53 78.812-42.556 78.812-89.14 0-17.087-6.205-33.086-17.417-44.95-13.172-13.931-32.44-21.223-55.844-21.223h-74.893l-2.939 2.394-.98 5.116 2.939 3.591h13.063l-78.594 340.558h-14.478l-2.939 2.395-.98 5.115 2.939 3.592h87.194l2.939-2.395.98-5.115-2.939-3.592h-12.518l44.957-195.257h7.185q7.674 3.428 11.43 12.407c2.612 6.313 3.048 12.843 3.048 16.217 0 15.673-4.463 32.326-9.144 49.849-5.008 18.72-10.233 38.093-10.233 57.576 0 5.986.544 26.883 7.294 45.277 6.966 18.72 18.287 28.516 32.874 28.516 8.818 0 18.615-2.395 26.779-6.531 8.817-4.462 14.478-10.231 15.893-16.217l-2.939-3.7h-6.64zM848.535 53.331c0 10.34-5.878 49.849-19.594 81.303-12.083 27.428-25.581 29.169-34.29 29.278l30.698-133.655h7.293c10.559 0 15.893 7.728 15.893 22.965z"/><path d="M1145.39 19.265h-70.87l-2.83 1.959-76.199 216.59L1014.76 22.53l-2.94-3.265h-67.818l-2.83 2.067-1.524 5.116 2.83 3.81h13.063l-64.878 274.056c-5.117 21.333-12.845 38.856-22.098 50.611-8.164 10.339-17.199 15.89-26.017 15.89h-2.503l-2.831 2.068-1.524 5.116 2.831 3.809h78.485l2.939-2.394.98-5.116-2.939-3.592h-1.524c-4.028 0-16.438 0-16.438-27.645 0-9.686.545-21.659 4.463-37.44l43.87-186.116-23.296 259.038 2.939 3.265h28.521l2.83-1.959 84.909-240.317-53.341 231.174h-14.477l-2.94 2.395-.979 5.115 2.939 3.592h87.198l2.83-2.068 1.52-5.115-2.83-3.81h-13.06l78.59-340.558h14.48l2.94-2.394.98-5.116-2.94-3.591z"/><path d="M1250 370.924h-5.66c-2.72 0-4.68-.762-6.21-2.394-3.05-3.483-2.94-10.231-2.61-12.517l50.4-333.157-2.94-3.374h-40.28l-2.72 1.742-138.57 297.566c-12.85 27.863-35.71 52.243-48.77 52.243h-2.07l-2.94 2.394-.98 5.116 2.94 3.592h82.52l2.94-2.395.98-5.115-2.94-3.592c-6.21 0-9.91-1.306-12.52-4.245-3.27-3.809-4.9-10.775-4.9-21.332 0-15.891 4.46-35.264 11.97-51.808l29.29-63.453h37.44l-19.92 131.587c-1.09 6.748-5.66 9.142-9.25 9.142h-5.12l-2.94 2.395-.98 5.115 2.94 3.592h89.7l2.94-2.395.98-5.115-2.94-3.592zm-37.67-260.126-15.89 106.227h-33.09z"/><path d="M1499.17 19.373h-77.94l-2.83 2.068-1.53 5.116 2.83 3.81h4.03c4.03 0 16.44 0 16.44 27.644 0 9.687-.54 21.66-4.46 37.441l-36.91 156.511V22.312l-2.93-2.939h-64.23l-2.83 2.068-1.52 5.116 2.83 3.81h13.06l-64.88 274.056c-5.22 21.442-12.74 38.965-21.77 50.611-8.06 10.339-16.98 15.89-25.69 15.89l-2.83 2.068-1.53 5.116 2.83 3.809h80.56l2.83-2.068 1.52-5.115-2.83-3.81h-7.18c-4.03 0-16.44 0-16.44-27.645 0-9.687.55-21.659 4.46-37.441l49.1-207.883-.44 281.023 2.94 2.939h36.14l2.94-2.286 66.29-282.764c5.12-21.333 12.85-38.747 22.32-50.61 8.16-10.231 17.53-15.89 26.23-15.89l2.84-2.069 1.52-5.115-2.83-3.81z"/></g><defs><clipPath id="a"><path fill="#fff" d="M0 0h1502v385.509H0z"/></clipPath></defs></svg>