<svg xmlns="http://www.w3.org/2000/svg" width="1513" height="442" fill="none"><g fill="#fff" clip-path="url(#a)"><path d="M127.523 29.055c.805-.089 1.61-1.072 3.132-.894.447 0 7.785 2.325 8.143 2.593.895.626.448 1.878.537 2.86l2.238-2.592c2.326.537 5.369 1.967 7.696 2.057 1.163 0 3.758-1.43 5.011-1.163.537.09 5.101 5.454 6.264.716 5.191 2.145 10.113 4.38 15.929 3.576l-4.564-2.682 4.028.983 1.431-1.877v3.576c4.385-.18 8.323 1.52 12.171.983 1.074 3.934 4.385-1.341 4.206 2.682l2.685-1.788.537 1.877c3.669-.357 12.17-.804 15.302.358 2.327.805 3.043 3.934 7.159 1.341l.985 1.877h1.342c-.179-1.34 4.475-4.38 5.459-3.665l-2.685 4.47 2.238-1.699 4.116.805.895 1.788 1.79-3.576-.448 2.682 5.907-.894-.895 2.682h2.684l1.79-2.682.448 3.666.537-1.7c3.937 1.968 2.863.18 5.369-1.877v4.56l5.011.626 3.133-5.186v4.47l3.221.895 2.237-1.7-.447 1.789 4.474.894c.985-.09 0-18.417.448-20.205.179-.626 1.432-.626 1.521-.804.269-.537-.805-1.61-.268-2.504 2.058-3.754 5.996 2.414 1.432 2.772l1.789.894-1.789 2.235c2.237 0 1.521 3.755.984 5.453-.626 2.146-1.969.716-1.969 2.235 1.969-.357 3.311.358 3.58 2.414.179 1.699-1.522.894-1.701 1.788-1.431 5.543 4.296 8.136 4.564 6.169v-4.917l-1.789 4.56c-.179-3.577-.895-5.275 2.684-6.795l-2.684-.447v-2.235l1.789.447c.895-2.325-1.7-1.699-1.789-2.235-1.343-4.291 4.116-.894 4.385-.358.358.626-1.253 5.811-1.253 6.616 0 1.073 2.237 4.291.537 6.794l20.851 2.682-.895-3.576 2.237 1.788 2.685-3.576c1.79 1.073.895 3.934 2.237 5.007.179.179 4.654 1.162 4.922 1.162 2.595.09 6.264-2.771 7.338 1.073 3.58-4.739 8.144.179 13.155-.894l-.447 1.788 5.011-4.56-1.79 4.56 3.222-.805.358 1.699 2.237-2.682c.984 2.145 5.369.804 3.132 3.576l1.79-2.682.895 2.682 2.685-2.682c1.789-.268-.179 2.324 2.237 1.788.984-.179-.358-2.682 2.237-1.788l-.895 4.56 2.595-2.236 5.549.447-.895 2.682c4.295.268 14.945 4.292 17.808.626.716-.894.269-3.04 2.059-3.308l-1.79 5.454c3.042.09 5.459-2.056 6.801-4.56l1.432 2.682 2.595-.894v2.682l-4.475-1.788c-1.252 2.95 6.802 2.772 7.07 2.504.627-.448 2.506-5.007 4.654-5.275l1.789 5.453-4.116-.894-.448 1.788 8.144.894-1.342-1.788 1.342-1.788c-.179 2.235 1.879 2.504 3.669 2.772l-.895 1.788 5.459-1.341-1.79-1.341c3.043.715 2.595-1.52 4.475-2.682l.447 2.771 4.027-1.788 1.79 2.682.895-1.788.895 6.348c1.611 0 .984-2.682 1.7-3.934 2.148-3.397 3.938 1.877 7.338 1.162l.448-4.56-.448 2.683 3.222-.805c.716 2.861 6.712.447 9.038 3.576l1.343-1.788v2.682c2.863-2.86 5.548-1.43 7.606-1.788 1.074-.179 0-2.235 1.522-1.877v2.682c1.521.357.358-1.52 1.431-1.788.716-.179 4.833.268 4.833 1.34l-1.79 4.113c1.969-1.162 3.401-6.437 4.922-1.877l4.116-.805c-.715 1.52-1.163 2.503.448 3.576 1.342-4.202 4.116-.357 6.443 0 1.79.269 5.906.716 8.054.894 3.222.358 6.265.269 9.486 0l-2.685 1.788c3.759-.178 7.786.716 11.366.984 2.505.178 5.101-.18 7.785.447 2.237.536 5.191 1.251 5.37 4.023l2.684-1.788c0 2.86 1.522 1.788 2.506 2.235.268.09.089 1.251.626 1.251 3.669-.089 4.475.626 6.444.716 1.074 0 2.416-1.967 4.474-.537l-.447 2.682 2.684-3.576c0 7.331 9.665 2.772 10.918 8.136 4.117-3.666 9.486.447 14.945.894 1.969.178 1.074.09 1.074-.894-.269-3.755.716-6.348.984-9.745.537-7.6-.984-19.31.179-25.837.09-.626 1.432-.447 1.611-1.073.268-.983.179-4.112-1.611-3.218l1.879-1.43-.984-3.13 5.459-.894-1.79-2.682h2.595l.09-2.771 3.221 2.682 2.238-2.682 2.416 3.486 12.976 1.073 1.342-6.347c3.848 2.682 2.774 6.884 4.117 10.817l5.369.894.895-9.923c1.7 2.592 4.474 1.698 5.906 2.592 1.969 1.252 1.432 4.202 4.027 3.755-.179-2.592-.716-5.453-.537-8.046.09-1.877.179-2.682 1.432-.983l.985 17.165 75.171 27.267-2.685 2.682c5.548-2.95 8.502-.179 13.513 2.146.626.268 1.79 0 2.595.358 1.701.894 3.848 4.112 5.191 5.632l.895-1.788c5.906 5.99 14.497 7.867 21.924 11.622 1.88.894 2.775 2.682 4.564 3.576 1.522.805 11.724 3.129 10.113 5.543l-7.159 4.649 4.027 1.698c.895 0 .716 1.967.537 2.325-.269.536-8.502 5.9-9.755 6.526-8.233 4.291-19.777 7.867-28.726 11.175-24.431 9.03-49.488 16.718-73.918 25.748 7.875 8.135 16.734 15.287 24.967 23.155 3.311 3.218 6.712 7.42 9.844 10.549 11.276 10.907 32.216 27.804 40.986 39.247 1.343 1.699 1.88 4.739 2.238 5.007 14.139 9.923 26.846 22.708 39.464 34.866 21.299 20.473 41.703 41.125 63.27 61.33.894.804 5.459 1.519 5.011 4.201-.716 4.56-4.653 2.146-5.28 3.845l1.79 1.341c-11.992-.626-20.046-13.5-31.679-14.573v-2.592s-1.611.894-2.327.804c-2.058-.179-18.524-12.784-21.746-15.287-2.685-2.057-5.727-6.08-8.323-7.957-5.011-3.666-11.007-5.096-16.287-8.225l-2.595 1.699-5.011-3.576 4.116 6.347c-2.327-2.235-6.98-3.308-9.217-4.828-18.793-12.695-40.628-35.492-56.916-51.405-7.785-7.599-16.197-15.735-24.609-22.53-.806-.715-1.074-1.788-1.343-2.771l-2.595.894c0-3.487-5.011-8.493-7.696-10.907-2.148-1.967-7.248-4.381-7.606-4.738-1.164-1.252-3.938-4.917-5.28-6.169-2.327-2.145-5.817-4.47-8.412-6.347-.179 7.42-2.327 14.751-2.775 22.082-.626 11.622 1.164 26.016-.179 37.012-.268 2.235-2.953 4.291-3.4 6.616-.895 5.006.626 12.158-.984 17.612l-1.79-2.682c-1.611 11.711-.627 24.138-1.88 35.76-.268 2.682-.715 6.348-2.684 8.136l1.879 1.698v30.397l1.7-1.788c.627 3.308-.358 3.397-2.595 5.006l1.7 20.294c-1.968.268-1.789 0-2.147-1.698-.358-1.699-.627-6.169.358-7.778l-1.79-.447v2.682l-2.685-.894v2.682c3.222-2.95.448 4.559.09 5.99-.358 1.609.626 2.592-1.969 2.145.179-3.486-.179-11.175-1.521-14.304-.716-1.699-5.012-1.877-6.175-3.844-1.164-1.878-1.164-6.705-1.432-9.03-1.342 0-1.253 4.202-1.253 5.275 0 2.146 1.969 8.135-1.432 7.331v-17.165s-1.163.268-1.611-.268c-.716-.894.537-2.772-1.163-2.504l.984 9.477-.984 7.778c-.895-10.55-1.253-21.725-2.774-32.095-.269-1.699.895-2.682-1.79-2.235l2.685 27.625-1.79 8.582-3.669-16.271-1.79.447.895 4.113c-1.521.268-.626-1.341-1.253-2.414-.358-.626-2.506.268-.626-3.04-3.043-.983-1.432 3.397-3.58 3.576l1.79-9.029c-3.49-.894 0 5.9-2.685 6.347l-.984-8.493 1.879-1.43s-1.342.268-1.611-.447c-.447-1.252-1.253-6.884-1.431-8.583-2.864-28.519-1.522-57.485.268-85.646.179-2.682-3.132-8.672.984-10.013-1.879-.715-2.058-8.046-1.61-9.119.357-.805 2.058.179 1.61-1.341l-1.879-.537c1.969-2.95.09-5.364.179-8.046.447-22.708 5.101-51.674 3.58-73.488-.09-1.251.626-2.682-1.343-2.235-3.937.894-.447 2.593-2.237 4.023-3.49 2.682-10.739 5.633-14.676 8.047-1.432.894-2.148 2.592-3.938 3.307l.448-5.453-2.238 3.576-1.342-1.788-.895 3.576 2.685.894c-2.953-.715-2.327 2.414-5.012 1.877l-1.342-1.788c.537 4.739-1.969 5.722-4.564 1.788l.895 3.576c-2.953-.894-2.595 1.699-2.774 1.789-2.506 2.056-.806-4.202-3.58-2.683 1.611 2.414-1.879 8.404-3.132 3.577l-1.342 3.665-2.685-1.788c.716.894-1.7 4.202-2.058 4.381-.895.357-2.058-.894-2.416-.626-2.059 1.251-5.549 5.275-9.397 6.437-2.416.715-3.848-1.699-2.953 1.609a10633 10633 0 0 1-54.499 29.681c-3.759 2.056-11.455 7.868-14.766 8.851-1.79.536-3.49-.715-3.669-.536-.268.268.627 1.788-.626 2.771-3.58 2.771-13.066 6.258-17.451 8.672-10.649 5.99-21.477 12.784-32.127 18.595-40.896 22.708-82.061 43.181-121.168 68.214l-4.206 19.131c-.179 5.454-.806 9.566-3.043 14.394-1.163 2.414 3.311-.626 1.79 1.788-.627.983-1.969 1.788-2.685 2.771l1.879 1.788c-.089 1.163-1.163 2.236-1.431 3.219-1.79 7.331-3.043 17.612-4.296 26.463l-7.965 20.562c-2.326-.983.716-5.364 0-7.241l-3.669 6.347c-6.801-2.593-2.953-5.99-3.579-11.801l-.895 2.682c-4.654.626-4.206-4.112-2.685-7.241-4.653-.269-1.969 9.119-3.669 10.907l-1.79-.894v5.453c-5.459-3.129.358-11.533-5.459-12.695l-1.789 3.665.447-7.241-4.116 10.818c-1.701.178-.806-1.967-.627-2.951.358-2.414 1.343-4.649 1.521-7.062-3.49 1.609-3.758 5.811-4.563 9.029l-.895-2.682h-3.669c-.537-8.404 6.085-16.092 3.579-24.496l-3.579 3.576.894-9.029-4.474 5.096c2.774 4.917 1.342 11.175-1.879 15.734l1.789.894c-3.042-.536-1.252 2.414-1.879 3.844-.268.716-1.342.716-1.432.984-.626 1.52-.179 3.665-2.147 4.202-3.58-3.934.447-6.884-2.775-10.818h3.58l-.984-3.129 1.879-1.073c-2.774-3.844 2.237-6.615 2.416-8.046 0-.357-1.79-2.592-1.253-3.665.537-.984 1.88-1.073 2.238-1.52.715-1.252.179-4.023 1.163-5.632l-1.879-.894s3.848-6.974.447-5.901l-57.184 37.102c-4.116-.626 1.701-3.129-.447-4.47h2.595l-.358-1.878 4.027-3.129c-2.148-1.877-2.595.805-3.49 1.252-6.712 3.397-13.513 6.705-20.314 10.191-1.164.626-2.685 3.308-5.28 2.593l4.564-4.112c.179-.716-.895-.537-1.342-.447-1.164.357-19.062 11.175-20.404 12.248-.448.357-1.253.894-.895 1.341 3.938-.358.895 4.827-.895 3.665l.448-3.576-54.231 31.559-3.311-2.593c0 3.04-4.922 2.503-7.249 2.682l1.79 1.788c-3.938.715-6.801 3.219-10.38 3.576l-10.471 3.666c-.716-5.007 3.132-2.682 3.49-2.861.179-.09.984-2.414 2.416-3.487 3.848-2.861 10.56-5.722 14.945-7.688 1.342-.626 2.237.089 1.79-2.235l-9.934 3.665.895 1.788c-5.548-1.252-7.606 2.861-11.096 4.738-.269.09-6.891 3.129-4.296.179 5.012-1.967 9.397-5.543 14.229-8.404 11.992-7.152 23.894-12.695 35.17-21.009.894-.715 2.595-.626 2.953-1.162.536-.626 0-2.146.178-2.503.269-.358 6.086 1.966 5.46-3.666l2.684.894-1.79-2.235 11.723-7.778-.894-1.698h4.564l-1.343-2.682-2.237 1.788c0-1.341.447-4.292 1.163-5.186 1.164-1.43 11.902-5.453 14.23-7.509l-4.565-.447c.805-2.057 3.759-1.341 4.296-1.699.715-.447 1.7-2.593 2.774-3.218 3.221-2.057 6.89-3.577 10.112-5.543l-.805-2.593 2.684.894-1.79-6.347 2.685.894c0-5.007 7.338-6.706 10.918-8.762.537-.268.626-1.52 1.163-1.788 3.401-1.967 5.817.537 4.385-6.526l2.596-.983.894 2.682c.895-2.772 0-5.275 3.222-6.348l.895 3.576.984-1.877 4.027.536.448-2.324-4.117.447c1.432-1.788 2.327-2.593 4.564-1.341v-6.348l2.685.537 1.79-4.202 1.79.626.894 2.056.895-5.454 2.685 3.576c.984-6.258 4.206-5.096 9.038-4.559l-.894-5.454 1.342 1.788 3.222-3.665 2.684 1.788-.895-5.454h2.685v6.348l.895-1.788 5.011 1.877 2.327-2.682 2.595.894 1.343-5.453 1.342 3.576c.447-2.95 4.295-2.682 3.669-6.348 2.774 2.772 5.459 1.073 5.459-2.682l3.579 1.788c1.074-2.235-1.968-1.698-1.789-2.235.984-3.397 5.19-3.844 5.459-4.112.357-.447-.537-2.325-.448-3.219.805-5.542 2.685-11.085 3.58-16.539.179-1.251-.716-2.771-.269-4.023.358-1.073 3.132-1.788 3.49-3.755.09-.536-2.953 0-1.789-2.235h2.684v-2.682l-2.684-.447c.447-1.251 1.521-2.145 1.7-3.576 4.743-34.24 11.723-72.594 14.676-108.712.627-7.688-.984-16.718 2.685-23.602.268-.715-1.701-.179-1.88-.983-.536-2.593 4.117-19.4 2.775-22.082l-1.79-.447 3.579-9.12-1.7-1.608 1.79-2.772c-.269-1.34-11.186-2.324-13.602-3.218-.448-1.341 3.579-.716 1.789-2.682-1.163-1.252-5.19-.18-6.353-.537-1.164-.357-2.417-2.235-3.58-2.592-1.342-.358-9.038.447-9.575.268s-.358-1.699-.985-1.699c-1.074 0-2.595 1.252-4.295.984-.537-.09-7.965-4.47-9.576-2.861-.716-3.755-2.416-1.61-4.206-2.146-4.385-1.162-8.68-2.503-13.155-3.218-1.252-1.252.09-1.699 1.343-1.788 3.221-.269 6.98 1.162 9.933 1.34.716 0 4.296 0 4.117-1.34-3.491-.09-6.086-.447-9.486-1.252-.358 0-.627-2.056-3.222-1.073l-8.68-2.235-1.253 1.699-2.685-3.576c3.58-.715 7.07.804 10.381.983 2.595.09 6.175-2.682 5.906.805 3.759-3.844 11.902 4.023 14.497-1.788l-3.579 1.788.447-2.682h-4.116v-2.682l-2.237 1.788c-.716-2.414-1.701-1.967-4.027-1.788l2.684-4.56-4.564-1.788 14.498.894-2.685-2.682 5.459-1.788h-3.669c-.627-1.162 3.579-.804.895-2.235-1.164-.626-14.856-3.308-15.751-3.218-.268 0-1.342 3.308-4.206 1.877l1.79-2.682c-2.953 0-6.443-.358-9.307-.983-.716-.18-.626-1.52-1.253-1.699-.895-.268-5.727 1.252-7.606 0l.895-1.788-5.459.894 1.79-1.788c-5.012-.268-9.934-2.146-14.677-3.666-1.074-.357-2.684-.983-4.116-1.43-3.043-1.073-6.085-2.593-9.307-3.04l1.79-2.234-3.58-4.113c2.058.805 4.833-.179 6.801.179 3.669.715 6.98 3.129 13.155 2.503-.805.894-2.416.626-1.79 2.682l5.459-.894-.895 2.682 2.238-1.788 1.342 1.788c.626-4.56 4.475-.894 7.249 0l-.627-2.771-5.28-1.788-.447 1.788-1.432-1.878-3.132.984s.805-1.252.895-1.788zm19.956 4.47h-5.012l-.447 1.788h2.774l-.895 1.788h1.79l.179-1.609 1.7.716v-2.682zm426.06 16.36c-1.253-.446-5.638 1.253-4.564 1.789 1.7.179 4.027.268 4.564-1.788M185.601 55.34l-9.038-.894c1.074 1.967 5.727 2.146 7.965 2.504 1.789.268 1.073 0 1.163-1.61zm-6.353 19.847h-5.459v.894h5.459zm10.828 1.878c-1.969-.358-3.49-.715-5.459 0v.894h5.459zm426.955 9.924h-4.475l-3.579 41.571c4.564 1.788 3.49-.715 4.742-1.52 1.88-1.073 6.802-1.52 8.86-.268l.179-2.503 3.937-.984c1.79 3.576 4.385 6.437 8.591 7.063-1.61-1.877-2.416-5.185-5.458-4.559.715-3.755 2.505-2.057 3.848-2.772.894-.447.805-1.788 1.074-1.788.805.09 2.147 1.341 3.848 1.431 1.521 0 10.738-.179 11.186-.626l-.895-1.788 2.685-.984-.895 2.682c1.074-.357 4.564.894 5.011.805.537-.179.358-1.52 1.074-1.699 1.074-.268 6.533 1.52 8.859 0l1.88 1.878c1.252-.805 2.505-3.04 3.669-3.576 2.237-1.073.179 2.771 1.79 2.682 3.758-4.023 9.306.894 11.812-5.454l.448 4.56c2.863-1.52 5.637.179 8.591-.805 1.521-.536 1.342-1.877 1.879-1.877 1.253 0 2.595 1.788 3.937-.447-9.575-3.219-19.598-5.543-29.173-8.851-13.155-4.649-26.131-10.55-38.302-15.288-2.058-.804-2.953 1.163-4.653-2.413-4.027 1.966-2.595-.716-4.564-1.7-.537-.267-5.101-.893-5.817-.267V86.81zM395.007 174.87h3.669l.447 1.788 2.238-2.682c.358.983-2.327 6.526.447 5.453 3.401-1.341 8.502-4.917 5.906-9.029l4.117-.894c-.984-3.308 2.237-2.325 1.342.894 2.953.447 4.654-2.593 6.086-3.666 1.073-.715 2.953-.536 3.848-1.341 1.61-1.341.895-4.648 5.906-4.917l-3.222 2.682c.627 5.543 4.296-2.235 6.354-1.877l-2.685-2.682 7.697-2.772c1.163 0-1.969 3.666.894 2.682 1.701-.536 5.907-3.486 8.144-4.559 6.175-2.95 10.739-6.794 16.645-9.924 2.148-1.162 4.922-.447 6.801-.894 1.074-.268.985-2.324 2.058-2.592 1.253-.268 4.296 1.341 6.712-1.073l-2.684-2.682c4.385.358 5.637 2.146 9.933 0l-5.459-5.453 3.58-.895.447 2.683 4.654-4.56c3.132.626 6.711 4.56 9.396.983-7.875-1.072-15.392-3.844-23.536-3.665l2.685-1.788-6.354 1.788 1.79-1.788c-2.416.268-5.28-1.43-7.517-.894-.358 0-2.327 3.487-6.086 1.788l.895-1.788-8.143.894 1.79-1.788-18.614-1.788.447 1.788h-12.707l7.248-2.682c-5.28.626-9.396-.179-14.497-.894l.895 1.788c-4.206-.179-8.591 1.341-11.365-2.682l-.448 1.788h-3.221l-.448-2.682-1.521 1.788h-7.607l.895-3.666h-2.685l.895 2.683-18.166-1.789 1.79-2.682c-1.074-.804-22.194-2.235-25.773-2.771-12.35-1.788-26.937-4.559-38.033-6.347-9.218-1.52-20.046-2.593-28.279-6.259l-.805 1.788-3.222-.894c-.805 6.348-2.058 12.606-3.132 18.864-.627 3.487-.806 6.258-1.521 10.371-4.833 26.373-10.56 53.462-14.856 78.494-1.968 11.712-4.295 24.764-7.696 35.761 2.416-.179 1.432 5.095.895 7.062-.179.805-1.79.626-1.79 1.162-.179 3.666-.537 4.828-.895 8.136-.447 4.738 2.775 8.225 5.638 3.308l1.611.715v-2.771c2.148 1.162 3.49 1.162 5.011-.894h1.343l.895 2.682c-.895-3.487 2.058-7.868 5.459-6.705l.894-1.073c-.715-2.861-.268-4.202.985-6.705l4.474 1.788-2.684 3.576 3.49-1.073.179-3.487c2.953 3.129 4.027.447 4.564-2.682h-2.685l.895-4.559 2.685 4.559 1.789-8.135 1.343 1.788c2.953-1.431 2.953-4.739 6.801-3.576l-2.685 3.576 3.132-1.788 1.79 3.576 1.432-2.682 2.595.804.985-3.576 1.7.894c.268-6.258 6.712-2.235 10.918-6.884 1.342-1.43-.448-2.95 1.342-4.023l.895 1.788c1.432-2.056 3.579-1.967 5.906-1.788l-1.79-3.576 2.238 1.788 1.342-1.788-1.79-.894 4.564-.894.448 3.576 5.458-8.135.448 2.682c2.953-.447-.09-4.381 2.237-5.454s0 3.845 3.132 2.682l-.895-3.576c2.059-.179 4.385-.179 4.654-2.592l2.506.715c.268-2.146 4.027-5.99 3.758-1.788-2.237-1.162-2.774 4.559-.447 3.665 1.7-.715 4.743-4.291 3.221-6.347l2.685 2.682.447-2.682c1.611 1.162 2.954 1.162 4.117-.537l-1.79-2.682 4.475-2.324c-1.701-4.113.984-2.95.895-6.258l3.579 1.788-1.79-5.454 3.669 3.576 2.685-2.682-1.79 4.56c1.164.894 6.086-2.414 6.623-3.844.626-1.788-.448-5.007-.269-5.186.984-.536 3.043.447 4.027-2.771l2.774 3.576h1.79c.09-2.682 4.027.089 1.611-2.682-.179-.179-.985.179-1.074 0-1.253-1.699 4.922-5.364 7.159-4.47v-4.47l1.879.447.448 2.235c1.432-.805 2.237-2.682 3.221-3.576h-1.789v-2.682l5.459.894c-.448 1.877-1.79 0-3.58 1.788zm341.761-64.37h-4.564v2.682c2.237.268 4.743 0 4.564-2.682m-87.969 13.589h-3.579v1.788h3.579zm-100.675 8.136.894-3.577-2.684.894.895 2.683zm-2.685 0c-2.237-4.649-5.727-1.52-5.459 2.771zm-184.886 69.822h-3.669l.895 3.576 2.685-3.576zm-74.186 43.27c.626.179 2.326-1.162 3.042-1.609l-.447-4.56c-2.237.626-4.475 1.252-4.385 4.113 0 .179 1.7 2.056 1.79 2.056m403.24 29.145c-.269-3.04-4.564-5.722-7.249-6.347zm-102.466 42.555c-.268-3.308 2.595-33.525.448-33.525-.537 10.102-1.79 20.204-1.343 30.396 0 1.073-.716 3.397.895 3.129m160.455-10.907c-.627-1.52-1.969-3.04-3.669-2.682.626 1.52 1.969 3.04 3.669 2.682m-612.825 28.161v-4.559h-.895l-.894 4.559zm662.671 6.259c-.716-1.878-2.506-3.04-4.564-2.682-.806.357 3.937 3.218 4.564 2.682m-211.196 5.453-.895-7.241c.179 1.966-2.953 7.867.895 7.241M84.031 390.415h-4.564v1.788l4.564-.894zM1310.66 110.053s.9-.179.99-.894-.63-1.877-.36-2.771l2.42.625c.44-1.877-2.06-1.519-3.05-1.251-.53-2.235 2.78-2.235 2.96-2.414 0 0-.45-.894-.36-1.341.27-1.252 1.52-1.52-.27-3.13l1.16-.893.27 1.788 2.15-.894-1.25-.626 1.88-4.202-1.26-1.52h3.05l-1.17-.626c-.18-2.86.72-4.112 2.42-6.347l-1.79-1.52 1.79-.268-1.25-.894h1.79l-.63-4.828 1.79 1.252c.36-2.593 1.79-1.43 0-4.56l1.79.894-.63-3.04 1.79 1.789c1.26-2.861-.71-3.576-1.16-6.08l1.79.626.63-1.788 1.25 1.788v-3.307c0-.805 1.07.715 1.25 0 .27-1.61-1.34-.269-1.16-1.52h1.07l-.36-1.073 1.7-.983-.89-2.236c1.79-1.788 2.59-4.201 3.4-6.615l.63 3.576c5.99 1.251 7.07-7.242 9.03-11.443 2.15.268-.26 2.77 1.17 3.04-.18-1.968 2.59-3.756 2.86-4.382.18-.268-1.16-2.592 1.34-2.324v3.666l1.17.268c-1.43 3.486-2.78 8.761-3.31 12.426-.18 1.073-2.06 2.146.26 3.04l2.42-1.788-1.16-1.788h3.04l-2.42-.894.9-1.341 2.15-.447-1.17-.626c.54-.626 1.44-.536 1.79-1.34 1.17-2.683 1.7-7.51 2.78-10.46 1.61-1.7 2.15 1.787 3.93.625 0 1.61-.71 3.218-.89 4.828-.09.626-.81 1.967.36 1.877 1.43-3.308 1.79-8.314 4.2-10.907-1.16 2.682-.8 5.454-1.34 8.046-.27 1.43-1.79 4.381-1.7 5.543 0 .268 1.97.537 1.25 2.146h-1.34l-.45 1.162 2.42 2.414c-.72-2.146-.18-3.219 1.79-4.202.81 1.61-1.25 1.877-1.25 2.146-.09 1.34 1.16 2.503 1.25 3.844l4.12-.715c.98-3.219 1.25-5.096 4.92-4.739l-.63 1.43c3.85 2.146.63 7.242 0 10.64.81 0 1.17.178 1.88-.358 2.33-2.146 3.76-11.801 6-13.768.8-.715 1.61-.357 2.5-.357l-2.41-.626.62-1.788c1.44.447 2.33.894 3.31-.626.81.268.09 1.252 0 1.788-1.07 4.112-3.49 8.672-4.83 12.695-.18.626-.8 1.967.27 1.788 2.15-4.917 3.85-10.102 5.91-15.02.35-.715.35-1.788 1.34-1.966-.09 5.543-5.19 12.158-6.09 17.254-.26 1.52.54.626 1.26.268l.62 4.202 2.42-7.241c.8-.18.63.268.63.894 0 2.324-1.53 5.721-2.24 8.046-1.16 3.308-3.85 6.973-2.6 10.46l.63-1.788.89 1.162c.81-.536 1.88-1.162 2.78-.894.27 0 4.83 2.056 5.01 2.146 1.25.804 1.16 2.95 3.4 2.324l-.27-1.252 3.94 1.252-1.16 1.788c1.07 0 2.32 1.252 3.22 1.073.62-.09 1.25-1.341 1.61-1.073 0 0 0 .805.18.984 1.16.715 5.55 2.682 7.07 2.95.8.178 4.56-.268 4.83-.09 4.83 2.772 6.35 3.845 12.35 5.454 5.46 1.52 9.49 4.291 14.68 5.9 1.88.626 5.37.358 7.6 1.163l-1.16 1.162h4.12l1.07 2.324c1.88-.357 3.4-.268 4.74 1.252l.54-1.252c.89.805 2.86 1.073 3.58 1.788.54.626.27 1.609.45 1.788s4.2.537 5.37.984c2.95 1.251 5.63 2.145 8.77 3.307 2.23.805 4.56 2.772 7.24 3.04l-.26 1.252 1.79-1.162v2.413l.89-1.251c1.97 0 1.7 4.202 5.1 1.251l.27 1.878 2.15.268.62 2.056c1.08-.357 1.97.447 1.7-1.162h.63c1.52 6.079 13.07 4.738 13.96 11.443l-4.2 1.52 2.41 4.202c-.71 1.52-5.82-.179-6.98.894-2.06 1.788-1.34 4.56-1.79 5.543-.98 1.967-5.37 1.609-3.94 5.453l-6.53-.268c-44.21 13.053-88.68 24.764-132.17 40.141 6.98 7.689 13.42 15.824 20.31 23.602 8.32 9.477 18.08 21.367 26.94 29.95 1.34 1.341 1.7 1.967 3.67.894l.62 4.202 1.16-.626-.62 1.788 1.52.626.89-1.252.63 2.414 2.42-.626c0 1.699.27 3.666 1.16 5.185 1.79 3.04 17 17.97 19.96 19.669 0-.09.18-.626-.09-1.073-.36-.537-2.15-.447-1.7-1.967l4.2 3.04-.27 1.162c-.89 0-1.34-.805-2.14-1.252 2.14 3.576 2.5 1.162 3.93 2.414 1.7 1.52 3.58 5.007 5.19 6.973 13.07 15.288 26.31 30.576 39.56 45.416l30.07 38.622-1.17.625c1.7.894.54 2.414.9 3.308.18.447 3.22 2.861.63 3.04-2.96-3.487-6.54-7.152-10.03-10.013-1.43-1.252-5.37-1.788-5.46-4.738l-1.88-.358.63-1.162-1.79.626c-.27-2.682-2.24-4.113-3.94-5.811-.98-1.073-3.22-3.755-4.29-4.47-.54-.448-1.43 0-1.43 0-.18-.269.09-1.252-.18-1.61-.54-.536-4.3-1.341-2.96.715 1.17 1.699 5.19 5.096 6.89 6.706 2.24 2.145 3.32 3.307 5.46 5.453 1.53 1.52 5.73 4.381 6.18 6.258.18.805-.45 1.252-1.25 1.252-.27 0-1.7-2.414-2.33-2.861s-1.34 0-1.61-.179l1.79 3.04-3.04-2.146c-.45-1.073.89-1.251 1.16-.894-5.91-2.324-9.93-8.135-15.04-12.695-2.41-2.235-6.89-4.738-8.5-6.258-.62-.626-1.16-2.682-1.97-3.129-.44-.268-1.43.447-1.7.268-.26-.179-.89-2.145-1.52-2.771-.45-.447-3.67-1.967-3.85-2.146-.8-.894-.98-3.486-3.58-4.112l-.53 1.162-2.15-.626.54-1.073-10.83-7.956c-.27 3.576 3.22 2.95 3.67 3.307 1.52 1.252 1.07 3.219 1.25 3.308 2.24 2.056 8.68 4.649 9.13 9.119l1.07-.447c.45 1.341 1.17 1.788 2.51 1.699l-.45 1.073 2.95 1.341-1.16 2.413c2.51-.447 3.85 2.235 5.73 3.666 5.1 3.755 9.04 7.152 13.24 11.98.63.715 2.96 2.056 4.03 1.967l-.63 2.413c-2.14 0-3.13-1.966-4.56-3.039-1.61-1.162-3.94-2.414-5.46-3.576-1.16-.894-1.88-3.219-4.56-3.04l.53-1.788c-.8-.983-3.93-1.252-4.11-1.43-.54-.447-1.08-2.593-1.7-3.398-3.23-4.023-10.21-6.615-12.71-10.549-.27-.447-.27-1.073-.18-1.609l-1.79.626c.36-3.666-3.85-1.967-4.83-3.04-1.17-1.252 2.06-.983 1.16-2.414-1.79.715-2.86.715-3.67-1.162h1.17v-1.162c-1.97.089-2.96-3.308-3.41-3.666-.35-.268-1.16-.179-1.61-.536-.53-.447-.35-2.235-1.61-.894l1.26 2.056-2.42 1.252v-2.414h-2.42v-1.788c-3.13 1.073-2.05-.09-2.86-.626-1.34-.715-2.86-1.788-4.39-1.877l.63-1.788c-3.49.715-2.86-1.878-3.85-2.861-.98-.984-4.11-1.163-5.28-4.113l1.26-.626v-1.519l-1.26.625v-3.039c-1.43.804-.98 4.202-3.04 1.788h1.16v-2.414h-.62l-.63 2.414-.63-3.04-1.79.626 1.17-2.414-1.79.626-.27-2.414-.89 1.788v-2.414l-2.42.626 1.16-1.788c-1.07.447-1.97.805-2.41-.626l1.25-1.251c-.81.357-3.58-.537-3.04-1.252.18-.179 1.43.536 1.25-.626l-1.16-1.251h-3.67l.27-1.163 1.52-.625c-2.33.536-1.61-1.073-2.15-1.699-2.06-2.235-2.06-2.593-5.1-1.878l1.79-1.519-1.26-2.146c-.8-.358-.53 2.414-1.79 1.162-.17-.179 1.35-4.202-1.78-3.933l1.78-.894h-3.04l.63-1.788h-1.79c.98-2.235-1.7-1.788-2.33-2.504-.89-1.072-2.5-4.202-4.02-5.721-1.26-1.252-1.88-2.504-4.03-2.057l1.52-1.251c-2.42 0-.9-1.252-1.97-1.788-.27-.09-.89 0-1.16-.179-1.08-.894-1.7-4.917-5.01-3.487l1.79-3.039c-3.32.536-6.89-3.487-8.51-6.08l-1.16 1.163c-.72-2.146-2.59-4.381-4.83-5.096-.54-.179-1.25.357-1.25.268-.18-.358.26-1.43-.18-2.235-.45-.894-9.04-7.867-10.38-9.03-4.39-3.665-8.86-8.046-13.7-12.605-.35-.358-.44-.984-.71-1.431l-1.08.537v-1.788c-2.5 0-4.92-4.292-6.8-5.99-.18-.09-.8.447-.89.268-2.87-2.503-5.46-6.526-9.22-7.688l.63-1.788-3.67-1.252-24.52 72.594c-3.67 4.917-4.48 11.175-6.8 16.718-.18.447-1.44 2.503-1.35.536.36-.804 3.14-9.387 2.06-9.387l-3.93 10.907-.63-1.788h-2.42l-25.77 59.899c-2.42 1.698 1.43-3.397 0-3.576-1.25 1.251-2.15 3.576-3.49 4.649-.18.179-1.34-.984-1.07.804h-.63c.27-1.788-1.07-.357-1.79-1.52l6.08-12.695-2.41-3.307-3.04 5.453-1.53-1.162-.89 2.414c-2.06.357-.63-.715-.98-1.788-.36-1.073-1.08-2.235-2.33-1.788l.27 1.251-1.52-1.162-1.53.537c.18-2.325 1.35-4.381 2.15-6.527.27-.626-1.07-1.609.81-1.341v-.626l-2.42-1.519c.63-1.163 1.7-.179 2.42-.626 1.43-.894 1.7-3.308 1.16-4.739-.18-.625-1.34-.178-1.16-1.251.36-2.146 2.77-5.632 2.41-8.225-1.34-.268-1.61.894-2.14 1.788-1.97 3.844-2.96 10.281-4.57 14.036-.27.536-1.07.626-1.7 2.146-.62 1.698-.89 4.38-1.34 6.258l-.63-3.04-2.41 1.788c.18-1.877 1.25-3.487 1.61-5.275.27-1.519-1.35-3.486.8-3.218l-2.41-.626 2.41-2.682c-3.58-1.162 2.15-5.096-1.25-6.079 0-.984 1.88-1.699 1.88-1.878 0-1.072-2.15-4.201.54-4.47l-1.17-.894c.54-2.592 2.42-5.274 3.22-7.599.54-1.43.99-4.38 1.44-5.9.26-.805.89-1.61 1.34-2.325l-1.25-.626s.89-.804 1.07-1.341c2.42-6.526 4.83-13.946 7.61-20.204.35-.894-.63-2.235 1.61-2.325l-1.17-.625 1.26-.895-1.26-.894c2.24-.178 1.79-2.235 2.42-3.754 1.43-3.576 3.4-8.851 5.01-13.232.36-1.073.18-2.235.45-3.039.27-.716 2.15-1.699 2.24-1.788.53-1.788-.54-4.292 1.43-7.421.45-.715 1.7-.804 1.79-1.341.09-.804-.81-1.877-.54-3.397.18-.894 5.55-15.019 6.09-16.092.17-.268 1.34-.358 1.61-1.073s-.54-1.788-.45-2.861c.18-1.252 1.97-3.218 2.5-4.828 1.08-3.129 1.17-4.291 2.6-7.688 1.61-3.755 1.88-6.616 2.77-9.834.36-1.252 2.87-2.861 3.76-4.113 2.6-3.665 4.39-7.599 5.64-11.89.18-.447.36-2.146-.45-.983l-1.16.894c-.18-1.61-1.07-2.772.63-3.934l-.63-.626c-1.34.805-3.22-3.934-3.76-5.364-.89-2.324-.71-2.324-.54-4.649-.44.537-.62 1.252-1.16 1.252-.09-1.52.18-3.576 1.79-4.202 0 1.073-.54 1.877-.63 3.04 1.44-1.878 3.23-4.918 2.69-7.242l-1.52 3.308c-.9.983-.63-.626-.45-1.073.27-1.162 3.85-10.728 4.74-10.102-.35 1.788 2.87.626 4.21 1.162l-2.86-2.682 1.07-3.308c2.86-.626 2.86 2.682 6.35 2.146 1.26-.358 1.7-1.61 1.52-2.772l-1.79 1.252-.89-3.04c-.81 1.162-1.43.984-2.68.626 0-1.073 1.78-.089 1.25-2.146-.36-1.072-4.57-.715-2.42-3.933l.9 2.414.89-3.04 1.16.626c-.98-2.146.54-3.308.63-5.454 1.43 2.414 2.06 1.073 2.95 1.52.63.268 2.96 2.325 3.05 2.146l-1.17-2.146 1.17-1.162c-2.69-2.861-4.66-4.917-2.42-8.761.9-.805 1.97 1.43 2.06 1.788.27 1.609-.81 4.291 2.51 4.291.44 0 0-1.967 1.52-1.252.26.268-.72 2.235.89 1.788.45-.089-.18-2.145.36-3.129.89-1.788 3.94-3.397 4.12-3.665.53-.715 1.16-7.868 1.43-9.119.27-1.252 1.16-2.682 1.7-3.844l-1.26-.537c.36-1.967 2.24-1.341 2.42-1.52.18-.089-.98-2.503 0-3.665l-1.25 1.788c-1.88-.537-.54-2.593 0-4.023l-1.17-.894c2.78.447 2.15-.268 3.05-1.788l-1.79.626 1.52-3.666.27 3.04zm60.95 3.308c-2.78-.894-5.46-2.056-8.33-3.04-7.07 10.103-12.79 21.188-17.63 32.632-1.07 2.503-1.96 5.9-2.95 8.403-.27.537-1.16.537-1.16.805-.27 1.877 2.77 2.771 1.52 4.47l-2.15-2.414 1.25 4.202 1.79-1.788.27 1.788c2.06-1.43.9.179 2.15.626v-4.202h2.95c.45.358 1.79 6.795 3.14 5.364l-1.17-6.079 1.79 3.039V149.3l1.25.626-.62-3.04c3.76.447 2.5 1.61.27 3.666l.62 1.073 3.94-1.073-.27 1.788 1.88-1.878 3.31 1.252-.62-1.788 1.79.536.62-1.162.63 1.252.27-1.788.89.894v-2.146l2.42 1.162-1.16-5.453c.8.179 1.25 1.073 1.52 1.788.53 1.43.18 4.023 1.52 4.828l-.63-4.202 1.79 1.788.9-4.202 2.14 5.453.63-1.788c1.16-.178 1.52.984 2.69.984 1.07 0 2.05-1.341 3.31-.984-.72 1.163-.09 3.576 1.16 4.202l-1.07-3.308c.53-1.698 2.59-.357 2.32-2.145l1.79 1.162-.62-2.414c2.23-.626 1.43 3.129 1.79 3.666 2.86-1.163 2.77-1.52 3.93-4.202l.27 1.788c1.08.268.36-.984.63-1.252.18-.179 1.97 1.788 3.04 1.162.09 0-.89-1.788-1.25-2.056-.81-.715-2.33-.536-2.42-1.52l2.33.537.62-1.163c-.17 1.61.18 3.04 1.79 3.666l-1.16-3.04c1.7-.447 1.25 1.52 2.69 2.503 1.43.984 1.96.179 3.4 0l-1.17-2.413 2.69-2.414 2.68 1.788 1.26-2.414c-.81 1.877.17 2.771 1.79 3.665l-.63-2.413c.71-.269 2.5-.358 2.95-.716 0 0-.54-1.698.36-1.698.72 0 .63 1.341.27 1.788 1.79-.626 2.24-.537 3.67.626l-1.17-3.666 3.58 3.04-1.16-2.414 3.31 1.252c.81-1.878 3.22-1.967 4.83-3.04l.63 1.252 3.31-1.163-.27 1.788c1.97-2.413 3.13.805 4.48-2.771.44-1.073-.36-.715-.81-.894-15.66-5.99-31.68-10.996-48.32-16.45-3.94-1.252-8.86-2.682-12.17-3.844zm125.55 26.373-4.21-1.251v1.788l-3.66-.269c2.68 2.861 4.2 1.431 7.24.716.99-.179 1.53 0 .63-.984M1443.2 309.15s-2.78-3.308-3.04-3.04c-.36 1.162 2.32 3.576 3.04 3.04m1.25.626-1.16.268 3.04 2.682-1.79-3.04zm4.21 4.201s-1.79.537-1.79.894c0 1.699 2.68 0 1.79-.894m5.46 6.616c-.45-1.162-1.97-1.877-3.05-1.788.45 1.252 1.7 2.056 3.05 1.788m4.83 6.079s-2.06-3.576-3.04-3.665c-.36.358 2.14 4.47 3.04 3.665m-9.22 2.057s-1.52-.894-1.61-.805l.72 2.95h2.32s-1.16-1.877-1.43-2.145m-198.49 13.052h-3.04v.626l3.04.626zm6.71 6.616 1.26-3.666c-.99.09-2.78 3.308-1.26 3.666M955.569 23.155c1.253-2.056 3.311-.268 5.28-2.056l.358 2.056h1.342c0-2.146 2.148-1.699 3.491-2.771l-1.343 3.486h3.49l-2.058-2.056c2.416.805 3.58-1.341 3.759-1.341.358 0 3.669.536 4.116.626.716.178.09 1.967 1.521 1.34 1.253-3.396 5.549-1.162 8.77-2.77-.894 1.162-1.7 2.234-.358 3.486 1.343-.179 1.969-2.056 3.849-.715l-.358-2.146c.894-1.61 11.454-1.43 13.692-1.698l.98 3.218c.45 0 .63-3.755 2.78-3.487l.36 2.772c1.79-2.503 4.56-3.398 7.69-2.414l-4.2.358 1.7.715-.36 1.43c1.97.537.98-1.073 2.41-1.52 1.17-.357 2.33 0 3.49.18l.36-2.146c1.97-.358 1.35.715 1.43 2.056h6.27l-1.34-2.056c1.07-.269 2.05-.537 3.22-.18 1.43.537.54 1.61 1.7 1.52l.45-2.145 5.81-1.341v1.61l1.34.446c.09-2.324 2.96-.447 2.15-3.487 1.52.09-.36 1.967 2.06 2.414s2.51-4.112 3.85-.357l1.79-.626.71 3.487.72-4.202c2.24.804 4.48.625 4.92-2.057l1.34 1.073-1.43 1.43.72 3.755 2.06-5.542 2.41 4.201 2.42-2.771.27 2.86 3.85.627.71-4.113 2.06 2.056.72-2.056c1.52 1.073.18 2.056 2.77.715 0 1.341-.54 2.504 1.43 2.057-1.97-3.934.9-5.811 2.15-1.43l2.06-2.057.36 2.056h2.5l.36-1.967 2.77 1.341-.35 1.43c1.88.627 1.25-1.161 2.05-1.698.36-.268 3.41 0 4.21-.357v2.771l1.07-2.056.72 2.771c1.79-.894 4.39.18 4.92-2.145l1.08 2.056c0-2.325 1.96-3.934 4.2-4.202 1.08.983-4.29 2.95-1.43 4.202 0-.715 1.7-2.861 2.15-3.04 1.07-.626 1.79 1.61 1.43-3.218l2.77 2.771.72-2.771 2.06.715V9.477c3.49-.447-.99 5.453 2.06 4.917v1.34l-1.08 1.431c2.78-.805.81-3.129 3.05-3.755l-.63-3.218.71 2.056 2.06-.715 1.08 2.771 1.79-5.543c.98-.09 1.07 3.398 1.07 3.845 0 .983-.89 1.52-1.07 2.413 1.34 1.43 3.04-4.201 2.77-4.917l4.92 2.146-.36 2.771.36-3.486c2.24-.537.99 1.251 1.52 1.877 1.35 1.788 3.14-.804 4.57-1.073.8-.178 1.7.537 2.15.447.35 0 1.25-3.218 3.22-2.682l1.07 1.43.72-2.77-3.49.715c.98-2.772 3.93.178 5.28-2.057l-.36 3.487 2.06.715-3.49 1.43 3.93-.625.63 1.34 1.52-2.145c2.42.179 6.27.805 8.59.447.36 0 3.4-.715 3.58-.804.81-.537.18-2.325 2.06-1.7l1.08 2.772c.8-1.966 3.04-.536 3.13-.715.18-.179 0-3.308 1.43-4.202l-2.06-1.43 6.27 2.056V4.56l2.14.716-.71 2.056 2.77-1.43 1.79 3.486-1.07-4.917 2.77 1.341v-1.34c1.88 2.055 3.58-.18 6.27 0v3.486c3.22.804 5.45-1.967 8.41-.715l1.07-4.202.99 2.503-1.35.983c1.88-.178 4.21.269 6 0 1.52-.178.36-2.235 3.4-.715l.45-1.43h1.34l.36 1.34c1.43-.804 2.06-.983 1.79-2.77h1.07l1.43 2.145 5.55-2.861.45 1.252 1.61-.537.81 1.43c2.5-.715 5.1-1.072 7.69-1.34 19.6-1.788 38.48-3.576 58.26-2.861l-3.04 1.34-.45 2.146h6.26c.36 2.414-2.5.537-.71 3.487l-2.06-2.056-.45 2.146c-5.9 2.413-11.45 1.52-17.36 2.145-1.88.179-5.64 1.162-4.03 3.308-2.59 0-3.4 3.308-3.84 3.576-.72.447-13.61 3.13-12.09 4.202h8.42l-3.49 1.43.35 1.252c1.97-1.162 1.26 1.073-.35 1.162l3.49 4.56c-7.16.178-14.23 1.52-21.3 2.056-5.19.358-11.37-1.073-15.66 1.43 1.7 3.308 3.93.894 6.44.447 1.07-.178 2.15.18 2.86 0 1.88-.357.99-2.592 2.87.894.8-1.698 6.44-.626 7.6 0 .99.537 0 2.057.81 2.146h5.46c.45 0 .54-1.073.63-1.162 1.7-.626 4.47 3.308 7.15-.269l.36 1.43h1.43l.72-1.34 1.07 2.056.36-1.34h1.43l-.71 1.34 5.19-.715-.36 3.487c1.97.357 1.79-1.967 3.22-2.593.63-.268 2.87.179 3.76-.179.36 1.252-.98 1.61-1.16 2.503-.27 1.52.44 3.04.8 4.47.18.805-.09 1.163-.71 1.342-1.35.357-6.18-.18-8.33 0-4.11.447-8.5 2.056-12.88 1.43l-.45 1.967-9.31 1.162c-1.25.715.63 2.95.72 3.844l-42.96 3.487c-3.04-1.788-8.32 2.592-9.39-1.43h-.72c.36 1.877-5.99 2.95-5.9.715-7.88 4.202-20.23 4.827-29.45 5.453-11.99.894-24.43.626-36.15.805l-36.69.804c-1.88 5.633-1.52 11.623-2.42 17.344-.89 5.096-3.49 12.516-3.67 17.255s1.88 6.973.36 12.963c-6.35 25.211-10.92 56.144-15.57 82.964-3.85 22.44-5.73 48.009-10.47 69.823-.89 3.933-3.4 7.42-3.67 11.711l-1.7.715-.36-3.486c-1.07 1.698-.44 3.218-3.04 2.861 1.07 3.844-1.79 5.632-2.6 8.314-.62 2.146.45 5.543-2.41 5.99-.81.089-1.25-.805-1.88-.805-.9 0-1.79.537-2.6.358-1.25-.268-2.14-2.503-3.31-3.04-1.16-.536-3.31-.268-3.49-.357-.36-.358 0-8.315.72-9.745-5.82 3.397 1.79 13.768-6.27 15.377-.53-6.616.18-13.232 0-19.937 0-2.235-1.79-3.576.63-4.112l-1.43-1.699c.45 0 1.25 0 1.43-.447.27-.983.09-10.817-.18-11.264-.18-.358-1.34.178-1.25-.447 1.34-.09 1.97-3.576 2.06-4.917.36-3.576 0-7.421 0-11.086 0-2.772 1.88-2.235-1.43-4.56l2.14-.357v-8.94l-1.43-.805 1.43-.715-1.34-1.431c.81-1.43 2.69.447 2.06-1.43-.18-.626-1.25-.179-1.43-.805-.54-2.145.44-6.168 0-8.582-1.97.626.98 5.632-2.06 4.917 0-3.397.8-6.616.45-10.013-.27-2.414-2.42-2.682 1.25-5.364l1.07 2.771v-6.258c-1.61.984.45 2.861-2.41 3.487-2.51.089 0-1.699.18-2.593.71-3.039 0-5.632.18-8.135.62-8.046 1.16-16.003 1.34-24.139 2.32-.447.53 2.504 3.13.805l.98 1.341c0-2.861-1.79-3.755-4.2-2.771.36-1.699-.54-3.576-.45-5.186 0-.983.98-2.056.98-2.95 0-8.493-.8-17.791 2.33-25.748l-1.34-.357c-.18-1.788-.18-3.397 1.43-4.56l-1.25-.625c.62-1.967.27-4.202.62-6.169.45-2.414 2.69-9.655 2.51-12.695 0-.983-1.07-1.967-1.16-3.487 0-1.877 1.16-3.933.71-5.9l-1.34 2.771c-.18-3.04.27-6.168.9-9.208.26-1.52 4.29-7.778-.18-5.454-.18-1.788-.18-3.397 1.43-4.559l-1.43-.715c1.16-.447.71-1.878.98-2.325.18-.268 1.07 0 1.07-.178.09-.18-2.41-2.683 0-4.56l-2.05-.715 2.14-.715-.62-1.43 1.34-.716-.72-4.47-25.5.626c-1.432 0-2.774.715-4.206.715-54.052 1.967-108.551 5.275-162.692 8.404-31.322 1.788-62.822 5.364-94.322 6.258-2.417 0-19.062 0-20.135-.715-.627-.447-.448-1.43-.537-1.43-.448-.27-.985.983-1.701 1.161-2.237.447-.895-1.877-2.237-2.413-1.611-.626-5.369-1.252-6.891-.18l-.358-1.34 15.393-1.43-.716-2.772c4.474.179 10.649.268 14.318-2.056l.716 1.43c3.49.626 2.327-1.43 2.685-1.967 1.879-2.592 5.369-3.397 8.143-1.251l-4.206.357 1.701 2.056c2.863-2.145 6.98.716 9.843-2.771l1.701 2.056c1.432-4.56-4.027-3.218-4.743-3.576-.448-.358-.448-1.788-2.238-2.324-4.116-1.341-10.738 1.34-15.392-.268l.716-2.057-2.058 1.43c.268-2.592-4.027-.804-3.49-3.486 5.996 0 10.47-4.112 16.376-4.112l.448-2.146c1.074-.268.984 2.056 1.7 2.056.09 0 .716-.983 1.521-1.162.537-.09 1.522.536 1.611.447.09-.179 0-1.341.448-2.056 1.163-1.878 5.459-1.52 4.564 1.34h1.432l.089-1.25c4.743 2.055 5.638-3.309 7.07-4.203.179-.09 3.132-.983 3.311-.894.268.18 0 2.861 1.432 2.772l-.716-2.772c.984.537 2.416 0 3.042 0 .537.09.537 2.146 2.506 1.341l-.716-2.056 4.833-.715c1.789 2.145-1.432 3.397.358 4.828 1.073-.537 2.147-1.073 2.416-2.414.447-1.878-1.611 0-2.058-1.341 1.073-2.057 2.953-.984 3.49-1.073v-1.43h2.774c.179.983-1.701 1.162-2.774 1.43 0 .447-.269 1.43.358 1.43 1.431-1.52 3.937-1.34 5.458-2.145.806-.358 0-1.967 1.88-1.341l.716 1.34.447-1.43c3.132 1.43 1.879 0 2.864-.626 1.342-.894 2.863 0 4.116.716.627-1.878 4.922-1.163 6.98-2.772l-.358 2.056h2.059V40.41l2.774-.268v2.056c2.148-.447 2.506-1.877 4.922-.715l1.163-2.682c1.79-.268 3.58 0 5.459-.179 1.521-.178 5.28-2.324 4.654 0l.715-2.056 1.074 2.772 1.522-2.683c2.058-1.52 5.548.716 5.816.537.179-.09 0-2.414 3.491-1.341l-1.074 2.771 2.505-3.397c3.848.358 8.233-.447 12.171-1.52-.805 3.04 1.611.358 2.774 0 2.864-.804 5.459-.894 8.323-1.43l.716 1.43c4.832-3.844 13.513-1.788 19.419-3.486 2.058-.626 3.311-.894 6.533-1.073 1.342-.09 2.595 1.43 2.326-.984l2.506 1.43c1.074-1.161 4.832-1.966 6.443-1.966.895 0 3.49 1.252 5.459 1.073.269 0 1.521-3.666 2.416 1.162l-1.431 1.073h3.49l-1.432-4.202c2.953.715 5.011.894 7.696-.715.089 2.324-2.685 2.771-4.475 2.771v1.341c5.101-.357 3.132-.804 5.101-3.129 1.253-1.609 3.759-.447 5.638-.983l-2.058 3.486c2.864.716 1.969-1.43 3.132-2.771 3.222-3.397 6.354.983 6.622.715-.358-1.877.358-1.967 1.79-2.771l1.074 3.486.716-4.201 2.058.715-.626 1.34h5.101l.805 1.431 1.074-1.788-2.058-.715c.805-1.43 1.879-.358 2.684-.626.179 0 0-1.073.448-1.073 3.132 0 7.159 1.788 9.128-1.52l1.074 2.772.715-2.056 2.685.894.179 1.162 4.564-2.771c.626 2.145 1.521 1.162 3.132 1.43-.447.715-.895 1.162-.716 2.056l2.774-.715v-1.341zM763.525 48.277l-2.774-.715v1.43l2.774.715zm-9.128 17.522-5.549 1.073c2.059 2.146 4.385 1.073 5.549-1.073m278.043 3.398s-1.34-2.772-2.06-2.772c-.36 2.772 1.43 9.566-2.77 8.404l.71 6.258c2.15-.268.36-4.56.72-4.917l2.15-.447c.89-2.056-.18-5.543 0-6.08s1.34-.357 1.34-.446zm24.43 4.917-.36-4.917c-1.16.625-.8 4.56.36 4.917m-1.34 6.258.72-5.543c-1.17.268-2.15 5.275-.72 5.543m-25.86 7.688-2.06-1.162.62-4.47c-.89-1.162-2.59 8.404-2.68 9.477-.18 1.698 0 3.397 0 5.185.18.268 1.34.804 1.07-.805-.26-1.877.18-3.04.27-4.828l1.34 2.057c.54-2.146-.44-3.755 1.44-5.543zm-1.44 10.46-2.05-.715-.72 9.745 1.43-7.242 1.43-1.877zm-.71 13.321c0-1.52 1.25-2.95-.72-3.487v3.487zm-4.83 55.071c2.14-.894 1.25-3.755 1.34-5.543-1.43.805-.81 4.202-1.34 5.543m-11.19 37.012-2.06 4.202c1.34 0 .45-2.056.72-3.039.18-.805 1.7 0 1.43-1.163z"/><path d="m1139.38 77.958-2.95 1.52 1.43 1.967-1.43 1.788-.36-2.235h-4.12c1.17-1.7.09-2.325-.71-3.755l3.76 2.95-.72-3.755c1.61 0 3.31.626 3.04-1.52h.72l1.52 2.95c.27-.178 1.07.18 1.52 0l-.36-2.234 4.12 3.04c0 1.787-2.15-.18-3.04.357-.99.625-.81 1.698-.72 2.682l6.71-2.235.36 3.755c2.06-1.52-.54-3.845-.36-4.828l3.4-1.877 1.17 2.95 1.88-1.52 1.43 1.43 3.04-2.235c.72 2.682 1.52.626 2.51.894.18 0 2.23 2.772 1.61 3.576l1.52-2.235 1.07 1.52 1.88-2.235-1.52 3.755 4.12-1.52.8 1.52 1.79-.805 1.17 3.04 2.23-3.755.72 1.43 1.88-.715-.72 2.95 2.96-1.52-2.24 3.398 1.88 1.073 1.52-5.275.36 4.023 1.52.805-1.52 2.593 3.93-.18 3.94-2.77-1.16 2.95c3.58 2.324 1.79-2.772 4.11-2.236 1.17.269-1.87 2.861 1.17 2.236l2.24-8.225-.72 4.47c1.34-1.967 3.58-.626 3.67-.805.27-.268-.09-2.86 1.52-2.95l-.72 4.47 2.24 1.52.72-2.235.71 1.52c1.52-.984 1.88-1.789 3.76-.716l-.71-2.592 1.52-.358-.72 6.705c2.33.715 1.07-1.877 2.24-2.682 3.67 1.699 2.5-3.844 5.99-4.023-2.32 2.771-4.83 8.314.72 4.47l1.16 2.95c4.12-.447 4.84-2.235 7.07-5.274v2.95l3.05-2.235-.72 3.755 1.52 1.52.72-2.236 3.76.805-1.53 1.52 3.76-.358c1.26-1.072-.8-4.738 2.24-4.112v3.755l4.47-1.52c1.26 1.788-4.11 1.162-2.23 2.95.8.805 3.22-.626 3.04-2.235l1.88 2.95 1.88-1.52v4.47l1.52-2.95 1.52.537v1.698l2.6-.804.8 1.52 1.25-2.861h5.11l-.81 2.056-1.34-.536-2.33 3.218 2.24.358-.72 2.95c3.58 1.43 11.28.268 8.24 5.99-1.62.268.17-2.95-1.88-2.235-1.17.447-2.06 2.503-1.88 3.755l-2.24-.716c1.25 1.252 2.42 3.398 4.47 2.951l-.8 2.95-11.28-1.878-2.95.805 10.47 1.162c.54 2.325-1.88 1.252-3.58 2.056-.98.447-1.7 1.252-2.42 2.057l1.53 1.52-1.35 3.307-21.47 1.52-1.26-1.52c-.36 4.023-8.32.179-10.29.179-1.43 0-6.08 2.772-8.14-.179-.54 3.04-5.82.447-7.43.358-2.51 0-5.46.715-8.05.715-5.46-.089-11.46-1.43-17.01-.357v-3.04l-2.59 2.146-16.92-2.235-4.11 26.105 1.43 3.844c1.97.179.18-2.146 1.34-3.487.36-.447 1.34-.357 1.7-.983l.54 1.341 2.06-.626-.72 2.235 2.95-1.52 1.53 3.755 2.59-1.52.36 2.235.72-2.235c2.95.358 5.99 2.235 8.94.716l-1.52 2.95 2.24.804c.36-5.989 1.88 1.073 3.4.716l1.16-1.52-1.16-1.52 5.28 3.576 1.07-2.146 1.53 1.52.8-3.755 2.24.716-.72 2.235h2.24l-.63-2.682 2.87-2.593c-.27 2.146-1.79 2.95-.72 5.275l1.52-.716-.71 2.951h2.23c-.62-1.431 0-4.47 1.53-5.275l-.72 5.99c2.59-.715 5.91 0 7.87-2.235.72 3.039.9.179 2.96 0 2.68-.268 1.97 2.592 4.11 2.235l-.35-2.95c2.41.536.26 4.201 2.23 3.754 1.52-.357 3.58-4.023 6-3.754.18 0 1.88 1.519.71 1.43l-1.78 2.235 2.95.805c-.18-2.325.09-4.202 3.04-3.755l-1.52 1.073 1.52.715-1.52 1.877 2.59-.804.36 2.235 1.52-2.146 1.7.715.45-1.52 1.88 2.236.72-2.236.36 2.236h3.04l-.72 1.519c4.92 0 11.1.179 16.02.805 1.25.179 3.22.358 2.69 2.146l-2.87-.626-3.04 4.023c1.43.626 1.79.894 1.52 2.592l2.24-.715c-.36 4.47-8.24.984-9.76 3.755l3.76 1.162-1.07 1.878-4.12-1.52c1.25 2.056-.54 3.129-.71 4.112 0 .179 2.32.805 1.52 2.593l2.23-.715-.8 2.235c-3.94-1.073-7.97.715-11.55-1.431-2.5 2.504-1.07 4.292 1.88 4.828-2.95 3.397-8.77 1.609-12.97 1.878-2.6.178-3.94 2.592-6.45 0 .18 2.95-1.96.715-3.49.804-1.52.09-2.95.894-4.38.715-2.15-.268-3.31-3.218-6.44 0 .26-2.771-1.44-.625-2.15-.894-.18 0-.09-1.341-.54-1.341-1.97-.357-7.78 4.113-10.47 0l-1.43 1.52-40.81-.715c-2.24 13.321-7.16 27.893-8.68 41.214-.27 2.146 2.15 2.503-1.16 4.738l8.59 3.397.8-2.235.36 2.235c2.15-.268 4.39-.357 3.76-2.95l1.52.537.45 1.698c4.74.805 8.68-2.95 13.07-1.52l-1.53-2.235 1.88-1.519.36 2.235 1.52-.805v1.52l-2.23 1.52 9.3-2.325.45 1.52c1.16.268.36-1.162 1.7-1.699 1.16-.447 8.23-.357 8.86.269l-.72 2.235h2.24c1.79-.537 1.34-1.699.72-2.951 4.02 1.341 7.87.269 11.99 0-1.17 2.057 0 2.861 1.88 3.845l33.38-2.325c.27 2.146-.27 1.52-1.88.894l-1.88 5.901 2.95.715c-1.88 0-3.85.894-3.76 3.04 1.44 1.251 9.31-2.861 10.47 0-3.84-.179-4.74 4.47-1.52 5.274-2.68 4.023-9.48 4.023-14.23 5.633-2.23.715-3.76 3.307-6.71 2.592l.72 1.52-3.05.358 2.96 5.185c-.18.804-1.88 1.609-2.78 1.788-4.47.983-11.36.894-16.28 1.698-34.81 6.169-68.55 14.752-103.81 19.043-2.6.268-5.73-.805-8.23.358-.54-2.057 1.61-1.788 2.95-2.235-2.06-3.934 1.52-3.576 2.15-4.649.27-.358-.27-6.974.89-8.493 0-.716-8.77.983-3.76-2.235l-2.23-4.918 2.95-1.251-.72-3.308 2.96 1.52c.09-.894-.63-1.788-.72-2.682 0-5.007-.27-6.348.9-10.907 1.61-6.348.98-14.483 5.01-18.596-2.06-1.341.35-10.907 1.52-11.622.89-.536 2.06-.357 2.95-.357v-2.235l-2.95.715c2.24-12.516 4.83-25.033 7.87-37.459.54-2.146 1.7-4.292 2.33-6.705.81-3.219-.36-6.884 2.51-9.477l-1.53-1.43c-.35-1.699 1.26-.716 1.53-1.61.17-.536-.54-3.039 0-4.023-1.62.894-3.05.805-2.96-1.52l4.48.716c-.63-2.146 1.79-4.828 1.97-6.348.44-6.526 2.86-9.298 4.02-14.393.54-2.414-1.25-6.437 1.52-7.689l.72 2.235c.81-1.609-1.25-3.487-1.25-4.112 0-.984 3.04-3.666 1.25-5.901l1.43-.715c-2.95-3.576 1.79-7.957 2.06-9.03.45-1.609-1.79-4.738 1.07-5.364l-.8-2.503h2.24l-.81-2.593 1.52.358c.45-1.43-1.61-1.967-1.34-3.218.09-.537.98-1.163 1.16-1.878.9-3.933 2.24-7.51.99-11.354l1.88.715s.53-2.86 1.79-1.43c.89.983-1.79 2.324-1.97 3.308 0 .268.18 4.38 1.16 4.112 1.25-2.771 2.69-3.486 1.52-6.705 5.64 2.235 1.97-4.917 3.76-5.99zm-1.52 11.98c.45-1.341.45-2.325 0-3.755h-.72v3.755zm3.76 0c.27-1.341-.99-2.414-2.24-2.95-.27 1.34.99 2.413 2.24 2.95m29.44 14.036c-.54-.626.54-2.325-.89-2.057l-.81 2.951 2.33.357c.71.358-.72 2.772 1.07 1.878 3.76-1.788-1.61-2.95-1.7-3.129m88.95.983h-1.52v2.95h.72l.71-2.95zm-47.96 6.705s.8-2.95.71-3.755c-1.7.447-1.61 2.414-1.52 3.755.27 0 .63.09.72 0zm-84.66 9.745c.18-1.073.27-2.056.27-3.04 0-.894 0-4.917-1.08-5.185v5.632c0 .894-.53 2.772.72 2.593zm14.23 116.043-3.76-.715c-.27 1.072.27 1.609 1.16 2.235h1.43l1.17-1.431zM878.608 341.513l-1.521-8.225-1.521 7.51c-5.728-.179-3.222-8.672-4.475-12.695l-1.521 2.235s-3.938-3.04-4.922-1.52c-.537.715.179 7.152.179 8.493 0 .626-.269 2.235-1.253 1.967l-.716-14.572-1.521.357.716-2.95-4.475-1.52 2.953 2.95-2.147.358v4.112l-1.611-.804-.358 2.235-2.595-11.98-5.191 4.47-1.521-10.46 1.521.358-.716-3.398 1.522 1.52v-2.235h-2.238c1.074-2.771-.089-5.274 0-7.867.179-7.331 1.611-15.019 2.327-22.44 2.685-28.34-2.327-57.395-3.848-86.093-.626-13.142.806-26.91-.179-39.694-.268-3.129 0-4.917-3.579-4.202l1.521-2.95 2.237.715c-.805-2.325-.268-3.04-3.043-3.398 3.312-1.072 1.701-3.754 3.043-6.347l-4.116-.715-.358-8.225.805 1.43c2.774-.447 2.058-2.235 2.953-4.47l-17.987 1.52c1.7-3.129-1.074-4.47-.716-7.51 4.474.894 4.922-2.414 7.517-4.917l-1.521-.357-.358-2.235c-1.253.894-2.059 4.559-4.117 3.397 1.969-3.219 2.327-5.99 6.712-4.113l-.716-2.145 6.712-3.04-1.88 5.275c1.164-.984 1.969-3.487 3.401-4.113 1.611-.715 3.043.358 3.759 0 .268-.089 3.579-3.933 3.669-4.827h1.521c-.895 1.43-1.342 5.543 1.521 5.185-.716-2.593-1.163-6.526.358-8.94.806.894.09 2.682.358 4.023.179.626 2.148.179.716 1.967 1.342-.09 2.506 0 2.237 1.52l1.164-1.52 5.817 1.609 2.326-3.04 1.074 1.52.358-2.95c2.416 2.414 5.101 5.364 8.591 5.99l-2.953-2.593c2.327-3.665 8.77.09 10.112-3.397h1.074l1.074 1.52c1.163-.09 2.148-1.163 3.222-1.341 5.727-1.252 13.334-1.162 19.15-2.593 2.148-.536 4.654-3.665 5.459-.536 2.238-3.398 4.564-.894 6.712-1.073.626 0 1.342-.984 2.237-1.073 3.043-.358 7.338.179 10.292-.805.715-.268.626-.894.537-1.43l1.879 1.52 3.042-3.755-.358 2.95 4.117-2.95-.358 2.95c1.79-.447 2.774-2.771 3.401 0l.358-3.04 1.521 2.236c0-.626.268-1.43.716-1.788 2.506-2.146 4.027 2.503 5.19 1.788.179-.09-.537-2.146 1.522-1.43v2.234l4.474-1.52-.716 3.755 2.506-.715.537-3.04 1.163 3.04c11.813-1.43 23.446-4.47 35.259-5.99 2.685-.358.089 2.235-1.163 2.593l1.521.715c-1.253.894-1.611 4.023-2.416 4.649-1.969 1.61-13.961 2.86-17.272 4.112l-3.579 3.934 2.595 2.503 18.345-1.341c-.268 4.202-6.443 2.772-5.28 7.51l2.238-.715c0 .983.268 2.145-.358 3.039-.985 1.431-19.151 4.292-22.194 4.47l.448 2.235c-.985 1.073-3.58 1.252-4.117 2.772-1.074 3.039 3.132 2.414.627 5.096l-66.581 10.996-1.61 12.963.715-1.52c.985-1.251.985 1.163.806 1.52-.448 1.431-1.432 1.073-1.521 1.609-.358 1.431.179 3.219 0 4.739h4.474l-1.521-2.95 2.953-2.236h-3.759l1.88-3.754.715 2.95 3.401-2.235-2.148 2.503 1.522 2.682 2.774-.626 1.163 2.146c.985-1.073 1.432-2.503 2.953-3.04 1.701-.715 2.506.984 3.043-1.43l1.879 3.755 2.237-2.235v2.95l1.88-2.235 1.879 2.235.716-2.235 2.237 1.52.806-3.755c1.431-.179.358 1.52.805 2.235.089.179 2.506-.537 3.669 1.52-1.163-2.593.895-4.56 1.969-1.431l8.501-2.324c-1.342 10.102 2.327 0 4.117-.715 1.611 2.056 2.327 1.609 1.163 4.47h2.148c.984-1.878.358-2.235-.626-3.755l1.879-.715.358 2.95 2.237-2.235v3.755l21.03-1.52c.448 2.593-2.864 1.073-4.743 2.235-.805.447-1.074 2.146-2.058 2.682 1.879.268 1.342 2.235 1.611 2.503.358.358 8.054-.804 10.023-.626 5.816.447-2.506 3.129-2.685 3.487l.179 3.934c5.369.089-.806 4.47-3.848 3.129l4.474 1.073-4.116 3.397-1.074-1.52-.716 2.95c1.7-.804 2.506 1.52 2.685 1.52 1.521 0 5.548-2.235 7.069.715-3.311-.357-4.295 1.878-6.711 3.04l.358 1.43c2.058-.804 2.953 1.52 2.595 3.04-26.4 6.437-53.515 9.834-80.183 15.377-2.058.447-6.354.805-7.427 2.324-1.074 1.52-2.238 11.086-2.685 13.768-.537 3.129-.179 4.649-1.79 7.868-1.074 2.056 2.237-.537 1.521 1.519l-1.521.894.805 5.007-1.521 1.251 1.521.447-1.521 5.096 1.521.805-1.521 1.52 1.432.715c-2.058 4.381 0 10.728-2.953 14.304l1.521.358-.716 6.705-2.237-.715v4.47l1.521-2.235c0 2.95.358 11.085-.984 13.231-.179.268-.895.268-1.253.268l1.521 1.878-1.61 34.866-2.238-2.592v5.632l.806-1.878 1.521-.357v11.98h-.716c-.984-2.235 1.253-7.152-1.521-8.225v17.969zm-43.671-226.364c.806-.984 2.059-3.666 2.417-5.007l-4.475 4.917c-.537 2.057 1.879.358 2.058.179zm46.714 143.221v-4.47h-.716v4.47zm-1.521 18.685c-.716-3.129.716-6.527.805-9.388 0-.804-.269-3.397-1.521-3.397-.627 4.023 0 7.957-.537 11.98-.179 1.341.268.805 1.253.715zm-.716 8.314-.716-5.275-1.522 3.666 2.238 1.52zm-1.522 17.97v-5.275h-.716v5.275zm-99.691-195.432v1.52l3.759-.715c-.805-2.056.358-4.023 1.074-5.99 1.432 2.593 1.342 3.844 4.922 3.755l-.358 5.275 1.879-4.917 2.506.447c-.269-1.341 4.027-1.61 4.564-1.431.268 0 1.163 2.503 2.953 2.146l2.327-5.99c1.163 2.95 1.7 7.51 1.879 10.817.805 14.036-.627 28.698 0 42.734 1.432 34.062 5.548 68.66 4.027 102.544-.09 2.145 1.879 9.476.089 10.102l-.715-1.52h-1.074c.268 1.162-1.253 2.325-2.238 1.878l-4.832-4.918-.805 1.52-3.312-.536-.715 2.682-2.954-2.235-.358 2.235c-1.252-.805-1.252-2.593-2.058-3.487-2.148-2.414-1.79 1.073-3.132.537l-2.237-2.951.716 5.99c-1.343-.626-2.059-2.95-2.864-3.486-.895-.626-3.311-.805-3.49-.984-1.432-1.698 1.879-1.162 1.521-2.235l-2.326-.357v-1.878h-3.312c-.358-2.861.537-6.973-3.311-7.51l2.238-4.112c-2.417-.536-1.253-5.722-1.522-8.225l-1.521.358 1.521-4.113c-2.684-.983-.895-6.168-1.521-8.85-.179-.626-1.521-.269-1.611-1.61-.358-11.175 0-21.903-2.685-32.184-.537-2.056 1.79-6.169.448-10.281-.985-2.951-.985-.984-1.432-5.364-.447-4.381-1.969-9.388.09-13.142h-2.238l.716-2.682-1.432-.358 1.522-2.235-1.522-.447c2.059-2.593-.268-4.56-.358-5.901-.716-9.208-1.252-18.506-1.252-27.714 0-2.503-1.611-8.314.894-8.94l-1.521-4.917c1.342.357 3.043-.805 4.027-.715.448 0 .448 1.251.985 1.43 1.521.626 3.221.626 4.653 1.52l-.447-2.235-2.506-.715c3.4.536 2.327-2.504 4.474-3.755l.358 2.145h3.401c-.895 2.235-.358 3.308.895 5.186l4.295.178v-2.95l-2.953 1.52.716-3.308c.269-.804 1.163-.268 1.611-.447 0-.626-.179-5.185 1.521-3.755v3.308c-.179.894-1.074.268-1.521.447zm-13.87 5.633s-.448-2.146-1.074-.716l-1.522 1.788h3.401c1.163-.804-.358-.625-.805-1.072m522.709 43.806c-1.08 0-1.16-4.291-1.08-4.827.09-.894 1.35-4.828 2.6-4.113l-1.52-2.235 1.52.358c-1.25-4.381-.18-6.616 3.67-3.04zm-238.22 48.635-1.61-1.252 2.06-21.278c1.34 0-1.08 20.742-.45 22.44zm235.98-49.439.72 4.47-2.24-2.235-.36 4.47-1.88-2.593c2.69-.536.99-4.559 3.76-4.112m-236.79 63.028c-3.31.536-1.07-4.739-.8-6.437zm-449.056 116.4-1.611-8.851c1.163 0 1.432 2.861 1.521 3.666.179 1.698.09 3.397 0 5.096zM743.032 29.95c.268.536 1.611 0 1.342.625l-2.416 1.967c-.448-1.967-1.7-3.934.805-4.828 0 .716-.089 1.52.269 2.146z"/><path d="m1194.15 231.728.89 2.325-1.7-1.431-3.13.626c.18-1.52 3.13-2.146 3.94-1.52m-142.65 25.39c.27.447 2.06-.268 1.34 1.788l-2.5-1.162v-2.771c1.52-.269.54 1.251 1.07 2.145zm-3.49-31.916c-3.31-.268-2.86-2.235-.36-4.023zm-270.346 40.499c1.253 1.698 1.611.625.448 3.576l-1.611-4.381c.716-1.252.805.268 1.163.805M633.497 186.67c-1.522.358-2.506.536-4.027 0v-.805c1.7 0 3.4-1.43 4.027.805m-16.019 69.822h-1.611l.806-4.023h.805zm-1.611 69.823c-1.879-.447-1.7-3.129-.358-4.023zM330.664 22.976h-.806v-4.023c2.238.715 1.253 2.235.806 4.023m-2.416 20.026h-1.611l.805-3.218h.806zm904.112 115.06-3.04-.358 1.88-1.162zm-183.54 119.35.44-3.218 1.17 1.967zm158.04-123.105h-1.53v2.235h1.53zm-21.93 84.216s.81.447 1.25.357v.805h-3.22l1.61-2.414c0 .447 0 .894.36 1.252m7.7-2.057-1.17 1.61-2.05-1.252zM488.076 136.158c.627 2.861-3.132 1.252-4.832 1.609.537-1.966 3.311-.804 4.832-1.609m176.742-26.552h-4.833v.805h4.833zm714.042 21.903c.8 1.163 1.78 1.073 1.16 3.398-2.33.536-1.7-2.861-2.24-4.113.63-1.162.81.268 1.16.715zm-2.69 4.828c-1.7-.358-.36-3.934-.72-5.275 2.51.805.45 3.308.72 5.275m63.72-11.175h-1.52c-.18-1.341 0-2.146 1.16-2.95zm-48.69 4.47h-1.52v2.235h1.52z"/></g><defs><clipPath id="a"><path fill="#fff" d="M0 0h1513v442H0z"/></clipPath></defs></svg>