<svg xmlns="http://www.w3.org/2000/svg" width="1718" height="525" fill="none"><g fill="#fff" clip-path="url(#a)"><path d="M198.802 193.646h-2.99c-.534.32 2.029 5.231 2.135 5.658.214 1.494-1.921 3.202-.64 5.337l.747-2.242 2.242.748.748-2.242.747 4.056-1.495.427.321.748c2.242 1.708 4.164 2.668 6.619.747l1.068 3.629-5.872-.747 3.63.747-.748 2.242 2.883-.32-1.495 2.242c1.495.747 1.815.64 1.495 2.562l-2.669.534-1.175-1.922-2.135.641c-.64 2.348 1.815 1.067 2.669 2.135l-.427 2.241 3.63-2.241-.747 4.376c-3.844 1.068-2.883-3.309-5.445-1.494l-.427 1.494c3.31-.96 2.455 1.815-.748 1.068.214 3.843 5.339-.534 6.94-.427 1.495 3.95-2.028 1.815-3.843 2.775-2.029.961-1.815 4.164-6.086 2.456l.747 3.629c2.136 0 1.281-2.455 4.378-1.494l-.748 2.882 2.99-.32c0 2.455-8.221 3.095-8.114 3.736l1.387.427-.64 2.135c.961.854 5.552-4.27 6.619-1.495l-2.242 1.495 5.125-1.495c.641 1.281-3.203 3.416-3.416 3.523-.961.214-2.136-.854-3.203-.534 1.067 2.135 4.484 1.068 3.63 4.377-1.068 0-2.029 0-2.99-.32-5.018-1.815-.64-4.057-1.388-4.804-3.843.107-1.174 5.444-2.242 8.113.534.534 4.484-1.281 3.63 1.495h-3.63c-.213 3.523 2.029 5.978.747 9.607 2.349 0 2.776.534 5.125-.747l-2.242 4.377-2.242-2.242c1.602 1.815-.854 1.388-.747 1.815 1.601 1.815 1.494 2.348 0 4.056l2.989.748.748-1.815-1.495-.747c3.737-4.164 4.591-.961 6.619 2.241l-6.619 1.068.747 2.242 2.883-.748.747 6.192-1.494.747 1.494 2.989-2.242 1.068v1.387c2.136 0 2.029 1.815 2.883 3.31-8.755-.534-3.417 1.494 1.174 2.562.107 3.416 1.282 9.18-3.63 8.86-.213 0-.961-2.242-2.669-1.494l2.242-1.495-1.495-2.242v1.281l-1.494-.533c-1.602 3.095 2.135 4.483 2.135 4.803 0 .214-2.349 3.31-1.495 4.804l1.495-3.629 4.378.747.747-2.242c0 2.028.747 3.523-1.495 4.057l1.281.533c.855 2.135-.32 2.135-2.028 2.776-.214-.214-.534-5.338-2.242-3.63l-1.495 3.63c3.203-1.708 4.164 1.067 5.552 3.629l-2.669 4.057c2.135.427 1.067 1.921 1.494 2.775.534.961 1.922.107 1.388 2.029l-4.377-2.989v4.376c1.495 0 2.669-.64 2.242 1.495l-3.63.32 5.125 1.068v2.241l-3.63-.747c0 1.281-1.282 3.63.32 4.377 2.135.32-.214-1.708 1.815-2.562.961-.427 1.922-.427 2.99-.427 1.174 1.174-4.485 6.298-5.873 5.124v2.455l5.873.427-1.068 6.619-1.815-3.309 2.242-1.815h-2.563c-.427 2.669-1.067 2.242-3.309 3.309 3.096 1.708.854 4.377 1.067 4.804.427.961 2.349 1.388 2.67 3.309.213 1.388-1.388.641-1.602 2.135-.32 2.669 0 5.124 2.242 6.725l-1.495.854c-.427 1.815 1.282 3.523 1.282 4.377-.107 1.281-3.097 2.455 2.455 2.562 0 1.708-2.562 2.669-2.776 3.096-.64.961 1.495 4.697-1.601 5.338l2.989.32-.747 9.607 2.989.321-2.242 1.494 1.495.747-1.495 1.815 2.242.427c0 4.27-1.281 7.152-1.281 11.422 0 9.181 1.815 18.468 2.029 27.649l-1.495 1.388c0 .747 1.708-.534 1.495 2.241 0 1.815-2.136.321-1.495 2.562h2.135v2.562l-3.63-.32 1.388 6.298-1.388.321v1.067l1.495.748v1.494l-2.242 2.242c2.669 1.067 3.737 4.483 0 4.056l.213 1.495-1.815.747c.214 1.174 2.029.747 2.136 2.669 0 1.067-1.709 2.242-1.388 2.455l2.989-.747v5.124c-1.388-1.068-8.114-1.281-8.114.32l2.883 1.068-.748 2.882 1.495-2.242c1.388 1.068 1.922 1.388 3.63.747 1.922 1.708-4.164 2.029-4.377 2.242-.641 3.096 3.523.534 3.63.747v2.242l-2.242-.747 1.494 7.366-2.989-.748 1.495-1.494-4.378 1.067v1.815c3.203-1.814 7.154 1.068 2.242 1.815l2.99 1.495-.748 1.814-2.989-.747c1.601 2.455-2.242 5.017.747 6.619-.32-3.31 3.417-6.619 2.456-1.602-.747 3.737-1.495 2.135-3.096 3.523-1.815 1.601-1.282 2.562-4.805 2.455l.32 1.495-2.989-1.495c1.068 3.63 3.844 8.22 8.114 7.366l-1.494 2.242 4.377.747-2.242 1.068c-.641 1.281 3.737 2.028 2.242 3.309s-2.029-1.281-2.883-1.495v2.242c6.833-.961 1.175 6.619-1.494 8.434l2.242.32-1.495 5.871-1.388-.534c0 1.068-.641 2.029-1.602 1.281-.213-.106 1.815-1.921-.32-1.494-2.028 1.174-5.018 3.736-7.047 3.309l1.495-1.815-5.445 2.242c-.854-1.601-2.349-1.708-1.815-3.736 1.708-.214 3.203 1.601 4.377-.32-1.281-2.456-.96-3.096-4.377-3.31l.747 2.242c-1.601 0-2.989-1.067-4.697-.747-.214 0-2.136 3.95-2.67 0-4.697 4.056-1.921-3.843-.533-4.27s5.018 1.708 4.27-2.349c-.213-.213-5.125 1.281-5.445 1.495-1.068.747-1.174 3.096-2.669 2.135-.107 0 .534-1.174.213-1.922-.32-.747-1.388-1.494-1.494-2.242-.214-1.067 1.601-2.562.534-3.949.854-.534 3.63 1.174 2.989-1.495l-2.989.747c1.494-5.657-3.631-10.354-7.474-13.664l1.495-3.202-5.873 2.989v1.815c.107.747 2.99.427 2.029 3.522l-1.708 1.922c-2.67-2.135 1.815-1.281 1.067-3.63-2.135.107-4.164-.96-4.804 1.495-.748-1.388-4.271-2.776-4.805-3.416-1.281-1.388-4.377-6.619-5.552-8.327-.64-.854-2.135-1.067-2.669-2.455-.427-.961.427-2.455.214-2.669-.321-.213-2.883 0-3.63-1.921l1.494-2.562c-3.31 1.815-5.018-3.523-6.619-5.872l2.242-.747c-4.698 0-4.591-3.629-6.193-6.405-.534-.961-3.63-1.921-.427-2.775-.961-1.175-1.708-.214-2.883-1.495-6.406-7.152-15.908-25.834-21.78-35.014-4.164-6.512-12.705-16.013-13.987-23.058-.106-.534.214-1.281.32-1.815-3.736 0-5.978-.961-5.551-5.124h-1.815l.747-2.242c-2.99.32-3.096-2.242-4.378-3.843-3.95-4.91-7.9-10.461-11.637-15.799-2.776-3.843 0-4.056-6.727-3.95l.427 2.242-3.31 1.388.641-1.815-1.067-1.067-1.815.64v-3.63h-3.63l2.882 2.883c-1.174.32-.32-1.281-1.174-1.495-3.31-.854-3.524 2.349-6.727 2.349-1.921 2.242.748 3.416.534 5.764l-2.562-1.494-1.815 2.882-.748-2.989c-.747 3.096.748 5.444-1.921 7.366l-2.883-1.495-1.068 2.456-1.495-.321c-.64 2.349 2.029.748 1.495 2.562-1.388.641-1.708.854-1.495 2.562-2.882.534-1.708-4.056-4.377-3.629l1.495 4.377-2.883-.748v2.242c1.602-.64 3.203-1.494 4.377.32-.427 1.281-2.028.321-2.135.534-.64.854-.534 2.989-2.99 3.95l3.63 1.494c-1.814-.106-2.455 1.922-2.562 1.922-.213 0-3.737-1.495-3.95-1.601-.854-.961 1.281-5.018-1.602-4.27l-1.494 4.803 1.494.748-1.815 1.814-.427-2.241-4.377.747 2.242 3.629-1.495-2.241c-2.67 3.736-5.552 1.281-7.687 1.601-1.388.213-5.232 4.804-6.727 4.27-.96-.32-.213-4.911-2.242-.747l-.32-2.242-2.883.747-.747-4.377-1.495.748 1.388-7.793c1.815.213 2.883.534 4.484-.747 2.563-2.135 0-3.31.32-4.057.855-1.601 5.126-3.736 7.047-3.629l-1.494-1.068c2.028-2.242 4.911-4.163 7.046-6.191 4.057-4.057 9.29-9.394 12.065-12.917 3.096-4.057 8.969-7.793 12.385-10.889 1.068-.961 5.872-6.298 6.727-7.686 3.096-4.59 5.658-5.871 9.395-10.034.747-.748.64-2.349 1.068-2.669.534-.32 1.708 0 2.242-.107.747-.427.64-1.281 1.067-1.388 1.602-.427 3.737.214 5.339 0l-3.31-.747-.427-1.494c1.708.213 2.563-.427 3.096-2.135l1.282.64-.748-2.989c4.378-2.135 3.844.747 7.367 1.494l-1.495 5.125c1.602.32 2.136-1.068 2.242-2.242l4.378 2.242-2.242-3.63c2.456.214 4.27 1.495 6.62 0v2.242h5.124l-2.242 2.242c1.709-.427 3.096.32 4.164 1.708.214.213-.427.96-.32 1.174.534.64 3.096 1.281 3.416 2.775l-2.135 3.203 3.737-1.174 12.278 17.293c17.297 19.642 29.041 43.661 43.561 65.438.534.854 0 1.602 1.282.214.32-5.338 0-11.422.747-16.546 0-.641.641-1.068 1.068-1.495l-1.495-.854c1.388-5.017.641-10.248.747-15.372 0-1.708.748-3.309.748-5.124.32-6.512-1.815-15.586 2.135-20.603.214-.641-1.281 0-1.495-.854-.534-1.922-.106-11.209 0-13.878.214-4.376.854-5.764.748-10.248 0-16.76 1.388-34.48 2.882-50.813.214-2.455 0-4.911 0-7.259l1.495.32-1.495-1.921 1.495-7.58-2.135-1.174 2.989-2.242-1.494-4.376 1.494-.641-1.494-.854v-4.697l4.484.747-3.737-1.494c-.747-2.776 1.495-2.028 2.242-3.63l-2.242-1.174 1.495-7.686-2.136-.32c3.203-1.175 1.922-4.057 2.883-7.046l-5.125 1.068c.427-2.669 2.99-2.776 5.125-2.562 0-2.029.747-3.416-1.495-4.057l2.242-4.377-2.242-2.562c2.029.321 2.136-.32 2.99-1.814-3.737-.961-4.378-3.416 0-2.562v-5.872l-5.018-.534c-1.068.107-1.281-1.281-.854-1.601 2.135-2.348 4.484 2.029 5.124 1.495l1.495-3.63h-2.242v-2.242l2.242-2.241-2.883.747c-.96-2.455 1.922-2.349 2.243-3.309.32-1.281-2.99-3.416-1.495-5.445-.641-.533-5.552 3.843-5.125 0l7.367-3.416v-2.562c-1.388.854-2.456 0-2.99-1.494 3.524 0 1.495-4.377 4.378-2.989.747-1.174-1.708-2.989-2.883-2.989v-1.068c2.776-.96 3.524-4.91.748-5.871l1.494-1.494-2.882-.748c2.028-1.387 3.523-1.921 2.989-4.804l-1.495-.747 2.883-1.174c-.427-3.096-.427-2.669-2.883-3.63 0-.747 8.542-3.629 0-3.629l4.378-1.068c.107-1.174-1.708-.854-2.242-1.814-1.068-2.242 1.494-1.388 1.494-2.562l-2.989-.748 4.377-.427-2.882-2.135 1.388-4.376-1.495-.748 1.495-.747c-1.175-2.242-.748-3.95 0-6.191l-2.242 1.814-1.495-.747 1.495-3.309c1.494 1.174 1.708-1.068 3.63-1.175l-2.563-4.803c-.747-.107-1.495 1.067-2.135 1.174-.534 0-4.164 0-4.057-1.068 5.338-.213 7.26-2.241 10.249-6.298l-2.882-1.494 1.494-2.562-2.882.747 2.242-1.495c-.32-2.989-3.203-5.657 1.495-6.618.533-2.349-1.495-.641-2.883-1.495l2.989-1.814-2.989-.321 2.989-2.241c.214-1.175-2.028-.854-2.135-1.815 0-.427 1.708-6.085 2.135-7.046-2.989-.213-2.242-2.882-2.242-5.124 1.388.214.427 1.815 2.563 2.242 2.135.427 1.601-.747 2.562-1.922l-3.63.32 2.989-4.376-4.377.747v-2.242l2.242.748c-.854-4.91-3.203 1.6-6.619 0 2.882-2.135 1.708-1.602 1.494-5.124 2.136 1.28 3.524-1.922 3.31-3.737-.213-1.387-2.562-2.028 1.068-2.882.213-1.174-1.388-.64-1.815-1.388-.427-.64 1.174-2.989-1.815-2.989-.214-1.28 1.067-.533 1.815-.64 2.989-.747 1.708-4.057-1.815-2.242l2.989-1.495-.747-2.988-3.63.32c4.484-1.495 2.776-3.096 3.63-4.804 0 0 .961.534 1.494.32 2.243-.854 4.058-2.028 6.62-2.135l-2.029-1.388.534-2.668-5.872-.747c-.64-2.242 2.456-1.922 3.63-1.495 0-.747-.213-1.708 0-2.455.214-.961 1.815 0 1.495-1.281l-3.63-1.495c-.961 3.736-4.805 1.601-5.552-1.494-.534 0-4.378 3.095-4.057.32 3.63-2.349 9.609-1.708 6.619-7.686l1.922.64.32-1.387c2.029.854 2.029 3.202 2.243 5.017l5.765.854v-2.242l-3.63.747c-.641-3.63-4.484-4.27 1.068-6.618 2.349-.427.213 2.028.533 2.775 0 .107 2.029.534 1.282 2.349 2.455-.427.427-3.416.747-3.63h3.63l-2.989 5.872 3.309.747 1.495-1.495 2.563 2.99c-.321-4.27-1.282-9.074 4.164-9.608l.64-2.99 1.495 2.243c.534-.854 1.922-1.068 2.349-1.708.961-1.388-1.281-1.922 2.776-1.922l.747-1.494-1.815-2.99c2.669-.426 2.883.107 4.057 2.242l1.068-1.494 2.242 2.242c-.64-2.67 1.708-2.562 3.63-3.737l2.563 3.63 1.815-2.883-3.63-1.814c2.989-3.203 5.872 1.067 9.182 1.067l-.321-1.494 5.873 1.494-.748-1.494 4.378-.747-1.495 3.629 3.63-.747-1.495-2.883c4.164.641 8.542-1.067 12.812 0 .748.214.214 1.708.855 1.495 3.63-3.416 8.541-1.067 12.918-1.494v2.989l2.776-2.99c9.609.534 19.112-1.174 28.614 0l-.32 1.495c1.922.747 1.174-1.281 1.922-1.494 4.377-.854 8.328.32 12.598.427 3.844 0 8.862-1.602 11.638 1.067l.854-1.494c6.299.64 12.385-1.175 18.257 1.6 2.67-3.095 10.464-.747 14.628-1.6l1.601 1.494c.534-2.135 3.203-1.601 5.232-1.708 5.765-.32 12.491.32 18.364.32 16.869 0 32.884-.534 50.074-.213 2.455 0 7.367-2.135 8.114.854h1.815l-.747-1.495c2.669-.747 5.765 1.281 7.901 1.281 9.075 0 21.673-2.455 30.749-.534 1.281.32 2.135 1.388 2.242 1.388.854 0 .64-3.095 2.562-2.241v2.241c1.922-.64 3.417-.427 4.057 1.495l1.495-2.99 1.815.535.321 1.708c3.309-4.057 5.765-1.815 9.609-1.815 3.523 0 8.541-1.174 12.278-.747 1.602.213 1.281 2.028 1.708 1.814 1.175-1.708 4.805-1.921 6.513-1.494.747.213.214 1.28.854 1.494 2.029.748 0-1.494.748-1.494 8.221-.214 16.762 0 25.09 0 2.456 0 2.883.107 5.765 0 10.784-.534 22.315.32 33.205 0 9.182-.214 22.208-2.562 30.749-1.281.748.107 1.282 1.174 2.349 1.28.214 0 .534-2.348 2.242-1.6 2.456 0 1.388 1.387 2.883 1.6s8.435.214 9.502 0c.748-.213.214-1.707.855-1.494 4.057 3.31 10.57.748 15.481 1.495l5.125-3.736 1.067 2.241-2.242-.32 1.282 1.922c4.377 1.174 4.484-2.136 5.018-2.242.854-.107 1.815 2.135 2.882 2.241 2.242.214 4.164-.64 5.979-.64 2.456 0 8.328 1.921 8.435-1.601l-5.872.747v-2.242h6.94l1.494 3.736c1.068-.854 3.844-2.775 5.018-2.775 2.776 0 5.766 5.444 7.154.96l-2.242-1.494 2.562-1.174c1.175-.32.961 1.494 1.495 1.494 1.281 0 4.591-.106 4.377-1.494l1.816 3.203 2.242.533-.748-4.376c2.99-.32 6.833.106 8.435 2.988l1.815-1.174-1.495-1.814c2.029.533 4.805-.641 6.406-.534 1.495 0 2.349 1.174 3.63 1.28 2.243.108 10.677-4.27 12.492 0l4.378-1.6.747 1.494.854-1.495 9.823-.747-.534 1.815c-.107 1.281 4.271 1.815 3.096.32-2.028.854-2.349-1.708-1.815-2.242 1.602-1.387 2.136 1.922 3.31 1.495 1.281-3.096 7.153-.747 10.25-1.495l2.242 2.242-.32-2.242c5.551 1.282 12.278-.747 17.296-.64 2.029 0 5.018 2.989 5.872-.107 2.669 2.242 3.523 0 6.62 0 2.776 0 5.658.64 8.434 0l-.747 1.388 2.99 1.174c-.534 1.388 2.242 2.456 1.387 3.31-.854.854-3.309-2.349-4.057-2.99l-.64 1.388h-2.669c2.028-.427 3.736 3.736 4.057 3.736 2.349.214 5.552-3.843 7.687-2.241l-1.495 2.241c2.029-2.562 7.581-1.387 8.542-1.707 1.708-.855 1.921-4.911 4.377-4.911 3.096 0 1.815 3.31 1.922 3.523.534.854 3.096.32 1.388 3.096h1.815l3.31-2.562-3.31-1.815-1.068 1.494-.747-5.124h2.562l.321 1.495-.748 1.067 4.378.32-.748 2.99 5.125-1.495v3.63c2.349-1.068 2.776-.214 4.805.747-.854-2.669 2.028-2.882 1.174-5.124 3.737.64 2.029-2.99 0-1.815-1.708 1.068-.854 1.708-1.067 3.203l-3.31-2.883c1.922.534 1.174-2.028 1.922-2.242h3.309l-1.494-2.135c3.203-.854 3.309 2.67 6.619 2.242l-2.989 2.242 4.377 1.494-4.377-.747-.748 2.135s2.99-1.28 2.883.427-5.232-.427-4.377 2.562c3.309-.747 8.328.534 11.424-.107.534-.106.213-1.28.64-1.28l1.922.64c.854-1.708-2.989-2.242-2.242-2.882 1.495-1.281 5.445-1.815 7.367-.747l-.747 1.494c1.388.64 3.523.427 4.697.96 1.175.535 1.068 1.922 2.136 2.35 1.281.426 3.523-.535 5.018-.214v-2.99h3.737l-.748-2.241 3.31 1.494c2.349-2.241 1.922-2.775 1.068-5.87 2.562 2.348 2.669 3.949 6.833 2.881.427 0 .961-2.455 3.417-1.494l-.748 1.494c.961 0 2.136-.213 2.99.32 2.135 1.389-.961 6.94 4.057 2.563l1.815 1.494-.747-5.871h12.812l.427 2.242h1.495c0-2.242 2.775-2.883 3.309-.748 1.068-2.028 3.524-1.28 4.485-1.6.427-.108.427-2.136 2.562-1.282l-1.495 1.495 5.125 1.067-2.989 1.815c2.669.534 3.843-2.455 5.658-2.776 2.349-.427 5.125.428 7.581.214l-.427 2.562c-3.31-3.736-4.271.534-2.99.64 1.388 0 2.029-.427 1.815 1.602l-3.63-2.242c-1.601 5.017 3.096 2.989 5.872 2.989l-4.377 2.242h5.125v-2.99l3.737 1.068v1.815h12.491c-.427-1.281-2.669-.64-1.067-2.989l2.349 2.882c5.125 1.068 9.395-1.174 14.2 0v-3.63l2.242 1.495v-3.63c.747-.64 4.484-.64 4.484.321-1.174 2.348-1.067 3.95-3.737 2.562l1.281 2.989 6.086.747-2.242-1.494c.32-3.416 2.99-2.029 3.31.747 2.776.107 4.911.213 6.62-2.242 1.281 3.63 4.27 1.495 7.367 2.883l1.174-3.63-6.62.747.748-2.241-2.99.747v-2.99c-2.455-.32-.747 2.883-3.63 2.99v-3.736h5.125c-.32 4.163 3.63 2.028 6.299 2.775l.748-2.135.747 2.242.32-2.99c2.242.748 5.766-1.6 6.62.748l-5.552 1.388v3.736c1.068 0 3.096-.64 4.057-1.068 2.242-1.28-1.495-.64-.747-2.241l2.669-1.815c1.174-.32 3.523 4.91 4.693 1.388l-1.49-2.242h5.12l-.74 2.242 5.98.427 1.38 2.775 2.25.534-.75-5.124c1.39.213 3.31-.32 4.59 0 .96.213 4.27 5.765 5.66 2.562-2.03-1.601 0-3.523-2.99-4.377l2.99-1.815-2.88.748v-2.99l5.01.107 1.61 3.523-2.25 1.495c3.31 1.494 6.52-1.388 7.8 2.242 3.09-1.282 10.25-3.844 11.74 0l4.7-1.495-1.49-.747c-.54-3.523 7.47-1.602 8.11-2.242V9.18l2.24 3.309-2.24 1.494 3.63.748.32 2.669 3.31.747-2.24-.747.74-2.99 1.5 2.242 1.81-1.494.75 1.494 1.07-2.242-2.99-1.494c1.39-.96 3.1 0 3.95 0 .53 0 2.78-4.27 5.66-.32l-1.5 3.309 2.99-3.63 1.39 1.068c-1.6 1.28-2.35 3.416-.32 4.804 1.6-2.135 13.77-2.135 15.16-1.068.75.534-.21 2.776 1.82 2.562 1.81-1.28 1.39-3.63 4.06-2.989l-.75 1.495h2.99l.32 2.989 2.45-2.562-1.38-1.815c3.84.107 5.65-.427 5.23 4.377l4.37.747-3.63-5.124h9.61c.32 3.202-2.13-.854-2.56 2.135l-2.67-.64c.75 1.921 3.53 1.814 2.99 4.27l6.19-1.388-1.06 1.494c4.16 1.174 5.23-2.028 8.86-1.494l-2.56 3.736c3.09-.427 3.95-3.31 5.87-5.124l-1.07 2.882h5.87l-1.49-1.067 1.81-1.815c1.07.854 1.92 1.601 1.07 2.882 3.63 1.174 3.52-1.28 4.48-1.814.75-.427 1.82-.32 2.67-.641.22-.107.22-1.174.64-1.174 2.46-.107 4.06 1.174 3.21 3.736 2.45-1.281 2.99.32 5.12.747l1.5-5.124c3.31 2.029.74 2.776-.75 4.377 3.2-.213 9.18.747 12.06 0 .75-.213.43-1.388.54-1.494.43-.32 1.17 1.174 1.92 1.28 1.07.214 2.14-.854 3.1-.96.85-.107 1.92.427 2.56.32.53 0 .43-1.281.96-1.494 3.84-1.175 3.42 2.668 5.76 2.668.22 0 3.74-1.174 3.96-1.387.42-.534 0-1.602.1-2.029 0-.107 1.39.748 2.35.64 2.03-.213 4.81-2.881 6.83-2.881 1.5 0 2.57 1.387 4.38 1.6 2.24.321 4.81-.64 7.05-.747-1.82 2.563-6.09 2.136-8.86 2.242l5.12 1.495-1.49 1.494c2.88 0 4.91-2.882 7.79-2.882 1.71 0 2.67 1.494 4.38 1.601 1.07 0 1.49-2.669 4.06-1.601l-.75 1.494h3.73l-1.49-4.376 5.12.747-1.38.747.64 2.135-1.39.747c2.67.534 5.12-.533 7.69-.64 3.09-.213 4.59-.427 8-1.067.65-.107 1.18-.748 1.61-1.175 1.06 3.203 7.04 0 7.68 4.377l.75-2.242c2.14-.747.85 1.815 2.56 1.388 1.5-.32 1.92-1.921 2.25-2.028.85-.214 2.77 1.174 3.73 1.28 3.21.321 6.62-.533 9.61.748l.64-1.388 8.86 2.135-.32-1.494c2.03-.214 4.27.213 6.3 0 1.39-.107 2.35-1.174 2.89-1.174 1.49-.107 6.4 1.921 8.11 2.668l.43-2.241c1.28-.32 2.13 1.067 3.31 1.174 1.7.107 5.76-1.601 7.36-.961.75.32.32 2.669 4.06-.213-.21 3.629 1.39 2.989 1.92 0h6.52l.42-2.136c2.14-.427 1.28.748 1.5 2.136l5.87 1.6c.32-1.92 1.92-3.095.75-5.123.85-.854 4.05 2.562 2.24 3.63h9.61c.75-1.922-1.28-1.175-1.5-1.922-.1-.64-.21-3.203.43-3.203l3.2.854v4.27l1.6-.32.32-2.562c2.89 3.843 4.6 2.242 8.01 2.989.64.107.11 2.028 2.35 1.494.32 0 2.46-3.309 5.55-1.494.54-.534-2.67-4.59-.32-4.377.43 0 4.06 4.804 5.88 5.124 1.17-1.921 2.56-1.387 1.06-3.95l1.28-.533-.53-1.281c1.82-.961 1.39 1.494 1.82 1.494 1.38 0 2.77-2.135 4.69-.747v3.63l2.99-.748c.75-.747-2.77-3.095-.32-3.63 2.89-.64 2.03 2.456 3.1 2.99.75.32 4.91.96 5.66.747.1 0 .53-.534 2.13-1.067 1.92-.641 2.99-2.67 3.85.32 2.13-.854-2.03-5.231.74-5.124 2.25 0 5.56.213 4.81 2.989l.75-2.242h2.24v3.736l2.88-1.494c-.75 2.348 2.14 3.416 4.06 3.63 4.8.64 10.99-1.175 15.48-1.389.32 0 .21 1.282.75 1.388 1.38.32 6.19-.427 6.51-2.241 1.39 2.241 2.13 2.989 4.8 2.989v-2.242c2.89 0 6.62 1.815 3.74 4.377.85.64 4.06-1.068 4.38-1.495 1.17-1.815-1.82-.96-1.5-2.135 1.39-.534 2.67 1.174 3.31 1.174 1.82 0 1.92-.213 4.38 0 1.82 0 5.87.427 7.05-.64 1.81-1.708.96-3.523 5.12-2.669l-1.49 2.882s3.52-2.028 3.63 1.068l-4.06 3.309.32-2.882-2.88-1.601.75 5.124-2.99-1.495.74 2.882h-5.12v2.242l-3.63-2.242c-.96 3.203 2.03 1.708 2.88 3.31l-1.49 2.562c2.99-2.776 4.59-5.658 9.29-3.737.21 0 .64-2.882 1.81-1.387 1.39 1.814-2.88 2.562-.75 3.309 2.14.747 5.23.96 7.37.32l-.75 2.882 2.99.748-1.49-3.63 2.99-1.494c1.17 2.241-.54 4.803 0 6.832.1.533 1.28.533 1.28.64.21.427-.75 4.484 2.03 5.765 1.81-2.242-.96-3.096-1.07-3.416-.11-.427.53-1.388.21-2.242-.32-1.068-3.31-.747-.85-4.163 1.17-1.708 3.09-.32 1.39-4.057-2.14.32-2.99-.854-5.13-1.815l4.81-3.309c1.81 1.281 1.06 2.135-.32 3.31l2.24.32-1.5 1.494c.86-.107 1.92.214 2.67-.747l.32-6.619 3.63 2.242c-2.35-3.416 4.27-7.366 2.99-3.31 0 .321-4.7 3.31.75 3.31l.75-2.242c0 3.203 2.99 2.776 4.37 5.124v-4.376s3.63 0 4.06-.214c.32-.107.75-3.416 1.82.854l-2.99 2.242 3.31-1.495 1.81 2.242h-4.38l1.5 2.989-2.24.747c2.45.427 4.05-.96 5.87-2.241l2.56 2.882c2.56-2.028-2.35-1.601-1.07-4.377 2.25 1.067 5.02.747 4.38-2.242l2.24.748-.74-2.242c1.92-.64 1.28 1.067 1.6 1.28.21.214 4.05-.213 5.02 2.029-2.57.96-2.99 1.281-3.63 4.057 4.05.106 4.59-7.153 9.6-4.377l-.74-2.242 2.03-.213 3.2-3.523-3.74.32-.75 2.455-5.76 1.602v-4.377c2.78 1.814 5.98-1.815 8.54-2.242 2.14-.32 3.1 1.281 5.02 1.494 2.24.32 4.8-.533 7.05-.747.32 2.135-.43 1.174-1.71 1.601-2.35.641-4.7.748-7.16.641 1.18 2.775 3.95.96 5.88.747l-2.99 2.242h5.12l-2.24 1.815c1.6.854 2.45 1.174 2.24 3.309l5.13-5.124c0 2.882 6.94.534 9.18.64 1.07 0 1.92 2.883 5.34.641l.21-2.669c1.92-.213 3.74-1.601 5.12.32l-1.49.748.75 1.815.74-1.495h2.25c-.54 3.416 1.38 2.242 3.63 1.388v-2.776h3.73l-.74-1.494s7.47-.214 6.62 2.241l-4.38-.64-.75 5.124c1.5 0 2.56-.534 2.24 1.495l-2.24 1.494 2.99 1.068-1.39.64.64 2.669 1.07-1.495 1.18 2.242 2.88-.32c-1.39 2.348-6.62.213-6.62 2.989 1.39.64 1.81.96 1.49 2.562l4.38-2.242-1.49 2.135c2.24.107 2.13 3.523 5.12 2.99l-.75 2.24 3.63-1.494-1.6 3.63-6.51-.64c.96-1.709 1.17-3.737-1.5-3.63l.75 3.63-4.38-.748v2.242c-1.38-.747-2.77.213-4.05 0-2.56-.32-2.14-6.939-3.74 0-.96-2.242-1.07-3.416-2.99-5.124-1.49.747-1.17 2.669-1.28 2.775-.32.534-2.46.427-1.28 2.349l-13.56.854-1.92-3.736.74 3.63c-3.41 1.173-6.08 0-9.18-1.495l-3.73 2.989-1.5-1.495-7.05 2.242-.32-2.242c-1.06 1.281-3.95 2.99-5.44 2.028-.64-.427-1.07-3.736-3.84-2.775l2.24 2.242-3.31 1.494-.43-3.736c-1.49-.96-2.78 3.736-5.55 3.63-2.78-.107-3.63-3.417-6.3-3.63l.75 2.242-1.5.747 2.56-.747.32 1.494h-7.68c-3.1-.107-1.6-.427-5.23 0-4.6.534-8.55 1.495-12.82-.64l-.32 2.242c-.74-4.911-2.56-.748-3.95 0-3.63 1.814-2.56-.214-4.05-.748-2.46-.854-6.62.427-6.41-2.028l-1.17 1.495c-2.89.747-2.35-1.388-3.96-2.242v2.135l-5.87 2.348c-.64-2.562.75-1.921 1.82-2.989.64-.64 2.24-1.601 0-1.388l-3.42 1.068v1.815l-6.51-.747.75 4.376c-2.03.32-1.39-2.348-3.21-3.416-3.41-2.028-3.84-.533-5.98-.533-10.14.213-20.28 1.067-30.53.96-.96 3.203 1.6 2.242 1.49 4.377-2.45-.534-4.48-.534-6.3 1.495l-1.06-1.495c4.05-1.495.21-3.523-2.25-.747l.75-2.99c-2.03-.853-1.17 2.776-2.88 1.389 0 0 .21-1.282-.54-1.495-1.92-.534-12.27.427-12.7 0-.11-.107.32-2.562-1.82-2.882l1.07 2.882c-2.35 1.174-7.79-.747-9.07-.534-1.18.214-3.1 2.242-5.34 1.281l.32 1.495c-2.35.747-1.82-1.388-3.31-1.495-2.03-.213-10.89.427-11.43 0l.75-1.494h-2.99l.75 1.494c-3.52-1.067-8.22.748-11.42-.213-.65-.214-2.78-4.484-3.85-2.349-.1 5.124-6.83 1.922-9.29 2.029-1.28 0-2.77 1.174-4.48 1.28-5.77.32-11-1.067-16.55-1.494-.32-3.416 2.99 1.601 2.24-2.882l1.07 2.242 3.31-3.63c-1.71-.534-3.95-.214-5.55-.64-1.07-.214-.96-1.175-1.07-1.175-1.6-.747-2.03 1.922-2.56-1.921-.96 3.095.21 4.376 3.09 3.95 2.35-.428.64 2.135-1.6 1.921-2.45-.213-3.63-2.135-3.63-4.377l-3.31 3.31 2.88-.428c-.21 1.602 1.39 2.563-.32 3.63l-5.12-2.242.32 1.495-2.99.747 1.07-2.882c-2.35 4.056-7.26 2.455-10.89 3.736-.64.214-.64.96-.54 1.495l-.74-1.495c-3.63 2.776-7.9 0-11.75 1.495l-.32-1.495-.75 1.495h-1.06l-.32-1.495-.86 1.495c-.96.213-2.13-.534-2.99-.534-5.76.32-10.14.213-15.37 1.174-1.82.32-4.81-.747-6.94 0v-2.135l2.24-.747c-2.35-.961-5.55-3.096-5.87.747l2.99 2.242c-3.21.64-3.85-1.922-6.62-1.495l-.75-1.494v2.989c-2.99-.534-5.87.64-8.54-1.495l-.75 1.495-5.87-1.602.32 1.495c-4.38 1.708-8.54-8.113-11.1-1.495l-1.18-1.494c-1.28-.32-6.62 2.455-7.37 3.736l-4.27-1.494-.42 1.494-1.18-1.494c-2.67.533-5.98 2.241-8.75 1.387-.22 0-1.5-3.416-2.88.214h-1.5c-.75-3.523-4.16 2.455-4.8-2.242-1.93-.427-1.07.427-1.82 1.495l-2.24-1.495c-.21 1.602-3.85 2.242-5.23 2.135-1.18 0-1.71-1.388-2.89-1.388-.32 0-.42 3.096-4.8.748l.32-2.135-1.49 2.882-1.82-.747 1.5-1.815-1.82-1.068c-2.14 1.815-.53 5.338-4.38 4.377l1.82-2.242-2.24-.427.74-3.309-2.99 2.99.32-2.883c-2.35 2.989-5.44 1.708-6.62 5.871l-.32-3.63h-3.63l1.5 2.883c-3.42 1.495-5.66.32-3.74-3.31l-1.81-.32.32 2.99-2.99-.748.74 2.242-4.05-1.495-.75 1.495c-2.99-.427-3.2-1.601-6.19-.32l-3.31-3.416-.64 2.882-36.94 1.495-1.39-1.495-1.39 1.495-57.44 1.387.32-.747c-.21-4.056-2.24.747-2.67.747-.85.107-2.24-.854-3.524-.747-3.203.214-12.278 1.815-14.734 1.495-.534 0-.32-1.282-.961-1.495-.854-.213-1.815.214-2.989-.213-.641-.214-1.922-3.843-4.591-2.776l.747-2.242c-.64-.533-4.804 3.63-5.872 0l2.242-.427-1.495-1.814 2.883-1.495.32 2.242 3.31-3.63c-.534-.534-4.484-.213-5.552-.64-1.174-.427-1.067-1.388-1.174-1.495-1.068-.427-2.029 2.349-2.456-1.601-.961 3.843-.534 4.59 3.096 3.843 2.243-.427.855 2.349-2.242 1.922-.32 0-2.562-1.388-2.562-1.495-1.175-2.135 1.708-2.562-3.096-2.776.64 1.815.32 2.242-.748 3.63h2.99v2.989l-5.552-2.242.32 1.495-2.989.747 1.494-2.562-1.494-.32c-.214 2.775-2.029 2.028-3.737 3.309l1.494.747-1.494 2.562 3.63 2.562-4.378 1.068c1.282-3.203-.32-2.776-.427-3.203-.534-1.28-.213-2.989-1.708-3.416l-.747 2.99-4.378-.748 1.495 4.377-3.31-2.669c-3.31 2.882-5.552 3.523-9.929 3.416V60.74c-1.922.64-2.776.32-4.378-.747l.748 2.989c-3.097 1.281-3.737-1.494-3.951-1.388-2.242 0-2.776 3.203-6.619 2.242-1.282-5.23-1.709-.96-2.563-.427-.854.534-6.513.64-7.687.32-.641-.106-.427-1.494-.854-1.494-1.281 0-2.776 2.242-4.805 1.494l.321-2.989-1.709 1.068.641 1.815c-3.844-1.068-16.763 2.028-19.218-.32-.748-.748.427-2.883-1.388-3.63l-2.99.32c.747-4.91-.961-2.989-1.922-3.843-.64-.534-.747-1.815-1.708-2.349-.534-.32-5.872-.747-7.047-1.174.854 3.203-3.203 3.416-1.067 6.619-.854.854-6.086-.64-6.62 1.494l8.862 1.495v-1.708c.534-1.388 2.135-.64.854.854l2.135 1.174-1.067 1.815-4.378-1.495-.747 1.495-4.805-2.99v2.242c-.854-.64-3.203 0-3.523-.213-.747-.32-1.175-2.882-4.591-1.281l1.495 1.495c-2.029.747-2.883 1.921-5.125.747l1.495-1.495h-3.631c1.175 2.349-1.281 3.203-2.242.748l1.495-.748h-.961l-.534-1.814 2.242-.748-3.63-.32v-3.63c-1.388-.213-.427 1.388-.854 2.029-.854 1.28-4.591.427-3.63-2.029h-3.95l-.427 2.242-2.883-.747c1.174 2.669 1.708 3.63.747 6.619l-3.63-.748 2.242 2.242h-6.619c-.214-1.601 2.135-.213 2.882-.854.214-.213 0-1.174.427-1.815.214-.32.961-.32.961-.427.214-.533-.961-2.455-.533-3.523l-5.552 2.242 1.174 4.377h-3.203c-2.135-1.815 0-3.416.961-5.124l-1.495-1.495c-2.669 1.495-1.708 2.456-1.495 5.125h-2.989l.641-4.27-3.524-1.602c-.747 2.99 2.242 3.096 2.242 5.124-1.174.427-2.669.32-3.843.854-.641.214-.641 1.495-.961 1.495-1.281 0-3.203-2.028-5.445-.747-.427-2.456.747-2.776 2.882-3.096v-2.883c2.883.534 5.979-1.387 8.969-1.814l-2.242-1.495.747-2.562s-2.883.748-3.31.64c-.213 0-3.523-4.27-3.31.855l2.243.747c-4.271 0-3.631 5.978-8.862 2.989l-1.068 2.989-1.815-.32.748-6.298h-2.243l.748 2.882-2.99-.748.748 2.883-2.563-.64-2.135 2.134c-1.388 0 .427-2.882-1.495-2.242-.427.107-.427 2.242-2.562 1.495.32 1.281 3.096 2.242 4.057 2.242 1.281 0 3.523-5.231 4.057.64l2.883-2.241.427 1.494 4.271-.747c1.708.427 1.601 3.416 0 4.377-.534.213-.107-.961-.961-1.388-4.378-2.349-2.456 2.242-6.833 1.388v-2.135l-5.232.64-.32-1.494-.748 2.241c-2.242.534-1.708-1.387-2.135-1.387-.961 0-3.951.747-3.417 2.135-1.601-2.349-3.309-2.349-6.299-2.242-3.523.107-2.029.96-3.096 1.494-2.883 1.602-5.339-.213-8.328 0l2.242-.747-1.068-1.281-5.125 2.455-20.285.32v-2.988c-1.602.213-1.068 2.134-1.602 2.775-1.388 1.495-24.663-.64-28.507.213.214-2.348.427-2.775-1.815-3.629l-1.068 2.882 2.242.748h-30.428l-1.922-1.495 2.135-3.31c-6.406-3.949-1.174 2.35-4.164 4.804-3.95-1.067-8.968.428-12.385 0-1.388-.106-.961-1.6-1.495-1.6-1.174 0-3.95 1.387-5.872 1.494-2.989.213-6.619-1.174-9.929 0l2.242-2.99-3.737.428 1.495-3.31c-2.029 1.282-2.99-.213-3.737-2.241-.427-.214-1.174 1.174-2.029 1.388-2.669.64-2.242-2.776-4.591 3.095 2.456 0 3.31.534 5.873-.747l-.748 2.242c4.591-.32 1.602 2.882-1.495 1.815-1.174-.428-2.242-1.602-3.523-2.029V62.77c-1.068 0-1.922.32-2.776.533-1.601-4.056-3.416.534-4.377-2.775-3.203.32-3.097 3.309-2.563 5.978l-20.819-.427-29.575 1.067-.32-1.388h-1.068l-.747 1.495c-3.417-1.067-7.261.534-10.998 0-3.523-.427-4.591-3.096-7.687-3.736l2.242 3.63c-2.028.64-4.698-.748-6.299-.641-4.591.32-9.075 1.708-14.734 1.494-3.203-.106-2.669-.106-5.872 0-4.912.214-9.93-1.174-14.734.64-1.175-.106.427-5.657-2.242-5.123-2.776 2.455-.107 2.775 1.067 4.377l-2.989.747-1.068-2.99-.427 2.99h-18.364l.747-2.242-1.494 2.242-5.125-.32-.748-1.815 2.243-1.495-3.63-.747.64 1.922-1.388.32V68l1.495.748h-15.481l2.242-2.242c-1.922-.854-2.776-.214-4.378.747v-2.242h-2.989v3.31l2.989 1.067-7.367-.747c-.534-3.096 2.883.854 3.63-2.242l-2.776-.32.641-1.068c-2.029-.64-2.349-.64-3.63 1.068l1.495.854v2.455c-2.136-1.494-5.018 1.281-5.552-1.494l-.748 1.387-28.72 1.602c-.641-4.697-2.029-.427-5.125 0-11.531 1.6-26.372.854-38.33 1.387-5.231.214-11.851 1.495-16.976 1.602-2.455 0-1.388-1.708-2.776-1.602-4.804.427-9.289 1.495-14.84 1.922-3.524.32-7.154.96-10.677 1.067l.32-2.241c-4.377 2.348-12.598 3.416-17.51 2.775-2.455-.32-1.281-2.455-3.523-2.028l.747 2.242-6.299.747c-.534-3.95 4.271.427 5.552-4.057-1.068-.854-2.456-.96-2.99-2.562 4.912 1.388 2.99 1.922 5.125 3.31 1.602 1.067 2.242-.64 3.417-.854 2.135-.32 4.698.213 6.833.427v-2.242c2.562.64 5.445.747 8.114.747-.854-2.562-3.096-1.28-4.591-1.708-2.455-.534-3.203-3.523-3.523.96-3.096-.746-5.125-2.881-5.445-2.881-1.281 0-6.406.427-5.552 2.135l-4.057-1.495c-.641 0-.534 1.068-.321 1.495-1.174-.32-2.989.32-4.057-1.495-.534.534-1.174.427-.64 1.388.427.854 3.416 3.31 2.455 4.483h-5.872l2.99.748c-.855 2.775-7.367-1.068-8.862 0l.747 1.494c-2.349-1.388-3.31.534-4.804.747-1.388.107-4.698-.533-6.727-.427-3.203.214-10.677 1.708-13.132 1.175-1.815-.32-3.524-2.242-3.31-4.057l1.495.32c1.388-1.921-4.484-3.63-2.99 2.242-2.882.854-1.922-2.348-4.377-2.242l1.495 3.63-9.183.747.321-2.989c-1.602.32-2.029-.213-2.669-1.494h-1.388l-1.068 2.241 3.63.748h-10.036l-.32 1.494c-1.495-1.067-3.844-2.028-5.766-2.028-2.349 0-3.63 2.348-5.338.213 3.737-2.028 6.833-1.067 10.677-1.814l-1.068 1.494 5.872.747c-.32-3.202 3.096-2.028 1.495-5.87-2.456.213-4.271 2.134-7.047 1.28-.427-.107 0-1.174-1.388-1.388-1.922-.213-4.271.214-6.299 0-.641 3.31 3.737.214 4.377.748-.427 3.843-6.619 1.28-7.687 4.376-.854-2.135-1.922-2.241-4.164-2.562l-.32-1.814c-5.766 0-3.524 5.124-4.164 5.87-.214.214-1.175 0-1.495.108-.961.64-.427 1.174-.961 1.387-3.31 1.068 1.602-3.736 1.602-4.056l-1.602-3.31c-2.135.214 0 2.242-3.31.748l.534 1.28-1.281.641.427 4.697h-3.31l1.495-3.736c-2.989.64-4.591-2.135-7.367-.747l2.242-1.495-1.495-3.63-1.494.428.747 2.562-2.242-2.242-3.31 1.495 1.922 2.989c-4.164 0-4.377.747-5.125 4.376l4.057.748c-.64 6.618 4.485 16.226-3.309 20.282 2.242.641 1.494 2.029 1.494 4.057-2.242-3.096-2.349-2.028-5.872-1.495-.534 3.31 3.63-.854 4.378 2.242-4.485-.427-5.232 2.669-3.737 6.298l-.748.748-2.242-.427c-2.028 1.708 4.911 1.921 5.125 2.241.427 3.203-2.562-.427-3.63 1.815l3.63 3.309-5.125-.747 2.883 2.242-1.495 2.242 3.63-1.495.748 1.815-2.136.427v3.629h-2.242v1.815l1.495.747-1.495 2.242c2.349 2.669 1.388-2.562 3.63-.534.427.321-.427 1.708 2.242.214 1.175 1.067-3.63 3.416-4.057 4.377l-1.068-1.495c-2.028 3.416-.747 5.872-.747 9.608h4.378c-.321 2.135-4.058 1.174-4.378 1.494v3.63l4.805-2.242c1.174 2.562-1.068 6.405-4.058 5.871l-.32-2.989-1.815 2.562c3.844 4.164 5.872-.32 6.406-.427 1.815-.32 4.057.854 3.951 2.989l-1.495-.32c-.214 2.135-1.708 2.455-2.456 3.309-.32.427.32 1.068-.213 1.495-1.175.854-3.951 1.494-5.445 1.494l2.242 1.815-2.99 1.495 4.378-.427-.427-2.135 2.562-.748-.747 2.989 2.242-.747.747 2.242-2.989-.747 1.494 2.241-4.377.748 2.242 2.241c-3.523.214-4.271 3.737-4.377 6.619 1.281.214 2.775-.32 3.95 0 .854.214 0 1.815 1.174 1.495l-.747-4.377 3.95-.747 2.67 2.989c-1.815-1.175-1.068.213-2.029.64-1.495.747-3.63 0-3.844 3.736l3.844-1.387 2.029 2.882-4.378-.747c-.427 2.562-2.135 3.736 0 5.871h-3.63l.747-2.242h-3.63l1.495 8.113c1.068-3.309 1.922-5.017 5.872-4.377l-.747 2.883 3.63 1.067c-5.018-.747-5.659 3.523-9.609 3.309-.32-.213.534-2.348.747-2.989zm3.63-157.564-.321-1.495c-.64 1.602-5.231 2.776-5.445 2.99-.64.96 1.068 3.522-1.601 3.95l2.028 2.027v1.922l-3.843 2.348.32-2.241h-1.815c-2.669 2.989 2.456 2.348 1.922 6.511 2.028.107 4.164-.427 5.552 1.495l-2.67 4.057c1.709 1.921 5.019 1.6 3.737 4.803l4.378-.747-2.99 1.495c-.427 3.736.854 1.6 2.563 1.814 1.388.214 2.455 1.495 4.057 1.175-1.175-1.602-1.922-2.99-1.388-5.125h2.029c-1.175-3.95 2.455-.213 2.242-2.562 0-2.135-4.591-.533-3.63-2.241 1.388-2.456 5.658-.854 5.872-1.068.213-2.135.32-2.989-1.815-3.63-1.282-1.494 3.95-1.6 4.804-1.174v2.563l2.563.64 1.494-2.882h8.435c-.427 1.815.427 2.882-1.495 3.416 2.349 1.494.214 3.95 1.495 6.298 1.922.64 1.175-1.174 1.815-1.281.748-.214 3.31 0 2.563 1.281h1.388l1.815-1.922 2.989 1.922c3.096-3.95.107-3.096-.854-3.843-.641-.427-.961-1.922-2.029-2.776-.961-.747-2.455-.426-2.989-2.135-1.922-.213-1.708 1.602-4.057 1.495-1.175-1.495 3.523-3.096 4.377-2.99l-.747-2.24c1.708-.108 3.203.853 4.804.853 1.282 0 .961-1.388 1.602-1.494 1.495-.427 3.63 0 5.125.64.64-2.882.854-.32 2.135-.213 2.669.32 4.484-3.843 5.872 3.202l.321-5.124c2.776.534 6.085-1.815 7.367 1.495l-2.243.747h4.378v-2.562l4.484-.32c.214-1.281-1.708-.64-2.562-.748-19.646-.854-39.184.427-58.829.748l-1.175-1.922 2.883-1.815c-1.388-.213-4.911.214-4.377-2.241 2.562.747 4.591 1.494 5.872-1.495l-2.776-.534-.534 1.281-4.057-1.494-.748 2.882c-1.067-3.843 1.068-3.31 1.388-3.736zm25.09 1.494c-2.989-.854-3.95-.747-5.872 1.815 1.388 1.815 4.057.64 5.872.32zm1254.738.107-2.67-.32-1.71 2.028 1.49 2.99 2.25-1.175c.74 2.562-3.74 1.601-2.89 3.31.64 1.387 4.38 2.775 5.13.746s-1.18-1.814-1.28-2.135c-.32-1.387.21-3.95-.22-5.444zm26.58-.107-3.95-.64-1.92 2.562c0 1.601 5.02.64 5.87.32zm-1293.276.961c-1.922-2.135-1.922 0-2.456.534-.533.534-3.096-.427-1.708 1.494 1.175 1.708 4.057 1.175 5.872 1.495-.64-.96-.961-2.669-1.708-3.416zM1498.49 42.7c.1-1.921-.65-3.736-2.46-4.59-5.55.427-2.67 2.349-1.92 5.338l1.17-1.495zm-53.71 1.495-.32-2.99c-3.74 1.389-2.24 5.018-6.73 5.018l-1.38-2.028-1.07 2.989 8.11-.747c0-1.602-1.17-2.67.32-3.63l1.07 1.495zm-1120.099 0h-9.609l2.242 1.494c.107 2.242-3.737 2.349-2.99 5.872 3.097-.748 5.125-.961 8.008.64l1.601-2.028c-2.135 0-2.669-2.028-2.242-3.95.321-1.174 3.097-.427 2.99-1.921zm5.231 5.124c-.854-.747 1.602-6.192-3.95-5.124-3.31.64-.107 5.764-1.174 8.006l2.242-.747.747 2.562h4.484c-2.028-2.242-5.338-1.815-4.377-5.551l-2.242 1.494V46.97c3.95-.64 3.63 3.31 5.125 4.057.854.427 3.096-.64 4.377.427v2.882c2.456-.64 2.349-2.989.641-4.163-.427-.32-3.31.747-3.844-1.601l-1.815.64zm146.486-5.124-2.242 2.882 8.114-.747c.534-5.124-3.096.107-5.552 0zm326.282 0c-1.495-.427-4.805 1.921-5.552 1.921s-1.281-1.708-2.562-1.174v2.242l8.114-.747zm160.472.747h-2.99v3.63l-1.174-1.495c-2.883.534-4.164 1.281-3.95 4.484 2.989-.854 5.124-.534 8.007.533l1.602-1.708c-2.776-1.494-3.844-2.989-1.495-5.55zm-324.04 2.135c-2.99.214-4.698 1.068-4.378 4.377l9.609-.747-2.242-2.883-.747 2.242h-2.242zm153.959.107-4.378 2.135c3.203 7.152 4.912 0 9.609.747.214-2.455-.32-.96-1.281-1.067-1.601 0-3.95.427-3.95-1.815m320.299 0-4.37 2.135c-.22 1.28.64 1.815 1.7 2.348 4.06 2.029 3.53-2.455 7.91-1.6.21-2.456-.32-.962-1.29-1.068-1.6 0-3.95.427-3.95-1.815m166.46-.107c-2.99.32-4.6 1.068-4.38 4.377 2.88-.534 5.12-1.174 7.79.747l1.82-1.494-2.25-2.883-1.49.32.75 1.815h-2.24V46.97zm-448.429 1.495c-4.164 0-10.891-3.203-12.492 2.241l1.815-1.387 2.669.64-.747-1.494c1.708 0 3.523 0 5.231.32 1.281.213 4.057 2.882 3.63-.32zm320.299 0c-3.31.106-12.06-3.31-11.74 2.241l1.17-1.494 2.57.747-.75-1.494c1.71 0 3.52 0 5.23.32 1.28.213 4.06 2.882 3.63-.32zm281.87-.534c-1.17-.534-2.88 1.388-4.27 1.28-1.28 1.389 4.16 3.524 5.12 2.883l.43-2.242h4.06c.85-2.348-4.16-.533-4.81-.747-.42-.107-.32-1.174-.53-1.174m-787.732 5.765-7.367 1.494.748 2.242-3.631 1.494h7.367l-1.494-3.63c1.708.641 3.63.535 4.377-1.494zM320.41 60.955l-.854-1.388v3.63l5.872-.748-2.242 2.242 3.31.747-.321 1.495c.855.213 1.922-.427 2.243-1.068.854-2.028-2.883.32-2.243-2.882.214-.96 2.883.64 2.243-1.815l-2.883.64-1.175-2.027-3.95 1.28zm-131.218-.64s-5.018.96-5.124 1.814l1.494 3.31c3.951.213 4.485-1.709 3.63-5.125m320.304.106-4.805 1.388c.427 6.405 6.727 4.163 4.805-1.388m154.706.64c-1.815.428-2.776 1.068-4.057-.747l-.747 1.495c-2.242-1.495-2.029 1.921-5.766 1.388l-.427 2.241h3.951c1.494-.534-.641-2.348 3.096-2.989l.747 2.242h6.193c-.961-1.922-4.271-1.281-5.873-.747l2.99-2.99zm-424.295 3.95c-.747-.32-1.281-.32-2.028-.213 1.067 2.562 2.776 5.017 5.872 5.124.107-1.068-.427-2.242-1.175-2.882-.106-.107-2.562-1.922-2.669-2.029m-33.738 28.503c-1.068-2.776-2.349-.427-3.31-.32-1.281 0-2.669-.641-4.057-.428v2.242h2.989l-.747 2.99h5.125c-1.495-2.776-.428-1.389.747-2.883l-2.99-1.067 2.243-.32z"/><path d="m372.513 141.765 7.046-2.348c-.961 2.562 1.282 3.095 1.495 3.736 1.922 5.017 2.563 11.315 4.057 16.44 5.339.96 16.443.106 21.14 1.814 1.175.427 2.029 1.281 2.136 2.562l-1.602 1.922 5.018 2.348.534-2.989h4.591v-2.455c4.591 0 7.154.961 8.648 5.338l2.136-.641s.213 1.174.747 1.388c2.99 2.135 2.349-.534 3.096-.747.641-.214 4.485.106 6.086-.107 2.029-.32 3.63-2.028 5.872-1.495v2.349l1.922-1.601.854 1.601c2.883.854 2.776-1.495 2.99-1.495 5.872.427 22.207 5.231 28.934 7.046 2.349.64 5.658 2.455 6.833 2.775 1.922.641 6.406.641 7.901 1.175 1.067.32 1.067 1.921 1.388 2.135.427.32 1.708-.641 2.455-.427 12.492 3.202 32.244 18.147 41.106 27.541 1.281 1.388 9.075 12.383 9.289 13.451.213 1.174-1.815 2.135-1.495 2.562l3.096 1.174-1.601 1.601c6.086 3.203 3.203 6.085 3.843 10.035 0 .534 1.282.534 1.495 1.174 4.271 10.996 3.417 27.115 3.203 38.751l-1.601.854 1.494.747c-.64 2.776-2.135 6.832-2.242 9.501-.106 5.337 3.203 12.169-3.203 15.585l2.349 1.602c.214 1.921-2.242 2.669-2.349 3.202-.32 1.175.427 2.349-.534 4.911-.96 2.562-3.309 7.366-6.512 6.298l2.348 1.922c-2.242 1.494-2.455 4.163-3.843 6.084-.854 1.068-9.182 10.355-9.716 10.782-2.029 1.495-6.513.427-8.221 3.416l3.95.427c-.854 3.416-7.153 5.231-8.328 6.512-.427.427-.427 1.815-.961 2.455-2.989 3.737-4.057 1.602-4.697 2.029 0 0 .64 1.067 0 1.921-2.456 3.843-5.018 3.203-7.047 4.377 0 0 .747 1.174 0 1.921-2.456 3.096-13.453 10.889-17.296 13.985-15.802 12.49-33.739 25.62-50.395 35.548-3.737 2.241-4.591 3.629-8.861 1.708l.427 3.095-2.349-1.494-.427 2.348-5.446-1.494c.534 3.096-2.669 3.416-4.377 4.697-1.815 1.388-.107 2.882-4.911 1.815l-5.232 4.483-.427-1.494-1.922-.854c-2.455 1.388-1.067 3.629-1.174 3.843s-3.203.854-4.164 1.601-1.068 2.242-2.136 2.776c-.96.427-2.882.213-3.096.427-.534.533.854 3.416-1.601 3.416l1.601 2.775-1.174-1.601-1.922 6.191-5.445-.747.427 1.601-1.175.748-.747-1.602-.747 3.096 4.697-.427c-1.921 3.309-7.367-.107-4.697 4.697l-2.349.747c-.961 1.708-.534 5.338-.854 5.765-.214.32-4.058.641-4.591 3.63 5.765 4.59-3.524 1.067-4.698 1.921l1.601 2.349h-2.989c.213 4.056-4.057 3.309-4.698 4.056-.534.641.534 2.455-.854 2.135-1.388-3.096-2.563-6.191-3.63-9.394-.32-1.067-.641-2.455-.961-3.736-.641-2.029-1.815-3.737-.854-5.658-2.349-.854-2.349 3.523-3.524 3.95-2.028.64-.854-2.029-1.174-2.349l-2.349.747c2.029-4.27-1.495-1.494-3.95-1.601l1.601 2.349c-3.416 1.601-5.125-1.602-6.619 2.348l-4.271-1.601.747 2.349c-7.367 1.708-14.093 4.056-21.247 6.511-2.669.854-4.697.321-6.833 2.883l-1.174-2.349-2.669 1.601c-.748-3.949-6.94-3.416-10.143-3.949 0-1.068 3.843-1.495 4.377-1.495 1.495 0 3.524 2.455 5.766 1.495-.748-2.349.534-5.338-3.097-4.697l2.349-4.698c-2.455.961-4.164-1.601-6.192-2.348-.748-2.882 2.349 0 3.737-1.601l-1.495-3.843c3.844 1.601 6.833-5.338 10.89-1.602v-2.241c2.242-.321 5.552-.427 5.445-3.203l-1.601.747s.107-4.91.213-5.124c.748-1.387 4.164-.747 2.883-2.668-.107-.214-2.669 1.067-3.096-1.602h4.591l.854 2.349c-.641-4.484 5.445-2.455 8.114-1.495l2.029-2.348-.427 3.096c-1.815.64-4.698-1.068-6.086-.641-.854.214-1.388 1.495-2.135 1.815-1.281.534-3.203-.214-3.096 1.174 2.348.214 3.63.961 5.445-.747.747 2.028-3.203 3.202-3.097 3.523.961 2.348 4.805-.214 4.698-1.922l1.495 2.349v-3.95c1.174.213 2.349.534 3.63.213 1.602-.533.641-1.814 1.922-1.708l1.174 3.843c1.068-.533 1.068-5.337.854-5.551-.533-.64-2.135-.427-2.669-.96-.32-.321 0-1.495-.64-2.135-.961-.748-5.659-1.602-5.766-2.669l4.698-1.174-.427-1.495-1.922.747v-2.242c2.242-.747 4.805-.533 6.94-1.28 5.979-2.135 9.502-9.608 16.442-10.569-1.601-8.54-.64-17.4-.854-26.047 0-2.455-.747-4.697.107-7.473l-2.349-.427 2.349-1.601c-1.602-1.281-2.883-.961-2.349-3.523l1.922 1.602c.32-2.562 1.067-7.046-1.922-8.22-.427-1.495 2.029-.854 2.029-3.416 0-1.815-2.883-2.669.427-3.523v-1.174c-3.203 0-.855-6.939-.855-9.821 0-6.726-1.921-17.507.855-22.525-2.136-30.21-.855-61.595-1.922-91.805-.214-5.124-2.029-16.547-1.175-20.496 0-.427 3.737-2.776-1.174-4.377-11.531-.427-22.955-.854-34.486-1.281-1.175 0-2.456.534-3.737.427-1.174 0-13.239-1.815-10.57-4.697 1.174-1.281 1.922 2.669 4.164 2.242l2.883-2.562-1.922-1.708c-2.456 1.708-2.883 1.174-4.698-.961.32 4.377-2.135 4.59-5.659 2.562-1.494-.854-.32-2.776-3.309-.961l.747-2.776 6.086-.533 1.708-3.737c-3.096 1.281-5.445.321-8.541 0-2.349-1.921 5.445-1.281 5.445 0l-2.349-2.775 2.349-.747-4.271-3.523-.427 1.494h-1.495l-6.299-6.191h3.95l-.747-1.922 1.601-.427.748 2.349 2.242-2.669-3.096-5.551c0-3.309 11.851-3.843 14.307-4.483 2.455-.641 5.765-2.349 8.114-2.883 10.89-2.241 22.101-2.668 32.991-4.056 1.281-1.495-.427-2.989-.427-3.416.107-1.388 2.563-3.203.427-5.872l5.445.748c-.854-4.591 3.951-4.484 7.047-6.299l-.747-2.241h7.794l-1.602-1.175 2.883-2.562 4.164 2.989.427-5.444 1.922 5.444zm108.476 74.299s-1.602.427-2.776 0c-23.169-7.9-47.298-10.675-71.748-11.209-2.883 0-15.481-.32-16.442.747-.321 12.49 2.242 25.62.427 37.79l2.135 1.601-.534 10.889-1.601 1.281c3.203-.534.427 6.938 1.174 8.646.534 1.175 2.776 1.281 2.776 1.922l-3.096.427 1.601 8.967-1.601-.427 1.388 2.776-1.281 1.921 1.601.427c.641 2.135-1.388 1.815-1.601 2.455-1.068 4.164 1.388 4.27 1.494 4.697.427 1.922.748 9.821-1.601 10.035l1.601 1.174c-2.349-.64-1.708 4.27 0 4.27l-1.601 1.601c2.349.641 1.495 2.135 1.601 4.271l-1.601.427c2.562-.214 1.815 9.821 1.388 10.354-.214.321-1.281 0-1.281.214-1.282 1.494 1.388 1.494 1.494 2.028.427 1.708.748 10.782-1.601 10.782 0 .747 1.068.107 1.388.534.534.64.107 9.394-1.388 10.461 3.31 2.776.64 11.316.747 15.586 0 5.551 1.388 12.383 1.602 17.934v1.921l-1.922-1.601c-1.388 1.068.641 2.349 1.922 2.349l-1.602 1.174c3.096 1.281 2.456 2.776 2.349 5.871 1.602-.854 3.523 0 5.125-.64 1.601-.641 1.708-2.028 2.029-2.242 1.601-.961 5.979.747 4.484-4.057l2.669.855c.641-2.136 3.63-.854 5.872-2.349l-1.601-.747c-1.068-1.281 9.075-1.495 7.367-4.697h2.776v-2.242l3.843-.214v-2.241l2.029.64 1.068-.961-.748-1.921c3.203.534 8.115-1.068 7.047-4.697l3.096.747-.747-2.348c3.096 1.494 4.911-.748 7.046-2.776l-.747-1.601c2.029-.534 5.018-.427 6.406-2.349 1.068-1.494-1.388-2.989 2.883-4.163.854-.213 1.922.534 2.562.214.961-.427-.427-3.737 2.669-4.377l.748 1.601c3.63-1.281 2.989-4.483 3.737-5.337.213-.321 3.63-1.068 4.164-3.203h1.815l.854 1.494v-3.949h2.989c.748-4.484 1.709-1.922 4.164-3.203 1.922-.961 2.883-3.416 5.232-3.843l-.748-2.989c3.524.641 7.474-.854 5.446-4.697.213-.213 2.776 2.135 4.804-1.174.748-1.281-.213-2.242 0-2.989.321-1.068 1.708-1.068 2.029-1.495.213-.32-.427-1.067.534-2.241 1.494-1.708 3.737-.961 4.27-1.708v-2.135l3.203.747c.427-4.804 1.495-1.495 3.951-3.523l-3.096-1.601c3.416-2.562 6.192-.214 8.541-5.445h-3.096l4.484-3.202 1.708-7.366-3.096.427c1.281-1.281 0-2.562 2.349-1.174-.961-2.562-.641-3.416 1.601-5.124l-1.601-.747c1.815-1.922 2.135-6.512 2.349-9.394.854-12.704-.854-25.407-7.474-36.296-1.068-1.708-7.26-10.141-8.328-10.888-.32-.214-1.708.427-3.203-.107-5.659-2.349-12.171-7.579-17.083-10.675zM348.276 445.578c-3.416-1.495-2.669.854-5.445.747v5.444s2.99-.961 3.524-1.494c1.708-2.029-2.136-1.175-1.175-2.776zM1271.6 147.957l-.74 3.949 1.92-2.348 6.62 2.348-.43 1.495-5.87-1.495c.32 3.63 6.62 2.883 9.39 2.349l-.74 3.95c-2.25.64-1.28-1.495-2.67-2.029-.43-.213-3.42 0-3.53.854l.86 2.669h2.24l-1.17-2.242 5.87 3.096c.43 3.416-4.81.854-6.19 0v3.096l3.41-.854c2.57 2.562-1.92 5.337-1.07 8.647 2.14.64 1.29-1.068 1.71-1.388.22-.214 1.71.534 2.78 0 1.71-.641-.11-3.416 4.48-.214l1.6-1.601c1.82.641 9.83 21.35 11.11 24.766 6.19 16.013 11.1 32.453 15.91 48.999l-1.6 1.174 2.34.534 7.8 29.997c2.03-1.174 2.56-4.27 3.63-6.192.53-.854 2.88-.854 1.81-3.949h3.1l-1.6-1.922 2.35-6.619 2.35 1.602-.75-3.95c1.81 1.388 3.52 2.669 5.44.427l-3.84-1.174c.53-3.523 1.92-8.22 6.19-7.793-.74-1.601-1.49-2.028-1.17-3.95.64-3.95 3.31-2.882 3.52-3.096.22-.213-.75-1.708-.53-2.562.75-4.27 6.62-9.5 7.15-14.624h3.52l-.74-3.096 2.77.747c1.28-3.203-2.24-3.736-1.81-4.911l2.99-6.832 3.09.748-2.34-1.922 5.97-12.703c4.38-3.843 2.25-13.878 8.76-17.507l-.75-2.242 3.1-.427-.75 2.775 2.78-2.348c3.09 5.551 10.57 1.281 15.26 1.921v1.922c2.25.64.86-1.495 2.67-1.601 3.42-.214 5.77 2.241 9.08.854l-.75 1.494 6.73 3.203c.75 1.281-1.82 2.775 1.92 4.697l-2.35.747 3.2.534 2.35 6.512c-1.49-.748-2.56-.321-2.35 1.601l3.1-.747c-.11 4.803 1.82 3.095 2.78 3.843 2.77 2.348 3.84 5.551-1.18 4.376l2.78 2.029 1.92-1.602 1.6 2.776c-3.1.961-1.81 2.775.75 1.174 3.09 8.22 6.51 16.547 8.97 24.98 1.38 4.697 6.51 21.136 6.51 24.766 0 1.281-1.17 1.601-1.39 2.562l2.35.534 9.4 40.458-1.61 1.175c.97 0 1.71.427 2.25 1.281 2.77 5.444 5.44 20.069 7.9 27.221 2.67 7.686 5.98 15.265 9.39 22.631l-4.69 1.922c.1 2.135 2.66 3.522 2.98 3.949.11.214-.64 2.242-.1 4.484 1.49 6.192 5.55 13.878 8.75 19.429l-2.24 1.814 1.5 2.562-3.1 5.231-2.35-1.601c.64 2.348-7.37 2.028-7.79 2.455v2.242c-4.06-.747-5.13 0-7.8-3.736-4.38-6.192-6.83-15.693-9.39-22.845l-1.93 2.349c-2.02.96-2.02-1.602-2.34-1.602-1.07 0-2.78 1.495-4.06.641-.43-.321-5.34-8.113-5.87-9.288-7.48-15.265-9.83-35.014-15.38-51.133l1.6-1.495c-.96-1.067-1.7-2.028-3.09-1.174v-3.95l2.35.748v-3.096s-3.85 4.377-3.1-3.096l2.24-.427c-3.63-1.174-3.84-3.416-4.7-6.939l3.21-2.028-2.35-.427v-2.242l-2.35-.427c1.92-1.708-1.71-4.59-.85-5.444.42-.32 2.56.747 2.34-.747-3.52.32-5.87-5.231-3.52-7.046l1.92.427c-2.13-1.708-2.56-2.455-1.6-5.124l-3.09.747 1.6-3.095-2.35-.748 1.6-1.601h-2.35c.21-1.494.21-5.231 0-6.512-.11-.64-2.03-.213-1.49-1.601.96-2.776 3.73.534 3.84.427.96-3.63-7.58-2.349-3.1-4.27-2.24-2.562-3.73-4.697-3.84-8.113l5.44-.854c-2.88-.107-5.23-1.174-7.04-3.523-.54-2.562 3.52.747 3.84.427l1.6-4.697-5.02-.854-1.28 1.601-2.35-10.141c-.53.427-2.77 2.349-2.88 2.455-.21.321.54 1.388.22 2.135-4.6 8.434-10.25 16.333-14.52 24.98l-1.5-.641s.64 1.495.32 2.349c-1.49 4.59-8.65 14.518-11.42 19.749-2.89 5.551-6.09 11.529-8.54 17.187-1.29 2.989-2.35 8.86-3.42 10.675-.54.961-1.71 1.494-2.78 1.601l2.35 1.174-4.27 3.523c-.64-2.775-3.42-.961-5.55-2.242l-.75 1.495-2.77-1.601 1.17 3.095 4.27-1.494c1.28 1.281-3.84 4.27-6.51 2.455-1.07-.747.53-3.096-2.03-2.455 2.13 5.017-1.71 4.377-2.78 6.298-.64 1.174-.1 2.989-.74 3.95-.54.854-7.69 1.921-9.08.747l-3.2 5.871 2.35 1.602-.75 1.921-1.39-.534-2.45 1.282-1.93-1.602.43 2.349-2.78-3.95-5.01.854.74 2.349c-2.02-.855-4.27-.641-5.01 1.601-2.78-1.068-2.67-3.63-3.53-6.299l3.1-.747c-4.7 0-4.27-.64-5.77-4.697-1.7-4.697-2.67-9.714-4.37-14.411l1.6-.427-2.35-1.922 1.6-1.921c-3.52-.854-3.84-6.085-4.59-9.074-.96-4.163-1.71-8.967-3.95-13.344-1.71-3.416-.64-2.775-.86-5.231 0-.533-1.49-.533-1.6-.854-1.06-3.095 2.14-.96 2.35-2.775-2.56.534-2.45-1.281-3.84-2.776l2.35-1.921h-2.99c-1.5-2.349 1.07-4.27-1.6-5.338l-3.95-10.355-.75 3.096-1.92-.64-2.67 1.494c.96 3.737.85 6.619-3.95 6.192.64 1.708 3.95.32 3.09 3.523-2.88 1.174-1.92 3.309-2.99 5.657-1.6 3.737-4.27 7.153-4.8 11.209l-3.1.427 2.35 1.174c-3.41-.213.54 4.804-3.84 2.349l1.6 1.921-1.6 3.523-2.35-.747 1.6 1.921c-2.13 2.776-3.31 6.085-4.7 9.181-.21.427-1.28.534-1.28.747-.11.321.22 4.057-1.07 5.231l-1.49-.747c.53 8.113-6.09 15.906-6.3 24.232l-2.35-.747c-.53 1.815 1.39 2.882 1.5 4.27.32 4.27-2.57 2.242-4.27 2.028-.33 0-.33 1.175-.97 1.388-.96.427-2.56.32-3.09.961-1.6 1.815-1.5 8.86-7.16 7.686l1.61 3.096-2.35-.748.74 2.349c-2.56-.32-3.73-1.388-5.44 1.174l3.1.427c-.75 2.135-3.53 1.495-5.45 1.601l-.75-3.095c.32 5.124-3.84 10.034 1.6 13.237-2.98.427-5.55 2.775-8.54 1.601l1.6-2.349-4.16.854-.96-1.601-4.27.854 2.35 2.349-10.14-.748c1.7-2.882-1.82-3.522-2.03-5.017-.32-1.708 1.28-5.551 1.17-6.939 0-.32-2.88-3.629-3.84-3.202l8.11-25.193 2.78.64-.75-2.348-2.35.427 5.77-14.412c-.64-3.843.96-7.045 5.12-5.551.32-3.736-3.52-.427-3.09-2.775.85-4.697 5.44-10.675 5.44-16.013h1.6l.32 1.495 4.38-.748c-.11-1.281-1.92-.854-3.2-1.921-3.31-2.669.21-4.484 3.09-5.231v-1.815s-3.95-1.814-1.06-2.775c2.34-.747 1.6 2.455 4.27 1.494l-1.61-6.938-1.49.747 1.6-6.298c2.35-.641 1.82.96 3.52 1.601.65.213 3.53 1.067 3.53-.427 0-1.708-2.99-.214-3.74-.534-4.59-2.135 2.35-10.889 2.24-14.625h2.25l-1.5-1.815c0-3.202 2.78-5.337 3.63-7.472.96-2.349 1.6-7.046 2.67-9.074.64-1.067 1.92-1.174 2.14-1.388.32-.427-2.99-5.764 4.05-4.59.75-3.202-2.99-.534-3.09-.747l9.39-29.677 1.5 1.601c-.22-2.989-1.82-7.259 2.35-7.792l-1.5-1.175 2.35-8.22c-1.17.321-2.56 4.698-3.1 1.175l3.31-4.057 1.39.534 1.18-3.096.42 2.349c2.78.747 3.63-2.349 3.95-4.697l3.1.747-2.35-3.096 1.92-.747v-3.203l2.67-.747-.43-3.843h2.78c1.39-1.708-4.48-3.736.75-4.697v5.444h3.95l-2.35-5.444c4.48.32 2.35-4.804 6.19-3.95zm-342.934 23.485-.427 2.348 2.776 1.495c-.641 0-1.068.427-1.602.747-1.708-.427-4.377 1.174-6.192.747v-5.444h5.445z"/><path d="M928.666 171.442s.107-1.068 0-1.495l-5.338.641 1.601-5.124-1.601-.747v-1.602l1.601-.854-.854-1.921c8.648-.641 5.659-6.512-.747-3.096l1.601-2.776c-2.883-.747-1.174-4.27-1.601-6.618 3.309-.747.213 3.416.747 3.843h3.95l-1.601 2.348c1.922.854 5.018-.32 6.513 0 .64.107.213 1.495 1.708 1.602 1.068.106 4.911-1.602 5.445-2.349.32-.32-.32-2.348.427-3.202l-5.445 1.601 1.602 2.348h-1.922c-.427-3.416-2.029-1.921-3.524-3.843 4.058.854 7.688-1.387 9.396-4.697h1.495l-.748 2.349 3.844-.747.747 4.697-1.601.427c4.164 1.921-.641 5.337-1.175.427l-1.174 2.775 3.95.427v4.697c-3.203-1.494-5.445 0-7.046 2.776 2.669 1.281 4.164-3.096 6.939-1.068v10.035h-2.242l1.602 6.191c-.534.748-3.096-2.028-3.417-2.348s.321-1.388.107-1.495c-1.068-.747-2.456.641-2.989-3.202h2.349c-.321-1.601-2.776-1.922-4.164-1.601-.534.106-.534 1.281-.641 1.387-.534.214-2.669-1.494-3.737.641l6.086 1.281c1.281 2.455-.214 3.202-.641 5.337 2.99-1.174 4.698 1.281 7.794.748l-1.601 4.697c-2.563-.107-.854-2.669-4.698-.748.534 2.562 4.911 1.175 5.445 1.602l-.747 7.792-7.794-.747-.427 2.349-3.524-1.602 1.602 1.175v1.174l-1.602.32c.961 5.124 6.086 2.989 6.193 4.697s-3.63.107-3.844.427l.748 2.349-1.602-.747c-.213 1.921-.107 4.163 2.349 3.949l-.747-2.348c4.591.854 4.164-3.736 7.9-4.27v-2.669l-5.124 2.349-1.175-1.495 1.602-.747-1.602-.748h3.096c-.747-1.067-.32-2.668 1.175-2.348 1.068.213.64 3.203 2.776 2.348 2.242-10.888 3.737-21.99 3.843-33.092l3.203-1.281-3.843-1.175c3.096-2.455 1.495-8.113 2.456-10.888.533-1.388 3.096-.534 1.815-3.63l2.776-.747-.748 3.096 3.523-1.601.748 2.348.427-3.95c.854.321 3.416 0 3.95.427.748.534-.213 3.203 2.242 2.776l.748-3.95v4.697c1.067.534 7.153-4.59 7.153 1.174 0 2.456-.961 2.776-3.203 2.776.427.961 3.203 3.416 3.203 4.27 0 1.388-.534 4.697-2.349 4.377l1.602 1.921c-2.669 22.631-5.125 45.263-8.969 67.467-.213 1.067.321 2.135.107 3.309-.534 2.669-1.174 4.59-2.135 6.939l3.096 1.601h-3.95l1.601 1.281-.854 2.989 3.096.427-3.096.747v2.349h2.669l.427 1.601-1.388.427.641 1.174h-3.096l1.601 2.776-2.349.427c-.854 2.989 4.057.961 4.698 1.601.854 2.669-1.495 2.242-1.922 3.096-.961 1.708.641 4.377-1.922 3.95l3.097.747-3.097 1.601 3.097 3.096c-2.883-1.708-1.922 1.708-5.445.747-.534 3.31 3.736.107 5.445.748 1.494 1.494-2.99 8.006-5.445 7.045l1.708 2.989 2.989.427c-1.174 1.708-1.388.747-2.669.427-1.922-.534-3.63-1.388-5.872-1.494-.427 2.135.427 1.281 1.708 1.708 2.136.747 4.591 1.281 6.833 1.387l-6.192 1.922 5.445.427c-.534 2.562-4.698 1.067-5.338 1.601-.534.427-1.282 4.697.64 4.59l.854-2.989h3.844c.641 4.591-1.175 11.636-7.047 9.288l6.193 2.775-3.844 7.793 3.096.427s-.427 3.523-.854 4.057c-.427.854-1.494.533-1.494.64-.214.214 1.601 1.815 1.601 3.523 0 1.494-.961 2.348-1.174 3.523-.321 1.281 1.388 2.668-1.175 2.348v.747c1.602-.32 2.029.534 1.495 1.922-.641 1.815-3.523 0-4.698.427l3.951 2.882c-.855 3.95-.107 8.113-2.349 11.422-.748 1.068-1.282.641-2.349.641l3.096.747-2.349 1.922 2.349.427v7.793h-3.844c-.747 2.775 2.99.427 3.951 1.921l-3.951 1.174 3.097 1.175-.748 2.241-2.349-.32c-.213 3.523 4.271-.534 3.097 3.95h-2.243l-.96 4.27 1.601-.427.748 6.298-2.349 1.601c3.95-.64 5.872-2.241 3.843 3.096-1.174 1.068-2.669-4.163-4.377 0l-1.922-.854c-.641 1.174-.107 4.164-.641 4.911-.64.854-2.882.533-3.63 2.028-1.174 2.242 0 5.444.427 7.793l-3.096.427 3.096.427-.427 8.647c-2.776 3.522-6.299-1.281-9.502 1.814-.854.748-.854 2.562-.961 3.737l-1.495-.427.748-1.922h-3.097l.748-2.348c.961-.427.854 3.309 2.349 1.601 1.281-1.495-2.776-3.096-3.844-2.349 0 1.495.107 3.523-1.602 3.95-.32-3.629-5.445-2.455-6.192-5.871l1.922.427 1.174-1.922c-.534-.96-2.242-1.174-2.776-1.921-.747-1.174 0-14.732 0-17.294 0-1.815 0-2.775-1.922-3.416l1.602-1.921c-2.456-.748-5.018.427-7.26-.748-.534-.32-.534-1.387-.641-1.387-.534-.214-5.445 1.708-6.94-2.135l1.602-1.175-4.698-1.921 4.698-.427-2.349-.747.747-2.349-2.349-.747.748 2.348H900.8l1.601-2.348-3.096.427-1.495-5.124-1.922 1.601c-1.388-2.348-4.377-2.882-2.776-5.444h-2.776l-.32-3.95h-3.096l.747-3.096c-1.708 1.281-6.086-2.562-4.698-3.95 1.282-1.281 3.951 2.669 5.125 3.096l.854-1.601c5.552 2.669 3.097-2.028 1.495-2.028-.534 0-1.068 1.494-2.776 1.067-2.028-.534-2.669-1.815-1.601-3.629l-5.446-1.175 3.097-2.775c2.028 2.135 3.63 4.377 7.046 3.95l-.961-2.242h-3.736l2.348-.961c.428-.32-8.007-5.444-9.395-4.697-.214-.107 2.456-2.775 1.601-3.843-1.174-1.494-1.601 1.495-2.135 1.601-.747.214-1.708 0-2.562 0v3.096c-3.31.747-.214-3.309-.748-3.95-4.697 1.922-5.231-.106-7.794-3.522l1.602-1.175c-.748-.533-2.883 0-2.99-.106-.64-.748-2.242-4.911-3.31-6.299-1.815-2.455-4.377-5.017-6.192-7.259-1.388-1.601 1.068-2.989-1.602-2.669.321-1.494 2.67-.64 4.164-1.601.641-.427 2.242-2.882 2.029-2.989-3.95-1.601-3.523 1.708-6.833 2.989-1.815.214-3.203-2.775-2.349-4.377 0-.213 1.174-.213 1.388-.747.534-.961.427-2.669.961-3.202.64-.641 2.776 0 2.883-1.708l-3.951.747 1.602-2.349h-3.951l.748 3.096c-4.485 2.242-4.912-2.775-2.349-4.27 2.028-1.174 5.979 1.068 5.445-1.921-2.242.427-5.125 1.921-6.193-.748h3.951l-2.029-2.348c-1.708-.747-2.242 5.124-5.338 2.242-1.175-1.068.32-2.135-3.524-.748l-1.494-3.309c0-1.815 2.882-2.348 2.135-2.882-.534-.427-2.669-.214-2.349-1.922l2.349-4.27c-2.562-.533-1.495 2.562-3.096 3.523-1.175.641-2.669.32-3.951.32l1.602-1.494c-2.669-1.068-4.164-1.708-7.047-.747l1.602-3.096c-3.31-.854-3.737 2.242-6.193 3.523 1.175.96 7.688-.427 7.794 1.601 0 1.815-5.338-.32-6.192.427l.747 2.348c-2.776-.533-2.135.854-3.096 2.776l4.698.427c.427 1.921-.534 1.174-1.602 2.028l.854 1.922-3.096-.748-.747 6.192 4.591.854c.106 4.163-.214 8.753-3.844 11.316l2.349 1.174-1.922 1.494-1.922-.64 1.602 4.697-2.349.427c.32 2.242-.961 4.804 1.601 5.444v1.601c-3.843 1.708-1.708 2.456-1.921 4.804-.321 5.338 0 11.102-.534 16.226 0 .534-1.495.534-1.602.854-1.281 3.203 3.844.641 2.349 4.27h-3.096c-1.495 4.377 3.63 10.462-1.495 11.743v1.174c2.562.534.534 4.163 1.495 6.619l-2.776-1.495-1.175 3.096-1.494-.747c-.748 2.989 1.494 4.803 4.164 3.949l.427 1.922-5.445.427c-1.068 4.377 2.348 6.405-1.602 10.141h2.349l-.427 3.203-3.31 1.174.641 1.922-2.776.533-2.776-5.124h-3.737l3.096 2.989c-2.135.107-3.523-.427-4.271-2.348-1.815 2.562-1.921 7.366-5.872 6.191l-.427 3.95-1.922-.747 1.602-1.281-.854-5.658h-2.99l-1.601 2.242.427-2.349h-3.524l.748-3.949c-1.068 0-2.349-.214-3.417 0-.961.213 0 1.921-1.281 1.601 1.388-2.349-.641-5.872-.427-7.153.213-1.921 2.989-.747 1.174-3.843h2.242l.855-6.618-3.951-.427c-.64-2.455 2.349-1.174 2.349-3.416 0-.854-.854-1.815-.747-2.776l-1.495.748-.747-4.697 2.348-.748-1.601-.533c-.32-3.203.534-6.939 0-10.035-.214-1.281-1.495-2.028-1.602-3.096 0-.427 1.282-.213 1.602-.961 1.495-4.483-.961-6.938-.747-7.259 0-.106 1.921.321 2.135-2.135.213-1.708.427-7.045-1.388-6.832 2.883-4.27 1.922-11.102 2.349-16.439 1.601-17.934 3.31-36.082 4.377-54.016.214-3.416-.961-7.473-.534-10.889.321-2.668 3.204-3.736 0-4.697 2.349-6.298.214-14.945 2.563-20.816.961-2.349 3.737-2.349 2.135-6.085.641-.854 6.086 4.697 7.26 4.59 1.602-.106 6.727-2.989 6.086-5.337h2.242l-.747 1.494h2.242l.854 2.349.427-3.096h8.221l-.747-2.348c1.815-.214 2.349.854 1.602 2.241l3.523.854-.427 2.349s1.815-.641 2.669-.534 9.182 6.512 7.474 8.327h3.096l-1.601 1.921c.854 1.922 3.736 2.669 3.096 5.124l3.096-1.174 2.349 3.203-2.349 1.921 3.95.427v2.776h3.097l-.641 1.387 2.242 1.281-1.495 2.776c1.602-.961 3.737-.32 4.805 1.174.961 1.281-.213 2.669 0 2.669.107.107 1.602 0 2.669.854 1.495 1.174 1.175 3.309 1.495 3.736 3.737 5.017 7.687 9.501 11.744 15.586 1.816 2.775 5.979 4.056 3.631 8.86l2.669-.747c.64 2.455 3.416 2.135 3.63 2.348.32.321-1.068 2.135-.641 2.989 0 0 1.175.321 1.709 1.068 1.387 2.135 5.765 9.607 7.153 10.782 1.068.96 2.242.854 3.523.747l-.427 1.494-2.776.748c3.63-.534 3.63 3.949 5.979 5.444 1.175.747 3.31.747 3.417.854.213.213-1.068 3.523 0 4.697 1.601-1.174 7.58-.213 8.541.747 1.815 1.815-3.63 1.281-3.95 1.602 1.495 3.309 3.523.747 5.231.32.641-.107 1.709.534 1.815.534.214-.214-.32-2.989 2.349-3.523l-3.95-.427c2.562-2.456.961-6.939 3.95-8.22l-3.096-3.95 3.096.747-3.096-5.017 2.136-.534 2.562 1.388-1.495-1.067.748-2.029-2.349.321c.961-3.523-1.388-6.726 3.096-8.54l-3.096-.427c-.321-1.922.213-1.281 1.494-1.922l-.747-13.237 1.602-.854-1.602-.854c1.281-8.647.641-17.4.747-26.047l2.349.747c.748-2.028-1.388-1.281-1.494-2.028-.214-1.495 0-3.843-.855-5.765l1.922 2.349 3.737-.748 1.388-2.668c-2.456.747-3.63 1.601-6.299.427v-25.727l3.096-1.174-3.096-.427v-6.192l2.349.747c.32-2.562.106-2.562-2.349-2.348l.747-5.445h3.096l-2.348-2.775c0-2.776 12.918.427 12.491-4.27l-2.349.747c-.854-4.697 3.631-3.629 7.047-6.298.534.107.641 2.242 2.349 1.601l-.427-1.601c2.562 1.815 4.057 1.174 6.62-.427l-2.776-1.922-.855 1.602h-2.669c1.495-2.135-2.135-3.096-3.096-3.95zm4.164 9.18c-.641-.427-.641-1.708-1.388-2.135l-.427 2.349-.748-1.601-2.348 1.174 2.775 5.017c0-2.562 2.349-2.775 4.271-3.95.214-1.387-1.388-.427-2.135-.96zm9.929 25.941c-2.135-.747-1.281 1.388-2.028 1.601-1.709.32-3.951-.213-5.766 0l.854 1.922-1.601.854 3.096 1.174v-2.242l4.698.747.747-3.949zm-3.95 8.54-6.193.747 1.922 1.495-.32 2.455 1.601-3.096 1.602 2.776 1.601-4.27zm-13.346 114.864s-5.339.106-4.591 1.921c.534 1.388 2.776 2.349 4.271 1.922 1.494-.427.533-3.737.32-3.843m572.597-17.934h-6.19c.74-5.445-5.02-7.9-3.1-13.131 6.09.214 2.35-3.95-1.6-.854-1.5-3.736-.43-6.298 3.09-3.096 1.82-4.163.22-3.095-.74-4.483-.54-.747-.54-2.028-1.18-2.562-.85-.854-2.56-.427-2.77-1.281-.32-1.174 0-6.725-.22-7.152 0-.214-1.39-.214-1.6-1.068-.53-1.921-1.71-6.939-1.39-8.753.22-.961 1.93 0 1.6-1.281l-2.34-.427V245.42l2.45-.854c.96-2.135-3.2.641-2.35-3.843.54-2.882 2.89-2.135 4.7-3.95l-2.35.427-.75-3.843s3.53 1.708 3.1-1.601l-3.95-.427 3.52-4.27 1.93 3.096c1.06-5.231-4.7-4.591-3.85-9.394 1.82 1.494 1.39-1.388 3.85-.748l-2.35-2.348 3.95.747-1.6-3.95 3.95.748-.86-1.922 1.6-.427c0-4.27-4.37 2.028-6.19 1.601-.75-2.135 1.18-1.387 1.39-1.708.11-.213-.86-3.416.21-4.59l2.03 2.349 5.77-2.776c-1.5-2.242-3.85-2.562-6.2-3.096l4.27-2.775-.32 3.096 3.1.427-.75-1.602c.64-1.281 8.01-4.91 1.6-5.124.43-1.494.75-2.455-.74-3.522 1.06-1.922 2.13-.214 3.84-.427l-.75 1.921 1.6.427c.54-1.815.97-4.697 3.1-4.697l-1.39-.961v-2.989l2.57 1.495c2.56-4.377 5.44-9.501 9.6-12.383 2.03-1.495 1.93-1.815 4.06 0l1.6-3.95 1.93 1.494 2.77-2.668-3.1-2.669h3.96l-2.35-1.174 3.09-3.096-1.6-1.174 2.35-.534c-1.28-3.95 7.15-3.416 3.1-8.113 3.95-2.135 6.83 2.562 10.46 1.601.11-5.978 5.02-1.708 4.38-6.298-.11-.214-4.59 2.562-3.95-.748l8.86-2.348 1.28 1.601-.64-2.775 1.17-1.068 4.27.641-.74-2.349c3.41.961 4.16-2.669 8.54-.747l-1.6-2.349c4.69-.213 10.67-4.59 14.84-5.124 2.77-.32.42.961 4.7-.64 4.59-1.708 15.16-1.922 19.75-1.281.32 0 3.73 5.124 2.88 0 11.96 1.388 23.28 5.871 33.52 12.169 10.79 6.619 24.35 19.749 31.18 30.531 1.92 2.989 3.31 6.405 5.55 9.287l-1.6 1.922 3.1 1.174c.53 2.135-3.53-.747-1.6 1.922.21.213 2.45.107 3.2 1.281.64 1.067-.21 2.348 0 2.882s1.17.534 1.39 1.174c1.49 3.523 4.59 9.074 1.6 11.85l3.2.533c1.18 2.029 0 3.95 0 5.338 0 .32 3.42 2.455 3.1 5.444l-3.1 2.028c3.53-.533 1.6.961 2.03 1.602.43.533 1.5.533 1.71.96.64 1.175-.32 3.63.96 4.911l-3.1 1.174 4.7 2.349c-1.71.427-2.99 1.067-4.91.64-.75-.106-6.73-5.124-6.09-1.067.75 4.377 6.73 1.174 9.72 2.775l1.28-1.601 1.6 7.046c-2.35-.961-6.94.854-6.19 3.949l3.84-3.095c0 1.814.43 3.095 2.35 3.095v1.495c-1.49-.854-4.7-1.281-5.44.747 2.88 1.068 1.49 4.377 6.19 3.096v4.91l-7.05 2.883 1.6.747-1.6 1.174c1.07 1.495 1.6.961 2.99.641 2.35-.534.96-2.242 3.21-1.815v3.843h-2.35c-.22.107 2.24 2.882 1.49 5.017-.32 1.068-1.92 1.068-2.24 1.388-.21.214 1.28 4.27-1.28 5.338l.43-3.95c-1.82-.32-2.25 1.708-3.74 2.135-2.35.747-4.06-1.815-4.91 3.309h3.95l-.43-1.494-1.92-.748h4.7c-1.39 1.708 1.28 2.669 1.38 3.523l-3.63 4.911c-2.34 6.298-9.28 10.141-13.34 15.478-6.62-1.814-1.82 2.349-4.27 2.669l-4.27-.747 3.09 2.348-3.52 1.602c-1.07-2.029-2.14-2.562-4.27-3.096-.75 2.348 4.06 1.174 2.78 3.95-.54 1.067-8.23 5.017-9.72 4.697.21 2.455-1.28 4.27-2.35 6.191.43-2.455-.64-1.174-1.92-1.601-1.5-.427-2.88-.854-4.27-1.281-1.18-.32-.75-1.921-2.46 0-.1.107 3.1.214 0 2.669h8.54c-1.38 2.562-3.2 4.804-5.12 7.045l-2.46-1.387-1.81 1.067 1.6.854-.85 2.669c4.05-1.068 5.44 1.921 4.69 5.444l-10.89-2.348 1.6 1.601s-3.73 1.815-1.6 4.697c-1.92-.854-2.45 1.494-2.88 1.601-2.03.427-5.55-1.174-7.26-2.348l-2.46 4.59c-1.28.747-3.41-.747-4.91-.641-3.84.427-.85 2.135-7.04 0-2.03-.747.42 2.99-1.61 1.602-1.06-.748-1.17-1.922-1.17-3.096-1.49-.214-.32 1.494-.85 2.242-.22.213-4.59.854-5.02.747s-.32-1.388-.86-1.495c-1.92-.213-6.72 2.242-9.71.854l.75-3.095-3.1.747.43 1.601-3.1-2.348-3.52 1.601 1.6 2.348h-3.95l1.6 1.175-2.67 2.775-1.81-.96-.22-2.562 3.95-2.029c-1.17-1.494-1.49-2.028-.75-3.843l-7.04-.747-1.18 2.348-2.77-3.095v3.095c-2.35 0-4.7-.854-6.2-2.775l2.35-1.922c-5.12 1.602-3.95-.32-6.08-1.601-3.2-1.921-4.38.641-6.83.747l-.75-1.601-3.53 4.697.75-6.298-1.71 2.242-1.38-.641c1.17 4.804-3.53 3.63-1.61 7.793l-.74-1.601c-1.82.213-5.66 3.095-7.05 2.348l-.43-2.135-8.97 1.281.32-1.601-1.92-1.495c4.49 1.388 6.41.961 10.89 0-.42-.747-.53-2.135.43-2.241 2.78-.534 1.82 4.59 4.27 3.949v-4.163l-5.44-2.028.53 1.388c-2.24 2.562-4.38 1.708-7.58 1.708-.32-3.523 5.44-.854 6.19-2.776l-1.6-2.669h3.95l.75-3.095-5.87.747-.32-1.495 6.29-1.174 1.93 3.523 4.27-1.495-.75 3.096h5.02v-1.601c-2.14 0-1.82-2.135-3.53-.747v-2.242c-2.99 1.494-8.96-7.686-9.39-3.203l-2.35-1.601v3.843h-6.3c.21 1.281 1.18 2.669-.75 3.096.86-2.562-1.92-2.562-2.35-3.523-.85-1.815 1.71-.534 1.61-1.921h-3.1c.85 1.494.32 2.562-1.6 2.348l.75-4.697-2.35-.747.21 2.882-1.81.961v-3.096c-3.21.427-2.99-2.242-3.1-4.697-1.28-.213-.75 1.922-2.03 2.349-.96.32-2.35-.534-3.31-.854l-1.28-5.338c-1.39 3.95-5.13 3.096-7.47 4.27-.54.32-.65 1.068-.75 1.174.85 0 1.49-.64 2.35-.747l-1.6 2.349c1.7 1.601 2.56-2.883 3.52-.748.21.427-.21 1.708.43 2.349h-3.95c-.32 1.921.32 1.388 1.6 1.921v1.602l-1.6.854.85 1.921c-3.2.427-5.23-3.523-3.95-6.298l2.35.427-4.7-1.601c2.99-.214 2.99-.641 4.7-1.922zm102.28-126.393c-2.24-.961-5.55 2.135-6.4 2.135-1.39 0-6.73-2.883-9.08-3.416-2.13-.534-12.06-1.815-13.24-1.175v3.95c-1.71-.64-2.99-1.174-2.77-3.096-2.78 0-3.74 2.242-4.06 2.349-1.07.213-3.42-.854-4.81 0l-.53 2.242c-2.56-1.388-4.16 0-6.62.854l.75 1.494c-1.07-.106-1.71-.533-2.89-.213-.74.213-10.57 6.832-10.99 7.366-.11.213.21 2.241-.22 2.989l-.74-1.602-6.62 6.192c-1.07 1.815 2.56 3.843 4.27 3.096l-1.6-1.175 3.52-1.174.43 1.922c-2.99 1.067-6.41 4.376-9.4 2.775-.43 2.135.43 1.174 1.6 1.922-1.6 1.174-2.88 1.067-2.35 3.522.43.427 4.06-.854 3.95.748-2.45.213-2.77 2.668-3.09 4.697l-2.35-.748c1.39 10.035-3.74 18.468-2.24 28.503 0 .427 1.17.32 1.17.534.32.854.21 1.067.86 2.882 2.02 4.91 1.17 7.045 7.04 9.928l-1.6.747c2.03 1.601 4.38.747 5.45 3.95l-3.1.747 3.84.534c1.71 1.174.75 4.377.86 4.483.21.214 1.71 0 2.67.854 1.6 1.388 2.45 4.911 5.12 5.872l-1.6 1.174c.96 0 2.03.213 2.88.64 4.06 2.242 6.3 4.911 9.61 6.192 6.09 2.348 13.03 4.483 18.37 6.405l5.87-.641-1.6 2.349c2.03-1.281 4.8-2.135 7.26-1.601.64.106.53 1.601.85 1.494 1.92-.213 5.55-2.989 8.22-1.494-1.39-7.259 7.05-5.658 11.75-4.697l-1.61-2.349c3.63-1.174 12.92-1.708 15.38-4.163.43-.427 0-1.495.75-2.028 1.6-1.068 6.19-1.922 7.68-3.096 4.38-3.096 5.88-12.277 5.34-17.294-.32-2.989-3.41-9.074-.32-10.461l-1.6-2.349 1.6-.747v-1.601c-2.24-2.456-1.71-9.394-2.77-12.917-.54-1.708-1.07-3.523-1.93-5.124l3.85-1.922h-4.7l3.95-3.096c-5.66 2.349-3.63-.64-4.38-2.455-.74-1.921-2.03-2.882-2.45-5.231-.22-1.067.53-3.736.42-3.949-.64-.854-2.02-.321-2.77-3.096-.54-2.135.64-5.871 1.39-1.708l1.49-1.174c0-.748-7.05-3.95-6.73-6.299.11-.96 1.82-1.387 1.29-2.775l-2.25.747c-.96-2.348-2.13-2.455 0-4.59-4.27 1.494-3.73-3.416-4.37-3.95-1.18-.854-3.63-.961-4.81-1.815-.53-.32-.85-2.028-1.39-2.135-.1 0-.96 1.388-2.34 1.495-.75 0-6.3-.854-6.62-.534l-.86 1.388v-1.388zm42.28 3.736c-.85-.854-1.28-.854-1.17.747 0 1.281-1.92.748-1.18 3.096l3.1 1.174c-1.6 2.242-2.24.534-3.84-.427l.85 2.669c-.85.747-1.71.107-1.6 1.495.1 4.697 3.31.747 4.7 4.376l-9.83-.747-.42 1.495c2.45-.214 4.37.427 4.69 3.095l1.61-3.095.74 3.095 3.42-3.095 2.03 1.921-1.6.747c1.38 2.135 2.03 4.057 5.01 3.523 1.82-.32 2.14-2.348 3.95-.854.75.641 1.18 2.028 1.93 2.776-1.18 2.348-3.53-1.281-3.1 1.921l3.95.747-.85 2.669c2.99 1.281 2.88 4.697 1.6 7.473.96.32 3.41 0 3.95 1.174.75 2.028-4.06.854-3.84 2.669 2.77-.534 2.77 1.921 3.95 2.775.74.534 2.34-.64 3.09.748-2.45.32-2.24 2.668-4.7 1.174l3.1 3.096c-1.92.533-5.98-.534-7.05 1.601 4.38 1.601 6.84-1.174 10.89-1.495-.1 1.708-2.67 1.175-2.99 1.708-.32.427-.42 4.911-1.81 6.085l-2.24-.747-.75 1.921 1.6 1.175c-2.45-.321-1.6 4.376-2.35 6.298h2.35l-1.6 1.601c3.31-.534 3.1 2.135 2.35 4.697l-3.1-.747-2.35 5.017c.32 1.495 5.34.641 4.7 3.523-3.84-2.028-4.38 1.388-7.79 1.601 1.39 5.018 4.05 4.804 8.65 3.523v-3.523h2.34l-.42 3.95c1.17-2.135 4.05-4.804 4.91-6.832.85-1.815.64-4.59 1.39-5.658.42-.64 1.81-.64 2.03-1.281.1-.854-.86-2.989-.86-4.483 0-3.31 1.18-6.619-.75-9.394 1.18-2.029 2.35 0 4.27-.321 1.93-.32 2.25-1.494 1.93-3.202l-6.2 1.601 3.1-1.921-4.7-.427c.96-1.602.75-4.804 0-6.512-.53-1.174-2.88-.32-3.09-2.135.96-.214 3.63.854 3.09-1.174-1.28-4.804-5.87.427-6.19-4.271 2.03 1.815 2.99 1.281 5.44.748l-1.6-3.096c-1.17-.427-.64 3.096-2.35 1.601-.21-.213.75-1.067.54-1.388-.11-.213-2.35-1.601-2.14-3.309l5.45-1.601-1.6-3.843 3.95-1.601c-2.99-1.922-5.66.96-7.37.854-.43 0-.32-1.495-.96-1.602-1.6-.427-3.95.214-5.77 0 .96-3.309 5.98-.533 6.2-.747.85-.64 1.6-4.27-1.5-3.202v-3.096h-2.45l1.6-2.669-2.35-.427 3.09-3.096h-7.79l.75-2.348-2.35.747c.64-2.669-.64-3.202-2.56-4.377-.32-.213-4.06-1.067-4.27-1.174-.64-.427-.64-2.669-.97-2.989zm18.9 11.529c2.24 2.028 3.74 0 5.23-1.708-1.17-3.096-8.22-.961-5.23 1.708m12.06 27.008c-1.17-.641-5.76-1.388-5.23 1.281l4.7-.747.75 2.669c1.17 1.601 5.34-.321 3.2-1.495-.75-.427-1.81.32-2.35 0-.42-.32-.53-1.388-.96-1.601zm15.91 22.418c-5.44-2.562-5.55-3.63-4.69 3.095l3.84-.854-.64-1.387 1.39-.854zm-35.02 25.62-1.71-2.242c.75 2.135-2.34 4.163-2.34 4.377 0 .534.74 1.281.64 1.708 0 .213-2.99 1.067-2.25 3.202l5.45-3.095c.21 2.028 1.6 5.017 3.95 3.522-1.82-1.708-3.63-2.989-3.1-5.871 2.99 1.281 4.17-1.494 4.49-1.601 1.28-.214 3.31.854 4.91 0-1.07-1.708-8.01-2.455-8.22 0zm23.28 7.152-5.45-1.601v4.697c1.28.64 5.88-2.562 5.45-3.096m-165.6 13.237c.32-.64 1.28-1.494 1.39-2.028.11-.854-2.56-5.231-3.42-6.512-.64-.961.11-2.028-1.92-1.494l1.18 7.045 2.77 1.174c-2.67 0-5.55 5.124-1.6 5.124-.53-1.921 1.28-2.668 1.6-3.095.22 1.921.43 3.629 2.35 4.27-1.07 1.708-2.35.427-3.95.427-.32 1.388 1.49.32 1.6 1.174.22 2.882-1.92 5.444 3.95 4.59 2.03 3.63-6.62 0-3.95 2.669.75.747 6.3-.427 7.48 3.096l3.41-1.495c-.75 4.377.64 4.911 3.95 7.046.32-.747 0-2.669.43-3.096 1.07-1.388 3.2-.854 3.42-2.348h-3.1l.75-2.989c-2.46-.854-3.95-2.883-5.77-4.484-.32-.32-1.39-.107-1.71-.534-1.7-1.814-2.45-7.045-7.26-6.085l2.35-.747c-.32-1.708-2.45-1.174-3.95-1.601zm152.36-6.191-1.5.427v1.601l-2.02-.427-.43 1.494c2.13-.854 5.44 1.602 6.62 1.602.53 0 0-2.135 1.49-1.602l1.92 1.602-.85-3.096-5.44.747v-2.348zm-160.15 17.187c-1.07-2.242-4.38-2.349-3.95-5.445-1.6-.213-.32 2.669-.75 3.096-.21.214-4.16-1.388-5.13 1.601l-.42-1.601c-1.71-1.601-2.67 8.647 3.09.747.32-.213 6.2 5.551 4.92 1.922l2.13-.427zm101.53 26.474-.74-3.523-4.7.427c-.75 2.562 4.59 3.95 5.44 3.096m-518.67-171.015c3.09-1.922 4.59 4.056 5.87 0h1.6l3.2 2.242 1.5-4.591c2.24 3.31 2.88 5.018 7.36 5.445l-4.69-4.27c-.22-2.029.32-.748 1.38-.641 2.14.32 3.74.854 5.56 1.922l-.64 2.882c2.45.534 2.88 3.736 3.84 5.978 5.23 13.023 7.79 30.637 10.57 44.515.96 4.91 3.31 10.355 3.52 15.692h-.85v-.747l-.75 1.495c1.92 2.989 2.78 4.163 3.2 7.792.43 3.63.22 1.708.65 3.31 1.06 4.056 1.17 8.326 2.34 12.383l-1.49 1.067s1.07 0 1.28.214c2.24 3.095 3.63 21.777 5.34 27.114.85 2.562 3.42.321.43 3.843h2.34c-.21 2.135-.85 5.231-.74 7.259.74 9.928 5.23 24.446 7.47 34.588.54 2.348.64 5.871 1.07 8.326l2.35.534c-2.67 2.669-.43 5.338.32 8.22.1.534-.54 1.708-.32 1.921.21.214 2.67-.427 3.09 2.029l-2.34-.427v1.494l3.84.747v3.096c1.81 1.174 1.6-2.455 2.35-1.601.64.747.64 2.562 2.77 3.096l1.93-2.349c.74 3.95-3.53 2.882-5.66 4.057-3.21 1.708-.32 2.135 0 2.455.42.64.21 1.601.85 2.028 1.39 1.174 4.7 1.708 6.51 1.495l-2.35 1.601 1.5 8.54-3.95 1.174 3.74 2.135c-.22 1.281 0 9.821 2.56 6.512-2.14-3.202.32-2.455 1.17-3.523.64-.854-.64-3.843 2.03-3.096v4.591h-2.35v2.348l2.35.427-2.35 6.619 3.85-.747c1.17 2.668-2.67 2.562-2.35 4.27l5.12 1.921.43 3.203-3.1.747 3.1 2.348-2.35.427 4.7 1.175-3.85 2.668 2.03 2.669 2.67-.64-.32 3.202c-1.17 1.708-5.02-.64-4.38 2.242 2.35.214 4.17 1.708 5.88-.747 1.28 0 3.09 7.579.42 5.444-.21-.213.64-2.242-1.6-1.601v3.096h2.99c1.39 2.668-.32 5.551-3.31 4.59-1.39-.427-.53-2.989-2.77-2.242v3.096l1.6-.747c-2.24 4.483 4.91 3.522 3.95 0 2.24-.748 1.17 1.387 1.92 1.601 2.14.427.32-1.815 1.92-1.601.32 5.017-10.35 4.59-10.68 9.073-.21 3.203 2.78 3.416 5.24 3.416-.96 2.776 1.6 5.231 1.6 8.22 0 .641-3.1 2.883-1.6 5.765l2.67-2.349 2.77 4.27-3.09-1.174-1.18 2.349c-.85-2.669-6.51.427-5.12 1.601 3.31.32 4.27 1.174 7.58.961 4.37-.214-.64 2.241-.54 4.483l-1.6-2.242c-3.63.534-1.71 4.057-3.2 6.512-.86 1.388-3.53 1.281-4.17 3.63l-4.27-3.843c.54 1.067 0 3.629.32 4.376.43 1.175 2.99.854 2.03 3.523-3.09-1.601-4.38-2.135-6.72.747l-3.42-1.494c2.13 3.523-.21 3.629-1.92 6.191l-.43-4.27c-.85-.533-1.81.321-2.67.214-2.35-.534-.53-2.776-3.63.961 1.07-2.562-.32-2.776-1.6-4.697l3.1-1.602-4.7.748c-.32-1.495.11-1.815 1.49-1.922 3.1-.427 6.84 2.562 6.3-3.523h-3.41l-.43 3.096-.75-2.348-4.7 1.601c-.42-2.028.43-1.388 1.5-1.922 3.09-1.708 7.47-1.921 7.04-6.618-2.34-.747-3.41 2.669-4.37 2.989-1.18.32-2.99-1.281-3.42.854l3.1.427-4.27 1.921c-2.03.534-.86-2.775-1.93-3.843 1.93-.747 4.92-.96 5.66-2.882l1.39.534.75-5.445s4.59 4.164 5.44.748l-7.04-1.601c.85-1.602 2.24-5.125 0-6.192 0 3.309-4.59 3.95-2.78 7.793l1.92-3.096v3.416l-2.77 1.174.42 3.203h-4.59c0-1.922-1.6-3.416-1.49-5.231.32-4.697 1.17-9.074.64-13.771 0-.534-5.34-2.562-.43-4.377l.43 2.029 3.1-.748c-2.14-1.281-2.46-3.522-5.45-2.775-.75-3.309 3.31-.214 3.95-.747-.21-3.416-4.48-7.259-5.44-2.349l-2.25-1.281.64-3.416 3.95.747-1.6-3.522 1.6-.748-1.92-1.174-.74 1.495-3.42-.641-.86 3.096-2.34-1.174 1.6-.748-1.6-4.27 3.09 1.602-.85-4.164 3.63-2.882 1.17 1.601c1.5-3.629-.75-4.056-1.81-6.191-.22-.534.32-1.495-.11-2.349-.21-.32-4.59-4.804-5.02-3.202 1.07-2.456 0-3.95-.85-6.192l-2.24.427-.75-.961c-.22-2.455 1.17-3.843-.86-5.764l2.35-1.174c-.53-1.281-2.13-.427-2.24-.534-.85-1.068-2.56-9.821-3.42-10.675-.53-.534-2.24-.214-2.88-1.388-1.49-2.348 2.56.747 2.24-1.494-.32-1.815-.96-4.484-3.09-4.377 2.99-4.484-2.89-11.209-1.6-16.333h-2.35c-.96-1.922 1.6-1.388 1.6-2.028.11-2.349-3.1-12.383-3.74-15.799-1.92-10.569-3.2-21.351-5.66-31.812-3.2.747-5.55-.854-5.98 2.882-6.4 1.388-13.77 7.686-19.85 8.967-1.29.214-2.78-.64-3.1-.427-.21.107 1.6 2.882-2.67 2.989-2.46 0-2.35-2.348-3.2 1.708-5.02.961-9.4 3.843-14.42 5.017-3.31.748-13.02 2.349-16.12 2.029-1.49-.214-.96-1.388-1.49-1.495-1.5-.213-4.7.534-6.62-.107l2.35-.747c.53-1.708-.64-2.135-1.93-1.494-.85.427-4.48 7.152-3.52 8.54l-7.79-.748c1.17 2.562 5.12 0 7.04 1.922-1.28 2.028-3.84 10.675-5.87 5.871-.43 1.602-3.42 3.95-2.77 4.697 6.08-3.095 4.16 3.096.96 4.804l.64 1.388-4.7.747 3.1 2.776-3.85 9.714-4.59-.747 3.95 1.601c.86 1.815-2.03 3.096-2.13 3.309-.22.427.42 1.388.21 2.135-1.07 3.523-3.31.214-2.78 3.096l1.5.427c-1.5 2.028-2.56 4.27-5.45 3.523.22 1.921 3.95-.747 3.1 2.348-5.45-.427-3.63 3.31-5.13 5.445-1.49 2.135-6.082-.427-6.615 3.949l-.748-3.095-1.388.64-1.281-2.135c-2.349.961-4.164 2.455-6.726 1.495l.854 2.241c.961.748 3.737-1.494 4.591.427.747 1.708-3.417.534-2.776 3.523-.534-3.202-3.951-3.523-5.872-5.871l2.349-3.843-4.698-1.922 3.95-.747-3.95-1.921c2.883-2.136.213-6.512 3.95-7.9l-.854-2.669h3.95L986 367.97l3.096-.427c-2.348-2.883-5.979-3.31 0-4.697l-2.348-2.349 3.843-1.601-2.349-2.349c6.62-.854 3.31-4.056 3.097-8.646l1.494 1.601.427-2.242c1.388.961 5.552-.961 3.951-2.455l-2.669.854-.961-2.989-2.99-1.708c4.164 2.348 3.844-2.349 7.794-.748.961-1.067-2.882-3.095-3.096-4.27-.214-2.668 2.669.534 2.669 1.175 4.802-4.164-.427-2.349-2.776-5.124l2.349-.427-2.349-1.175 4.698-3.095-1.495-2.669c1.602.534 2.025-1.815 1.495-2.349-.32-.32-2.562.748-2.349-.747l3.839.747c0-3.416-3.305.748-2.024-4.697 1.284-5.444 5.124-10.781 7.364-15.372.54-1.067.22-2.989.96-4.377.64-1.067 1.93-1.174 2.14-1.387.21-.321-1.39-5.978 2.13-7.793l2.99 1.494 2.03-1.921-3.84-1.174c-.64-3.843 1.28-3.737 3.84-5.018l-1.6-.854 2.03-4.27.43 5.445c3.2-1.388-.22-4.911 2.35-7.046l-2.35-.427 9.82-21.457 4.27-.747-2.14-3.523c2.99-4.27 4.81-9.074 7.16-13.664 1.39-2.669 8.33-16.013 9.39-17.187.75-.854 1.93.107 1.93 0 .21-.32 0-2.882.64-4.483.74-1.815 4.05-6.405 5.33-8.754 2.89-5.017 6.3-11.315 9.72-16.653.32-.534.85-.747 1.5-.641l-1.61-1.494c3.74.107 1.07-4.27 2.35-5.444 1.92-1.815 1.07 2.882 2.35 2.348l.75-3.096-3.1-1.174 4.17.32c2.35-.533 7.36-11.849 9.39-14.411 2.14-2.669 3.74-4.163 7.16-4.056l.42 2.241zm7.79 29.677c-2.88-4.271-4.27 2.028-3.95 4.697l-5.45-.748v2.349c1.5-.107 3.63.427 5.02 0s.43-2.776 3.63-1.815l.75-2.028-2.35.747v-2.775zm-2.35 10.141c.11-3.096-5.23-3.736-7.26-3.096-.75.214-1.49 3.523-4.48 2.349.64 1.708 3.09.96 2.35 3.843h-2.35l.74 3.095h-3.95l2.35 2.029c-.42 2.775-2.13 3.416-4.7 3.416l1.61 2.348-2.03.747.53 2.669-1.6.534 1.6 1.921-2.35.427 2.35 2.669c-.75 1.815-4.27-.213-5.34 2.455-1.6 4.164 2.57 1.068 2.25 4.164l-3.85-.747c-.11 1.921 1.39 3.202 3.1 2.348l-.86 3.95c-1.92-1.388-1.17.427-2.13.747-.75.32-2.03-.213-2.78 0-.74.214-.85 2.242-2.88 1.495l4.7.747c1.92 1.494-4.49 2.775-4.7 3.523l.43 1.921 3.41.427c-2.35 2.669-2.88 1.174-5.44.427l.75 2.349-3.1 1.174 3.1.427-1.61 1.601c1.29 1.601 1.39 1.922.75 3.843l-1.6-3.096-3.1.748c.32 2.882 2.89 1.921 3.95 3.843-3.09-.427-7.15.96-7.04 4.697l3.09-2.349c.43 2.562-.1 3.309-2.35 4.27l1.93 1.922 1.17-3.096c2.46.64.96 3.416-1.17 3.95-2.67.64-2.14-2.349-3.85-3.203l-1.92 1.601 3.1.748c-6.09 3.416 1.07 7.045.74 8.22l-4.69 1.921 3.09 1.601-3.2 7.793s-5.34-1.388-4.59 1.601l3.1-.747v2.349s1.49-.961 2.24-1.175c4.48-.854 10.14-4.163 15.27-5.871 3.73-1.281 7.47-3.202 11.31-2.348l-.74-1.602 22.63-6.298c1.39-5.444-2.67-10.035-2.35-15.799l5.55-2.028-5.44-1.602-.75 2.349-1.6-12.063 2.35-1.174c-2.56.427-2.78-.32-2.35-2.776.21-1.921 2.13-.32 1.6-2.668l-3.84.747c2.45-5.551.53-2.882-.22-4.804-.64-1.494-.21-3.309-.74-4.697-1.18-3.309-3.21-6.619-3.63-10.355l2.24-1.281-1.6-1.174 1.6-.854v-2.669l-3.1.747c0-1.174-3.31-5.978-.43-5.444 1.61.32 2.14 2.455 3.53.427l-4.7-1.921v-1.495l1.5-.32-.75-2.028h3.95l-1.6 3.095 4.69-1.601zm82.11 240.616h-2.35c1.92 4.91-2.89 5.871-2.46 10.889h-2.24c.75 2.348 4.27.747 6.3.853-3.53-3.522 1.39-7.472.75-11.742m-14.85 21.777c-.42-3.202-2.66-5.658-5.44-7.045l2.35 4.697h-3.1v2.348h2.35l-.85 1.922 1.6.854-1.6 1.921h2.24v3.096c4.48-.747 4.27-3.096 3.95-7.046l-.75 2.349h-2.35l-.74-2.776 2.34-.427zM767.02 148.81l.747-3.095c1.068 2.668 2.349 2.989 0 5.444h6.513l1.174 1.281-.534 1.815c1.282-.321 2.883 1.281 3.524 1.281.534 0 2.455-2.029 3.523-1.281 1.388 1.174-1.281 1.708-1.495 2.135-2.028 3.736.534 3.522 3.097 5.657l1.921-3.843c1.922 0 2.349 5.872-.427 5.445l2.776 2.348c.641-2.135 1.388-1.708 3.524-1.601.213 2.348-2.883 3.736-2.99 4.057-.107.213.748 1.601.32 2.989-.427 1.601-5.658 11.422-6.833 12.81-.961 1.067-1.601 1.281-3.096 1.281l1.602 1.174-4.698 1.174 2.349 1.922-14.2 19.749-1.815.213-1.175-1.601-1.601 3.096c5.658 0 .32 2.241-.534 3.416-3.737 4.91-5.873 7.792-10.143 12.489-.748.748-.748 3.416-2.563 3.63.107-1.601 0-1.815-1.601-1.601 1.708 2.882-.214 1.921-.748 2.989-4.27 8.753-13.132 16.333-19.538 24.019-2.562 2.989-5.338 8.219-7.794 10.781-.854.854-2.349.748-3.203 1.708-.641.748.427 3.203-1.495 3.95-1.495 1.068 0-2.882-2.349 0l1.175 1.922-4.378 1.601 1.602 1.921-5.445 7.046-2.349-1.921v3.095l-2.349.427 2.349 1.602c-1.282.854-1.815 2.562-2.776 3.522-1.388 1.388-3.63-.213-2.669 3.95-1.175-.213-1.709-3.416-3.524-1.601-2.455 2.775.534 3.736.32 4.91-.213 1.495-4.163 5.231-6.192 4.377l1.495 1.922s-4.164 3.202-4.591 1.921c-.641 3.736 0 6.405-4.698 6.298l1.601 2.349h-5.445c2.669 2.135 5.766 2.776 0 3.95l.641 2.242c-2.349.747-3.096 4.483-5.018 6.298-.854.854-2.242.64-2.563.854 0 0 .534 1.281-.213 2.455-.748 1.388-7.367 10.782-8.008 11.209-.854.64-6.192 2.562-6.833 3.416l2.349 2.669c-.427 1.174-4.271 3.629-5.445 2.348l1.601-2.775-3.203 1.281v9.18l-3.843.427 2.349 1.922c-1.602 2.028-1.602 3.416-4.698 2.775 1.601 1.602-1.602 6.939-2.563 7.58-.64.427-1.921 0-2.135.213-.107 0 .854 1.281.214 2.882-1.495 3.95-8.008 12.277-10.464 16.867-1.815 3.416-6.513 15.265-8.114 16.973-.854.961-4.911-1.067-6.193 2.242l-1.174-3.843c-2.456-.64-.747 2.349-3.523 1.601-.214 0-.855-2.455-2.776-1.601l.747-1.494-4.591-.854-.427-2.242-3.523.747.747 1.601h-2.349l.748-3.095-4.271-.748-.321 3.523-1.601.427c.107-2.242-2.99-1.601-3.95-3.523l2.348-3.522-4.697-.854c-.748-.748 2.349-9.608 2.989-11.316.32-.747 1.602-3.309 2.029-4.163.534-1.175 2.669-5.872 3.096-6.299 1.068-.854 2.135-.427 2.883-.854 1.067-.533 0-2.135 2.989-.747l-3.096-2.348v-1.175c.854-.533 4.698-5.871 4.698-6.298 0-2.135-4.164.961-3.096-1.921 2.028.213 3.95-.321 4.697-2.349l-1.494-2.348 2.348 1.601.748-1.922-2.349-.427c.32-2.028 5.125-4.59.747-3.096-.106-1.067.107-2.028.641-2.989.961-2.028 1.281-1.494 3.31-.96-1.602-3.95-.107-3.416 1.922-6.192l1.921 1.601c-.64-1.494-1.067-2.455-.64-4.056.747-2.669 14.413-21.244 17.083-24.446 1.067-1.174 2.135-2.562 3.843-2.776l-1.601-2.348c4.697-2.669 7.901-8.86 11.317-13.237.854-1.068.961-.214 2.669-2.776.854-1.387 7.901-10.781 7.047-11.315-5.872 1.067-7.047-7.793-11.745-10.569-.854-2.028 2.67-.854 3.097-1.174v-3.843c-2.776.534-4.805.961-7.047-1.174L620 248.943l-1.708-5.552s5.766 1.388 6.193-.747h-5.446v-2.348c.214-.214 5.339 1.814 4.698-1.602l-5.445.748-.427-2.349-.854 1.601c-3.951.961-7.474-8.113-8.969-11.102-.32-.64-1.494-.64-1.494-1.067 0-.747 1.067-2.349.747-2.669-.107-.107-1.495.32-2.349-.534-.961-.96-7.58-12.916-6.94-13.557l3.096-1.601c-3.843 1.174-6.192.427-4.697-3.95l-1.602-.427 1.602-1.174-2.242-.748-.855 1.495c-1.067-4.163-3.416-7.152-5.445-10.568l3.844-2.776c-4.164 1.388-2.456-.107-4.057-1.067-2.563-1.495-4.484-1.815-6.086-4.804l1.601-.747c-2.669-.427-1.067-2.562-1.601-3.523 0 0-1.174.961-1.922 0-.747-.961-1.174-3.203-2.028-4.377l1.601-.427c-1.068-2.989-2.242-3.309 0-6.298-2.669-.32-2.242 4.91-4.698.747 2.136.32 1.602-1.815 2.242-2.669.641-.854 1.709-.32 2.136-.747 1.708-1.708 1.922-4.377 5.765-3.63l-.747-2.348c2.883-1.174 7.153-.961 8.648-3.95l-2.349-.427 1.602-1.601c4.697 3.096 6.619-.534 9.929-3.736.641-.641 0-2.669 3.31-2.776 0 1.601 6.619 11.316 7.901 10.141 1.494-1.494-1.388-1.494-1.602-1.921-.427-1.495 1.068-1.495 1.922-1.174 1.388.533.427 2.241.854 3.095.427.961 2.563 2.669 3.523 3.63.534.534.748 1.815.855 1.921.32.214 2.882-2.028 4.804-.854 1.708 1.068 2.029 3.843 2.669 4.697.855 1.175 3.417 2.456 4.164 4.271l-1.601.427 1.601 3.843-4.697 2.348c2.455.854 5.018-.854 7.473-1.388l5.018 8.007c.641 2.241-3.096.64-3.843 1.174l2.349 4.377 2.349-.427-1.602 2.348h5.018l2.776 5.444h-3.95c.213 4.591 3.523 3.95 7.046 3.096-1.601 3.843.321 6.512.748 10.142l.854-2.242h3.096l-1.601 2.242c3.736 0 2.455 1.921 2.776 2.348.747.854 2.135 1.174 2.669 2.776.213.854-4.912.106-3.844 2.775 1.388-.534 4.698-1.281 5.445.427.748 1.495-1.601 1.068-1.601 1.495.106 2.668 5.018 2.028 6.299 5.444l-1.388.534.641 2.135c.533.854 1.067-3.523 2.349-.321.747 2.029-2.67.641-2.349 1.495 1.174 1.494 2.349 0 3.95 1.494 1.602 1.495 1.708 3.95 2.562 5.658.428.854 3.097.641 1.282 3.309l2.776.748-.427 2.348c3.523-.32 3.416 4.057 6.512 4.697 7.901-8.647 15.695-17.4 23.596-26.047 1.175-1.281 2.456-5.978 5.766-4.377-1.388-6.298 5.445-9.714 10.142-12.062l-4.697.747c2.776-1.922 8.541-13.131 10.676-13.451.961-.213 2.349.747 3.417.641l-3.096-1.922 2.776-3.523 2.776 1.602c.32-2.135-1.388-2.242-1.388-2.456-.748-1.814 3.416-5.337 5.338-5.764l-.747-1.601c2.455 0 3.843 1.067 5.445-1.602l-3.844-1.921 4.698-.747c.214-1.068-3.737-1.708-2.349-3.096 1.495-1.495 1.708 3.416 2.776.747.534-1.281-.747-4.377-.213-5.871.106-.321 3.63-3.737 3.843-4.911 4.698 2.455 5.979.747 8.328-3.096a409 409 0 0 0 3.95-7.045c.321-.534.001-1.708.534-2.455 1.068-1.815 3.31-.748 3.417-.854.32-.427 0-1.815.854-2.669.107-.107 3.203-.214 3.95-1.174 0 1.387.321 3.416 2.349 3.095zm946.5-136.32-2.14 2.455 2.56 3.416.43-2.562 1.49-.32c0 2.348.75 3.416 2.25 5.124-1.82.213-3.31-.854-5.23-.427-3.85.854-3.53 6.618 2.98 2.669l.75 2.989-1.92-.64-.75 1.494-1.81-.748v2.242l2.88-.747v2.989c-2.99.427-3.31-3.523-6.62-3.63l.86 2.883c5.97 0 .96 2.455-1.18 3.736l-1.49-5.124c-.97 1.388-3.85.64-3.95.747-1.39 1.388-.75 6.192-.97 6.405-.96 1.495-3.73 1.815-4.27-.64l2.99-1.495-7.36.747c3.41-3.202 7.26-4.803 1.06-8.113-3.31 2.562 1.29 2.883.32 4.377-1.81-.213-1.38 1.601-2.13 2.669-.86 1.067-2.88.747-2.24 3.31l-1.82-2.99-1.17 2.242-2.89-1.495-1.06 2.99-1.82-2.242c-.1 2.668-2.24 2.348-4.48 2.241l.74-1.494c-1.38.64-2.98-.107-4.05 0-.75 0-2.67 2.348-4.81 1.494l.75-2.562 4.38-.747-2.24.427-1.5-3.63s-2.67 2.67-2.88.32c-.32-2.454 3.2-.533 3.63-2.24l-1.5-4.698 3.63 1.495.43-2.99 6.94 1.495c.53-2.882-2.77-.96-4.06-2.135-1.06-1.067-1.6-2.776 0-3.736l8.44 8.113-1.5-6.939 1.5-1.174-2.99-1.495c2.13-.107 3.31.427 4.06 2.242l2.88-1.494 1.07 2.241-2.25.747 1.5.428c-2.24 6.511-.32 6.938 4.38 2.882l-2.25-.32V21.03h2.25l-1.5-2.562c3.42-3.416 3.1 1.067 3.85 1.708.64.534 3.2.213 4.16.96v3.63l2.99-.747v3.63l3.63-1.068-2.24.32c-1.18-3.843 1.92-4.27 1.49-7.366 1.39.214 1.92 1.281 2.88-.32l-2.24-4.804 6.62-1.494zm-116.38 22.845-4.38 3.309c1.5 2.882 6.41-2.776 7.37-1.815l-1.07 3.416-1.81-.534.64 2.136-1.82.747.32 2.135c-3.84 2.135-8.33 3.843-12.38 1.601l.32 1.495h-4.06l2.99-1.495c.53-4.27-2.88-2.882-3.52-3.203-.11 0-.22-.854-.75-1.174-.86-.427-3.63-1.28-3.85-2.028l1.5-4.697c2.24.427.64 2.775.75 2.989.42.427 3.41 0 3.95.213.96.427 1.49 2.456 2.99 2.776l.74-1.601 2.57.854-2.99-2.99c2.03.107 3.41 1.388 4.8-.747l2.56 2.883c.11-4.164 1.29-5.124 5.13-5.872zm37.58-1.495-.32 1.494h-3.31 6.62c-1.17 1.495-1.81.32-1.07 2.99l-2.67 1.067c0 1.708 2.46 2.348 3.74 2.562v.747c-2.24 0-2.35 1.708-2.24 3.736l-2.14-1.494-2.24 3.63-3.63-1.922.85-2.455 1.29.533c2.02-2.135 2.77-3.416 3.09-6.405-2.99-1.494-5.02 2.67-5.98-1.387-1.6.747-4.69.427-4.27 2.775 2.57-.107.32 2.028 1.39 3.736-2.78-.106-3.2-2.135-2.24-4.376l-3.63.747v-2.99l4.27.641c.64-2.455 2.03-3.095 4.48-2.882l-2.24-.747c.54-2.349 9.4-1.068 10.36 0zm-729.756 84.013 1.494-.747.748 8.113-3.631-1.815 2.243-.32-.854-2.135h-2.136c.534 2.668-1.174 2.241-3.31 2.882-1.067 0 .748-3.843-1.815-2.989.321 2.028-.427 4.27 2.242 4.377v1.067c-1.388.641-1.708.854-1.494 2.562l-2.242-.747-1.495 2.242c-.854-2.135-2.349-1.922-.854-4.697l2.989-1.175c-.64-.106-4.911-1.708-3.63-2.989l3.31-.747-.32-1.494 2.242.747-.748-2.242h3.63v-2.242l1.815.748.321-2.242c1.708.427 1.495 2.348 1.495 3.736zm589.896-98.745c0 2.883-3.21 1.281-2.99 3.63 1.7-1.281 2.77-.214 4.05 0 .32 0 2.25-3.736 4.7 0-6.83 4.27-7.47 5.658-11.74-2.562 1.38-1.815 3.84-.96 5.87-1.068zm158.33 13.237c2.46 0 4.38-2.241 6.62-.32v2.562l-.75-2.242h-1.49l-.32 1.388-2.67-.64 2.24 2.989-3.41.64.42-2.135c-2.99-.64-8.65-3.202-6.62 1.495l-2.99-1.922.75-3.202 4.7 1.387c1.07-2.668 4.38-3.309 3.31 0zm-304.93-19.108c1.71 2.028-3.41.747-2.24 2.882l4.38.854v2.883c-2.03 0-5.45.32-6.41-2.029-.64-1.494.86-2.989-2.35-2.348l2.99-.747V12.49l-2.99-.748c1.39-.427 5.88.534 6.62 1.495"/><path d="M1561.37 344.057c-1.28 2.456-5.34-.213-6.62-.427-2.13-.32-4.16 2.135-3.52-1.921 3.2.961 3.31-1.601 4.06-2.135.21-.107 3.41.107 4.37-.427.54-.427.54-2.028 1.71-2.028.22 2.348-.53 4.27-2.35 5.871l2.35 1.174zm-53.17-24.232c-.85 3.523 1.5 4.484-1.6 7.793l2.78-1.601 1.17 3.949-3.95-1.601-.75 2.349-.42-5.445-3.53 2.349-2.35-3.523 7.05-.427 1.6-3.95zm162.61-301.464 2.24-2.242-.85 3.523c-4.81 1.388-7.8-.534-9.51-5.017.43-.32 8.87 1.815 8.12 3.63zm-120.12 313.634c1.5 1.067 3.42 1.388 4.38 3.096l-2.35.427c.22 1.601 1.5 2.775-.42 3.843l-6.52-2.669c-1.17-2.028 5.56-.854 6.2-1.174l-2.35-2.776v-1.922c1.17-.32.53.961.96 1.282zM57.975 371.279c.534.64-.64 2.669 2.349 2.028.747.641-1.922 4.163-2.563.747l-1.494 2.242c-2.563.214-4.485-4.27-2.563-5.658.748-.533 3.844.107 4.27.641M182.146 9.288c-.534-.427-.854-1.815-1.708-2.349 1.387-3.096 8.114.854 8.114 2.242 0 2.562-5.018 1.174-6.406.107m25.41 186.706.855 2.776-2.243-1.495v3.63l-.747-2.135c-1.708 0-3.95-.747-3.63 1.388l-3.63-2.562c0-.748 7.794.64 5.445-1.068-.427-.32-1.495.427-.961-1.494l5.018.854zM1064.05 10.248l-2.99 1.494 2.99 2.242h-2.78l-2.35-6.191c.64-2.456 6.3 1.28 5.13 2.562zm400.59 11.102s2.99-2.669 5.12-1.388v4.377c-1.49.213 0-2.028-1.06-2.242-3.21-.64-5.88 3.63-7.69 0l2.99-1.067-2.24-.32 1.06-1.495c1.61-.427 1.71 2.135 1.82 2.242zm-229.76-5.124c.53 2.349-1.39 1.388-2.99 1.495 1.38 5.978-2.14-.747-5.13 1.494l.75 1.495h-2.24v-2.135c2.13.213 4.8-2.669 6.3-2.882.85-.107 1.92 1.387 3.2.533zm320.19.854v2.882c-3.09.214-.21-2.882-2.77-2.242l-1.07 2.242c-.54-.64-1.18-1.28-2.14-1.28-2.13 0-1.38 2.668-3.41 2.027-.43-2.775.21-1.6 1.06-2.241 2.67-1.815 5.02-2.99 8.33-1.388m104.74.64-1.07 5.124-2.56.748c1.28-2.349-1.49-3.843-.75-6.619zM1143.48 5.978l.54 1.28c4.48-2.348 6.72 4.057 2.24 3.417-2.35-.32-7.26-4.59-2.88-4.804zm400.7 12.383c.32 3.95-1.81 5.978-5.87 5.871l2.88-1.814-1.49-2.242 1.28-1.281-.53-1.281 3.63.747zM194.424 25.086l-1.495 1.175.748 4.697c-2.456-1.495-4.164.427-6.62.747l2.669-2.135-.427-2.242h2.99l-1.495-2.242zM1666.75 305.734l.75 4.27c-2.03.32-.96 3.95-3.52 2.775-2.57-1.174-.86-7.045.42-6.191-.42 1.174.64 2.455 1.6 1.601.43-.32-2.34-2.882.75-2.348zM1511.4 175.285l-.32 3.949c-3.31.961-2.67 3.63-5.87.321 1.92-1.602 3.31-4.697 6.19-4.27m132.72-151.479c.53.213 3.95 4.27 1.28 4.163-.43 0-2.67-2.99-4.81-1.495v-2.882c1.18 0 2.35-.214 3.53.213M637.724 65.545c0 1.174-5.125 1.494-5.445 1.494-1.068-.32.64-2.775-2.67 0 .641-6.618 4.378-.854 8.115-1.494M89.792 327.618c-3.524.64-8.648-5.018-3.31-4.484 2.028.214 2.349 2.882 3.31 4.484M1179.36 436.931l-6.62.533-1.18-2.028c1.92.854 2.56-1.601 2.67-1.601.43 0 1.18.961 1.92 1.174 1.39.32 3.31-.961 3.1 1.922zM856.384 16.226c-2.028-.747-3.203 1.495-3.416 1.495-.855 0-4.698-.214-5.446-1.175 2.563-.533 6.62-3.309 8.862-.32M322.545 390.921l-2.882-.747v2.242l2.989.747h-5.125l1.495-.747-1.495-2.882c1.815-.214 5.232-1.815 5.125 1.494zM175.953 0c.427 3.096-1.174 4.804-4.377 4.377L173.284.64l2.669-.747zm35.34 52.949c-3.95-.641-5.445 1.494-8.434 2.989l-1.068-2.562c.214-1.282 8.541-2.562 9.502-.427"/></g><defs><clipPath id="a"><path fill="#fff" d="M0 0h1718v525H0z"/></clipPath></defs></svg>