<svg xmlns="http://www.w3.org/2000/svg" width="2254" height="485" fill="none"><g fill="#fff" clip-path="url(#a)"><path d="M384.944 7.41c6.112 5.98 5.072 9.36 14.825 8.06 6.633-.91 17.687-6.63 22.759-6.63 17.166 0 46.687 12.479 59.692 23.658 21.718 18.849 26.79 52.257 22.368 79.425-.78 5.2-6.372 23.659-10.274 26.519-2.08 1.559-8.323 2.859-11.444 4.419-1.69.78-6.372 3.38-7.283 4.81-1.69 2.6.911 4.03 1.041 6.63.65 9.489-7.283 12.089-13.655 16.769l-13.005 6.889c21.848.78 28.871 15.859 34.723 33.928 12.745 38.998 18.597 81.895 43.306 115.433h-41.355l-1.171-4.55c-5.462-1.04-15.216 3.9-20.938 4.55-4.681.52-16.516.65-21.068 0-.78 0-1.69 0-2.21-.78l-13.005-47.967c4.161-.78 7.022-7.28 6.112-11.179-1.04-4.81-4.812-5.46-5.332-7.41-.91-2.86.78-6.89-1.04-9.879l-8.063.65c-4.812-14.04-7.153-31.068-13.916-44.328-1.82-3.509-8.713-13.519-12.744-13.519h-25.23v54.467c0 1.82.651 3.38.781 5.2.65 12.349 1.17 23.528 3.251 35.877 1.69 10.14 6.242 22.359 7.153 31.848.13 1.43.39 5.33-.261 6.37l-7.933.65 1.951-2.99-.91-1.43c-13.915-1.95-27.831.52-41.226 4.42h-45.386c2.34-8.97 5.332-17.809 7.282-26.908 9.754-46.148 3.251-93.725 6.113-140.262 4.161-1.56 1.95-9.099 2.34-13.389.261-3.38 2.211-8.059 2.211-11.179 0-3.38-2.601-7.8-2.991-11.31-.39-4.289 1.041-8.839.78-13.519-.26-5.459-2.601-11.179-2.991-16.509-.52-6.11.39-12.609 0-18.719-1.43-23.268-6.372-45.887-13.525-67.985h100.268zm-16.907 157.68v7.799l1.821 1.17c17.817-1.04 39.795-.39 52.149-15.469 16.517-19.888 15.086-70.065 7.153-93.464-9.493-28.078-30.691-41.077-60.472-36.008-.13 7.67.26 15.34 0 22.879-.521 20.539 1.56 49.267-.781 68.376-.26 2.21-1.43 3.509-1.56 5.979-.26 3.64 1.69 6.76 1.56 9.75 0 2.34-1.95 4.679-2.341 7.539-.65 5.59.521 12.089 0 17.939-9.883 6.63 1.301 2.34 2.341 3.51zM1816 287.022s4.55 0 3.77-1.819c-2.47-3.51-8.06-3.77-10.8-6.5-2.73-2.73-8.97-13.519-11.05-17.419-23.28-41.987-27.31-89.304-20.55-136.362 5.72-3.119 8.33-3.769 7.16-11.309l-5.21-.39c.78-3.51 6.64-8.709 7.29-11.439 1.04-4.03-1.17-8.71-.26-13.78 1.3-6.629 9.23-22.098 12.74-28.468 20.16-35.877 57.35-61.356 99.88-58.496 10.01.65 31.08 10.14 39.4 16.25 6.11 4.419 11.71 11.438 17.43 16.378 2.34 4.03-1.43 5.59-.78 8.97.26 1.43 1.69 2.34 2.47 3.64.26.52 0 1.56.26 2.08 2.86 4.029 8.71 2.859 11.57 4.159 2.08.91 15.74 22.878 17.82 26.518 24.71 43.158 28.61 83.455 21.2 132.462-8.84 58.756-42.66 119.333-108.46 123.622-39.15 2.6-60.86-13.389-81.8-44.327-.52-.78-2.6-2.99-1.95-3.64zm129.92-60.836c.91-7.279 2.86-15.599 2.99-22.878 1.04-34.318-9.76-74.746-26.01-104.774-6.64-12.09-13.4-20.409-18.21-33.538-1.3-3.38-9.1-16.249-11.57-19.239-4.17-5.2-8.33-6.24-12.62-9.88-2.6-2.209-2.08-5.329-6.76-3.899-1.17.39-5.85 4.29-6.63 5.46-3.13 4.16-8.59 20.409-10.67 26.128-19.38 55.117-23.67 106.204-3.51 161.97 8.32 23.139 26.14 53.037 44.87 69.286 1.69 1.43 11.83 9.229 13.13 9.359 6.37.65 9.89-11.569 14.18-14.299 1.95-1.17 5.98-1.56 7.54-2.99 1.04-.91.78-2.339 1.3-2.859.65-.65 5.46-1.56 6.89-2.47 6.51-4.68-.91-16.119 1.95-19.889.65-.91 2.6-1.04 3-2.34.52-1.56-1.18-8.839 0-11.569h-3s1.43-10.53 1.95-11.309c.65-1.04 2.48-.91 3.39-2.08 1.56-1.95 1.95-5.85 2.99-8.06l-5.2-.39zM2100.67 8.45c-5.59 12.869-.91 23.658 5.07 35.097 4.82 8.84 14.96 21.319 18.34 29.768 1.95 4.81 2.34 11.18 4.68 16.25 1.17 2.47 4.42 5.589 4.69 6.499 1.43 4.81-1.83 13.779 3.25 17.809 6.5 5.199 17.03 8.839 22.1 15.469l54.1 87.744.39-141.56c-1.95-22.75-5.59-45.498-12.74-67.207h53.32l-5.98 19.76c-4.55 1.169-7.16 5.459-9.89 9.099l1.3 1.82 6.25-.26c-9.37 49.006-3.77 99.703-5.21 149.49-1.04 5.59-7.28 15.339-5.72 20.669.65 1.95 2.21 3.51 3.12 6.759 1.3 5.07 0 10.92 2.6 14.56v97.234h-34.98c-2.08-3.25-5.33-6.11-7.41-9.1-6.37-8.709-4.16-7.539-13.53-14.169-4.81-3.38-7.28-12.219-10.27-16.769-1.04-1.69-2.86-2.73-3.9-4.29-35.76-54.986-69.97-111.273-106.38-165.869-1.04 28.338 1.43 57.716 0 86.054-.52 9.62-1.95 13.389-.78 23.269s0 22.228.78 32.368c1.43 23.398 5.98 46.407 12.74 68.766h-53.32c6.25-20.409 11.06-41.338 12.75-62.657.26-2.989-.13-5.979 0-8.969 2.99-58.886 2.34-125.442.78-184.719-.13-5.2-1.04-11.179-1.3-16.508l4.03-2.99c-1.82-3.9-2.08-10.92-6.63-12.09-.78-10.919-5.07-21.318-9.76-31.068h77.38zM253.724 192.518v67.726c-3.251 14.429-6.892 34.708-6.892 49.397 0 8.579 5.202 19.238 5.072 28.208 0 2.21-3.251 13.259-2.471 13.909h4.291c-.26 1.95.651 5.2-.39 6.89-1.43 2.339-21.848 11.049-25.749 12.479-57.742 22.098-129.008 23.658-175.696-22.359-1.17-2.34 8.844-2.34 8.453-5.069-7.282-7.15-15.085-14.3-18.857-24.179l-10.533 1.56c-1.301 0-1.821-.78-2.471-1.69-4.942-6.24-11.705-22.489-14.696-30.418C7.933 273.243-.52 242.305 0 226.056c0-2.47 2.21-3.38 3.121-5.2 2.21-4.94-.65-22.228-.65-28.728 0-4.16 1.82-7.41 1.82-11.049 0-4.03-1.95-8.45-1.82-12.74.26-8.189 5.852-19.498 6.892-28.078l-2.6-.39C18.856 85.924 55.66 38.737 107.81 18.979c7.023-2.6 34.463-11.05 40.445-9.62.65.13.52 1.56 1.171 1.69 5.722 1.43 12.484-2.6 17.816-3.25 8.323-1.04 32.512 0 40.575 1.82 2.341.52 3.252 2.86 5.332 3.25 3.122.65 6.113-1.04 9.234-.78 2.991.26 25.879 6.76 26.14 8.19l-20.548 99.833c-2.861-1.04-4.682-.91-7.543 0-2.341-6.499-10.924-14.689-13.135-20.668-.91-2.47-.26-4.81-1.3-7.28-.911-2.08-5.072-5.33-6.893-7.54-1.56-2.08-5.592-10.529-6.112-10.919-1.691-1.43-6.633-1.17-9.234-2.6-4.941-2.73-12.224-11.179-18.857-15.209-22.498-13.519-51.759-14.559-69.836 6.76-22.498 26.518-23.799 92.554-21.328 125.962 1.17 15.079 3.382 30.418 5.072 45.237.52 4.68 1.17 9.1 1.691 13.65.65 5.459.78 11.049 1.3 16.638 13.135 2.73 14.956 15.08 20.808 25.219 15.476 27.298 42.006 56.416 75.558 58.106 2.081 0 9.234.52 10.274-.78l-.52-20.928c.65-2.99 2.861-2.47 3.381-3.12.39-.52-.91-2.47-.78-3.64 0-1.43 1.43-2.73 1.691-4.29 1.17-7.929-4.682-15.079-6.503-22.358-1.56-6.11-1.69-14.169-2.991-20.799-2.731-13.389-5.462-26.778-10.794-39.518l3.121-2.599-2.081-8.84c-1.82-.26-4.811.65-6.242-.39-.52-.39-5.202-9.619-6.372-11.439-3.902-5.72-8.714-10.919-13.135-16.249zM1148.07 24.309c-23.28 2.21-40.06 17.289-53.06 35.227-2.73 3.77-4.94 9.49-7.93 12.87-4.3 4.68-15.22 9.1-15.48 16.509 0 2.6 1.56 5.46 1.43 8.32-.26 5.979-4.81 11.049-2.34 17.028l-5.2.91L1031.54 1.82 1090.72 0c4.42 11.31 20.02.26 28.74 0 73.6.39 147.47-.91 220.95.91 9.36.26 20.55-1.04 29.52 0 1.95.26 4.16.65 5.59 2.21l-2.6 1.04c-6.5 21.839-11.7 44.327-18.73 65.906-.65 1.95-1.95 3.25-2.6 5.2-.78 2.34-.78 6.89-1.95 9.099-.78 1.3-3.51 1.69-4.16 3.9-1.04 3.38.91 6.24.65 9.23 0 1.3-4.81 17.808-5.72 17.938l-4.29-1.82c2.86-6.369-2.73-12.609-5.07-18.329-11.19-27.818-25.1-57.846-56.31-67.465-2.48-.78-11.97-3.51-13.92-3.51H1243v176.269c0 2.86-6.24 10.919-5.98 14.689 0 3.12 2.21 8.839 2.34 13.129 0 1.82-1.17 3.77-.78 6.11.39 2.47 2.99 1.82 3.51 4.289.52 2.47.39 12.09 0 14.82-1.69 14.169.39 33.407 1.69 48.487 2.08 22.618 7.42 44.977 16.52 65.775-1.95.52-1.69 2.6-2.73 3.51-9.1 8.58-14.83 14.299-21.2 25.609-14.95 26.388-21.98 58.106-30.82 86.964l-1.3 1.43-2.99-.26-11.06-35.748c0-2.079 6.51-5.459 4.69-12.349-1.31-4.94-4.3-7.539-9.5-5.33l-.91-.649c-4.55-10.92-8.45-22.229-14.17-32.628-4.3-7.93-10.93-16.639-16.91-23.399-2.08-2.34-6.5-3.12-6.5-7.67 0-2.079 5.46-14.949 6.37-18.588 16.91-59.667 8.84-119.463 10.79-180.559.26-7.67.26-21.969 2.34-28.858 1.05-3.38 5.6-8.84 5.21-11.7-.26-2.21-3.25-3.769-4.16-6.109-.27-.78-3.39-13.259-3.39-13.909V24.309c-5.2.39-10.92-.52-15.99 0M632.556 7.41l-2.992 2.99c3.122-.65 6.503.78 9.364.78 5.072 0 13.655-3.38 19.507-3.77 5.462-.39 11.314.26 16.906 0l-1.56 2.99c4.161 1.949 7.023 1.169 11.314.39 2.731-.52 10.014-3.38 11.574-3.38h45.778l-1.171 79.554c-1.17 0-.91-1.43-1.821-2.21-4.031-3.51-7.542-2.47-10.013-3.9-.651-.39-7.803-10.659-9.494-12.608-23.539-26.259-58.392-37.178-92.854-38.738l-.651.91-.91 120.112c1.04.65 7.673.39 9.493.26 11.835-.39 24.97-2.729 36.284-6.499 2.211-.78 9.363-4.42 10.404-4.55 1.3 0 2.341 1.3 4.291 1.3 2.601 0 16.517-4.16 18.077-5.98 1.431-7.669 8.063-10.009 12.355-15.729v87.875l-6.763 1.82c-22.628-23.139-51.759-37.308-84.791-34.838v46.147s-1.691 1.95-2.211 3.12c-1.951 4.68 2.471 17.159 2.861 23.268.65 8.45-.39 17.679 0 26.259l2.341 31.848 7.543.39 1.56 4.16s13.005-2.86 14.696-3.77c9.233-4.42 15.866-5.2 25.359-8.45 16.776-5.979 31.212-15.989 42.656-29.508 8.193-9.749 14.435-20.799 21.848-31.198l.78 40.948c-.52 2.599-7.542 4.289-7.542 11.959 0 4.42 2.08 11.049 7.542 9.359 0 4.42-.13 8.84 0 13.129 0 2.73 2.081 7.54 0 9.75-.52.65-3.251 1.43-4.421 2.34-.911.52-3.251 3.379-3.381 3.379H543.342c6.633-18.198 10.534-37.437 12.745-56.676.52-4.03 0-9.489.78-13.519.39-2.08 2.471-1.82 2.861-3.12.911-2.73-.78-6.11-.65-8.839.13-3.51 3.251-8.32 2.991-11.96-.26-2.86-4.551-6.109-4.551-10.529 0-2.34 1.56-3.9 1.56-5.2 0-1.17-1.3-2.99-1.56-5.199-2.861-37.698.91-80.205 0-118.683-.13-6.37-.521-13-.781-19.499 0-2.86-1.95-9.1-.39-11.57.78-1.299 3.251-.78 3.381-2.209h-4.551c-.911-8.58-2.081-17.289-4.032-25.738-1.951-9.1-5.722-17.81-7.283-26.909h88.694zM1300.74 326.8l13.92-20.929c8.58-2.73 8.45-10.659 11.05-17.549.91-2.6 3.52-5.849 4.17-7.929 1.17-4.16 1.43-9.88 2.86-14.429 7.15-24.309 16.12-55.117 25.36-78.256 2.08-5.199 3.9-10.399 10.27-11.049.26-2.99-1.56-4.81-4.42-5.33l52.41-166.52c7.8.52 16.77-.78 24.45 0 3.12.26 4.16 2.21 7.15 2.34l-1.43 7.41 5.85.91 59.95 186.019c2.21 12.609-2.47 25.348 5.6 36.397 2.21 2.99 3.64 2.99 7.28 2.86 6.63 22.489 14.3 44.847 24.71 65.776l10.66 17.549-15.34 2.99h-93.51c7.93-18.459 6.76-40.038 3.51-59.536-.78-4.68-5.07-18.329-3.9-21.709.65-1.82 2.08-1.82 1.82-4.68 0-.91-3.77-9.229-4.29-9.879-.91-1.17-4.03.78-3.9-4.16-13.66 5.46-27.57 10.139-41.23 15.469-7.15 2.73-15.08 7.41-21.85 9.749-3.77 1.3-10.4 1.56-13.78 3.51-.52.26-7.41 7.93-7.8 8.32-2.73 3.77-2.99 32.368-2.47 38.477.78 8.19 2.99 17.159 6.76 24.439h-63.86zm75.04-121.673 58.39-18.328-25.36-95.025zM860.921 7.41c-3.771 9.49-4.031 18.069-2.861 28.078.52 4.68 4.031 8.71-3.121 9.49 1.04 4.29 1.04 9.489.78 13.908-.13 2.47-1.821 5.07-1.17 7.15 1.04 3.51 7.542 4.42 10.664 6.76 1.04.78 1.69 2.73 2.08 2.86 1.171.65 3.512-.52 4.292 1.43 12.875 26.258 22.368 55.766 35.503 81.634.26.52 1.561 3.25 2.211 2.73l40.185-93.074c7.283-18.979 13.005-40.818 6.372-60.836h58.654c-.91 2.21-4.16 2.86-5.33 4.81-.91 1.69-.65 3.38-1.56 5.199-1.56 2.99-7.807 9.36-10.278 13-18.987 27.688-31.862 57.976-45.907 88.394-5.332 1.82-11.184 2.6-15.866 6.109 3.771 2.99 8.453 5.2 7.933 10.92l-24.059 50.957c0 22.098-1.171 44.457-.39 66.555.65 17.159 2.991 36.398 7.022 53.037 1.691 7.02 4.682 13.779 5.852 20.929h-66.845s.521-1.3.131-2.08c-2.471-5.98-20.418-4.29-25.75-2.47-.65-.65 3.641-13.519 4.162-15.729 4.291-18.069 6.372-36.528 7.152-55.116.26-1.43 8.193-.65 9.104-8.32.91-7.669 0-13.129-8.974-11.699l-.39-45.887c-2.081-7.8-14.955-25.739-15.866-32.238-.13-1.04 1.041-1.56 1.041-2.47 0-.39-3.252-7.93-3.512-8.32-.65-.91-2.341-.13-3.511-1.17-.65-.52-6.633-13.129-7.153-14.689l3.642-2.21-2.211-6.369c-1.301-.91-5.072 1.69-5.982-.52l2.991-2.21c-2.991-3.38-2.081-6.76-7.543-6.89-17.687-34.577-31.992-72.795-58.522-101.653h107.42zm765.729 1.04s0 1.43 1.17 2.21c2.6 1.82 7.67-.39 10.92-1.04.78-.13 1.69-1.17 1.82-1.17h28.87c-1.3 4.16-2.47 8.449-3.38 12.739-12.61 60.446-3.51 126.612-6.37 188.098-5.2 9.49-.52 19.759-1.56 28.468-.39 3.25-2.86 5.59-2.99 9.1 0 2.73 1.17 4.55 1.69 7.019h2.86l3.12 48.357c.52 1.82 6.11 1.3 7.8 1.3 36.68-1.3 67.5-20.798 86.74-51.477 3.13-5.069 5.47-10.659 8.98-15.469-.13 4.81.13 9.75 0 14.69 0 1.819-.78 3.379-.78 5.199-.39 16.509 2.08 39.258 0 54.727-.91 7.149-5.85 5.459-6.63 7.669-1.05 3.38 1.69 5.59 2.08 8.45h-147.61c-5.98-3.51-10.92-.39-17.3 0-5.85.39-11.83-.26-17.68 0 5.46-18.199 10.14-36.918 11.96-55.897 2.08-21.448.65-43.417 2.21-64.606 2.47-.39 5.99-5.199 6.12-7.539.13-2.86-2.22-7.02-2.35-10.53-.13-4.679 3.13-8.189 0-12.609-1.04-1.56-4.42-2.08-4.55-3.9V86.575c-1.3-18.85-2.47-37.958-7.41-56.287 0-1.3 4.03-.26 3.77-2.34 0-.91-1.95-4.42-2.6-4.94-1.3-1.04-2.86-.39-3.51-1.17-1.3-1.82-2.73-11.049-4.42-13.778h48.77z"/></g><defs><clipPath id="a"><path fill="#fff" d="M0 0h2254v485H0z"/></clipPath></defs></svg>