<svg xmlns="http://www.w3.org/2000/svg" width="1367" height="230" fill="none"><g fill="#fff" clip-path="url(#a)"><path d="M687.22 146.45c-.27 11.93 3.89 7.48 7.42 11.27 1.68 1.8.78 5.51 1.94 7.42 1.55 2.56 15.36 5.84 1.8 11.15-3.08 7.51 6.6 7.6 7.39 8.79.73 1.1-.41 5.77 1.14 7.95 1.27 1.77 9.45 1.76 7.78 10.55l-5.22 1.4-.38 4.57 5.61 1.77c-1.13-10.26 1.71-5.3 8.79-5.48l.52 5.53 2.19 1.06c3.12-.54 6.06-2.32 4.89-5.89-.97-2.94-9.08-1.55-6.53-12.09 2.38-2.33 7.23-.88 6.71-5.65-4.04-5.23-8.51-3.91-6.71-13.04.48-1.97 7.27-.49 6.71-5.65-4.04-5.23-8.51-3.91-6.71-13.04 14.49-5.57 2.49-7.57 1.32-11.38-1.41-4.61 2.41-8.42 6.84-6.82 2.38.86 1.41 7.28 7.28 5.39l-.12-5.38-5.35-1.26c-.21-1.14.06-2.25.46-3.32 2.67-7.13 8.29-2 11.21 2.1 4.26-.4 5.72-3.38 4.64-7.39l-5.33-2.93c4.02-8.94 5.73.6 8.43 1.53 7.86 2.69 6.85-7.6 8.2-8.52 1.43-.97 6.37 1.13 8.13-1.21l1.73-7.61 8.64-.16c-.1-2.59.82-6.98 3.34-8.19 6.95-3.34 5.33 2.99 7.66 4.43 5.86 3.63 8.66-6.09-1.04-6.12 3.92-15.96 8.57-1.83 10.6-1.17 2.39.78 4.91-.6 5.64-2.88 2.52-7.81-9.33-4.32-3.61-11.3 3.75-1.03 6.31 9.93 13.5 4.15l1.44-7.34 8.69-.11v-8.81c-2.49-.27-5.78.59-8.08-.17-2.14-.7-6.88-14.62-8.43-.93l6.13 1.02c.89 2.22 1.14 5.38-1.31 6.59-5.58 1.82-6.4-6.24-7.75-6.56-1.01-.24-7.4-.16-7.92.19-.18 4.51-4.43 9.48-8.41 5.37-3.12-3.21-1.28-7.53-10.3-5.38-1.11 9.32-8.73 10.41-10.69.9l-8.01.18c-.42 3.53-1.01 6.39-5.16 6.47-5.33.1-3.37-5.99-7.62-6.64-7.68-1.17-6 5.62-7.26 6.51l-6.5-.37c-1.77-1.15-1.38-5.77-2.39-6.94-1.44-1.68-5.58.29-6.12-4.34-.81-7.06 5.95-3.64 6.44-7.43 1.28-9.89-5.85-6.33-6.44-11.26-.9-7.51 10.86-3.04 5.82-13.52-1.72-3.58-13.84-6.02.59-11.7v-7.35c-1.81-.53-9.57-5.65-4.93-7.26 6.06-2.1 2.66 6.52 9.77 5.46 5.36-.8 3.05-9.27 11.03-7.75 4.17.79 3.18 9.09 10.9 6.69 1.53-.43-.15-8.2 7.79-6.69 4.19.79 2.83 8.97 10.89 6.69l1.89-6.54c2.78-.16 6.73-1.14 8.6 1.61 2.45 3.6.09 7.26 8.63 4.63l1.46-6.24c2.36-.18 6.46-.84 8.17.94 2.61 2.7-.01 8.48 9.07 5.31l1.46-6.24c11.17-3.45 6.78 7.81 14.6 7.21 4.02-.31 3.2-4.05 4.09-7.21 10.62-3.56 7.42 7.41 13.63 7.41 4.81 0 4.21-3.7 5.06-7.41 10.62-3.56 7.42 7.41 13.63 7.41 4.81 0 4.21-3.7 5.06-7.41 10.62-3.56 7.42 7.41 13.63 7.41 4.81 0 4.21-3.7 5.06-7.41 10.62-3.56 7.42 7.41 13.63 7.41 4.81 0 4.21-3.7 5.06-7.41 10.62-3.56 7.42 7.41 13.63 7.41 4.81 0 4.21-3.7 5.06-7.41 10.62-3.56 7.42 7.41 13.63 7.41 4.81 0 4.21-3.7 5.06-7.41 10.62-3.56 7.42 7.41 13.63 7.41 4.81 0 4.21-3.7 5.06-7.41 10.62-3.56 7.42 7.41 13.63 7.41 4.81 0 4.21-3.7 5.06-7.41 10.62-3.56 7.42 7.41 13.63 7.41 4.81 0 4.22-3.71 5.06-7.42l8.01-.18c2.03.55-1.2 8.33 7.83 7.87 3.2-.16 2.59-5.46 2.75-7.79 8.47-1.15 7.95 2.06 8.79 8.79 14.99 1.4 4.59 10.92 1.07 8.32-2.02-2.36-.74-5.65-1.07-8.32-2.52-.24-5.17.15-7.7 0l.74 6.37 6.82 2.56c-.2 7.91.01 9.33 7.32 11.92l.42 3.76-6.54 2.4-1.08-8.32-6.12 2.11c-3.23 6.31 5.16 5.59 5.99 6.82.77 1.15-.59 6.38 1.14 9.04 1.51 2.31 7.25.54 6.76 5.66-4.43 6.92-8.42 1.64-7.78-4.94-3.72-.82-10.39 3.7-7.61 7.61.9 1.26 10.68.55 5.49 9.5l-6.55.36-1.33-6.35-6.32.04-1.18 6.36 7.17 2.22-.82 5.39-6.31.04-1.23-6.47c-6.73.64-10.08 1.03-8.78 8.8h-9.91l-.15 6.99c-.88 2.73-6.12 1.89-8.5 1.65-.86-1.51-.93-5.04-2.29-5.96-5.7-3.87-9.81 8.32.94 7.3 2.47 4.56-4.42 10.14-7.49 7.49-.52-.45-.12-5.38-3.03-6.33-5.92-1.94-6.13 3.06-6.98 7.52l6.54 1.17.06 5.44-5.38-.12-1.37-5.24-8.6-.09-1.41 7.37-8.42 1.49-1.37 7.42c-6.33 1.58-9.03 2.31-9.86-5.21-9.47-1.42-7.58 6.39.76 7.51l-.64 7.76-7.66-.05c.02-2.23-.54-6.86-2.97-7.54-4.22-.22-5.75 1.94-5.89 5.93-.11 3.24 5.16.6 7.73 3.29 3.1 3.25-.81 9.93 8.85 6.67l2.18-7.19c.51-.37 6.83 1.06 7.64 1.64 2.8 2.03.06 9.25 8.94 5.4l2-6.58c1.06-.74 4.71-.75 6.15-.56 3.42.44 1.71 7.37 6.61 7.83 6.23.57 4.32-7.59 5.51-7.78l8.22.54c2.95 10.07 8.75 9.88 10.48-.57l8.21.57c2.01 1.35.82 7.79 5.98 7.27 6.86-3.92 4.7-10.73-3.83-8.87l.15-3.7c.77-2.36 4.38-2.56 5.91-.7 3.56 4.33-1.59 6.33 10.5 5.99 1.56 1.11.95 5.55 2.37 6.97s5.89.81 6.97 2.38.02 6.09 1.48 8.16c.87 1.23 3.59.96 4.95 1.88 7.04 4.78-8.82 14.43-5.95-1.18-16.33 5.08-.79 7.95-.12 8.93.78 1.16-.62 6.64 1.13 9.06.9 1.24 3.57.95 4.94 1.88 7.04 4.78-8.82 14.43-5.95-1.18-16.34 5.09-.79 7.94-.12 8.93.78 1.16-.62 6.64 1.13 9.06.9 1.24 3.57.95 4.94 1.88 7.04 4.78-8.82 14.43-5.95-1.18-16.34 5.09-.79 7.94-.12 8.93.78 1.16-.62 6.64 1.13 9.06.9 1.24 3.57.95 4.94 1.88 7.24 4.91-7.8 12.92-5.95-1.18-10.32 2.23-10.91 8.42-.03 9.96.53 4.43-2.87 10.39-7.71 7.13-2.41-1.63-.94-11.01-9.61-5.85l-2.05 6.4-7.96-.16-1.48-6.21c-2.2-1.63-4.96-1.54-7.2-.03l-1.48 6.21-7.98.21c-2.26-10.77-8.01-10.01-11.28-.01l-7.97-.16-1.48-6.21-3.4-1.09c-7.15 3.15-1.91 9.8-13.25 7.48l-2.04-6.39-3.4-1.09c-5.12.62-4.13 7.06-5.84 7.46l-7.97-.16-1.46-6.24c-2.32-.99-5.13-1.45-6.84.9-3.3 4.53.88 6.69-9.83 5.52l-2.02-6.42c-2.32-.99-5.13-1.45-6.84.9-3.3 4.53.88 6.68-9.84 5.52-2.93-9.89-8.09-9.65-11.28-.02l-7.96-.17-1.73-5.41c-6.46-3.69-6.69 1-9 5.58-9.96 2.45-7.29-6.74-13.02-6.76-5.03-.01-3.2 4.03-5.67 6.76-9.96 2.45-7.29-6.74-13.02-6.76-5.03-.01-3.2 4.03-5.67 6.76-9.96 2.45-7.29-6.74-13.02-6.76-5.03-.01-3.2 4.03-5.67 6.76-9.96 2.45-7.29-6.74-13.02-6.76-4.44-.01-3.82 3.33-5.09 6.56-10.59 3.91-7.94-10.34-16.93-5.38l-1.73 5.4c-10.61 3.87-7.96-10.35-16.96-5.4l-1.73 5.4c-10.61 3.87-7.96-10.35-16.96-5.4l-1.71 5.42c-6.26 1.35-8.49-2.81-8.92-8.44-.44-.64-2.77-1.21-3.69-1.25-10.91-.52-2.44 8.66-8.75 9.84-8.74 1.62-5.39-10.63-14.31-5.56l-2.28 5.6c-10.76 3.01-7.17-10.63-16.41-5.6l-2.28 5.6c-9.62 2.69-7.5-6.78-13.07-6.78-5.34 0-3.43 5.93-7.71 6.74-8.09 1.53-5.11-6.74-10.98-6.74-5.36 0-3.52 6.12-7.73 6.77-7.86 1.21-5.1-6.48-10.97-6.49s-2.82 6.12-8.87 6.37c-7.38.3-3.69-7.08-10.69-6.29-4.78.54-2.46 6.49-7.92 6.24-5.94-.28-4.4-5.27-6.32-7.31-1.09-1.16-4.88-1.49-6.41-4.03-1.36-2.26-.67-5.05-2.01-6.78-1.03-1.33-3.7-1.34-5.05-2.66-1.78-1.75-1.15-5.2-5.77-6.27-10.51-2.42-9.06 4.55-11.94 5.15-4.99-4.68-8.25-4.13-14.61-5.35l-4.13 5.21c-5.16-2.28-6.68-6.5-13.97-4.05-1.96.66-1.77 4.03-4.59 4.31-3.68.37-4.3-4.17-8.76-4.58-6.64-.62-6.64 4.23-9.97 4.55-3.71.36-4.25-4.13-8.72-4.55-7.19-.68-6.34 4.12-7.94 4.52-4.48 1.14-8.06-2.79-12.42-2.23l2.06 11.36c-.76 2.26-4.47 2.2-5.86 4.07-1.56 2.09-.64 5.82-3.03 6.92-6.32 2.91-6.55-3.8-11.31-3.78-3.52.01-4.44 3.23-7.1 4.07-6.12 1.92-7.26-4.08-11.59-4.07-3.87 0-5.29 4.83-9.82 4.51-3.3-.23-5.84-4.33-8.87-4.33-3.24 0-5.74 4.6-9.82 4.33-3.29-.22-5.85-4.34-8.88-4.33-2.72 0-5.24 3.69-8.77 3.82-4.29.15-7.25-3.82-9.92-3.82-2.54 0-4.32 3.03-7.69 3.33-5.33.48-8.01-3.33-11.01-3.32-2.47 0-3.85 2.44-5.75 2.97-4.78 1.33-7.84-1.17-12.24-2.06-2.67-7.1 3.83-7.91 5.42-10.53 1.12-1.84.97-4.96 2.28-7.34 2.69-4.9 10.14-12.96 12.91-17.87 1.16-2.06.99-4.6 2.28-6.52 1.11-1.66 3.89-2.35 4.22-2.91 1.19-2.02-.72-7.42.8-10.75.69-1.52 3.28-2.66 4.3-4.5 2.22-4.01 4.23-7.42 6.48-11.22 1.74-2.93 1.3-6.33 2.41-8.48.95-1.84 4.36-2.32 4.75-3.96s-1.83-5.77-.68-9.57c.87-2.89 4.46-3.41 5-4.33.87-1.47.17-5.28 1.57-7.78 1.24-2.21 4.38-2.5 5.11-4.82 1.14-3.65-1.68-7.6-.98-10.56.25-1.04 2.79-1.33 3.87-2.99 1.48-2.28 1.33-5.94 2.55-8.47s4.55-4.33 5.31-6.87c.81-2.76-.74-4.75-.22-6.69.69-2.58 3.72-2.95 3.97-4.01.55-2.28-.41-5.5.21-8.34 1.04-4.73 9.1-8.28 6.48-16.05l5.36-1.24c.08-3.87-2.91-6.12-2.2-10.36.5-3 3.98-4.21 5.26-6.9s.97-6.96 1.53-7.82c.36-.55 6.26-2.01 7.81-2.64 1.44-.59 2.4-2.39 3.79-2.82 6.14-1.92 7.38 3.69 11.86 3.69 4.09 0 6.61-5.09 9.73-4.79 2.79.27 5.69 5.47 9.91 5 3.64-.41 3.82-5.84 8.92-5.24 3.83.45 5.86 8.23 12.03 4.28 2.16-1.38 1.82-4.65 6.62-4.23 4.77.42 4.65 5.5 8.87 5.35 4.25-.15 4.25-3.77 6.33-4.66 7.35-3.17 7.72 4.83 12.36 4.66s4.5-6.33 10.96-5.41c4.02.57 3.04 5.61 7.74 5.64 5.35.04 3.56-6.08 9.9-5.72 5.4.31 3.98 5.72 8.8 5.72s3.29-6.09 9.89-5.73c5.4.29 3.98 5.73 8.8 5.73s3.29-6.09 9.89-5.73c5.4.29 3.98 5.73 8.8 5.73 4.53 0 3.78-4.47 6.8-5.42 7.63-2.4 6.32 3.64 9.18 5.8 1.72 1.3 5.78 1.25 6.36 1.9.85.95.52 6.96 1.54 8.35 1.92 2.64 13.22 3.74 2.06 11.96-1.82 5.31 4.62 5.56 6.22 7.25 1.66 1.76.78 5.52 1.93 7.43.96 1.59 4.81 1.95 6.12 3.77 1.59 2.21.78 5.57 2.02 7.61.93 1.52 5.81 1.85 6.58 4.75.81 3.5-2.84 3.99-5.22 4.91-2.6 7.14 5.13 7.08 6.94 9.78 1.26 1.88.74 5.81 2.26 7.63 1.44 1.71 5.86 1.63 6.91 5.21 2.01 6.86-4.32 5.08-5.2 7.57-2.09 5.91 7.59 7.63 6.52-.66 8.14-.37 7.25 6.75 0 7.73 1.16 1.7.69 4.22 1.34 5.78 1.1 2.66 5.04 2.54 6.45 4.54 1.44 2.04.58 4.74 2.02 6.78 1.26 1.78 5.26 2.26 6.15 3.74 4.01 6.69-2.5 6.72-3.6 7.98-3.55 4.06 2.37 7.31 6.34 7.44.04-1.93.73-3.65 1.11-5.49 6.98-.3 4.69 5.67-1.11 5.49zM898.33 18.91h-2.19v3.29h2.19zm18.69 0h-2.19v3.29h2.19zm18.69 0h-2.19v3.29h2.19zm16.51 3.29c4.03-.02 4.03-3.27 0-3.29zm18.69 0c4.03-.02 4.03-3.27 0-3.29zm18.69 0c4.03-.02 4.03-3.27 0-3.29zm19.25-3.29-1.64 1.64 2.71 1.64 1.64-1.64zM734.51 32.09c2.3.13 4.12.42 5.47-1.64-1.35-2.06-3.17-1.78-5.47-1.64v3.29zm0 18.69c2.3.13 4.12.42 5.47-1.64-1.35-2.06-3.17-1.78-5.47-1.64v3.29zm-85.77 13.21-4.21 1.28-.17 4.21h4.39v-5.49zm185.82 2.2c-1.89-.42-3.56-1.16-5.22.24l-1.37 5.24 5.03-1zm-95.66 4.39c.18-.13 1.3-3.14.03-3.87-7.38-4.3-4.14 6.88-.03 3.87m53.89-4.39c-1.26.89-1.66 6.71 2.73 5.48 3.91-1.09.35-7.66-2.73-5.48m-15.41 1.1c-1.74-1.74-5.03 1.54-3.29 3.29 1.74 1.74 5.03-1.54 3.29-3.29m64.87 7.69c-1.95-2.09-4.92 4.4-1.64 4.37 1.13-.01 2.32-3.64 1.64-4.37m148.99.02c-1.15 0-4.47 4.54-1.09 5.47 5.27 1.45 3.63-5.45 1.09-5.47m-448.48 43.57c4.45-6.7-1.99-5.42-4.5-8.43-2.32-2.77-.73-8.07-5.57-8.79-6.69-1-3.7 4.15-5.9 7.25-2.01 2.84-7.78 1.38-6.7 8.62.32 2.17 3.18 4.22 2.2 7.23-17.87-6.2-1.06 5.97-6.87 11.84-2.94 2.97-7.08.94-5.23 10.16 6.51 3.1 10.52-4.89 12.81-5.33 3.61-.7 5.78 5.16 6.66 5.38 7.17 1.73 10.19-9.23 16.39-4.52 1.39 1.06 2.16 6.19 7.08 2.87 5.1-3.44-3.52-7.43-4.51-8.79-1.41-1.92-1.01-4.56-2.25-6.55-2.09-3.34-8.13-3.06-5.74-9.19.46-1.17 1.84-1.33 2.13-1.75m399.56-15c-.71.71.03 6.1 2.73 5.49 4.22-.95-.22-8-2.73-5.49m-156.14 8.8c-6.79-1.17-1.37 4.76 0 3.29zm127.55 23.08c7.52 1.43 7.43-7.88.17-4.21zm13.19 4.41c-.83-.82-4.45-.51-3.28 2.73 1.36 3.79 4.73-1.29 3.28-2.73m18.69 3.28c-.02-4.03-3.27-4.03-3.29 0zm18.69-2.18h-3.29v2.19h3.29zm18.69 0h-3.29v2.19h3.29zm18.69 0h-3.29v2.19h3.29zm-306.76 27.49c-2.03-.26-3.23-.07-4.38 1.66v1.63h4.38zm-114.36 19.79h-1.63c-1.73 1.16-1.92 2.36-1.66 4.39h3.29zm-17.59 4.38c.36-2-1.21-3.64-3.29-3.29l-1.11 3.28h4.39zm26.39 5.51h-4.39v4.39c1.9-.96 4.85-1.74 4.38-4.39zm365.04 8.8h-2.19v3.29h2.19zm18.7 0h-2.19v3.29h2.19zm18.69 0h-2.19v3.29h2.19zm16.5 3.29c4.03-.02 4.03-3.27 0-3.29zM116.57 88.17l95.5 4.24 1.37-80c7.12-1.73 13.52-.05 20.23-.05 21.89 0 44.12-1.68 65.96-1.26 3.41.07 7.01 2.12 9.76 1.95 3.06-.18 5.33-2.24 10.02-1.9 6.15.44 10.11 2.95 10.41 9.48.16 3.41-2.76 6.88-2.76 9.8 0 2.91 2.9 6.36 2.75 9.8-.13 3.07-3.04 6.22-2.96 8.7.08 2.52 2.83 6.19 2.96 9.08.16 3.52-2.87 7.18-2.96 9.99-.08 2.47 2.82 5.62 2.96 8.7.17 3.74-3.04 6.93-2.96 9.61.09 2.81 3.11 6.45 2.96 9.99-.13 3.14-3.16 6.49-3.16 8.89s3.02 5.74 3.15 8.89c.17 3.84-3.15 7.16-3.15 9.8 0 2.4 3.02 5.74 3.15 8.89.17 3.84-3.15 7.16-3.15 9.8 0 2.4 3.02 5.74 3.15 8.89.17 3.84-3.15 7.16-3.15 9.8 0 2.4 3.02 5.74 3.15 8.89.17 3.84-3.15 7.16-3.15 9.8s3.32 5.96 3.15 9.8c-.14 3.15-3.15 6.49-3.15 8.89 0 4.82 6.08 7.65 1.26 15.64-5.11 8.46-13.94 2.47-19.48 2.47-3.03 0-5.72 2.18-8.83 2.28-3.61.12-6.02-2.03-8.83-2.18-3.04-.16-6.68 1.86-9.82 1.89-15.38.14-31.82-1.7-47.28-1.73-6.09-.01-12.85 2.85-19.57-.21-4.05-5.66-.7-12.58-.68-18.17 0-2.61-1.24-5.04-1.25-7.66-.03-7.86 1.57-15.44.05-23.67-11.09-1.99-22.37-.61-33.58-1.06-15.14-.61-30.94-1.1-46.12-2.26-2.42-.18-15.96-4.06-15.96-.53v54.43l-116.57-.57.03-206.1 116.54 1.64v75.32zm1196.29 49.48c.19 5.45-1.23 10.73-7.47 7.46-.28-2.38-1.36-5.13-1.32-7.46 2.91.09 5.9-.2 8.8 0z"/><path d="M1061.07 25.5c6.48.38 8.75-2.31 7.64-8.74l-6.6-1.86c-.41-3.79.76-7.08 5.02-7.07 3.2-.25 2.52 7.33 4.56 7.83 9.12 2.25 7.02-7.36 8.74-7.81l8.02.18c.53 10.61 9.58 10.61 10.11 0l8.02-.18c1.76 10.41 9.68 11.28 10.67.18l8.02-.18c1.76 10.41 9.68 11.28 10.67.18l8.02-.18c1.76 10.41 9.68 11.28 10.67.18l8.02-.18c1.76 10.41 9.68 11.28 10.67.18l8.02-.18c2.4 11.7 9.98 10.35 11.09-1.01l8.17 1.18 2.25 7.09 6.01.57 2.26-8.84 8.16 1.19 1.26 7.53 7.01.12 2.26-8.84 8.16 1.19 1.26 7.53 7.01.12 2.26-8.84 8.16 1.19 1.26 7.53 7.01.12 1.75-8.86 8.68 1.21 1.26 7.53 7.01.12 1.75-8.86 8.68 1.21 1.26 7.53 7.01.12 1.75-8.86 8.68 1.21 1.26 7.53 7.01.12 1.75-8.86 8.68 1.21 1.84 7.65 6.95-.18 1.27-7.52 7.53.06c.88 2.87 1.08 5.69 1.21 8.68-2.55-.13-5.15.08-7.7 0l1.29 7.52 6.4 1.28c-.08-2.92.15-5.88.01-8.8 7.03.37 9.73.45 8.8 8.8h-7.71l.15 8.65 6.48 1.77 1.08 8.27-7.22 1.02.15 7.9 6.58 2c2.58 7.91-1.71 8.08-8.31 7.76-.13-2.63 0-5.15-1.19-7.6-3.84-2.64-13 6.92 1.19 7.6.15 2.91-.1 5.89 0 8.8l-8.69-.12-1.27-7.52c-7.81-1.48-8.03 2.14-8.75 8.74l-8.74-1.16-1.82-7.71-6.87.22-1.26 7.53-7-.13-3.02-7.42c-9.59 3.09-8.88-6.83-11.53-7.73-6.76-2.31-7.16 9.36 2.88 6.49-.23 2.41 1.1 7.71-1.8 8.67-7.08 2.36-5.81-5.33-8.11-7.01-1.65-1.2-6.53-1.43-8.79-1.66-.24-4.31-1.3-9.54-6.68-7.22l-2.12 7.22c2.87.23 5.94-.29 8.79 0 .13 2.39 0 4.75-1.01 6.96-8.1 5.73-6.41-4.84-8.84-6.46l-8.8-.55c.38-10.13-9.11-10.86-8.84.04 2.97.28 5.88.41 8.8 1.11l-1.34 6.33c-5.16 3.59-7.35-2.82-7.46-7.43-2.66-.25-5.43.38-8.11-.14l-3.03-7.41-6.53.34-.55 7.29 7.22 1.03c0 11.61-6.71 8.62-7.84-.96l-8.51-.28-3.03-7.42-7.01-.15v7.71c-2.24 0-6.96.29-8.54-1.35-2.47-2.56-.16-7.91-9.58-7.46l-1.59 8.33c-1.29.89-6.88.63-8.87.48-.44-2.51-.46-5.07-2.14-7.21-3.4-2.37-6.65 3.3-4.2 5.86 2.02.75 4.19 1.2 6.34 1.36.48 2.73-.71 6.22 1.62 8.83l7.04 1.2c1.32 6.41 1.59 7.87 8.46 8.61 3.05.33 1.05-7.11 3.27-8.76l6.95 1.27c.49 7.18 2.99 8.13 10 7.5l1.82-7.71 6.91.18 1.85 7.64 8.02-.2 2.27-7.07 4.88-.35c.95.21 1.18.98 1.62 1.7 3.23 5.36-2 6.74 9.93 6.01l1.77 6.48 6.15.6 1.03-7.22h-7.71c.12-3.11-1.2-7.06 2.77-7.74 7.05-1.2 3.77 5.83 5.95 7.27 3.43 2.26 10.71-2.01 10.2 7.93 7.24 3.49 8.12-1.16 8.58-7.46l8.68 1.21 1.84 7.65 6.91-.22 1.26-7.53c7.88-.89 8.65.19 10.03 7.55l8.66.15.15-6.44 5.7-1.16c2.66.81 2.45 6.17 4.48 7.7 2.47 1.86 5.82.35 7.11 1.14 1.15.7.79 6.24 1.75 7.6 1.78 2.52 11.36-.04 8.29 10.96h-7.71l.66 7.81 6.89 2.23.16 8.65h-8.81l.48 8.87 6.76 2.03c1.87 9.59-8.52 6.21-7.28-2.06-3.27-.22-6.58.09-9.85-.05-.16-1.42-1.15-5.43-2.14-6.11-4.34-2.05-7.51 1.57-4.51 5.61 2.14.94 4.44.4 6.65.49.45 3.97 1.06 8.94-3.86 8.9-5.42-.04-3.62-5.14-6.06-7.23-1.98-1.69-6.25-1.5-8.77-1.68-.09-2.55-.75-7.45-3.85-7.77-4-.55-4.89 4.62-4.94 7.77-7.46-.23-10.21 1.81-11.1-7.58l-6.56.37-.55 7.29 7.22 1.03c0 11.61-6.71 8.62-7.84-.96l-8.51-.28c-1.19-7.41-2.37-7.49-9.47-8.67l-1.72 8.78c-10.5.41-6.59-4.03-8.97-7.43-.79-1.13-7.89-1.89-8.52-1.28l-1.26 7.53-6.95.18-1.84-7.65-8.75-.6-1.81-5.87c-.49-2.35-3.85-1.39-5.66-1.18l-1.27 6.43 8.81 1.13-2.13 7.19c-6.32 2.35-7.18-1.93-7.88-7.1l-8.55-.25-1.77-6.48c-4.49-2.98-8.49-.62-7.04 4.82.92 2.77 5.32 1.64 7.57 1.79l.04 5.87-4.77 1.69c-3.31-.78-3.39-6.86-4.2-7.41-2.42-1.67-10.03 2.78-10.79-7.35l-4.86-.54-1.82 6.65 7.55 1.26-.38 6.46c-9.96 6.44-6.75-1.49-8.75-4.47-3.95-5.9-14.33 6.18.35 6.79l1.39 8.51 8.51 1.39c-.04 10.11 9.19 10.66 8.94-.14-2.98-.28-5.88-.41-8.8-1.11 1.17-9.91 8.57-8.75 8.8 1.11 7.18.67 10.18-2.34 11.1 7.58l6.56-.37.55-7.29-7.22-1.03.5-5.55c7.14-4.92 5.9 5.58 7.34 6.51l8.5.29 2.5 7.39 7.55.16v-7.71c10.27-2.72 8.14 5.06 11 7.14.84.61 5.93 1.75 7.12 1.68l1.68-8.82 7.49 1.28c1.15 7.18 2.49 8.08 10.03 7.47l1.26-7.53 6.95-.18 1.84 7.65 8.76.59 1.51 6.18c5.25 3.09 8.31.24 7.16-5.51l-8.73-1.67 1.58-6.12c6.65-3.7 7.21 1.2 8.43 6.51 10.57-3.36 8.71 8.53 13.57 8.86 5.19.36 3.76-5.03 4.98-8.72h-8.8l1.25-7.55c8.52-2.28 5.07 4.81 7.54 7.01 1.72 1.54 6.37 1.37 8.67 1.78l1.3 7.49 7.49-.09 1.26-7.54c8.08-1.17 8.26 2.01 8.79 8.79-2.89-.23-5.9.15-8.8.01 1.31 6.68 1.54 8.07 8.79 8.78-.15-2.9.23-5.9 0-8.79 6.84.54 9.91.7 8.8 8.8h-7.71l.15 8.65 6.48 1.77 1.08 8.27-7.22 1.02.17 7.89 6.9 2.22c1.34 9.33-9.34 11.1-9.66.32-3.68-2.7-8.53 3.25-6.6 6.05 1.03 1.49 10.4-.69 7.46 8.18-.91 2.76-6.12 1.85-8.53 1.68l-1.84-7.64c-7.49-1.19-7.42 2.7-8.18 8.87l-8.08-1.06c-2.33-11.49-10.34-10.57-10.61 1.06l-8.08-1.06c-2.79-11.85-9.5-10.27-11.19 1.08l-8.09-1.24c-1.43-12.06-9.38-9.6-10.6 1.24l-8.09-1.24c-1.43-12.06-9.38-9.6-10.6 1.24l-8.09-1.24c-1.43-12.06-9.38-9.6-10.6 1.24l-8.09-1.24c-.74-6.08-2.12-9.85-8.67-6.24l-1.93 7.47-8.09-1.24c-.74-6.08-2.12-9.85-8.67-6.24l-1.93 7.47-8.09-1.24c-.74-6.08-2.12-9.85-8.67-6.24l-1.93 7.47-8.09-1.24-1.48-6.21c-7.15-3.61-8.1 1.19-8.54 7.42l-8.11-1.04-2.04-6.38c-7.18-3.62-8.1 1.23-8.54 7.42l-8.68-1.21-1.47-6.22c-7.15-3.61-8.1 1.19-8.54 7.42l-8.68-1.21-1.47-6.22c-7.15-3.61-8.1 1.19-8.54 7.42l-8.68-1.21-1.47-6.22c-7.15-3.61-8.1 1.19-8.54 7.42l-8.68-1.21c.16-9.89-11.68-11.43-10 .11l-7.47-1.35-1.33-6.33 8.78-1.65c-1.62-1.84-.41-4.9-2.14-6.66-1.34-1.35-5.2-1.25-6.13-2.66-1.22-1.84-.26-6.38-.5-8.85-8.01-.29-11.28-7.74-1.11-7.7-.08 2.64.85 5.11 1.11 7.7 2.46.09 7.49-.89 7.78-3.86.5-5.19-5.95-3.99-7.27-5.99-1.22-1.84-.26-6.38-.5-8.85-8.01-.29-11.28-7.74-1.11-7.7-.08 2.64.85 5.11 1.11 7.7 2.46.09 7.49-.89 7.78-3.86.5-5.19-5.95-3.99-7.27-5.99-1.22-1.84-.26-6.38-.5-8.85-8.11-.49-11.26-7.61-1.11-7.7-.08 2.64.85 5.11 1.11 7.7 3.21.2 8.19-.65 7.77-4.92-.39-3.96-6.06-3.11-7.27-4.92-1.22-1.84-.26-6.38-.5-8.85-8.11-.49-11.26-7.61-1.11-7.7-.08 2.64.85 5.11 1.11 7.7 3.21.2 8.19-.65 7.77-4.92-.39-3.96-6.06-3.11-7.27-4.92s-.26-6.38-.5-8.85c-8.11-.49-11.26-7.61-1.11-7.7-.08 2.64.85 5.11 1.11 7.7 3.21.2 8.19-.65 7.77-4.92-.39-3.96-6.06-3.11-7.27-4.92-1.22-1.84-.26-6.38-.5-8.85-8.01-.29-11.28-7.74-1.11-7.7-.08 2.64.85 5.11 1.11 7.7 2.46.09 7.49-.89 7.78-3.86.5-5.19-5.95-3.99-7.27-5.99-1.22-1.84-.26-6.38-.5-8.85-8.03-.46-10.73-8.01-1.11-7.7-.08 2.64.85 5.11 1.11 7.7 3.21.18 8.19-.64 7.77-4.92-.39-3.96-6.06-3.11-7.27-4.92-1.22-1.84-.26-6.38-.5-8.85-8.38-.32-10.41-7.85-1.11-7.7-.07 2.63.86 5.11 1.11 7.7 2.46.09 7.49-.89 7.78-3.86.5-5.19-5.95-3.99-7.27-5.99-1.22-1.84-.26-6.38-.5-8.85-8.11-.49-11.26-7.61-1.11-7.7-.08 2.64.85 5.11 1.11 7.7 3.21.2 8.19-.65 7.77-4.92-.39-3.96-6.06-3.11-7.27-4.92s-.24-6.37-.5-8.85c-8.11-.48-11.26-7.62-1.1-7.7-.53 2.71.85 5.29 1.1 7.7zm25.28-3.3c.51-5.85-4.91-5.81-4.39 0zm18.69 0c.51-5.85-4.91-5.81-4.39 0zm18.69 0c.51-5.85-4.91-5.81-4.39 0zm18.69 0c.51-5.85-4.91-5.81-4.39 0zm15.97-4.39c-2.69.61-1.91 6.16 1.07 5.49 2.69-.61 1.91-6.16-1.07-5.49m18.69 0c-2.69.61-1.91 6.16 1.07 5.49 2.69-.61 1.91-6.16-1.07-5.49m18.69 0c-2.69.61-1.91 6.16 1.07 5.49 2.69-.61 1.91-6.16-1.07-5.49m21.42 0c-2.51-2.51-6.94 4.53-2.73 5.49 2.7.61 3.44-4.77 2.73-5.49m18.69 0c-2.51-2.51-6.94 4.53-2.73 5.49 2.7.61 3.44-4.77 2.73-5.49m18.7 0c-2.51-2.51-6.94 4.53-2.73 5.49 2.7.61 3.44-4.77 2.73-5.49m18.69 0c-2.51-2.51-6.94 4.53-2.73 5.49 2.7.61 3.44-4.77 2.73-5.49m18.69 0c-2.51-2.51-6.94 4.53-2.73 5.49 2.7.61 3.44-4.77 2.73-5.49m18.69 0c-2.51-2.51-6.94 4.53-2.73 5.49 2.7.61 3.44-4.77 2.73-5.49m18.69 0c-2.51-2.51-6.94 4.53-2.73 5.49 2.7.61 3.44-4.77 2.73-5.49M1075.35 28.8h-2.19v3.29h2.19zm273.79 7.69-5.02 1.03.57 5.08 5.55.49-1.1-6.59zM1075.35 47.5h-2.19v3.29h2.19zm114.35 0c-2.92-2.79-8.58 4.02-2.72 5.48 2.71.68 3.4-4.84 2.72-5.48m14.87 0c-2.21.62-2.21 4.86 0 5.48 5.06 1.42 5.06-6.89 0-5.48m18.69 0c-2.87.77-1.56 5.38 2.18 4.38 2.87-.77 1.56-5.38-2.18-4.38m21.42-.01h-3.29v4.39h3.29zm18.69.01c-1.95-2.09-4.92 4.4-1.64 4.37 1.13-.01 2.32-3.64 1.64-4.37m18.7 1.1h-3.29v2.19h3.29zm23.09 13.18c10.57 1.86 6.32-8.77 1.02-5.02zm19.8 0c2.51 2.51 6.94-4.53 2.73-5.49-2.7-.61-3.44 4.77-2.73 5.49m-153.95 4.42c-5.63-2.51-6.93 4.93 0 3.28zm-95.66-.01h-2.19v3.29h2.19zm105.57 7.69h-5.51l.11 5.39h5.29zm65.97 8.8-7.69-1.1 1.23 7.55 5.43-.33 1.03-6.11zm-57.19 5.49c.67-.64-.02-6.16-2.72-5.48-5.85 1.46-.2 8.27 2.72 5.48m18.71-5.5h-5.51l.11 5.39h5.29zm19.79.01h-7.7c-.69 8.76 8.41 8.73 7.7 0m-152.85 2.2h-2.19v3.29h2.19zm255.11 6.59-7.7.02 2.13 6.11 5.57.49zm-38.5 1.11c-2.51-2.51-6.94 4.53-2.73 5.49 2.7.61 3.44-4.77 2.73-5.49m19.79 0-6.11 1.06c-.78 3.96 1.37 5.67 5.09 3.95zm-58.27 1.1h-2.19v3.29h2.19zm19.79 0c-5.5-.41-5.5 3.7 0 3.29zm67.07 8.8c-.4-.55-4.68-1.78-5.43.61-2.57 8.22 8.24 3.32 5.43-.61m-264.99 1.09h-2.19v3.29h2.19zm120.42 9.9-1.64 1.64 2.71 1.64 1.64-1.64zm20.32 0h-2.19v3.29h2.19zm30.8 14.28c.7-8.73-8.39-8.76-7.7 0zm17.56-5.46c-.42-.64-5.01-.64-5.45 0-.65.94.06 4.98 1.63 5.46 3.39 1.05 4.93-3.77 3.81-5.46zm74.79 4.36c.71-.71-.03-6.1-2.73-5.49-4.22.95.22 8 2.73 5.49m-263.89-4.39h-2.19v3.29h2.19zm94.56 0c-4.03.02-4.03 3.27 0 3.29zm107.77 4.39c.71.71 6.1-.03 5.49-2.73-.95-4.22-8 .22-5.49 2.73m23.08-4.39h-3.29v4.39h3.29zm18.69 1.1h-3.29v2.19h3.29zm-244.1 17.6h-2.19v3.29h2.19zm95.66 0h-4.39v3.29c2.03.26 3.23.07 4.38-1.66v-1.63zm6.07 7.7c-2.21.62-2.21 4.86 0 5.48 5.06 1.42 5.06-6.89 0-5.48m63.21 9.89c-2.17 3.09 4.39 6.65 5.48 2.73 1.23-4.39-4.6-3.99-5.48-2.73m24.18-1.11-5.01 1.03c-1.95 4.72.62 5.97 4.91 4.35l.1-5.39zm19.8.01h-7.7c-.69 8.76 8.41 8.73 7.7 0m-97.31 1.12-1.64 2.71 1.64 1.64 1.64-2.71zm20.34-.02h-3.29v4.39h3.29zm15.39 0c-1.31.94-1.12 5.43 2.74 4.38 3.85-1.05-.16-6.24-2.74-4.38m-147.34 1.1h-2.19v3.29h2.19zm249.61 12.09c.94 1.31 5.43 1.12 4.38-2.74s-6.24.16-4.38 2.74m-17.59-.01c4.03-.02 4.03-3.27 0-3.29zm-232.02 6.61h-2.19v3.29h2.19zm273.79 7.68-5.02 1.03.57 5.08 5.55.49-1.1-6.59zm-273.79 11.01h-2.19v3.29h2.19zm100.07 9.89c-1.86 2.58 3.33 6.59 4.38 2.74 1.05-3.86-3.44-4.04-4.38-2.74m18.69 0c-1.86 2.58 3.33 6.59 4.38 2.74 1.05-3.86-3.44-4.04-4.38-2.74m20.36-1.09c-2.69.61-1.91 6.16 1.07 5.49 2.69-.61 1.91-6.16-1.07-5.49m18.69 0c-2.69.61-1.91 6.16 1.07 5.49 2.69-.61 1.91-6.16-1.07-5.49m18.69 0c-2.69.61-1.91 6.16 1.07 5.49 2.69-.61 1.91-6.16-1.07-5.49m18.69 0c-2.69.61-1.91 6.16 1.07 5.49 2.69-.61 1.91-6.16-1.07-5.49m18.69 0c-2.69.61-1.91 6.16 1.07 5.49 2.69-.61 1.91-6.16-1.07-5.49m18.7 0c-2.69.61-1.91 6.16 1.07 5.49 2.69-.61 1.91-6.16-1.07-5.49m18.69 0c-2.69.61-1.91 6.16 1.07 5.49 2.69-.61 1.91-6.16-1.07-5.49m-243 1.1-1.64 1.64 2.71 1.64 1.64-1.64zm21.42 0c-2.03-.26-3.23-.07-4.38 1.66v1.63h4.38zm18.69 0c-2.03-.26-3.23-.07-4.38 1.66v1.63h4.38zm18.69 0c-2.03-.26-3.23-.07-4.38 1.66v1.63h4.38zm18.7 0c-.16-.15-4.23-.16-4.39 0-2.13 2.14 3.17 6.14 4.38 2.73.17-.48.1-2.64 0-2.73z"/><path d="M1284.27 81.58h-7.71l1.56-6.7c4.1-3.45 7.24 2.62 6.15 6.7m48.38-8.8 7.23 1.02c1.69 9.72-8.94 8.22-7.23-1.02m7.69 83.56-7.7-1.1 1.21-6.49c5.38-1 7.19 2.61 6.49 7.59m-94.73 72.4c-.74.46-4.42.46-5.16 0l-1.26-6.43 7.23 1.04c.93 1.09-.21 5.01-.81 5.38zm18.7 0c-.74.46-4.42.46-5.16 0l-1.26-6.43 7.23 1.04c.93 1.09-.21 5.01-.81 5.38zm-37.39 0c-.74.46-4.42.46-5.16 0l-1.26-6.43 7.23 1.04c.93 1.09-.21 5.01-.81 5.38zm11.17-82.3h-7.7c-.27-10.5 6.11-9.52 7.7 0m44.91 82.3c-.74.46-4.42.46-5.16 0l-1.26-6.43 7.23 1.04c.93 1.09-.21 5.01-.81 5.38zm18.69 0c-.74.46-4.42.46-5.16 0l-1.26-6.43 7.23 1.04c.93 1.09-.21 5.01-.81 5.38zm18.69 0c-.74.46-4.42.46-5.16 0l-1.26-6.43 7.23 1.04c.93 1.09-.21 5.01-.81 5.38zm18.69 0c-.74.46-4.42.46-5.16 0l-1.26-6.43 7.23 1.04c.93 1.09-.21 5.01-.81 5.38zM1218.3 63.98l-.16 6.44-4.23.78c-2.56-1.67-2.4-4.43-2.23-7.21h6.61zm-24.08 7.59c-2.17-1.51-1.1-10.93 4.36-7.11 3.48 2.43-.37 9.89-4.36 7.11m15.26 151.89-1.25 5.29h-5.16l-1.26-6.43zm-18.69 0-1.18 5.35c-4.66.94-7.14-1.96-6.48-6.48l7.67 1.14zm61.18-84.64c3.09-.47 5.66 6.31 1.94 7.53-6.42 2.1-5.75-6.94-1.94-7.53m22.41-.07c1.46 12.11-10.15 6.75-5.61.65 1.11-1.5 4.07-.38 5.61-.65m-102.27 84.68c.6 3.59-2.89 7.2-6.13 4.48l-1.55-5.59 7.69 1.11zm-18.69 0c-.44 8.26-8.01 6.6-7.69-1.11zm148.27-143.11c-4.54 2.8-8.91-3.5-4.22-5.93 4.46-2.31 6.69 4.41 4.22 5.93m19.96-73.52-7.69-1.1c.94-8.19 8.37-6.68 7.69 1.1m-261.69 197.92-.53 7.69c-7.76-2.41-8.06-7.6.53-7.69M1246.88 6.8l-7.69-1.1c.94-8.19 8.37-6.68 7.69 1.1m93.46 0-7.69-1.1c.94-8.19 8.37-6.68 7.69 1.1m11.01 111.06.53-7.69c7.76 2.41 8.06 7.6-.53 7.69m-216.62 105.57c.7 2.61-1.99 6.3-4.87 5.46l-2.82-6.56zM1302.96 6.8l-7.69-1.1c.94-8.19 8.37-6.68 7.69 1.1m-18.7 0-7.69-1.1c.94-8.19 8.37-6.68 7.69 1.1m-56.07 0-7.69-1.1c1.18-8.26 7.68-6.7 7.69 1.1m37.38 0-7.69-1.11 2.13-5.01c3.18-2.33 6.63 2.87 5.56 6.12m-149.53 216.63c.02 2.47-1.96 6.34-4.92 5.47l-2.78-6.57 7.69 1.1zm204.35-149.4c2.14 3.42.58 6.49-3.65 6.44l-1.69-6.59 5.33.15zM1209.5 6.8l-7.69-1.1 2.13-5 3.41.02zm-112.15 216.63c-2.18 8.47-6.77 6.72-7.69-1.11zm254-94.57c2.33 1.04 5.19 1.5 6.53 3.97-2.85 7.35-7.66 1.94-6.53-3.97m-356.26-1.11h-7.69l1.21-5.36c4.77-1.22 5.2 1.65 6.48 5.36m38.49 8.8 1.02-5.02c5.3-3.76 9.55 6.88-1.02 5.02m308.97-46.18c-1.86-10.57 8.77-6.32 5.02-1.02zM1190.8 6.8l-6.53-1.16c-.49-9.01 6.36-5.97 6.53 1.16m-18.69 0-6.59-1.11c-.37-9.05 6.39-6.06 6.59 1.11m-18.69 0-6.59-1.11c-.05-9.11 5.75-6.19 6.59 1.11m-74.76 216.63-2.13 5c-4.01 1.82-4.93-1.7-4.47-5.01h6.6zm-48.39-101.17-.48 4.46-5 1.03.47-4.46zM1133.64 5.7h-5.51c-.93-7.63 6.48-7.49 5.51 0m-18.69 0h-5.51l.18-4.2 4.25-.8zm-93.55 217.79.13 3.63c-4.08 3.77-5.28-1.22-6.65-4.8zm-46.1-95.74h-5.5c-.46-8.07 4.85-6.41 5.5 0m120.83-126.3.13 4.25h-5.5l2.17-4.97zm-18.69-.01c3.4 4.48-4.74 5.93-5.38 2.6-.49-2.53 3.92-4.53 5.38-2.6m279.39 92.24c.66.6-.01 6.19-2.73 5.49-5.08-1.32-.54-8.44 2.73-5.49m-354.05 129.74c.7 6.04-6.18 6.04-5.49 0zm-18.69 0c.7 6.04-6.18 6.04-5.49 0zm-18.69 0c.7 6.04-6.18 6.04-5.49 0zm-22.52.01c3.74-1.01 5.05 3.6 2.18 4.38-3.74 1.01-5.05-3.6-2.18-4.38m411.23-149.54c2.98-.67 3.76 4.88 1.07 5.49-2.98.67-3.76-4.88-1.07-5.49m8.79 122.04c2.98-.67 3.76 4.88 1.07 5.49-2.98.67-3.76-4.88-1.07-5.49m0-18.69c2.98-.67 3.76 4.88 1.07 5.49-2.98.67-3.76-4.88-1.07-5.49m0-130.84c2.98-.67 3.76 4.88 1.07 5.49-2.98.67-3.76-4.88-1.07-5.49M1017.64 1.32c3.74-1.01 5.05 3.6 2.18 4.38-3.74 1.01-5.05-3.6-2.18-4.38m-18.69 0c3.74-1.01 5.05 3.6 2.18 4.38-3.74 1.01-5.05-3.6-2.18-4.38m-19.25 0c2.58-1.86 6.59 3.33 2.74 4.38-3.86 1.05-4.04-3.44-2.74-4.38m385.93 30.78c-.94 1.31-5.43 1.12-4.38-2.74 1.05-3.85 6.24.16 4.38 2.74m-414.51 91.26c.94-1.31 5.43-1.12 4.38 2.74-1.05 3.85-6.24-.16-4.38-2.74M723.5 187.14l-.54 5.48-3.34-2.16-.51-1.67c1.17-1.71 2.36-1.92 4.39-1.66zm0-37.39-.54 5.48-3.34-2.16-.51-1.67c1.17-1.71 2.36-1.92 4.39-1.66zm200.12 78.06c-1.31-.94-1.12-5.43 2.74-4.38 3.85 1.05-.16 6.24-2.74 4.38M723.5 168.45l-.54 5.48-3.34-2.16-.51-1.67c1.17-1.71 2.36-1.92 4.39-1.66zm283.7-85.77c1.42-1.22 6.76 3.33 1.64 5.47-1.95-.8-3.09-4.22-1.64-5.47m-98.98 145.13h-3.28c-1.65-6.93 5.79-5.63 3.28 0M964.3 1.32c.69.54 1.23 3.75-.55 4.38-5.33 1.9-1.91-6.33.55-4.38m-78.05 222.1c2.84-2.84 5.9 4.36 1.64 4.37-1.14 0-2.32-3.69-1.64-4.37m59.36-222.1v4.39h-3.29c-.26-2.03-.07-3.23 1.66-4.38h1.63zm411.22 223.2v3.29c-5.5.41-5.5-3.7 0-3.29M926.92 5.7h-3.29c-.41-5.5 3.7-5.5 3.29 0m-56.08 217.72c1.45 1.44-1.92 6.52-3.28 2.73-1.17-3.24 2.45-3.56 3.28-2.73m-18.69 0c1.45 1.44-1.92 6.52-3.28 2.73-1.17-3.24 2.45-3.56 3.28-2.73m504.68-222.1c1.74 1.74-1.54 5.03-3.29 3.29s1.54-5.03 3.29-3.29M908.22 5.7c-1.95 2.09-4.92-4.4-1.64-4.37 1.13.01 2.32 3.64 1.64 4.37m457.41 60.49c1.74 1.74-1.54 5.03-3.29 3.29s1.54-5.03 3.29-3.29m0-56.08v3.29h-3.29c-.36-2 1.21-3.64 3.29-3.29m-476.1-7.69c-.02 4.03-3.27 4.03-3.29 0zm464.02 151.72v-3.29c4.03.02 4.03 3.27 0 3.29m-522.28 73.67-1.08-2.75 1.62-1.62 1.65 2.71zm534.36-12.08c-.02 4.03-3.27 4.03-3.29 0z"/></g><defs><clipPath id="a"><path fill="#fff" d="M0 0h1366.12v229.09H0z"/></clipPath></defs></svg>