<svg xmlns="http://www.w3.org/2000/svg" width="1558" height="495" fill="none"><g fill="#fff" clip-path="url(#a)"><path d="M238.276 457.699c-.756-2.269-1.26-3.781-1.765-5.041-1.008-2.647-1.386-3.781-2.017-7.939-.63-4.537-.756-6.301-.756-9.074 0-1.89 0-4.158-.378-7.813l-2.27-32.512c-.252-4.159-.63-6.301-.882-8.318s-.631-3.78-.883-7.687c-.252-3.78-.252-5.671-.252-7.687s0-4.158-.252-8.317c-.378-5.671-.756-11.468-1.135-17.139-.252-4.158-.63-6.301-.882-8.317s-.631-3.78-.883-7.687c-.252-3.78-.252-5.671-.252-7.687 0-2.142 0-4.411-.252-8.947-2.269-32.765-4.539-65.53-6.808-98.169-.252-4.032-.63-6.175-.882-8.191-.252-2.142-.631-4.032-.883-8.317-.252-3.781-.252-5.671-.252-7.687s0-4.159-.252-8.317c-.757-11.09-1.513-22.054-2.269-33.143-.253-4.159-.631-6.301-.883-8.317s-.63-3.781-.882-7.687c-.253-4.285-.253-6.175-.253-8.318 0-2.016 0-4.158-.252-8.317s-.63-6.301-.882-8.317-.631-3.781-.883-7.687c-.252-3.655-.252-5.671-.252-7.687 0-2.269 0-4.663-.252-9.578-.756-10.585-1.513-21.297-2.269-31.882-.252-3.403-.505-5.545-.631-7.183-.252-2.647-.504-4.285-.504-8.948 0-4.788.378-6.049 1.009-9.073.252-1.26.63-2.773 1.008-5.04.631-2.143 1.639-3.53 2.774-4.915 2.017-2.773 5.169-6.932 0-12.854 0 0 0-.126-.126-.252-5.674-5.797-10.843-3.403-13.868-1.89-1.639.755-3.278 1.512-5.295 1.764-5.043.378-9.96.756-15.003 1.134-3.782.252-5.547.252-7.438.252-2.017 0-4.161 0-8.195.252-4.538.378-6.682.63-8.825 1.008-1.891.252-3.782.63-7.438.882-1.765.126-3.152-.378-4.917-.882-3.152-1.008-8.573-2.898-13.364 3.907 0 0 0 .125-.126.252-4.034 6.427-.504 10.081 1.639 12.35 1.261 1.386 2.396 2.52 2.9 4.536v.252c.756 2.142 1.387 3.655 1.891 4.915 1.135 2.898 1.639 4.032 2.395 8.821.757 4.537.757 6.301.883 9.073 0 1.89.126 4.159.378 7.813.252 3.781.252 5.671.252 7.688 0 2.142 0 4.41.378 8.947.253 4.032.631 6.049 1.009 8.191s.63 4.285 1.009 8.947c.252 3.781.252 5.671.252 7.688 0 2.142 0 4.41.378 8.947.378 4.032.63 6.175 1.009 8.191.378 2.142.63 4.285 1.008 8.947.378 5.545.883 11.09 1.261 16.509.252 3.654.252 5.671.252 7.687 0 2.268 0 4.663.378 9.577.883 11.216 1.765 22.558 2.648 33.773.252 2.647.504 4.285.63 5.419.378 2.142.378 2.646-.756 7.561v.378c-.883 3.907-.883 4.411-3.53 5.167-5.169 1.638-5.169 1.638-7.943 1.764-1.008 0-2.395 0-4.286.252-5.043.378-10.212.882-15.255 1.26-2.522.252-4.16.504-5.295.63-2.143.378-2.522.378-6.682-.63h-.378c-3.026-.504-4.287-1.638-5.673-5.292-1.891-5.041-2.018-5.167-1.891-6.931 0-1.009 0-2.647-.253-5.419-.504-5.671-1.008-11.468-1.513-17.139-.378-4.284-.378-6.175-.378-8.317 0-2.016 0-4.159-.378-8.317-1.008-11.216-1.891-22.431-2.9-33.773-.378-4.915-.756-7.309-1.134-9.577-.379-2.017-.63-3.907-.883-7.562-.504-5.544-.882-11.089-1.387-16.508-.378-4.663-.378-6.805-.378-9.073 0-2.017 0-4.285-.378-8.191-.504-5.545-.882-11.09-1.387-16.509-.378-4.285-1.008-6.679-1.513-8.695-.63-2.395-1.008-3.78-.63-7.813.378-4.41.756-5.923 1.26-8.318.379-1.512.757-3.402 1.261-6.426v-.378c.253-2.143 1.261-3.655 2.396-5.167 1.765-2.395 5.043-7.057 0-12.35-5.295-5.923-10.338-3.78-13.742-2.268-1.765.756-3.404 1.512-5.547 1.638-4.539.378-6.934.756-8.951 1.134-1.765.252-3.404.63-6.682.882-5.17.504-10.464.882-15.633 1.386-3.782.378-5.547.378-7.438.378-2.018 0-4.16 0-8.195.378-1.765.127-3.278-.252-4.917-.63-3.404-.882-8.573-2.268-13.237 4.537-4.791 6.805-1.135 10.712 1.26 13.358 1.135 1.26 2.27 2.394 2.9 4.159v.252c1.008 2.142 1.765 3.654 2.395 4.914 1.387 2.773 2.017 4.033 3.278 8.57.757 4.41.883 6.174 1.009 8.82 0 1.765.126 3.907.504 7.31 2.521 27.22 5.043 54.314 7.564 81.534.379 3.78.379 5.671.379 7.687s0 4.159.378 8.317c.378 4.411.756 6.679 1.134 8.821.379 2.143.757 4.159 1.135 8.318l10.59 113.416c.378 4.159.378 6.175.504 8.317 0 2.143 0 4.411.505 8.948.378 4.158.756 6.175 1.134 8.191.379 1.89.63 3.78 1.009 7.687 3.53 37.931 7.06 75.989 10.59 113.92.252 2.773.504 4.789.63 6.301.379 3.655.63 4.915.252 10.334v.252c0 4.537-.252 5.419-1.134 8.947-.252 1.134-.757 2.647-1.135 4.663v.252c-.378 1.89-1.134 3.402-2.017 4.915-1.639 2.898-4.286 7.687.757 13.106 2.9 3.024 5.673 3.78 8.068 3.528 2.143-.252 4.034-1.26 5.421-2.016 1.513-.756 2.9-1.512 4.539-1.764 3.908-.378 5.8-.757 7.69-1.009 1.765-.252 3.53-.63 7.06-.882 3.53-.378 5.295-.378 7.06-.378 1.891 0 3.909 0 7.69-.378 3.405-.252 5.296-.63 7.061-.882 1.765-.378 3.656-.63 7.69-1.008 2.017-.126 3.53.378 5.295.882 3.026 1.008 8.069 2.646 11.977-4.033 4.034-6.174.504-10.081-1.639-12.475-1.135-1.261-2.269-2.521-2.9-4.285-2.395-6.931-2.395-7.057-4.16-13.358-.756-5.293-.882-7.309-1.009-9.955 0-1.639-.126-3.655-.378-6.679-.378-4.537-.756-6.805-1.134-8.948-.379-2.016-.631-3.906-.883-7.561-.504-5.671-1.008-11.467-1.513-17.138-.378-4.159-.378-6.175-.378-8.317 0-2.017 0-4.159-.378-8.318-.504-5.67-1.009-11.467-1.513-17.138-.378-4.537-.756-6.805-1.135-8.947-.378-2.017-.63-3.907-.882-7.562-.504-5.67-1.009-11.467-1.513-17.138-.378-4.159-.378-6.175-.378-8.317 0-2.017 0-4.159-.379-8.317-.504-5.671-1.008-11.468-1.512-17.139-.126-2.142-.379-3.654-.505-4.789q-.378-2.898.505-8.443c.882-4.915 2.143-5.545 4.16-5.923h.252c4.287-1.134 4.665-1.134 6.682-1.26 1.135 0 2.647 0 5.043-.252 5.043-.378 10.086-.882 15.129-1.26 2.521-.252 3.908-.378 5.042-.504 1.891-.252 2.144-.252 6.934 0h.126c2.144 0 3.53.504 5.043 5.167q1.765 5.418 1.891 8.317c0 1.134.126 2.646.253 4.788.504 5.671.882 11.468 1.386 17.139.253 3.78.252 5.671.252 7.687 0 2.142.001 4.411.379 8.947.252 4.033.63 6.175 1.008 8.192.379 2.142.631 4.284 1.009 8.947 2.143 27.976 4.412 56.078 6.556 84.054.252 3.025.504 4.915.63 6.679.378 2.646.63 4.663.63 10.208 0 3.528-.378 4.788-1.008 6.931-.378 1.638-1.009 3.528-1.513 6.678-.378 1.765-1.135 3.151-1.891 4.537-1.639 2.899-4.034 7.183.756 13.106l.126.126c5.043 5.419 9.834 3.151 12.734 1.764 1.512-.756 3.025-1.386 4.79-1.512 3.783-.252 5.8-.63 7.691-.882s3.782-.63 7.69-.882c3.53-.252 5.295-.252 7.06-.252 1.891 0 3.908 0 7.691-.252 4.664-.378 9.455-.63 14.12-1.008 2.017-.126 3.656.378 5.295.882 3.152 1.008 7.816 2.394 12.355-3.403v-.126c4.791-6.931.756-11.089-1.765-13.61-1.261-1.26-2.396-2.394-3.152-4.032zM423.981 92.245c-.378-9.83-.883-19.659-1.261-29.488 0-2.646.126-4.285.504-5.923.631-3.402.883-6.049-1.513-10.963-2.143-4.915-4.664-6.301-7.564-7.562-1.135-.504-2.269-1.008-3.656-2.016q-5.17-4.032-8.699-8.443l-.378-.378c-1.387-1.26-2.269-2.269-2.9-3.15-2.269-2.647-3.782-4.16-9.329-5.797-5.295-1.765-8.069-1.387-11.725-.378-1.639.378-3.404.882-6.177 1.008-27.232 1.386-54.59 2.772-81.821 4.41-2.522.126-4.035 0-5.674-.378-3.025-.504-6.177-.882-12.229 1.639-4.916 2.142-6.303 4.536-7.69 6.805-.63 1.134-1.387 2.394-2.774 3.906 0 0 0 .126-.126.252-2.521 3.024-3.151 3.655-5.043 5.293-.882.882-2.017 1.89-3.782 3.402l-.126.126c-1.387 1.513-2.395 2.143-3.53 2.899-2.521 1.638-4.412 3.276-6.303 8.065 0 .126 0 .252-.126.378-1.513 5.293-.757 7.94 0 10.712.378 1.638.756 3.276 1.008 5.922.252 4.033.757 6.05 1.135 7.94.378 1.764.756 3.402 1.008 6.679.253 3.402 0 5.04 0 6.805-.252 2.016-.378 4.032 0 8.065.253 4.662.883 7.057 1.261 9.073.378 1.89.757 3.403 1.009 6.679.252 3.403 0 5.041 0 6.805-.126 2.016-.379 4.033 0 8.065.378 5.167.63 10.208 1.008 15.374.252 4.033.757 6.049 1.135 7.94.378 1.764.756 3.402 1.008 6.679.253 3.402 0 5.04 0 6.805-.126 2.016-.378 4.032 0 8.065l4.917 75.989c.252 4.41.757 6.553 1.261 8.569.378 1.764.756 3.403 1.009 6.679.252 3.402 0 5.041 0 6.805-.126 2.016-.379 4.033 0 8.065.252 4.285.756 6.553 1.26 8.569.379 1.765.757 3.403 1.009 6.679.252 3.403 0 5.041 0 6.805-.126 2.017-.378 4.033 0 8.066.252 3.906.756 5.922 1.135 7.939.378 1.89.756 3.654 1.008 7.309l3.026 45.366c.252 3.403 0 5.041 0 6.805-.126 2.017-.378 4.033 0 8.066.252 4.284.756 6.552 1.134 8.569.379 1.764.757 3.402 1.009 6.679.252 3.78 0 5.545 0 7.435-.126 2.016-.378 4.032 0 7.939.126 2.142 0 3.528 0 4.915-.252 3.528-.378 6.049 2.522 11.719 1.638 4.159 3.403 5.545 5.673 6.931 1.008.63 2.143 1.261 3.782 2.899l.126.126c2.774 2.394 4.286 3.402 5.547 4.284 1.135.757 2.143 1.387 3.908 3.025 1.513 1.386 2.27 2.646 3.026 3.906 1.639 2.521 3.278 5.041 8.573 6.175 3.026.756 5.169.882 6.934.756 1.639 0 2.9-.378 4.16-.756 1.513-.378 3.026-.756 5.422-.882 3.656-.252 5.673-.504 7.564-.756 2.017-.252 4.034-.504 8.321-.756 3.53-.252 5.295-.126 7.06-.126 1.891 0 3.908 0 7.69-.126 4.16-.252 6.178-.504 8.195-.756s3.782-.504 7.69-.63c3.53-.126 5.295-.126 7.06 0 2.017 0 4.161 0 8.321-.126 5.169-.252 10.212-.504 15.381-.756 2.773-.126 4.412 0 6.051.252 2.9.378 5.547.63 10.59-1.26 4.665-1.891 6.178-3.907 7.943-6.553.63-1.009 1.387-2.017 2.647-3.277 0-.126.252-.252.379-.378a156 156 0 0 1 7.942-9.325c1.387-1.513 2.395-2.269 3.404-3.025 2.395-1.89 4.034-3.402 5.673-7.813v-.126c1.765-5.797 1.513-8.317.757-11.72-.252-1.386-.631-2.772-.631-5.04-.126-3.781-.378-5.797-.63-7.687s-.378-3.781-.63-7.688c-.883-20.036-1.765-40.199-2.648-60.236-.126-3.529 0-5.167 0-7.057v-8.318c-.126-4.158-.378-6.301-.63-8.317-.252-1.89-.378-3.528-.631-7.057-.252-4.915-.378-9.829-.63-14.744-.126-3.529 0-5.167 0-7.057 0-2.016.126-4.159 0-8.317-.252-4.915-.378-9.83-.63-14.744-.126-3.781-.379-5.797-.631-7.687s-.504-3.781-.63-7.688c-1.261-30.244-2.648-60.614-3.908-90.859-.126-3.528 0-5.293 0-7.057 0-1.89.126-3.906 0-7.687-.252-5.167-.505-10.207-.631-15.374-.126-3.907-.378-5.797-.63-7.687-.252-1.765-.378-3.529-.63-7.057-.126-3.403 0-5.167 0-7.057 0-2.143.126-4.285 0-8.948zm-61.145 88.717c.252 1.764.504 3.529.63 7.057.252 5.167.504 10.208.756 15.374.127 3.151 0 4.789 0 6.427v7.814c.505 10.081 1.009 20.036 1.513 30.118.253 3.906.505 5.923.757 7.687.252 1.638.378 3.277.63 6.427.126 3.529.126 5.293 0 7.057v7.687c.252 4.159.504 6.301.757 8.317.252 1.891.504 3.529.63 7.057s.126 5.293 0 7.057v7.688c.252 4.788.504 9.451.756 14.24.253 4.158.505 6.301.757 8.317.252 1.89.504 3.528.63 7.057.126 3.528.126 5.293 0 7.057v7.687l1.513 29.488c0 1.26.126 2.269.252 3.151q.252 3.528-1.639 8.443v.504c-.252 1.386-.504 2.268-.63 2.52-.252.252-1.135.504-2.522.883-.126 0-.252 0-.378.126-3.404 1.386-3.53 1.386-5.421 1.386h-5.169c-3.656.252-5.421.504-7.186.63-1.639.252-3.278.504-6.556.63-2.647.126-4.16.504-5.295.63-1.387.252-1.639.378-5.295-.882h-.252c-2.521-.63-3.53-1.386-4.412-4.285v-.252c-1.513-3.78-1.513-4.032-1.513-6.049v-5.166c-2.27-39.57-4.539-79.14-6.808-118.584-.126-3.15-.126-4.788 0-6.427 0-1.89 0-3.78-.126-7.813-.252-4.158-.505-6.301-.757-8.317-.252-1.89-.504-3.528-.63-7.057-.504-9.703-1.135-19.281-1.639-28.984-.252-4.159-.504-6.301-.756-8.317-.253-1.891-.505-3.529-.631-7.057-.252-3.529-.126-5.293 0-7.057 0-1.891 0-3.907-.126-7.688-1.135-19.91-2.269-39.695-3.404-59.606-.252-3.655-.126-5.293 0-7.057v-7.057c-.378-7.183 0-9.452.757-11.468.378-.882.756-1.764 1.008-2.52.757-2.269.883-2.395 1.891-2.773h.252c3.026-1.26 3.53-1.26 5.043-1.008 1.261 0 3.026.252 6.052 0l14.372-.756q5.42-.252 7.438-.252c.883 0 2.143 0 4.035.126 2.143.126 2.521.252 4.412 4.537 0 .126.126.252.252.378 0 0 .252.252.252.378 1.261 1.638 1.387 2.52 1.513 7.057 0 1.134 0 2.268.126 3.654.252 4.789.505 9.452.757 14.24.252 3.781.504 5.797.756 7.687s.504 3.781.631 7.688l.756 14.744c.252 3.654.126 5.293 0 7.057v7.057c.252 5.167.504 10.207.756 15.374.253 3.907.505 5.797.757 7.687zM593.17 383.726c-1.639 1.26-3.152 2.394-4.917 2.772h-.378c-1.891.504-3.404 1.008-4.539 1.26-2.9.882-4.16 1.26-9.077 1.764-3.026.252-4.665.252-6.304.126h4.034-5.168c-1.766-.126-4.035-.378-7.817-.252h-2.521c-2.018 0-3.53.126-4.539.252q-2.648.126-7.69-.882c-2.018-.378-2.774-1.89-4.035-5.292 0-.252-.126-.379-.252-.631-1.639-3.78-1.639-5.544-1.765-9.325v-7.057c0-1.89.126-3.906 0-7.687 0-4.159-.378-6.301-.504-8.317-.252-1.891-.378-3.529-.504-7.057-.127-4.915-.253-9.83-.505-14.744v-7.057c0-2.017.126-4.159 0-8.318-.126-4.914-.252-9.829-.504-14.744 0-3.906-.378-5.797-.504-7.687-.252-1.764-.379-3.528-.505-7.057-.882-30.118-1.891-60.237-2.773-90.355v-7.057c0-1.89.126-3.907 0-7.687 0-3.781-.378-5.797-.505-7.687-.252-1.891-.378-3.781-.504-7.687-.126-4.915-.252-9.83-.504-14.745v-7.057c0-1.89.252-3.906 0-7.687-.126-4.158-.378-6.301-.63-8.317-.253-1.89-.379-3.528-.505-7.057-.504-14.996-.882-29.992-1.387-44.862v-7.058c0-1.89.253-3.906 0-7.687 0-3.276-.378-5.292-.504-7.057-.252-2.394-.504-3.906 0-7.687v-.378c.252-3.906.504-5.419.883-7.56.252-1.387.63-3.025 1.008-5.672.505-1.89 1.387-3.15 2.396-4.536 1.765-2.52 4.664-6.427.756-12.098 0 0-.126-.252-.252-.378l-.252-.252c-5.169-5.167-10.212-3.025-13.112-1.638-1.513.756-2.899 1.386-4.538 1.386-3.782.126-5.674 0-7.565 0s-3.782-.126-7.564 0-5.673.378-7.564.504c-1.765.252-3.404.378-6.808.504-4.665.126-9.203.378-13.868.504-1.891 0-3.404-.504-4.917-1.008-3.026-1.134-8.069-2.899-12.859 3.276-4.287 5.671-1.135 9.578.756 11.972 1.135 1.386 2.143 2.646 2.648 4.537.882 2.898 1.639 4.662 2.269 5.922.756 1.765 1.261 2.773 1.765 6.301v.252c.882 4.411.756 5.923.63 8.444 0 1.638-.252 3.654 0 6.93.631 14.997 1.135 29.867 1.765 44.863.126 4.159.379 6.301.631 8.317.252 1.891.378 3.529.504 7.057s0 5.167 0 7.057c0 2.017-.126 4.159 0 8.318.126 3.906.378 5.797.63 7.687.253 1.764.379 3.528.505 7.057.252 4.915.378 9.829.63 14.744.126 4.285 0 6.301 0 8.317 0 1.89-.126 3.907 0 7.561.126 3.907.378 5.797.63 7.687.253 1.765.379 3.529.505 7.057.126 3.907 0 5.797 0 7.688 0 1.89-.126 3.906 0 7.687.756 20.037 1.512 40.2 2.269 60.236.126 4.159.378 6.301.63 8.318.252 1.89.378 3.528.505 7.057.126 3.528 0 5.166 0 7.057 0 2.016-.127 4.158 0 8.317.252 5.167.378 10.207.63 15.374.126 3.907.378 5.797.63 7.687.252 1.764.379 3.529.505 7.057s0 5.167 0 7.057c0 2.017-.126 4.159 0 8.318.756 20.036 1.512 40.199 2.269 60.236.126 3.403.504 5.545.756 7.435.379 2.395.631 4.285.505 8.066-.126 3.402-.505 4.41-1.387 6.679-.504 1.386-1.135 3.024-1.891 5.67v.504c-.252 1.513-1.009 2.647-1.891 3.907-1.639 2.268-4.539 6.679.504 11.972 2.647 2.898 5.169 3.78 7.312 3.654 1.891 0 3.656-.882 4.917-1.386 1.639-.756 3.026-1.386 5.169-1.512l43.873-1.512h11.473c-6.556.252-11.473.378-10.086.378 9.833-.252 19.793-.63 29.627-.882 3.908 0 5.799-.252 7.69-.505 1.765-.252 3.53-.378 7.06-.504 2.143 0 3.53.504 5.169 1.009 3.026 1.008 7.186 2.52 12.355-2.521 4.791-4.41 4.665-7.687 4.035-11.593-.253-1.513-.505-3.025-.253-5.167.379-3.151.505-5.167.631-6.931.252-2.647.378-4.411 1.261-8.696v-.252c.378-3.276.252-5.166.252-6.805-.126-2.142-.252-3.15 1.386-6.931 0 0 0-.252.127-.378.756-2.268 1.765-3.906 2.647-5.418 2.143-3.655 4.665-8.066-1.009-13.988-5.421-5.671-10.59-1.639-13.111.252zm-39.209 68.554c1.135 0 2.017-.252 2.9-.252 1.639-.126 3.278-.378 6.43-.504h7.06c.882 0-7.565.378-16.516.63zm229.578-70.823c-5.295-5.797-10.59-1.89-13.112 0-1.639 1.26-3.152 2.395-5.043 2.647h-.378c-1.891.504-3.404.882-4.539 1.26-1.765.504-3.025.882-4.79 1.134 5.169 0 9.203 0 8.447.126-2.018.126-3.783.252-7.817.252h-5.043c-3.152.252-4.665.126-6.303 0h-3.53c-3.909 0-5.8 0-7.817-.252-1.891-.126-3.908-.252-7.69-.252h-4.539q-2.647 0-7.69-1.008c-2.018-.504-2.648-1.89-3.909-5.419 0-.252-.126-.378-.252-.63-1.513-3.781-1.513-5.545-1.513-9.325 0-3.529 0-5.293.253-7.057.126-1.891.252-3.907.252-7.688 0-4.158-.253-6.3-.379-8.317-.126-1.89-.252-3.528-.378-7.057 0-4.914 0-9.829-.126-14.744 0-3.528 0-5.167.252-7.057.126-2.016.252-4.159.252-8.317 0-4.915 0-9.83-.126-14.744 0-3.907-.252-5.797-.378-7.687-.126-1.765-.252-3.529-.378-7.057-.252-30.119-.504-60.237-.883-90.356 0-3.528 0-5.292.253-7.057.126-1.89.252-3.906.252-7.687 0-3.78-.252-5.797-.378-7.687-.127-1.89-.379-3.78-.379-7.687 0-4.915 0-9.829-.126-14.744 0-3.529 0-5.293.252-7.057.126-1.89.253-3.907.253-7.687 0-4.159-.253-6.301-.379-8.317-.126-1.891-.252-3.529-.378-7.057l-.378-44.863c0-3.529 0-5.293.252-7.057.126-1.89.252-3.907.252-7.687 0-3.277-.252-5.419-.378-7.057-.252-2.52-.378-3.907.252-7.687V40.2c.378-3.907.63-5.42 1.135-7.562.252-1.386.63-3.024 1.134-5.67.505-1.89 1.513-3.15 2.522-4.537 1.891-2.52 4.791-6.427 1.008-12.098 0 0-.126-.252-.252-.378l-.252-.252c-5.169-5.293-10.086-3.15-13.111-1.89-1.639.63-2.9 1.26-4.539 1.26-3.782 0-5.673 0-7.564-.252-1.891 0-3.783-.252-7.565-.252s-5.673.252-7.564.378c-1.765.126-3.404.378-6.808.378-4.665 0-9.203.126-13.868.252-1.891 0-3.404-.504-4.917-1.134-3.025-1.134-7.942-3.024-12.985 3.024-4.413 5.545-1.387 9.578.504 11.972 1.009 1.386 2.017 2.647 2.648 4.537.882 2.898 1.513 4.663 2.143 6.049.756 1.764 1.261 2.898 1.513 6.3v.253c.756 4.41.63 5.923.504 8.443 0 1.638-.252 3.654-.252 6.93.252 14.997.504 29.993.756 44.863 0 4.159.253 6.301.505 8.318.126 1.89.378 3.528.378 7.057 0 3.528 0 5.166-.126 7.057 0 2.016-.252 4.032-.126 8.317 0 3.906.252 5.797.504 7.687.126 1.764.378 3.529.378 7.057 0 4.915.126 9.83.252 14.744 0 4.285 0 6.301-.126 8.317 0 1.891-.252 3.907-.126 7.562 0 3.906.252 5.796.378 7.687.127 1.764.379 3.528.379 7.057 0 3.906 0 5.797-.126 7.687 0 1.89-.253 3.906-.126 7.687.378 20.037.63 40.2 1.008 60.237 0 4.158.252 6.301.504 8.317.126 1.89.379 3.528.379 7.057 0 3.528 0 5.167-.126 7.057 0 2.016-.253 4.159-.127 8.317 0 5.167.127 10.208.253 15.374 0 3.907.252 5.797.378 7.688.126 1.764.378 3.528.378 7.057 0 3.528 0 5.166-.126 7.057 0 2.016-.252 4.158-.126 8.317.378 20.037.63 40.2 1.008 60.237 0 3.402.379 5.544.505 7.435.252 2.394.504 4.284.252 8.065-.252 3.402-.63 4.41-1.513 6.679-.504 1.386-1.261 3.024-2.017 5.545v.504c-.252 1.512-1.009 2.646-1.891 3.906-1.639 2.269-4.665 6.553.252 11.972 2.521 3.024 5.043 3.907 7.186 3.781 1.891 0 3.656-.757 5.043-1.261 1.639-.63 3.152-1.26 5.169-1.386 14.624-.252 29.249-.378 43.873-.504 3.53 0 5.295 0 7.06.252 2.017.126 4.16.252 8.321.252 3.908 0 5.925-.252 7.816-.378 1.639-.126 3.278-.252 6.43-.252 3.53 0 5.295 0 7.06.252 1.387 0 2.774.252 4.791.252s3.404-.126 4.791-.252c1.765-.126 3.53-.252 7.06-.252 2.143 0 3.53.504 5.169 1.134 3.025 1.134 7.06 2.647 12.481-2.142 4.79-4.285 4.79-7.687 4.286-11.468-.252-1.512-.378-3.024 0-5.167.504-3.15.631-5.166.757-6.931.252-2.646.378-4.41 1.386-8.695v-.252c.505-3.15.379-5.167.379-6.805 0-2.142 0-3.15 1.639-6.805 0 0 0-.252.126-.378.756-2.142 1.765-3.906 2.773-5.419 2.143-3.528 4.917-7.939-.63-14.114z"/><path d="M786.816 386.498h-18.028c2.9 0 4.791.252 6.304.378h7.564q2.648-.189 4.16-.378m93.798 45.115v-.378a73.7 73.7 0 0 1-3.026-12.35c-.63-4.033-.378-5.419-.126-7.813.126-1.639.379-3.655.379-6.931 0-4.915 0-9.83.126-14.744 0-3.403.252-5.167.378-7.057.126-2.143.378-4.285.378-8.948 0-3.906 0-5.797-.252-7.687 0-1.764-.252-3.528-.126-7.057 0-4.915 0-9.829.126-14.744 0-3.907.252-5.797.378-7.687s.378-3.907.378-7.687c.252-25.204.631-50.408.883-75.611 0-4.159 0-6.301-.252-8.318 0-1.89-.252-3.528-.126-7.057 0-3.906.252-5.796.378-7.687.126-1.89.378-3.906.378-7.687 0-4.915 0-9.829.126-14.744 0-3.781 0-5.797-.252-7.687 0-1.89-.252-3.781-.252-7.687 0-5.167.126-10.208.252-15.374 0-3.529.252-5.293.378-7.057.126-1.891.378-3.907.378-7.688 0-5.166.127-10.207.253-15.374 0-3.906 0-5.797-.253-7.687-.126-1.764-.252-3.528-.252-7.057 0-4.285.252-6.301.379-8.317.126-1.89.378-3.907.378-7.561 0-3.907 0-5.797-.252-7.687-.126-1.765-.253-3.529-.253-7.057 0-5.167.127-10.208.253-15.375 0-3.528.252-5.292.378-7.057.126-1.89.378-3.906.378-7.687 0-5.166.126-10.207.252-15.374 0-3.655-.252-5.923-.504-7.687-.378-2.142-.504-3.529 0-7.057.756-4.159 1.261-5.419 2.017-7.687.378-1.26 1.009-2.773 1.639-5.041.504-1.89 1.513-3.15 2.521-4.537 1.892-2.394 4.917-6.3.505-11.845-4.413-6.05-9.456-4.411-12.355-3.403-1.513.504-3.026 1.008-4.917 1.008-4.287 0-6.43 0-8.321.252-1.639 0-3.152.252-6.177.252h-14.499c-3.404 0-5.043-.126-6.808-.378-1.891-.126-3.782-.378-7.564-.378-1.639 0-3.152-.504-4.665-1.134-3.025-1.134-8.068-3.024-12.607 2.52-4.917 5.797-1.891 9.956-.126 12.476 1.009 1.386 1.891 2.647 2.143 4.41v.379s0 .252.126.378c.505 1.386 1.009 2.52 1.387 3.403 1.261 3.15 1.639 3.906 2.017 8.695v.252c.757 4.788.757 6.175.631 9.2v20.918c0 3.529-.126 5.293-.379 7.057-.126 1.89-.378 3.907-.378 7.687 0 4.159.126 6.301.252 8.317.126 1.89.252 3.529.252 7.058 0 25.203-.252 50.407-.378 75.611 0 3.528-.126 5.166-.252 7.057-.126 2.016-.378 4.032-.378 8.317 0 4.158.126 6.301.252 8.317.126 1.89.252 3.529.252 7.057v14.744c0 3.529-.126 5.167-.252 7.057-.126 2.017-.378 4.033-.378 8.317 0 3.907 0 5.797.252 7.688.126 1.764.252 3.528.252 7.057-.126 40.325-.378 80.777-.504 121.103 0 4.285-.126 6.301-.378 8.317a212 212 0 0 0-.379 7.561v14.745c0 3.276.126 5.292.253 6.931.252 2.394.378 3.78-.379 7.813v.252c-.378 3.78-.756 5.041-1.513 7.057a43 43 0 0 0-1.765 5.293c-.504 1.764-1.386 3.024-2.269 4.284-1.765 2.395-4.665 6.301 0 12.35l.126.126c4.791 5.419 9.203 3.529 11.977 2.52 1.387-.504 2.648-1.008 4.16-1.008 13.742 0 27.358.252 41.1.378 1.765 0 3.152.63 4.665 1.261 1.26.63 3.025 1.386 5.043 1.386 2.143 0 4.664-.882 7.312-3.907l.252-.252c3.656-5.419.882-9.325-.757-11.594-1.008-1.386-2.017-2.772-2.395-4.788zm210.416-24.826c.25-5.167.38-10.207.63-15.374.13-3.529.38-5.293.5-7.057.26-1.89.51-3.781.63-7.687.13-4.159 0-6.301 0-8.317 0-1.891-.12-3.529 0-7.057.13-3.907.38-5.797.63-7.688.26-1.89.51-3.906.63-7.687.13-3.906 0-5.797 0-7.687 0-1.764-.12-3.528 0-7.057.13-3.528.38-5.167.51-7.057.25-2.016.5-4.032.63-8.317 3.15-80.526 6.43-160.926 9.58-241.451.13-4.537 0-6.805 0-8.948 0-1.89-.13-3.654 0-7.057 0-2.394.5-3.906.76-5.292.75-3.025 1.13-5.545-.38-10.712v-.378s0-.252-.13-.252c-2.01-4.285-3.78-5.67-6.3-7.435-1.14-.756-2.14-1.512-3.66-3.024-1.51-1.639-2.27-2.52-3.15-3.529-1.13-1.512-2.39-3.024-5.67-5.923-1.39-1.386-2.02-2.52-2.65-3.654-1.39-2.52-2.9-4.663-7.44-6.68h-.12c-6.31-2.394-9.71-1.386-12.74-.63-1.76.505-3.4.883-6.17.883-3.53 0-5.17-.378-7.19-.756-2.14-.379-4.41-.757-9.08-.883a6024 6024 0 0 0-67.447-1.89c-4.16 0-6.303.126-8.447.378-2.017.252-3.908.504-7.816.378-3.908 0-5.799-.378-7.816-.63-2.27-.378-4.539-.756-9.078-.756-2.395 0-4.034-.63-5.673-1.134-4.286-1.386-8.321-2.142-13.616 3.024-6.177 4.537-2.899 9.578-1.26 11.972.882 1.386 1.765 2.647 2.017 4.285v.504q.945 2.646 1.513 4.158c1.134 3.025 1.386 3.907 1.765 7.94.252 4.284.126 5.922 0 8.19 0 1.513-.253 3.277-.253 6.302 0 5.292-.126 10.585-.252 15.878 0 3.906 0 5.797.126 7.687 0 1.764.252 3.529.126 7.057-.126 10.082-.378 20.037-.504 30.118 0 3.529-.252 5.167-.378 7.058-.252 2.016-.378 4.032-.504 8.317 0 3.78 0 5.797.126 7.687 0 1.89.252 3.78.126 7.687l-.252 14.744c0 3.529-.253 5.293-.379 7.057-.126 1.89-.378 3.907-.504 7.687 0 4.159 0 6.175.126 8.317 0 2.017.252 3.781.126 7.688 0 3.528-.252 5.292-.378 7.057-.126 1.89-.378 3.906-.504 7.687 0 5.166-.126 10.207-.252 15.374 0 3.907 0 5.797.126 7.687 0 1.764.252 3.529.126 7.057 0 3.403-.252 5.167-.378 7.057-.253 2.142-.379 4.285-.505 8.947 0 4.915-.126 9.83-.252 14.745 0 3.906 0 5.796.126 7.687 0 1.764.252 3.528.126 7.057-.252 15.374-.504 30.748-.756 45.996 0 3.529-.252 5.293-.378 7.057-.126 1.891-.379 3.907-.379 7.688 0 5.166-.126 10.207-.252 15.374 0 3.906 0 5.797.126 7.687 0 1.764.252 3.528.126 7.057-.126 10.207-.378 20.415-.504 30.748v5.041c0 3.025 0 4.159-.756 9.073v.253c-.505 4.662-.757 5.544-2.017 8.695-.379 1.008-.883 2.268-1.387 3.906v.504c-.252 1.513-1.135 2.773-2.017 4.159-1.765 2.646-4.917 7.435.504 12.98 2.647 3.024 5.169 3.906 7.312 3.906 1.891 0 3.656-.63 5.169-1.134 1.765-.63 3.404-1.26 5.799-1.134 5.295 0 10.59.252 16.012.378 3.908 0 5.799.252 7.69.504 1.891.126 3.908.378 7.69.504h8.951c1.891 0 3.657-.126 7.061 0 3.782 0 5.673.252 7.69.504 2.143.252 4.412.378 8.825.505 10.464.252 20.924.63 31.394.882 4.16.126 6.3 0 8.32 0 1.89 0 3.53-.126 7.06 0 2.65 0 4.29.504 5.8.882 3.02.756 5.92 1.512 12.1-.504h.13c4.41-1.639 5.92-3.655 7.44-6.049.63-1.134 1.26-2.142 2.77-3.529 2.9-2.772 5.92-5.418 8.95-8.191l.13-.126c1.51-1.512 2.64-2.142 3.9-2.898 2.78-1.513 5.05-3.151 6.56-7.939 1.89-5.041 1.51-7.688 1.13-10.46-.25-1.512-.37-3.024-.37-5.545zm-54.72-265.016c0 1.764.13 3.528 0 7.057 0 3.654-.25 5.292-.5 7.057-.25 1.764-.38 3.654-.51 7.057-.12 5.166-.37 10.207-.5 15.374v7.687c0 1.764.13 3.529 0 7.057 0 3.529-.25 5.293-.5 7.057-.26 1.89-.38 3.781-.51 7.687-.12 4.915-.25 9.83-.5 14.744v7.687c0 1.765.12 3.529 0 7.057-.51 14.745-.88 29.489-1.39 44.359 0 3.528-.25 5.167-.5 7.057-.26 2.016-.51 4.033-.63 8.317-.13 4.915-.26 9.83-.51 14.744v7.057c0 1.765.13 3.529 0 7.057-.38 10.082-.63 20.037-1.01 30.119 0 3.654-.25 5.292-.5 7.057-.25 1.764-.38 3.654-.51 7.057v3.78q0 3.277-1.89 8.57c-.75 2.52-.88 2.646-3.4 4.032-4.16.882-4.29.882-6.68.756-.88 0-2.15 0-3.91-.126-4.54-.126-9.2-.252-13.742-.378h-3.908c-2.648 0-2.9 0-6.682-1.134-3.152-1.638-3.53-2.394-4.287-5.797 0-.378-.252-.882-.252-1.26q-.756-3.277-.63-5.293c0-1.008 0-2.394.126-4.41.252-9.704.504-19.281.756-28.985v-7.687c0-2.016-.126-3.78 0-7.687 0-3.654.252-5.293.505-7.057.126-1.764.378-3.654.504-7.057.252-10.081.504-20.037.756-30.118v-7.687c0-1.765-.252-3.529 0-7.057.252-9.83.505-19.659.757-29.615 0-3.528.252-5.293.504-7.057.252-1.89.378-3.78.504-7.687v-7.687c0-1.764-.252-3.528 0-7.057 0-3.529.252-5.293.505-7.057.252-1.89.378-3.781.504-7.687v-7.687c0-1.765-.126-3.529 0-7.057 0-3.907.252-5.797.504-7.687s.378-3.907.504-7.688l1.513-58.598c0-2.646.252-4.41.252-5.797.253-2.52.379-4.537 0-9.83-.126-2.394-.378-3.78-.504-4.914-.252-1.89-.252-2.016 1.261-6.679.504-1.26.63-1.386 4.412-3.15.252 0 .505-.252.883-.379 4.035-.882 4.285-.882 6.935-.756 1.01 0 2.27 0 4.03.126h7.57c1.76 0 3.4-.126 6.81 0h5.04c1.89 0 2.14 0 6.18 1.387h.12c1.89.63 2.52 1.134 3.41 4.662 1 5.041 1 5.041.88 7.435 0 .883-.13 2.269-.25 4.159-.13 4.158 0 6.3 0 8.317 0 1.89.12 3.529 0 7.057-.13 4.789-.26 9.452-.51 14.24 0 3.529-.25 5.167-.5 7.057-.25 2.017-.51 4.033-.63 8.317v7.688zm293.75 308.24c-.38-1.638-.5-2.898-.75-3.906-.51-3.025-.76-4.537-2.53-9.073-.75-2.773-1.38-4.285-1.89-5.545-.63-1.638-1.13-2.773-1.76-6.175v-.126c-1.14-4.915-1.26-6.301-1.39-9.2 0-1.26-.13-2.898-.38-5.166-.38-5.167-.88-10.334-1.26-15.501-.63-7.561-.75-7.939-2.52-14.744-.25-3.402-.25-5.04-.25-6.931 0-1.89 0-4.032-.38-8.191-.38-4.915-.88-9.955-1.26-14.87-.88-5.041-1.64-10.081-2.52-15.122-.38-4.915-.88-9.83-1.26-14.744v-.252q-1.26-7.31-1.89-14.619c-.51-4.914-.89-9.955-1.39-14.87-.63-7.435-.76-7.687-1.89-15.122-.51-4.915-.88-9.829-1.39-14.744-.38-3.655-.63-5.545-1.01-7.435-.38-2.016-.63-3.907-1.01-7.939v-.378c-.75-3.907-.75-5.545-.88-7.813 0-1.513-.12-3.403-.5-6.175-.38-3.907-.76-5.797-1.01-7.813-.38-1.891-.63-3.655-1.01-7.184-.25-2.772-.38-4.536-.38-6.048 0-2.395-.25-4.537-1.01-9.578-.5-4.789-1.01-9.451-1.38-14.24-.51-4.915-1.01-9.955-1.39-14.87v-.252c-.5-3.403-1.01-5.419-1.26-7.183-.51-2.268-.88-4.033-1.26-8.191-.51-4.789-1.01-9.578-1.51-14.366-.76-7.435-.76-7.688-2.02-15.123-.51-5.166-.88-10.207-1.39-15.374-.5-5.041-1.01-6.931-1.64-9.577-.25-1.26-.63-2.773-1.13-5.041-.25-2.772-.38-4.41-.38-5.923 0-2.394-.25-4.537-1.01-9.577-.5-4.915-1.01-9.83-1.51-14.744v-.252c-.51-2.773-1.01-4.411-1.39-5.797-.63-2.395-1.01-3.529-.75-8.191.25-3.277.5-3.907 1.38-5.671.51-1.134 1.26-2.647 2.15-5.041v-.378c.37-1.512 1.38-2.52 2.39-3.78 1.77-2.017 5.55-6.05.38-11.594-5.04-5.923-9.71-4.285-12.73-3.277-1.64.504-3.16 1.008-5.3.882-3.66-.252-5.55-.504-7.44-.756-2.14-.252-4.28-.504-8.7-.756-4.16-.252-6.17-.252-8.19-.126h-6.81c-3.78-.252-5.55-.378-7.44-.63-2.01-.252-4.03-.504-8.19-.756-2.27 0-3.91-.756-5.68-1.386-3.4-1.26-8.06-3.025-13.61 1.638-5.3 4.537-2.14 9.325-.51 11.594 1.01 1.512 1.9 2.898 2.15 4.536.5 3.15 1.13 4.915 1.64 6.301.5 1.512.88 2.269.75 5.041-.25 4.41-.63 5.67-1.38 7.813-.51 1.386-1.14 3.277-1.77 6.175-.88 4.285-1.51 5.797-2.27 8.191-.5 1.512-1.13 3.277-2.02 6.175v.378c-.75 4.033-1.13 6.175-1.38 7.94-.25 1.89-.51 3.654-1.26 7.182-.76 3.655-1.26 5.42-1.89 7.183-.51 1.639-1.01 3.403-1.77 6.679-2.14 7.309-2.27 7.435-3.78 15.375-1.01 4.914-2.02 9.703-3.15 14.618-1.01 4.41-1.52 6.049-2.4 8.317-.5 1.26-1.01 2.898-1.89 5.419-1.13 5.166-2.14 10.333-3.28 15.626-.75 3.781-1.01 5.797-1.26 7.687-.25 1.764-.5 3.529-1.13 6.931-2.15 7.183-2.15 7.435-3.66 14.87-.76 3.907-1.26 5.671-1.76 7.435-.51 1.765-1.01 3.529-1.77 7.183a221 221 0 0 1-3.53 14.366v.253c-.76 3.906-1.01 5.796-1.26 7.813-.25 1.764-.5 3.78-1.13 7.435-.76 3.654-1.26 5.419-1.77 7.183-.5 1.638-1.01 3.402-1.76 6.679-2.15 7.309-2.15 7.435-3.66 14.87-1.01 5.041-2.02 10.081-3.03 15.248-.63 3.403-1.26 5.041-1.89 6.679-.75 1.89-1.38 3.907-2.27 7.813-.75 3.277-.88 5.293-1 7.057-.13 2.017-.26 3.781-1.39 7.435l-3.03 14.744c-.75 2.647-1.26 4.285-1.76 5.671-.76 2.395-1.39 4.285-2.4 9.074-.75 3.906-1.01 5.796-1.26 7.813-.25 1.89-.5 3.78-1.13 7.435-.93 4.789-2.06 9.367-3.41 13.736v.378c-.75 3.528-1.13 5.167-1.64 7.057-.5 1.89-1 3.78-1.89 7.561-.75 3.907-1.01 5.797-1.26 7.813-.25 1.764-.38 3.655-1.13 7.309-1.39 4.663-2.65 9.2-4.04 13.862v.252c-.75 3.529-1.26 4.537-2.27 6.301-.63 1.26-1.51 2.773-2.64 5.293-1.39 4.159-2.65 8.317-4.04 12.476-.63 1.512-1.76 2.52-2.77 3.654-2.14 2.017-5.93 5.923-1.89 12.224 0 .126.12.252.25.378 4.54 5.545 9.2 3.655 11.98 2.647 1.51-.631 2.9-1.135 4.79-1.135 9.07.378 18.28.882 27.35 1.261 3.28.126 4.8.378 6.43.63 1.77.252 3.53.504 7.19.63 1.89 0 3.4.756 4.92 1.512 1.26.63 3.15 1.386 5.17 1.512 2.39 0 4.91-.756 7.18-4.158 0 0 .13-.252.25-.378 3.66-6.931.76-11.216-1.26-14.367-1.38-2.016-2.39-3.528-2.39-6.048 0-4.033.38-5.041 1.39-7.31.63-1.386 1.26-3.024 2.01-5.418v-.252c.76-3.529 1.01-5.293 1.26-7.057.26-1.639.38-3.277 1.14-6.553.75-3.403 1.13-4.789 1.64-6.301.5-1.638 1.13-3.277 1.89-7.057 2.01-6.679 2.14-7.057 3.02-13.862 1.01-4.411 2.02-8.948 3.03-13.358.38-1.764.63-3.025.88-4.159.63-3.15.88-4.284 3.03-8.317a22 22 0 0 0 1.26-2.646c.12-.378.38-.757.5-1.009.51-.252 1.89-.63 2.4-.756h.12c4.29-1.386 5.43-1.134 8.32-.756 1.52.252 3.28.504 5.8.63 5.43.252 10.85.63 16.14.882 2.77.126 4.79 0 6.3 0 2.9 0 3.91-.126 7.57 1.639.13 0 .25 0 .38.126.63.252 2.27.756 2.9 1.134 0 .252.25.63.38.882.25.63.5 1.386.88 2.268 1.26 3.403 1.38 4.663 1.64 6.805 0 1.513.25 3.277.75 6.049 1.01 9.074 2.02 18.273 2.9 27.346v.378c.84 4.453 1.52 9.116 2.02 13.988.5 4.537 1.01 9.2 1.51 13.736.38 3.151.89 5.041 1.26 6.553.51 2.017.89 3.277.76 6.931-.38 2.395-1.64 3.781-3.03 5.545-2.26 2.772-5.67 6.805-2.26 13.862 3.02 7.435 8.95 5.293 11.59 4.285 1.64-.63 3.28-1.135 5.05-1.008 8.95.504 17.9 1.134 26.72 1.764 3.16.252 4.79.504 6.43.756 1.89.252 3.79.63 7.69.882 1.77 0 3.16.756 4.54 1.386 2.78 1.26 7.31 3.277 11.98-2.52 4.16-5.419 1.26-9.578-.5-11.972-1.01-1.26-1.9-2.52-2.4-4.285zm-85.35-158.783h-.5c-4.16.378-5.55.126-7.95-.126-1.51-.252-3.53-.504-6.55-.756-4.79-.252-9.46-.504-14.25-.756-.25 0-.5 0-.75-.126.37-6.805.37-6.931 1.89-13.736.37-1.26.63-2.268.88-3.15 1.26-4.033 1.51-4.915 2.77-11.09 1.01-5.041 2.15-10.081 3.15-15.122.63-2.899 1.27-4.411 1.9-6.049.75-1.89 1.51-3.907 2.39-7.939.76-3.529 1.14-5.545 1.39-7.435.25-1.765.5-3.529 1.26-6.679.63-3.025 1.13-4.915 1.51-6.427.63-2.395 1.14-4.285 1.77-8.695 1.26-4.285 1.64-6.175 2.01-8.444.26 2.773.51 5.671.76 8.444.13 7.309.13 7.561.88 15.5v.378c.63 3.15 1.01 5.041 1.39 6.427.5 2.142.88 3.528 1.26 7.561.38 3.528.38 5.293.38 7.183s0 3.906.5 7.813c.76 6.931.76 6.931 2.15 14.996.5 4.789 1 9.452 1.51 14.24 0 1.134.25 2.017.25 2.773q.375 4.285 0 9.829c0 .756 0 1.26-.13 1.512zm311.9-243.971v-.252c-4.66-7.183-10.59-5.797-14.37-4.915-2.02.504-3.91 1.008-6.3.756-4.54-.378-6.81-.252-9.08-.252-2.02 0-3.91.126-7.82-.126-4.03-.378-6.05-.63-8.06-1.008-2.15-.378-4.29-.63-8.7-1.008-5.42-.504-10.85-.882-16.27-1.386-2.64-.252-4.79-1.26-6.93-2.143-3.53-1.638-9.46-4.41-14.5 2.395v.126c-4.66 6.805-.88 11.341 1.64 14.24 1.89 2.268 3.4 3.907 3.28 7.183 0 3.529-.38 4.41-1.52 6.679-.63 1.386-1.51 3.15-2.39 5.923-2.9 6.553-3.03 6.679-5.3 13.358-1.26 3.654-2.01 5.04-2.9 7.057-.75 1.512-1.63 3.276-2.9 6.427-1.63 4.662-3.15 9.325-4.79 13.988-2.9 6.553-3.02 6.805-5.42 13.988-1.26 3.528-1.64 5.293-2.14 6.931-.38 1.638-.88 3.15-1.89 6.301-.88 2.394-1.51 3.906-2.14 5.166-1.14 2.773-1.64 3.907-3.28 9.326-1.52 4.284-3.2 8.569-5.05 12.854-1 2.772-1.89 5.671-2.9 8.443-.5-2.899-1-5.671-1.38-8.569-.63-3.655-1.14-5.419-1.64-7.309-.51-1.765-.88-3.403-1.51-6.679v-.252c-.76-3.151-.89-4.789-1.14-6.805-.12-2.017-.25-4.285-1.26-8.066-.63-3.528-1.13-5.292-1.64-7.183-.5-1.764-.88-3.402-1.51-6.679v-.252c-1.01-3.906-1.26-5.544-1.51-7.813-.13-1.638-.38-3.402-.89-6.301-1.26-6.931-1.26-7.057-3.02-14.366-.38-4.915-.88-6.679-1.39-9.325-.25-1.386-.63-2.899-1.13-5.167-.51-2.646-.76-4.285-.89-5.67-.25-2.269-.5-4.16-1.63-8.822-.64-3.15-1.39-5.04-2.15-6.553-.75-1.764-1.26-2.772-1.01-5.923.63-3.15 2.27-4.788 4.16-6.679 2.78-2.646 6.56-6.3 3.53-13.61-3.4-7.813-9.96-6.175-13.86-5.292-2.15.504-4.29 1.008-6.69.882-4.41-.378-6.68-.378-8.82-.378-1.89 0-3.78 0-7.44-.253-4.54-.378-6.68-.63-8.82-.882-2.02-.252-4.16-.63-8.07-.882-4.42-.252-6.56-.252-8.7-.252-2.15 0-4.04 0-8.07-.252-2.4-.126-4.16-1.008-6.05-1.764-3.41-1.512-8.45-3.78-14.12 1.764-1.89 1.638-2.9 3.529-2.78 5.419 0 3.15 2.65 5.04 4.67 6.553 1.51 1.134 3.02 2.268 3.78 3.78 0 .127.13.378.25.505 0 .126.26.252.38.378.63.882 1.26 1.512 1.77 2.142 2.27 2.772 2.64 3.15 4.16 7.309v.378c2.27 4.915 2.39 5.797 2.9 9.073.12 1.009.37 2.269.75 4.033v.252c.89 3.403 1.14 5.293 1.52 7.183.37 2.142.63 4.159 1.76 7.94.76 2.772 1.39 4.536 1.77 5.922.75 2.268 1.26 3.655 2.01 7.687 1.26 4.663 2.52 9.452 3.91 14.114.25 1.26.38 2.269.63 3.151.76 4.158 1.01 5.67 2.65 11.467 1.01 4.285 1.26 5.923 1.51 8.066.25 1.512.38 3.276 1.01 6.174v.504c1.6 4.453 2.77 9.074 3.53 13.862v.379c1.89 6.931 1.89 7.183 4.29 13.988 1.26 6.679 1.26 6.931 3.15 13.862 1.18 4.536 2.18 9.409 3.02 14.618v.126c1.27 7.057 1.39 7.309 3.79 14.24.5 2.52.63 4.032.75 5.419.26 2.268.51 4.158 1.64 8.947.76 2.772 1.26 4.537 1.77 5.923.75 2.268 1.13 3.654 1.89 7.687.75 4.158 1.26 6.175 2.02 8.317.5 1.512 1 3.277 1.63 6.301.76 4.789 1.64 9.577 2.4 14.366v.378c.76 3.025 1.51 4.789 2.14 6.175.89 1.89 1.26 3.024 1.39 6.805v.378c.38 4.537.25 5.923 0 8.821-.13 1.261-.25 2.773-.5 4.789-.26 3.907-.63 5.797-.89 7.687-.25 1.764-.5 3.655-.88 7.057-1.51 19.407-2.9 38.94-4.41 58.347-.25 3.528-.25 5.292-.25 7.057 0 1.764 0 3.528-.26 7.057-.25 3.15-.5 4.662-.75 6.427-.25 2.016-.63 4.032-1.01 8.317-.76 9.577-1.51 19.281-2.14 28.858-.26 2.646-.26 4.285-.26 5.797 0 2.268 0 3.907-.75 8.569-1.14 4.411-1.52 5.293-2.9 7.939-.51 1.009-1.14 2.269-1.89 3.907 0 0 0 .252-.13.378v.378c-.38 1.764-1.39 2.898-2.4 4.285-1.89 2.394-5.04 6.301-.88 12.475 2.4 3.403 4.92 4.537 7.19 4.789 1.76.126 3.53-.378 4.79-.756 1.51-.378 2.9-.756 4.66-.63 3.66.252 5.42.252 7.19.252 1.51 0 3.03 0 5.93.252 9.32.756 18.53 1.512 27.86 2.268 1.51.126 2.77.756 4.03 1.387 2.65 1.26 6.94 3.528 12.1-1.387l.26-.252s.12-.252.25-.252c4.03-5.544 1.89-9.451.38-12.35-.76-1.386-1.39-2.772-1.89-4.536-.38-3.025-.89-4.915-1.39-6.427-.51-1.764-.88-3.025-.88-6.301v-.756c-.63-3.655-.26-5.041.25-7.435.38-1.512.75-3.529 1.01-6.301 1.64-19.029 3.15-38.184 4.79-57.212.25-3.151.5-4.789.75-6.427.38-1.891.63-3.781 1.01-7.687.25-3.529.26-5.419.26-7.184 0-1.638 0-3.276.25-6.426.38-4.915.88-9.83 1.26-14.745.25-3.528.63-5.292.88-7.057.25-1.764.63-3.528.88-7.057.63-7.435.63-7.561.63-14.366.13-2.142.26-3.654.38-4.914.13-3.025.25-4.159 1.39-8.948 1.01-4.158 1.51-5.419 2.39-7.435.51-1.26 1.14-2.772 2.15-5.419 2.9-7.057 3.02-7.309 5.29-13.736 3.91-8.695 7.69-17.516 11.6-26.211v-.126c1.77-4.663 2.4-6.679 3.03-8.822.37-1.512.88-3.024 1.76-5.545 1.39-3.024 2.14-4.536 3.03-6.174.88-1.639 1.89-3.403 3.4-6.805 1.89-4.285 2.4-6.175 3.15-8.57.38-1.386.89-2.898 1.64-5.292 3.41-6.301 3.53-6.553 6.43-13.106 0 0 0-.252.13-.378 1.59-4.705 3.36-9.2 5.29-13.484 1.89-4.411 2.4-6.301 3.15-8.57.38-1.26.89-2.772 1.64-5.166 3.53-6.427 3.66-6.679 6.05-13.484 1.14-3.277 1.9-4.537 2.9-6.049 1.01-1.638 2.27-3.403 3.66-7.057 1.64-4.663 3.15-9.326 4.79-14.114 2.52-4.663 3.15-6.301 4.04-9.074.37-1.134.75-2.394 1.38-4.284 1.26-2.899 2.15-4.285 3.03-5.671 1.13-1.89 2.27-3.78 3.78-8.065.63-1.638 1.01-2.773 1.39-3.78 1.01-3.151 1.38-4.033 4.28-8.57 0-.126.13-.252.26-.378 2.01-4.033 2.77-4.915 4.66-7.31.76-.881 1.51-1.89 2.65-3.276v-.126c1.13-1.638 2.9-2.772 4.66-3.78 2.65-1.639 8.2-5.041 4.42-11.594z"/></g><defs><clipPath id="a"><path fill="#fff" d="M0 0h1558v495H0z"/></clipPath></defs></svg>