<svg xmlns="http://www.w3.org/2000/svg" width="1561" height="376" fill="none"><g fill="#fff" clip-path="url(#a)"><path d="M67.76 375.844c-22.629-1.897-45.131-4.173-67.76-6.703a1253 1253 0 0 1 6.953-19.981V21.878C4.551 14.669 2.276 7.335 0 0c22.629 2.53 45.131 4.806 67.76 6.702-2.276 6.83-4.551 13.658-6.953 20.614v327.282c2.275 7.082 4.55 14.164 6.953 21.372zm101.386-13.911c-22.628-1.138-45.131-2.403-67.759-4.047 2.275-6.702 4.551-13.531 6.953-20.234V51.47c-2.276-7.208-4.551-14.417-6.953-21.625 20.226 1.518 40.58 2.656 60.806 3.667 26.421 67.91 52.969 135.567 79.39 202.718V57.667c-2.275-7.082-4.551-14.164-6.953-21.373q34.322.949 68.645 1.139a1377 1377 0 0 1-6.953 21.119v286.182c2.275 6.956 4.551 13.911 6.953 20.74-20.606-.127-41.086-.506-61.692-1.012-26.421-67.151-52.969-134.555-79.39-202.338v178.69c2.276 7.082 4.551 14.037 6.953 20.993zM336.902 37.56c54.612 0 109.351-1.266 163.963-3.162 3.287 19.98 6.574 40.088 9.987 60.069l-22.376-5.69c-28.065.884-56.129 1.643-84.194 2.149-2.149 2.15-4.298 4.426-6.447 6.576v69.427c2.149 2.15 4.298 4.3 6.447 6.323 9.229-.126 18.457-.379 27.559-.505 6.953-2.403 13.78-4.933 20.733-7.462v68.669c-6.953-2.15-13.78-4.3-20.733-6.45-9.228.253-18.457.38-27.559.506-2.149 2.024-4.298 4.047-6.447 6.197v109.642c2.275 6.955 4.551 14.037 6.953 20.993-22.629.379-45.131.632-67.76.632 2.276-7.082 4.551-14.164 6.953-21.119V58.299a1325 1325 0 0 0-6.953-20.74zm196.832 323.614c2.275-7.082 4.551-14.29 6.953-21.372V53.62c-2.276-6.83-4.551-13.658-6.953-20.487 54.612-2.15 109.351-4.932 163.963-7.967 3.287 19.98 6.573 39.962 9.86 59.816-7.458-1.77-14.917-3.54-22.376-5.185-28.064 1.518-56.129 3.035-84.193 4.3l-6.448 6.829v67.783c2.149 2.024 4.299 4.174 6.448 6.197 9.228-.379 18.457-.885 27.559-1.391 7.079-2.656 14.032-5.312 21.111-7.967v68.668c-7.079-1.897-14.032-3.92-21.111-5.817-9.229.506-18.457.885-27.559 1.391-2.149 2.15-4.299 4.173-6.448 6.323v70.819c2.149 2.023 4.299 4.173 6.448 6.196 28.064-1.391 56.129-2.782 84.193-4.299 7.459-2.53 14.918-5.185 22.376-7.714l-9.86 62.219c-54.612 3.035-109.351 5.817-163.963 7.967zm196.705-9.737a1363 1363 0 0 1 6.953-21.119V44.135a1335 1335 0 0 0-6.953-20.74c47.785-2.655 95.445-5.437 143.23-8.093 9.229 8.473 18.457 16.82 27.559 25.292v149.351c-9.228 9.738-18.457 19.349-27.559 29.086 7.965 33.639 15.803 67.278 23.767 101.043 2.907 7.209 5.815 14.417 8.596 21.499-22.628 1.138-45.131 2.402-67.759 3.667 1.643-6.829 3.16-13.658 4.804-20.487-7.712-32.5-15.55-65.001-23.261-97.502-1.391-1.644-2.908-3.288-4.298-4.932-5.942.38-11.757.633-17.699 1.012l-6.447 6.829v97.123a1287 1287 0 0 0 6.953 20.36c-22.629 1.264-45.131 2.529-67.76 3.794zM840.042 166.55l6.448-6.45V78.153l-6.448-5.69c-14.032.758-28.191 1.644-42.223 2.402l-6.447 6.45v81.947l6.447 5.691c14.032-.759 28.191-1.644 42.223-2.403m166.108 170.217c-22.624 1.012-45.126 2.023-67.755 3.162a1373 1373 0 0 1 6.953-21.119V32.627c-2.276-6.955-4.551-13.91-6.953-20.866 20.227-1.012 40.58-2.023 60.807-2.782 26.418 65.507 52.968 131.014 79.388 196.774V27.063c-2.27-6.956-4.55-13.911-6.95-20.866a6217 6217 0 0 1 68.64-1.897c-2.27 7.082-4.55 14.163-6.95 21.245v286.183c2.28 6.829 4.55 13.658 6.95 20.613-20.6.379-41.08 1.012-61.69 1.644-26.42-65.634-52.97-131.014-79.388-196.395v178.69c2.278 6.829 4.548 13.658 6.948 20.361zM1344.83 26.43v279.733a2687 2687 0 0 0-27.56 26.431c-36.54-.885-73.07-1.138-109.61-.885-8.97-8.979-17.82-17.958-26.8-26.937V24.912c-2.27-7.081-4.55-14.036-6.95-21.118 22.63-.253 45.13-.38 67.76-.38-2.28 7.082-4.55 14.038-6.95 21.12V270.5c2.15 2.024 4.3 4.047 6.44 6.07 14.04 0 28.2.127 42.23.38 2.15-2.024 4.3-3.921 6.44-5.944V25.039c-2.27-7.082-4.55-14.163-6.95-21.245 22.88.38 45.77.885 68.65 1.644-2.28 6.955-4.55 13.91-6.96 20.866zM1561 124.185c-22.88-2.655-45.76-4.805-68.64-6.829 2.14-6.702 4.29-13.405 6.44-20.107V75.624c-2.15-2.15-4.3-4.426-6.44-6.576-13.91-1.138-27.94-2.276-41.85-3.162-2.15 1.897-4.3 3.794-6.45 5.565v69.048c2.15 2.276 4.3 4.552 6.45 6.955 25.28 1.771 50.57 3.794 75.98 6.323 9.1 9.991 18.08 19.981 27.18 29.972V320.58c-9.1 8.094-18.08 16.187-27.18 24.407-36.41-3.541-72.82-6.323-109.1-8.473-9.48-9.611-18.96-19.096-28.44-28.707v-55.263c-2.03-6.956-4.05-14.038-6.07-20.993 22.75 1.012 45.38 2.276 68.14 3.794-2.28 6.702-4.55 13.531-6.96 20.234v21.625l6.45 6.449c13.91 1.012 27.94 2.024 41.85 3.162 2.14-1.771 4.29-3.668 6.44-5.438v-69.048c-2.15-2.403-4.3-4.679-6.44-7.082a2498 2498 0 0 0-75.1-5.311c-9.48-9.738-18.96-19.475-28.44-29.086V33.639c9.48-8.473 18.96-16.946 28.44-25.293 36.41 2.024 72.82 4.806 109.1 8.473 9.1 9.864 18.08 19.728 27.18 29.592v56.149c2.4 7.209 4.93 14.417 7.33 21.499z"/></g><defs><clipPath id="a"><path fill="#fff" d="M0 0h1561v375.844H0z"/></clipPath></defs></svg>