<svg xmlns="http://www.w3.org/2000/svg" width="994" height="453" fill="none"><g fill="#fff" clip-path="url(#a)"><path d="M985.584 29.295c-18.175-1.254-39.395 3.405-58.734 1.882-9.222-.717-18.533-5.017-27.666-5.644-17.369-1.165-36.44 4.658-54.436 3.314-2.507-.179-5.014-.627-7.521-1.164-2.776 5.375-4.656 11.198-5.999 17.111.537 1.075 1.343 2.15 2.06 3.315 3.581 5.823 9.311 10.123 12.892 15.946 2.149 3.405 7.342 14.603 6.357 18.187-1.074 3.852-18.175 22.665-22.204 27.772-4.029 5.196-6.805 11.378-11.192 16.574-9.311 11.019-23.457 19.172-32.769 30.549-10.833 13.259-23.01 39.15-38.052 47.392-2.775 1.523-6.357 3.405-9.132.896-9.849-12.184-18.354-28.399-29.457-39.419-11.37-11.288-19.697-17.469-26.322-32.968-6.447-15.051-11.729-16.305-19.34-29.026-8.505-14.335-22.293-43.988-10.385-58.501 6.894-8.332 10.743-8.422 19.697-11.378 2.059-.717 3.402-3.136 4.924-5.196.179-3.494.269-6.988.09-10.482-4.477-.537-8.864-.806-13.341-1.075l-.179.358s-.895-.358-1.253-.447c-2.507-.18-5.104-.27-7.611-.359l.448.896c-2.149-.358-4.119-.18-5.551-1.075-1.433 0-2.955-.09-4.387-.18-.09.538-.269 1.255-.716 1.345-2.06.448-3.94-.986-5.91-1.165.09-.18.179-.269.269-.448-.627 0-1.254 0-1.97-.09.358.538.627 1.165.537 1.613-2.775 1.165-4.208-.537-5.103-1.881-15.489-.986-30.71-3.046-45.304-9.228h-3.492c-15.758.627-19.16.717-34.649-1.881-8.058-1.344-16.743-1.165-25.069.448h-.717c.537 0-.716-.09-.626-.09-.448 0-.627.09-.985.18-.358 0-.627.089-.985.178-1.254.18-2.418.448-3.582.628-2.417.448-4.924.895-7.341 1.343-4.835.807-9.759 1.792-14.594 2.509-2.776.448-5.462.896-8.237 1.254.537 0 1.074-.18 1.611-.18-4.476.628-8.953 1.345-13.43 1.972-6.088.806-12.176 1.523-18.175 2.06-.627 0-1.164.18-1.791.27-.895.178-1.611.626-2.238 1.164-1.074.806-2.149 2.06-2.328 3.404-.268 1.523-.537 3.136-.806 4.659-.089.716-.268 1.433-.358 2.24-.179 1.164-.537 2.418-.537 3.583 0 2.06.806 4.121 2.238 5.554 1.254 1.255 2.686 1.792 4.298 2.42 1.432.537 2.955 1.164 4.387 1.701 3.313 1.344 6.626 2.599 10.028 3.853-.985 5.017-4.477 12.273-5.014 16.842-1.343 11.468 0 20.337-2.865 32.61-4.298 18.635-12.266 40.852-17.728 59.935-6.715 23.561-15.758 48.467-21.13 72.207-1.701 7.347-7.7 55.724-11.281 56.71-.806.179-2.954.179-3.581-.269-10.117-22.755-14.952-47.75-23.816-71.133-4.387-11.646-11.46-22.845-16.027-35.029-7.341-19.261-10.833-39.687-17.548-59.128-3.94-11.467-9.938-21.949-13.878-33.327L243.71 106.7c2.865 9.765 7.968 18.993 11.908 28.579 4.118 10.034 3.85 19.261 7.252 29.474 2.686 8.242 9.58 15.768 13.251 23.383 7.252 15.23 9.132 32.699 14.863 48.467 2.865 7.794 7.162 14.513 9.669 22.486 3.85 12.453 4.387 24.906 9.133 37.448 1.611 4.3 4.476 8.332 6.088 12.722.985 2.687 2.149 12.184 3.76 12.542l6.178-.806c-7.968 5.017-9.222 14.961 0 18.903l-2.059 1.164v1.434c4.297 10.84 17.727 32.431 17.638 43.45 0 12.005-31.695 31.177-7.252 33.864 20.145 2.24 36.619-6.002 55.51-4.479 15.669 1.254 21.847.269 36.62 0 6.894-.09 17.548 2.329 24.442 2.239 7.79-.179 17.549-2.777 25.517-3.314 6.447-.448 12.983.806 19.429 0 5.193-6.003-21.667-21.591-25.517-24.995-20.324-17.828-2.776-31.535 1.164-52.141 1.612-8.51 1.791-17.559 3.313-26.159H445.16c-8.147 0-12.445 5.554-18.891 6.629-16.295 2.509-34.65 3.763-51.303 5.376-1.612.179-2.865 1.164-2.507-1.344 1.433-2.957 41.812-18.993 48.079-21.86 7.521-3.404 15.4-6.36 22.563-9.586 8.506-3.852 28.651-16.484 36.44-17.021 1.791-.09 3.402.448 4.924 1.164 4.477-14.155 5.73-28.937 8.148-43.539.716-4.211 4.029-14.245 4.029-17.022 0-2.24-3.492-7.526-4.029-11.378-.448-3.225-.716-7.346 0-10.571 2.149-10.303 16.205-10.572 17.28-13.797 1.97-13.348 1.343-26.966 4.297-40.135 4.029-18.455 10.028-33.416 17.191-50.528 4.566-10.75 5.103-22.755 7.61-34.043 7.79 9.227 17.191 17.56 24.174 27.414 7.879 11.109 12.535 24.726 20.772 35.835 13.878 18.634 29.635 37.448 43.603 56.351 7.879 10.75 12.266 24.636 20.324 35.118 6.983 9.138 15.758 15.678 22.92 25.981 1.702 2.419 4.925 10.123 5.999 11.198 2.149 2.061 7.163.986 10.028 1.613 2.775.627 5.551 3.404 8.237 3.942 8.147 1.702 27.308-3.315 35.634-6.092 3.134-1.075 5.909-3.942 8.774-4.569 3.224-.627 7.879.985 9.133.358 2.059-.985 2.686-5.017 4.477-6.629.984-.896 20.234-12.005 22.473-12.991 11.997-5.554 27.665-7.435 39.573-13.707 9.043-10.84 16.027-23.293 23.995-34.849 2.239-3.226 11.371-12.722 12.177-14.603.537-1.254-.985-8.153-.09-12.274 1.075-5.106 8.954-14.603 13.878-16.126 2.865-.895 7.252.18 8.685-.716.268-.179 1.432-2.688 2.417-3.673 6.088-6.182 13.072-12.184 19.697-15.768 4.029-2.15 3.224-3.942 3.671-8.063l2.776 3.315c9.58-8.69 14.773-18.993 25.785-26.428 3.224-2.24 31.427-18.366 33.396-18.814 8.506-2.24 21.309 3.763 27.129-5.017 4.745-7.167 10.386-23.92-3.134-24.816zm-810.636 95.143c0 8.063-2.686 15.767-2.149 23.83.717 11.019 6.984 22.845 7.79 34.402.895 12.99-3.94 26.339-3.313 38.881.448 9.855 5.014 20.516 6.536 30.102 1.522 9.585.537 19.082 1.254 28.757.626 8.422 9.311 39.688 6.088 44.973-.627.986-5.999 4.301-7.79 6.63-5.282 6.63-7.162 16.395-5.819 24.726.358 2.33 7.61 18.097 8.953 19.351 4.119 3.942 9.938 1.254 10.834 1.882.626.537 4.655 12.004 6.357 14.782 8.595 13.886 21.577 15.498 32.411 25.353 3.312 2.956 10.475 10.213 6.356 14.692-6.625 7.167-60.524 1.613-73.506 2.509-10.476.717-21.399 4.031-31.874 4.569-14.773-18.814-26.86-39.24-39.843-59.218-2.686-4.121-6.894-7.794-9.132-11.915-4.119-7.615-6.805-39.15-7.342-49.273-.537-11.109 1.343-22.039 1.075-33.148 17.369-7.525 13.071-27.324 6.894-41.479-2.06-4.659-10.923-16.305-11.282-18.814-.626-4.389 1.612-14.602 1.075-20.963-1.075-14.155-7.969-28.847-8.864-43.361.627-5.465 10.028-2.687 13.34-3.494 8.058-1.971 17.28-6.988 27.129-7.077 5.551 0 8.774 3.046 15.221.806 1.432-.448 2.238-2.06 3.044-2.419 2.955-1.164 3.223 2.957 4.656-5.912l4.118-.359c.806-7.256 11.192-8.421 13.609-15.23z"/><path d="M134.927 0v3.315c7.163-5.286 14.594-3.136 23.279-2.24l-3.313 2.24c7.252-.717 16.653-1.165 23.726.448 2.865.627 5.462 4.569 10.386 4.927 2.238.18 4.208-1.075 6.447-.985 7.341.268 14.325.716 21.667 1.164l-1.164 2.24c4.566 1.881 7.341-3.046 11.729 0l.984-2.15 6.178 2.24-3.313 2.24h5.552l-3.313-4.39c6.446.806 12.982-.449 19.429 0 25.517 1.702 41.185 1.702 66.612 0 10.744-.717 27.129 2.418 38.858 3.314 4.924.359 3.313 2.419.448 4.928-6.447 5.823-14.863 9.138-20.951 16.752-3.761 4.749-4.656 9.228-7.342 13.797-2.417 4.031-3.044 2.867-5.193 8.242-1.074 2.688-16.295 6.988-20.234 8.421-13.878 4.838-28.472 8.063-41.633 13.886-6.626 2.957-9.939 1.971-14.684 3.047-2.149.447-8.953 7.794-13.52 4.3-2.327-5.644-5.909-10.303-9.49-15.051-1.612-2.15-1.522-2.24-3.85-4.927-3.313-3.763-27.129-28.22-29.815-27.773-10.386 11.647-21.13 31.535-22.741 47.213-.358 3.046.448 13.438-.358 14.693-.179.268-5.82 3.225-6.178 3.314-1.343.269-2.865-.896-3.402-.716-.448.179-5.283 5.644-6.536 6.45-1.701 1.165-4.298 1.254-6.626 2.688-3.402 2.15-8.326 10.929-12.534 13.438 4.476 2.777 2.507 6.181.805 10.302l-65.18 21.322c.269-10.75 2.06-20.874 1.074-31.624-1.253-13.707-4.029-23.203-4.387-37.717-.447-16.842 2.686-23.472-11.28-35.477C40.2 39.15 13.52 30.281 1.79 13.976c-4.656-6.45.447-9.049 6.625-10.034 22.92-3.942 38.5 4.12 59.45 2.867 10.565-.627 20.951-4.39 31.964-1.255zM765.69 329.684s1.701.179 1.88.985c3.492 16.574-.895 37.627 1.074 54.29 1.254 10.572 15.4 15.499 22.921 22.039 2.328 1.971 4.656 5.913 7.61 8.421 5.82 4.928 19.429 11.288 23.1 15.499 1.074 1.254.895 1.792.716 3.404-12.803-2.329-25.248 1.971-38.32 1.165-23.637-1.523-44.23-5.286-68.851-4.569-5.641.179-13.341 2.419-18.802 2.329-8.237 0-18.444-3.852-26.681-4.479-18.086-1.523-36.978 2.24-54.884-3.404-1.612-2.24 7.073-6.361 8.237-8.959 1.88-4.121.447-8.959 5.103-12.632 4.925-3.942 24.89-9.228 32.501-12.99 3.492-1.703 18.533-10.124 19.787-12.363 4.118-6.809-.179-14.245-.358-21.322 0-5.734 2.506-10.482 0-16.126l4.476-1.075-4.297-1.792c.268-11.288-3.224-23.024-2.328-34.312.626-8.063 3.76-16.305 2.149-24.995h4.476c-4.118-6.003-1.074-14.334 6.178-15.499 8.774-1.433 17.728 3.584 27.755 3.315 13.789-.448 29.815-3.405 43.245-3.405 6.088 0 10.654 4.569 10.654 10.572 0 3.583-2.596 22.218-3.76 25.264-1.253 3.404-4.745 5.733-5.103 7.167-.448 1.971 1.79 12.273 2.059 15.409.179 2.15-1.164 6.629-.716 7.973zM99.472 443.192c-7.521 1.612-15.042 3.673-22.742 4.479-4.835.448-11.102-.806-15.49 0-4.744.896-8.147 8.869-16.652 2.24-19.877-15.589 11.997-29.833 19.966-41.211 4.297-6.092 7.341-17.29 10.654-24.368 1.88-1.702 5.999 6.54 7.073 7.884l17.28 50.976z"/></g><defs><clipPath id="a"><path fill="#fff" d="M0 0h994v452.509H0z"/></clipPath></defs></svg>