<svg xmlns="http://www.w3.org/2000/svg" width="1496" height="615" fill="none"><g fill="#fff" clip-path="url(#a)"><path d="M266.724 0H163.756l-68.92 219.387V0H0v590.869l94.973-49.09V294.676l26.742 84.252 28.395 89.63 23.157 73.221h102.141L174.095 257.445zM27.568 27.579h39.837v363.346c-13.233 3.034-26.466 6.067-39.837 9.239zM183.743 366.38a1736 1736 0 0 0-34.874 7.033l-27.568-87.011-9.235-29.095 9.235-29.509 62.856-200.22h43.42l-79.397 220.49-3.308 9.239 3.308 9.239 35.563 99.696zm142.667-25.234v200.633h174.922v-83.976h-79.949V300.192h79.949v-75.29h-79.949V79.978h79.949V0H326.41zM473.901 27.579v24.82h-79.948v200.082h79.948v20.132h-79.948v58.742c-13.233 1.793-26.466 3.723-39.837 5.654V27.579zm396.71 246.413L821.539 0h-90.287l129.847 541.641h19.85L1010.8 0h-90.291zm-18.058 22.752c-5.238 0-16.403.276-21.641.414l-64.648-269.58h32.255m145.01 0h32.255L911.55 295.504c-5.652 0-17.231.138-22.882.276m180.022-1.656v321.014l94.97-73.359V0h-94.97zm67.54-266.545v265.994c-13.23 0-26.46.276-39.83.276V27.579zM1401.03 0v255.79L1257.81 0h-16.68v541.641h94.97V281.852l143.36 259.789h16.68V0zm-88.36 208.217v79.564c-15.85 1.241-31.98 2.207-48.11 3.034V60.121l128.89 220.49c-8.14.965-26.61 1.793-34.88 2.62zm111.79 67.981V23.442h48.11v245.724a2371 2371 0 0 1-48.11 7.032m-760.337 28.13V0H569.15v541.641h174.921v-83.976h-79.948zm-67.405-276.75h39.837V306.26c-13.233.965-26.466 1.93-39.837 3.034z"/></g><defs><clipPath id="a"><path fill="#fff" d="M0 0h1496v615H0z"/></clipPath></defs></svg>