<svg xmlns="http://www.w3.org/2000/svg" width="1601" height="351" fill="none"><g fill="#fff" clip-path="url(#a)"><path d="M882.472 153.821h92.355l-53.282 196.417h-4.372l-4.554-82.554c-16.485 32.039-41.714 53.155-68.127 53.155-56.743 0-83.43-55.339-54.102-160.374C819.809 55.43 877.462.091 934.205.091c40.895 0 40.075 6.19 66.765 11.468l-26.508 110.314-3.187.455-3.917-18.931c-13.389-63.713-18.762-90.108-36.796-90.108-21.95 0-38.891 44.78-67.581 147.176-28.235 101.121-36.341 147.176-14.391 147.176 10.565 0 26.049-39.593 52.098-132.704-5.465-7.009-13.753-13.653-19.491-16.657l1.184-4.368zm70.769 161.192 1.093-3.913c5.009-2.731 10.565-5.825 16.121-12.015L1037.4 59.799c-2.19-6.19-5.92-9.284-9.47-12.015l1.09-3.913h130.97l-16.12 75.545-4.28 1.547c-7.56-37.955-22.04-56.886-34.79-65.442h-4.28l-31.97 114.228h39.16l-15.3 11.65h-27.14l-34.16 121.964h3.1c25.23-13.926 46.63-36.407 75.96-73.542l4.01.819-28.24 84.464H953.059zm151.189 0 1.1-3.913c5.01-2.731 10.56-5.825 16.12-12.015l66.94-239.286c-2.19-6.19-5.92-9.284-9.47-12.015l1.09-3.913h87.62l-1.09 3.913c-5.01 2.73-10.57 5.825-16.12 12.015l-66.95 239.286c2.19 6.19 5.92 9.284 9.47 12.015l-1.09 3.913zm115.77-3.913 17.21-109.95 4.01-.364c5.55 25.94 12.93 60.436 21.31 81.734 6.28 16.292 11.11 26.759 19.22 26.759 6.19 0 8.83-3.913 11.02-11.65 12.02-42.961-37.89-155.277-22.41-210.707 11.57-41.413 40.35-48.785 69.86-48.785 22.5 0 37.62 8.1 56.56 12.378l-14.57 89.471-4.01.364c-7.65-25.212-15.48-49.97-21.58-66.99-5.29-14.29-8.93-23.664-13.94-23.664-6.19 0-8.2 3.094-10.38 10.83-11.3 40.231 38.89 149.089 22.77 206.794-8.11 29.035-32.43 53.428-69.95 53.428-24.41 0-40.08-6.19-65.12-9.648m182.06 3.913 1.1-3.913c5.01-2.731 10.56-5.825 16.12-12.015l68.13-243.564h-3.92c-12.39 13.926-20.04 23.21-69.86 84.829h-3.92l32.79-96.388h158.12l-21.13 96.388h-3.92c-15.3-61.528-17.76-70.903-22.4-84.829h-3.92l-68.13 243.564c2.19 6.19 5.92 9.284 9.47 12.015l-1.09 3.913h-87.62zM222.052 251.21 339.819 45.509h9.563l18.671 215.986c1.366 18.295 4.554 23.574 23.226 24.666l-1.367 6.007h-94.814l1.367-6.007h9.563c15.484 0 22.223-6.371 23.225-18.659.365-4.915 0-11.286-.364-18.659l-2.459-37.681h-72.226l-14.482 27.123c-7.013 13.38-13.389 25.758-14.117 34.132-.729 8.829 3.187 13.744 14.481 13.744h6.376l-1.366 6.007h-63.483l1.366-6.007c18.307-2.458 25.047-10.194 39.165-34.86zm103.649-47.239-7.742-106.764-59.566 106.764z"/><path d="M376.25 286.07h8.107c14.846 0 21.494-5.643 25.411-21.481l43.718-186.04c3.552-14.108-1.093-21.48-15.483-21.48h-7.742l1.366-6.008h89.531c42.626 0 77.6 28.853 77.6 89.107 0 84.92-59.566 151.818-133.249 151.818h-90.625l1.366-6.007zm163.215-68.719c12.66-29.945 20.402-64.805 20.402-97.571 0-41.596-16.941-62.712-39.802-62.712h-4.189c-14.118 0-21.131 6.736-24.683 21.116L447.111 264.59c-3.553 15.109.728 21.481 14.846 21.481h5.282c30.694 0 54.648-27.124 72.226-68.719m60.933 68.718h11.658c14.846 0 21.495-7.737 25.776-24.666l16.94-71.54-31.058-110.951c-3.552-12.288-8.106-21.845-23.589-21.845h-1.367l1.367-6.007h89.895l-1.73 6.007h-7.742c-8.835 0-14.482 2.458-15.848 8.465-1.093 3.186-.729 8.1.364 13.016l25.412 99.664 56.014-80.642c11.294-16.2 14.846-24.302 15.119-29.58.364-7.373-6.376-10.923-16.941-10.923h-4.918l1.366-6.007h61.023l-1.366 6.007c-18.671 2.822-25.411 12.288-46.542 42.233l-61.661 87.013-17.669 74.999c-4.19 17.293-1.093 24.666 14.482 24.666h12.295l-1.366 6.007H598.758l1.731-6.007zm-406.854-52.791c-22.861 33.404-54.738 52.154-91.079 52.154H91.717c-14.755 0-19.217-7.737-15.939-22.209l50.823-217.806c3.734-15.473 11.112-22.573 28.144-22.573h11.476l1.457-6.28H63.756l-1.457 6.28h7.377c17.032 0 20.675 7.373 17.032 22.573L36.25 263.224c-3.734 15.564-10.748 22.573-26.231 22.573H1.457L0 292.077h168.953l37.525-73.361c-4.372 5.37-8.653 10.194-12.934 14.563"/></g><defs><clipPath id="a"><path fill="#fff" d="M0 0h1601v350.238H0z"/></clipPath></defs></svg>