<svg xmlns="http://www.w3.org/2000/svg" width="1364" height="549" fill="none"><g fill="#fff" clip-path="url(#a)"><path d="m1098.36 97.104.53 1.51c9.49-2.588 20.26 2.047 29.75 1.723 4.63-.107 8.3-3.987 13.47-.754 1.08.754-3.88 1.078-.97 2.371.97.431 11.42 1.293 9.27 4.203l-10.24 4.203 2.8.432c1.29.862-13.25 6.358-14.55 7.22-5.6 3.557-9.7 8.946-18.1 7.868-2.59 3.233-17.46 7.328-18.75 9.053-1.3 1.724-.97 6.897-1.84 9.268-.86 2.695-3.98 4.85-4.84 7.221-2.81 7.006-1.73 18.968-5.39 28.021-1.51 3.88-4.53 6.682-5.82 9.916-2.8 7.221-4.31 16.597-6.68 23.925-2.59 8.084-11.32 19.831-1.3 26.297 5.82 3.772 20.8 7.868 27.7 8.514 4.96.432 7.97-1.401 12.82 1.078 16.92 8.622 29.42 6.251 47.42 8.299 3.88.431 7 3.341 10.67.323 4.31-3.449 2.26-8.945 3.02-13.687 2.04-12.179 7.54-28.453 10.34-41.601 1.3-6.143 3.02-5.389 3.34-13.364 0-.539 1.62-.431 1.83-1.185 2.91-13.364 2.91-21.34.76-34.811-.54-3.234-.54-5.928-.97-8.299-.54-3.556-5.07-8.406-3.56-11.855-1.94 1.509-9.37-2.048-10.02-3.018-.54-.754 0-2.263-.21-2.586-.11-.216-3.02 1.509-4.42-.216s0-5.82-.43-6.574c-.65-1.401-4.96-2.694-2.59-3.88 1.51-.754 3.34-.215 4.85-.647 13.47-4.095 23.06-2.909 36.32-5.388 7.11-1.401 11.96-4.85 20.36-3.449 4.85.862 7.55 5.389 12.72 4.419v-3.665c5.17.216 9.27-2.371 14.44-2.802 5.39-.539 12.07-1.616 16.7-1.94 2.91-.215 5.61 1.401 8.3.97 1.94-.323 3.24-2.371 5.71-2.694 4.75-.754 9.27 1.617 13.91 1.832 9.59.323 21.01-5.173 31.57-4.203 1.62.108 4.96 2.694 7.87 1.401l-3.67-.97c-.21-3.018 2.7-2.91 5.07-2.802l.54 2.694h5.49l-1.83-1.293 1.51-2.371c3.34 1.724 7.44 0 9.81.215 1.18.216 2.37 1.51 3.99 1.617 3.23.216 5.38-2.048 8.72 2.371.54 2.048-9.16 6.251-10.02 7.76-10.24 5.496-21.55 9.053-32 14.226-4.21 2.048-8.19 4.742-12.07 6.574-5.07 2.371-20.37 8.191-22.74 12.502-2.05 3.772-1.62 11.424-5.71 12.394v1.724l1.72 1.294c-1.72 5.281-4.1 11.747-5.28 17.028-3.34 15.088-5.07 31.147-9.48 46.235-1.19 3.88-4.75 8.622-5.39 12.286-.97 5.604 0 13.364-1.3 19.076-1.83 8.299-7 18.214-8.83 27.375-5.71 29.961-12.5 59.383-21.02 88.59-1.72 5.927-1.61 6.035-4.09 11.1-.54 1.186 0 10.455-.43 13.041-.65 3.018-3.88 7.113-4.96 10.885-2.69 9.592-3.56 22.848-5.28 32.763-.76 4.743-4.85 10.562-6.04 15.304-1.07 4.204-.75 7.976-1.18 11.748-.43 3.449-2.7 5.388-3.45 7.759-1.29 4.419-3.88 19.4-3.99 23.926-.11 3.449 5.28 9.7 7.33 13.149 2.48 4.311 5.82 12.07 8.62 15.411 2.37 2.802 6.47 3.988 8.19 5.712.97.97 1.08 2.695 1.83 3.665 2.91 3.341 6.58 5.173 5.61 10.669l-4.64-2.802-.97 5.604-3.66-1.832-.97 5.604-3.23-2.802c-5.61 4.958-8.62-1.401-12.61-4.095-17.14-11.64-38.58-21.124-56.9-33.194-6.25-4.096-17.14-14.442-22.2-17.136-2.26-1.186-7.87-1.401-11.21-3.234-9.59-5.388-18.43-12.933-27.05-19.399s-11.1-5.82-19.29-9.484c-2.48-1.078-12.72-8.838-9.91-11.855l4.63.97-.97-1.832c1.94-.539 4.2.862 5.93.646 10.56-1.509 20.26-5.281 30.06-7.759 7.98-2.048 18.22.323 23.28-8.299.97-1.724 5.17-13.041 5.5-14.981.54-2.909-.11-5.927.43-8.837.54-2.587 3.23-5.497 3.99-8.514 1.07-4.311-.54-6.682-.54-10.239 0-6.682 7.65-14.226 7.54-21.77l4.53.862c.64-2.91-3.02-2.694-4.64-1.832 1.19-7.221 2.37-15.304 3.99-22.417 2.37-10.238 3.23-13.472 4.53-24.357.43-3.341 2.69-7.544 2.69-10.346 0-2.263-2.8-7.868-4.74-9.269-.65-.539-14.76-6.466-15.73-6.574-3.02-.647-4.96.755-7.87.539-5.07-.431-11.86-5.281-15.95-5.496-3.02-.216-5.39 1.508-8.95.754-2.37-.539-4.84-3.341-7.86-4.203-6.36-1.94-15.09-2.048-21.77-3.233-2.37-.432-4.42-2.156-6.79-2.479-4.74-.755-12.5.215-16.49 2.91-3.23 2.155-4.52 14.118-5.71 18.429-.65 2.371-2.8 5.604-3.02 7.113-.11 1.617 1.08 3.341.65 5.281-.11.647-2.7 4.85-3.23 8.837-2.7 21.016-9.7 40.416-15.09 60.246-1.94 7.005-1.73 17.675-3.23 25.542-.97 4.742-2.16 9.916-3.13 14.442-1.62 7.437-8.51 21.663-3.56 27.914 1.84 2.263 6.69 3.879 7.87 7.005.22.862-8.3 1.724-7.43 5.065 3.77 1.725 7.11-3.233 8.94-3.556 2.59-.431 10.35 9.053 12.82 10.993 5.28 4.203 16.71 6.682 14.34 15.196-.22.97-3.13 0-.87 3.448-3.98-.862-5.17 3.126-8.83 3.665-9.27 1.509-19.62-.539-27.81 0-3.34.215-4.52 2.694-7.43 2.91-2.588.215-4.851-1.186-7.33-.97-5.173.323-15.949 11.316-18.643 1.832-3.233 3.341-10.562 4.526-14.98 4.526-15.842.324-31.144 0-46.878 3.126-8.298 1.724-22.524 9.699-26.834-1.186-5.82 1.186-17.674 8.299-22.954 5.82-1.509-.754-1.725-2.371-2.264-2.802-1.293-.754-5.388-1.078-7.112-2.156-.755-3.341 3.556-1.832 4.634-2.371 1.185-.646 1.401-2.478 2.478-3.233 4.096-2.802 9.161-4.957 13.471-7.544 11.1-6.79 23.17-14.98 35.886-21.662 3.018-1.617 14.118-5.713 15.411-6.898 2.479-2.155.862-6.79 1.293-9.807.539-3.665 1.94-12.179 6.466-11.64l-1.832-1.401c-.754-2.479 1.509-2.263 1.617-2.479 2.586-8.73.539-13.256 1.293-20.585.431-3.772 3.664-7.113 4.095-9.699.323-1.832-.647-4.419-.323-7.006.431-3.987 3.556-13.364 4.634-18.537 4.849-22.093 12.285-45.804 15.734-67.789 1.939-12.071 6.466-21.447 8.944-32.764 1.401-6.251.647-14.334 2.263-20.908.862-3.341 3.341-5.604 4.203-7.867 2.156-6.143 2.048-17.352 3.449-24.357 1.401-7.006 5.927-15.196 6.789-21.016.754-4.419-.431-10.131.431-15.304 1.078-6.251 4.742-12.394 6.035-18.106 1.617-7.221.431-16.166 3.987-23.495l.97 2.802 1.832-1.401v-2.263l-1.832-.97c4.207 0 2.156-8.191 1.186-10.885-.431-1.293-8.298-16.058-8.945-17.028-1.724-2.479-7.867-5.281-10.777-7.868-3.987-3.449-6.142-8.083-10.668-10.67l-.863 1.941c-3.448.215-7.867-6.575-9.806-7.868-2.371-1.617-7.544-1.724-8.298-6.035 2.371-.216 4.526-1.078 7.005-.97 15.302.323 32.976 1.724 47.413 4.634 5.28 1.078 9.92-.647 14.44-.323 5.18.43 11.97 3.125 18.11 3.125 5.06 0 9.91-1.94 15.63-1.832 15.08.323 32.43 5.82 47.63 4.958zm-122.427 164.14c.539 2.802-3.448 6.143-.431 8.298l3.987-6.035zm45.587 65.742c-.65-.647.75-3.018-.97-2.694-.11 1.401 0 3.987-.86 5.065-.87 1.185-3.13-.323-2.91 1.509 1.83-.108 3.12-.216 2.8 1.832 1.4.323 1.08-1.94 2.26-2.91.97-.862 2.26.323 3.34-.323 3.24-1.94-3.45-2.264-3.66-2.479m-15.09 140.429h-3.56l1.41 5.389c3.98.323 3.66-2.802 2.15-5.389M488.398.647s.215 1.616.754 1.616c1.078 0 3.233-1.724 5.496-1.94 3.987-.43 13.794-.539 17.566 0 4.526.647 10.022 5.281 14.441 5.066l-1.401-3.234 1.939-1.832c1.294 0 6.79 22.31 7.436 25.004.97 4.095.862 10.13 2.371 15.304.755 2.802 5.496 12.394 5.604 13.148.216 1.509-1.078 3.018-.647 5.928 1.401 7.652 10.885 22.74 12.717 30.93 1.401 5.82.215 10.994 1.078 16.598 1.185 8.514 7.328 18.86 9.483 27.59 1.724 6.682 1.509 13.256 2.694 19.507.862 4.311 8.083 27.698 9.699 31.147 1.186 2.479 3.988 4.095 4.526 5.712.862 3.017-.431 6.035-.215 8.729.431 5.605 6.358 12.718 8.082 18.645 1.078 3.449-.646 9.161-.323 13.257.647 6.358 3.125 19.507 5.388 25.219 1.294 3.341 4.419 5.819 5.389 9.484 4.957 18.106 8.082 38.152 12.932 56.689 1.724 6.897 6.573 13.903 8.082 20.692 1.401 6.467 1.293 14.981 2.802 21.232 1.078 4.419 5.496 10.562 6.25 15.088.647 4.311-.538 8.838.432 13.472 1.185 5.927 6.466 14.118 8.19 20.585 1.94 7.113 2.155 14.98 4.849 22.093 1.293 3.449 4.203 5.928 4.85 10.023 1.077 6.143 0 13.256 1.401 19.938.431 1.833 2.371 4.635 2.371 4.85 0 .862-2.156 1.832-2.587 2.695-1.509 2.802-3.556 5.712-4.742 8.19-1.724 3.341-1.185 8.191-2.694 10.347-1.832 2.802-6.573.754-5.496 5.173l7.436-1.832v3.556l3.664 1.078c-.323-5.065-2.586-7.76-.646-13.256.754-2.048 3.125-2.802 3.879-4.419.755-1.509 1.617-8.622 2.371-9.268l5.496 6.466-3.233-10.239c6.251 4.85 12.501 16.167 19.506 19.508 9.807 4.742 4.957 2.586 11.746 8.729 3.772 3.449 18.105 13.364 22.847 16.166 3.341 1.94 6.574 3.018 10.345 3.988v5.389l5.604 1.077-.862 7.329c-1.185 1.185-9.375-4.419-11.746-4.419-1.509 0-2.048 1.832-3.988 1.294-2.909-.863-6.358-4.204-8.082-5.281-5.281-3.126-23.386-1.078-30.175-2.048-5.065-.754-8.298-3.88-12.608-5.065-6.898-1.94-12.932-.216-19.183-1.294-2.802-.431-5.065-2.802-7.651-3.448-3.018-.755-12.717-2.695-15.626-2.91-5.389-.539-8.191 4.634-13.364-2.371l2.802-1.401c-5.927 0-13.255.646-18.966 0-6.898-.863-23.278-4.85-29.528-7.545-7.436-3.125-7.975-9.053-9.161-9.807s-5.28.323-6.789-2.048c-1.185 3.449-1.832 3.988-5.496 4.634l-1.509-4.526h-12.824c.216-9.915 5.281-7.436 12.07-9.915 12.609-4.634 25.972-11.748 37.179-18.43 2.479-1.508 7.113-1.401 7.221-6.574.215-8.191-3.018-20.585-5.927-28.344-4.634-12.394-9.376-21.016-11.424-34.919-.431-3.233.216-6.359-.539-9.7-1.293-5.496-7.004-14.657-8.513-21.231-1.509-7.113-1.186-19.938-3.88-25.758-5.28-10.993-9.375-27.59-12.716-40.2-4.203-15.735-7.113-33.194-11.639-48.498-.215-.754-1.509-.647-1.616-1.185 0-.647.862-1.617.431-3.234-1.509-5.388-10.13-12.286-15.411-13.471s-7.975.431-12.501.538c-19.613.324-38.688-3.987-57.87 1.509-7.005 2.048-8.945 10.885-11.316 17.46-3.341 9.16-5.496 18.752-8.298 27.913-1.509 5.065-6.681 10.023-7.975 15.196-1.401 5.497-.646 12.825-2.155 19.076-.431 1.617-1.94 1.401-1.94 1.832-.431 11.855 15.842 27.806 24.463 35.35 1.186.97 10.669 5.82 7.113 8.299-.647.431-2.156-.324-2.802 0-2.694 1.509-8.406 6.358-11.208 7.221-11.531 3.556-21.014.538-31.899 1.077-4.741.324-7.759 2.695-12.07 3.234-4.31.538-26.726-1.94-28.342-.97l-.431 2.802-1.832-2.587c-7.436 2.91-15.303 1.94-22.847-.215l-.431-1.833c-2.802 1.509-12.393 9.916-15.303 7.329-.538-.431 1.078-3.341-1.401-2.694-1.293 2.91-3.125 3.556-6.358 2.802-1.077-.323 0-2.263-1.509-1.832l-.538 2.802c-2.048-.324-4.527.323-6.466 0-2.695-.539-2.263-3.772-4.634-3.772-4.85 2.371-7.544 6.574-13.471 3.772.646-3.449 7.112-3.664 8.19-4.742.108-.108-.754-3.233.323-4.311.539-.539 6.143-1.94 7.005-2.371 2.802-1.832 5.496-5.281 9.699-8.083 3.018-2.048 1.724-3.233 1.94-3.449 1.509-1.832 8.621-5.496 9.699-6.898 1.616-2.047.754-5.496 1.293-6.143.108-.215 3.125-.539 4.526-1.508 10.777-7.437 19.829-25.112 22.739-37.614h2.371c.323-2.047-2.048-2.155-1.509-4.526.647-2.587 3.664-4.958 4.742-7.436 1.616-3.557 1.509-7.868 2.802-11.101 4.203-10.454 12.177-22.633 16.596-34.488 5.173-13.795 9.268-23.926 15.411-37.505 1.832-4.203 5.496-18.322 7.328-20.477 1.077-1.293 3.448-1.725 4.203-3.233 1.077-2.156 1.185-7.006 2.155-9.916 2.586-7.436 8.837-15.088 12.177-22.201 4.634-10.023 8.406-20.693 13.256-31.254 5.496-11.963 8.19-23.064 12.824-34.596 4.095-10.238 13.686-24.464 18.751-35.996 2.263-5.281 4.311-11.855 6.359-17.352l1.832.97s-.647-1.94-.431-2.91c.431-1.832 4.418-11.208 5.496-12.933 1.724-3.017 5.927-4.095 4.202-8.298 4.311 1.4 17.351-1.401 20.153.323zm-36.641 173.947c1.724 1.832 13.04 4.634 15.949 4.957 5.389.431 17.782-.215 23.17-1.078 1.401-.215 3.664-.969 4.095-2.371-1.832-6.466-1.401-14.872-2.909-21.015-.431-1.833-2.264-2.91-2.587-4.85-.862-4.527.97-11.317-.215-16.49-.755-3.341-4.742-5.065-6.143-7.759-1.832-3.234-1.293-10.454-4.526-11.317-6.358-.862-5.82 7.113-7.436 10.778-.97 2.155-4.419 9.268-5.604 11.1-2.371 3.773-5.281 3.018-6.466 8.407s-2.694 7.436-5.496 12.933c-.539 1.077-1.724.97-2.048 1.832-1.077 3.018-2.155 12.286.216 14.873m28.558 36.535-5.496 1.401 4.203 4.203 3.233-2.371-2.802-.431.97-2.802zm-62.397 16.489c1.078-4.418 4.526-12.178-2.694-11.963l-.97 12.071h3.557z"/><path d="m244.414 47.744.647 2.694c-8.945 4.958-17.566 10.885-25.864 16.813-7.22 5.173-14.441 10.67-21.338 15.735-7.867 5.712-15.734 11.532-23.816 17.028-1.293 1.401-2.371 5.497-2.371 7.329 0 5.173 7.005 39.122 9.052 44.618.216.647 2.587.97 2.587 3.772-.108 4.634-2.91-1.078-4.634 1.832l2.694 1.509-.754 3.233c1.401.755 2.263 0 1.832 2.264l-3.664 2.802 1.293-1.832c2.694 1.077 3.341.431 3.772 3.664l2.263-5.604c2.371 9.16 1.293 17.675 5.604 26.404l-1.94 1.401 2.802 1.401-1.832 1.401 1.832.647c-1.186 9.269 5.604 16.705 5.496 25.435l-1.832-.97v2.371c2.694.539.754 2.155 1.724 4.634.754 2.048 3.772 3.557 2.479 5.065l-2.802-1.832c-2.263 1.401-.647 2.587-.431 4.635l-3.664 1.401c1.724 2.694 2.371-.539 4.203-.539 1.616 0 2.263 2.371 4.202 1.94l.432-4.635c2.047 4.204 4.31 15.412 4.202 20.046 0 2.371-2.263 3.557-1.939 5.928l3.664-.97c3.556 11.747 6.466 22.956 3.772 35.242l3.664-2.802c1.293 7.113 5.28 13.472 7.004 20.369 3.341 13.795 4.311 30.285 8.298 43.649 1.078 3.772 4.203 6.682 4.958 10.885.539 3.017-.108 5.927.431 8.837s3.34 5.928 3.987 9.915c.539 3.018 0 5.928.647 8.622.97 4.635 5.28 17.567 4.418 21.34-.323 1.293-5.604 1.616-2.802 6.25l2.802-.97c1.186 9.161 9.484 15.197 8.406 25.112 20.583-1.832 41.167-3.88 61.75-5.605 14.656-1.185 28.989-2.263 43.645-3.772 11.855-1.185 23.601-2.155 35.24-3.664 3.556-.431 9.376.539 12.717-.97.754-.323 9.375-10.777 10.345-12.178 5.712-8.407 10.346-19.938 15.626-28.991 4.634-8.084 11.855-15.089 14.225-24.788l8.837-2.803.97 3.665v-6.467l6.466-1.832c-.862 4.419.323 8.838 0 13.472-.431 6.143-2.694 12.933-3.233 18.537-.323 2.371.97 6.035.431 9.269-.215 1.508-1.832 2.371-1.832 3.772 0 .538 1.724.323 1.94 1.077 1.185 4.311-1.94 4.204-1.94 4.527 0 1.293 1.617 2.155 1.832 3.772 1.832 10.993-3.448 29.961-3.772 41.708-.107 5.712 2.371 9.377 1.725 14.765l-7.328 4.204.754-2.695-1.617-1.401 1.833-3.341-7.436 3.665c2.37-3.234-1.617-.97-1.94-2.372l-.431-4.095c-4.742 2.802-9.915 8.838-1.94 11.209l3.772-4.635 4.203 5.497c-4.958.323-10.346-.431-15.303 0-7.436.646-16.381 3.449-23.278 4.634-5.065.862-9.375-1.078-13.902-.97s-7.543 2.048-13.039 1.94c-10.777-.216-15.842 1.94-25.972 2.587-13.255.754-25.325 2.478-39.012 1.94-3.987-.108-5.496 2.802-7.328-1.509l-3.233.862-.215 3.449c-5.496 1.94-11.423.539-17.027 1.077-4.419.324-13.902 5.066-15.303-.97h-1.401c-.754.108-.108 1.617-1.078 1.833-4.849 1.185-14.548 3.233-19.398 3.664-11.315.862-24.032.323-35.024 1.078-12.824.754-27.265 4.203-40.089 5.496-8.298.862-17.674 0-25.864.97-3.341.323-6.25 2.479-9.699 1.832l1.832-1.832c-4.742-1.293-8.621 1.401-12.501 1.832s-6.897-1.078-10.238-.97c-5.603 0-13.255 2.048-18.643 1.94-2.155 0-3.988-.431-6.035-.97 2.694-4.311-1.078-4.85 2.802-9.807 6.574-8.407 15.734-13.903 22.846-23.064 1.617-2.048 2.263-3.125 3.449-4.85 3.664-5.065 7.759-9.807 12.609-11.639-1.509-5.497 5.603-6.682 6.466-12.502.323-2.155-.863-14.549-1.617-16.92-1.293-4.204-4.526-6.251-5.604-10.131-3.772-13.795-6.574-28.56-9.375-42.679-4.096-19.722-8.73-43.217-14.441-62.616-1.293-4.527-6.358-13.472-6.897-17.352-.539-4.634 2.909-8.083.646-14.334-5.172-14.549-11.315-29.961-13.686-45.804-.539-3.556.323-7.221-.323-10.777-.755-4.527-4.311-7.113-5.496-11.209-2.695-9.376-2.91-20.045-5.927-29.422-.863-2.694-2.802-5.173-3.772-8.298-2.479-9.053-2.587-24.573-6.79-33.195-.538-1.078-7.651-10.238-8.621-10.885-1.832-1.293-5.927-3.018-8.083-3.125-4.31-.324-9.375 3.233-7.65-4.742-6.251-2.048-11.209-6.79-17.244-9.269-7.759-3.125-17.996-2.479-26.51-4.095-.539 0-5.28-.647-3.556-2.479 1.94-2.048 19.613-4.527 23.6-5.604 8.19-2.371 16.704-7.868 25.433-9.053 4.311-.54 4.958 0 10.023-1.078 15.303-3.449 32.33-10.346 48.495-12.825 3.987-.647 9.699.215 12.5-.431 3.018-.755 8.73-5.928 12.07-7.437 5.712-2.37 7.221-.323 12.178-.754 2.586-.216 5.173-2.048 7.759-2.479 3.233-.647 7.544 0 10.669-1.186.862-.323.647-1.94 1.185-1.832.755.216 1.509 1.617 3.557 1.617 4.741 0 13.794-3.988 18.967-5.065 4.418-.863 10.022-.755 14.117-1.617 14.441-3.018 28.558-9.268 43.538-6.898zm-35.131 229.235-1.832-7.437-.97 2.803s-3.664-3.341-4.634-.432c-.862 2.587.215 1.833 1.293 2.371.97.539 5.604 3.234 6.035 2.695zm11.1 43.648 1.4-4.634-2.047-1.617c-6.682 1.294-1.293 2.802-1.293 3.234.323 1.616-.647 4.418.862 5.496l3.125-.539.647-2.802-2.802.97zm-39.012 166.187c-2.91 0-6.789-2.586-6.358 2.156l5.388 4.311zM908.148 58.845c.539 3.233-2.047 5.173-2.586 8.083-3.664 18.321-11.855 71.023-8.945 87.62.323 1.832 2.263 3.233 2.263 5.927 0 3.772-3.125 7.006-3.664 10.239-.431 3.017.216 6.574 0 9.699l-2.802-1.832c-.539 3.557-7.005 5.928-10.238 6.143-.646 0-7.759-.646-8.621-.754-6.035-1.078-2.586-6.035-5.28-8.514-2.264-2.048-3.557 1.401-2.371-6.143l-1.832.97c-3.557-2.156-3.449-11.101-5.065-14.873l-2.802.97c2.155-5.065-3.772-7.975-6.358-11.747-2.802-4.096-5.928-11.856-8.514-14.658-1.401-1.616-23.062-12.394-25.217-12.825-4.527-.862-12.07 1.832-17.997 1.293-3.233-.323-5.496-1.616-8.298-1.939-2.802-.324-11.963-.324-12.932 2.802l-.97-1.832c-2.694.969-11.639 10.992-12.286 13.687-.431 1.509-1.077 14.98-.754 16.92 1.185 7.437 9.591 16.274 15.411 20.801 12.716 9.915 17.781 12.609 33.084 17.998 14.01 4.85 24.14 10.346 36.425 17.567 1.185.754 1.185 3.557 5.604 2.156l-.97 1.832c5.712-.539 8.082 2.694 12.393 4.849 10.022 4.958 22.739 13.257 31.683 20.262 1.509 1.185 12.07 10.239 12.609 10.885 1.617 2.156 2.155 6.251 3.88 8.945 2.909 4.527 7.112 3.88 3.556 10.239l3.233 2.479 1.401-1.832 6.466 15.303c-5.173 1.94-7.113 7.329-5.496 12.502 3.879.539 2.155-4.526 2.909-5.389.216-.215 3.665-.969 4.527-2.047.862 3.987.539 8.191 1.401 12.07.862 4.204 3.987 8.083 4.31 11.532.431 5.281-3.987 7.221-2.802 12.502-3.34-1.724-2.909 2.048-2.802 4.634l2.802-2.802.97 4.634c-4.634-1.077-3.448 4.527 0 2.803l-1.939 9.16h-3.557c2.802 4.204 3.341 3.665 1.832 8.946-1.509 4.849-9.806 24.788-12.501 28.344-1.508 1.94-4.957 3.449-6.897 6.035-2.694 3.449-4.634 9.592-7.867 12.502s-10.345 5.497-14.333 8.838c-3.125 2.586-5.28 6.897-8.082 8.622-3.018 1.94-6.035 1.077-8.837 2.263-18.967 7.652-35.778 13.795-56.901 13.795-6.035 0-12.501-3.233-18.535-2.91-3.557.108-6.79 2.479-10.13 1.94-1.833-.323-5.928-3.341-8.837-4.203-5.065-1.617-11.316-1.509-16.058-2.479-5.172-1.078-32.653-11.963-37.179-14.765s-9.052-10.777-15.087-11.855c-14.549-2.695-13.471 13.04-24.571 14.441-3.341.432-6.574-1.185-9.807-1.293-5.388-.215-9.483 2.479-15.303-1.616-8.729-6.143-4.849-13.364-4.634-21.34.431-15.196-.646-31.47 0-46.45.324-7.005 4.634-16.058 4.634-19.507 0-19.938-3.448-40.415-3.771-60.354 0-6.035.107-12.07 0-18.106l12.177 18.861c15.519 20.692 40.413 88.159 62.397 98.721 6.574 3.125 10.238.107 12.609.97 8.729 3.125 14.009 11.316 23.493 15.304 6.897 2.909 24.463 6.25 31.791 6.358 5.065 0 12.285-2.263 17.674-2.802 4.202-.323 13.039.97 16.164-.539.647-.323 10.238-7.328 10.669-7.867 1.294-1.725 7.544-14.226 7.867-16.274 1.186-8.838-.97-24.141-6.897-31.039-.754-.97-2.371-.754-2.909-1.186-1.401-1.401-2.156-3.879-4.958-4.31l-.97 1.832c0-1.078-.215-2.371-.862-3.341-3.664-4.527-21.661-9.7-27.911-12.933-3.233-1.617-6.466-5.604-8.514-6.682-3.879-2.048-10.992-3.341-14.333-4.742-2.694-1.186-4.957-3.018-7.651-4.096l.862-3.556c-1.832-.431-2.263 1.724-3.987 1.724-8.622-.215-11.531-5.604-17.027-8.945-2.802-1.724-7.113-2.263-9.915-3.988-5.712-3.556-13.794-12.286-20.691-16.381-2.479-1.509-6.035-1.832-8.19-3.88-2.156-2.048-3.126-6.251-5.065-8.838-2.802-3.556-7.652-5.496-10.023-9.376-9.375-15.304-15.41-34.703-18.428-52.055-1.832-10.562 3.988-20.046 4.419-28.56.215-4.85-1.94-9.807-.755-15.519.539-2.479 13.256-27.806 15.195-30.285 1.832-2.263 5.712-5.604 7.975-7.22.431-.324 2.048.43 3.987-1.186 2.048-1.832 2.048-3.988 3.233-5.173 3.664-3.88 24.679-17.567 29.205-17.244l.862 1.832c4.957.216 9.591-5.388 13.256-6.25 14.117-3.126 26.187-4.204 40.627-2.803 9.161.862 26.834 2.479 35.132 4.742 4.311 1.186 17.89 9.161 19.722 9.161 2.047 0 3.125-1.724 4.634-1.94 10.13-1.401 13.578-1.617 22.954-6.682 3.233-1.724 23.816-16.813 25.648-14.657zm17.674 258.98v-5.604c-7.759 1.293-1.293 5.604.431 10.238 2.155-3.125 5.388-5.173 5.065-9.268h-3.664c1.293 2.263 1.401 4.634-1.832 4.634"/></g><defs><clipPath id="a"><path fill="#fff" d="M0 0h1364v549H0z"/></clipPath></defs></svg>