<svg xmlns="http://www.w3.org/2000/svg" width="1689" height="479" fill="none"><g fill="#fff" clip-path="url(#a)"><path d="M1686 424.766c-4.18-.536-10.82-.644-15.21-.858-23.03-.643-47.35.858-70.06.858-9 0-18.1-.536-27.21 0 3.86-5.788 13.39-8.682 17.68-13.077 2.78-2.787 1.93-6.109 2.14-6.324 1.18-.857 3.75-.428 6.21-3.001 2.47-2.572 4.61-10.075 6.11-13.076.64-1.179 6.53-5.038 6.75-5.466.21-.429-.11-8.468.53-10.504 1.07-3.216 7.93-14.47 9.11-18.221.86-2.787-.22-11.898 1.71-15.756l-2.78.643 4.18-12.54-4.18-.751c1.71-3.751-.43-10.182 1.39-12.969.64-.965 2.68-.857 2.68-1.608-.11-2.679-1.18-9.646-1.82-12.111-.65-2.573-3.97-2.358-4.5-6.753-2.04-17.042-4.82-25.938-13.18-41.051-.96-1.715-4.07-2.358-2.78-7.931-4.61 3.644-4.18-4.716-5.57-7.396-4.29-7.824-12.43-17.042-19.39-22.187-.32-.214.75-3.858-1.61-7.181-1.61-2.251-10.39-10.718-13.07-13.076-1.07-.965-3.21-.858-4.39-1.822-2.25-2.037-3-6.003-6.32-7.075 1.61 4.609-5.79 6.86-6.96 9.111-1.29 2.465 2.25 2.572 3.53 2.144.97-.322 1.18-3.001 2.04-3.537 5.89-3.859 7.71 8.574 1.5 9.753 2.67 3.644 6.96-1.822 9.74 2.787l-2.89 9.003c-2.68-2.036-12 5.574-9.64 8.468 3.96-.215 3.54-3.644 8.14-5.145 5.25-1.715 11.46-2.036 17.03-1.822.54.429-2.78 8.467-3.64 9.646-1.39 2.144-7.17 5.895-9.32 7.61-4.18 3.216-9 3.752-10.82 9.325 5.25-.536 8.14-5.145 12.97-7.288 5.67-2.573 10.17-1.822 14.03-2.68 1.82-.428 2.57-3.322 5.25-2.572l-1.4 5.573c7.07-3.215 8.79 1.608 5.68 7.718l2.04 1.929 3.53-1.286-.64 2.894 3.43 2.036c-1.61 2.787-17.68 9.646-14.04 13.291 7.82-.322 9.75-9.432 18.11-8.361-.75 2.573 1.5 5.681 1.39 7.503 0 .751-1.82.858-2.25 1.394-.64 1.071-.53 2.786-.96 3.215-1.61 1.608-8.79 5.252-10.93 6.753-1.5 1.071.11 3.108 0 3.215-.86.75-6.11.643-8.14 2.251-5.36 4.394.75 6.002 5.57 3.859 3.75-1.608 5.03-5.145 5.89-5.574 2.57-1.393 12.86-1.286 10.93-7.396l5.57 2.358 1.39 7.396h-3.21l-.97 5.574 1.4-4.181 4.92 1.394c1.82 2.572.11 11.361.97 14.791.21.75 2.57.536 2.46 1.286-.32 5.038-7.93 3.001-6.96 7.717l6.96.751-2.68 8.896c7.5 1.822-.32 10.825 3.86 16.292-4.61 1.286-1.07 6.002-1.29 11.039-.75 18.543-8.99 30.976-17.03 45.66-2.78 5.038-2.03 10.504-8.25 15.113-.32.214-1.92-1.179-2.25-.857-.64.536-4.82 6.645-6.85 8.038-4.82 3.323-11.04 6.217-16.93 9.111-.43-.214-.85-.214-1.5-.214-21.42.643-42.85 1.393-64.16 1.929 1.07-2.037 2.14-4.609.53-6.538-3.85.964-2.89 4.287-4.5 5.573-.53.429-1.07.75-1.71 1.179-3.43 0-6.96.215-10.39.215-7.5.107-15.11 0-22.6-.858-1.29-.107-2.36.643-3 1.715l-1.08-.857-.53-2.787c4.5-2.68 8.89-8.36 14.03-10.611 1.72-.751 3.75.75 3.97.536.42-.322 5.14-9.968.85-8.253l-8.67 5.252-5.47-3.859-3.32 1.393v-11.147l2.79 1.394 2.03-5.681 18.96-12.54-16.71 4.287 1.29 2.572c-7.72-.428-3.22 7.074-9.75 5.574 0-6.86 3.43-6.431 6.96-11.147-4.07.643-2.14-3.001-2.89-4.502-1.07-2.036-3.96-.214-1.61-5.145-5.35-.214-.43-1.5-.21-3.644 0-.643-3.54-10.504-3.96-12.433-.33-1.608-2.15-1.501.96-3.644 1.07-.215 9.53 3.322 10.82 4.18 1.39.857 1.39 3.537 3.21 3.966 7.39 1.715 19.18 3.215 27.96 1.822 1.07 5.037 6 .964 11.03 1.179 3.86.214 6.97 2.786 10.82 2.572 6.97-.429 21.32-7.61 26.68-12.219 3-2.572 5.35-10.718 5.25-14.684 0-8.467-3.11-15.327-4.18-22.508-.64-4.395 1.82-6.538 2.57-10.29-6.21 3.109-4.18-1.179-6-4.823-.43-.857-1.61-.75-1.82-1.501-.75-1.929-.54-7.074-.86-7.288-.53-.643-2.25-.214-2.46-.321-.86-.965 4.5-4.073 5.57-5.252.86-.965 2.78-3.859-.64-3.109-4.18 3.109-11.14 4.288-16.07 2.787-1.18 5.895 4.07 9.218 6.75 13.505 2.68 4.18 3.53 4.823 5.67 7.61.43.536-2.24 4.073-2.03 6.109.11 1.287 3.86 9.861 4.5 12.755.32 1.822-1.18 3.752-.97 5.252 0 .965 2.36.643 2.58 1.501 1.07 4.287-2.15 9.217-1.83 13.398-4.39.75-6.96 5.252-9.96 6.752-12.64 6.645-33.31 3.644-46.7.643-9.22-2.036-16.61-6.645-24.32-9.646-2.04-.858-11.36-.429-13.28 1.5l-1.4 79.423c-2.03 2.143-4.5 3.322-7.17 3.751-.32-.321-.65-.643-1.07-.857-1.18-.536-2.25-1.072-3.43-1.501-8.36-7.503 4.71-23.044-2.36-31.833-.21-.858 2.57.107 2.89-2.68 1.29-9.218-1.18-21.222-1.18-30.868 0-24.76.11-48.34-1.71-72.885 0-.643 2.25-.536 2.46-1.286 1.83-10.075-2.67-24.438.33-34.834l-2.79-1.501c5.68-6.324.54-16.613.64-23.794.11-9.54 3.86-12.326.86-22.509-.32-.965 1.29-15.005.86-19.293-2.79-24.33-.43-58.522.64-83.924.32-8.36.32-24.009 0-32.262-.21-4.823-3.64-7.074-3-11.897h79.59l-18.85 9.753c-25.92 17.15-38.14 44.16-39.1 74.385-.21 6.324.21 6.967.43 12.005.21 4.716-.97 10.075.32 15.005l2.78-.75c-6.21 8.253 14.25 54.342 17.57 54.663 5.47.429 6-6.859 8.14-8.574 6.43-5.145 6.43-.751 13.61-10.826.43-.536 10.6-3.108 12.85-4.394 1.72-.965.32-3.43 1.72-4.395 1.07-.75 10.39-.857 7.6-6.859h6.86c1.18-2.466.21-4.931.43-7.289.21-2.144 4.71-3.323-.32-5.252-1.5 1.715-6.43 10.183-6.97 10.504-3.1 2.144-15.96 6.645-20.24 9.218-1.4.857-6.32 6.431-7.93 7.395-.64.429-11.14 4.824-11.68 4.824-2.67 0-8.35-1.715-7.71-5.36 2.89.215 6-1.286 6.96-4.18l-6.96-3.537c.64-2.679 17.46-13.29 21-15.112 1.5-.858 5.46 1.822 5.57-3.752 2.46-.429 1.6 4.395 1.07 5.252-.86 1.501-9.86 5.466-12.32 4.502l1.18 2.572c-4.82 2.144-9.11 3.216-11.04 8.575 3.65 1.072 4.72-2.787 6-3.644 11.14-7.289 33.96-15.756 46.17-21.437 1.07-.536 1.29-4.716 6.54-2.787 4.82 14.041-5.9 6.538-8.36 15.327l18.75-2.786 3.64 4.18-8.46-20.258 2.89-1.5c-6.21-2.787 3.21-18.221 5.57-19.615s5.03-.214 7.39-.75c.64-.107 9.32-7.503 10.82-8.789l13.39-6.109 27.75 4.823c0-.643-.22-1.286-.22-1.93-.43-3.537-.21-7.395 2.04-10.289-.65-16.613 2.03-35.263.32-51.234-.43-3.644-2.36-5.68-2.79-9.003 4.29-2.465 11.04 1.715 11.89-2.894 1.93.322 4.07.965 6.11 1.715 1.28-1.286 3.11-2.036 5.46-2.036 7.82 0 15.64-.643 23.46-.43l.54-.535c-4.93 1.608-9.11-1.608-12.75-2.144-3.32-.428-11.89 2.466-11.03-2.036l-2.79 2.787c.11-1.072.11-2.251-1.07-2.68-10.82-4.287-31.71-2.68-43.06-1.608l-1.4-2.786c-4.07 2.036-7.07 1.607-11.14 0l.65 4.18-3.65-4.18c-10.28.535-21.21 4.18-31.28 1.286v4.18h-12.53l-1.39-4.18c-.64 7.61-6.43-.643-7.71 5.573h-2.79c-.96-.321-.96-3.322-3-4.073-5.68-1.929-41.03.322-49.49.75-1.93 0-3.64-.857-5.46-.964l.64 4.18c-2.89.536-2.57-3.323-4.18-3.966-4.82-1.929-15.85 3.645-20.24-.964V8.146a76 76 0 0 1-.32-7.074c-.22-.322-.33-.75-.54-1.072-.21.214-.32.429-.54.536v44.48s-2.35 2.573-2.78 2.144c-.32-6.323-1.39-.535-2.04-.321-2.78 1.179-9.74-1.072-12.74-1.072-10.82-.107-23.57 2.358-33.53-1.393-1.29 5.68-1.61.75-4.07.536-1.5-.108-3.32 1.607-4.72 1.5-6.96-.107-12.53.429-18.96.536-3 0-18.1-1.822-18.96-1.179l.64 4.18-2.03-4.18c-3.86 1.393-7.71.214-11.57.536-11.36.857-22.07.75-33.85.75-7.29 0-14.36-2.465-21.75.107l-.64 2.787-2.79-4.18h-2.03l-.11 2.68-7.71-3.966c-1.07 4.287-8.25 2.68-11.14 0l-1.29 2.787c-5.46-5.36-13.07-.43-17.89-.43-11.89 0-24.63-1.821-36.74-1.07-4.5.32-6.21 4.18-12.43 0l-1.39 4.18-1.39-4.18-4.29 4.18-8.99-2.788.64 2.787c-6.96-6.967-12-2.68-19.39-3-7.28-.323-15.43-2.466-24-1.394-2.78.321-1.82 3.108-2.67 2.894-3.75-.75-10.5-2.573-14.04-4.18l-1.39 2.893c-3.21-.535-25.82-1.929-27.74-1.179-2.57 1.072-2.47 4.502-5.04 5.252l-.75-5.573-5.57 2.894c-1.5-5.145-11.57-1.286-16.71-3.001l-2.79 4.287.65-4.18-28.5 1.393-.85-2.786-2.68 2.143.53 4.823c-5.567-4.073-7.817-4.823-14.458-5.359-17.461-1.286-36.208.322-52.597.429-14.033 0-28.066 0-41.992-.429l-.643 2.573-4.285-2.144c-6.213 7.396-5.142.214-10.498-.643-1.178-.214-22.603.214-23.781.536-1.821.428-1.5 3.323-2.785 3.751h-3.428l2.785-4.287c-6.213 1.93-12.64-.965-18.961-.107-3.106.428-.642 4.394-6.213 1.5l.643 4.18c-5.035-2.68-3.964-7.18-11.034-4.18-2.571-4.93-14.247-.643-19.603-.536-14.14 0-28.495-2.25-42.313.107-1.286.215-2.893-1.286-3.214-.964l1.392 4.18h-4.177V21.865h-1.393v26.582l-11.141-2.787-1.392 4.18c-.322-2.465 1.5-4.18-2.036-4.073-2.999 0-6.427 1.286-9.748 1.072-28.708-1.072-66.308 1.93-94.053-2.144-1.286-.214-2.892 1.286-3.214.965l1.393-5.574c-6.321 3.216-14.248 3.323-20.246 6.967.642-3.215-7.927-2.358-9.856-1.607-2.892 1.178-2.571 2.465-4.07 4.394l-1.393-4.18c-5.463 2.68-9.427.857-13.926.75-11.033-.107-40.064-1.93-48.526.75-1.393.43-1.179 4.18-5.249 2.68l1.392-4.18c-1.392.75-4.713 0-5.356.429-.643.321.643 3-1.607 2.358l-2.142-4.18c-4.178 4.394-13.069.643-17.997 1.393-1.392.214-.214 2.787-1.499 2.787l-.643-2.787c-5.571 3.108-10.284-.858-14.676-.75-1.714 0-13.819 2.465-15.318 2.036-.75-.214-.643-2.68-1.5-2.68-2.357-.107-8.784 3.752-13.926 2.573-.857-4.395-3.214.214-8.463.107-2.356 0-9.641-1.822-10.284-1.286-2.999 2.572 4.928 2.465 2.786 5.573l-5.571-5.573-2.785.75-2.035 4.823-2.036-4.93c-13.925-2.787-27.102.536-41.135.643-2.356 0-4.82-2.036-7.177-2.036-8.034 0-28.173 3.43-35.029 1.929-2.357-.429-2.999-1.715-4.82-2.68v5.574h-4.178l-.643-3.966-3.535 1.18V9.431h-1.393v36.335h-6.962v4.18c-5.571.965-.536-3.323-1.393-4.18-1.607-1.608-3.749.965-2.785 2.787h-1.393c.429-5.145-8.998-.858-12.64-1.394l.642 4.18-7.605-5.573-3.535 5.574.75-4.18c-7.606-2.68-11.248.964-18.211 2.786l2.785-4.18c-6.213-1.5-5.249 2.25-8.998 5.252l-3.535-3.859 4.177-1.393c-5.57-2.25-6.748 3.966-7.712 4.18-3.321.75-1.822-3.43-4.285-4.073-1.714-.428-13.605 1.072-16.497 1.18-5.678.214-8.891-3.109-14.14 4.287l-2.143-2.787 2.785-1.394c-4.392-1.5-8.784-.107-12.961-.321-8.785-.429-12.748 1.179-18.533 1.179-2.035 0-6.855-5.68-9.748 1.93l-4.178-4.18-4.177 5.573-5.571-5.574-4.82 5.574.643-5.574c-3.964 1.072-7.392.643-6.321 5.574l-2.785-.75 1.393-3.43c-3.107 2.036-5.142-.965-6.535-1.072-1.821-.108-2.678 1.607-3.963 1.822-1.286.214-2.893-.965-3.964-.75-1.714.214 0 3.43-2.249 2.893.642-6.002-6.106 1.715-9.106-4.18-1.392 5.574-6.32 0-11.033.107-5.142 0-9.534 4.502-14.141 4.288l-2.035-3.001-5.463 2.786c-.214-6.323-10.177-3.322-14.89-3-5.25.32-5.57-3.216-9.641 4.394l-4.178-4.18-7.606 4.18-2.25-23.795-.75 18.221-8.248.215c1.607 5.466-7.82 5.037-12.104 5.144-8.463.322-19.282-1.5-27.638-.964-1.714 0-8.677.643-9.213 2.572H57.74l-.321 45.446-1.714 1.929-3.535-.536c-.536 3.001 5.463 4.073 5.463 5.574 0 1.071-6.535 8.36-6.856 15.434-.107 3.001 2.357 10.611 2.357 11.147-.107 1.608-3.428 2.465-3.642 5.466 0 .965 1.606 12.862 1.928 13.398 2.785 3.751 4.07-1.608 6.32-.75-.75 3.751-5.57 2.679-4.178 7.717l-4.178-5.574c0 2.68-.107 5.574.965 8.146.964 2.358 3.963.643 3.213 3.752l-2.785-.751c.643 8.897-1.285 18.543-1.5 27.225-.107 8.253.536 16.077.75 23.794.214 8.468-.214 16.721-.214 25.081 0 2.787 3.642 3.966-.536 8.575l2.893 1.393c-6.213 7.825 2.892 17.793-4.285 23.795 7.713 3.001-.215 16.72 3 21.329 2.999 4.288 4.391-1.393 6.748-2.465v9.754l-8.356-5.574c1.072 3.859.107 7.824.322 11.576 0 1.393 1.714 2.894 1.82 4.502.322 7.288-5.462 17.47.644 25.187l-2.893 1.394 2.893 5.573-2.678 1.287c3.642 4.716-.965 18.542 0 22.294.642 2.465 5.677 2.465 5.463 5.787l-5.57-.643v35.478l2.785.857c-3.75 3.752-1.714 6.431-1.286 11.04h4.606l2.25-2.679v4.18c-3.75-2.037-8.57 2.787-9.105 2.787H0v2.786h48.955c-1.393 8.146 1.821 16.721 2.25 24.759.214 4.288-2.464 10.719-.536 16.399l8.034 5.038c-1.071-4.287 1.286-9.11-2.785-11.897l2.892-2.68v-31.619c5.678 1.286 16.497-3.001 18.747 2.787l7.712-2.787-2.785 2.787 8.356 1.393-.643-4.287 5.57 2.894c1.179-4.609 8.785-4.287 9.749 0 3.213.75 1.392-2.358 2.999-2.787 8.248-2.143 9.105 2.68 9.641 2.787 4.285 1.072 2.678-4.287 7.713-2.787l-.643 2.787c3.428-2.251 10.927.858 12.533.75 5.571-.428 12.105-4.716 19.39-.643 1.392-5.895 10.498-.643 12.747-.643 1.179 0 3.75-3.323 6.32-2.251-1.178 2.251-.964 4.18 2.036 4.18l.75-4.18 7.712 2.894 1.5-2.894c3.535-.75 5.678 2.358 6.856 2.358s3.214-3.001 6.856-2.358c.857.215.75 2.573 1.821 2.787 5.785 1.393 9.427-2.894 12.319-2.787 1.821 0 3.107 2.144 4.178 2.251 1.499.107 3.428-2.358 5.57-2.358.536 0 4.499 8.039 8.463 0l1.392 2.572c5.785-1.929 7.071-3.858 13.926.322l1.5-3.001c3.428.75 7.713 3.001 11.248 3.001 2.678 0 1.821-2.894 2.892-3.001.536 0 9.641.321 10.605.429 1.821.214 12.427 6.002 12.212-.322h2.785l.643 2.68 9.856-2.466 2.785 3.966c3.856-1.179 11.248-5.573 12.64 0l6.32-2.787v47.59h1.393v-45.446s1.607-2.144 1.5-3.43c2.892 1.822 6.106-.536 8.784-.107.428 0 2.785 5.359 7.927 2.787l-2.785-2.787c3.963-1.608 4.07 2.572 5.141 2.787 7.606 1.715 12.427-2.144 19.068-1.929 8.034.214 4.392 1.607 5.785 1.929 4.606 1.286 2.464-6.11 8.355-.536 5.999-5.145 4.392-.214 5.571.214 3.321 1.179 10.605-.964 12.64-1.072 2.357-.107 3.642 2.466 7.499 1.93 3.321-.536 3.321-3.216 3.749-3.323 4.178-.857 3.107 2.358 4.178 2.572 20.353 4.181 57.418 3.323 78.306.322 1.821-.214 3.107-1.393 4.178-2.787l.75 4.18s8.356-3.429 10.284-3.751c3.749-.643 7.713 2.251 9.748 2.036 3.214-.321 3.642-3.858 8.57.322 2.142-6.217 6.534 2.036 12.533-2.894l1.393 2.894.857-2.465c6.748-1.179 7.284 3.751 13.818 2.465l-.749-4.18c2.785 7.503 11.033 1.715 17.461 4.18l-.643-2.787 4.82 2.787.643-2.787c4.071 2.358 9.641 3.43 14.247 4.073 19.925 2.68 39.85-1.072 59.775-2.787l3.642 2.894v-5.573l2.785 5.573c3.856-1.715 7.713-4.073 11.998-1.607l1.392-2.68h11.784l-2.785 2.894c11.462 1.715 23.245-2.465 34.922 0l-2.036-2.787 6.963 2.787c1.393-6.002 4.392.429 9.855.107 2.571-.107 1.822-2.679 2.679-2.787.535 0 9.105-.321 9.641-.214.642.214 2.463 5.038 7.927 2.787l.642 9.861 2.036-10.611c.642-.429 12.64 1.071 14.675.75 2.571-.429 4.071-3.108 7.071-2.787.642 0 .856 2.787 1.392 2.894h2.785l2.036-2.787c-.643 4.609 5.356 1.93 8.355 4.18l.75-4.18c4.285 2.144 8.784 2.787 13.605 2.465 5.034-.321 3.213-.643 9.426-.214 4.607.322 7.499-1.715 11.248 1.929v-4.18l4.928 4.18 2.142-4.18h2.036l1.607 2.894 9.426-1.608 1.5 2.894 2.142-4.18 6.214 2.894c3.213-7.395 6.534-.429 6.962-.321 8.999.964 22.496.536 30.852-1.072l1.285 2.787 4.178-4.181c1.178 5.36 3.642 1.394 6.963 1.715 7.927.536 19.068 2.037 26.566 1.93 5.035-.107 9.748-6.538 14.141-.858l2.678-2.787 8.248 3.002 1.5-3.002c5.142 3.323 11.462 1.93 17.461 2.787l.642-2.787c2.786 7.503 11.248-1.822 17.461 0l-4.177 1.394c1.392 4.287 6.748 0 10.498 2.787l.749-4.181 4.823 2.787.75-2.787 2.14 2.894 9.53-3.001c-.53 2.358 8.68 3.859 9.86 3.752 2.46 0 4.28-3.323 5.89-3.537 1.61-.215 2.89 2.036 3.96 2.143 1.08 0 2.68-2.679 5.58-2.358.74 0 .64 2.573 1.71 2.894 10.6 2.358 24.32-1.608 34.71-1.608 5.57 0 4.39-2.358 9.74 3.002l2.79-4.181c2.57 3.538 6.53 2.894 10.5 2.787-.22 2.144-.32 4.395-.43 6.538.86.858 1.39 2.144 1.61 3.752 1.71 12.754 3.42 25.616 4.92 38.371.86-2.358-.64-5.466-.42-8.896.32-5.788 1.17-11.576 1.39-17.364-3.64 0-4.82.858-4.18-3.537l4.18.643-2.79-6.323 2.79-1.394c-3.86-3.537-.32-8.467 0-13.29h.75l.64 1.286c1.71.214 2.36-.536 2.89-1.394h4.07l-1.39 1.394c5.04.643 9 0 12.53-1.394 6.32 0 12.64 0 18.97-.107h32.13c1.39 0 3.11-.107 4.29 0 .32 0 1.18.215 1.18.215.42 1.607 1.6 2.786 3.32 2.786.32 0 .64 0 .96-.107-.32 1.715-.75 3.43-.75 4.931 0 6.216 1.39 12.647.54 18.971l1.82.75c1.18-2.786 2.25-5.573 2.89-8.467 0 0 .21-1.286.43-2.465-4.07-1.823-4.61-6.539-2.79-10.183-.1-.214-.21-.428-.21-.643l7.71-7.074h2.68l2.78 4.287 3.43-1.5-1.39-2.68h3.53c4.29 9.111 9.11-1.822 16.5 0 .75.215 1.72 4.823 6.54 2.787-2.9-3.751 2.78-1.929 1.39-6.967l-35.67 1.394-1.82-1.18c.21-1.071.21-2.25 0-3.429 0-.429-.33-.858-.54-1.287l.32-1.071s-.53.321-.86.536v-35.8c.33-.107.65-.321.97-.428-.43-.429-.75-.965-.97-1.394v-4.073c.11-1.179.22-2.25.33-3.429v-.858c.42-1.715.64-3.43.32-5.252-.22-.964-.43-1.822-.75-2.572 0-4.716-.22-9.432-.32-14.148 0-1.072.1-2.037 0-3.001-.22-2.144-2.79-3.752-2.57-5.467.21-1.179 2.24-2.679 2.67-5.895.43-3.43-.64-9.218-2.89-11.897l4.18-.75c-7.29-5.467-3.43-16.828-4.18-25.188-1.28-15.328-4.28-30.548-8.46-45.339l4.82 1.394c1.18 9.86 6.32 18.971 9.1 27.974-.32-.75-.21-4.823.22-5.359l19.28-9.968c-.21 7.181-6.53 7.181-10.18 9.754-.96.75-7.82 9.968-9.42 5.573l4.28 15.542c-1.18.857-1.93 2.358-1.39 3.858 5.25 15.328 10.28 30.655 15.21 45.982v.321c3.11 9.754 6.21 19.401 9.21 29.154l.54 3.001h.32c.86 2.894 1.82 5.788 2.68 8.682.86 2.68 1.6 5.359 2.46 8.146l.22 1.286h.21c.96 3.001 1.82 6.11 2.68 9.111-1.18 1.286-1.72 3.322-.11 4.93.97 1.072 2.04 2.144 3 3.216.32.428.75.643 1.29.857.64 1.929 1.28 3.966 1.92 5.895 0 .322.22.536.43.858 0 1.715 1.18 3.429 3.32 3.322 11.57-.321 23.14-.643 34.71-1.072-.96.751-1.61 1.715-1.39 2.894l4.82 2.144-.64-2.787c3.1-.643 4.71 2.037 7.39 2.358 3.96.429 10.17-2.251 12.64-2.036 3.11.321 11.57 4.18 15.75 3.537 3.42-6.431 2.46-2.144 8.24-1.286 3.97.536 7.4-2.573 9.65-2.68.64 0 4.6 6.324 10.6 2.894l-1.39 2.787c8.25-1.286 2.57 5.466 2.78 9.003 0 .536 1.18.536 2.15 1.179.32-.536.53-1.179.85-1.715 1.61-3.322 4.5-4.287 7.18-3.858.54-2.037 1.07-4.181 1.18-5.788 8.78.75 17.57.857 26.46.214 3.42-.321 6.75-.643 10.07-1.179l.42.858s.33-.644.54-.965l2.25-.322v1.287c5.57.75 18.32-.644 23.89-1.287l1.39 2.787 6.21-1.5v18.864l.11.75a33 33 0 0 1 2.68-2.68v-16.291a10.1 10.1 0 0 1 3.75-2.144c.64 0 1.28-.107 1.82-.429 2.89-.428 5.89.322 8.14 2.144-.32 1.393-.43 3.215-.43 5.252 3.22-1.501 7.07-.643 9.43 2.036.54-3.001.64-6.216 1.07-9.003l4.29.75 1.71-2.894c5.14.536 10.28.751 15.43.751-.75.107-1.4.428-1.83 1.393l17.25-.214s.64-.643 1.39-1.501c2.15 0 4.29-.107 6.43-.214 2.68 0 5.36-.107 8.03-.215l-2.35 3.537c10.5-.107 20.99.215 31.49 0 7.71 0 12.96-.214 20.89 0 9.11.322 12.86-5.037 21.64-4.287l-2.04 2.787c4.61-.322 9.11-6.538 11.15 0 3.85-6.002 12.53-.536 16.71-.643 17.67-.429 37.38-1.822 56.02-2.144 9.64-.214 18.75-2.144 28.5 0 2.25-1.715 0-2.572-2.04-2.787zm-228.49-276.854c1.71-7.395 11.67-6.323 11.25-13.933l2.46 1.071c3.64-4.394 10.71-6.967 15-9.753.96-.643.75-1.394.75-2.465 7.6 6.109-5.89 4.072-2.9 9.646-10.71-1.286-7.49 5.359-8.99 7.181-.75.965-2.15 0-3.22.536-2.03.858-3.85 1.072-4.5 1.394-2.57 1.393-3.96 8.789-9.85 6.323m29.24-.107-4.07-1.393c.32 7.395-8.03 5.788-12.1 11.683-1.5 2.25 1.39 4.609-3 2.679l-.97 2.251-3.53-1.286-1.39 4.18v-7.396c.21-1.071 2.89-1.929 4.17-3.108 2.25-2.036 8.15-7.61 10.5-9.218 2.25-1.607 10.61-.321 10.5-5.466l2.79 2.037-2.9 4.823zm8.57-27.224.65-3.537c4.17.643 8.35-7.61 9.32-8.039.74-.322 2.89 1.608 3.85 1.072.86-.536.64-5.252 4.39-4.073.32.321-5.14 7.395-5.89 7.824-2.46 1.501-1.61-.75-6.64 3.859-1.07.964-3.96-3.109-2.89 5.037zm18.64 42.766c-8.57.428-6 2.572-7.93 5.037-.96 1.179-6.42 2.68-8.03 4.609-.64-8.789 9.75-7.931 12.86-15.113l3.85 1.286zm62.35-55.95-4.18-1.393c1.28 8.253-4.29 5.359-9.11 9.11-3.96-2.572-18.21 4.288-18.85 3.537-.11-.107-.75-4.501.96-4.18 4.29.429 7.4-3.215 10.93-4.18 3.64-.857-.21 3.108 2.68 4.073l3.32-7.717c5.78-4.18 8.36-7.717 15.53-4.823l-1.39 5.573zm30.1 11.254h-7.71l1.39-2.894c-2.89-.643-7.5.429-6.96-4.18l8.35-1.393-2.78-4.18 6.21 1.5 2.14-2.894zm.64-54.663c-.43 1.93-2.36 2.894-3.86 3.859-10.71 6.538-22.17 10.504-32.45 15.113-2.25.964-3.97 4.93-6.54 6.109l-6.1-2.68 2.78 4.18-18.42 8.897c-4.29 4.823-12.97 4.716-18 10.075-2.04 2.144 3.53 4.93-6.86 2.036l17.89-12.754-1.17-2.573c8.99 1.608 5.57-1.715 8.46-4.823.53-.643 10.5-9.325 11.14-9.754 1.18-.75 4.07.322 5.57-1.5 3.11-3.43-1.39-6.538 6.21-3.43l1.5-2.894.64 6.324 2.79.643c-.54-4.716 2.78-1.394 4.18-2.144 9-8.146 20.56-11.468 32.13-14.577zm-92.77 19.079c2.79-1.822 4.5-7.182 4.93-7.503 2.14-1.5 14.78-5.788 17.46-7.717 6.32-4.61 1.82-4.288 11.25-7.503 1.61-.536 5.14-7.932 10.07-.429-6.75 1.608-15.21 5.252-18.21 11.147 2.25 1.715 29.78-17.256 36.31-15.327.75 3.752-.85 2.465-2.78 3.43-2.47 1.179-9.75 3.001-10.82 3.858-3 2.573 1.28 7.396-7.18 3.966-.53 1.5-.86 3.109-2.25 4.18-8.35 6.753-24.74 13.613-34.49 19.615-17.14 10.397-34.6 24.223-52.49 33.119-.97.429-8.46 3.43-8.79 3.109 1.08-5.038 5.57-5.36 7.93-7.503 3.75-3.43 3.86-6.753 9.96-6.753l1.72-6.752 4.18 2.787c-.75-5.788 3.85-5.36 6.85-7.825 8.25-6.752 17.46-11.897 26.14-17.9zM250.131 52.84c-.643 2.465-4.392 1.5-6.963 3.537-4.82 3.859-28.387 71.062-32.244 82.424-4.713 13.719-10.391 28.403-13.283 42.659s-3.535 28.939-4.821 43.409h-4.177c0-57.022-29.887-108.255-46.063-161.632l-7.07-9.004zM136.903 424.766c2.678-25.939 1.178-52.734 1.285-79.101 0-3.323 1.5-6.324 1.5-9.647.214-29.368.75-59.272-8.463-87.461l5.356 2.358 36.1 106.54c6.428 12.433 30.53 12.004 36.208-1.179l35.779-105.361 5.356-2.358c-3.214 7.503-5.249 15.434-6.535 23.473-5.249 32.262-4.713 107.183-1.928 140.838.429 4.716 1.928 7.503 2.785 11.79H136.795zm120.405-170.1-8.57 5.145 4.285-13.934 2.678 1.287c.857-3.966.643-6.646 5.678-5.574zm65.024 20.044s-3.107 1.714-3 3.215c-3.642-1.608-.75-19.186 3.428-21.008-.643 5.359 1.178 12.862-.428 17.793m102.301 138.694c-6.32-1.072-3.963 4.931-5.57 6.967-.107.107-2.142-1.072-3.428 0-2.892 2.465-1.178 6.109-8.998 4.287 6.106-6.859 9.427-15.756 19.603-16.72zm59.453 3.43c-1.499 1.608-1.714 4.823-3.32 5.788-2.678 1.608-8.035.321-11.248.643l26.566-26.581c2.678-.215 1.5 3.858.857 5.144-2.678 6.217-8.248 9.647-12.962 14.899zm35.779-146.626c2.143 55.199.75 109.755 42.635 150.27 1.393 1.286 2.678 1.822 2.143 4.18-5.571-3.108-11.034.858-15.962 0-8.784-1.393-5.677-.857-14.033-.643-12.212.322-25.174-1.393-37.064.643-.857-2.036 1.392-4.073 1.392-4.93v-57.343s-2.463-2.572-2.785-2.144c1.286 8.682-5.249 8.361-9.748 13.184-3.963 4.287-5.57 12.219-13.926 12.004v8.361l-3.963-1.287c-.215 4.395-5.035 3.537-5.785 4.181-.428.428 1.071 2.786.643 4.073-.964 2.572-6.535 5.466-8.57 7.395-2.892 2.787-4.499 7.503-6.427 10.29-2.893 4.073-9.963 6.538-14.89 6.002-1.607-6.86 3.535-6.753 6.32-9.754 4.071-4.501 13.497-14.255 13.283-18.114l5.035-1.393-.857-4.18 9.748-2.787-2.785-2.787c7.713.858 10.391-9.217 15.318-14.684 1.821-1.929 6.856-7.395 8.356-4.93-1.393-5.681 4.285-3.644 6.963-7.717-15.104-2.251-41.028 7.503-51.419-7.181-5.677-7.932-8.034-27.546-8.57-37.514-2.035-33.013-4.499-111.256 14.783-137.623 8.141-11.254 16.604-10.183 29.352-9.968 6.427.107 15.64 5.145 19.175-3.108 1.928-4.609 1.821-46.303 1.071-53.485-1.071-9.753-5.785-12.54-14.89-14.47-12.426-2.786-38.564-3.322-51.205-1.178-91.268 15.112-88.911 170.742-80.556 239.232 4.071 33.441 13.069 71.919 44.563 89.604l-72.629.751V52.841h262.664l-24.424 14.041c-48.312 38.693-44.777 147.269-42.634 203.433zm37.707-23.044c-.749 2.786-3.106 8.574-4.606 10.718-4.713 6.431-12.105 11.147-17.782 16.506-1.071.965-11.676 14.577-13.926 12.004-1.714-11.147 1.393-8.789 7.606-14.04 7.82-6.431 17.782-14.041 24.209-19.829 1.607-1.501 0-6.431 4.392-5.252zm-197.748-16.935c1.286 10.396 9.856 1.179 16.069.214v5.574l-3.964-1.287c-2.892 6.324-11.783 6.753-11.462 15.22l-2.785-1.393c-.107 5.145-2.999 9.754-6.963 12.648 1.285-5.467-1.714-22.83 0-26.582 0-.107 1.714.322 2.785-1.072 4.714-6.002 10.391-12.326-1.392-12.969-1.929-2.679 16.068-18.328 18.853-20.9 1.607 1.179 1.178 4.287 2.143 6.002.857 1.608 3.535 0 2.785 3.108-5.892.107-5.356 4.823-7.927 7.503-4.499 4.93-9.106 5.573-8.142 13.934m212.21 193.25-6.106-1.5c1.286-4.502 2.357-4.716 6.963-4.18v-5.467c5.356-.536 8.034-1.393 8.356-7.181l4.177 2.787-2.785 1.393 4.178 4.18-6.749.322c.536 9.218-5.463 3.537-8.141 9.646zm2.357-54.663 1.392-6.967 2.571 1.179c0-3.751 4.392-4.501 5.356-5.68.322-.429 1.607-10.612 5.999-6.646 1.714 1.501-12.64 17.364-15.318 18.221zm13.604-38.264s-1.714-.75-2.142-.429c-2.25 1.715-3 6.645-7.285 5.145l8.785-12.112 5.141-1.822c.643 3.43-2.035 7.181-4.499 9.325zm59.025 94.214c-.75-2.68 1.071-2.68 2.356-3.966 8.463-8.253 15.64-13.827 20.675-25.403l6.32 29.369c-9.641-2.573-19.496.321-29.351 0m99.195-1.394c-9.427-.536-21.21 3.537-29.351-.75v-215.33c0-4.181-8.463-6.11-11.784-6.324-16.283-1.501-54.097-1.822-69.951 0-8.355.964-9.748 5.573-10.498 13.29-1.071 11.04-1.285 38.265.214 48.876 1.714 12.004 10.82 10.718 20.782 10.611-3.749 22.508 1.071 47.589-4.606 70.205-2.143 8.467-4.821 13.933-14.462 15.005-11.569 1.179-16.925-4.823-19.496-15.22-2.25-8.896-3.107-24.759-3.535-34.298-1.928-42.659-3.321-108.04 3.214-149.306 5.999-38.157 21.853-40.729 57.632-38.8 10.926.536 24.423 9.003 25.923-7.61 1.071-11.469 1.286-37.836 0-48.983-.321-2.786-1.392-5.895-2.999-8.253-1.393-2.036-4.071-1.5-4.071-3.644h62.881v370.531zm3.535-16.828c-8.034-5.037 7.82-14.576 10.498-12.54-1.928 6.86-11.248 4.716-10.498 12.54m74.664-37.728c-5.998-2.572-8.784 3.644-15.318 4.287-1.928 6.753-8.57 5.145-8.57 10.933l-6.856.214 3-6.645c7.07 1.072 7.927-4.502 9.748-5.788.643-.429 2.142 1.286 2.678 1.286.321-1.071-.214-2.894 0-4.18l4.178 1.394c-1.071-5.788 8.998-6.324 12.533-11.147l-1.5 9.753zm32.137 53.806-3.106 1.822h-5.999l-1.393-2.465c-5.999 4.287-12.747 1.715-19.496 2.894l2.142-11.79V67.418c-.535-4.502-.964-10.718-5.677-12.54.857-1.93 5.785-2.144 7.713-2.144h26.566l-.75 369.781zm7.07-177.388 4.178-23.151c4.285 1.5.75 6.86.75 10.504 0 4.93.321 11.04.536 15.97l-6.856 1.501 4.177-3.538zm13.926 155.094c-1.285.857-3.535.214-4.499.75-1.392.75-1.178 2.68-1.821 2.68-4.178 0-4.713-5.359-4.928-8.361l15.426-2.786c-1.714 1.715-2.785 6.752-4.178 7.717m111.3 24.223c-9.426.536-21.21-1.072-30.851-1.286-4.392 0-7.284 2.68-11.783-1.179l-.857 2.68-3.642-2.359c.214-3.215 1.392-6.216 1.606-9.539 1.286-33.87 1.714-75.349 0-109.112-.857-17.149-3.642-34.62-8.355-51.019l4.82 1.393c17.569 53.163 30.316 108.469 48.206 161.525.857 2.68 2.035 5.038 4.284 6.967-1.071 1.393-1.499 1.822-3.32 1.929zm-45.848-253.273s4.392-4.502 5.035-5.252c.535-.643-.536-2.358-.321-2.572.856-.965 10.926-2.787 10.926 1.179-3.642-.536-2.25 3.322-3.642 4.287-1.179.858-4.071.858-5.999 2.144-4.606 3.001-8.141 8.467-14.14 7.503 1.178-9.433 6.641-6.539 8.141-7.289m-2.571-23.366c1.714-1.715 1.607-4.823 2.892-6.109 1.072-1.072 5.892-2.573 6.856-3.108 2.357-1.501 4.607-7.396 9.856-6.003l1.392 5.574c-7.391-1.715-7.498 6.109-8.57 6.86-.964.643-4.927 0-7.177.535-1.928.536-2.678 3.216-5.249 2.466zm49.276 78.672-49.49-164.418c-1.286-5.145-5.249-6.645-9.534-8.682l61.488-.643-5.677 9.003c1.714 55.843-4.928 112.435 7.713 167.206l-4.607-2.466zM1423.98 89.176c-1.93 4.395-8.14 2.358-7.18 8.146l-8.25 1.608c1.61-5.788 9.97-9.754 15.32-9.754zm-54.1 119.295c2.57-3.002 6.96-4.716 8.57-6.003 2.36-1.822 12.54-11.79 14.68-9.86 1.28 1.179-5.79 10.825-7.07 11.79-2.57 1.822-6.54 1.607-9.54 3.001-1.71.75-7.39 7.503-8.57 6.109-.75-.857.97-4.073 1.83-5.145zm-13.6 49.84c1.71-2.251 14.35-14.577 17.03-16.721 7.93-6.645 10.28-7.717 17.89-15.327 1.18-1.179 3.86.643 5.46-5.574 2.04-1.179 6.54 7.182 6.97 8.361 2.57-.858 3.42-3.537 5.24-4.502 2.68-1.393 9-2.251 9.22-2.68.85-1.393-.75-4.608 4.28-5.359 2.47 9.861-9 9.968-14.89 14.47-15.1 11.469-29.67 24.116-45.74 35.37-.96.751-7.28 3.752-7.93 3.323 2.25-2.358 1.18-9.754 2.25-11.147zm-68.03-118.223c7.18-6.86 14.79-11.361 19.07-20.043l10.39-7.074c2.25 11.79-4.71 10.075-10.28 14.148-4.18 3.108-8.46 10.182-14.78 9.646l2.78 2.787c-5.89-.429-6.43 6.109-6.96 6.324-1.29.75-5.04-.643-7.07 2.036-1.39-5.252 3.75-4.93 6.85-7.824m25.29 82.638-15.32 9.11c-1.72-1.607 7.07-7.824 7.82-8.681.75-.858-1.18-4.609 6.1-3.859l-1.07 2.572zm-2.15-37.085c-1.18 1.715-.21 4.608-.75 5.573 0 .107-1.6-.857-2.67-.429-2.04.965-6.86 2.251-7.07 2.466-1.29 1.071 0 2.894-.22 3.322-1.07 1.179-11.46 7.396-13.82 9.218-3.43 2.68.54 5.681-4.07 4.93-2.03-6.216 5.46-5.68 2.79-11.147 7.71 1.93 8.78-8.145 12.64-11.897 3.43-3.323 11.03-2.787 11.57-10.075l7.92-6.002c-.42 3.108.75 7.61-.21 10.289-.96 2.68-5.04 1.93-6.21 3.644zm-54.2-1.715c3.11-3.001 6.32-6.967 10.18-9.861 6.64-5.038 15.31-8.575 20.88-15.756 3.54-4.716-1.6-5.038 8.57-3.323l-2.89 8.253h-6.85l1.39 2.894c-4.5-.214-8.04 4.716-11.25 8.039-5.78 5.895-12.1 12.755-17.57 19.829-1.82 2.358-6.85 3.966-4.71 8.575l-4.29-.644-1.28-14.791c1.07.536 7.39-2.679 7.93-3.215zm-9.32-129.691-9.11 6.966c-1.17 2.251-3.21.43-3.42-.75-1.4-5.895 8.78-6.538 12.53-6.217m-15.43 151.342c.86-2.68.97-5.895 1.5-8.682l6.97 32.155c-3 .321-3.86.428-5.25-2.358-.43-.965-5.68-18.329-5.79-19.293 0-.536 2.25-.536 2.68-1.715zm-54.41 62.594c.96 4.609-3.54 2.037-6.97 3.537-1.07.429-6.32 5.681-7.07 4.824.86-7.396 7.29-10.397 13.93-8.361zM1011.34 57.128c-1.18.322-.96 2.573-1.71 2.466-2.89-.215-4.18-3.537-5.68 1.607-4.176.215-6.854-3-6.211-7.074h22.391c-.75 2.68-6.32 2.251-8.79 2.894zm35.25 159.917c-5.15-.321-16.71 9.647-13.29 1.072 4.4 1.393 6.54-3.43 10.5-5.145 1.18-.536 3.32.643 4.29 0 2.14-1.607-.33-5.359 6.85-2.036l-8.46 6.216zm17.99-105.361c-2.57 1.608-4.5 3.966-8.14 5.896-4.39 2.358-12.75 1.5-12.53 9.432l-4.18-4.18-1.39 6.216-16.82 7.717c-3-3.001 14.03-10.396 15-11.575 7.17-8.789 9.75-5.896 14.24-10.183 1.61-1.5 1.4-3.966 2.79-5.466.32-.322 6.86-1.179 7.71-3.537l2.04 2.787c-1.29-4.931 4.28-6.11 8.35-6.967 1.61 9.539-3.1 7.181-7.28 9.86zm36.53-51.233c-.75 4.287.32 10.611 0 15.434-1.93 33.12 1.29 68.276-4.18 100.752l2.9 1.394-1.61 4.073 2.89 1.5c-4.6 5.145-4.93 12.326-1.28 18.114l-2.9 1.393 2.9 1.501c-2.79 4.609 2.25 9.218-2.9 12.54l2.58 1.394c-.65 4.287-4.93 12.433.21 14.041-5.57 8.682-1.07 22.508-.32 31.833.43 4.823-7.82 13.183.21 15.113l-2.89 2.251 2.89 16.72-2.89 1.501c1.29 10.825 1.07 22.294 1.18 33.334 0 3.751-3.43 6.966 1.82 8.467-3.96 4.823-1.71 7.396-1.93 12.326-.11 3.323-3.96 5.895.43 8.682l-2.79 1.393 2.58 1.286c-.22 3.966-2.9 11.791 1.39 12.648-3.32 5.573-1.07 9.111-1.29 13.827-.1 3.965-4.39 10.932 1.5 12.754-5.68 1.715-1.5 15.649-1.28 18.436-.22.107-.32.321-.43.536-8.25 1.5-16.61.857-24.75-1.501V59.058c-.53-3.216-4.5-3.752-5.57-6.324h39.1c-.43 3.858-5.03 4.394-5.57 7.61zm10.29 128.405c4.71-1.072 14.35-6.431 17.35-10.611.86-1.179.21-3.43.43-3.644.21-.322 4.6 2.358 6.96-1.394 2.04 2.466-5.68 9.004-7.5 10.612-1.93 1.714-4.6 2.358-6.43 4.18-.85.857-3.53 6.967-4.49 7.288-1.4.536-2.9-1.179-3.75-.965-.22 0 .21 2.251-2.79 3.216-1.18.321-8.14-.107-8.57-.643zm.96 202.683c-.64.964-2.57.964-2.79 1.929-.53 3.001 1.4 5.895.86 8.896l-5.03 11.04c.1-3.108.96-6.109-2.79-5.573 4.39-3.966.43-5.145.43-7.825 0-4.073 2.57-8.682 1.71-13.183 1.29-.215 6.97-2.68 7.29-3.109.86-.964 0-3.108 1.18-3.965 2.14-1.501 11.35-2.787 13.82-6.86 2.89 7.074-3.43 4.18-4.61 4.609-4.29 1.715-1.39 7.61-1.71 7.931-7.07-1.071-5.9 2.251-8.47 6.003zm71.88 1.5s-1.07.108-1.72 0l-8.78 9.325c4.71 1.394 6.11-3.001 8.04-4.073.53-.321 1.28-.428 2.14-.536-.22 7.182-.22 14.47 0 21.759 0 .75.21 1.393.64 1.822-.32.321-.64.75-.86 1.286-2.03-.75-4.6-.858-6.85-.858h-41.03c1.39-1.071 2.89-2.25 4.39-3.429-4.18-.322-8.89 0-11.14 3.429h-1.82l-.96-1.286s.1.965.1 1.286h-10.92l2.14-13.29c7.39-5.145 14.25-9.325 22.07-13.72 1.6-.857 1.17-5.466 5.99-2.358-.75-7.395 5.47-5.144 6.75-6.002 3-2.036 10.29-9.218 12.54-11.147 1.71-1.393 8.25-9.11 9.42-9.432l3.43 3.43-5.57 7.717 9.75 3.537-4.18 4.823 6.32-4.18s.43.322.64.536c-.32 3.644-.53 7.396-.75 11.04zm-10.39-65.381c-1.39.643-3.54-.75-3.97-.536-.85.536-6.42 9.003-9.96 9.539.11-1.929-.96-2.143-.43-4.073 0-.214 1.93-3.751 2.15-3.965 1.28-1.287 4.28-.644 5.78-1.715 1.29-.858.86-3.537 2.25-5.038 2.68-2.68 9.86-5.359 11.89-10.504l4.71 2.894c2.04 3.43-9.21 11.897-12.42 13.184zm9.1-41.694c1.4-.643-.21-3.001 2.04-2.465l-.64 6.966c-2.57 2.894-6.97 2.037-9.86 4.073-2.03 1.394-2.36 3.859-3.96 5.252-.65.536-2.68 0-3.32.751-.75.857.21 3.108-1.29 3.858-1.82.965-6.21.429-8.25 2.68-3.32-6.002 5.68-6.217 7.29-7.396 6.1-4.287 8.03-8.253 11.78-13.291.21-.214 5.04-.107 6.11-.643zm3.11-223.69c-.64-2.037-1.61-3.86-3.11-5.253-2.14-1.929-5.78-1.715-6.32-4.18h51.74c-1.6 7.503-2.35 13.827-1.5 21.544l4.29 1.5c0 1.501-2.68.215-3.86.965-2.14 1.394-.96 26.581-.32 31.083-5.68 1.929-.32 3.751.11 8.468.43 4.287-1.5 9.753-1.39 13.933.21 17.042 2.35 38.05 1.17 54.664-.21 2.143.11 4.072-2.67 4.716l-38.03-127.655zm23.89 180.495c-.54.75-3.43.643-4.39 1.501-1.4 1.286-1.72 3.001-3.11 4.287-.96.857-5.14 5.359-6.21 4.18 1.6-8.36 9.64-9.325 12.64-15.327 2.46-.536 1.6 4.823 1.18 5.359zm1.93-51.233s.75 2.036.42 2.572c-1.07 1.608-4.17-1.286-3.53 2.68l-2.79-.643c-1.6-2.894 13.29-14.041 13.93-13.291 1.07 6.216-6.64 7.074-8.03 8.682m6.96 143.303c3.21-2.894 7.5-5.895 9.1-8.36.97-1.501 0-4.716 1.83-6.002.96-.751 3.32.857 5.03-.429 1.61-1.179 2.79-4.716 4.71-6.538 2.9-2.68 8.04-1.608 7.07-7.61l4.18 1.393c.43-2.251 2.57-8.146 4.18-9.218 1.39-.857 3.53.858 3.96.536 11.47-6.645 28.28-28.939 41.67-37.942 1.72-1.179 1.4-5.145 6.11-3.752l-1.18 2.68 2.57 1.5c-2.14.965-6.96 2.251-8.35 3.645-6.54 6.002-14.89 15.005-21.96 21.972-2.57 2.572-2.15 8.36-6 5.145-3.64 12.755-20.03 18.971-30.64 27.331-5.03 3.966-11.35 11.04-14.46 14.256-2.04 2.143-4.29 3.537-6.96 4.073-.22-.965-.54-1.93-.75-2.894zm89.13 89.927-.22-.429h1.82c.97 0 1.93 0 2.79.107.21 0 .43 0 .53.107zm40.7-366.887c-1.39 2.358-1.39 4.18-1.6 6.752-2.15 23.902-.75 56.271-.97 81.138-.43 85.532-.75 171.814-1.07 256.702 0 6.753 5.36 15.113-1.61 20.794l-23.35.965v-1.287c-1.29-6.538-9.64-5.68-14.57-5.573-7.18.214-14.25.429-21.42.643-12.75.429-25.5.75-38.25 1.179v-.536c-.21-1.393-1.6-2.358-2.89-2.465-.96-2.894-1.93-5.788-2.78-8.682.32 0 .53.107.85.322v-4.073c6.65 2.679 3 .536 4.82-2.251.75-1.072 3.75-2.251 3.75-4.716l-7.92 3.644c-1.07.75-1.93 1.822-2.79 2.894-1.28-4.073-2.57-8.146-3.75-12.219.86-1.929.97-3.751-1.5-5.466h-.1c-1.08-3.537-2.15-7.074-3.22-10.719.64-.535 1.07-.964 1.18-1.179.96-1.179 3.75-5.144 2.79-6.323-2.15-2.573-3.11 2.465-3.75 2.894-.43.321-.97.428-1.5.428-2.04-7.181-4.18-14.362-6.11-21.651-.54-2.143-1.18-4.287-1.71-6.538 21.1-15.22 43.49-29.046 66.09-43.087 5.57-3.43 15.21-12.862 21.75-12.648 1.39 0 3.42 1.286 5.67 2.037v26.795c-.75 1.179-3.32 1.072-3.53 1.287-1.07 1.286 4.82 4.93 1.5 9.11-9.21 1.715-17.36 6.538-25.6 10.611-1.5.75-.65 3.752-3.86 1.286v4.181c-8.03-3.859-7.93 6.859-12.96 8.789-1.93.75-4.93-.644-5.14-.322-.33.429.53 2.787-.32 3.859-.54.643-2.68.214-3.33.857-2.46 2.358-4.71 7.717-7.49 5.038.75 6.966-8.47 3.537-9.75 12.54 6.1 1.179 8.57-5.788 10.82-7.074 10.6-6.645 28.6-15.434 40.27-21.115 5.79-2.894 6.33-5.895 15-9.539 1.18-.536.75-3.43 3.11-2.787l1.5.965v6.538c-3.54 3.43-9.32 7.502-11.04 8.789-5.35 3.965-15.53 6.002-14.78 14.577l7.93-6.646c4.39-3.644 11.03-3.322 13.92-8.682 1.61-.643 3-.428 4.08.429v7.503c-1.4.107-3-1.179-3.43-.858-.54.429-.43 3.859-1.93 5.252-3.43 3.002-13.28 9.111-17.78 12.326-5.68 4.073-2.57.965-5.36 2.144-.43.214-6.11 6.753-5.78 8.253 1.92 1.822 10.82-7.503 12.85-8.789 1.5-.964 4.5-.321 6.21-1.393 1.5-.858 5.25-7.074 8.36-7.717 4.5-1.072 7.71 1.5 4.61 6.216-2.15 3.323-4.5 1.93-5.36 2.465-3.11 2.037-4.39 5.681-5.36 6.646-.75.75-10.39 5.573-13.07 7.395-.75.429-2.46-.428-2.57-.321-1.82 1.5-1.39 5.895 1.93 5.359 4.5-7.824 14.89-9.968 21.96-14.148 1.39-.858 2.79-2.894 4.61-4.287v12.326l-2.14-.858c1.82 6.002-4.61 6.431-5.57 11.897l7.71-.428v12.326s0 .75.21 1.072c-1.6.321-3.64.857-3.75 3.108h6.97l1.5 4.18v-5.252c1.17-.429 2.14-1.501 2.14-3.108V285.106c0-1.607-.97-2.679-2.14-3.108V59.058c0-1.93-6.65-4.073-6.97-6.324h41.89c-.75 2.465-3.64 2.036-5.47 5.038zm71.13 351.452 5.57-2.787v14.041c-7.28-1.071-15 0-22.39 1.287a2024 2024 0 0 1-10.71 1.929c-4.39-.536-8.46-1.179-10.71-.536-.75.214-.86 1.179-.97 1.929-.64 0-1.17 0-1.82.107-6.32-3.537-15.96-.321-23.24-.643-.32-.428.96-5.466 1.39-6.109 1.5-2.251 5.25.857 4.18-3.751l-6.96 1.393 2.78-10.504c-3.86-.75-4.07-6.431-3.43-9.754.54-2.894 4.5-2.679-.43-4.073 1.93-3.751-1.92-6.002 2.68-7.181l-2.89-6.967 2.78-4.823-2.78 2.036c.75-5.359 1.82-14.148 8.03-13.826l3.11-4.395-9.75 3.43c-1.18-1.286.97-14.362.75-17.471-.1-3.644-2.78-20.257-1.82-21.436.64-.75 3.54.75 2.36-3.108h-2.79l2.79-4.931-2.79.75 1.4-8.36 2.67 1.394c0-6.86 6-6.217 9.32-9.647 1.72-1.715.65-3.644.97-3.966 1.18-1.393 5.35-1.822 5.25-5.787l4.07 1.286 1.39-4.931-2.79-1.5c-3.1.75-6.1 5.895-7.82 6.216-2.03.322-7.6-5.788-11.03 2.894-.96-1.393-1.71-5.68-1.39-7.181.85-4.18 14.78-11.361 18.42-14.255 1.5-1.179 4.5-5.574 6.64-7.396 6.75-6.109 19.29-12.433 25.07-19.507 3.54-4.287 4.93-1.929 6.96-3.43 3.32-2.358 5.36-8.896 12.22-6.324 4.6 11.362-8.25 15.756-16.82 18.972-.97 5.144 3.75 1.714 6.32 2.036s5.89 2.036 8.89 2.251c.43 10.289 4.18 21.008 0 30.869-1.18 2.786-19.28 11.147-22.18 15.755 3.11 3.859 2.25.751 3.65-.321 5.67-4.287 12.64-6.431 17.24-9.432 1.61-1.072.65-3.859 2.79-3.43 1.82 6.538.21 11.576-.54 18.007-.53 4.18 2.9 6.859-3.64 9.325l4.18.643-.32 16.077c-7.82 7.503-17.57 14.791-27.1 19.4-8.68 7.61-18.22 17.364-29.46 23.688l-3.22 6.538c8.36.857 7.07-3.43 9.32-5.681 5.14-5.252 17.79-11.361 24.43-15.434 6.32-3.966 9.53-8.897 16.6-12.862.86-.536 2.68.536 2.68.428.75-1.286-.86-8.789 4.93-6.966 4.71 1.5-1.18 12.111.75 15.327l-4.18.75c6.64 3.644 3.43 8.467 6.96 12.648l-2.89 1.393c3.53 5.895 1.5 12.755 1.61 19.293 0 2.143 1.5 4.609 1.5 7.288 0 2.251-6.75 5.252-5.68 9.004zm90.09 21.008-2.68-2.144c1.4 0 2.79 0 4.29-.107-.54.643-1.07 1.394-1.61 2.251"/><path d="m1478.5 228.299 16.18 20.151c6.11.428 6.75-8.682 7.82-9.432.96-.643 3.21 0 4.28-.536 2.47-1.394 2.04-5.038 6.54-3.966-4.07-5.681-8.25 2.251-9.11 2.572-.53.215-7.17-.75-7.49-1.286-2.04-7.395 2.67-3.966 5.46-8.253-11.79-.75.11-6.86-4.93-11.147-3.96 3.751-7.82 1.286-6.32 8.36-4.61-.214-9.32-.321-12.53 3.537zm40.39 148.02c-7.07 4.823-22.39 14.255-27.53 19.4-2.36 2.358-.86 6.967-8.68 7.396.75 1.5 7.82 2.036 8.14 1.822.32-.107.97-2.573 2.47-3.645 13.82-9.968 25.49-17.899 38.88-28.296 1.93-1.5 5.14-.321 4.93-2.679l-12.53 1.393 1.39 2.787c-7.61-2.465-4.5.214-7.07 1.929zm13.6-135.801c-7.07 3.001-8.67 1.715-15.74 6.431-5.04 3.323-10.39 6.646-15.96 9.325l6.96 7.717c-.54-3.108 2.46-2.358 3.64-3.322 4.82-3.859 6.96-9.754 13.93-10.612l17.46-14.04c-5.14-1.608-6.97 3.215-10.18 4.608zm-10.07 28.725c-1.07.429-5.67-.536-7.6.322.75 8.36 6.1 12.54 12.64 5.895v-10.182c-4.07-1.179-2.46 2.786-5.14 3.858zm21.75-87.782c-2.36-.644-.64 2.572-2.25 2.893-2.46.536-5.03-1.179-7.5-.643-1.28.322-16.39 8.146-13.92 10.29l25.17-8.36-1.39-4.18zm-264.16 134.3c9.64-.536 13.82-9.861 19.92-14.899.43-.321 5.57-.643 6.64-4.073-4.28-5.681-6.21 5.145-13.28 4.823l-.64 5.681-2.04-2.787c-3.11 1.822-4.6 6.538-6.96 8.468-1.72 1.5-6.21-.858-4.93 5.466l1.39-2.787zm117.94 24.973c-7.5 3.966-12.32 6.967-18.11 11.79-5.46 4.609-10.28 9.861-15.85 14.256 3.54 4.823 5.89-3.537 7.93-4.931 6.96-4.716 15.32-8.896 22.39-12.969 2.35-1.393 6-8.896 10.07-9.325l-2.79-2.143c-1.18 1.179-2.25 2.572-3.75 3.322zm-13.82 48.34c2.14-1.93 5.14-2.144 1.5-4.824-1.18 3.323-8.36 4.288-8.78 4.609-.54.429-8.04 9.861-7.29 10.719 4.07-5.038 10.28-6.753 14.57-10.504"/></g><defs><clipPath id="a"><path fill="#fff" d="M0 0h1689v479H0z"/></clipPath></defs></svg>