<svg xmlns="http://www.w3.org/2000/svg" width="1947" height="861" fill="none"><g fill="#fff" clip-path="url(#a)"><path d="M659.732 30.22H478.207L355.742 453.71 226.561 30.221H0l40.295 45.628v440.277L0 561.556h157.822l-65.973-59.059V185.869l195.154 625.355 183.698-622.393v327.295l-40.295 45.43h229.326l-40.295-45.43V75.849zm231.499 0H662.102L702.2 75.85v440.277l-40.098 45.43h229.129l-40.097-45.43V75.849zm420.729 0 65.97 59.258v368.379L1119.37 30.221H914.144l40.295 45.628v440.277l-40.295 45.43h158.016l-66.17-59.059V223.003L1425.14 861l4.54-267.445V75.849l40.1-45.628zm590.4 495.782L1648.74 0h-4.55L1452 408.476h233.28l52.34 113.773-41.08 45.628H1947l-44.84-41.677zm-380.43-160.783 72.88-157.228 71.31 157.228z"/></g><defs><clipPath id="a"><path fill="#fff" d="M0 0h1947v861H0z"/></clipPath></defs></svg>