<svg xmlns="http://www.w3.org/2000/svg" width="1555" height="758" fill="none"><g fill="#fff" clip-path="url(#a)"><path d="M984.387 208.858c-9.867-1.044-33.588-8.161-41.273-14.423-19.45-15.658-24.005-36.534-13.663-59.403 5.883-12.811 38.901-32.358 51.9-40.614 4.175-2.657 16.225-10.723 19.929-11.862.66-.19 1.7-.19 1.42.475-12.999 17.27-7.117 44.125 5.98 59.687 10.43 12.336 34.91 23.344 50.57 27.045 7.78 1.897 18.4 2.087 25.33 4.365.86.284.76 1.897 1.42 1.897 1.71.19 4.27-1.613 6.36-1.043-8.06 39.759-17.36 80.184-19.92 120.798-1.52 23.343-3.7 65.57 2.37 87.3 7.97 28.753 36.91 11.388 51.33-1.897-1.99-12.621-5.31-26.096-6.74-38.716-4.65-43.651.38-137.974 35.77-168.909 13.38-11.672 61.2-19.737 79.7-23.723 9.59-2.088 21.45-8.445 31.69-5.219 2.66.854 4.65 4.365 7.02 5.978 1.62 1.139 7.02 1.424 4.94 4.081-2.47 3.131-30.65 10.912-35.2 10.438-9.78-1.139-9.68-10.059-20.02 1.044-37.1 39.665-37.01 127.725-30.18 178.397 3.14 23.249 7.22 59.688 39.19 56.366 28.94-3.036 22.3-42.891 23.34-63.198.67-12.146 1.14-24.577 2.09-36.723 1.14-16.037 3.13-32.169 5.12-48.111 11.86-3.226 25.43-9.489 35.01-17.175 7.31-5.884 21.07-19.169 25.72-27.045 4.27-7.401 3.6-16.321 14.8-15.562-1.43 4.65-3.42 9.015-4.65 13.665-5.79 20.591-6.36 44.789-7.31 66.329-3.79 86.352-1.14 173.179-1.9 259.721l-2.56 32.263c-13.19 9.015-26.56 17.745-39.66 27.044-43.36 31.03-86.34 65.856-136.34 86.542-32.07 13.285-71.54 8.825-105.6 5.789-57.691-5.125-123.158-16.037-178.758-32.074-22.013-6.358-43.456-16.227-65.658-22.869-100.384-29.891-210.255-32.358-311.493-5.599l-86.152 44.6c-1.518-1.614 7.021-7.212 8.255-8.161 30.931-22.964 71.16-46.972 104.274-67.848 112.623-70.885 211.394-112.353 348.686-107.039 121.542 4.65 236.256 50.863 353.616 76.104 16.04 3.416 32.36 6.453 48.77 6.453l-7.02-165.113c-11.38 3.037-21.35 9.584-32.35 13.949-34.35 13.57-61.11 18.314-87.1-12.431-2.28-2.657-3.23-7.022-6.55-9.299-19.45 5.409-36.24 17.08-55.41 23.059-11.95 3.7-41.08 10.438-52.75 8.445-12.24-2.088-13.86-23.533-16.7-33.592-21.256 8.73-43.173 16.796-65.47 22.585-11.765 3.036-26.472 6.452-38.522 6.262-4.459 0-18.501-1.992-22.676-3.226-6.926-2.182-10.152-14.803-10.627-21.161-1.897-22.869.285-53.709 8.255-75.344 12.524-34.162 69.832-65.002 101.143-80.849 11.86-5.978 23.815-11.482 36.147-16.321l1.62-16.037c-9.4-.664-20.12.949-29.323 0zm25.333 34.826c-42.981 20.307-79.415 63.293-71.54 113.776 1.898 12.241 8.824 34.161 24.1 33.402 11.196-.57 33.778-11.577 38.24-22.585 4.74-11.577 2.46-39.665 3.22-53.424z"/><path d="M578.013 0c2.467 2.277-13.188 11.577-13.947 12.43-2.088 2.563-.759 28.089-.949 33.878-2.657 66.045-5.883 131.805-7.021 197.85-.949 58.454 1.423 119.09-.949 177.164-.475 12.716-3.985 27.709-4.08 39.665 0 5.694 1.898 14.044 2.087 19.927.19 7.212-.759 14.234-1.043 21.446l5.977-.474c-.095.949-9.108 3.7-6.926 5.503.664.57 12.05-6.073 14.896-3.511-3.226 1.613-6.641 4.65-9.583 6.358-24.859 13.949-48.104 33.212-72.773 47.921-13.568 8.066-29.888 19.168-46.017 18.883 5.028-15.657 13.473-30.27 16.604-46.497 10.531-53.519 9.488-120.703 11.29-175.741 1.613-47.351 2.562-94.892 3.985-142.243.475-16.511.76-32.833 1.898-49.249-1.423 0-1.992 2.846-2.467 3.985-24.099 59.308-46.681 131.901-58.921 194.719-1.233 6.073-3.036 28.373-6.357 31.505-3.795 3.605-24.384 8.16-30.456 9.394-14.233 2.847-27.421 8.161-41.938 11.767l-10.721 1.328c-1.234-7.212-1.803-15.752-4.175-22.679-3.7-11.198-13.188-27.329-18.407-39.286-14.991-34.446-28.749-69.651-44.404-103.812-.664-1.518-1.613-4.745-3.131-5.314 1.044 10.438.664 20.876.949 31.315.949 31.883 1.423 63.672 0 95.556-1.234 29.796-4.555 59.782-4.934 89.484-.19 14.898.569 29.986 0 44.884s-2.277 30.745-2.941 45.643c-.759 16.796-.665 36.154-11.576 50.198-2.372 3.037-5.882 4.84-7.78 7.117-52.469 62.439-125.717 102.199-198.206 138.068C23.151 748.606.854 759.234-.19 758.285c.57-2.942 4.27-5.979 6.452-7.971 30.551-26.285 68.694-39.191 102.661-58.549 10.627-6.073 14.896-11.197 19.261-22.584 9.108-24.103 12.998-60.542 15.94-86.542 3.89-35.3 8.634-75.155 9.962-110.36 1.234-31.125-.569-63.293 0-94.607.949-65.097 2.562-130.667 3.036-195.858.19-22.869.285-45.549-3.036-68.228-15.181 4.46-30.646 12.241-46.776 11.482 5.503-5.219 14.137-6.073 20.874-9.015 31.121-13.379 56.169-34.066 85.582-49.723 12.429-6.643 25.808-13.38 39.85-15.373 21.728 66.425 39.85 134.463 67.176 198.895 7.495 17.744 17.173 33.876 25.522 51.052 3.511 7.211 9.394 35.11 21.728 21.066 5.408-6.263 17.363-36.629 21.348-46.213 27.705-65.476 48.389-132.375 67.745-200.792 3.511-5.314 8.919-9.11 14.042-12.81 17.079-12.431 38.996-26.38 57.119-37.388C544.141 15.183 560.46 6.642 577.918.285zm274.395 133.419c6.927 8.16 17.553 13.285 25.618 20.686 17.079 15.752 30.267 43.651 28.18 67.089-1.423 15.942-4.554 22.11-15.75 32.928s-39.186 34.161-52.944 37.577c-2.562.664-5.313.569-7.78 1.708-1.613-1.613 6.072-5.409 7.021-6.453 2.467-2.941 5.124-10.628 6.073-12.336.189-.379 2.561-.854 3.985-3.416 2.372-3.985 8.064-19.927 8.539-24.387.284-3.131-.475-5.314-1.234-8.161-5.313-18.409-33.967-37.482-47.725-51.716-3.226-3.416-5.408-8.256-9.488-10.913l-5.028 220.815h2.846c-.379 8.16 9.678 11.292 16.035 8.92l1.898 8.825c-7.306 5.124-13.379 3.226-21.159 4.27-55.505 6.927-106.361 32.073-156.458 54.373-4.46 1.993-27.421 14.708-30.172 13.095.284-3.226 1.328-3.701 3.985-5.504l-3.036-1.043c.853-9.205 2.466-18.694 3.036-27.804 3.131-55.607 3.985-111.498 5.977-167.105.285-8.066-.759-16.322.475-24.388 18.691-15.182 38.996-29.226 61.198-38.81.664 3.605-.854 7.022-1.044 10.438-2.467 59.497-.19 119.469-4.934 178.967 2.941 9.394 6.642 22.015 15.94 26.854 5.029 2.657 9.298 4.175 14.517 1.803 19.83-9.11 28.939-28.278 30.172-49.344 2.087-34.825.474-74.016.949-109.411.19-13.854-.949-27.993.759-41.752-8.065-8.636-19.735-11.672-27.231-20.497-.759-1.898-7.211-2.562-6.452-4.46 1.708-4.365 33.873-22.964 40.325-25.431l9.867 7.022c5.219 7.306 12.335 11.007 21.443 11.482 7.306-8.92 12.904-16.986 16.984-27.899 1.138-3.131 1.233-7.401 2.182-9.774 2.752-6.737 44.784-33.307 52.564-35.11 3.036-.664 6.547.095 9.773-1.233zm702.502 206.77c1.32 1.139-15.95 14.708-17.46 15.847-28.28 22.489-61.3 46.213-93.27 62.914-31.98 16.701-48.01 14.708-65.75-16.132-26.66-46.308-24.67-107.513-7.78-156.857 14.42-42.322 36.43-61.775 72.96-85.213 11.29-7.212 23.06-13.57 34.73-20.118l2.56.475c9.39 15.278 21.63 29.227 37.57 38.052 3.23 1.803 17.46 7.022 18.03 7.781 1.14 1.328 3.22 12.051 3.51 14.423 2.37 27.235-16.13 45.644-36.91 59.593-25.24 16.986-52.75 29.701-79.6 43.745-1.05 1.139-.95 2.562-.95 3.986.38 23.438 15.37 76.103 40.61 83.79 10.91 3.321 15.84-1.139 24.38-6.833 22.49-14.898 41.37-36.343 67.37-45.548zm-132.27-41.753c13.28-9.109 35.39-14.898 43.55-29.511 7.31-13.095 11.39-25.431 4.37-39.76-1.62-3.226-4.46-5.694-6.08-8.92-6.54-13.19-10.05-40.614-7.3-54.848.28-1.328 2.28-1.518-.29-3.226-5.31-.854-16.51 28.183-18.4 33.307-8.16 22.11-13 44.125-14.9 67.658zm-796.902-100.49c-.474-11.293-6.831-20.402-10.721-30.556-2.372-6.358-3.321-13.095-6.737-19.073l.19-1.803c.854-2.277 21.253-15.752 24.954-17.935 4.08-2.467 23.151-14.044 26.471-13 2.467.759 6.547 16.606 7.875 20.022 4.08 10.249 10.058 19.643 10.627 30.935-4.649 5.599-49.623 34.067-52.659 31.505z"/></g><defs><clipPath id="a"><path fill="#fff" d="M0 0h1555v758H0z"/></clipPath></defs></svg>