<svg xmlns="http://www.w3.org/2000/svg" width="1346" height="474" fill="none"><g fill="#fff" clip-path="url(#a)"><path d="m650.874 462.21-181.921-3.493c-36.056-1.092-50.588-17.794-49.386-53.819l11.144-354.136C431.804 14.738 447.428-.982 483.376.11l181.921 3.493c36.057 1.092 51.135 17.795 50.042 53.82l-11.145 354.135c-1.092 36.025-17.263 51.745-53.32 50.544zm-58.236-279.138-34.855-.437-3.059 96.722 34.854.436zM899.555 456.97 869.399 237v219.97h-47.966V5.24h47.966v206.324L897.807 5.24h47.966v1.747l-34.964 217.022 37.914 231.214v1.747zm140.185-5.349-24.26-189.84v-54.802h16.17V55.675h-22.5V451.62h-46.769V10.698h82.059c24.8 0 34.63 9.825 34.63 34.606v164.514c0 20.741-5.79 27.728-19.66 30.02l-3.5.546 29.5 208.944v2.293zm61.08 0V10.698h46.76v440.923zm70.25 0V10.698h46.77v392.999h34.09v47.924zm94.08-9.825V.873h46.76v392.999H1346v47.924zM231.854 12.227 392.36 9.388v458.826l-156.245 2.839V331.756c0-18.012-1.42-45.74-1.42-45.74L210.33 422.474l-33.544 2.947L152.421 289.4s-1.53 27.401-1.53 45.413v139.296L0 469.306V10.371l152.093 1.856s39.99 190.713 40.536 207.525zm538.225 239.838v28.602h-20.65v-28.602h-28.408v-18.886h28.408v-28.601h20.65v28.601h28.408v18.886z"/></g><defs><clipPath id="a"><path fill="#fff" d="M0 0h1346v474H0z"/></clipPath></defs></svg>