<svg xmlns="http://www.w3.org/2000/svg" width="1305" height="763" fill="none"><g fill="#fff" clip-path="url(#a)"><path d="m488.686 612.861.828 17.747 1.302 16.8-.355 16.919 1.184 16.919-2.841 16.8 2.012 16.919-1.183 15.854-14.676 1.301-15.742-.828-15.741 1.657-15.741.591-15.623-2.958-15.741-.236-15.741.473-15.741 1.893-15.623-2.485-15.741 2.248-15.741-.591-15.741-1.42-15.741 2.485-15.742-3.195-15.622 1.775-15.742-.119-15.741-1.656-15.741.355-15.741 1.183-15.741 1.893-15.741-1.538-15.623-2.484-15.741 1.893-15.741 1.301-15.742-2.84-15.74.947-15.742-1.301-15.741 1.656h-15.86l.237-15.972-.71-15.854.355-15.736 1.184-15.854-2.249-15.854.828-15.735-1.893-15.854.592-15.854 1.893-15.736-3.077-15.854-.592-15.735 2.604-15.854-.947-15.854-2.012-15.736 4.143-15.854-1.42-15.854-1.54-15.735-.473-15.854-.355-15.736 2.012-15.854.947-15.854-1.894-15.735-2.603-15.854.947-15.736.236-15.854 1.065-15.854.355-15.854.592-15.735-1.183-15.854-2.604-15.736 2.13-15.854v-15.854l-2.722-15.735-.237-15.854.947-15.854-1.302-15.736 1.302-15.854-.947-15.854.592-15.854-.71-15.735.828-15.854 1.184-15.854-.473-15.854-.592-15.736 15.86.592 15.977-1.183 15.978.828 15.86-.71 15.977-.828 15.978 1.301 15.86-2.366 15.978.592 15.859-1.538 15.978-2.485 15.978 2.84 15.859-3.195 15.978.828 15.86-1.301 15.978.118 15.977-.473 15.978 2.603 15.978-1.538 15.86-2.958 15.977 2.011 15.978-2.011h15.978l15.86-.355 15.978 2.248 15.977-1.657 15.978-1.893 15.978 2.722 15.86-3.431 16.569.354-.355 17.156-.118 16.564-1.894 16.682-.71 16.564 1.302 16.682-.237 16.564 2.012 16.682-4.024 16.564 2.722 16.445 10.771 11.595 12.782 10.53 1.065-16.564-.118-16.209-1.776-16.209 1.066-16.209 1.657-16.09-.592-16.21.828-16.208-1.065-16.21-2.012-16.208 1.184-16.209 1.065-16.209-.592-15.735-15.504 1.656-15.978.118L467.382 0l-15.978.828-15.859 4.26-15.978-1.775-15.978 2.484-15.978-3.312-15.978.473-15.978 1.656-15.978 2.012L323.7 4.259l-15.978-.828-15.978 2.366-15.86.119-15.978 1.656-15.977-.473-15.978-.237-15.978 1.775-15.978-2.011-15.978 2.839-15.978.355-15.978-2.011-15.977 1.538-15.978 1.301-15.978-2.958L84.15 9.11l-15.978.947-15.86 2.01-16.095-3.075-15.978 1.42-15.86 1.301-.118 15.736L2.959 43.42l2.84 15.972-2.248 15.854-.119 15.972 1.42 15.854-.71 15.972-.355 15.854.592 15.973.829 15.972-1.894 15.854L4.97 202.67l-1.775 15.854 2.13 15.972L3.55 250.35l-.829 15.972 1.302 15.973-1.775 15.854 3.195 15.972-2.959 15.854 1.657 15.972-1.657 15.854v15.972l1.539 15.854-.71 15.972-1.42 15.854 1.775 15.973-1.657 15.853-1.184 15.973 1.894 15.972-.71 15.854-.592 15.972 1.184 15.854.355 15.972-1.184 15.973 1.42 15.853-.236 15.973-1.42 15.972-.474 15.854 1.302 15.972.474 15.854-2.368 15.972-.236 15.973 2.604 15.853-1.657 15.973L0 744.07v17.392l17.635-2.248 15.978 1.301 16.096-2.129 16.096-.473 15.978 2.248 16.096-.71 15.978 1.893 16.096-1.538 15.978 1.183 16.096.591 16.097.71 15.977-2.366 16.097-.947 15.977 3.786 16.097-.946 16.096-2.13 15.978-.473 16.096 2.13 16.096-1.893 15.978 1.419 16.096-1.893L354.708 763l15.978-.118 16.096-3.786 16.097 3.431 15.978-3.313 16.096 3.549 16.096-2.721 15.978 1.42 16.096.947 16.096.236 15.505-2.13.71-14.67v-15.263l-1.894-15.262 1.775-15.381-.71-15.262 2.131-15.381.355-15.262-3.196-15.263 1.894-15.38-2.249-15.263 1.775-15.617-13.374 9.347z"/><path d="m345.95 76.194-14.439-7.81-1.42-.827-20.949 15.262-20.357 16.445-21.541 15.026-17.161 20.35-20.712 17.274-2.13-11.832-2.841-29.696-19.647-22.243-28.523-8.992-26.275 4.733-25.209 9.11-21.541 15.854-15.86 21.414-2.485.829 10.889 15.617 4.852-.237 30.654-13.487 19.055 10.056 6.155 22.598 1.538 28.513-4.852 28.159-6.391 1.656-27.34 8.164-22.488 17.983-15.86 24.965-2.011 3.667 10.652 12.66 5.326-5.679 15.978-14.553 21.658-2.958 21.186 13.133 1.657 2.84h-6.865l-26.63 9.82-18.108 21.533-3.432 3.194 11.717 8.637 2.367-1.775 15.741-4.732 26.275 16.445-2.485 26.147 4.852 26.029-4.497 25.674-17.635 15.262-20.357 13.843-13.019 21.06-7.22 23.781.474 4.85 15.386 6.981v-5.206l20.238-18.93 21.422-11.713 5.09 25.319-4.734 26.029.473 26.029 2.722 26.029-2.485 26.028-2.722 27.686.946 28.04-8.048 26.739 1.065 4.377 14.676 7.809.237-6.626 16.806-16.682 16.215-16.8 18.818-13.843 20.831-10.293h3.195l1.066-10.885 2.012-2.839-10.179-18.931.473-21.532.947-24.728-1.183-24.727.592-24.728 1.065-23.781 23.079 9.939 18.226 20.941 2.486 6.507 4.734-5.087 33.731-18.575 22.961-12.66 21.422-15.262 19.647-17.392 20.475-16.091 17.753-19.166 15.505-20.942 13.492-22.361 8.522-24.609 10.533-24.254 5.09-26.029.71-26.502-6.983-26.029.355-26.739-11.362-24.136-9.232-24.372-11.125-24.136-17.398-20.231-22.133-14.671-21.895-14.553-24.263-10.293zm-118.709 334.47.591-26.147-1.302-25.674 1.894-25.674.592-25.674 2.367-25.674-4.497-25.674v-25.673l.946-25.674 2.249-25.319 17.28-16.564-1.657 27.803.71 27.686-1.775 27.685.591 27.685 4.38 27.685.355 27.686-.947 27.685-4.024 27.685.947 27.449-18.819-1.42zm94.091 42.238-24.972-21.415-30.417-13.842 1.657-23.308.591-22.361 2.367-21.77 20.712-15.735 24.973-11.358 25.801-8.992 26.63-6.507 26.038-8.401-3.55 24.846-3.551 24.609-8.64 23.308-9.468 22.716-9.824 23.426-16.688 19.048-21.54 15.854zm-54.916-186.461.592-24.373-1.302-23.781 1.894-23.781.591-23.78 2.249-22.953 11.362-15.499 27.222 5.442 23.907 11.477 19.529 17.392 17.516 19.166 10.534 22.716-22.488 9.11-24.026 8.637-22.724 11.713-20.238 15.972-24.381 12.423zm129.717 11.358-27.222 7.69-25.21 10.057-26.038 7.927-25.091 10.411-22.014 11.713-4.497-35.612 23.552-16.564 24.145-12.304 25.209-9.82 24.145-12.068 24.499-8.519 4.142 22.243z"/><path d="m675.449 475.618-23.552 15.972-8.404-17.865-2.13-21.06-2.13-25.437 1.183-25.437v-25.438l-.473-25.437 1.775-25.437 1.42-26.266 12.783-23.071 13.965-22.361 5.208-4.614-17.635-11.003-3.669 2.721-14.912 14.789-18.345 10.885-26.867-7.454-26.038-8.991-24.736-12.423-4.261-5.324-4.616 4.732-16.569 16.446-21.541 9.346-22.487 6.626-5.563 2.129-.591 6.153 8.995 24.136 9.468 23.544 10.06 23.544L510.7 368.9l-21.896 17.51-17.398 22.953-15.149 24.609-4.024 28.75 5.917 27.567 11.599 25.319 20.12 19.64 25.565 11.949 3.432 2.13L536.619 533l17.043-17.274 18.582-15.381 9.113 19.404 14.676 16.563 19.174 10.294 2.84 2.721 21.777-18.575 24.145-15.618 22.25-18.101zm-150.31-46.97 1.302-21.178 4.971-19.522 17.635 10.53 21.895 5.324-1.183 22.598v22.243l.473 22.479-25.328 21.415-14.676-17.037-4.142-23.426zm43.554-105.654.355 27.804-.355 27.685-23.552-12.659-22.133-17.511-14.675-24.254-10.534-26.147 23.789 8.992 23.553 9.82 23.671 6.389z"/><path d="m779.364 492.3-15.978-13.843-.236-27.448-1.776-27.567.119-27.685-.355-27.567 1.657-27.685v-27.331l23.079-27.33-20.831-17.984-20.712-17.155-20.712-18.338-19.173 18.22-17.99 18.575-17.161 17.629 22.014 24.135-1.302 25.319 3.077 25.438-1.302 25.437-1.065 25.437 1.657 25.437.71 25.438-16.57 29.578-5.326.828-.236 20.587h6.154l24.144 11.121 22.961 13.488 14.794 8.873 4.38 2.721 19.646-17.983 21.896-14.789 21.422-16.446-11.244-22.006zm-35.151-364.522-11.835 28.277-11.954 28.395-11.481 28.395 16.688 8.282 20.002-18.93 20.239-18.694 19.765-19.403 20.594-18.575-.119-18.102h-31.008z"/><path d="m1035.01 537.614-21.66-18.339-7.1-26.383v-27.804l-1.3-27.803-1.78-27.804 2.25-27.804-1.77-27.803 1.42-27.804 21.54-25.2 5.2-1.183.71-19.877h-6.62l-23.91-5.797-21.896-10.885-21.186-11.831-21.067-12.897-3.551-3.667-4.971 2.011-18.818 15.381-20.239 13.606-21.658 11.476-23.435 6.981-23.079 8.281-3.669-.473-2.367 26.621 1.184 26.975.236 26.975-2.13 26.976 1.539 26.975 1.538 26.975-.355 26.976v26.147l21.304 17.865 22.842 14.908-18.936 13.369-17.398 17.392-19.174 15.144-18.937 14.079 13.966 18.339 4.853-5.561 19.055-3.076 23.197 3.904 22.133 9.465 19.528 13.961 19.529 13.961 5.089 3.431 19.055-19.048 21.896-15.144 21.067-16.327 20.238-17.274 21.067-16.327 23.32-14.198-1.66-17.865-4.97.355zm-99.063-65.782-19.41 17.747-28.168-22.243.355-24.018-1.539-24.727-1.775-24.727 2.249-24.728-1.776-24.727 1.421-24.728v-24.727l4.97-3.431 19.529 14.671 22.724 9.701-.592 26.029-1.775 25.911.237 25.91 2.959 25.911.355 25.792.236 26.621zm.119 31.234.828 30.17 12.072 26.502 21.304 17.392-15.859 16.682-22.724-16.208-22.606-16.446-28.169-6.507 19.647-16.209 17.635-16.445 17.872-19.049z"/><path d="m1172.89 494.43-20.12-11.358-20.83-10.057-1.77-.71-.83-23.899 1.3-23.781 21.9-17.747 21.18-18.693 21.9-17.747 21.54-18.221 23.08-17.746-17.4-20.587-15.86-20.586-16.33-20.232-15.98-20.468-16.57-20.35-6.04 4.378-20.47 15.026-22.61 11.594-22.6 11.477-22.02 12.659-23.91 8.519-3.43 2.366.83 20.468h4.38l18.34 22.243-.71 28.513-.59 28.514 1.54 28.513-.95 28.513-17.28 32.655-3.55 1.42-1.06 17.51 4.73 1.775 24.38 7.453 23.56 9.584 23.43 9.82 22.25 12.304 3.55 1.893 22.13-14.907 21.31-16.091 21.66-15.617 21.77-15.617-15.03-17.511-18.82 13.015-19.88 11.476zm-49.47-194.27 15.74 20.231 14.68 21.06 15.38 20.823-18.81 17.392-20.01 15.499.48-28.395-.83-28.632-6.75-37.978z"/></g><defs><clipPath id="a"><path fill="#fff" d="M0 0h1240v763H0z"/></clipPath></defs></svg>