<svg xmlns="http://www.w3.org/2000/svg" width="2421" height="432" fill="none"><g fill="#fff" clip-path="url(#a)"><path d="M953.876 0c20.884 3.32 41.452 25.933 44.142 46.647-5.538 55.66 8.382 129.347-.791 182.794-4.589 26.407-28.163 42.852-53.161 46.489l54.11 152.591H679.848V0zm466.574 428.521V0h217.7c49.21 0 93.19 56.293 96.51 102.624 5.07 72.896-4.11 151.642 0 225.329.8 43.169-51.57 100.568-94.29 100.568zM2223.86 2.214c4.91 16.761 11.55 33.68 18.52 49.651 2.37 5.535 4.9 13.915 9.65 17.394l25.94-67.045h142.87l-62.97 215.209 62.97 213.312h-142.87l-25.94-67.045c-1.43-1.107-3.96 3.478-4.75 4.901-9.49 17.394-17.09 43.169-23.42 62.144H2081l62.97-215.209L2081 2.214z"/><path d="M1881.33 2.846c91.29-9.33 191.6 9.804 199.82 119.385 3.8 51.707 3.8 136.779 0 188.486-4.74 64.674-55.53 115.274-120.24 120.176-90.18 6.641-186.06-12.018-193.97-120.176-3.8-51.707-3.8-136.779 0-188.486 4.59-61.669 52.53-113.06 114.39-119.385m34.49 129.663c-10.92 2.214-23.42 12.967-25.31 24.51-4.12 25.616 13.76 39.69 27.53 58.348-11.71 19.924-30.86 32.733-27.69 58.507 4.43 35.895 67.24 36.053 71.04-2.846 2.53-25.3-28.01-47.596-27.22-55.344.48-4.27 20.41-26.407 23.74-34.63 12.65-29.886-11.55-54.87-42.09-48.545M660.388 430.735H285.735l90.183-428.68L562.136 4.27l98.41 426.466zm-217.862-289.37c-12.815 12.017-11.233 29.885-3.797 44.433 3.481 6.799 23.099 26.723 22.15 31.309-9.809 13.441-25.947 28.621-27.688 46.015-3.48 32.89 35.915 48.386 60.597 27.988 26.58-22.138-.475-54.87-17.088-74.003 10.601-19.766 32.118-34.472 27.372-59.772s-43.193-33.364-61.546-15.97m956.404 289.37h-374.65l90.03-428.68 186.21 2.214zM1196.89 132.51c-10.91 2.213-23.41 12.966-25.31 24.509-4.11 25.616 13.76 39.69 27.53 58.349-11.71 19.923-30.85 32.732-27.69 58.506 4.43 35.895 67.24 36.053 71.04-2.846 2.53-25.3-28-47.596-27.21-55.344.47-4.27 20.41-26.407 23.73-34.63 12.66-29.886-11.55-54.869-42.09-48.544M166.758 274.823v153.698H0V0h224.19c29.586 0 69.456 32.732 82.43 58.349 16.454 32.573 17.087 114.957 3.481 148.796s-53.635 67.836-90.183 67.836h-53.002z"/></g><defs><clipPath id="a"><path fill="#fff" d="M0 0h2421v432H0z"/></clipPath></defs></svg>