<svg xmlns="http://www.w3.org/2000/svg" width="896" height="676" fill="none"><g fill="#fff" clip-path="url(#a)"><path d="M160.295 243.229H82.183v380.397l23.893 3.544v5.907L0 676v-5.907l23.237-25.99V5.907H0V0h160.295c24.55 0 44.374 19.82 44.374 43.71v155.808c0 23.89-19.824 43.711-44.374 43.711m-14.572-29.797V29.797c0-11.945-9.321-23.89-25.206-23.89H82.183V237.19h38.334c15.885 0 25.206-11.945 25.206-23.89z"/><path d="M117.235 306.628c0-23.889 19.823-43.71 44.373-43.71h55.664c24.55 0 44.373 19.821 44.373 43.71v237.847c0 23.89-19.823 43.711-44.373 43.711h-55.664c-24.55 0-44.373-19.821-44.373-43.711zM204.8 582.279V292.715c0-11.945-9.977-23.89-25.206-23.89h-5.251v288.908c0 11.945 9.321 24.546 24.549 24.546zm129.05-1.313c-22.58 0-46.342-18.508-46.342-43.71V287.989c0-25.202 23.893-43.71 46.342-43.71h82.839v139.794l-54.35-132.575c-11.291 2.625-17.855 12.601-17.855 22.577v276.438c0 9.976 6.564 20.608 17.855 23.234l56.32-133.231v140.45zm193.51 63.925h-99.381v-5.907h23.237V153.183h-23.237v-5.907h80.214V460.73l74.962-225.377-21.924 225.377c19.167 5.907 33.871 23.234 34.527 43.054v135.2h23.237v5.907h-80.213V491.183c0-11.945-9.321-23.89-24.55-23.89h-5.908v171.691h19.167v5.907zm97.149-352.57c0-23.89 19.823-43.711 44.373-43.711h55.664c24.549 0 44.373 19.821 44.373 43.711v113.935h-87.565V555.37c0 12.601 9.321 25.202 25.206 25.202h5.908l55.007-135.2v141.107h-98.724c-24.55 0-44.374-19.82-44.374-43.71v-250.58zm87.434 108.029V277.751c0-11.289-9.321-23.89-25.207-23.89h-5.251V400.35zm149.005-192.431h33.083v5.907h-33.083V635.44c0 11.945 9.321 23.89 25.206 23.89h9.977v5.907h-47.786c-24.55 0-44.374-19.821-44.374-43.711V213.957h-9.977l66.954-140.45V208.05z"/></g><defs><clipPath id="a"><path fill="#fff" d="M0 0h896v676H0z"/></clipPath></defs></svg>