<svg xmlns="http://www.w3.org/2000/svg" width="1473" height="519" fill="none"><g fill="#fff" clip-path="url(#a)"><path d="M428.642 187.997s2.144.378 2.649 1.639c.505 1.639-1.009 4.287-.883 6.431 0 3.404 3.532 11.6 7.316 12.482 5.677-.63 12.237 1.135 17.535 1.135 27.247.126 56.26-3.782 83.256-.882 7.568.756 7.064 6.304 9.965 11.726l-1.892.882c3.91 1.135.883 6.809.883 10.34v40.222c0 6.052 3.91 9.961-.505 16.265-4.793 6.935-21.192.378-28.004 3.783-12.11-1.135-23.968-.126-36.078.882l2.776-3.278c-1.892-2.27-3.532 1.135-4.163-2.396-1.135 2.648-2.145 3.153-5.172 2.774l.883 2.774c-3.154 1.387-4.037-1.891-4.289-1.891-2.523 0-8.578 1.639-11.984 1.513-2.397 0-5.172-1.513-7.695-1.513-7.695 0-14.002 2.9-21.697 2.143-4.415-.504-2.649 2.648-3.153 4.666-.126.63-2.902 1.891-2.775 3.53l5.55-.883c0 2.396 1.514 7.692-1.135 9.205-1.893 1.009-4.668-1.387-5.425 3.026l6.56-.883 1.009 50.562c-11.605 3.53 0 7.313 0 8.069.378 2.774-2.144 9.835-1.892 12.987 1.892 28.748.757 59.262 1.514 88.136 0 4.539 0 22.696-1.01 26.478-1.009 3.783-3.153 8.196-7.568 8.448-6.434.378-15.012-.882-21.319-.63-4.92.126-9.965 2.395-16.146 1.639-1.767-.252-1.262-1.891-1.893-2.017-7.064-.379-19.174 3.908-27.121.882-4.667.504-16.273 1.009-20.435-.126-.757-.252-2.902-2.143-2.523-2.648l3.784-2.395c-1.514-3.027-4.415-.505-5.424-3.027l-1.262-5.295 1.892-.631-1.892-1.513c.379-4.791-2.144-8.826 0-13.365l2.775 1.891 1.64-3.278c-5.802-5.044-4.036-14.752-4.415-21.939l4.163 2.774-.505-3.783 3.785 1.387-.505-3.278-5.424.882c-3.28-1.008-.505-5.926-.505-7.943-.252-6.431-2.018-12.609 0-19.544l2.902-.63c-4.92-2.9-2.271-8.07-2.775-13.114 10.722 3.027 6.055-7.943-1.01-7.439 1.893-4.035-.126-7.439 0-10.717 0-2.144.631-9.457 1.01-11.096.252-.883 1.766-.252 1.892-1.135v-1.387c-8.704-3.908 1.387-14.248-2.775-21.183l1.766-.882-1.893-.504c1.766-5.927-2.775-15.131 2.776-19.166l-1.893-1.135c-.126-5.421-1.261-10.339-1.009-15.761.253-5.421 2.523-10.843 2.775-16.265l-2.775-.504v-4.54l2.902-1.008-2.776-.505c-.63-3.404.883-6.556 1.01-9.834.378-12.861.252-26.353 0-39.34 0-5.169-2.776-8.952 1.892-13.491h-2.775v-8.953c2.522.253 3.532 4.54 4.667 0l-4.667-3.782c1.892-2.522-1.262-13.87 3.784-12.609l1.892 1.891-1.009-1.891c4.541 1.009 3.532-1.639 5.676-4.665l-2.775.882v-2.774l-2.27 1.009-.883-1.891-3.28.882 2.018-5.421 5.551 1.765.756-4.287c-.378-3.026-7.568 1.261-8.325.504.252-2.143 1.135-6.935.883-8.826-3.154-20.804-1.009-39.718-.883-60.774 0-14.753-1.514-29.63-1.009-44.005.252-6.304.757-6.556 0-13.113s1.766-12.105 1.766-17.778c0-5.044-2.271-10.34-1.766-15.888.252-2.9 1.766-4.79 1.892-6.556.252-3.026-3.406-6.305-2.271-10.465 1.262-4.413 5.551-7.818 10.218-7.818 13.371.252 26.743-1.009 40.24-.883 10.597 0 21.193 1.261 31.789 1.01 2.523 0 4.92-1.262 7.443-1.01 2.27.127 9.208 4.918 10.091 6.81.631 1.26 1.64 12.104 1.64 14.247 0 3.783-2.018 8.7-1.892 13.113.126 17.274 1.135 34.17 1.009 51.444-.126 20.3.379 40.348 0 60.775 0 7.187.757 17.652-.126 24.208-.378 2.396-3.406 6.683-2.649 7.944zm-19.805-59.639c.379-2.27-2.144-2.901-3.784-3.783v1.891zm0 10.213c-.631-1.513-2.018-3.153-3.784-2.774.631 1.513 2.018 3.152 3.784 2.774m-68.371 18.661c-1.135-3.405-.378-6.305-.504-9.457 0-1.009 0-4.665-1.262-4.539 1.009 4.413-3.153 2.522-4.793 4.413-2.271 2.648-2.145 8.322 1.261 9.961zm46.422 34.674c-2.018 1.387-2.018 3.278 0 4.665l2.27-2.27-2.27-2.269zm-3.28 13.113c3.154.63 6.56-3.152 3.28-5.548-2.775.883-4.668 2.9-3.28 5.548m156.294 11.222s.379 3.782 1.388 3.656c3.658 0 1.009-6.178-1.388-3.656m-201.076 26.857c2.271 2.521 5.046-1.387 5.299-3.783-1.514-2.144-3.911-5.044-6.812-4.413l-1.514 4.161c2.523.756 2.018 3.026 3.027 4.161zm51.594 10.339c2.144 2.017 5.298 1.008 4.289-2.018-1.262-4.034-7.569-1.008-4.289 2.018m-57.396-.631s.757 2.774 1.387 2.774c2.649 0 0-4.161-1.387-2.774m117.189 15.131 2.27 3.404 5.929-2.143-3.658-4.792c2.649-3.026 1.388-8.069-2.901-6.43.252 2.9 1.64 9.078-1.64 9.961m-107.854-2.144-.505-5.548c-3.658.883-3.28 5.548.505 5.548m174.08 1.009h-2.775c0 3.404 2.775 3.404 2.775 0m-174.08 7.439-3.785-.882v1.891h3.785zm110.503 1.892h-2.775c0 3.404 2.775 3.404 2.775 0m-7.569 3.782s2.775-.756 2.775-1.387c0-2.648-4.162 0-2.775 1.387m7.569.883-11.984 2.9v5.548l4.163-.883-.505-4.665c2.019 0 4.163-.378 6.181-.883 1.514-.378 2.776.883 2.271-1.891zm-110.503 32.783c.504-1.766.756-4.035-.505-5.548-2.018 1.135-1.64 5.043.505 5.548m-7.443 2.774h-1.892c-.253 1.765 0 2.774 1.387 3.782zm62.19 12.23c-9.714 8.322-2.776 13.996 2.144 2.522zm-30.78 16.77-1.387 2.269 1.387 1.387 1.388-2.269zm-19.3 7.565 2.775-1.387v-1.765l-2.775-1.387v4.665zm-5.551-3.782-3.279.882c0 2.9-1.766 9.078 3.279 7.061zm1.893 52.326-.883-3.783h-.883l-.883 2.396c.883 1.009 1.387 1.639 2.775 1.387zm-1.009 9.457v-5.548h-.884v5.548zm59.919-1.892-.505-3.782c-1.388 1.008-1.64 2.017-1.388 3.782zm-5.551-.882-3.784.504-.883 3.278 2.775.505zm-2.775 14.752c-.378-.757 1.766-4.035-.631-4.539-1.009-.126-2.523 1.135-2.901 1.891-.631 1.387 4.163 9.457 6.181 7.439 2.018-2.017-2.523-4.539-2.649-4.791m-53.36 4.791c3.911.883 3.28-6.556 1.388-6.556-2.901 2.017-2.397 3.53-1.388 6.556m11.101 10.34c-.757-.505-2.27.504-2.775 1.387 0 6.43 5.172.378 2.775-1.387m-9.334 27.108v-2.773l-4.668 2.395 4.668.505zm33.68 15.005c.253-2.396-1.513-3.152-3.784-2.774l2.397 2.774zm-35.573-1.009c-3.279-.504-1.387 1.387-.883 3.783h1.892l-.883-3.783zm571.944-54.218c2.018.505 3.658-1.891 5.172-1.891 1.009 0 1.892 1.261 2.775 1.387 2.018.252 3.658-1.261 6.055 1.387v-9.33l-7.443 4.665-2.397-3.657-4.162 1.892v-4.666l3.279 1.892c3.659-3.909-.252-5.422-4.162-4.161 2.649-6.179.252-9.583 0-15.005-.505-9.204-.253-22.696 0-31.9 0-3.657 1.766-7.691 1.009-11.6l3.28 1.891 2.144-1.387-1.135-5.169h-3.28c.504-2.774-1.64-5.422-1.766-7.944-.252-8.196-.505-20.048 0-27.991.126-2.522 2.523-11.348 2.397-12.231 0-.883-1.893-1.891-1.514-2.27h1.766v-1.386c-6.938-4.666-1.766-14.122-1.892-21.057l3.784-.505c-2.144-5.421-6.938 2.9-3.784-7.06l3.658.504 2.018-3.783c0-2.522-4.036-2.143-5.676-2.395l3.784-4.161c-.631-1.387-3.28-1.135-3.658-1.513-1.892-2.144.504-28.244.631-33.035 0-2.9-2.649-8.322.756-10.718 1.893-1.387 5.929-1.009 7.822-2.396 5.045-3.782.756-13.491-5.551-12.608l1.009-8.7c-9.208-3.909-4.667-9.079-4.667-16.14 0-3.53-1.64-7.061-1.009-10.717 7.442 1.765 1.009-1.892.883-2.522-.883-3.657.126-13.87 0-18.535 0-4.161-2.902-7.187 1.766-10.213l-2.649-1.513s1.009-2.017.883-3.152c-1.262-12.231.252-24.209 0-36.44 0-4.287-1.388-11.348-1.009-14.878.252-2.27 2.144-3.783 2.018-6.683-.126-2.017-1.766-3.152-1.892-4.665-.253-4.917 2.649-13.365.883-19.291l2.775.882c-2.018-4.917-4.92-7.187-3.784-13.113 3.279 2.9 6.559 1.891 5.55-2.774h-4.667c.756-9.078-2.145-15.76 8.199-18.409 16.904-4.413 39.484-.756 57.018-.63 9.461 0 14.128-1.135 24.343.252 2.4.252 4.29-1.891 6.94 1.513 2.78 3.53 2.78 17.905 2.78 22.57 0 2.521-1.14 4.791-1.01 7.439 0 4.413 2.77 9.078 2.9 13.113.25 8.448-3.66 23.074-3.66 31.774 0 .379 1.51.252 1.89 1.64.63 2.017.89 4.16.76 6.178-2.02-2.396-5.55-.63-7.95.882-2.65-1.765.38-4.917-.38-7.817l-2.39-1.513-2.4 2.395c3.15 3.279-.252 3.91 0 6.431 0 .378 1.39 7.691 1.51 8.07.51 1.513 3.41 1.891 1.39 5.548 3.15.504 1.64-2.522 3.28-3.657l1.51 3.657h3.54c.88 1.008 2.39 23.074-.89 24.965 2.91.63 2.15 6.557 1.9 9.33-1.52 13.996.63 25.975 0 40.222 2.65 7.188-1.9 18.409 4.79 23.327 4.04 3.026 18.8 1.387 24.85 1.387 13.75 0 28.26 1.135 42.01 0l.88 1.891c10.85-.63 22.71-2.396 33.81-1.891 15.51.63 10.59 16.013 10.72 25.848 0 5.169 2.9 8.069-1.89 13.113l2.77-1.387c-.88 3.657 1.01 8.448.89 11.6-.13 4.161-1.01 8.196-1.27 13.365-.12 4.161-.25 13.87-2.52 16.77-3.53 4.539-10.09 4.287-15.52 4.287-8.19 0-19.42-1.765-26.99-1.513-3.28 0-6.81 2.27-9.46 2.27-11.35.378-25.73-2.018-37.47-1.766-6.81.126-14.25 2.522-21.32 1.892-5.67 5.169-2.9 10.591-3.53 16.265-1.38 13.491-.12 19.418 0 31.9.13 6.809-3.66 13.996-.88 21.435-5.05.252-3.66 6.557-2.65 10.087 4.42 15.257 2.52 33.918 2.52 50.688 0 15.761-1.51 32.783-1.01 47.661.13 3.783 4.04 9.078-.88 11.222l1.89 1.008c0 11.474 3.91 26.731-11.728 28.37-13.876 1.513-32.041-2.522-45.917-1.891-2.27 0-3.658 1.639-5.676 1.891-8.578 1.135-18.039-1.765-26.238-2.395-1.136 0-1.64 2.269-5.551-.379-7.19-4.917-3.532-16.517-3.406-23.704 0-1.639-1.261-3.531-.883-5.674.379-2.144 4.037-2.648 3.785-5.548h-2.776c-2.396-1.639.883-19.039-.883-22.948 2.775 2.396 3.911 3.53 7.695 1.891 4.163-5.548-.378-14.248-7.695-11.222v-16.895zm12.993-376.12-2.397-2.774c-2.523 1.765-.379 3.152 2.397 2.774m-3.659 32.657c-1.261-2.648.505-4.918-2.396-6.557l-2.397 3.278 4.667 3.279zm4.668 1.008h-1.892v2.775h1.892zm-6.812 6.81s-3.784-2.649-4.415-2.144c-1.262 11.222 8.452 6.935 4.415 2.143m4.037 7.186c-2.523 1.009-4.163 3.657-1.388 5.548zm72.029 50.562c1.766.252 2.775 0 3.784-1.387l-1.388-1.387h-1.387l-.883 2.774zm-69.254 3.782-1.388-5.548c-3.406 2.396-3.28 5.926 1.388 5.548m-6.56 2.774h-2.775c0 3.405 2.775 3.405 2.775 0m5.551 11.348c-3.911-3.404-6.434 5.8-.379 4.539 1.766-.378.757-4.287.379-4.539m-.883 21.435c-5.425-.378-4.92 4.539-4.668 8.448l4.289-.883zm120.72 27.109c.63-3.783-6.18-3.531-6.56-1.387.51 3.909 4.04 1.009 6.56 1.387m-129.172 1.891h-2.775l2.396 2.774.505-2.774zm7.569 8.448c-1.766-.378-2.523 1.135-3.659 2.396 1.009 1.387 2.019 1.639 3.659 1.387zm-4.416 17.905c-1.387 1.639-1.387 3.278 1.136 3.53 1.766-1.135 1.514-2.774 1.387-4.665 0 0-2.27.882-2.523 1.135m3.406 4.539-5.55 1.009c-1.262 2.9 2.523 7.691 5.046 4.539zm173.203 3.656c-.76 1.009 1.13 4.413 2.39 4.666 1.01.126 3.16-1.892 3.16-2.27 0-1.009-4.17-4.161-5.55-2.396M922.627 272.35c-6.433.252-7.821 7.187-1.387 9.331 2.901.504.757-7.566 1.387-9.331m147.463 1.009c-2.9.756-.12 5.169 1.89 4.665 2.4-.504 1.77-5.674-1.89-4.665m-34.18 2.774-.89 3.278 1.39 1.387 1.39-1.387v-1.765zm75.81 1.008c-4.16 0-8.07-1.261-9.34 3.657 4.67 2.9 8.96 2.396 9.34-3.657m-94.36 6.683c-2.65 2.143 1.89 5.674 3.53 4.917 4.17-1.891.38-8.069-3.53-4.917m-3.02 4.539c-2.91-.378-5.05 1.639-4.67 4.665h4.54v-4.665zm-27.505 70.105c-2.27.631-1.009 3.531 1.893 2.774 2.27-.63 1.009-3.53-1.893-2.774m7.821 7.565h-1.892l.883 3.783h1.892l-1.009-3.783zm-76.696 8.322h-3.784v3.783h3.784zm18.67 13.996c1.135-2.396.756-3.026-1.262-4.539l-2.397 4.665h3.659zm-5.551 2.017-1.892.505c1.261 2.521 2.271 3.152 1.009 6.052h2.775c-.63-3.026.126-3.909-1.892-6.557m-11.227 8.322-1.892.505 2.775 7.06-.883-7.439zm-.883 13.996c.757.504 4.037 0 4.668-1.387l-3.28-3.278c-1.64.63-2.649 3.656-1.388 4.665m58.91 21.561h-1.892v2.774h1.892zm-.883 44.005h-1.892c-.252 1.765 0 2.774 1.388 3.782zm-37.465 1.008c-2.775-2.017-2.271 5.674.883 4.666zm1.892 10.213-3.784-1.008v2.774h3.784v-1.892zm-19.174 7.566c-1.892 0-1.64 4.287.883 3.656s-.252-3.656-.883-3.656M112.774 91.54c-6.307 6.178-12.489 14.878-12.867 24.209-.126 3.278 1.009 6.178 1.009 9.33 0 19.418-4.289 44.509 13.119 59.009 5.551 4.666 13.75 9.331 19.931 12.861 11.984 6.809 23.337 12.609 36.456 15.887 8.452 2.144 13.624 7.692 20.562 10.34 20.183 7.565 57.648 26.73 66.605 47.535.504 1.135-.505 2.269-.252 2.648.252.378 4.793 3.152 6.559 6.052.505.883 4.037 8.574 4.037 9.078.252 1.513-1.892 2.27-1.514 2.774 3.532 0 2.523 3.657 3.91 6.052.884 1.513 3.028 2.522 3.406 4.035s1.01 7.818 1.136 10.087-.253 1.009-1.009 1.009c-5.803-.252-6.56-2.144-10.218 3.657l5.172 3.278-.505 3.782c2.649.757 1.64-2.143 3.406-2.647 1.514-.505 3.406 0 5.046 0-1.009 3.53 1.514 7.061 1.766 10.843.378 5.548-1.892 8.322-2.523 12.231 0 .756 2.649 5.043 1.514 9.204-.126.504-1.262.504-1.514 1.261-.883 2.143 2.649 15.383 2.775 19.418.379 6.43-2.018 14.752-2.018 19.669 0 2.396 1.766 4.413 1.766 6.557 0 1.765-1.135 4.035-1.135 5.926 0 10.844.63 21.435-.505 32.278l-3.784 2.018c-.253 1.009 1.513 2.017 1.64 3.53.883 14.879-16.273 36.314-27.374 45.518s-27.374 15.509-40.619 19.165c-5.929 1.64-11.101 2.144-17.156 3.531-8.956 2.017-17.534 6.683-27.121 2.396-8.325-3.783-1.261-15.257 0-21.057 2.523-11.726 3.28-21.183.757-33.035-1.514-6.935-5.172-14.374-7.947-20.931l3.784 1.387c1.262-2.395-1.892-5.926-1.766-6.935.126-.756 10.596-8.574 12.489-10.969 8.451-10.97 9.461-24.335 9.461-37.701 0-7.943-.379-10.591.378-18.913.505-5.169-2.649-12.609 1.892-15.887-4.667-1.387-3.532-10.969-3.91-11.6-.379-.63-3.154-1.009-3.532-2.648 2.649-4.161 4.036-7.439-1.01-10.213l1.893-3.278c-1.893-.378-2.145 1.639-4.037 1.639-1.514 0-5.298-.883-6.938-1.513-4.163-1.765-3.154-7.187-7.821-8.952-7.064-2.774-14.507-7.944-21.823-11.853-13.75-7.313-28.005-13.365-41.754-19.921-3.659-1.766-12.867-5.044-15.264-6.935-1.388-1.135-1.261-3.531-2.523-4.287-1.261-.757-4.793-.505-7.064-1.261-1.766-.631-9.209-4.287-10.722-5.17-2.397-1.639.757-1.135 1.64-2.9.378-.756 1.135-2.648.883-3.53l-5.425-5.296c-3.91 1.135 1.388 9.078 1.01 9.331-.505 0-1.01.126-1.388 0-4.037-1.514-13.876-12.861-18.039-15.888-3.532-2.521-7.316-1.765-9.84-7.817-.63-1.513.253-3.026 0-3.278-.882-1.513-6.937-4.918-7.316-5.422-3.658-5.548-11.857-21.057-13.75-27.235-1.387-4.791.127-11.6-3.027-15.635l2.775-.504c-3.658-4.287-3.406-10.087-3.784-15.383-.631-9.078.757-17.4.883-26.352.378-17.401-3.406-35.936-.63-52.957.882-5.044 2.9-10.592 3.531-15.761l2.27 1.89c2.902-2.143 2.65-5.8 7.065-4.664-2.145-2.9 1.261-7.187 3.784-8.448l-5.55-1.892.883-2.773-1.766-1.01c8.704 3.531 12.993-1.134 8.325-9.582-.504-.883-2.649-.378-1.892-3.026.757-.883 2.019-.883 2.902-1.891 10.47-12.357 26.238-24.588 41.88-30.261 2.901-1.01 6.055-.757 8.452-1.892 1.387-.63 2.396-2.522 3.658-2.9 2.523-.756 4.036 1.387 6.433 1.64.505 0 6.686-.631 6.938-.883 0 0-.883-1.135-.63-1.64 1.513-3.026 13.497-4.412 17.029-5.8l-.883 4.666c3.658 4.413 8.452 2.017 10.722-2.396 1.136-2.143-1.766-.504-2.396-1.387-1.64-2.648 7.821-2.27 9.839-.504 5.046 10.465-2.523 19.04-3.532 29.252-1.135 11.222.378 26.353 4.667 36.944 1.64 4.035 5.551 5.548 2.397 11.348-2.523 4.791-5.803 5.296-9.208 7.565-1.64 1.135-2.019 2.774-3.154 3.909zm-7.19-82.083-4.668-.883v3.783c1.64-.63 5.424 0 4.668-2.774zm1.892 3.782-3.785.505c1.01 1.386 2.019 1.639 3.785 1.386zm-26.365 2.9h-2.649c-.252 2.27 1.514 3.026 3.785 2.648l-1.01-2.648zm-12.993 2.648-3.784-1.891.505 2.9-5.172 2.27 4.163 6.052 3.28-2.27-3.028-1.387-.631-1.891c2.018-.378 4.92-1.135 4.667-3.783m6.56 1.891-4.667-1.89c-2.523 8.447 5.676 2.9 4.667 1.89m-16.777 7.44-.883-3.279-2.776-.378.883 3.278zm-7.443 5.674-3.784-2.774c1.135 4.539-3.28 1.134-2.776 4.665 3.28 1.765 3.659-1.513 6.56-1.892M30.78 42.239h-2.775c-.252 1.766 0 2.774 1.388 3.783h1.387zm-3.784 182.45c-.63-.883-5.172-1.387-4.667 1.387 1.513 3.152 5.929.378 4.667-1.387m13.12 12.104c.378-1.765-1.01-3.152-2.776-2.774v1.892l2.775 1.008zm7.19 3.152c-1.136-1.008-5.803-1.891-6.308.253-.883 4.16 3.91 2.773 5.929 3.152.505 0 1.01 3.782 2.523 1.891.505-.63-1.892-5.17-2.145-5.296m129.425 16.518s.378 3.656 1.387 3.656c2.775 0 .253-5.547-1.387-3.656m-81.364 10.339h-1.892v2.774h1.892zm0 6.557c-.883-.883-4.92-.757-3.658 3.152 1.387 4.287 5.298-1.513 3.658-3.152m35.447 6.556-5.551-1.891c-.378 3.657 2.271 5.17 5.551 4.665zm29.139 7.439h-2.775v1.892h2.775zm10.218 7.44c-3.154-.757-1.514 2.774-1.892 4.665l3.784-1.009-.504-1.639-1.01.504-.504-2.647zm101.043 14.121-3.785-1.891v3.783l3.785-.883zm-68.245.883h-1.892v3.783l2.775-.883-1.009-2.774zm47.683 22.57h-1.892l-1.01 2.774 9.335 3.782-1.766-5.169-4.289.504-.378-1.765zm-64.587 6.43s2.776-.756 2.776-1.387c0-2.647-4.163 0-2.776 1.387m64.587 7.44c3.658-2.396-2.523-11.348-7.443-9.331v11.222c1.64-2.774 7.064-1.639 7.443-1.891m19.678-1.766c8.578-2.017-.504-10.213-1.009-4.161 0 1.513.883 2.774 1.009 4.161m-7.442 0-4.541 3.026c-.631 1.135 1.009 2.774.378 3.531-1.135 1.639-4.289 0-4.289 1.891 4.415 1.261 5.172-2.774 9.335-2.774l-1.009-5.548zm-80.481.883 2.397 2.774c2.523-1.765.378-3.152-2.397-2.774m1.766 9.33c.505-6.304-5.676-3.026-2.649-.126 0 0 1.766-.63 2.649.126m89.942-.882h-2.775v2.774zm-24.598 6.304c.504-1.135-.379-3.656-1.262-4.539-1.009 1.513-5.424 5.674-3.28 7.439.505.505 4.415-2.774 4.542-3.026zm-54.495 5.926c-2.271.505-1.388 4.287.883 3.783s1.387-4.287-.883-3.783m65.974 15.887c-3.532-.504-6.938.379-6.56 4.666 5.298.882 3.532-1.766 4.289-2.774.757-.883 2.523-.378 2.271-1.892m-64.587.883h-1.387l-2.397 2.774h3.784zm34.564 1.891h-3.658c-1.135 2.396-.757 3.026 1.261 4.666zm-37.339 12.105 1.892-1.387-1.387-2.27-.505 3.783zm61.685-3.657c-2.397-.63-2.523 2.396-3.784 3.783 3.532.252 5.298 0 3.784-3.783m-57.018 7.439c-2.775-.63-4.162-3.53-4.667.883l4.667.883v-1.892zm-7.568 0-1.892.505c2.144 5.8-7.821 12.987-1.388 18.156 6.181-.63.252-9.834 8.83-11.6-.126-4.034-3.406 2.396-5.172-.378l-.504-6.556zm-7.443 2.774h-4.667c-.757 3.657 1.892 6.809 4.541 3.153v-3.153zm74.931 6.557c1.261-.883.252-4.035-1.388-4.665-4.415 2.143-.757 6.304 1.388 4.665m-41.25 0-3.28-1.639-2.27 2.143c1.766 2.648 5.298 3.783 5.55-.504m-10.975 4.539s2.649 1.009 3.028 2.018c3.406-3.027.504-5.296-3.28-4.666 0 .883-.252 1.892.252 2.648m46.548-1.639h-2.775v3.783h2.775zm-68.245 14.878c2.145-.504 1.893-2.9 1.893-4.665-2.145.504-1.893 2.9-1.893 4.665m7.317.126c-3.532-2.521-7.064 4.161-2.145 5.422 4.037 1.009 3.28-4.539 2.145-5.422m77.832 6.431s.756 2.774 1.387 2.774c2.649 0 0-4.161-1.387-2.774m-74.931 5.674c.505-1.261-1.261-5.8-1.892-4.665-.126 1.765-.252 4.161 1.892 4.665m-18.417 2.522c-.757-.505-1.009-2.396-1.64-2.522l-3.28 2.396c0 1.513 8.2 5.295 7.443.504-.757 0-1.892.252-2.523-.252zm-8.704.252h-1.892v2.774h1.892zm86.031 1.009h-2.775v1.891h2.775zm-73.921 5.547c.631.631 4.163-.378 3.784-2.269-.757-3.405-5.55.504-3.784 2.269m64.586 7.44c3.406 0 3.406-2.774 0-2.774zm10.218 1.008-5.55.883.504 1.891h2.902l.504 4.665c2.397 2.144 3.028-6.556 1.766-7.439zm-9.209 6.557-2.775 2.396c2.775.756 1.388 1.008 1.009 3.278l1.893-5.548zm-2.901 13.996c-1.514-2.774-1.64-3.405-5.55-3.783-.379 3.53 4.036.126 2.775 4.665 1.009.379 2.397-.882 2.775-.882 1.892 3.404 2.397 5.547 0 8.952l3.784.882 2.776-4.539 1.892.505v-5.674l2.775 1.891c0-5.043-.757-7.944-6.56-8.448l-.504 6.557c-1.009 1.765-2.775 0-4.163 0zm-7.442 8.447-2.776-1.008c-.252 1.387.379 2.017 1.388 2.774h1.388v-1.892zm-16.778 11.222h-3.784c0 3.783 3.784 3.657 3.784 0M615.716 11.348l-3.784 1.009c2.018 3.53 5.928 2.143 5.676-1.766l30.78-1.008v5.421c1.513 1.135 8.073 4.161 6.433-.126-1.009-2.521-3.658-2.395-4.541-4.287 3.658.63 7.19-1.008 10.722-1.008 4.541 0 9.713 1.134 15.011 1.008 2.271 0 4.289-1.134 6.434-1.008 5.298.504 8.578 8.07 9.082 12.609.505 4.286-.63 12.356.127 16.643.252 1.765 3.027 5.548 3.153 7.691.126 3.026-2.018 6.683-1.514 11.222.883 8.07 4.542 16.14 2.776 25.218-.505 2.522-2.902 2.774-2.776 5.17l4.668-.883c1.261 4.665-2.775 1.135-2.775 4.16 4.667 2.27 3.91 5.17 3.784 9.836l-3.784.504 3.784 2.017c.505 6.053.378 12.735.883 18.661 2.144 23.579 5.172 46.527 7.19 70.357 1.009 11.853 4.794 31.901 3.154 42.87-.631 3.783-3.911 4.54-1.262 8.827 1.01 1.765 4.163 3.404 4.163 5.295 0 2.396-4.036 1.639-2.901 5.17l2.775-1.891c0 6.934-.126 13.869.631 20.678 3.532 33.035 7.821 66.196 9.082 99.483.253 5.548 2.649 12.105 3.28 17.022.757 6.052-.252 15.005.252 21.309 0 1.387 2.902 9.835 3.785 10.718 3.784 3.908 14.254.63 19.426 4.034l-.883 1.892h2.775l-.883-2.774c4.037.504 9.587-.757 13.372 0 .63.126.757 1.387.883 1.513 1.766.63 3.532 0 5.424 2.269v-3.782c1.766-.757 3.406 1.513 4.289 1.513 2.271 0 3.658-5.422 8.83 1.261l1.514-3.783c11.479 2.648 30.022-4.917 37.843 7.061.757 1.135 1.136 1.891.883 3.278-2.018 0-4.541-.63-5.55 1.513-1.261 4.161 4.289 4.287 4.541 5.548 0 .378-.757 7.187-.883 8.322-1.135 7.565-.757 15.509-1.892 21.561-.378 1.891-2.144 3.026-2.397 4.665-.883 9.205 1.514 16.14-3.532 25.974-5.046 9.835-17.66 5.044-26.364 4.666-3.785-.126-8.956.756-13.245 0-1.64-.253-3.406-2.018-4.415-1.892-2.65.379-3.785 3.783-10.471 2.648-8.325-1.387-15.389-.756-24.219-.504-20.31.378-40.998.63-60.929.504-8.325 0-21.444 1.513-28.635-2.269-4.163-2.144-6.812-6.683-2.775-10.34l-1.892-1.387-.883 1.892c-1.009-2.396 0-5.926-.379-7.818-3.405-22.191-5.928-46.022-8.956-68.466-1.892-14.121-1.766-29.252-3.784-42.995-.379-2.27 0-4.666 0-6.935l1.892-.883c-6.686 1.135-1.262-7.943-1.892-8.448l-2.902-.504c-.126-3.909.379-8.196 0-12.105-.378-4.539-.504-10.087-1.009-13.995-.378-3.026-3.91-9.079-3.658-12.357 0-2.143 8.578-9.33-1.009-7.944-.379-2.269 1.64-5.043 1.387-7.06 0-1.135-1.892-2.9-2.144-4.918-.631-3.909.252-7.943-.252-11.852-.631-5.422-1.388-8.07-1.892-13.996-.127-2.648-3.785-9.33-2.523-10.717.252-.253 3.027 0 1.639-2.018 0 0-1.639.252-1.892-.63-.63-2.396.379-7.061 0-10.087-3.532-25.596-7.064-50.94-9.839-76.914-3.532-32.026-5.55-66.07-11.479-98.222-1.64-9.079-2.902-17.905-3.785-27.11-.883-8.573-3.406-24.839-1.892-32.656 1.514-8.196 17.03-6.052 22.959-6.052 2.523 0 5.802-2.396 6.938.882zm57.018.882c-1.009-1.386-5.172 0-4.668 2.27.631 3.278 6.686.378 4.668-2.27m-79.472 23.453 3.28 4.665 1.387-3.278zm90.699 4.665c-1.136-1.009-4.289 3.657-4.542 4.413-1.261 4.54 5.046 3.278 6.308-.252l-1.766-4.035zm0 10.34c-10.723-1.766-5.046 7.186-.631 3.782zm-.883 12.986s-.379-3.656-1.388-3.656c-2.775 0-.252 5.548 1.388 3.656m-5.677 2.9c.379-3.026-1.009-4.16-3.784-3.782l.883 2.774-2.775-.883c.378 4.917 2.522.252 5.55 1.891zm-69.254 18.661c3.406 0 3.406-2.773 0-2.773zm75.814 1.01c-6.308-.505-3.911 6.934.883 7.438zm1.892 8.32c1.009 0 5.172 3.405 5.55.505s-5.046-2.395-5.55-.504m-44.403 2.901-1.388 1.387 2.271 1.387 1.387-1.387zm-44.53.883h-1.892v4.665l2.397-.883zm97.385 7.439-3.785-3.783c-.252 2.018 1.892 3.909 3.785 3.783m-29.518 6.556c-1.893.505-1.893 4.161 0 4.666 4.288 1.26 4.288-5.927 0-4.666m-6.938 6.557c-2.649-1.891-4.794 3.278-2.776 4.665 2.649 1.891 4.794-3.278 2.776-4.665m-25.356 10.339c-1.766-.252-3.279 0-3.784 1.891h3.784zm47.809 1.891h-7.064c-2.018 5.422 6.308 4.666 7.064 0m-50.584 12.105c1.64 1.765 4.163-3.783 1.388-3.657-1.009 0-2.019 3.153-1.388 3.657m-16.903 3.783h-2.776c0 3.404 2.776 3.404 2.776 0m81.49 23.326 3.784-4.161-4.667-3.278c-1.136 3.026.504 4.665.883 7.439m-12.615 2.9c-2.649.504 1.388 7.691 2.775 8.448 3.28-2.9.757-7.566-2.775-8.448m-8.452 7.439c-4.289 3.657-1.387 8.448 2.271 3.152zm32.294 17.778c0-3.404-2.776-3.404-2.776 0zm-9.335-1.891v1.387l2.397 2.396 1.387-1.387-2.397-2.27h-1.387zm-11.227 4.665s3.784-.378 3.658-1.387c0-3.656-6.181-1.008-3.658 1.387m12.11 2.9c-.883 1.64 2.523 5.548 3.28 5.548 3.532 0 2.144-7.313-3.28-5.548m1.009 26.101-1.388-5.548-1.892 2.9 3.28 2.774zm-69.758-3.657c-2.019.504-1.262 3.783 0 3.657 1.639 0 3.153-4.413 0-3.657m67.866 18.661v2.774h2.775v-2.774zc0-2.774 1.261-6.052-1.388-8.448-1.766 0-2.397 8.574 0 9.205.505 0 1.135-.757 1.388-.757m-80.481-7.439c-1.766-.252-3.28 0-3.784 1.891h3.784zm84.139 24.335c-1.514-1.513-4.289 1.261-2.775 2.774s4.289-1.261 2.775-2.774m-68.245 6.556c1.766.253 2.775 0 3.785-1.387l-2.397-3.278c-1.766 1.135-1.514 2.648-1.388 4.665m51.468-1.891s-.757-2.774-1.388-2.774c-2.649 0 0 4.161 1.388 2.774m24.472 14.752s2.523 1.135 3.153 1.766l2.271-2.9c-1.514-2.648-3.027-2.522-5.55-1.513 0 .882-.253 1.891.126 2.647m-81.616 11.474c-5.803-1.008-1.136 4.035 0 2.774zm41.754.883-2.271 3.152 2.271 2.396 1.387-1.387c.253-1.765.253-3.152-1.387-4.161m12.614 15.887-1.892-1.387-3.784 3.278 5.55-1.891zm-51.593 1.135h-4.541c-.505 3.909 1.513 6.052 5.55 5.422zm82.373 25.974-2.901 2.27 2.396 3.278zm-81.364 17.778c4.92.379 4.92-4.16 0-3.782zm74.93 13.114s2.776-.757 2.776-1.387c0-2.648-4.163 0-2.776 1.387m-21.57 1.891s-.631 2.396-.505 2.774c8.326 6.052 4.037-5.674.505-2.774m-3.785 12.23s-5.172 0-4.667 2.27l1.387 1.387 3.154-1.009s.126-2.648 0-2.648zm-46.8 2.774c-.126 3.531-.378 12.861 5.677 8.953 3.153-2.144-4.541-10.214-5.677-8.953m1.892 26.227 4.668-2.396-2.397-3.278-2.271 5.548zm77.706-4.666h-3.784v1.892h3.784zm-75.813 10.214c0-2.018.378-3.531-1.388-4.666l-1.388 2.27zm2.775 1.008-4.668.883 4.668 1.891zm3.784 6.557 1.892-1.387-3.279-2.396-1.388 1.891zm63.199.882c-2.775.631-.126 4.666.883 4.666 2.775 0 2.145-5.296-.883-4.666m35.069 6.557c1.766.504 5.045-1.513 4.667-3.278-.631-3.279-5.677 2.269-4.667 3.278m-73.039 0c.253-1.639-1.261-3.026-2.775-3.783-.252 1.639 1.262 3.026 2.775 3.783m96.88.504c-1.009-1.513-2.397-3.53-4.163-4.287-.378 3.783.126 6.935 3.28 9.331 2.144.504 2.901-2.648 2.144-4.413 0-.252-1.009-.252-1.261-.631m-7.064-3.278c-2.901-.883-1.766 4.917-.505 5.548zm57.144 9.331-.505-5.674-4.163 4.16 4.668 1.387zm-174.964-4.666-.883 2.396 1.388 1.387 1.387-2.27-1.892-1.387zm130.939 6.557c2.397.252 3.154-1.513 2.775-3.783l-2.775 2.396zm24.346 0s.757 2.774 1.388 2.774c2.649 0 0-4.161-1.388-2.774m-126.272 4.665c-4.919-1.513-5.171 8.7-2.27 9.331 3.91-.757 1.892-6.431 2.27-9.331m148.726 5.548c-3.784-2.522-9.713 3.53-5.677 6.178 3.28 2.018 6.434-5.043 5.677-6.178m-144.058 3.783c.378-4.666-3.154-4.666-2.775 0zm138.508 14.121-4.794-.504-2.775 3.783 2.775 1.387.378-2.9 4.289-1.766zm-160.079 11.096c3.911-1.891 3.658-5.043-.883-4.665zm160.079-.882-1.893 2.774-2.775-.883v2.774l3.785.63.883-5.169zm-91.708 1.891c-.253 1.891.126 3.656 2.27 3.783l1.388-1.387-2.397-2.27h-1.387zm-61.938 11.348c-1.387-.757-3.658-.252-4.541 1.261.252 1.891 2.145 5.169 4.163 5.169l2.397-1.513c.252-1.008-1.64-4.665-2.019-4.917M1255.78 8.574c0 1.26-1.89 1.891-2.4 2.774-2.02 3.909 7.19 4.287 2.4-1.891l35.57 1.386c3.03 1.387 10.47 19.922 11.35 24.21l-3.78 1.89c.88 2.9 3.28 2.523 5.04 4.288 2.02 1.891 4.8 8.952 5.93 11.852 5.18 13.744 8.33 29 14.38 42.744.76 1.891 3.28 3.909 3.54 4.917.37 1.639-.76 3.152-.51 4.287 1.14 5.8 6.56 16.644 8.83 22.822 18.04 48.67 34.94 102.636 55.25 151.558 4.42 10.717 5.3 22.57 9.84 33.287 9.09 21.309 16.28 44.005 23.84 66.07 2.53 7.313 6.56 13.996 7.7 21.561l-1.77 1.009 2.9.504 9.09 22.57c.88 5.17-3.66 3.152-3.53 6.809 3.53.126 7.44 1.513 8.32 5.422.51 2.647-.38 4.917-3.15 3.026l-.51 1.891 4.17 1.009.37 1.765c-2.65-.378-1.51 2.522-1.89 2.9-.38.504-4.67-2.522-3.78.504 2.02 6.683 6.43 0 7.44.883.63 2.648 7.32 14.752 5.68 16.391l-6.18.883c-3.79 2.648 4.03 9.961 6.68 2.9 1.77 1.639 4.67 4.287 4.16 6.935l-2.77 1.387 3.78.63c-.63 2.9 1.9 4.666 2.53 6.683 1 3.53 3.15 16.391 1.13 19.291-2.52 3.531-10.22 1.135-14 2.396 3.91-8.952-6.81-8.826-2.78 0-3.28 1.891-5.93-.126-8.95 0-9.84.252-19.81 1.765-29.77.883-2.27-.126-7.07-2.018-8.45-1.766-1.01.127-.89 2.522-2.02 2.774-1.01.253-6.56-1.387-8.58-1.387-3.03 0-7.32 1.387-9.97 1.261-2.01-.126-3.91-1.891-5.67-2.017-1.77-.126-3.79 1.009-6.44.252-7.44-2.143-8.83-17.526-10.84-23.704-6.31-18.788-14.51-37.322-20.19-56.614-.88-2.9-3.78-4.791-1.39-8.448l-2.9-.504c-1.38-9.205-5.17-17.4-9.84-25.596-.37-1.891 4.04-2.396-2.27-4.413 0-2.9.51-6.052-.38-8.826-.5-1.766-2.39-2.774-3.15-4.413-3.15-7.44-6.68-18.283-7.82-25.722-.63-4.035-5.93-11.474-6.31-14.5-.25-2.522 1.89-2.774 1.77-4.918l-2.78 1.891c0-1.891-1.51-3.656-1.76-5.421-.38-2.9 2.77-2.396-2.15-3.657-.75-2.522-.5-5.422-1.38-7.817-2.28-7.187-7.45-13.87-7.07-22.444h-2.4c0-2.9-2.27-4.791-3.02-7.187-.38-1.387-1.14-8.952-1.39-9.457-.38-.504-1.89-.63-2.78-2.269-1.26-2.522-1-7.565-1.89-8.952-.38-.757-2.77-.631-3.4-2.774-1.9-6.179-2.78-16.014-4.92-22.066-.38-.882-1.64-.756-2.15-1.891-1.13-3.152-7.19-17.4-6.18-19.292.63-1.134 4.29-.882 3.03-5.547-1.77-6.431-6.94-3.657-8.58-6.431-1.01-1.513-1.26-5.8-2.27-8.07-1.51-3.908-3.78-7.565-5.17-11.726-2.4-7.187-3.41-17.022-6.81-22.443-3.91-6.179-1.52-7.187-3.03-11.853-.38-1.261-2.65-1.134-3.16-3.278-.5-2.017 0-4.287-.63-5.926-1.26-3.783-5.42-8.448-3.53-12.861h-2.65c-.38-6.178-4.16-11.852-6.18-17.778-1.26-3.657-1.64-8.196-2.9-12.105s-5.17-8.07-4.16-13.365c0-.378 2.9-1.765 2.77-3.026-.12-2.396-4.41-1.009-5.55.504-1.76-4.917-2.9-9.96-4.29-15.004-.88-3.026-3.4-4.413-1.38-8.448l-2.78.882c-.76-2.522-1.39-5.8-2.52-8.195-1.14-2.396-7.32-4.792 1.13-5.8l.38-4.666-4.67 3.783c-2.27-7.44-4.03-15.005-6.05-22.444-.63-2.27-2.9-3.656-2.15-6.682 1.52-6.305 10.85-6.935 16.28-7.314 3.66-.252 11.35-.378 15.01-.378 11.35.252 22.45 4.666 33.18-.504zm-54.25 26.1s-4.16-1.135-4.66-.882c-.51 1.26 3.91 2.27 4.66 1.89 0-.251.13-.756 0-.882zm31.67 13.24-5.43-2.018c-.5 3.278 2.02 4.16 4.17 5.548l1.26-3.657zm53.48 27.99c-1.38.505-2.39-1.26-1.89 2.775l2.4-.883c.63-.756-.51-1.513-.51-1.891 4.29-1.765 5.3-3.404 0-3.783zm30.03 6.558c-3.41 0-3.41 2.773 0 2.773zm-13.12 20.552c0-2.018.5-4.918-1.9-5.548v5.548zm-62.7 5.674c0-3.405-2.77-3.405-2.77 0zm19.18 16.77-1.39 2.269 3.28 2.27 1.39-2.27zm36.96 1.891c-4.8-2.144-5.93 4.161 0 2.774zm-33.68 13.113c-1.27-6.935-7.57-2.017-2.15-.126.76.252 1.52.126 2.15.126m31.28-2.774c-2.27.504-1.39 4.287.88 3.783 2.27-.505 1.39-4.287-.88-3.783m-51.85.883h-2.77v1.891h2.77zm95.37 0h-1.89c-.38 2.017-1.77 3.152.5 4.665l2.27-1.387zm-21.44 8.448s.75 2.773 1.38 2.773c2.65 0 0-4.16-1.38-2.773M1253 157.358l-5.55-.883c-.12 1.513-.12 4.035 1.39 4.665 3.03 1.135 1.89-1.26 2.65-2.521.38-.631 2.02.252 1.64-1.135zm49.58 26.1c-1.77-.252-3.28 0-3.79 1.891 1.77.252 3.28 0 3.79-1.891m-6.06 7.565c-2.39 1.135-1.76 9.331 0 9.331l3.28-4.161zm-5.17.883h-2.77c0 3.404 2.77 3.404 2.77 0m-28 13.996c.63-3.026-2.15-4.54-4.67-4.666-.38 3.026 1.76 5.044 4.67 4.666m72.91 20.678c-.76-.756-3.79-.378-2.78 2.27 1.14 3.278 4.04-1.135 2.78-2.27m-31.79 8.322c0-3.405-2.78-3.405-2.78 0zm-28 16.896 4.66-1.387-2.39-4.161c-2.02 1.387-2.65 3.152-2.4 5.548zm7.44 3.782h1.39l2.39-2.395c-2.14-2.9-4.16-.631-3.66 2.395zm14 11.222c.25-1.765-1.01-3.152-2.78-2.774v2.774zm43.14-1.891c-4.92-.378-4.92 4.161 0 3.782zm34.57 33.665c.88-.882-1.14-4.035-2.4-4.665l-1.39 3.278c.38 1.261 3.15 1.892 3.79 1.387M1308 321.65c1.64-2.269.13-10.717-2.52-9.078 1.26 4.035-3.03 6.683-.88 11.222.12.126 3.15-1.891 3.4-2.144m11.48 27.488c-5.55-1.387-5.17 10.465 0 7.943zm1.89 13.995c-4.79 2.396-1.01 6.557 0 3.279.26-.883 0-2.27 0-3.279m92.59 2.9h-3.78v1.387l1.39 1.387zm-23.84 3.657c-2.9.756-.12 5.17 1.89 4.665 2.4-.504 1.77-5.674-1.89-4.665m-8.83 12.23c-.25 1.766 0 2.774 1.39 3.783l3.28-2.396c-1.14-1.765-2.65-1.513-4.67-1.387m-38.47 33.666c.38-4.665-3.16-4.665-2.78 0zm-2.15 4.791c-3.65 1.135-.5 6.683 3.16 4.161 2.39-1.765.25-5.169-3.16-4.161m74.3 8.322c.38-4.917-4.16-4.917-3.78 0zm-62.69 1.891v-1.387l-2.78-2.395c-.25 1.765 0 2.774 1.39 3.782zm1.76 4.666c-1.38 0-2.52-.252-3.28.882l-.37 2.774h3.78v-3.782zm20.57 18.661c4.03-12.861-5.3-11.6-2.65 0zm4.79-3.783c-1.77-1.513-3.78 3.152-1.39 3.783 2.4.63 2.27-2.9 1.39-3.783m-19.68 5.674c-.63-9.583-4.54-1.261-1.39 0 .38.126.89 0 1.39 0m89.82-.883c-.63.505-8.2 1.387-7.45 2.774 2.27.253 2.15 2.9 5.05 1.892zm6.56 22.444-5.55.883 4.66 1.891zm-29.02 6.557c2.53 1.891 5.17-2.9 1.39-3.783-2.52-.504-2.14 3.152-1.39 3.783m32.8 3.656c0-3.404-2.77-3.404-2.77 0zm-95.49 1.009h-2.78v1.891h2.78zm16.65 6.304c3.53-3.278-3.28-5.548-3.53 1.135.5.378 2.9-.63 3.53-1.135m26.36 7.692s-2.77.756-2.77 1.387c0 2.647 4.16 0 2.77-1.387"/><path d="M871.917 4.035c3.406 2.143 3.154 10.591 3.027 14.248-.883 20.174-5.298 47.535-8.199 67.583-.631 4.791-2.901 12.987-3.027 16.643-.379 6.557.504 8.322-.631 16.14-1.388 9.204-1.892 18.535-3.154 27.739-7.19 55.101-15.39 110.705-22.328 165.806-3.027 24.083-5.676 47.661-9.208 71.24-1.262 8.321.504 21.434-12.362 18.03l1.892 1.891c-8.578 1.261-16.273 0-24.851-.378-3.154 0-8.452 2.27-9.335-1.513-1.64 4.413-7.064 1.639-10.344 1.765-3.784.252-6.938 1.135-11.353 1.009-5.676 0-13.75.252-17.029-4.413-5.298-7.313-2.397-19.544-3.28-27.739 0-1.135-1.388-2.396-1.514-3.909-.631-5.548-.252-10.844-1.892-16.266l2.775-.504c-.631-1.009-2.649-1.009-2.775-2.017-.252-1.387-1.009-9.457-1.009-11.096.126-4.791.504-4.287.126-9.457-.378-5.8 1.135-10.591.883-16.391l2.775.883v-2.774c-.504-.631-3.153 2.521-2.775-.379.252-1.639 1.009-5.547 1.514-6.808.63-1.387 3.153-.883 2.144-4.287-.252-.757-2.018-.253-1.892-1.892 0-8.7 3.027-20.048 3.911-29.126.504-5.8 1.261-11.726 1.766-17.778.252-2.522.252-19.418.883-20.174h3.658c2.901-3.783-1.514-5.548-1.766-6.305-.883-4.161.63-8.7.883-12.861.252-4.665.504-5.422 1.009-9.583 2.397-18.534 2.397-38.709 6.307-57.243.631-2.901-.757-6.179 2.145-8.196-4.668-1.513-.253-7.187 0-10.339.252-4.413.504-6.809.883-11.222.757-8.322.883-16.644 2.018-24.713 1.766.882 3.28 1.513 4.667-.505 1.01-3.53-3.532-2.774-3.784-3.782-1.261-6.305 2.144-12.987 2.649-18.661s-.505-13.744.252-20.427c.253-2.774.379-5.043 3.659-4.287.378-1.513-1.64-.378-1.893-1.513-1.261-4.791 2.145-12.104 2.776-16.77.756-5.673-1.893-16.39 5.045-19.29 1.893-.757 9.714-1.388 12.363-1.64 3.91-.252 8.83-.378 12.74-.378 16.778 0 34.438.756 51.846.504 3.785 0 7.19-1.387 11.227-1.009 1.388 0 7.695 1.64 8.578 2.144M768.73 95.575s-2.144 1.891-1.009 2.774l3.784 1.765c3.154-1.135-2.523-4.665-2.775-4.665zm-3.28 6.556c-.126 1.892-.378 3.531 1.388 4.665l1.387-1.386c-1.513-.883-1.387-3.531-2.775-3.279m7.443 20.553-1.388-8.448c-2.649 2.269-1.514 6.935 1.388 8.448m-5.551 2.773h-2.775c0 3.405 2.775 3.405 2.775 0m7.443 11.222-2.397-11.222c-3.658 2.774-3.153 11.727 2.397 11.222m-7.443 1.892c0-3.405-2.775-3.405-2.775 0zm-5.676 12.23h-2.649l-1.009 2.774c1.766.252 2.775 0 3.784-1.387v-1.387zm10.344 18.661c-6.055-.756-5.803 4.161 0 1.892zm-2.902 11.222c-1.135-.883-4.667 2.648-3.784 3.783.883 1.008 4.667-2.9 3.784-3.783m-7.442 4.665-4.668 3.279c2.019 3.152 3.533-1.892 4.668-3.279m6.433 2.9c-1.64-1.008-7.568-.252-6.433 3.153 1.387 4.16 10.344-.757 6.433-3.153m-9.208 6.431c-.631.63.378 4.161 2.27 3.782 3.406-.756-.504-5.547-2.27-3.782m14.885 4.791c-2.271-1.009-3.658-1.387-5.172.883l1.514 4.665c2.775-1.009 4.415-2.27 3.658-5.548m-18.67 10.213-.883-4.287-4.793-.378 5.55 4.665zm11.984 7.692c-1.514-1.64-3.532-.631-4.289 1.261l2.271 3.908c3.532 0 4.163-2.9 2.018-5.295zm-13.876 14.752-3.784 1.009 2.397 3.782c2.901.379 2.144-4.035 1.387-4.665zm-2.775 8.448c-1.766-.378-3.154 1.009-2.775 2.774h1.892l1.009-2.774zm15.011 9.33c-.883.126-4.541-.882-3.784 1.387 0 .252 1.892 2.396 1.892.757zm-12.236 20.553-2.775-2.774v2.774zm-5.046 1.008c-2.018 1.892-5.172 4.035-1.892 6.557 1.514.378 4.794-3.404 4.163-5.17zm21.067 15.005-2.776-.883c.505 4.539-3.027 6.557-.883 11.222 3.028.757.757-3.026 1.388-5.17.631-1.765 2.397-3.026 2.271-5.169m-13.12 23.326c-3.405 0-3.405 2.774 0 2.774zm28.635 65.818s-3.027-2.017-3.784-2.017l-6.055 4.161c0 6.43 3.785 6.556 9.083 6.934.126-3.404 3.406-5.8.756-9.078m-37.086 7.187c1.892-1.765-3.785-6.43-5.551-4.665s3.785 6.43 5.551 4.665m49.827.631c4.415 5.169 10.849.504 6.181-5.17l-6.307.883c-.631 1.513-1.009 2.9.126 4.287m-36.708-.631-3.785.883v1.891h1.388zm-1.892 7.439s3.406 0 3.658-1.513l-.883-4.035c-2.145.253-3.658 4.792-2.775 5.548m-5.677.126c-2.523 0-5.298 1.639-4.667 4.666l4.163-.883zm4.668 0-2.397.883.504 3.783c2.271-.505.757-2.9 1.893-4.666m58.026 2.774c-5.676.883-1.892 5.8 1.893 5.674zm-45.79 4.666c-1.893 0-3.532-.379-4.668 1.386l1.388 1.387 3.28-.882zM1220.2 182.575l-3.78.883c8.45-1.261 6.56 9.457 8.45 15.257 4.42 13.491 11.86 28.622 16.91 42.239 4.03 10.97 7.19 22.318 10.59 33.287.76 2.27 4.04 4.413 4.8 7.439.75 3.027.12 6.053 1 9.205 1.27 4.287 5.55 9.961 7.32 14.248 3.15 7.817 6.06 17.148 8.7 24.965.76 2.144 2.65 11.979 1.77 13.366l-6.05 3.278 3.15 2.269 3.41-2.773c2.14 9.204-.51 18.156 0 27.613.5 11.222 0 19.165 0 29.883 0 3.782 2.01 9.456 2.01 13.113 0 8.448-2.77 20.048-2.52 29.757.51 18.913.63 38.078.51 57.243 0 2.522 1.38 5.548 1 7.314 0 .756-1.64.63-1.89 1.26-.63 1.261-.63 3.027-1.39 4.035-1 1.261-9.08 1.892-11.22 2.018-16.53.756-35.7-1.261-52.35-.757-6.06.126-5.05 1.135-12.62 0-3.78-.63-4.16 2.522-7.57-2.648-3.4-5.169-1.76-11.6-2.01-17.652-.76-14.374-1.9-31.396-1.52-45.77.63-23.831.89-46.274.63-70.357-.12-22.444.63-45.644 0-68.34-.25-10.339 0-15.256.76-25.343.88-11.348-1.89-19.796-1.77-29.001 0-2.269 1.64-4.287 1.9-7.439 1.13-14.374-1.01-32.53-.89-47.787.13-18.409.26-36.566.76-55.227.13-4.413-2.65-5.926 1.51-10.717 5.43-6.305 9.21-3.909 13.63 1.513 4.41 5.422 3.78 8.826 6.18 14.5 4.04 9.583 8.58 18.661 10.72 29zm-27.5-30.009c-2.01.505-1.26 3.783 0 3.657 1.64 0 3.16-4.413 0-3.657m14.51 2.9c-6.43.253.38 12.105 1.89 5.044.63-2.648-2.77-2.27-1.89-5.044m12.11 82.336h-1.89v2.774h1.89zm1.39 29-1.39 1.387 2.27 1.387 1.39-1.387zm12.61 42.996c3.03-2.396-3.4-7.187-4.66-2.269-.51 2.143 3.78 3.026 4.66 2.269m21.57 24.335c-2.14-.378-3.4.757-4.66 2.396 1.13 1.765 2.65 1.513 4.66 1.387zm-21.57 1.009c-1.89 0-3.53-.378-4.66 1.387 1.26 1.639 2.52 2.774 4.66 2.395zm-40.62 111.335-1.38 1.387 2.27 1.387 1.39-1.387zm2.28 15.005c-3.66 0-3.79 3.656 0 3.783zm20.18 16.77s-2.27 3.026-2.27 3.278c.25 2.774 8.32 1.135 2.27-3.278m-7.07 15.004h-2.77c0 3.404 2.77 3.404 2.77 0m-4.66 15.887c.25-1.891-.13-3.656-2.27-3.782l-1.39 1.386 2.4 2.27h1.38zm257.33-490.356s-.5-2.774 2.78-1.891l-1.01-1.892h6.56l-.88-6.178-5.68-1.765 1.89-4.161c6.06 1.765 6.81 6.935 7.32 12.609 1.51 19.291-1.89 39.718 0 60.018.38 3.278 1.26 10.591-1.77 12.482l-1.39-3.782c-3.78-2.144-1.38 4.287-.37 6.052.63 1.135 2.39 1.26 2.65 2.144.88 3.026.25 6.178-2.78 7.313 2.78.882 3.53 5.547 3.78 8.447.26 4.161 0 12.861-1 16.644-.26 1.009-2.15.378-1.9 1.135 3.66 2.774 1.14 7.817 1.39 11.222.76 10.087.63 19.543.76 29.883.12 14.752.63 29.882-.13 45.013l-2.02 1.765 1.01 1.892 1.89-.505c-1.13 10.592-2.14 21.939 1.01 32.279l-3.78 1.008c3.41 1.387 1.77 9.079 1.89 13.114 0 2.773 2.52 4.539-1.01 5.673 2.53 4.792.89 7.692 1.01 11.979 0 22.191.51 44.005-.5 65.566 0 1.765 2.52 5.547-.38 8.447-3.28-1.008-4.67 0-7.44 1.387l1.76 5.17 7.44.378c.89 1.009-1.64 7.061-1.76 8.953-.13 4.413 2.02 6.43-.13 11.978-2.52 6.43-5.93 4.287-11.1 2.396l2.27 2.774-5.17-1.64c-.38-3.53-4.04-7.061-5.05-9.708-2.52-6.683-4.03-13.996-6.43-20.805-13.37-39.213-28.63-77.418-42.38-116.757-2.15-6.053-3.16-13.366-5.68-19.67-1.14-2.774-3.66-4.791-4.54-7.691-.76-2.522-.25-5.044-1.01-7.44-.63-2.143-2.9-3.026-3.79-4.665-2.01-3.909-2.01-9.204-2.64-13.239-.63-3.657-3.66-6.178.25-9.961-2.4 0-3.53-9.078-3.79-11.726-.37-6.557 3.16-10.844 1.01-16.896l1.9.504c.88-2.521-1.64-1.513-1.9-2.521-.25-1.135-.25-7.944 0-9.079.26-1.135 4.04-1.639 3.79-3.909l-3.79-.504c-.88-.756.76-12.104.63-14.374-.12-2.269-2.01-5.296-1.64-7.439 0-.504 4.92-1.135 0-2.9.51-.504 1.39-1.135 1.52-1.891.63-8.827-.38-21.561-.51-31.018 0-8.7-.38-14.248 0-23.326.13-4.035-2.9-5.548 1.77-7.44-4.92-1.89-1.77-4.917-1.77-9.33 0-7.691-1.76-14.374.13-22.318 3.03-12.608 16.4-6.304 25.98-9.078.26 1.891-2.27.504-2.77.883-3.03 2.774 5.68 8.448 3.78 0 2.15.378 4.29-1.009 6.19-1.009 2.52 0 3.53 1.387 4.66 1.513 2.9.252 6.94-2.143 9.34 1.387l1.01-1.891c4.16.756 8.2-.883 11.98-1.009 1.89 0 3.53.883 5.55.883 3.53 0 4.79-3.027 7.44 2.9.63 1.26.38 1.387 1.52 3.53 2.65 5.17 4.92 5.926-.63 10.97l1.64 4.16 1.89-.504-1.01-4.539c.13-1.009 1.77-.504 1.89-.63l2.4 3.782 3.28-2.774c0-1.765-5.43-1.513-5.55-.882zm-46.8-9.33 3.54-1.513V3.909c-1.39-.126-.38 1.513-1.39 2.9-.51.63-2.9.378-2.15 2.648m-9.33 5.547c2.02-2.774-2.52-6.052-5.55-4.665l2.77 5.17s2.78-.378 2.78-.505m47.56-.63c-3.91-4.54-14.89 3.152-7.83 8.196 6.06 4.413 10.85-4.792 7.83-8.196m-36.33 10.087c-.89-4.035 1.13-8.7-4.17-10.213-7.69 1.513-4.03 9.457 2.27 6.557.13 1.89-1.01 4.413 1.9 3.782zm14.12-5.674c1.27-.252 3.54-2.774 2.78-3.782l-2.65 1.008v2.648zm-20.68 3.783c-1.77-.63-4.54 2.648-3.79 3.782 2.02-.504 3.16-1.639 3.79-3.782m6.56 5.548-1.39-2.774-1.39 1.387v1.387zm1.89 1.89h-1.89v3.784h.88l.88-3.783zm-27.12 13.114-.51-6.556c-3.53 2.521-4.79 5.421.51 6.556m47.05-.126c-.63-.63-1.14-4.665-3.53-5.422l.25 3.279-1.64 2.27 2.4.882-.51 2.9 5.55-1.892c.76-3.026-1.76-1.26-2.52-2.017m-32.17-4.54-4.03.883-.64 2.774c.64.63 5.56-1.639 4.67-3.782zm1.01 1.01c-.38 2.27 1.89 2.647 3.28 3.656l1.39-1.387c-1.26-1.639-2.52-2.774-4.67-2.396zm20.56 1.765s-2.77.756-2.77 1.387c0 2.648 4.16 0 2.77-1.387m17.79 4.665-6.56 1.387c2.27 3.53 6.05 2.774 6.56-1.387m-10.6 2.017c-2.9.883-3.4 7.061 1.64 5.422 2.78-.882 1.9-6.556-1.64-5.422m-17.91 8.322-1.39 2.27 1.39 1.387 1.39-2.27zm-25.73 1.892-2.4.882-.5 3.783h.88l1.89-4.666zm44.9 8.447c1.52-.63 3.16-2.017 2.78-3.782-1.51.63-3.15 2.017-2.78 3.782m31.79 2.774c1.77-1.765-3.02-5.8-3.78-2.27-.38 2.018 3.03 3.027 3.78 2.27m-53.61 16.14s-3.03-1.64-3.53-1.135l2.77 6.556c2.4-.378 1.64-4.034.64-5.295zm10.6 10.087-2.78-4.666v4.035zM1395.8 92.8c-2.27.504-1.39 4.287.88 3.782s1.39-4.287-.88-3.782m38.73 8.322h-2.78c-.5 6.556 4.67 6.178 2.78 0m-34.57 4.665c.76-1.009-1.51-3.405-2.77-3.783v2.648l2.77 1.009zm59.92 8.448 4.29-3.279-2.02-4.16-2.4 7.439zm-61.31 18.787c-2.27.63-1.01 3.53 1.9 2.774 2.27-.631 1.01-3.531-1.9-2.774m49.58 9.33c-2.27.505-1.64 5.296.88 4.666 2.27-.505 1.64-5.296-.88-4.666m-35.45 3.909c-2.27.63-3.66 4.035-1.13 5.422l4.16-4.161c-1.01-1.261-1.39-1.639-3.15-1.261zm-12.74 11.096c-.12-3.405-2.14-5.296-5.55-4.665l1.39 4.791h4.29zm69.26 0c.25-1.387 0-3.279-1.52-3.657-.38 0-6.94.505-7.82 1.387l7.82.505 1.52 1.891zm-14.01 2.774 1.9-1.387-1.39-2.27-.51 3.783zm.89 1.891h-1.9l-1.01 2.774h2.78v-2.774zm14 4.665-4.16-4.413c-3.79 1.009-2.91 6.052-7.95 3.531v2.774l2.77-.883 1.39 2.648zm-80.36 14.879c5.68 0 1.77-9.079-1.38-8.448-3.41.756 1.64 6.682 1.38 8.448m13.88 1.134c-2.9-1.765-5.55-.504-5.42 3.153 1.51 2.269 3.4.63 5.55.378V182.7zm-11.1 5.422c1.89.505 5.04-1.387 4.67-3.278-.63-3.783-5.18 2.774-4.67 3.278m-1.01-2.774h-3.78c0 3.783 3.78 3.657 3.78 0m68.37 7.566h-3.78c-.89.756 3.53 4.287.5 4.665-2.52.378-3.53-5.926-4.67-2.774-.88 2.522 0 4.917 1.39 7.061 5.3 1.639 4.92-5.548 6.56-8.952m-10.34.882c-5.81 0-6.44 5.548 0 4.665zm-21.95 1.892c-2.27 0-2.27 4.665 0 4.665s2.27-4.665 0-4.665m-33.3 5.547c.37-4.665-3.16-4.665-2.78 0zm11.22-3.656h-2.77l1.01 2.774h1.89v-2.774zm48.69 11.222 1.77-3.405-1.26-2.143-2.15 3.404 1.77 2.144zm-3.65-2.9c-2.02-2.648-2.27 5.548-.51 5.548 2.15 0 0-4.792.51-5.548m-46.05 19.795h-3.66l2.4 4.54c2.02-1.513 2.4-2.27 1.26-4.54m23.97 1.766-1.39 1.387 2.27 1.387 1.39-1.387zm37.97 32.783-.88-4.287c-7.45-1.64-5.05 5.169.88 4.287m-39.36 13.113c.26-1.766-1.13-3.152-2.77-2.774l1.01 2.774h1.89zm40.24.882c1.52-.63 3.16-2.017 2.78-3.782-1.52.63-3.16 2.017-2.78 3.782m-13.12-.882c-1.51-1.513-4.28 1.261-2.77 2.774s4.29-1.261 2.77-2.774m5.81 15.761-1.14-1.766c.25 4.287-5.17 1.009-4.67 4.666l9.34-.883c.5-3.783-3.15-1.639-3.53-2.017m1.89 7.439c-.76-.757.63-2.9-1.14-2.648l-1.89 9.331 6.18-2.774c1.26-4.035-2.77-3.405-3.15-3.909m.76 13.239c-1.64-1.765-4.17 3.783-1.39 3.657 1.01 0 2.02-3.153 1.39-3.657m-16.4 1.009-1.39 2.269 1.39 1.387 1.38-2.269zm15.51 27.991 2.78-2.269-1.39-3.279c-2.02 1.387-.63 3.657-1.39 5.548m-1360.854-4.664-2.775-.378c-4.541 4.665-.757 4.539 3.784 4.161.505.504-1.766 8.195-1.766 9.835.127 4.665 3.154 7.187 1.766 15.004-.756 4.287-6.18 11.726 0 12.104-2.018 12.357-2.27 24.966 1.388 36.944.378 1.261 1.766 2.144 2.144 3.405 1.136 3.152-1.639 5.548 3.911 5.926.757 3.782-6.055 0-5.55 4.665 2.522-1.009 6.181.126 7.064-2.774 5.046 6.935 14.128 6.683 20.183 12.609 4.794 4.665 12.615 23.452 12.993 30.135.126 2.648-1.261 5.169-1.009 8.322.252 2.774 2.397 4.665 2.018 7.439-.378 2.269-3.28 3.404-3.532 5.8-.252 1.891 1.892 3.909 1.514 6.178 0 .757-6.055 12.105-6.938 13.744-1.262 2.143-6.434 9.835-8.578 10.339-1.766.378-2.649-1.387-3.658-1.513-1.262-.252-2.902.883-4.542.757-13.876-1.387-29.644-3.153-43.015-6.683-5.929-1.513-12.74-3.909-18.543-5.8-8.074-2.648-19.175-11.726-26.113-17.022-3.91-2.9-10.974-3.783-8.325-10.844-2.27 1.766-1.64-1.639-4.668-.882l3.785-7.944-2.27-1.387-5.173 5.17-12.11-26.226 2.775-1.892c-4.793-1.891-2.018-4.287-2.27-7.565-.379-3.909-2.27-7.691.378-12.104l-2.775-.505c.757-3.026 1.262-5.674.883-8.952-2.018-20.931-.252-42.996.379-63.927 0-3.908-1.136-8.826-.379-12.735.379-1.891 2.145-3.026 2.397-4.16.252-1.009-1.262-1.892-1.262-3.153 0-3.908 6.308-3.656 9.083-3.404-.379 9.835 11.1 10.339 8.83 0 1.388-3.026 9.461-.757 13.12-.883 4.288-.252 8.956-2.395 13.118-2.017 2.27.252.631 2.143 2.27 2.017-.377-3.656 4.416-1.134 6.813-1.261 10.217-.63 33.05-5.926 41.375-.63 3.911 2.522 5.299 5.926 3.154 10.213zm-16.777-2.774s-.757-2.774-1.388-2.774c-2.649 0 0 4.161 1.388 2.774m4.415-1.639c-3.784-1.765-2.397 6.178 1.01 6.43l-.758 2.648 2.397 1.009c2.397-1.387 1.514-6.683.252-8.196-.252-.252-1.513 0-2.144-.63-.379-.252-.379-1.261-.505-1.261zm-60.676 2.648c-1.766-2.774-7.821 2.396-2.27 5.548 2.396.504 3.027-4.413 2.27-5.548m-2.775 17.652c-3.406-5.296-2.775-14.374-11.1-7.817-3.28 6.935 3.783 14.878 8.45 7.061zm21.57-6.556c-.882-1.009-3.784 1.765-2.775 2.774 1.01 1.008 3.785-1.766 2.776-2.774m34.565 8.447-4.668-3.782c-1.135 1.387 3.028 4.161 4.668 3.782m-72.03 6.557s-3.658-.883-4.667-1.891v1.891l4.163 1.009c.63.252.63-.883.505-.883zm74.679-1.639c-12.11 1.135-5.172 15.635 3.91 9.583 3.785-2.522 2.145-10.214-3.91-9.583M34.69 368.555c-.378-1.009 3.027-8.07-4.541-4.539l.63 10.213c3.659 1.513 7.19-.756 5.425-4.791-.379-.757-1.514-.757-1.514-.883m3.532 5.8c-.63-.63-4.163 1.513-4.794 2.27-4.288 5.8 5.93 7.943 4.794-2.27m-19.174 2.9c-3.28 1.009-.379 6.431 1.892 7.439 4.037-1.639 1.766-8.574-1.892-7.439m8.83 2.774h-2.775v1.891h2.775zm70.01 18.031-2.144-1.261-1.387 3.656c2.018-1.134 3.784 3.405 5.55 1.892 1.262-1.135-2.901-2.774-2.018-4.413zm-86.787 3.53H8.326v1.891H11.1zm83.886 11.474s-4.162-1.513-4.415-1.261c0 3.152 3.028 4.035 5.55 3.783 0 0-1.008-2.27-1.26-2.522zm-52.098 1.513c-1.766-.252-3.153 1.135-2.775 2.774h2.775zm-14.002 3.783s.757 2.774 1.388 2.774c2.649 0 0-4.161-1.388-2.774m-8.578 8.322c.505-1.387.253-6.053-2.27-5.548-3.406 2.648-1.893 7.817 2.27 5.548m70.768-4.161c-.63-.631 0-1.765-1.388-1.387 1.136 3.404-3.153 3.152-3.658 5.295-1.766 6.683 11.227 2.522 5.046-3.908m7.064 5.169v-4.665h-.883l-1.892 4.665zm-57.144 3.783c1.01-1.135-2.523-3.909-3.28-4.665l-3.28 3.278 1.388 2.27 2.775-2.774s.631 3.782 2.271 1.891zm-22.454 7.439c.253-1.765 0-2.774-1.387-3.782l-1.388 1.386zm47.305-.882-1.388 1.387 2.27 1.386 1.388-1.386zm48.187.882-2.775-1.009c-.252 1.387.379 2.018 1.388 2.774h1.387v-1.891zm-71.146 10.339c-.883-1.891-3.406-3.782-5.676-3.782.883 1.891 3.406 3.782 5.676 3.782m2.523 1.009c-3.406 1.009-.504 6.431 2.65 5.548 2.522-.757 2.144-7.061-2.65-5.548m-12.74 3.657s2.775-.757 2.775-1.387c0-2.648-4.163 0-2.775 1.387m-17.787 5.674v-2.774l-2.775 2.395 2.775.505zm43.016 11.221c.126-3.656 0-8.447-3.785-10.339l.379 4.665 3.28 5.548zm-26.239 2.774c-2.775-5.547-5.802-1.26-2.27 0 .504.253 1.64 0 2.27 0m13.876 3.531c2.019-2.018 1.01-5.044-1.135-6.305-2.397 2.27-4.793 4.035-3.28 7.44.631.378 3.785-.505 4.415-1.135m8.578 6.809c7.19-.883 3.785-6.053.379-1.892-.505.631-.505 1.009-.379 1.892m7.064 1.513c.505-.883 1.388-1.513 1.136-2.774l-2.65-2.522v4.539l-3.784 1.513 7.065 5.17c2.018-1.387 2.018-3.279 0-4.666l-3.28 1.892c-.883-2.774 1.135-2.522 1.513-3.152m39.736-2.522c3.406 0 3.406-2.774 0-2.774zm-35.573 15.004s-3.406-4.665-4.667-3.782l-.883 4.665c2.523 1.135 3.28-.378 5.676-1.009zm142.04-485.438-.757 1.639 4.289-.883.883 1.765c5.55-1.26 17.66 4.035 22.58 7.188 2.397 1.639 4.289 3.908 3.027 6.808l2.776-1.513c2.901.63 2.523 3.909 3.658 4.792.757.504 2.271-.505 3.28.252 2.901 2.143 12.74 12.23 14.885 15.13 2.523 3.279 7.695 10.466 4.289 13.996 3.153-.252 3.784 1.513 4.919 4.035 2.523 5.8 4.163 11.852 5.425 18.03l-3.785.883c4.037 2.144 5.425 7.817 5.677 12.23.126 3.909-1.766 7.314-2.018 11.222-.127 2.648 1.387 8.322.756 10.087-1.135 3.279-4.289 2.396-1.513 8.448 2.018 4.413 4.415 2.774-.253 8.574 5.172 6.053 1.262 13.618 1.893 21.561.252 2.27 1.766 3.909 1.766 5.548 0 3.531-4.668 11.096-8.326 12.231-8.704 2.648-25.481-1.513-35.195.504-2.649.252-6.181-1.639-8.451-1.765-.505 0-.379 1.639-1.514 2.017-3.784 1.513-8.578-.756-12.615-.882-6.559-.126-23.336 2.017-28.382 0-3.911-1.513-7.443-8.07-7.569-12.105 0-3.152 2.018-8.826 1.892-12.104-.126-2.9-4.415-6.935 1.009-6.179l-2.775-.882c3.658-17.905 2.523-34.044-8.578-48.922-5.424-7.313-10.47-6.935-17.029-11.096-7.317-4.665-14.255-30.765-14.633-39.592-.126-3.026 1.64-16.391 2.649-18.787.883-2.143 2.523-2.017 2.775-2.395s-.883-4.161.631-8.322c3.784-9.079 9.839-14.5 20.183-13.996 6.433.252 20.688 3.53 27.626 5.17 1.261.252 2.397 1.765 4.289 2.27 2.649.756 7.442 0 8.199.125 1.64.505 1.388 4.54 4.163 4.792zm56.387 41.86c-.252-2.9-7.695-7.943-8.326-4.16 0 .378 1.009 5.8 1.388 6.178 3.658 2.9 3.027-2.647 6.938-2.017m-82.373 8.449s-2.775.756-2.775 1.387c0 2.648 4.163 0 2.775-1.387m77.705 30.891-.883-1.89c-.378 2.143.757 3.403 2.271 4.664l2.271-3.278zm9.335-1.89-4.667.882v1.387c2.144 2.9 5.424 1.134 4.667-2.27m-31.032 7.564h-2.649v2.648h3.785l-1.009-2.648zm-11.983 4.666-4.668-.883c1.388 1.765 1.766 2.396.883 4.665 2.775.378 4.163-.882 3.785-3.782m37.465 1.765 1.892-1.387c-1.009-1.387-2.018-1.639-3.658-1.387l1.892 2.774zm9.335 4.791s-3.659-.252-4.163.883l.504 1.891-4.667.883c1.892 1.513 10.849-1.639 8.452-3.783zm-7.443 29.883c-.378-6.809-4.92-3.278-3.784 1.891h2.775l-1.892-1.891zm6.055-1.891c-2.271.504-1.388 4.287.883 3.782s1.388-4.287-.883-3.782m-52.098 1.008-2.775.379c1.64 1.513 1.513 3.026 1.009 5.043l2.775 1.009zm39.483 13.996c1.01 1.261 4.542.883 3.659-2.269-1.136-4.161-4.668 1.134-3.659 2.269m17.787 3.783-6.56-.883c-.252 2.522 0 5.044 3.28 4.665zM1113.86 91.54s-2.01-4.791-1.64.378l-5.17-1.891.89 2.774c-6.82.882-13.38-.252-20.19 0s-15.26 2.017-22.33.882c-2.52-.378-5.8-2.648-8.7-2.521-2.52 0-4.92 2.9-10.09 2.647-11.61-.504-15.39-6.43-16.4-17.4-.38-4.665 1.01-8.195 1.01-12.104 0-15.887-3.41-30.387.38-46.4.38-1.514 1.64-4.792 2.77-5.675 1.26-.882 11.23-3.152 13.12-3.152 5.68-.126 13.5.379 19.68.379 12.87 0 25.48 1.134 38.47 1.008 9.72 0 17.29-3.53 26.24 3.657 0 5.296 1.26 11.222 1.39 16.391.38 9.583-.88 18.787-1.01 28.118 0 7.187 1.77 18.787.51 24.84-1.64 8.321-11.74 11.6-18.93 8.069m-14.38-14.752-6.05-4.666-2.15 3.405 2.4 3.026 5.93-1.765zm13.12 4.665c-3.4-3.026-3.91 6.052-.5 1.891.5-.63.75-1.639.5-1.891m-8.32 3.782c-2.4-.252-3.16 1.514-2.78 3.783l2.78-2.396zM505.213 424.034s-.883 4.035 3.279 3.656c3.028-.252 4.037-4.539 4.668-4.665 9.208 3.278 34.437-3.404 38.979 7.692 2.144 5.043-1.136 8.069-1.136 12.482 0 2.27 1.009 4.287 1.009 6.431 0 11.474-.883 21.561-.504 32.783.252 5.926 3.532 19.291-3.784 21.939-5.046 0-11.354 2.774-15.895 2.9-2.901 0-5.298-1.009-7.569-1.009-18.795 0-38.978 1.892-58.026 1.009-8.326-.378-12.993-2.396-17.156-9.835.378-1.891 1.009-3.656 1.009-5.674-.505-18.03-2.271-38.961 0-56.992 1.892-14.5 10.722-10.843 22.832-10.843 5.803 0 9.966 1.387 14.002 1.387 6.182 0 5.551-2.522 14.381-1.009 1.135.252 3.532-.757 3.911-.378zm-35.573 4.665c.252-1.765-1.136-3.152-2.776-2.774l1.009 2.774h1.893zm11.226.883c-.126-4.792-7.694-3.279-7.442.882zm-28.004 40.222s2.775-.757 2.775-1.387c0-2.648-4.162 0-2.775 1.387m2.775 18.787c-.504-1.891-2.018-2.144-3.784-1.891.505 1.891 2.018 2.143 3.784 1.891m86.788-393.268c-1.387.882-13.119-.631-16.272-.757-5.298 0-10.849.757-16.778 0-2.523-.378-6.181-2.522-8.578-2.27-2.27.126-4.541 2.774-7.947.379 1.136-3.405-1.387-6.683-3.28-9.205-3.153-1.513.379 7.566 1.388 7.944-2.018 2.522-6.433 2.143-6.559-1.387l-1.388 1.891c-1.766-.756-4.415-.504-4.163-2.9h-.883c.379 2.522-5.172 3.53-7.064 3.53-2.397 0-20.057-3.782-20.814-4.665-2.523-2.9-1.009-7.943-1.135-10.591-1.262-17.778 1.513-33.918 2.775-51.57.126-2.018-1.009-3.783-.757-6.305C452.61.378 473.172 8.448 486.165 9.33c18.291 1.387 42.006.379 59.54 4.035 4.415.883 8.83 7.44 9.083 11.6.126 2.648-3.532 12.61-3.659 15.888-.378 9.204 1.893 20.804 0 30.765-1.892 3.909-1.513 20.048-4.667 21.435-.631.252-2.018-.504-2.775 0-.631.504-.757 1.891-1.135 2.143zm-19.804-49.427c-3.028.63 1.135 6.178 3.279 5.17l1.893-1.892c-1.388-1.387-2.776-3.782-5.172-3.278M511.394 80.57l-3.28 3.279c2.901 3.53 6.812-.379 3.28-3.279m-33.303 2.774c4.668 1.892 4.794-2.27 0-1.891zm29.771 2.018s-2.019-.757-2.649-1.135c0 1.891-.253 3.53 1.387 4.665h1.388c-.126-1.135.378-2.774-.126-3.53M1065.8 424.034c-4.92 5.422.38 8.7 4.29 3.656 1.39-1.765-.25-5.043 3.66-4.665 3.03.252-1.26 3.909-.5 4.665l2.77-.504v-4.161c1.51 1.135 3.53.504 4.92 1.009.88.252.63 1.765 1.26 1.765 2.27 0 8.2-1.639 11.1-1.891 2.02-.126 4.04 0 6.06 0-1.52 3.152 2.02 4.161 4.66 3.782l-1.89-4.161c1.14-1.134 3.41.379 5.17.505 7.07.504 19.81-2.522 21.07 6.556l2.78-1.008c0 5.421 1.76 12.104 1.89 17.274.25 13.995-1.01 28.874-1.01 42.996 0 1.891 1.13 3.908 1.01 5.548 0 .63-3.53 9.33-3.91 9.708-2.02 2.018-13.5 1.009-17.16 1.135-4.41.126-8.07 1.513-12.99.883-9.59-1.261-17.03-.126-27.12 0-9.08.126-18.92.126-28.13 0-5.17 0-11.73-2.27-13.12-7.566-.88-3.152-2.27-9.204 1.51-9.834l-2.02-1.009 1.77-8.7c-4.79-1.135-1.64-4.665-1.64-8.07 0-4.413-4.29-15.635 2.77-15.509l-2.77-.882c2.4-3.531 0-7.692 0-10.844 0-4.791 1.64-10.465.88-15.635 0-.252 2.15-2.143 2.65-2.395 6.18-4.161 14.13-2.774 21.19-2.9 3.41 0 6.82-1.639 10.85 0zm-23.21 7.565c-1.64 2.396 2.9 7.818 5.05 4.665 2.52-3.656-3.28-7.187-5.05-4.665m15.64 6.557-5.17-1.009-2.27 1.387c1.89 3.783-.5 8.826 4.42 9.583 2.01.252 3.91-1.009 5.8-.757 1.01-3.152-1.51-3.909-2.27-5.674-.63-1.135-.25-3.152-.63-3.53zm33.81.756-2.4-.882-1.38 1.891 3.78.883zm31.79 45.896c-2.52 2.396-11.35-5.295-12.11-1.387-.38 2.144 8.33 4.792 9.84 6.052l2.4-4.665zm-28.51 1.892-1.39 2.269 1.39 1.387 1.39-2.27zm21.95 2.773c-2.27-.252-4.92 0-4.67 2.774l4.67-.882zm-60.8 5.674c0-3.404-2.78-3.404-2.78 0zm46.8 2.774s-3.66.379-3.66 1.387c0 2.774 5.55.253 3.66-1.387m-91.71-401.464-.5 8.448-2.4-1.387c4.41-2.395.38-4.539-1.89-7.06h4.79M9.209 71.24H6.433l.883-4.665h1.01zm3.784-7.44v1.766H9.209v-2.774z"/></g><defs><clipPath id="a"><path fill="#fff" d="M0 0h1473v518.726H0z"/></clipPath></defs></svg>