<svg xmlns="http://www.w3.org/2000/svg" width="2003" height="793" fill="none"><path fill="#fff" d="M2002.68 1.477c.97 1.625-.65 5.524-2.28 6.661-1.79 1.463-5.2 1.787-6.98 2.925-5.2 3.574-4.72 3.249-10.73 6.173-7.96 3.9-10.88 6.336-17.38 11.373-8.12 6.498-17.22 6.823-25.34 14.46-2.11 1.949-3.57 5.36-5.69 6.66-3.41 2.112-10.23 2.6-14.62 5.361-7.31 4.55-13.64 12.185-19.82 17.546-10.07 8.773-21.93 12.348-31.84 21.12-3.08 2.763-5.52 7.149-9.09 9.749-6.5 5.036-17.38 8.935-23.56 14.946-2.43 2.275-3.57 6.174-6.01 8.773-5.85 6.336-14.29 9.098-20.63 13.81-4.55 3.411-6.66 8.448-10.56 12.022-2.92 2.762-6.01 3.574-8.93 6.011-3.9 3.412-7.8 10.235-12.02 13.485-4.88 3.899-5.53 3.411-10.89 8.61-13.81 13.485-27.94 26.319-42.24 39.316-1.94 1.787-3.08 4.549-5.03 6.336-2.28 1.95-5.52 2.6-7.8 5.199-3.9 4.062-4.22 10.56-7.8 14.135-3.57 3.574-12.02 7.798-16.24 11.697-19.33 17.709-35.09 38.991-54.1 56.862-4.87 4.712-16.57 12.185-19.82 16.734-1.95 2.762-2.43 6.336-4.38 9.098-2.76 3.737-9.42 7.311-12.35 11.047-3.41 4.387-5.68 10.886-10.23 15.11-2.28 2.112-6.34 2.924-8.61 5.523-2.28 2.6-3.09 6.174-5.2 9.098-3.9 5.687-11.37 12.185-15.27 17.709-4.39 6.498-8.29 16.246-15.43 21.608-1.95 1.462-4.55 1.299-5.53 2.112-.97.812-3.57 6.173-5.03 7.798-5.53 6.498-15.44 15.759-19.98 22.42-2.93 4.386-4.07 11.86-7.64 16.246-2.44 2.925-6.82 4.062-9.1 6.661-2.11 2.437-2.92 6.499-4.54 8.773-3.25 4.549-8.94 9.261-12.35 13.972-9.26 12.672-17.55 28.269-27.78 39.479-3.25 3.574-5.2 2.274-7.47 8.61-2.76 7.636-3.58 13.81-8.94 20.796-4.71 6.011-13.97 11.372-18.19 18.358-4.71 7.636-4.39 12.997-13 19.333-7.96 6.011-9.26 3.25-17.38 4.387-3.41.487-7.47 3.411-12.02 3.574-2.92 0-4.71-1.137-6.99-1.137-4.87 0-17.7 3.574-24.85 4.061-17.71 1.138-35.09 2.925-52.8 3.412-12.02.325-22.09 5.036-33.3 6.336-9.58 1.137-15.43-.162-23.39-6.011-.98-1.625 3.25-9.423 3.41-12.347.32-3.737-1.62-8.123-.65-12.185 3.41-15.109 5.85-29.731 8.12-45.327 3.74-25.02 8.77-50.527 10.89-75.546.97-10.885 3.25-22.42 3.9-32.655.32-4.224-1.3-8.773-.98-12.347.49-5.687 5.36-14.135 5.69-20.308.48-5.687-1.14-13.972-.82-19.658.98-17.384 6.34-36.067 7.15-54.101.16-4.224-1.62-8.935-1.3-13.159.33-4.062 2.93-7.149 3.58-11.048 1.46-8.773 2.11-23.07 2.92-32.655 2.27-24.045 6.01-49.389 11.7-71.484.97-4.062 1.13-12.185 6.33-11.373l-2.76-1.137c3.57-22.257 10.23-44.352 16.08-66.123 2.44-1.462 5.53-.812 8.13-1.787 2.43-.812 4.22-2.599 6.66-3.411 20.14-6.499 41.42-6.661 62.21-10.723 9.1-1.787 16.9-6.336 27.13-6.336 2.11 0 3.58 1.462 6.34 1.137 3.73-.487 7.63-4.711 10.72-6.011 7.96-3.25 13.97.65 20.63.487 3.25 0 6.82-2.761 9.59-2.761 3.73 0 13.32 5.036 17.05 6.823.65 3.574-6.82 25.344-9.09 29.568-1.95 3.737-6.34 7.311-7.31 10.723-1.14 4.224.65 7.473 0 10.723-.65 2.924-4.55 6.336-6.02 9.26-3.24 6.336-2.59 11.86-4.87 17.546-4.55 11.373-13.64 25.994-16.24 37.692-4.39 19.658-13.16 39.153-19.01 59.461-1.79 5.849-6.66 11.535-8.77 18.196-.81 2.762-.49 5.524-1.3 8.448-.98 3.25-4.71 7.311-6.18 11.048-4.06 11.372-7.14 26.644-11.85 37.529-2.44 5.686-5.36 7.148-6.18 15.109-.32 2.924.82 6.174.33 8.286-.65 3.087-7.15 8.61-8.77 12.185-2.93 6.498-3.42 15.271-4.55 21.77-.82 5.361-3.58 6.336-5.36 9.91-5.04 10.235-9.26 21.12-13.65 31.518-2.27 5.199-7.47 23.07-4.71 27.456.32.65 10.56 5.524 11.7 5.849 6.98 1.787 9.74-5.524 13.48-9.423 1.46-1.625 3.9-1.949 5.36-3.899 1.79-2.762 1.79-6.661 3.09-9.585 2.43-5.687 8.77-14.947 12.83-19.334 3.09-3.249 8.28-5.361 10.72-8.935 1.79-2.762 2.11-6.011 3.58-8.936 2.59-4.874 7.14-9.26 10.07-14.621 6.17-11.373 12.51-21.445 19.17-32.331 1.62-2.761 2.11-6.336 4.22-9.098 2.6-3.411 5.69-3.249 8.12-5.848 3.74-4.062 8.45-15.597 12.35-21.121 4.06-5.848 10.56-11.209 14.13-17.058 6.66-10.723 11.54-24.37 19.33-35.092 1.79-2.437 5.69-5.199 7.31-7.799 4.23-7.148 6.34-17.383 12.19-26.156 4.06-6.011 16.4-18.196 18.84-23.72 1.95-4.224 1.63-11.21 4.06-14.459 1.3-1.95 6.99-5.361 9.26-8.448 10.89-15.272 21.12-30.706 31.35-46.627 6.5-10.073 13.65-17.709 19.82-26.644 2.12-3.087 3.25-8.286 5.2-11.048 1.79-2.437 5.04-2.924 6.66-5.524 1.79-2.762 1.79-6.336 4.06-9.423 2.6-3.574 8.94-7.473 12.35-11.047 3.9-4.062 9.75-13.81 14.78-15.272 3.41-.975 7.64-.487 11.21-1.462 5.69-1.462 10.89-4.061 17.71-6.011 2.6-.65 5.85-4.062 9.42-5.361 5.04-1.787 7.64-.813 12.02-1.463 6.66-.812 22.42-11.21 31.35-13.484 3.74-.975 7.31-.487 10.4-1.3 11.21-2.924 21.44-8.61 32.33-11.372 6.17-1.625 11.37-1.3 17.06-2.762 9.09-2.112 19.33-7.31 28.75-9.585 8.45-1.95 21.61-1.788 30.54-3.575 8.28-1.624 17.54-7.148 25.67-9.097 5.03-1.3 10.07-.813 14.46-1.625 21.76-4.55 37.68-8.773 60.1-10.235 7.8-.488 17.71-4.55 25.83-4.874 4.22 0 7.47 1.3 10.88 1.3 3.42 0 13.81-2.925 19.01-3.575 2.44-.325 10.4-3.736 12.02-.812zM1331.6 146.07c-.82-.812-7.48 1.137-7.64 3.249 4.06-.812 3.41 3.25 7.31 2.275zm-296.31 50.364c-4.22 8.448-5.2 14.459-8.45 22.907-3.57 8.773-3.57 8.611-5.85 18.358-2.11 8.773-6.66 20.796-8.12 28.756-.65 3.25.33 5.849-.81 10.073-1.14 3.899-4.71 9.423-5.2 12.185-.49 3.087.81 6.498 0 10.885-.65 3.087-2.92 5.524-4.06 8.448-2.11 6.336-5.849 16.734-7.473 22.42-.812 2.924.487 6.824-.487 10.723-1.625 6.823-8.285 16.246-9.423 21.282-1.299 5.849 0 13.647-1.299 19.496-.487 2.437-2.599 4.062-3.087 6.499-1.787 8.123-1.624 19.82-3.736 27.618-.812 3.087-4.224 5.362-5.036 9.423-1.949 9.261-2.112 20.471-3.736 29.731-1.625 8.448-7.148 19.333-8.123 26.969-.325 2.924 1.3 5.524.975 8.286-.325 2.924-2.762 6.498-3.574 9.748-3.736 14.621-2.762 33.792-8.447 47.439-1.3 3.087-5.036 5.199-6.336 8.935-1.787 5.362-2.112 12.673-3.574 17.871-4.223 15.759-8.609 33.143-11.209 49.389-1.624 10.723.488 21.608-11.696 27.782-5.848 3.086-13.158 3.574-19.332 5.198-14.945 4.225-29.89 8.611-44.998 12.185-11.047 2.6-27.291 2.275-37.038 8.123-4.549 2.762-4.387 6.174-11.209 5.849-8.61-.325-10.884-2.762-11.047-11.047-.325-12.997 3.249-29.406 3.574-42.891 9.422-15.596 11.859-32.98 14.295-50.851.813-6.174-.812-12.347 0-17.871.65-4.711 4.224-8.286 5.199-12.997 1.137-5.686 0-11.535 1.462-17.384 1.299-5.523 5.523-9.26 2.112-15.434-3.737-6.823-11.047-2.762-17.057-.325-12.184 5.037-24.368 13.322-35.414 17.871-9.26 3.9-18.032 7.799-26.967 12.51-4.061 2.112-19.331 13.485-23.068 16.896-8.122 7.149-8.447 19.983-10.397 30.219-2.761 14.134-3.086 28.593-6.173 41.753-.649 2.599-2.599 4.711-3.086 7.473-1.787 9.26-.488 24.37-4.224 32.168-.975 2.112-2.924 3.574-4.061 5.524-3.574 6.986 2.112 11.047-3.899 19.495-7.148 9.911-13.646 3.574-22.255 4.712-2.924.487-4.711 2.112-7.473 2.762-6.661 1.462-13.321.649-19.656 1.787-16.408 2.762-29.404 5.686-46.298 7.798-15.921 1.949-22.419 6.986-39.638 1.462-11.047-3.574-6.823-10.235-6.173-18.358 1.137-14.947 2.112-21.121 7.96-35.092 1.137-2.762 4.711-6.986 5.036-9.423 1.624-11.21 1.137-23.07 2.112-34.443.487-5.036 5.36-12.509 6.335-17.708 1.787-8.286 1.787-9.91 4.549-17.871 3.411-10.235 1.462-18.034 3.086-27.456 1.137-6.499 5.199-11.86 5.686-19.496.325-5.199-.975-11.048.487-15.922 3.574-12.347 9.26-25.994 11.209-38.828.813-5.524 0-12.348 1.3-17.546.65-3.087 3.574-5.362 4.224-8.286 1.786-9.26-.325-25.507.812-35.255.812-7.148 7.148-20.308 8.61-28.106.974-4.874-1.787-9.423-.813-14.947.975-5.848 5.686-14.459 7.311-20.795 2.924-10.885 2.924-21.77 5.198-32.005.65-2.762 2.924-5.362 3.736-9.261 1.3-5.848.325-16.246 1.95-22.257.65-2.275 3.411-4.549 4.548-7.798 1.462-4.387 3.574-20.796 5.848-22.908 1.3-1.3 9.91-3.412 12.184-3.736 16.895-2.112 27.292-3.412 43.537-8.774 3.086-.974 8.934-.162 12.508-.812 10.559-1.949 25.992-8.448 35.901-9.423 3.899-.325 7.636.65 11.534 0 7.473-1.137 18.845-7.96 26.642-8.773 4.224-.487 10.722.325 12.996 4.549 2.762 5.362-4.061 19.333-5.198 25.182-.813 4.549 0 10.398-1.138 14.622-.812 2.924-4.061 4.224-5.685 6.661-2.275 3.087-7.798 21.77-8.123 25.832-.65 7.635 0 15.921-1.624 24.044-1.137 5.686-6.661 13.485-7.31 18.684-.975 8.285 3.411 12.997-.65 23.232s-8.772 21.445-9.585 33.142c-.325 5.037-.325 7.636 5.524 7.149 8.609-.65 31.515-19.333 39.8-25.02 20.306-13.647 39.962-26.806 58.806-42.565 12.671-10.723 19.982-10.398 23.88-29.568 1.137-5.524-1.624-13.16 0-18.521.813-3.25 3.899-4.874 5.036-7.149 3.087-5.686 6.498-21.12 7.96-27.943 1.137-5.037 0-10.073 2.924-15.272l1.787 2.924c4.386-2.274-.65-5.848-1.137-8.285-1.299-6.824 4.061-7.149 5.848-10.885 4.062-8.449-.812-19.171 9.422-27.294 9.26-7.474 15.433-3.899 24.693-6.174 2.761-.65 5.685-3.574 9.097-4.711 4.548-1.463 8.285-.813 12.671-1.625 4.873-.812 7.473-3.737 11.534-5.036 6.823-2.112 21.93-1.787 29.728-3.412 6.336-1.3 13.156-5.361 20.636-5.849 2.43 0 16.89 3.249 18.35 4.549 2.76 2.6 1.79 10.56 0 13.81zm-470.291 95.528c1.462 2.275.812 10.398.487 13.322-2.274 21.283-9.097 37.692-16.57 57.187-.974 2.437-3.411 4.874-3.899 6.499-1.787 5.849.975 14.459-3.249 19.333-1.137 1.3-2.924 1.625-3.898 2.762-6.173 6.823-5.361 14.622-8.285 22.258-.813 2.274-7.473 12.672-9.26 13.646-3.411 1.788-9.097.813-12.671 0v-2.599c-1.624-.487-2.112 1.137-3.736 1.3-2.599.325-6.823-1.3-9.747-1.138-5.686.325-11.859 2.6-18.195 2.6-3.249 0-6.822-1.462-9.097-1.3-3.574.163-9.097 4.224-12.671 4.549-7.31.65-14.945-2.762-22.255-2.112-3.737.325-6.986 2.762-11.697 2.924-4.061 0-6.985-1.299-10.071-1.299-3.087 0-8.448 2.599-12.509 2.762-5.523.325-11.534-1.463-16.407-1.3-3.412 0-7.148 2.274-10.885 2.437-7.472.487-16.082 0-23.555 2.437-10.072 3.249-20.306 6.011-31.028 8.123-7.31 1.462-19.818 1.625-25.179 6.499-2.762 2.599-7.473 8.773-5.523 12.672 2.111 4.549 17.219 10.397 21.93 13.322 10.234 6.498 20.956 17.871 32.003 23.882 9.747 5.199 19.169 6.498 28.753 9.91 6.986 2.6 15.92 10.235 23.393 13.81 16.245 7.798 37.201 13.971 54.42 18.845 14.783 4.224 18.357 11.048 30.054 16.734 6.335 3.087 14.458 4.549 19.818 8.936 3.574 2.924 4.224 7.148 7.635 10.072 5.361 4.874 13.484 3.737 15.921 11.698 1.786 6.173-2.275 13.159-3.574 19.333-.813 3.574 0 7.473-.975 10.885-.812 2.924-4.386 6.174-4.874 9.585s1.625 7.961.975 12.997c-.65 4.387-4.061 9.423-4.548 13.81-.325 2.762.649 5.036.324 7.311-.324 2.924-2.924 6.336-3.249 9.423-.324 3.411 1.138 5.848.163 10.072-.325 1.463-9.422 19.496-10.559 20.958-6.173 8.123-13.321 9.423-21.931 13.16-13.321 5.848-20.793 6.661-33.952 10.56-5.686 1.787-12.671 5.849-18.519 7.148-7.31 1.462-14.62-1.462-21.118 2.112-1.625.975-2.925 3.25-4.711 3.737-3.249.812-8.935-.65-12.834-.487-16.57.649-36.226 2.436-52.796 4.386-6.66.812-12.834 1.787-19.169 4.387l-1.625-3.9c-2.274-.649-.974 2.112-2.436 3.087-3.249 2.112-16.245-.487-20.794 1.138 1.462-6.174-6.985-.325-2.924 2.599-5.848 1.625-11.859-.65-17.382-.325-6.985.487-12.833 5.686-20.306 3.737l1.137-2.762h-2.762l.65 3.574c-.487.487-12.021 2.599-13.158 2.599-1.462 0-1.95-1.624-3.737-1.299-1.624.162-1.786 2.112-2.599 2.274-2.112.325-4.386-.487-6.985 0-2.599.488-4.386 2.437-6.336 2.762-3.736.65-8.447-.162-12.833.487-6.985.975-15.595 4.225-22.256 4.874-5.848.488-12.021-.487-18.194.488-5.036.812-9.422 3.736-13.158 4.224-4.386.487-9.26-.813-13.809-.488-5.035.325-9.909 2.925-14.458 3.575-6.497 1.137-14.782.649-21.443 1.787-2.761.487-4.386 3.249-7.635 4.386-9.26 3.087-25.017 1.462-36.389 3.899-14.782 3.087-26.316 7.636-42.236 5.199-1.625-.325-3.412-.812-4.874-1.462-1.787-7.148 1.137-16.084 3.899-22.582 1.95-4.549 5.523-5.362 7.31-8.611 2.112-3.737 2.6-9.585 4.549-13.809s6.335-7.961 8.122-11.698c4.386-8.773 4.711-12.997 14.133-19.008 7.635-4.874 16.083-5.361 22.418-8.773s8.123-9.26 16.57-11.372c15.27-3.737 22.093-5.199 36.226-13.16 8.935-5.036 15.433-6.499 24.205-10.723 2.924-1.299 5.036-4.224 7.96-4.874 7.148-1.949 16.57-1.624 24.368-4.386 4.061-1.462 8.447-5.524 11.696-6.661 13.646-4.712 28.104-8.936 42.074-13.485 4.874-1.624 12.509-2.599 16.408-4.386 2.924-1.3 4.061-4.387 5.523-5.036 6.498-2.925 25.18-3.087 33.465-5.037 5.685-1.3 10.559-5.036 16.245-5.686 6.66-.65 17.219 2.924 24.529 1.787 6.173-6.336 17.058-8.448 13.321-19.333-2.599-7.636-11.209-17.546-17.707-22.42-11.209-8.448-22.743-18.359-34.601-25.994-2.6-1.625-5.849-2.112-8.448-4.062-2.924-2.274-5.198-7.473-8.935-9.748-2.436-1.462-5.198-1.462-7.635-2.924-3.736-2.275-5.36-7.798-9.097-10.56-4.548-3.412-10.721-3.737-15.595-6.499-6.498-3.574-13.646-12.347-20.306-16.571-11.859-7.473-24.368-12.185-35.901-18.683-2.6-1.463-5.036-4.874-8.285-6.824-3.574-2.112-7.635-2.924-11.047-5.199-3.411-2.274-6.66-7.148-9.747-9.098-2.112-1.299-4.548-1.299-6.335-2.437-2.275-1.462-3.249-4.549-4.711-6.011-10.072-10.072-22.581-17.871-34.277-25.831-9.097-17.059 17.382-17.709 28.266-21.121 16.082-5.036 31.353-11.535 47.435-15.434 3.412-.812 6.661-.325 9.747-1.137 3.899-.812 8.61-5.524 13.483-6.823 12.022-3.087 27.617-8.774 39.151-10.886 2.599-.487 5.198.163 7.635-.324 2.437-.488 4.873-4.225 7.473-5.524 12.671-7.149 25.504-6.824 39.15-11.698 10.721-3.736 20.956-8.285 32.165-11.697 19.981-6.011 43.699-11.048 63.03-18.846 3.574-1.462 6.011-4.061 10.234-5.524 6.823-2.274 15.596-1.299 22.743-3.249 4.549-1.137 8.448-4.386 13.159-6.173 12.021-4.225 27.941-4.712 39.475-8.449 2.437-.812 3.736-2.924 6.173-4.061 8.935-4.224 21.281-5.199 29.891-8.123 3.249-1.138 6.01-4.224 8.772-5.037 4.711-1.299 11.859-.325 16.57-1.299 2.436-.488 4.061-2.6 6.173-2.925 2.761-.487 8.772 0 11.209 1.138 1.299.649 2.599 2.599 4.061 3.411 1.787 1.137 6.823 2.925 7.635 4.224zm516.751-96.991 1.79-.487c-.49-.975-2.44-1.137-2.76-2.274-.82-4.387 1.62-17.546 7.63-16.734l-2.11 4.061 1.79 1.463-1.95.325c3.08 2.274 1.95 4.061 6.33 2.599v-2.762l-3.57.65c.81-3.087 1.3-4.711-.49-7.473l32-6.336c9.1-4.712 18.2-3.575 27.78-5.687 6.5-1.462 14.78-5.848 20.8-6.498 4.71-.488 9.42 1.624 12.67 1.299 3.25-.324 10.88-5.848 15.27-6.823 7.14-1.787 15.1-.325 21.93-1.3 5.03-.65 11.04-6.986 20.63-7.798 14.13-1.137 4.71 12.347 3.08 19.496-2.43 10.072-1.46 23.07-3.24 31.193-.82 3.899-4.39 8.935-5.85 13.484-6.66 22.095-11.86 45.49-16.9 67.748-.81 3.574-4.06 6.661-4.87 9.585-.98 3.737-.16 7.961-1.14 11.697-.65 2.925-3.41 6.336-4.55 9.748-1.95 5.849-1.95 12.347-3.41 18.034-1.78 6.336-5.68 13.322-7.47 19.658-2.76 9.91-4.06 21.932-6.99 32.005-1.46 4.874-5.36 10.56-6.17 16.084-.49 3.249.81 5.849.16 9.098-.48 2.762-3.08 5.036-3.9 7.636-4.71 13.972-5.19 27.781-11.04 42.565-5.2 13.322-4.88 27.131-7.64 40.291-6.98 32.98-17.87 59.137-20.3 93.742-.33 5.198-3.58 9.422-4.55 13.971-2.28 10.073-1.46 21.283-6.17 31.031-3.09 6.174-10.73 11.048-13.33 18.033-6.66 5.199-14.13-1.462-20.46-2.274-4.07-.487-17.06.325-21.61.65-2.92.325-5.36 2.599-7.96 3.087-3.74.487-7.8-.65-11.7-.325-12.34 1.137-21.11 7.311-34.27 5.199-14.3-2.275-13.16-12.51-11.21-24.532.81-5.362 4.38-9.748 5.36-13.972.49-2.275-.33-4.387 0-6.012.49-1.949 3.09-4.061 3.57-6.823.81-4.062 2.93-15.596 3.25-19.496.16-3.411-1.46-7.31-.97-9.91.65-3.412 4.38-6.174 4.87-8.773s-.65-4.386-.49-6.498c.17-3.087 2.93-7.311 3.41-11.048.65-4.062-.48-8.935.49-12.51 1.95-6.986 6.17-7.311 5.85-16.246-.32-7.798-1.95-11.86-.49-20.795 4.06-23.72 11.05-46.627 14.62-70.51 1.14-7.473.98-6.173 3.25-13.159 2.93-9.261 2.11-16.084 3.74-24.857.97-5.199 3.57-11.21 4.71-16.734 1.14-6.173 0-13.484 1.14-18.683.65-2.762 3.25-5.361 4.06-8.448 3.9-16.734 8.12-42.078 9.91-59.3.48-4.548-.49-9.747.48-14.946.98-5.199 5.04-10.56 5.37-14.947.32-4.386-.82-9.098 0-13.972.97-5.686 4.22-11.86 4.71-18.196.32-4.386-2.44-7.798-2.77-11.697-.48-6.174 3.09-11.048 0-16.246z"/></svg>