<svg xmlns="http://www.w3.org/2000/svg" width="1921" height="819" fill="none"><g fill="#fff" clip-path="url(#a)"><path d="m169.069 352.635-4.84-8.162c-42.494-71.041-64.724-110.794-64.724-168.382 0-32.498 6.654-54.566 19.811-65.449 9.376-7.859 22.835-10.278 40.074-7.104 36.596 6.5 61.397 32.649 75.764 53.357l12.551 18.138V66.204l-1.361-1.814c-21.02-28.416-54.138-47.612-95.574-55.32-44.459-8.617-80.3-1.966-106.461 19.8C14.82 53.054 0 94.167 0 150.848c0 95.074 42.645 173.522 89.978 252.12l3.63 6.348c46.426 80.11 79.997 138.001 79.997 221.89 0 42.322-8.619 71.645-25.103 84.795-10.132 8.162-23.288 10.43-40.074 6.651-39.319-8.918-74.856-49.578-91.188-83.587L4.233 611.858v120.921l.756 1.512c15.577 29.625 46.275 67.564 104.95 80.714 11.191 2.418 21.927 3.477 32.211 3.477 26.766 0 50.055-8.011 69.714-24.034 38.108-30.985 60.036-92.201 60.036-168.23 0-102.178-38.713-166.72-102.984-273.734z"/><path d="m712.871 111.247 12.098-13.755-18.147 2.419c-33.572 4.383-64.573 8.011-94.667 11.034l-12.702 1.209 8.014 9.825c3.781 4.685 11.191 28.869 11.191 63.634V447.86c-2.722-6.651-5.746-13.453-8.771-20.406-36.747-78.9-80.602-190.601-80.602-274.943 0-8.616 1.209-20.254 3.175-24.94l4.235-10.127-11.04.756c-39.167 2.569-77.427 3.93-113.569 4.081h-27.22c-32.816-.454-65.178-1.814-96.179-4.232l-17.542-1.361 11.947 12.848c4.99 5.29 11.795 29.172 11.795 65.6v497.739c0 35.974-6.805 58.949-11.493 63.181l-11.644 10.732 15.727 1.209c31.455 2.419 64.119 3.93 97.086 4.232h13.61v.151h13.762a1860 1860 0 0 0 94.364-2.871l14.517-.756-9.83-10.732c-3.78-4.081-10.888-27.207-10.888-63.937V371.982c11.645 30.835 25.255 62.728 40.68 95.527 44.913 97.341 83.022 223.401 54.743 284.92l-4.991 10.882 11.796-1.209c33.572-3.325 68.353-7.255 106.008-12.243l15.122-1.965-11.493-9.976c-3.024-2.569-9.376-18.743-10.434-52.449V177.602c0-35.067 5.746-60.309 11.039-66.355zm-313.185 659.32-9.981-10.127c-4.688-4.837-11.645-28.568-11.645-64.693v-497.74c0-35.973 6.957-59.553 11.645-64.239l9.527-9.371 7.864 9.069c3.326 3.779 10.132 24.487 11.19 54.717v507.715c0 34.916-7.561 60.158-11.342 65.297l-6.956 9.372zm475.145-628.032c37.958-6.197 63.363 18.894 72.286 34.614l12.854 22.37V91.899l-1.664-1.964c-21.171-24.789-47.333-31.893-90.129-24.94-53.383 8.464-91.037 36.578-112.058 83.586-19.205 42.776-21.322 94.923-21.322 130.443v279.025c0 82.226 13.912 132.408 43.704 157.65 15.878 13.452 36.142 20.254 61.548 20.254 8.922 0 18.449-.755 28.581-2.418 39.621-6.348 71.68-27.51 90.583-59.251l.908-1.663V567.874l-13.005 25.998c-6.201 12.394-29.792 53.205-75.159 60.46-14.669 2.418-25.708.302-33.572-6.5-18.147-15.417-19.659-55.17-19.659-94.771V263.154c0-53.961 4.386-112.305 56.256-120.619zm698.959 432.291V77.086c0-35.973 6.96-59.401 11.49-63.785l11.65-11.034-16.03-.755a1582 1582 0 0 0-97.09-1.21l-16.33.303 11.64 11.487c4.69 4.535 11.65 28.265 11.65 64.24V574.07c0 35.973-6.96 59.855-11.65 64.692l-4.84 4.837-4.68-4.535c-5.3-5.139-19.97-31.137-24.5-64.39-22.84-164.905-45.67-329.508-68.36-493.81-4.68-34.915 3.48-59.1 8.93-64.238l13.61-13.15-18.91 1.36c-41.58 2.872-84.68 6.953-131.71 12.697l-13.76 1.662 9.67 9.976c4.09 4.232 14.37 27.812 9.08 62.274-21.78 160.976-43.55 322.405-65.33 483.834l-11.65 11.941c-6.5 6.65-31.75 16.626-65.48 21.765-11.03 1.663-22.07 3.477-33.11 5.14V108.829c0-28.114 6.95-51.09 11.94-56.984l12.25-14.208-18.45 2.871c-34.17 5.442-68.5 11.034-97.688 15.871l-14.82 2.419 11.493 9.522c3.327 2.72 11.191 21.615 11.191 51.694v507.715c0 36.579-7.108 61.216-12.098 67.111l-12.249 14.359 18.6-3.023c61.091-10.127 126.121-20.707 191.901-29.776 35.39-4.988 67.9-9.069 99.21-12.395l15.27-1.662-11.49-10.279c-4.69-4.232-15.88-23.428-11.5-61.82l3.94-33.405c27.22-3.023 53.68-5.592 78.93-7.708l3.78 31.439c4.39 34.16-6.35 58.798-11.94 64.844l-11.95 12.999 17.54-1.512c39.02-3.174 76.83-5.29 112.67-6.348l9.67-.302h9.53c32.82-.756 65.18-.303 96.33 1.058l17.09.755-11.8-12.394c-4.68-4.988-11.79-29.021-11.79-65.146zM1344.84 471.59a2612 2612 0 0 0-60.34 5.895c7.86-69.831 15.72-139.512 23.74-209.495l6.05-71.947 5.9 69.529v.302c8.31 68.623 16.48 137.245 24.65 205.868zm537.6 214.937c-15.88-10.43-26.16-91.749-26.01-207.53 0-87.97-29.49-118.049-50.36-130.292 44.31-18.592 51.72-79.959 53.08-133.164 1.81-52.449-7.86-99.004-27.83-134.524-19.2-34.16-47.33-55.926-79.09-61.519-38.71-6.801-79.24-11.79-120.07-14.964l-17.54-1.36 11.95 12.848c4.99 5.29 11.79 29.172 11.79 65.75v497.74c0 35.823-6.8 58.798-11.49 63.03l-11.64 10.58 15.72 1.21c32.67 2.569 65.03 6.348 96.18 11.185l18.45 2.872-12.25-14.057c-4.38-4.988-11.95-31.591-11.95-66.809v-203.6c3.48.453 6.81 1.058 10.29 1.511 43.4 7.256 43.1 64.844 42.64 137.548v22.068c0 42.02 0 85.4 8.32 126.059l.91 4.384 4.38.907c29.95 6.197 59.89 13.603 88.92 22.068l44.31 12.999-38.71-25.243zm-161.06-592.36c4.39.604 8.62 1.36 13.01 1.965 23.89 3.93 39.92 45.798 39.92 104.445 0 39.753-8.77 87.365-25.55 101.573-3.78 3.326-7.72 4.384-12.1 3.779-4.99-.756-10.13-1.663-15.28-2.418z"/></g><defs><clipPath id="a"><path fill="#fff" d="M0 0h1921v818.633H0z"/></clipPath></defs></svg>