<svg xmlns="http://www.w3.org/2000/svg" width="1607" height="469" fill="none"><path fill="#fff" d="m409.853 63.494-99.762 396.925-79.714 5.762L61.947 91.34 0 34.807l252.827-18.844-48.38 61.694 88.837 246.653 51.262-257.936-58.945-55.452L460.155 2.16l-50.302 61.214zm4.322 369.2 43.099-45.97 6.002-145.712-48.02-45.37 151.384-51.011 2.401 242.573 44.539 46.45zm38.417-359.718 58.224-65.414 59.305 65.414-59.305 60.013zm64.107 105.383-34.695 63.733-6.003 145.832 39.017 35.528 1.801-245.213zm254.267 227.209-129.054-3.241-27.372-33.607 58.105-323.23 37.696-36.488 128.334 5.281 24.61 31.207-10.564 78.137-68.549 1.92 12.245-56.412-63.627.6-45.139 273.779 61.466 1.921 13.086-78.377h62.906L807.342 367.76l-36.256 37.808z"/><path fill="#fff" d="m983.336 246.533-5.282 15.604 19.808 90.739 14.168 11.283 54.5-26.886 15.37 31.447-144.784 87.619-56.423-44.17-1.321-120.506-6.603-48.971-46.819-8.281-1.681-39.129 53.662-.96 2.882-40.209 81.274-92.3 33.494 8.642-15.366 126.748 91.355-11.643 8.65 29.887-56.31 25.685-40.214 5.281zm98.324 2.761 16.08-58.453 43.7-39.608 63.27-14.403 63.15 13.803 41.41 40.328 14.29 58.453-13.57 59.053-42.97 38.768-63.15 19.204-62.55-15.963-43.82-39.009-15.6-62.173zm70.11.6 6.12 29.886 17.89 22.085 26.89 8.282 27.97-8.882 17.77-21.605 6.48-30.006-7.2-29.887-16.09-23.165-29.05-3.72-26.41 5.521-17.77 21.364-6.72 29.887zm384.4-18.364-31.81 35.408-4.81 73.096 14.65 114.744-170.23 2.521 13.68-117.386-3.24-100.461-10.8-114.265 147.3-.6 10.33 33.127 105.04-36.368.72 124.467-70.83-14.523z"/></svg>