<svg xmlns="http://www.w3.org/2000/svg" width="2138" height="453" fill="none"><g fill="#fff" clip-path="url(#a)"><path d="m1073.11 92.127-27.73 21.395c22.6 38.641 25.87 88.853 21.29 132.733-5.02 47.264-22.71 93.219-76.411 96.494-8.514.545-37.44 1.2-43.989-1.856-9.497-4.366-7.205-32.31-7.532-41.479-2.292-58.071-2.62-117.997 0-175.959.546-12.007-3.275-38.314 12.989-40.17 10.37-1.2 31.001-.763 41.698 0 18.335 1.31 33.945 8.952 45.845 22.923l23.47-19.757c-20.2-8.623-42.03-13.535-64.076-14.627-56.542-2.728-118.106 0-174.976 0h-96.385l18.666 11.025c24.778 17.356 31.328 51.74 34.493 80.12l-.546 117.233L619.458 71.824h-96.385v11.462c35.803-4.257 31.983 20.63 33.293 46.391 2.074 41.37 1.528 83.504 0 124.874-.874 22.923-.219 58.726-13.317 78.374-4.148 6.222-12.662 11.898-17.356 18.01-.764 1.092-1.965 1.31-1.528 3.166h91.691c-1.092-2.838-4.694-7.314-6.768-9.388-4.148-4.147-8.405-5.676-12.553-9.387-18.993-16.81-26.416-58.507-27.616-82.849 2.947-43.771-3.712-92.237 0-135.462.109-1.528-.874-2.947 1.528-2.62l188.621 241.671h33.838V156.747c1.528-17.464 3.275-69.313 25.761-73.134 2.838-.436 5.676 0 8.514-.327l.655-3.057h14.517l1.092 3.275c19.757-1.092 25.651.546 28.49 20.412-.437 67.567 4.584 136.554 1.2 204.121-.327 7.095-1.2 18.229-3.493 24.669-3.274 9.497-14.627 14.081-22.267 19.321-.874.655-1.965-.218-1.31 2.292h143.321c38.644-1.419 74.444-9.606 104.134-35.475 65.93-57.416 58.84-183.6-20.19-226.607zM415.665 22.486c12.662-4.148 24.996-9.387 37.658-13.317 6.331-1.965 17.793-1.637 18.557-9.06H311.421v12.553c12.116.873 24.669-.437 34.384 7.75 25.979 21.831 9.387 84.487 0 112.54-18.666 55.669-42.68 117.124-64.838 171.592-.983 2.292-1.638 5.785-3.93 6.986-27.507-74.99-58.726-148.67-86.233-223.769-5.567-15.282-18.993-47.046-18.011-62.328 1.092-16.7 24.779-10.915 36.458-12.99V0H0l11.025 6.113c12.553 5.13 25.651 9.496 37.003 17.137 31.656 21.504 38.423 45.409 52.395 78.81 9.497 22.596 18.775 45.191 27.944 67.895l4.585 11.243c28.598 70.733 56.324 141.793 85.578 212.308l1.309 1.965 23.141 57.088s30.455-86.56 32.856-93l104.79-275.073c7.968-2.074 21.831-2.62 26.088 6.222 3.602 7.641 4.366 26.853 4.693 35.913 2.184 55.996 2.074 122.472-1.091 178.141-.437 8.405.327 27.399-5.785 33.839-3.821 4.148-14.845 10.042-19.976 13.317-.982.655-1.855-.109-1.31 2.292h115.16c.545 0 5.13-1.31 3.602-3.056-5.131-.219-7.423-6.659-9.824-8.405-3.384-2.511-8.078-.874-11.243-6.55-3.493-6.112-4.694-21.94-5.022-29.363-3.274-66.912 1.638-135.134 1.201-202.047 1.31-5.894 1.528-15.063 7.204-18.883.983-.656 6.004-2.62 6.768-2.62h16.155V71.824H386.411c7.75-17.246 15.172-36.348 29.254-49.447zm848.025 49.448h-126.07v6.112c7.2 1.201 24.56 6.768 28.16 13.099 2.19 3.82-.11 5.021 0 8.296.22 4.803 1.86 10.915 2.08 15.718.43 11.134-2.08 27.071 2.07 36.567-3.17.874-2.07 2.838-2.07 5.676l3.16-.982-1.09 3.056-2.07-.436c1.74 8.296-2.19 50.648.21 54.468.33.546 1.97-.218 1.86.655l-2.18 1.965.32 58.18c12.23 9.388 25.55 18.12 37.77 27.835 9.61 7.641 18.56 16.155 28.16 23.905l-.54-216.128c1.96-7.641.65-19.212 8.08-23.687l-.88-1.856c5.13 1.201 9.5-.436 12.01-5.24l10.92-7.312zm70.08 200.191c-5.78-32.638-5.78-70.842-2.4-103.807.77-7.641 2.51-15.391 4.04-23.032l-2.95-2.511 3.17 1.092c.22-4.912 5.02-14.627 4.69-18.884-.33-4.039-4.8-13.754-6.22-18.666-2.18-7.531-4.48-15.172-5.79-22.922-5.89 3.493-11.78 7.204-17.13 11.461-14.63 11.898-29.69 32.419-37.22 49.229-6.88 15.61-10.7 32.31-13.43 49.011l2.18.655-2.07 1.637c-6.01 55.997 16.48 117.998 67.46 146.051l24.34-18.557c-9.83-15.391-15.28-32.965-18.45-50.866zM1749.65 73.79l.55-1.856h-65.06c-1.52 4.912-3.38 3.056-7.75 5.785-11.46 7.313-29.14 22.813-39.73 32.201-2.29 2.074-16.15 14.517-16.7 15.609-.76 1.419-1.31 2.511-1.09 4.148l.22 74.335c8.07 3.056 14.62 8.623 23.47 9.278l40.38 22.159.66-12.99-3.17-2.62 3.17-.545V206.85l-3.17-1.092 3.17-1.091c.43-21.722-.98-43.772-.55-65.603.22-11.243.22-37.768 3.28-47.373 4.47-14.19 28.92-8.187 39.07-2.838 2.62 1.419 5.79 3.93 8.08 6.003 3.17-7.859 12.12-13.535 13.54-21.83l1.53.872zm-65.05 193.969-64.51 36.567c-1.64 12.007-.66 24.887-7.32 35.584-7.75 2.511-16.04 2.948-24.01 2.729v11.462l68-.219 30.57-26.306c-2.84-19.757-2.73-39.951-2.73-59.927zm-186.55-17.684c-2.4-.545-1.64.328-2.29 1.31-1.64 2.511-2.84 8.515-3.17 8.842-10.47 13.535-12.33 18.338-20.41 33.183-18.34 33.839-47.15 62.219-88.96 52.177-9.93-2.402-18.01-8.078-25.32-15.064-1.1 0-15.39 12.007-17.25 13.754-1.09 1.091-2.4 1.855-2.07 3.602 32.09 11.57 66.69 17.028 98.67 2.292 11.68-5.348 15.5-12.334 30.13-7.532 10.59 3.493 16.48 13.099 23.36 16.155 2.29 1.092 4.91.437 7.31.546l-.22-40.169-1.85-.982c4.26-4.694 1.2-13.208 2.07-19.321l-4.15 2.62c-.32-2.62 3.82-3.057 4.15-4.366.33-1.201.33-12.99 0-14.191-.22-.873-2.18-.545-2.07-1.2 0-1.31 1.85-2.62 2.18-5.131 1.09-7.968-.98-18.338 0-26.634zm-46.28 90.6-3.6-12.444 3.71 3.056v9.388zm19.54-18.557c.87 2.62.44 4.366-2.84 4.039-3.6-.982.98-9.824 3.6-8.296-1.53 2.947 3.06 4.148-.76 4.366zm371.56-152.272 14.09-38.532 17.68 44.754c3.93-4.912 9.82-8.187 14.52-12.553 2.83-2.729 12.33-12.225 14.19-14.954.65-.873 1.42-1.092.98-2.62-17.47-12.116-31.44-29.69-46.39-44.863l-2.62-.982c-9.17 28.598-21.72 56.215-31.66 84.595-.87 2.62.33 6.55-2.73 6.113l2.08 4.148-3.06-1.092c-1.09 6.55-4.36 12.444-6.77 18.666-.54 1.419-1.09 2.729-1.52 4.039-1.64 4.475-2.95 9.169-5.24 13.317l1.96 2.51h-2.95l-11.46 32.638 11.35 5.894 9.06-24.996 62.88-.983c-.87-3.384-1.86-6.113 0-9.387h-7.32l-.54 3.165-1.09-3.165c-9.28 1.528-20.09-1.201-29.26 0-2.4.327-.98 2.183-1.96 2.183l-1.2-2.074h-17.03l5.24-16.155c-4.48-1.201.87-3.602 2.18-6.113 2.19-4.039 13.65-34.493 14.08-38.095.33-2.402-2.07-3.493-.65-6.222l3.16 1.092zm-596.86 180.653c-19.87-19.212-44.86-40.825-67.35-56.543-3.27-2.292-6.98-5.13-10.7-6.44v26.525c0 3.274-1.63 12.771-2.62 16.155-3.71 13.208-18.22 15.827-27.61 23.905h110.46c.33-1.856-.98-2.62-2.07-3.712zM1417.28 81.32c13.97 6.114 22.81 10.37 33.4 21.723 4.15 4.366 8.4 10.151 11.02 15.609 4.59-2.511 3.28 1.856 6.12 0 .98 4.912-4.48-.982-4.15 2.62 3.82 3.493 3.49 11.57 9.39 9.933l-1.97 4.366 9.82 27.944c3.17-.546 8.96 1.637 9.83-2.62.98-5.457-.77-13.426 0-19.32l-4.15 1.091c-.98-1.855-1.42-8.405 0-9.387 3.93-2.511 2.07 2.62 4.04 3.056l-.98-45.3-3.17-1.09 3.17-1.092V66.476c-8.84-1.747-13.87 7.75-20.52 12.334-4.7 3.166-9.39 6.004-15.4 5.349-1.96-.218-3.6-1.42-5.45-1.747-1.09-.109-3.17.983-3.5.764-.21-.218.55-2.073-.65-3.165-.77-.764-12.01-5.894-13.97-6.658-3.28-1.31-6.66-2.075-9.94-3.384-1.52.218-4.47 7.968-4.58 9.715-.22 2.292.33 1.091 1.42 1.637zm333.58 32.529c7.31 12.662 15.17 29.582 22.15 43.117 2.41 4.584 3.28 14.19 9.5 12.88V71.934h-4.15l-.54 3.165-.55-3.056h-10.15c-3.28 6.767-23.25 26.743-23.03 32.746 0 3.166 5.67 7.096 6.87 9.169zm136.44 2.183c7.64 8.078 13.97 17.574 23.8 23.36l7.75-7.532-2.08-1.528c7.75 1.091 1.42-13.972-3.16-14.627l1.96-1.092-17.79-44.535h-30.89l-5.35 15.937c.22 2.183 7.97 11.68 9.93 14.081 4.92 6.112 10.48 10.479 15.72 16.046zm-268.41-6.658 37.44-37.44-109.38.545c2.19 4.367 2.51 12.444 4.26 16.374.55 1.31 2.62 1.31 2.84 2.292.11.764-.98 2.51-.66 4.148.88 4.803 3.5 9.169 3.06 14.19 11.46-12.771 21.5-24.778 40.06-26.088 21.94-1.528 21.94 6.44 22.49 26.088zm62.54 143.321c.77-.436 3.61-1.855 3.06-2.62l-64.62-30.236v59.381l14.63-5.239-1.1-2.074c1.53.109 2.62.982 4.15.545 6.33-1.31 36.68-15.936 43.77-19.866zM1542.91 94.42l-6.22-22.486h-14.62v23.359l3.16.546c0 1.637-2.84 1.528-3.16 2.838-1.21 5.021.98 14.517 0 20.084l4.14.546-4.25 2.292v23.687l2.18 1.201-2.07 1.201v21.722c3.82-.437 3.27 5.348 5.78 4.693 3.49-.873 9.5-23.032 11.24-27.289 3.39-8.623 6.99-17.137 10.92-25.433l-6-24.342c-5.13 2.183-3.28 0-.99-2.51zm368.73 132.187c2.51 3.602 7.32 6.877 11.14 9.606 6.33 4.693 13.09 8.405 19.54 12.662.76-2.729 1.85-6.44 2.4-9.169.21-1.201-.77-2.62-.55-3.166.11-.327 2.84-.982 2.84-5.021l-1.97-1.856.99-4.693 2.83-.764c0-6.331 3.5-14.846 3.17-20.74-.22-6.004-9.28-19.539-10.26-26.525-1.42-.327-1.75.219-2.62.983-2.4 2.074-11.9 15.172-13.86 18.447-1.97 3.275-13.76 28.053-13.76 30.127zm32.09 74.663c-1.41.109-18.55 7.204-19.1 8.186 2.08 4.803 2.73 14.627 5.79 18.338 1.09 1.31 4.8 3.602 6.55 4.912 3.16 2.293 17.02 11.898 19.54 12.772 1.31.436 1.85.764 3.38.436 2.73-.764 15.72-14.627 19.54-17.028-5.68-2.838-32.09-27.835-35.7-27.398zm-139.39 30.563c-2.18-3.82-3.6-8.623-4.15-13.099l-59.38 35.367h54.69c5.79 0 5.46-4.039 6.99-6.113 0-.109 1.63.546 3.05-.437 2.62-1.964 5.02-4.038 7.21-6.549-2.51-3.711-5.9-5.021-8.3-9.278z"/><path d="m1907.49 186.438-1.09-3.166 4.59.873 15.17-31.109-47.48 33.402 6.87 19.757c1.53.546.77-4.039 3.06-2.074 1.31 1.092 1.31 7.859 5.79 8.296 6.55-8.187 13.97-16.483 16.15-27.071l-3.16 1.092zm15.18 90.708-1.64-4.148 4.15 3.057c1.96-5.022 14.52-9.06 14.73-15.173 0-1.746-1.2-1.419-1.74-1.965-3.39-4.039-7.21-5.13-11.25-8.077-4.91-3.493-13.86-11.571-18.44-13.863-3.93-2.074-6.23 10.697-6.12 13.317l12.34 33.074 7.86-6.222zm33.29 18.666.22 2.183 4.58 3.602 1.09-1.528c6.12 9.278 16.38 14.627 24.67 21.831l10.7-8.951-12.88-29.363-28.16 12.335zm-156.97 11.898c1.86-8.842 1.31-18.229 3.06-27.289-3.06-1.092-10.04-7.423-12.88-4.366l-23.47 51.084 33.18-19.429zm152.28-24.779c9.06-1.637 17.57-7.313 25.21-10.697.66-.327 2.07.328 3.38-.218 8.08-3.493 18.34-4.803 9.94-15.173-4.81-6.003-6.33-4.912-12.45-1.528l4.15 7.313-5.24 1.092c-.22-1.419-.22-6.004-2.51-5.13l-28.71 23.359c1.75 2.511 3.93 1.528 6.33 1.092zm17.13 68.113v2.074c.88 0 1.75 1.092 2.08 1.092h44.31l-27.5-18.775zm-64.07-8.296v11.462h37.55l-15.06-13.426zm-193.21 1.638c-1.42 0-7.86-2.947-11.46-2.838-5.46 0-13.32 8.514-17.14 12.553h33.3v-11.462c-1.97-.764-3.71 1.747-4.7 1.638zm255.54-105.444c.11-1.31-2.84-7.641-3.61-9.497-.43-1.201-2.07-1.31-2.07-1.528-.22-.437.66-3.711-.33-5.021-3.16-.546-1.63.873-2.07 2.51-2.4 9.388-4.48 19.103-6.22 28.708 3.6-.982 14.08-12.662 14.41-15.282zm68.55 69.532-11.03 15.5c5.24-1.965 17.36 3.274 19.32-3.057 1.42-4.475-3.71-11.679-8.29-12.443m-211.66 35.257-9.82 10.479h19.76v-11.461c-3.28.218-7.1-.874-9.94.982m193.32 10.479h14.62v-11.461c-8.51-2.074-10.8 5.567-14.62 11.461m-7.21-148.452c0-11.789-14.51-1.2-9.38 6.659 5.24 1.091 9.27-.983 9.38-6.659m70.74 92.128s.11-1.529-.22-1.856c-3.71-2.511-9.83 0-7.97 6.331 2.62 8.732 15.94-.655 10.15-6.004l-2.07 1.529zm-111.67-149.653c-5.02-4.912-13.43 5.349-8.08 8.624 3.93 2.401 12.45-4.367 8.08-8.624m-705.04 204.885v-10.369l-11.46.545zm872.7-230.973c-3.16-3.275-8.95 2.074-6.11 5.567 3.71 4.475 10.15-1.419 6.11-5.567m-783.08-20.521c4.7-4.039 8.73-8.842 12.23-13.972 11.89-8.732 25.54-9.496 39.84-9.933l4.15-9.933c-11.9-1.965-23.8-.874-35.81.109l-.65 2.947c-3.06.873-1.31-2.183-3.6-2.183-3.06 0-10.48 2.074-13.76 3.056-1.53.437-1.53 1.965-1.63 1.965-.88.328-4.81-2.51-5.03 1.747v.327c-2.51 1.092-4.69 2.838-6 5.24-3.6 6.658.22 13.972 3.93 19.648 1.53 2.292 4.37 2.619 6.33.873zm-2.29-10.042s-.33-.546-.44-.874v.328c0-.11-.11-.437-.11-.546-.21-.546-.43-1.2-.54-1.855 0-.219-.22-.546-.22-.765v-2.074c0-.218.44-.982 0-.436 0-.11.11-.219.22-.328 0-.109.22-.327.22-.436.43 2.401.76 4.912 1.2 7.204l-.22.218c0-.218-.22-.327-.33-.546z"/></g><defs><clipPath id="a"><path fill="#fff" d="M0 0h2137.7v452.45H0z"/></clipPath></defs></svg>