<svg xmlns="http://www.w3.org/2000/svg" width="1883" height="703" fill="none"><g clip-path="url(#a)"><path fill="#fff" d="M646.848 180.347c-120.891 0-127.661 74.527-127.661 173.411 0 62.751 3.707 150.505 70.117 150.505 16.28 0 30.948-5.969 46.422-5.969 11.767 0 18.376 5.162 18.376 16.293 0 20.003-14.83 25.81-32.399 25.81-22.083 0-41.264-12.582-62.702-12.582-28.047 0-32.399 32.423-32.399 55.33 0 70.816 57.544 69.364 106.223 69.364 84.14 0 112.187-46.458 112.187-124.694 0-39.845-2.902-94.53-55.288-94.53-16.28 0-32.399 4.356-47.873 4.356-14.023 0-24.339-5.162-24.339-20.003 0-16.292 8.059-23.552 24.339-23.552 25.79 0 48.679 16.293 75.275 16.293 55.288 0 55.288-86.302 55.288-117.435 0-68.72-27.241-112.919-125.405-112.919zm280.306 169.056c28.047 0 18.376 47.265 55.288 47.265 51.578 0 51.578-54.685 51.578-95.981 0-74.527-14.83-135.019-99.612-135.019-71.568 0-140.879 18.39-140.879 107.757 0 82.592 3.708 296.815 138.622 296.815 64.959 0 95.099-45.006 95.099-87.916 0-16.292-14.83-20.648-30.301-20.648-25.146 0-33.205 25.81-57.544 25.81-34.011 0-34.011-67.106-34.011-95.174 0-18.39 2.901-42.748 21.438-42.748zM430.05 155.989c-57.544 0-70.117 33.231-70.117 124.05 0 73.881 25.79 98.884 38.363 125.501-2.901 23.551-3.707 48.716-3.707 71.622 0 47.91 5.964 135.019 53.031 135.019 30.948 0 47.872-7.42 47.872-51.62 0-49.523-2.256-98.239-2.256-147.601 0-55.33 8.059-108.563 8.059-163.893 0-46.458 0-93.078-71.567-93.078zm787.24 238.42s-1.45-.323-2.09-.645c.48.161.96.323 1.29.645zM284.658 5.323c-62.702 0-72.534 119.21-72.534 235.678 0 48.394 1.773 95.82 1.773 135.341 0 53.717-3.546 90.496-17.086 90.496s-21.438-230.354-21.438-248.26c0-16.131 3.546-41.134 3.546-55.491C178.919 66.299 173.6 0 89.299 0 4.996 0 0 69.848 0 137.116 0 293.911 42.07 287.62 54.643 349.403c11.605 58.234 30.464 276.006 127.177 276.006 111.865 0 159.415-442.642 159.415-564.594 0-35.005-20.632-55.492-56.416-55.492zM1745.02 305.042c28.05 0 52.39 21.455 79.63 21.455 61.25 0 58.19-106.305 58.19-146.956 0-104.047-56.09-112.274-165.22-112.274-87.85 0-88.49 154.215-88.49 220.031 0 60.492 7.41 139.535 67.86 139.535 14.02 0 27.24-4.355 40.62-4.355 11.12 0 18.37 8.065 18.37 18.389 0 20.648-13.21 29.52-31.75 29.52-22.08 0-41.26-15.486-63.51-15.486-29.5 0-33.85 37.586-33.85 66.461 0 75.978 61.25 74.526 109.93 74.526 93.65 0 107.03-75.978 107.03-155.021 0-40.651-3.71-88.56-53.03-88.56-14.02 0-28.05 3.71-42.07 3.71-22.08 0-24.34-8.066-24.34-22.1 0-13.228 5.16-28.875 20.63-28.875M1174.9 177.444c-106.22 0-117.99 132.921-117.99 233.258 0 100.336 2.9 292.298 113.64 292.298 129.11 0 136.52-230.354 136.52-346.983 0-105.499-19.18-178.573-132.01-178.573zm32.56 207.609v-.161c.32-.807.97-2.097.97-2.259s.16-.322.32-.484c.32-.322 1.13-1.613 1.61-2.097.65-.645 1.45-1.129 2.26-1.613.8-.484 1.77-.806 2.58-1.129h.48c.81 0 1.77-.323 2.58-.323h.32c1.94 0 3.71.484 5.32 1.452a10.3 10.3 0 0 1 3.23 3.226c.32.646.64 1.452.96 2.098.33 1.29.33 2.419 0 3.71.16.645.49 1.29.49 2.097 0 1.29-.17 2.419-.81 3.387-.32 1.13-.97 2.097-1.77 2.904-.65.645-1.29 1.129-1.94 1.613h-.16c-.8.323-1.61.645-2.25.968h-.33c-2.09.484-3.54.484-5.8 0-.81-.161-1.93-.807-2.58-.968 0 0-.32 0-.48-.161-.49-.484-1.29-.968-1.78-1.452h-.16c-.64-.645-1.13-1.452-1.61-2.097-.48-.807-.8-1.613-1.13-2.581v-.161c-.16-.807-.32-1.614-.32-2.581v-.323c0-.807.16-1.775.32-2.581zm8.06 158.57a48 48 0 0 1-.97 6.775c0 .646-.32 1.452-.48 2.097-.48 1.291-.97 2.42-1.45 3.711-.48 1.129-.97 2.419-1.61 3.548-.33.646-.65 1.13-1.13 1.775-3.39 4.678-5.8 7.582-10.8 10.647-.32.161-.65.322-.97.483-1.93.968-4.03 1.775-6.12 2.581-2.42.807-5.81 1.13-8.06 1.291h-2.42c-2.26-.323-5.64-.484-8.06-1.291-2.58-.967-5.16-1.935-7.58-3.226-2.25-1.29-4.19-3.065-6.12-4.678-1.94-1.613-3.71-4.355-5.16-6.291-.48-.645-.81-1.291-1.29-2.097-.97-2.258-2.42-4.839-2.9-7.421-.48-2.258-1.13-5.484-.97-8.065 0-2.097.49-4.356.81-6.453v-.645c0-.322.16-.484.32-.806.65-1.775 1.61-4.84 3.06-6.776 1.29-1.935 2.74-3.71 4.19-5.323.65-.806 1.29-1.613 2.1-2.581.48-.484.97-.968 1.61-1.452 1.77-1.451 4.03-3.387 6.13-4.516 2.41-1.291 4.83-2.259 7.41-3.065 1.61-.484 3.23-.646 4.84-.807s3.38-.645 5.16-.484c2.25.161 4.51.484 6.77.968.32 0 .64 0 .96.323 2.1.645 4.19 1.613 6.13 2.581.32 0 .64.322.96.484 2.26 1.29 4.2 2.903 6.13 4.678 4.03 4.032 5.8 7.743 7.74 12.905.32.645.48 1.451.64 2.258.32 2.258.65 4.517.97 6.775v2.097zm15.96-71.139c-.32 2.097-1.13 4.194-2.26 5.969-1.45 2.258-3.38 4.355-5.8 5.646s-4.84 1.936-7.58 2.097c-1.93 0-3.87-.161-5.8-.807-1.77-.645-3.71-1.451-5.32-2.419-3.71-2.581-6.93-6.292-7.9-10.808-.48-2.743-.64-5.162 0-7.905.65-2.581 1.94-4.678 3.71-6.613.32-.484.81-.807 1.13-1.13.96-.806 1.93-1.613 2.9-2.097 1.61-.806 3.38-1.613 5.16-1.935 3.54-.646 7.41-.807 10.96.645 2.42.968 4.35 1.936 6.28 3.871 1.94 1.936 2.91 4.033 4.03 6.453.33.806.33 1.774.33 2.742.32 2.259.32 4.356 0 6.614zm369.12-211.642c0-36.134-5.16-79.043-50.13-79.043-48.68 0-61.9 32.424-61.9 76.785 0 76.785 13.22 153.57 13.22 232.451 0 8.066-9.51 14.841-17.73 14.841-17.73 0-20.63-21.454-20.63-39.844 0-59.041 3.7-118.081 3.7-178.573 0-50.168-.8-101.788-60.44-101.788-42.07 0-87.04 12.582-87.04 93.077 0 51.62 12.57 99.691 48.68 132.922.8 100.336-.81 173.411 114.28 173.411 70.76 0 119.44-30.972 119.44-104.047 0-37.586-6.61-75.978-6.61-113.725 0-35.489 5.16-71.623 5.16-106.305z"/></g><defs><clipPath id="a"><path fill="#fff" d="M0 0h1883v703H0z"/></clipPath></defs></svg>