<svg xmlns="http://www.w3.org/2000/svg" width="2187" height="1160" fill="none"><g fill="#fff" clip-path="url(#a)"><path d="m339.647 284.622-17.211 3.63c-1.613 3.63 2.286 11.428.807 13.714-.672 1.075-7.261 5.243-8.74 5.243-.807 0-7.664-11.293-7.799 1.613 5.11.404 9.816-2.285 11.295 3.496l6.992-5.243 1.748 3.495c2.958-3.63 19.631 3.092 20.707 5.109 2.42 3.899-.672 7.395-.403 9.68.269 1.748 5.647 2.42 4.706 5.916 3.496-1.882 7.261-4.571 5.109-8.605 2.824-1.747 6.992 4.437 8.202 6.454 9.547 15.595 18.287 43.964 24.741 61.979 26.758 73.946 47.33 150.311 76.239 223.584-19.362 7.126-9.143 18.957 7.127 19.226l35.363 94.246c2.823-2.016 2.42-4.705 2.689-7.663 1.748-22.318-3.093-50.148-3.631-72.735-2.285-103.658 7.396-206.778 1.883-310.302-1.345-26.485-5.378-53.24-6.992-79.592-.941-14.923 1.614-32.267 0-46.787-2.42-20.973-29.716-45.711-44.91-59.156l5.11-22.99c23.261 4.302 45.851 11.696 68.978 16.671 48.137 10.352 98.291 15.596 145.89 27.427 23.127 5.647 59.566 22.99 80.541 23.528 6.723.134 18.153-4.302 22.993.269 2.555 2.42 9.009 21.511 10.891 26.351 20.573 55.795 39.666 112.128 64.138 166.31-6.051 14.386 6.589 30.788 18.825 36.569l33.077 68.299c2.42-.135 2.689-2.689 3.496-4.302 18.018-34.687 39.935-83.357 53.246-120.061 7.799-21.645 27.43-76.096 26.354-96.532-.537-12.1-4.706-21.511-12.908-30.385-4.84-5.243-14.522-8.873-16.27-16.805-4.84-23.394 41.41-9.949 52.57-9.143 56.21 4.168 113.35 2.286 169.83 5.109 6.72.269 20.17.941 25.81 1.882 2.96.538 4.98 3.362 8.74 3.63 3.23.135 2.29-3.361 3.77-3.63 4.97-1.075 12.24 3.227 17.88 1.748l.27 9.277 2.29 2.42c22.18-2.42 46.12-13.041 67.9-14.923 31.73-2.824 98.02 6.991 116.85 35.224 3.9 5.916 11.02 15.058 1.48 17.209-2.96 2.42.4 8.739 3.09 9.546l7.53-1.613c2.82 9.411 5.91 18.822 6.99 28.637 1.21 12.1 3.23 39.124 1.88 50.283-.4 3.361-4.97 3.092-4.97 7.125 0 3.092 3.36 4.84 4.17 7.395 3.22 10.487-.81 24.738-1.08 35.493-1.08 66.148 1.08 133.505-1.61 199.384-3.37 80.802-8.88 147.353-98.16 170.477-38.46 9.949-68.44-11.293-106.49-10.218-.81.807.94 12.638-.27 16.134-1.08 3.092-7.26 4.302-9.15 8.201-6.58 13.176 3.64 18.419 9.42 28.503v91.692l4.97 1.075c0 15.865 8.2 28.906 12.37 43.158l-154.22 57.272c1.74-13.44 19.63-12.37 22.99-19.493 4.44-9.411-5.78-10.352-5.51-13.982l7.53-22.184c6.58.941 13.85-7.663 10.48-13.714-1.34-2.554-5.78-3.226-6.99-5.243-3.76-6.184.81-35.359.94-44.098.54-26.889-.53-53.779 0-80.668 7.4 4.303 12.1-.269 13.85-7.798 0-6.184-10.75-8.47-15.59-6.05-.41-8.873.53-18.015 0-26.889-7.8-164.024 2.68-326.704-1.75-490.459 0-3.63-1.48-6.722-1.89-10.352l8.48-1.21 3.76-30.923c-4.03-4.302-21.24 18.285-21.92 22.587-18.01-4.437-35.9-7.529-54.32-3.63v-9.142c-5.78-9.008-20.71 8.335-3.49 11.697-8.21 15.864-14.93 32.536-22.06 48.938-32.94 75.962-68.167 154.344-100.841 231.919v151.521l-4.303-1.479-2.824 4.033c3.631 6.723 6.32 12.907 6.992 20.705.941 10.487 2.152 93.44-.538 97.608-.941 1.479-6.857-.672.673 6.319l-1.883 270.507 26.086 62.38c.403 1.21-1.479 1.21-2.555.81-55.801-17.88-103.535-55.53-155.168-81.48-.806-1.07 14.791-14.92 16.405-17.34 8.067-12.5 12.37-66.954 13.177-83.894 5.244-115.758.941-244.558-3.631-360.45-.538-12.1 1.479-26.486 0-38.048-1.882-14.252-17.48-47.998-23.799-62.787-21.245-49.879-47.599-97.338-69.92-146.68-17.345-38.317-31.06-78.248-47.868-116.699-3.764-8.47-12.773-31.326-17.48-37.511-3.361-4.302-29.85-13.848-36.035-14.654-42.758-5.781-45.448 43.695-48.944 74.886-16.673 147.622 2.421 300.218 0 448.915-.806 50.014-3.899 100.835-3.495 150.58.268 22.99-1.883 46.115 3.361 68.567-2.958.807-3.496-1.21-5.244-2.554-16.404-12.638-43.027-41.947-58.087-58.081-104.61-112.397-224.414-302.638-280.216-445.957-6.05-15.596 4.303-8.605 3.631-22.587-1.614-4.706-10.085-2.958-13.581-1.076-10.622-26.486-22.051-52.703-32.539-79.323-28.371-71.525-54.591-168.326-97.753-229.768-19.766-28.1-43.027-55.66-67.23-79.995 7.799-.27 8.067-8.874 8.74-9.412 1.21-1.075 27.295 9.546 29.447 11.16 4.034 3.226 2.958 8.738 8.605 10.62 5.647 1.883 7.664-3.226 12.236-2.016 58.087 26.082 117.519 49.073 177.622 70.315 3.496 3.227 6.454 6.05 8.74 10.352 15.463 30.116 22.321 82.281 35.498 116.968 6.992 18.151 16.539 34.956 24.337 52.838zM164.176 101.238c-8.471 2.42-7.933 18.822 4.438 15.058 8.336-2.555 5.378-17.882-4.438-15.058m104.073 41.006c8.202-15.058-7.933-27.293-19.497-34.149-3.361 2.42-2.958 5.915-2.555 9.411.269 1.748 5.782 17.343 6.723 19.36 2.286 4.706 6.051 7.126 11.161 7.126l4.168-1.614zM1356.71 253.7c-5.38-3.765-14.79 6.856-8.61 11.159 7.4 5.243 13.85-7.529 8.61-11.159m-20.58 93.439c-2.42-1.21-2.95-1.344-3.49-4.302-3.5-19.36 5.51-49.476-7.8-66.819-8.74-11.294-23.13-21.243-38.05-20.705-1.08 0-1.08 2.823-2.29 3.361-13.18 4.975-31.19 3.765-38.86 17.881-12.77 23.528-6.72 66.417-6.45 92.096.4 50.82-.54 101.775 0 152.596l-5.38 8.605c0 3.63 2.69 4.302 5.24 2.689v52.971l-3.49 3.361 3.49.807v135.118c18.16-6.184 33.62 16.403 49.49 18.957 26.08 4.168 42.75-21.108 45.85-44.098 4.57-34.687-1.75-72.601-3.37-107.422-.4-8.336-3.09-60.098-1.34-62.921.54-.941 3.9-1.21 4.84-2.958l-5.24-5.109V446.63l10.48 2.554c1.62-5.916-8.33-6.319-8.74-7.932l1.75-88.331c2.15-2.824 2.42-3.227 3.63-5.916 11.57 5.781 12.91 6.588 20.58 18.419 2.55 4.034 1.61 10.084 8.06 11.025 16.68 2.554 11.57-11.697 14.93-17.075.4-.538 12.77-2.958 4.97-8.067-2.01-1.344-5.38-.403-7.39-1.344-10.22-4.84-10.76-7.664-23.8-2.958.27-8.873-6.19-14.386-13.99-7.932-3.89 3.226-2.28 5.781-3.36 7.932zM329.294 274.27c-1.345-7.395-8.606-11.159-15.598-8.605v6.857c3.9.403 9.009.403 8.74 5.243h1.614c-.538-3.63 2.017-3.899 5.244-3.495m849.256 5.378c-1.08 8.201-14.93 24.738-.54 29.04 22.45 6.588 25.01-29.982.54-29.04m-931.143 33.208c-6.185-6.319-16.269 5.915-8.202 10.89 6.858 4.302 13.85-5.109 8.202-10.89m71.399 9.949-7.799 5.109-2.689-5.109-6.857 4.302 6.857 2.555-3.496 4.302 3.496.806c2.017 13.445-5.647 28.637 9.547 36.435 12.37-4.167 1.613-11.696.941-18.419-.941-8.873 7.664-15.864 15.597-16.268v4.303l5.244.806v-6.857h5.244l-1.344-3.092 2.958-1.21c-1.076-3.495-10.488-2.823-13.715-2.42-.538 9.546-.807 4.84-4.841 7.26-1.21.807.538 3.63-2.286 2.958.135-5.781-2.823-8.873-8.74-8.739l1.748-6.857zm1046.234 3.764c-2.01.673-2.82 2.151-2.96 4.168l1.75 5.243c13.58 2.017 13.45-13.444 1.08-9.411zm-145.35 46.25c4.57-2.824.27-12.1-6.72-7.664-5.65 6.588 1.34 11.025 6.72 7.664m-386.169 3.764c-2.689-3.092-20.573 20.436-9.278 24.066 12.37 4.033 9.143-17.344 9.278-24.066m-475.318 22.856c-5.11 1.479-21.11 23.528-12.371 25.545 5.917-2.689 23.531-8.605 25.951-13.848 4.034-9.008-4.706-14.386-13.58-11.697m-106.627 5.109c-6.589 4.033-.404 13.848 6.723 9.277l3.361-5.244c-1.748-2.42-7.53-5.512-9.95-4.033zm950.634 13.848c-7.53 2.151-9.81 15.596-.4 16.268 16 1.21 14.39-20.301.4-16.268M948.753 492.61c-1.748 2.017-9.546 10.083-3.361 11.966 8.74 2.689 11.698-8.47 3.361-11.966m-28.505 20.839c-5.11-4.705-29.716 12.235-30.926 18.554-1.883 9.68 9.278 11.428 16.27 7.529 4.302-2.42 17.345-23.528 14.656-26.083m-41.817 13.983c-7.261-4.975-12.909 9.411-3.9 11.696 7.933 2.017 6.051-10.218 3.9-11.696m308.719 15.461c-.8 3.227-6.72 14.251-.8 15.596 6.99 1.478 6.72-13.445.8-15.596m-876.95 3.495c-2.285-1.613-7.26 4.437-8.471 6.319 1.748 6.992 8.337 7.798 11.833 1.21zm901.15 6.857c0 4.571-4.7 15.999 4.04 13.579s5.65-13.982-4.04-13.579m-57.68 10.756c-6.05 1.748-7.53 12.1 1.35 11.966 10.62 0 11.02-15.731-1.35-11.966M921.996 697.102c-6.051-2.016-12.102 5.916-15.06 6.723-3.496.806-14.656-4.571-17.614 4.974-5.513 18.285 25.951 9.949 31.867.538-3.765-5.647.672-6.185.672-12.1zm300.784 5.378c-6.58 1.479-4.97 15.461 3.1 13.579 6.58-1.479 4.97-15.461-3.1-13.579m-293.927 18.823-10.084 3.63c-2.017 7.932 2.958 9.68 9.95 8.201 2.286-4.033.672-7.664.134-11.966zm-482.041 12.503c-7.395-4.302-14.79 10.756-5.513 13.445 8.74 2.554 11.026-10.084 5.513-13.445m446.14 47.728c5.917 5.916 19.497 5.378 22.859-2.957 2.151-5.244-.673-11.966 4.302-16.403-.269-6.453-21.917 2.689-25.951 1.748-7.126 3.092-5.781 13.176-1.344 17.612zm-32.27 54.317c-6.723 2.151-1.614 14.789 5.916 9.411 4.303-2.958 1.479-11.831-5.916-9.411m324.048 39.93c-6.86 2.286-4.84 14.386 4.57 11.697 8.61-2.42 3.77-14.386-4.57-11.697m-287.475 3.496c-8.202 2.285-5.11 15.999 4.437 13.31 10.891-2.958 4.437-15.865-4.437-13.31m324.045 34.687c-13.98 5.512-12.9 22.049 3.37 12.234 7.93-4.705 2.82-13.444-3.37-12.234M882.195 946.5c3.631 1.748 8.203 1.075 11.161-1.479 10.219-8.874-14.522-18.554-11.161 1.479m46.658 59.02c-16.673-2.96-9.95 13.85-1.613 7.93zm-29.985 14.12c-7.933 2.01-3.899 13.85 2.959 11.83 6.05-1.75 4.302-13.71-2.959-11.83m-28.909 24.06c-.941-1.21-7.26-1.34-8.605.81l-1.748 7.8c5.782 2.42 14.118-3.23 10.353-8.61m32.943 43.3c-19.496-3.37-14.387 17.34-4.706 10.48zm904.648-739.86c-.94-9.008 1.75-21.108-.8-29.578-2.02-6.588-26.63-44.502-32.27-52.3-3.9-5.512-7.27-6.185-11.97 0-4.57 5.781 2.96 1.479 1.75 7.395l-6.86 3.495 6.86 3.496-12.11 1.748 3.5-8.605-6.99 1.748 1.75 13.848c-4.31-2.824-8.07 2.554-11.03 1.613-5.38-1.613-10.35-14.117 0-15.192l7.53 3.226-3.5-13.848-5.1 5.244-3.37-9.68-5.24 1.075v-5.243l8.61 1.748c-2.96-7.798 7.79-9.143 0-18.15 2.42-5.647 9.95 2.42 12.1-2.555l-16.27-5.378-2.96 6.857h-9.95c-.81-7.529-6.99-8.874-5.65-16.806l-8.47-2.017c3.5 7.126-8.34 7.261-6.05 0 .67-2.285 4.97-1.882-.4-4.84-22.73-12.906-86.06-16.402-108.38-3.764-2.82 1.613-3.36 6.991-7.8 8.201-4.3 1.21-11.29-.807-13.98.672-1.21.673-2.56 6.992-6.86 8.067-4.03 1.076-7.39-2.285-12.64-.807-5.78 1.614-37.11 25.007-37.92 29.847-.4 2.152 17.75 17.613-4.16 21.243l-8.07-8.47c-7.26 13.176-10.49 24.066-12.1 38.989-4.71 43.023-1.35 82.416-1.75 124.901-.4 57.408-5.38 115.892-5.38 173.166 0 9.411 1.61 54.182 5.11 59.156l60.24 47.056c39.66-4.033 79.2 2.958 118.46-5.512 30.39-6.588 59.29-20.301 90.09-26.083l51.76-81.743-1.61-89.541-3.36-2.151-105.55 25.41c-.68 46.922 2.96 104.062-35.5 137.808-20.84-3.899-47.33-13.848-52.57-36.973-2.96-13.176-1.62-73.004-6.06-77.979h-.13c.67-12.503 1.48-24.872 2.02-37.376.13-4.571.53-9.142.13-13.713-.13-2.42-.4-4.84-.94-7.126l203.84-18.285V363.273s-3.09.403-4.97-1.075c-10.49-7.798-7.94-18.016 4.97-14.521zm-228.71-56.199c-8.88 6.319-13.59-11.697 1.61-7.932zm107.43 159.184s.27 1.076.27 1.479c-.41 2.958-.67 5.916-1.08 8.874v.672c0 .538 0 .941-.13 1.479-25.01 8.873-57.01 8.739-83.77 15.864.27-18.284 0-36.703-.81-54.988-.54-11.428-2.01-22.99-3.63-34.418 0-.135-.27-.269-.27-.404 0-13.31-.27-26.754-.4-40.064 0-1.748-1.21-2.555-2.42-2.824-.14-35.09 4.57-67.761 25.41-82.415 14.25-10.084 45.32-17.747 55.4.941 6.45 11.966 12.77 59.828 13.58 74.752 1.21 23.259-4.3 48.132-1.75 71.122.27 2.823 1.08 5.243 2.15 7.529-1.48 8.201-2.69 16.537-2.55 25.007 0 2.42.27 4.84.54 7.26zm25.95-160.259c4.17 0 9.95 3.764 10.35 7.797 1.21 11.966-12.77 1.211-10.35-7.797m32.81 49.207c-2.56 10.083-22.99-10.218-1.88-7.26.8 2.016 2.42 5.243 1.88 7.26m43.29 45.039c-8.06 8.874-13.04-4.571-17.21-10.218.14-5.109 13.72 1.614 15.06 3.093 1.35 1.344 2.56 5.377 2.02 7.125zm2.16-57.274c-2.69-9.276 11.16-10.621 13.31-7.125 5.91 9.276-9.68 19.898-13.31 7.125"/><path d="M1890.65 203.282c-2.15 3.765 1.34 6.454 4.57 8.336l7.4-4.033-5.11-7.798 63.06 5.378c4.7 1.613 1.75 14.251 13.98 13.713 4.98-.269 21.25-8.067 28.24-10.083 10.35-2.958 26.22-7.664 36.44-8.605 28.77-2.823 58.22 19.091 86.73 22.318 2.42 1.748 14.65 43.561 15.46 49.476 1.34 8.874-.27 15.999 2.28 25.41 5.79 21.512 26.09 33.612 43.17 45.174l-77.99 43.561-19.09-4.437c-1.22 5.916 2.28 7.932 5.24 12.1l-39.53 21.781 1.48 7.663h-8.61c3.36-9.411 1.21-20.301 1.61-30.385 1.48-35.763 7.94-94.247-6.05-127.32-6.45-15.193-17.61-17.613-33.07-18.823-14.12-1.21-20.84-2.016-31.06 8.47-13.18 13.445-15.47 29.579-16.54 47.594-3.77 67.223 2.82 143.051 3.63 211.484.4 36.838-.27 68.567-1.75 105.674-.4 10.487-2.55 43.964-1.21 51.762.13 1.21 8.87 19.898 10.22 22.453 4.17 8.066 10.89 13.041 15.33 19.36 1.07 1.479 2.42 1.748 1.75 4.302l-94.53 36.435c-3.63-11.697-13.98-13.982-21.51-4.168-.54 2.555 8.06 7.529 4.84 12.638l-29.18 12.369c1.21-4.168-10.22-19.36-13.85-15.596l2.69 20.84-32.14 12.1 31.2-50.283c6.59 4.705 12.1 6.722 10.35-3.496l-6.99-.806c8.47-8.471 9.01-26.217 13.71-34.553.41-.672 6.19.269 7-3.496l-5.25-5.512c1.48-41.813-4.17-83.491-3.36-125.304h8.47l-1.48-11.428-5.24.942c-1.75-8.067 2.55-16.403 2.82-23.663.67-15.999-4.03-35.359-4.57-51.627-2.15-52.165 4.84-101.238-1.88-154.075-3.77-29.041-10.89-58.081-25.55-83.76 14.39-15.327 7.66-24.738-10.62-14.386-1.75-9.949-16.54-15.999-12.1-25.948 5.64 3.361 14.52 0 10.35-6.857l76.24 5.244zm90.22 38.049c7.13 3.092 36.44.806 33.89-10.487-5.52-18.15-37.52 5.243-33.89 10.487m89.42 81.743c-9.41 2.823 5.78 11.696 11.02 2.285-2.42-3.361-7.53-3.361-11.02-2.285m75.16 15.327c-6.05-1.345-20.84 6.991-20.84 13.041 0 2.285 13.18 11.159 15.6 13.982 16.27-3.63 6.86-16.402 5.38-27.023zm-66.02 18.822c1.48-.941 3.23-9.277-.54-9.815-16.94 1.345-7.39 14.924.54 9.815m-178.83 5.647c-6.99 1.882-10.22 15.192-1.35 18.015 15.33 4.975 15.47-21.914 1.35-18.015M31.195 7.529v12.1C20.573 15.596 12.1 10.756 0 12.638l10.354-6.05-5.11-3.496c6.185-9.008 17.076 4.437 25.95 4.303z"/></g><defs><clipPath id="a"><path fill="#fff" d="M0 0h2187v1160H0z"/></clipPath></defs></svg>