<svg xmlns="http://www.w3.org/2000/svg" width="1968" height="405" fill="none"><g fill="#fff" clip-path="url(#a)"><path d="M242.589 242.27c-9.521 51.114-19.173 102.097-28.824 153.211-35.215-.912-70.56-1.825-105.774-2.868a68677 68677 0 0 1-52.04-321.549c-7.564-.26-14.998-.521-22.562-.652C16.303 46.681 9.52 22.167 0 0c47.605 1.434 130.815 2.869 178.55 4.173-.652 23.47-1.304 46.941-1.826 70.281-8.086-.26-16.172-.39-24.258-.652 8.477 58.938 17.085 117.745 25.693 176.683 10.564-58.416 21.129-116.702 31.693-175.118-7.304-.13-14.738-.391-22.042-.522.653-23.47 1.174-46.94 1.826-70.281 47.605 1.304 95.34 2.347 142.945 3.39-.522 23.47-1.043 46.941-1.565 70.282-7.956-.13-15.781-.392-23.737-.522 8.608 58.807 17.346 117.614 25.954 176.552 10.304-58.416 20.607-116.832 30.78-175.248-7.304-.13-14.738-.26-22.041-.522.521-23.47 1.043-46.94 1.434-70.281 40.301.912 80.602 1.564 120.903 2.347-.391 23.47-.782 46.941-1.174 70.282l-23.085-.392c-21.389 106.27-42.909 212.541-64.69 318.68-35.214-.652-70.559-1.434-105.774-2.216-8.999-51.506-17.998-103.011-26.867-154.646zm337.406 42.899c-18.911-.261-37.692-.522-56.604-.782l-7.825 41.073 26.737.392-1.174 75.888c-45.518-.652-91.036-1.434-136.423-2.347.521-25.296.913-50.592 1.434-75.889 9.391.131 18.912.392 28.302.522a64061 64061 0 0 0 72.777-313.203c43.04.652 86.08 1.303 129.25 1.825 20.998 105.097 42.127 210.063 63.516 315.029 9.391 0 18.912.13 28.302.261-.261 25.296-.391 50.592-.652 75.888a37104 37104 0 0 1-169.942-1.955c.391-25.297.652-50.593 1.043-75.889l27.781.391c-2.218-13.822-4.435-27.513-6.652-41.334zm-10.303-60.633c-5.478-32.728-10.956-65.326-16.303-98.055-6.13 32.468-12.39 65.066-18.52 97.534 11.607.13 23.215.391 34.823.521"/><path d="M995.004 115.267c0 43.421-22.563 74.194-63.647 86.19 32.085 7.823 46.953 35.206 51.518 73.15l6.651 54.374h18.914v75.889c-40.173 0-80.213 0-120.383-.131-.392-55.026-3-91.796-6.261-114.876-4.825-32.468-15.39-51.114-35.345-51.244-3.912 0-7.695.521-10.564 1.043l-.391 89.058h22.172c0 25.296-.261 50.593-.261 75.889-52.039-.261-103.948-.522-155.987-1.043.261-25.296.522-50.593.652-75.889 9.26 0 18.52.13 27.78.261.652-81.365 1.435-162.73 2.087-244.095-9.13 0-18.39-.13-27.519-.261.261-23.47.391-46.942.652-70.412 50.083.521 100.035.782 150.118 1.043 95.079.391 139.684 32.076 139.684 100.924zm-113.077 11.344c0-31.294-8.087-41.856-32.867-41.856h-12.13l-.391 83.582h13.825c23.215 0 31.563-11.474 31.693-41.595zm145.683 202.5h27.78c-.13-81.365-.26-162.73-.52-244.095h-27.52V14.604c49.43 0 98.99-.26 148.42-.522 104.99-.652 144.25 75.107 145.56 191.156 1.3 118.658-35.09 198.328-137.73 199.11-52.04.261-103.95.521-155.99.521v-75.888zm145.55 3.912c26.74-.13 35.35-26.078 35.22-60.111-.26-41.595-.52-83.191-.91-124.786-.27-35.728-9.26-59.85-34.57-59.72h-13.17c.39 80.974.91 161.948 1.3 242.922 3.92 1.043 7.83 1.565 12.26 1.565z"/><path d="M1319.63 327.416c9.26 0 18.52-.26 27.78-.26-.91-81.366-1.83-162.731-2.87-243.965-9.13 0-18.39.26-27.52.26l-.78-70.412c95.99-1.043 192.11-2.477 288.1-4.433 1.05 53.461 2.22 106.922 3.27 160.513-25.83.522-51.65 1.044-77.35 1.435l-1.56-90.102c-26.48.522-52.95.913-79.3 1.304.52 30.773.91 61.546 1.44 92.318 7.43 0 14.73-.26 22.17-.391-.26-13.169-.39-26.339-.65-39.639l46.43-.783 2.34 135.218-46.56.782c-.26-13.039-.39-25.948-.65-38.987-7.43 0-14.74.261-22.17.391.52 31.685.91 63.371 1.43 95.056 26.61-.391 53.35-.782 79.95-1.304-.65-34.293-1.17-68.456-1.82-102.749 25.82-.522 51.65-.913 77.47-1.435 1.17 59.59 2.48 119.049 3.65 178.639-97.3 1.955-194.59 3.52-291.89 4.563l-.78-75.888zm304.8-4.824c9.26-.131 18.52-.391 27.78-.652-1.83-81.365-3.52-162.6-5.35-243.965-9.13.26-18.39.391-27.52.521-.52-23.47-.91-46.941-1.43-70.281 45.78-.913 91.69-1.956 137.47-3.13 26.6 67.544 53.47 134.957 80.47 202.37-1.44-44.725-2.87-89.319-4.31-134.044-7.3.26-14.73.391-22.04.652-.65-23.47-1.3-46.941-1.95-70.282 42.12-1.173 117.64-2.347 159.76-3.65-5.47 23.34-20.99 47.462-31.17 70.281-9.13.26-18.39.522-27.52.913 3.26 106.531 6.53 213.192 9.79 319.723-37.31 1.174-74.61 2.217-111.91 3.26a60478 60478 0 0 1-79.82-210.715c1.18 45.638 2.22 91.275 3.39 136.782 7.44-.13 14.87-.391 22.18-.521l1.95 75.888c-42.65 1.043-85.43 2.086-128.07 2.999-.53-25.296-1.05-50.592-1.57-75.888z"/></g><defs><clipPath id="a"><path fill="#fff" d="M0 0h1967.31v405H0z"/></clipPath></defs></svg>