<svg xmlns="http://www.w3.org/2000/svg" width="1836" height="514" fill="none"><g fill="#fff" clip-path="url(#a)"><path d="M79.603 506.891c15.308-6.78 24.165-19.138 18.916-49.978C77.525 324.476 56.422 191.164 35.428 56.759 30.07 25.48 15.964 11.046 0 1.312V0c42.644 5.359 85.289 9.843 127.933 13.56v1.313c-14.762 6.343-23.619 18.264-18.917 49.213 15.527 112.314 31.054 224.082 46.69 335.303 16.73-92.411 33.46-184.603 50.08-276.357 5.905-29.965-2.952-43.089-17.058-51.51V70.21c42.098 2.734 84.086 4.812 126.184 6.343v1.203c-14.106 7-22.963 19.138-17.058 49.432 16.729 92.52 33.459 184.602 50.08 276.138A284796 284796 0 0 1 395.17 78.74c4.702-29.637-4.155-42.213-18.916-50.087V27.45c41.988 1.203 84.085 1.75 126.074 2.078v1.203c-15.965 7.327-30.07 19.466-35.428 48.994-20.994 126.75-42.097 254.156-63.092 382.109-5.357 29.856 3.499 42.105 18.917 49.104v1.203c-49.752 1.312-99.503 1.968-149.255 1.75v-1.203c14.105-7.437 22.962-20.014 17.714-50.088-13.122-73.272-26.352-146.982-39.473-220.911-13.122 73.054-26.352 146.326-39.474 219.817-5.358 30.184 3.499 42.98 17.714 50.744v1.313c-50.08-.766-100.269-2.406-150.348-5.14z"/><path d="M799.854 491.362v1.203c-45.597 3.062-91.193 6.015-136.79 8.749v-1.203c13.559-8.639 19.463-21.653 8.857-51.837-10.825-31.278-21.65-62.555-32.475-94.051-5.358.874-11.153 1.093-16.511 1.312-7.654.328-15.308.656-22.963.875v97.879c0 29.855 11.81 41.338 27.665 47.791v1.203c-45.378 2.515-90.866 4.702-136.243 6.452v-1.203c15.964-7.983 27.773-20.779 27.773-50.744V130.469c0-30.075-11.809-42.214-27.773-49.65v-1.204c43.847.11 87.694-.218 131.541-.875 86.054-1.093 146.849 54.572 146.849 133.422 0 46.697-21.213 87.052-56.64 112.861 15.089 41.229 30.288 82.24 45.378 123.032 10.059 26.903 25.368 37.292 41.332 43.417zM622.935 277.888c37.724-1.312 64.294-28.871 64.294-62.664s-26.57-59.493-64.294-58.727c-7.654.218-15.308.328-22.963.437v121.61c7.655-.218 15.309-.437 22.963-.765zM1091.8 471.349c15.97-7.983 27.78-20.341 27.78-48.557V113.955c0-28.325-11.81-39.59-27.78-46.15V66.6c45.38-1.093 90.87-2.078 136.25-2.624v1.093c-15.97 7.109-27.67 18.701-27.67 46.807V418.09c0 28.106 11.81 38.933 27.67 44.947v1.094c-45.38 2.406-90.87 5.14-136.25 8.093v-1.203zm326.72-61.242c0 27.449 11.81 38.385 27.78 44.838v1.093c-45.38.875-90.87 2.406-136.25 4.375v-1.094c15.97-7.436 27.78-19.247 27.67-46.916V134.078h-14.11c-34.22.328-60.14 2.952-85.5 27.996-.44-.218-.77-.328-1.21-.547 9.08-32.808 18.04-65.398 27.12-97.988 76.1-.656 152.21-.218 228.2 1.969 9.08 32.043 18.04 63.867 27.12 95.801-.44.218-.77.328-1.2.547-25.37-24.497-51.29-27.341-85.51-27.669-4.7 0-9.41 0-14.11-.109zm389.82-278.436v335.631c0 26.357 11.81 37.949 27.77 45.604V514c-45.38-3.39-90.87-5.796-136.24-7.437v-1.093c15.96-6.015 27.66-16.295 27.66-42.98V304.244c-30.62-1.968-61.34-3.5-91.96-4.703v159.778c0 26.903 11.81 38.058 27.67 44.948v1.093c-45.38-1.093-90.87-1.312-136.25-.984v-1.094c15.97-6.78 27.78-17.826 27.78-44.947V113.736c0-27.122-11.81-38.605-27.78-45.932V66.71c45.38 1.64 90.87 4.047 136.25 7.109v1.094c-15.97 5.468-27.67 15.748-27.67 42.541V226.05c30.62 1.422 61.34 3.172 91.96 5.359V123.907c0-26.575-11.81-38.496-27.66-46.26v-1.094c45.37 3.609 90.86 8.093 136.24 13.56v1.094c-15.96 4.484-27.77 13.999-27.77 40.355z"/><path d="M1051.67 427.386c-21.98-102.582-44.06-205.928-66.041-309.822-5.904-27.887 3.499-39.917 19.461-47.463v-1.203c-58.606 1.64-117.215 3.5-175.714 5.14v1.203c15.964 6.671 25.368 18.263 19.463 46.916-21.978 106.846-44.065 214.349-66.044 322.508-5.904 29.09-20.009 41.995-35.974 50.197v1.203c45.159-2.953 90.428-6.125 135.587-9.296v-1.203c-15.964-6.015-25.914-17.17-20.666-46.041l8.857-49.213 90.865-5.577 8.857 47.572c5.358 27.778-4.702 40.245-20.666 48.338v1.203c46.034-3.281 91.955-6.453 137.995-9.405v-1.203c-15.97-5.906-30.07-16.623-35.98-44.183zm-91.846-151.138c-3.827 16.076-20.994 30.074-42.863 16.841 0 0-1.422 22.748 18.698 28.872 1.312.437 2.624.984 4.046 1.422.437 1.312.874 2.734 1.312 4.046-10.279.547-20.666 1.094-30.945 1.75l-.328-.328c0 .109-.218.218-.328.328-8.966.547-17.823.984-26.789 1.421l1.312-4.265c1.312-.656 2.624-1.203 4.046-1.859 20.119-8.421 18.698-30.949 18.698-30.949-21.76 15.529-39.036 3.281-42.863-12.577-3.827-15.857 4.92-32.152 15.198-44.838s32.804-57.306 32.804-57.306 22.525 42.652 32.803 54.244 19.026 26.903 15.199 42.979z"/></g><defs><clipPath id="a"><path fill="#fff" d="M0 0h1836v514H0z"/></clipPath></defs></svg>