<svg xmlns="http://www.w3.org/2000/svg" width="1778" height="377" fill="none"><g clip-path="url(#a)"><path fill="#fff" d="M220.591 356.183h-4.168l1.535-111.533.549-1.315-97.626-.219v113.177h-4.169c-5.704 0-10.42 4.711-10.42 10.408v10.409h124.5v-10.409c0-5.697-4.716-10.408-10.42-10.408zm81.94-120.736 92.8-3.396V57.301c0-9.423 4.168-13.038 10.42-13.038 5.156 0 9.324 2.63 10.421 9.312v177.599l94.884-3.506v-21.036c0-134.76-15.138-178.036-105.305-178.036s-103.22 43.167-103.22 176.941zm-86.328 1.862L320.74 20.817h3.62c5.704 0 10.42-3.178 10.42-7.341V0L134.921 1.753l70.094 178.913c.987 2.63 1.535 5.259 1.535 7.341 0 6.793-4.168 9.86-8.336 9.86s-8.337-3.067-10.421-9.422L118.248 10.08c-2.084-5.698-6.252-8.327-11.956-8.327H0v13.586c0 4.163 4.717 7.34 10.42 7.34h3.62l99.382 219.78 102.891-5.04zm654.314-22.788v-7.779c0-134.322-15.138-178.037-99.052-178.037-26.107 0-44.864 2.63-64.06 20.269-19.855-17.75-37.515-20.269-66.145-20.269-86.547 0-92.799 50.508-92.799 176.941v20.707l92.799-3.396V57.301c0-9.423 4.169-13.038 10.421-13.038 4.717 0 8.337 2.081 9.872 7.779.549 1.533.549 3.177.549 5.258v164.89l92.799-3.396V57.301c0-9.423 4.169-13.038 10.421-13.038 5.156 0 8.885 2.63 9.872 8.326.549 1.534.549 3.068.549 4.712v160.726l94.884-3.506zM1598.54 29.472c-93.23 0-169.25 72.858-174.63 164.67l348.17-12.818c-11.41-85.677-84.58-151.852-173.54-151.852m-198.1 2.3h-250.65c-6.8 0-10.42 3.616-10.42 10.409v138.485c0 6.793 3.62 10.409 10.42 10.409h46.4c6.8 0 10.42-3.616 10.42-10.409V52.589h10.42c6.81 0 10.43 3.616 10.43 10.409v138.375l95.32-3.506V62.997c0-6.792 3.62-10.408 10.42-10.408h10.42v128.077c0 6.793 3.62 10.409 10.42 10.409h46.4c6.8 0 10.42-3.616 10.42-10.409V42.181c0-6.793-3.62-10.408-10.42-10.408m-399.61 25.529c0-9.423 4.17-13.038 10.42-13.038 5.16 0 9.44 2.63 10.42 9.312v155.249l94.89-3.506c0-133.775-15.36-176.723-105.31-176.723-89.946 0-103.218 43.168-103.218 176.942v7.45l92.798-3.397zM554.604 356.183h-4.169c-5.704 0-10.421 4.711-10.421 10.409V377h96.968c6.801 0 10.421-3.616 10.421-10.408V237.309l-92.799.877zm781.666 0h-7.35V230.845l-95.32.877v124.352h-9.44c-5.7 0-10.42 4.711-10.42 10.408v10.408h132.84v-10.408c0-5.697-4.72-10.408-10.42-10.408zm95.54-126.214C1445.19 313.345 1517.48 377 1604.69 377c87.2 0 161.24-65.408 173.31-150.318zm-307.14 126.214h-2.08V232.817l-94.88.877-20.85.219-92.795.877v121.393h-4.169c-5.704 0-10.42 4.711-10.42 10.409V377h96.967c6.797 0 10.417-3.616 10.417-10.408V261.961h20.85v60.916c0 22.35 3.62 54.123 50.56 54.123h56.82v-10.408c0-5.698-4.71-10.409-10.42-10.409m-605.497 0h-2.084V238.515l-80.075.767-14.699.219-20.842.219-92.799 1.095v115.368h-4.169c-5.704 0-10.42 4.711-10.42 10.409V377h96.968c6.8 0 10.42-3.616 10.42-10.408V261.961h20.842v60.916c0 22.35 3.62 54.123 50.568 54.123h56.82v-10.408c0-5.698-4.716-10.409-10.42-10.409zm359.571 0h-2.084V235.118l-94.884.877v130.597c0 6.792 3.62 10.408 10.421 10.408h96.967v-10.408c0-5.698-4.716-10.409-10.42-10.409m-210.499-25.966c0 5.15.548 9.861 1.535 14.024C675.045 365.606 692.157 377 720.348 377h30.275c6.801 0 10.421-3.616 10.421-10.408V236.214l-92.799.876z"/></g><defs><clipPath id="a"><path fill="#fff" d="M0 0h1778v377H0z"/></clipPath></defs></svg>