<svg xmlns="http://www.w3.org/2000/svg" width="100" height="100" fill="none"><path fill="#fff" d="M63.366 66.055c.11.131-.174 1.136.11 1.55.13.197.567.284.785.502 1.747 1.55 4.257 4.41 6.331 5.414.699.328 1.812.437 2.358.96.502.503.546 1.53 1.004 2.053.219.262.808.371.895.633.24.764-.218.546-.48.764-4.039 3.275-8.383 6.025-13.448 7.466-2.14.611-5.414 1.375-7.619 1.572-2.467.218-1.484-.087-1.375-1.637.109-1.747-.153-3.646 0-5.37.087-1.31.633-2.686.502-4.061-.175-1.965-.066-2.729 0-4.584.022-.677-.153-4.083 0-4.214.175-.152 1.725-.218 2.117-.305a28 28 0 0 0 3.493-1.092c.48-.196 1.332-.808 1.703-.873.699-.11 1.921 1.68 2.773 1.68.24 0 .808-.545.895-.436zm-21.635-.045c.677.677 3.144.634 4.126 1.114.742.371.35 1.44.415 2.14.327 3.252 1.288 7.924 1.026 10.958-.131 1.463.567 3.319.458 4.541-.022.306-.327.742-.414 1.113-.066.306 0 1.048-.044 1.092-.24.262-2.38-.437-2.925-.262-7.074-1.616-13.514-3.69-18.753-8.798-.393-.37-1.616-.698-.764-1.528.458-.436 1.397-.96 1.899-1.397 3.187-2.75 6.418-5.48 9.693-8.165.655-.523 1.397-1.746 2.292-1.79.393 0 1.2.437 1.375.262.11-.109.11-.917.655-.742.546.153.743 1.288.94 1.484zm-8.95 13.557s.96.306 1.135.262c.873-.24.174-1.768-.743-1.528-.415.11-.502 1.157-.37 1.266zm13.752-48.722c-.328.327-1.616.196-2.096.305-1.2.284-2.794.917-3.995 1.354-.611.218-1.157.83-1.877.61-.306-.086-.961-.96-1.31-1.243-2.795-2.445-6.266-4.847-8.82-7.51-.24-.262-.328-.633-.611-.895-.765-.699-2.053-.59-2.38-1.943-.262-1.026.11-.699.437-.982 6.396-5.152 12.334-7.488 20.543-8.296.262-.022.567-.284.764-.24.567.11.436 1.637.393 2.161-.35 4.825-.546 9.911-1.005 14.801-.043.415.066 1.79 0 1.9zM63.125 14.55c.328-.327 2.402 1.092 2.882 1.332 2.86 1.44 4.716 3.078 7.226 4.497.72.393 1.616.066 1.004 1.31-.196.415-1.266.742-1.528 1.266-.37-.262.371-1.004.131-1.288 0 0-.611-.175-.633-.175-.655-.021-3.296 1.921-2.183 2.62.131.087 1.375.175.764.633-.044.022-.371.022-.633.24-.633.502-.48.895-.742 1.31-.218.306-.764.196-1.157.371-1.201.546-1.856 1.965-3.319 2.554-.414.153-1.113 0-1.266.524-.087.35.066.808-.13 1.135-.132.175-1.092.677-1.398.895-.35.24-1.07 1.267-1.55.874-.044-.022.568-.72-.13-1.026-.569-.24-.503.873-.634 1.004-.24.262-3.187-.96-3.82-1.157-.72-.219-2.424-.371-2.817-.742-.458-.437-.196-1.594-.262-2.293-.436-4.562-1.004-9.19-1.288-13.775 0-.414-.087-2.597 0-2.685.175-.174.874.219 1.157.24 1.572.153 2.948.262 4.52.59.742.153 5.544 1.375 5.544 1.855 0 .088-1.2 1.31-.13 1.66 1.091.349.305-1.703.392-1.79zM87.36 50.997c.217.196-.241 1.484-.263 1.899-.044.524-.065 1.572 0 2.03.022.24.371.087.459.175.654.61-.306 1.375-.59 1.986-1.375 3.122-2.074 6.986-3.493 10.151-.917.371-1.44 1.528-1.768 2.424-.568.589-2.314 4.147-2.882 4.17-.087 0-1.004-.241-1.179-.307-2.074-.851-4.846-4.628-6.353-6.396-1.07-1.244-.96-.917-1.637-2.423-.917-2.008-1.834-1.288-2.641-2.074-.11-.11-.131-.415-.284-.59-.24-.261-.786-.654-.917-.873-.437-.83.044-.698.524-1.026 2.052-1.44 3.973-2.99 6.003-4.453 1.026-.742 4.716-3.667 5.524-3.93 1.615-.523 3.776-.545 5.588-.698.262 0 1.267-.087 1.529-.11.392 0 2.335-.086 2.423 0zm-48.683 1.506c-.524-.655-.655-4.257-.568-5.196.83-9.103 13.033-13.6 19.277-6.767 3.383 3.71 4.104 6.985 2.947 11.875-.066.284.044.655-.044.983-.087.327-.742.72-.982 1.048-.852 1.157-1.507 2.248-2.664 3.187-2.248 1.79-4.104 2.161-6.876 2.292-.306 0-.59.284-1.026.262-3.057-.24-7.641-2.75-9.017-5.545-.283-.568-.218-1.615-.414-1.877-.131-.197-.524-.175-.612-.284zm9.278-14.255-.633.633.502.502.633-.633zm3.907 4.65c-.152-.153-2.226-.546-2.641-.568-1.987-.153-4.563 1.812-5.37 3.58-.655 1.397-.852 3.668-.262 5.108.48 1.18 1.2.852 1.397 1.026.065.066-.088.677.262 1.136 1.331 1.833 4.672 2.03 6.636 1.266 2.51-.983 4.126-3.952 3.82-6.615-.065-.655-.676-2.51-1.266-2.816-.654-.328-1.615-.524-2.248-1.179-.197-.196-.175-.764-.35-.939zm5.153 3.776c-.393.393.764 1.092.764.393 0-.153-.612-.524-.764-.393m.502 1.026c-.502-.524-1.441.851-1.026 1.266.043.044.982.044 1.026 0 .043-.043.043-1.222 0-1.288zM22.04 73.68s-.895.065-.96 0c-.066-.066-.044-.306-.153-.46-3.82-5.37-7.576-10.893-8.274-17.747-.11-1.136.24-2.009.262-2.795 0-.393-.393-.524-.48-.786-.46-1.419.589-.633 1.353-.589 1.615.11 6.222-.044 7.357.546.677.35 1.68 1.484 2.336 1.484.305 0 .655-.458.873.175.11.327-.044.611.284 1.004.284.35 1.222.786 1.68 1.135.547.437 2.948 2.554 3.32 2.576 1.047.044.436-.327 1.658.35.328.174.874.152.983.545.087.284 0 .655.065.96.24.874 1.375.372-.022 2.075-1.397 1.724-3.187 3.23-4.606 4.846-1.812 2.03-3.58 4.082-5.37 6.113-.197.218-.197.545-.284.61zm55.627-49.448c.13.131-.11 2.183 0 2.293.349.349 1.113-.59 1.397-.503 2.074 2.926 3.995 5.85 5.37 9.17.72 1.724 1.42 3.732 1.856 5.544.415 1.812.546 3.646.96 5.436.175.174-.152.436-.283.48-.415.131-1.987.066-2.533.022-.436-.022-.808-.262-1.244-.284-.983-.065-4.3.153-4.868-.48-.437-.502-.175-1.244-1.288-1.288-.459 0-.786.37-1.136.153l-9.955-7.663c.983-1.135 2.074-2.205 3.057-3.318 2.183-2.489 4.431-4.912 6.636-7.4.24-.284 1.616-2.62 2.03-2.183zm-4.432 7.183c-.284.065-1.179.676-1.179.85 0 .372 1.354 1.027 1.9.874.61-.153.785-2.074-.721-1.746zM12.37 46.675c-.197-.197.654-3.973.567-4.672 1.616-5.872 3.995-12.006 8.1-16.634.218-.24.85-.983 1.156-.874.197.066 1.114 1.594 1.397 1.921 2.205 2.533 4.65 4.847 6.9 7.379.501.568 1.025 1.484 1.527 2.052.459.502 1.485.808 1.266 1.506-.087.328-.938.546-1.266.786-3.515 2.489-6.833 5.283-10.391 7.706-1.987.437-4.039.393-6.048.568-.261 0-.523.218-.785.24-.393.022-2.336.087-2.424 0zm2.052-4.322c-.394.37.283 1.833.916 2.008.612.175 1.507-.59 1.616-1.179s-1.114-1.179-1.637-1.113c-.11 0-.852.24-.874.283zm20.652 13.75s0 .545-.131.764c-.262.415-.35.065-.568.044-.24 0-.808-.022-.851-.044-.131-.087 0-.917.393-1.026.152-.044 1.091.218 1.135.262z"/></svg>